<?xml version="1.0" encoding="utf-8"?>
<!-- Generator: Adobe Illustrator 23.0.1, SVG Export Plug-In . SVG Version: 6.00 Build 0)  -->
<svg version="1.1" id="Layer_1" xmlns="http://www.w3.org/2000/svg" xmlns:xlink="http://www.w3.org/1999/xlink" x="0px" y="0px"
	 viewBox="0 0 400 130" style="enable-background:new 0 0 400 130;" xml:space="preserve">
<g>
	<g>
		<path d="M182.92,116.35c0.51,0.4,1.38,0.95,2.62,1.64c1.24,0.69,2.42,1.04,3.55,1.04c1.13,0,1.7-0.44,1.7-1.32
			c0-0.4-0.16-0.75-0.48-1.06c-0.32-0.31-0.91-0.66-1.76-1.06c-0.85-0.4-1.49-0.71-1.92-0.94c-0.43-0.23-0.99-0.6-1.7-1.12
			c-0.71-0.52-1.24-1.06-1.62-1.62c-1.07-1.52-1.6-3.45-1.6-5.79c0-2.34,0.87-4.32,2.62-5.93c1.74-1.61,4.03-2.42,6.85-2.42
			c1.92,0,3.69,0.21,5.31,0.62c1.62,0.41,2.46,0.95,2.52,1.62c0,0.08,0,0.16,0,0.24c0,0.93-0.29,2.11-0.88,3.53
			c-0.59,1.42-1,2.22-1.24,2.38c-1.7-0.88-3.23-1.32-4.57-1.32c-1.34,0-2.02,0.48-2.02,1.44c0,0.59,0.49,1.11,1.48,1.56
			c0.21,0.11,0.52,0.25,0.92,0.44c0.4,0.19,0.86,0.41,1.38,0.66c0.52,0.25,1.08,0.57,1.68,0.96c0.6,0.39,1.24,0.9,1.94,1.54
			c1.41,1.33,2.12,3.09,2.12,5.27c0,2.85-0.79,5.18-2.36,6.99c-1.57,1.81-3.99,2.74-7.27,2.8c-1.6,0-3.04-0.13-4.33-0.4
			c-1.29-0.27-2.42-0.78-3.37-1.56c-0.96-0.77-1.44-1.7-1.44-2.8c0-1.09,0.2-2.18,0.6-3.25
			C182.04,117.41,182.47,116.7,182.92,116.35z"/>
		<path d="M221.86,126.18c-2.32,0-3.57-0.37-3.75-1.12l-1.32-5.15h-6.35l-1.16,4.95c-0.16,0.83-1.44,1.24-3.83,1.24
			c-1.28,0-2.22-0.07-2.84-0.22c-0.61-0.15-0.92-0.26-0.92-0.34l7.07-27.04c0-0.21,1.82-0.32,5.47-0.32c3.65,0,5.47,0.11,5.47,0.32
			l6.91,27.08c0,0.19-0.61,0.33-1.84,0.44C223.55,126.13,222.58,126.18,221.86,126.18z M211.44,114.84h4.19l-1.8-8.27h-0.24
			L211.44,114.84z"/>
		<path d="M251.14,125.22c0,0.56-1.25,0.84-3.75,0.84c-2.5,0-3.86-0.2-4.07-0.6L236.64,113v12.42c0,0.48-1.23,0.72-3.69,0.72
			c-2.46,0-3.69-0.24-3.69-0.72V98.7c0-0.4,1.05-0.6,3.16-0.6c0.83,0,1.79,0.07,2.9,0.22c1.1,0.15,1.78,0.42,2.02,0.82l6.39,12.3
			V98.9c0-0.51,1.24-0.76,3.71-0.76c2.48,0,3.71,0.25,3.71,0.76V125.22z"/>
		<path d="M262.64,124.26V100.3c0-0.67,0.17-1.19,0.5-1.58c0.33-0.39,0.77-0.58,1.3-0.58h6.67c4.23,0,7.45,1.07,9.65,3.2
			c2.2,2.13,3.3,5.48,3.3,10.06c0,9.8-4.18,14.7-12.54,14.7h-6.83C263.32,126.1,262.64,125.49,262.64,124.26z M270.31,105.73v11.94
			c0,0.56,0.04,0.91,0.12,1.06c0.08,0.15,0.32,0.22,0.72,0.22c1.46,0,2.58-0.55,3.33-1.64c0.76-1.09,1.14-2.91,1.14-5.45
			c0-2.54-0.39-4.2-1.18-4.97c-0.79-0.77-2.03-1.16-3.73-1.16H270.31z"/>
		<path d="M289.88,119.23v-14.22h-2.84c-0.45,0-0.77-0.57-0.96-1.72c-0.08-0.56-0.12-1.13-0.12-1.72c0-0.59,0.04-1.16,0.12-1.72
			c0.19-1.14,0.51-1.72,0.96-1.72h13.42c0.45,0,0.76,0.57,0.92,1.72c0.11,0.56,0.16,1.13,0.16,1.72c0,0.59-0.05,1.16-0.16,1.72
			c-0.16,1.14-0.47,1.72-0.92,1.72h-2.68v14.22h2.8c0.45,0,0.77,0.57,0.96,1.72c0.11,0.56,0.16,1.13,0.16,1.72
			c0,0.59-0.05,1.16-0.16,1.72c-0.19,1.15-0.51,1.72-0.96,1.72h-13.46c-0.45,0-0.76-0.57-0.92-1.72c-0.11-0.56-0.16-1.13-0.16-1.72
			c0-0.59,0.05-1.16,0.16-1.72c0.16-1.14,0.47-1.72,0.92-1.72H289.88z"/>
		<path d="M317.36,109.25c0.51,0,0.76,0.93,0.76,2.8c0,0.56-0.06,1.22-0.18,1.98c-0.12,0.76-0.34,1.14-0.66,1.14h-5.07v3.99h7.35
			c0.45,0,0.76,0.59,0.92,1.76c0.08,0.51,0.12,1.05,0.12,1.62c0,0.57-0.08,1.31-0.24,2.22c-0.16,0.91-0.43,1.36-0.8,1.36H305.9
			c-1.01,0-1.52-0.41-1.52-1.24V99.18c0-0.69,0.31-1.04,0.92-1.04h14.3c0.56,0,0.84,1.18,0.84,3.53s-0.28,3.53-0.84,3.53h-7.39v4.03
			H317.36z"/>
		<path d="M338.85,117.75l0.08-5.43c0-0.37,0.39-0.62,1.16-0.74c0.77-0.12,1.41-0.18,1.92-0.18l1.56,0.12
			c1.01,0.16,1.52,0.44,1.52,0.84l-0.16,12.5c-0.53,0.37-1.6,0.74-3.22,1.1c-1.61,0.36-3.45,0.54-5.53,0.54
			c-3.86,0-6.98-1.25-9.35-3.75c-2.37-2.5-3.55-6.18-3.55-11.02c0-4.13,1.16-7.48,3.47-10.06c2.32-2.58,5.52-3.87,9.63-3.87
			c1.86,0,3.55,0.18,5.05,0.54c1.5,0.36,2.54,0.85,3.1,1.46c0.03,0.21,0.04,0.61,0.04,1.2c0,0.59-0.2,1.42-0.6,2.5
			c-0.4,1.08-0.85,1.88-1.36,2.42c-0.51,0.53-0.87,0.8-1.1,0.8s-0.47-0.1-0.72-0.3c-0.25-0.2-0.75-0.41-1.5-0.64
			c-0.75-0.23-1.47-0.34-2.16-0.34c-1.65,0-2.99,0.53-4.01,1.6c-1.03,1.07-1.54,2.72-1.54,4.95c0,2.24,0.53,3.93,1.58,5.09
			c1.05,1.16,2.26,1.74,3.63,1.74C338.16,118.79,338.85,118.45,338.85,117.75z"/>
		<path d="M360.75,126.5c-3.74,0-6.79-1.22-9.15-3.67c-2.36-2.45-3.53-6.02-3.53-10.72c0-4.7,1.19-8.26,3.57-10.68
			c2.38-2.42,5.46-3.63,9.23-3.63c3.77,0,6.81,1.19,9.13,3.57c2.32,2.38,3.47,5.99,3.47,10.82c0,4.83-1.18,8.43-3.55,10.78
			C367.55,125.32,364.5,126.5,360.75,126.5z M360.77,105.45c-1.28,0-2.35,0.59-3.22,1.76c-0.87,1.17-1.3,2.82-1.3,4.93
			s0.41,3.74,1.24,4.87c0.83,1.13,1.91,1.7,3.26,1.7c1.34,0,2.44-0.57,3.28-1.72c0.84-1.14,1.26-2.78,1.26-4.91s-0.43-3.77-1.3-4.91
			C363.12,106.02,362.05,105.45,360.77,105.45z"/>
	</g>
	<g>
		<g>
			<path d="M48.76,30.29h11.76v11.9H48.76V30.29z M41.94,30.16H30.18v17.78c-1.6-0.4-3.34-0.67-5.21-0.67
				c-12.16,0-20.05,7.62-20.05,19.51c0,12.3,7.49,18.58,21.79,18.71c5.21,0,10.16-0.53,15.24-1.47V30.16z M30.18,75.87
				c-1.34,0.27-2.67,0.27-4.01,0.27c-6.01,0-9.36-3.34-9.36-9.62s3.34-9.89,9.36-9.89c1.34,0,2.67,0.13,3.88,0.67L30.18,75.87z"/>
			<path d="M48.76,70.93c0,10.02-0.53,13.9-2.27,17.24c-1.74,3.34-4.14,5.35-9.36,7.75l10.83,5.21c5.21-2.54,7.62-4.95,9.62-8.55
				c1.87-3.61,2.81-8.29,2.81-17.64V48.07H48.62L48.76,70.93L48.76,70.93z M82.97,47.27c-5.35,0-10.69,1.07-15.5,3.48v8.96
				c4.28-2.27,8.96-3.34,13.77-3.48c2.94,0,4.01,0.8,4.01,2.94v2.54c-14.3,1.2-20.32,4.95-20.32,13.1c0,7.49,4.41,10.96,14.17,10.96
				c5.48,0,11.23-0.53,16.71-1.2V60.77c0-4.81-0.27-7.08-1.2-8.82C93,48.74,89.12,47.27,82.97,47.27z M85.91,76.94
				c-1.87,0.4-3.74,0.53-5.61,0.53c-3.21,0-4.68-1.07-4.68-3.21c0-3.07,2.54-4.28,10.29-5.08V76.94z M199.66,86.03
				c11.76,0,19.38-7.49,19.38-19.78c0-11.76-7.22-19.11-18.85-19.11c-11.9,0-19.38,7.49-19.38,19.78
				C180.81,78.68,188.03,86.03,199.66,86.03z M200.06,56.49c4.54,0,7.08,3.74,7.08,10.02s-2.67,10.02-7.22,10.02
				c-4.54,0-7.22-3.61-7.22-10.02C192.71,60.1,195.38,56.49,200.06,56.49L200.06,56.49z M182.02,49.01
				c-5.08-1.07-10.16-1.6-15.24-1.6c-17.11,0-26.87,7.49-26.87,20.58c0,10.56,6.55,17.38,16.71,17.38c2.67,0.13,5.21-0.53,7.49-1.6
				v0.27c0,7.49-3.21,10.43-10.96,10.43c-4.41,0-8.69-1.07-12.56-3.07v10.69c4.01,1.47,8.29,2.27,12.56,2.27
				c6.15,0,11.09-1.34,14.7-4.01c0.67-0.4,1.2-0.94,1.74-1.34c1.07-0.94,1.74-1.87,2.54-3.07c2.54-3.88,3.34-8.55,3.34-18.45v-3.21
				c-0.13-1.6-0.13-3.21-0.13-4.81l-0.13-6.28l-0.13-4.95v-1.2c2.41,0.27-0.53-0.27,2.67,0.27L182.02,49.01L182.02,49.01z
				 M164.37,74.27v0.94c-1.34,0.53-2.94,0.8-4.41,0.8c-5.21,0-8.02-3.21-8.02-9.09c0-4.01,1.47-6.95,4.28-8.55
				c2-1.07,4.41-1.74,6.82-1.6h1.2v0.94l0.13,3.74l0.13,5.35c0,1.6,0.13,3.21,0.13,4.41L164.37,74.27z M120.13,47.27
				c-6.15,0.13-12.43,1.07-18.31,2.67V85.1h11.76V57.43c1.74-0.53,3.48-0.94,5.35-0.94c4.14,0,5.61,1.6,5.61,6.15v22.32h11.76V62.24
				c0-5.75-0.8-8.55-3.21-10.96C130.69,48.87,126.15,47.27,120.13,47.27L120.13,47.27z M296.3,66.92c0-11.76-7.22-19.11-18.85-19.11
				c-11.9,0-19.38,7.49-19.38,19.78c0,11.76,7.22,19.11,18.98,19.11C288.81,86.7,296.3,79.08,296.3,66.92L296.3,66.92z
				 M269.97,67.18c0-6.42,2.67-10.02,7.35-10.02s7.08,3.74,7.08,10.02c0,6.28-2.67,10.02-7.22,10.02
				C272.64,77.21,269.97,73.73,269.97,67.18L269.97,67.18z M322.63,63.31v22.32h11.76V62.91c0-5.75-0.8-8.55-3.21-10.96
				s-6.95-4.01-12.97-4.01c-6.15,0.13-12.43,1.07-18.31,2.67v35.15h11.76V58.1c1.74-0.53,3.48-0.94,5.35-0.8
				C321.03,57.29,322.63,58.9,322.63,63.31L322.63,63.31z M371.02,84.69c1.6-1.74,2.27-3.61,2.27-7.62V61.17h-8.15v15.5
				c0,3.21-1.07,4.28-3.88,4.28c-1.2,0-2.54-0.27-3.74-0.67V61.17h-8.02v24.46c4.14,1.07,8.42,1.74,12.83,1.74
				C366.2,87.5,369.28,86.57,371.02,84.69z M228.67,81.22c3.74,3.48,10.69,4.81,15.37,4.68c3.61,0,7.35-0.94,10.56-2.67v-9.36
				c-2.54,1.2-5.35,2-8.02,2c-4.54,0-11.76-1.74-11.76-9.76s7.22-9.76,11.76-9.76c2.81,0,5.35,0.94,7.75,2.27v-9.49
				c-3.21-1.47-6.68-2.27-10.16-2.27c-4.68,0-11.09,1.34-14.84,5.08c-4.01,3.61-6.42,8.82-6.42,14.17
				C222.38,71.73,224.52,77.34,228.67,81.22L228.67,81.22z M385.72,70.79c-1.87-0.94-1.74-1.87-1.74-1.87s0-1.6,3.21-1.6
				c2.41,0,4.68,0.67,6.82,1.6v-6.15c-2.54-1.2-5.35-1.74-8.29-1.47c-9.49,0.4-9.36,7.49-9.36,7.49c-0.27,1.87,0.53,3.74,1.74,5.35
				c2,1.6,4.28,2.94,6.68,3.74c1.74,0.67,2.41,1.47,2.41,1.87c0,0.4,0.27,1.74-3.21,1.74c-2.67-0.13-5.21-0.94-7.49-2v6.42
				c3.48,1.34,7.49,1.87,11.09,1.34c3.48-0.67,7.08-1.74,7.49-7.49C395.34,74.27,389.73,72.53,385.72,70.79L385.72,70.79z
				 M337.2,76.27h9.36v9.36h-9.36L337.2,76.27L337.2,76.27z"/>
		</g>
	</g>
	<g>
		<path d="M90.64,34.86H76c-1.03,0-1.75-1-2.16-3c-0.21-1.09-0.31-1.91-0.31-2.47c0-0.56,0.09-0.93,0.26-1.1
			c6.59-6.79,9.88-11.41,9.88-13.85c0-0.82-0.21-1.44-0.64-1.85c-0.43-0.41-1.1-0.62-2.03-0.62c-0.93,0-1.85,0.18-2.78,0.53
			c-0.93,0.35-1.65,0.74-2.18,1.15c-1.15-1.38-1.94-2.84-2.38-4.37c-0.15-0.5-0.22-0.96-0.22-1.39c0-0.43,0.07-0.83,0.22-1.21
			c0.23-0.76,1.33-1.48,3.29-2.16c1.95-0.68,4.02-1.01,6.2-1.01c6.59,0,9.88,2.93,9.88,8.78c0,2.59-0.88,5.21-2.65,7.87
			c-1.76,2.66-3.82,4.96-6.17,6.9l8.91-0.35c0.15,1.56,0.22,2.91,0.22,4.06c0,1.15-0.24,2.12-0.71,2.91
			C92.16,34.46,91.49,34.86,90.64,34.86z"/>
		<path d="M108.79,35.3c-3.69,0-6.7-1.35-9.04-4.06c-2.34-2.71-3.51-6.66-3.51-11.86c0-5.2,1.18-9.14,3.53-11.8
			c2.35-2.66,5.39-3.99,9.11-3.99c3.72,0,6.73,1.32,9.02,3.97c2.29,2.65,3.44,6.63,3.44,11.95c0,5.32-1.17,9.28-3.51,11.89
			S112.48,35.3,108.79,35.3z M108.79,12.05c-1.13,0-2.09,0.64-2.87,1.92c-0.78,1.28-1.17,3.1-1.17,5.45c0,2.35,0.38,4.15,1.12,5.4
			c0.75,1.25,1.72,1.87,2.91,1.87c1.19,0,2.16-0.63,2.91-1.9c0.75-1.26,1.12-3.07,1.12-5.42s-0.39-4.16-1.17-5.42
			C110.88,12.69,109.92,12.05,108.79,12.05z"/>
		<path d="M138.58,34.11c0,0.5-1.49,0.75-4.48,0.75c-2.98,0-4.48-0.25-4.48-0.75V12.36l-4.76,0.04c-0.88,0-1.32-1.41-1.32-4.23
			c0-0.97,0.1-1.91,0.29-2.82c0.19-0.91,0.52-1.37,0.99-1.37h12.08c0.5,0,0.9,0.11,1.21,0.33c0.31,0.22,0.46,0.49,0.46,0.82V34.11z"
			/>
		<path d="M146.16,27.18c2.21,0.44,3.87,0.66,4.98,0.66c1.12,0,2.12-0.35,3.02-1.06c0.9-0.71,1.42-1.81,1.57-3.31
			c-1.47,0.41-2.65,0.62-3.53,0.62c-3.09,0-5.47-0.86-7.14-2.58c-1.68-1.72-2.51-4.16-2.51-7.32s0.96-5.73,2.89-7.7
			c1.93-1.97,4.56-2.95,7.92-2.95s5.99,1.18,7.92,3.53c1.93,2.35,2.89,5.82,2.89,10.41c0,5.73-1.02,10.14-3.06,13.21
			c-2.04,3.07-5.08,4.61-9.11,4.61c-5,0-7.5-0.84-7.5-2.51c0-0.88,0.18-2.04,0.53-3.46C145.37,27.89,145.75,27.18,146.16,27.18z
			 M153.26,11.48c-0.94,0-1.67,0.3-2.18,0.9c-0.51,0.6-0.77,1.37-0.77,2.32c0,0.94,0.3,1.7,0.9,2.27c0.6,0.57,1.37,0.86,2.32,0.86
			c0.94,0,1.7-0.21,2.29-0.62c0-2.03-0.19-3.49-0.57-4.39C154.87,11.93,154.2,11.48,153.26,11.48z"/>
	</g>
</g>
</svg>
