<svg id="Layer_1" data-name="Layer 1" xmlns="http://www.w3.org/2000/svg" viewBox="0 0 400 130"><title>blue</title><path d="M182.9,116.4l2.6,1.6a7.6,7.6,0,0,0,3.6,1c1.1,0,1.7-.4,1.7-1.3a1.4,1.4,0,0,0-.5-1,5,5,0,0,0-1.7-1.1l-2-.9a19.6,19.6,0,0,1-1.7-1.2,6.1,6.1,0,0,1-1.6-1.6,10.2,10.2,0,0,1-1.6-5.8,7.9,7.9,0,0,1,2.6-5.9,10,10,0,0,1,6.9-2.4,22,22,0,0,1,5.3.6c1.6.4,2.5,1,2.5,1.6v.3a9.5,9.5,0,0,1-.9,3.5,8,8,0,0,1-1.2,2.4,9.8,9.8,0,0,0-4.6-1.3c-1.3,0-2,.4-2,1.4s.5,1.1,1.5,1.5l.9.5,1.4.6,1.7,1,1.9,1.5a7.1,7.1,0,0,1,2.1,5.3,10.5,10.5,0,0,1-2.3,7c-1.6,1.8-4,2.7-7.3,2.8a18.5,18.5,0,0,1-4.3-.4,7.7,7.7,0,0,1-3.4-1.6,3.3,3.3,0,0,1-1.5-2.8,9.5,9.5,0,0,1,.6-3.2A4.7,4.7,0,0,1,182.9,116.4Z" fill="#171d2f"/><path d="M221.9,126.2c-2.4,0-3.6-.4-3.8-1.1l-1.3-5.2h-6.4l-1.1,5q-.3,1.2-3.9,1.2l-2.8-.2-.9-.4,7.1-27q0-.3,5.4-.3c3.7,0,5.5.1,5.5.3l6.9,27.1c0,.2-.6.3-1.8.4Zm-10.5-11.4h4.2l-1.8-8.2h-.2Z" fill="#171d2f"/><path d="M251.1,125.2c0,.6-1.2.9-3.7.9s-3.9-.2-4.1-.6L236.6,113v12.4c0,.5-1.2.7-3.7.7s-3.6-.2-3.6-.7V98.7c0-.4,1-.6,3.1-.6l2.9.2c1.1.2,1.8.4,2,.8l6.4,12.3V98.9c0-.5,1.2-.8,3.7-.8s3.7.3,3.7.8Z" fill="#171d2f"/><path d="M262.6,124.3v-24a2.5,2.5,0,0,1,.5-1.6,1.8,1.8,0,0,1,1.3-.6h6.7c4.2,0,7.5,1.1,9.7,3.2s3.2,5.5,3.2,10.1c0,9.8-4.1,14.7-12.5,14.7h-6.8Q262.6,126.1,262.6,124.3Zm7.7-18.6v12a7.7,7.7,0,0,0,.1,1c.1.2.3.3.7.3a4,4,0,0,0,3.4-1.7,10.4,10.4,0,0,0,1.1-5.4c0-2.6-.4-4.2-1.2-5a4.8,4.8,0,0,0-3.7-1.2Z" fill="#171d2f"/><path d="M289.9,119.2V105H287c-.4,0-.7-.6-.9-1.7a9.7,9.7,0,0,1-.1-1.7,9.1,9.1,0,0,1,.1-1.7q.3-1.8.9-1.8h13.5q.6,0,.9,1.8a9.1,9.1,0,0,1,.1,1.7,9.7,9.7,0,0,1-.1,1.7c-.2,1.1-.5,1.7-.9,1.7h-2.7v14.2h2.8c.4,0,.8.6.9,1.7a11,11,0,0,1,.2,1.8,9.9,9.9,0,0,1-.2,1.7c-.1,1.1-.5,1.7-.9,1.7H287.1c-.4,0-.7-.6-.9-1.7a9.9,9.9,0,0,1-.2-1.7,11,11,0,0,1,.2-1.8c.2-1.1.5-1.7.9-1.7Z" fill="#171d2f"/><path d="M317.4,109.2c.5,0,.7,1,.7,2.8a7.1,7.1,0,0,1-.2,2q-.1,1.2-.6,1.2h-5.1v4h7.4c.4,0,.7.5.9,1.7a8.6,8.6,0,0,1,.1,1.6c0,.6-.1,1.3-.2,2.2s-.5,1.4-.8,1.4H305.9q-1.5,0-1.5-1.2V99.2c0-.7.3-1.1.9-1.1h14.3c.6,0,.8,1.2.8,3.6s-.2,3.5-.8,3.5h-7.4v4Z" fill="#171d2f"/><path d="M338.8,117.8v-5.5c0-.4.4-.6,1.2-.7l1.9-.2h1.6q1.5.3,1.5.9l-.2,12.5a13.7,13.7,0,0,1-3.2,1.1,30.3,30.3,0,0,1-5.5.5,12.4,12.4,0,0,1-9.4-3.8c-2.3-2.5-3.5-6.1-3.5-11s1.1-7.5,3.4-10a12.5,12.5,0,0,1,9.7-3.9,25.7,25.7,0,0,1,5,.5,6.3,6.3,0,0,1,3.1,1.5c0,.2.1.6.1,1.2a7.9,7.9,0,0,1-.6,2.5,6.6,6.6,0,0,1-1.4,2.4c-.5.5-.9.8-1.1.8a1.1,1.1,0,0,1-.7-.3l-1.5-.6a6,6,0,0,0-2.2-.4,5.2,5.2,0,0,0-4,1.6c-1,1.1-1.5,2.7-1.5,5a7.3,7.3,0,0,0,1.6,5.1,4.8,4.8,0,0,0,3.6,1.7C338.2,118.8,338.8,118.4,338.8,117.8Z" fill="#171d2f"/><path d="M360.8,126.5a12.1,12.1,0,0,1-9.2-3.7c-2.3-2.4-3.5-6-3.5-10.7s1.2-8.3,3.5-10.7a12.6,12.6,0,0,1,9.3-3.6,12.1,12.1,0,0,1,9.1,3.6c2.3,2.3,3.5,5.9,3.5,10.8s-1.2,8.4-3.6,10.8A12.4,12.4,0,0,1,360.8,126.5Zm0-21a3.6,3.6,0,0,0-3.2,1.7,7.9,7.9,0,0,0-1.3,4.9,8.2,8.2,0,0,0,1.2,4.9,3.9,3.9,0,0,0,3.3,1.7A3.9,3.9,0,0,0,364,117a7.9,7.9,0,0,0,1.3-4.9,7.7,7.7,0,0,0-1.3-4.9A3.7,3.7,0,0,0,360.8,105.5Z" fill="#171d2f"/><path d="M48.8,30.3H60.5V42.2H48.8Zm-6.9-.1H30.2V47.9a21.8,21.8,0,0,0-5.2-.6c-12.2,0-20.1,7.6-20.1,19.5s7.5,18.6,21.8,18.7A76.8,76.8,0,0,0,41.9,84ZM30.2,75.9a27.5,27.5,0,0,1-4,.2c-6,0-9.4-3.3-9.4-9.6s3.4-9.9,9.4-9.9a9.9,9.9,0,0,1,3.8.7Z" fill="#171d2f"/><path d="M48.8,70.9c0,10.1-.6,13.9-2.3,17.3s-4.2,5.3-9.4,7.7L48,101.1c5.2-2.5,7.6-4.9,9.6-8.5s2.8-8.3,2.8-17.7V48.1H48.6l.2,22.8ZM83,47.3a34.4,34.4,0,0,0-15.5,3.4v9a30.9,30.9,0,0,1,13.7-3.5c3,0,4,.8,4,3v2.5c-14.3,1.2-20.3,4.9-20.3,13.1s4.4,11,14.2,11a156.3,156.3,0,0,0,16.7-1.2V60.8c0-4.8-.3-7.1-1.2-8.9S89.1,47.3,83,47.3Zm2.9,29.6a26.7,26.7,0,0,1-5.6.6c-3.2,0-4.7-1.1-4.7-3.2s2.6-4.3,10.3-5.1ZM199.7,86c11.7,0,19.3-7.5,19.3-19.8s-7.2-19.1-18.8-19.1-19.4,7.5-19.4,19.8S188,86,199.7,86Zm.4-29.5c4.5,0,7,3.7,7,10s-2.6,10-7.2,10-7.2-3.6-7.2-10,2.7-10,7.4-10ZM182,49a71.4,71.4,0,0,0-15.2-1.6c-17.1,0-26.9,7.5-26.9,20.6,0,10.5,6.6,17.4,16.7,17.4a17.1,17.1,0,0,0,7.5-1.6V84c0,7.5-3.2,10.5-11,10.5a27.2,27.2,0,0,1-12.5-3.1v10.7a38.3,38.3,0,0,0,12.5,2.2c6.2,0,11.1-1.3,14.7-4a14,14,0,0,0,1.8-1.3,12.6,12.6,0,0,0,2.5-3.1c2.6-3.9,3.4-8.5,3.4-18.4V74.3a38.5,38.5,0,0,1-.2-4.8V57a20.2,20.2,0,0,1,2.6.3L182,49ZM164.4,74.3v.9a13.6,13.6,0,0,1-4.4.8c-5.2,0-8.1-3.2-8.1-9.1,0-4,1.5-6.9,4.3-8.5a12.2,12.2,0,0,1,6.8-1.6h1.2v.9l.2,3.7v5.4c0,1.6.1,3.2.1,4.4Zm-44.3-27a75.5,75.5,0,0,0-18.3,2.6V85.1h11.8V57.4a19,19,0,0,1,5.3-.9c4.2,0,5.6,1.6,5.6,6.1V85h11.8V62.2c0-5.7-.8-8.5-3.2-10.9s-7-4-13-4ZM296.3,66.9c0-11.7-7.2-19.1-18.8-19.1s-19.4,7.5-19.4,19.8,7.2,19.1,19,19.1,19.2-7.6,19.2-19.8Zm-26.3.3c0-6.4,2.6-10,7.3-10s7.1,3.7,7.1,10-2.7,10-7.2,10-7.2-3.5-7.2-10Zm52.6-3.9V85.6h11.8V62.9c0-5.7-.8-8.5-3.2-11s-7-4-13-4a80.9,80.9,0,0,0-18.3,2.7V85.8h11.8V58.1a15.5,15.5,0,0,1,5.3-.8c4,0,5.6,1.6,5.6,6ZM371,84.7c1.6-1.7,2.3-3.6,2.3-7.6V61.2h-8.2V76.7c0,3.2-1,4.3-3.8,4.3a12.7,12.7,0,0,1-3.8-.7V61.2h-8V85.6a49.4,49.4,0,0,0,12.8,1.8C366.2,87.5,369.3,86.6,371,84.7ZM228.7,81.2c3.7,3.5,10.7,4.8,15.3,4.7a22,22,0,0,0,10.6-2.7V73.9a19.3,19.3,0,0,1-8,2c-4.6,0-11.8-1.8-11.8-9.8s7.2-9.7,11.8-9.7a16,16,0,0,1,7.7,2.2V49.1a25.5,25.5,0,0,0-10.1-2.2c-4.7,0-11.1,1.3-14.9,5a19.6,19.6,0,0,0-6.4,14.2,18.4,18.4,0,0,0,5.8,15.1Zm157-10.4c-1.9-.9-1.7-1.9-1.7-1.9s0-1.6,3.2-1.6a17.4,17.4,0,0,1,6.8,1.6V62.8a15.4,15.4,0,0,0-8.3-1.5c-9.5.4-9.3,7.5-9.3,7.5a7.1,7.1,0,0,0,1.7,5.3,22.3,22.3,0,0,0,6.7,3.8c1.7.6,2.4,1.4,2.4,1.8s.3,1.8-3.2,1.8a19,19,0,0,1-7.5-2v6.4a22.3,22.3,0,0,0,11.1,1.3c3.5-.6,7.1-1.7,7.5-7.5s-5.4-7.2-9.4-8.9Zm-48.5,5.5h9.4v9.3h-9.4V76.3Z" fill="#171d2f"/><path d="M90.6,34.9H76c-1,0-1.7-1-2.2-3a16.1,16.1,0,0,1-.3-2.5,1.4,1.4,0,0,1,.3-1.1c6.6-6.8,9.9-11.4,9.9-13.9a2.1,2.1,0,0,0-.7-1.8,2.8,2.8,0,0,0-2-.6,7.2,7.2,0,0,0-2.8.5A9,9,0,0,0,76,13.6a11.3,11.3,0,0,1-2.3-4.3,3.9,3.9,0,0,1-.3-1.4,2.7,2.7,0,0,1,.3-1.2c.2-.8,1.3-1.5,3.2-2.2a18.7,18.7,0,0,1,6.2-1c6.6,0,9.9,2.9,9.9,8.8a14.2,14.2,0,0,1-2.6,7.8A29.4,29.4,0,0,1,84.2,27l8.9-.3a31,31,0,0,1,.2,4.1,5.4,5.4,0,0,1-.7,2.9A2.1,2.1,0,0,1,90.6,34.9Z" fill="#171d2f"/><path d="M108.8,35.3a11.6,11.6,0,0,1-9.1-4.1c-2.3-2.7-3.5-6.6-3.5-11.8s1.2-9.2,3.6-11.8a11.4,11.4,0,0,1,9.1-4,11.2,11.2,0,0,1,9,4c2.3,2.6,3.4,6.6,3.4,11.9s-1.1,9.3-3.5,11.9A11.4,11.4,0,0,1,108.8,35.3Zm0-23.2a3.4,3.4,0,0,0-2.9,1.9,10.4,10.4,0,0,0-1.1,5.4c0,2.4.3,4.2,1.1,5.4a3.2,3.2,0,0,0,2.9,1.9,3.3,3.3,0,0,0,2.9-1.9,11.5,11.5,0,0,0,1.1-5.4,10.9,10.9,0,0,0-1.1-5.4A3.4,3.4,0,0,0,108.8,12.1Z" fill="#171d2f"/><path d="M138.6,34.1c0,.5-1.5.8-4.5.8s-4.5-.3-4.5-.8V12.4h-4.7c-.9,0-1.4-1.4-1.4-4.2a12.7,12.7,0,0,1,.3-2.8c.2-1,.5-1.4,1-1.4h12.1a2.1,2.1,0,0,1,1.2.3,1,1,0,0,1,.5.8Z" fill="#171d2f"/><path d="M146.2,27.2a30,30,0,0,0,4.9.6,4.8,4.8,0,0,0,3.1-1,4.3,4.3,0,0,0,1.5-3.3,13.4,13.4,0,0,1-3.5.6c-3.1,0-5.5-.9-7.1-2.6s-2.6-4.1-2.6-7.3a10.6,10.6,0,0,1,2.9-7.7,10.7,10.7,0,0,1,8-3,9.7,9.7,0,0,1,7.9,3.6c1.9,2.3,2.9,5.8,2.9,10.4s-1.1,10.1-3.1,13.2a10.2,10.2,0,0,1-9.1,4.6c-5,0-7.5-.8-7.5-2.5a18.2,18.2,0,0,1,.5-3.5Q145.6,27.2,146.2,27.2Zm7.1-15.7a2.7,2.7,0,0,0-2.2.9,3.6,3.6,0,0,0-.8,2.3,3.2,3.2,0,0,0,.9,2.3,3.6,3.6,0,0,0,2.3.8,3.9,3.9,0,0,0,2.3-.6,11.8,11.8,0,0,0-.6-4.4A1.8,1.8,0,0,0,153.3,11.5Z" fill="#171d2f"/></svg>