<?xml version="1.0" encoding="utf-8"?>
<!-- Generator: Adobe Illustrator 24.0.0, SVG Export Plug-In . SVG Version: 6.00 Build 0)  -->
<svg version="1.1" id="Layer_1" xmlns="http://www.w3.org/2000/svg" xmlns:xlink="http://www.w3.org/1999/xlink" x="0px" y="0px"
	 viewBox="0 0 300 90" enable-background="new 0 0 300 90" xml:space="preserve">
<g>
	<g>
		<g>
			<g>
				<path fill="#E99C56" d="M34.2,17.5h9v9.1h-9V17.5z M28.9,17.4h-9V31c-1.2-0.3-2.6-0.5-4-0.5c-9.3,0-15.4,5.8-15.4,14.9
					c0,9.4,5.7,14.2,16.7,14.3c4,0,7.8-0.4,11.7-1.1V17.4z M19.9,52.4c-1,0.2-2,0.2-3.1,0.2c-4.6,0-7.2-2.6-7.2-7.4s2.6-7.6,7.2-7.6
					c1,0,2,0.1,3,0.5L19.9,52.4z"/>
				<path fill="#E99C56" d="M34.2,48.6c0,7.7-0.4,10.6-1.7,13.2c-1.3,2.6-3.2,4.1-7.2,5.9l8.3,4c4-1.9,5.8-3.8,7.4-6.6
					c1.4-2.8,2.1-6.3,2.1-13.5V31.1h-9L34.2,48.6L34.2,48.6z M60.4,30.5c-4.1,0-8.2,0.8-11.9,2.7V40c3.3-1.7,6.9-2.6,10.5-2.7
					c2.3,0,3.1,0.6,3.1,2.3v1.9c-11,0.9-15.6,3.8-15.6,10c0,5.7,3.4,8.4,10.9,8.4c4.2,0,8.6-0.4,12.8-0.9V40.8
					c0-3.7-0.2-5.4-0.9-6.8C68,31.6,65.1,30.5,60.4,30.5z M62.6,53.2c-1.4,0.3-2.9,0.4-4.3,0.4c-2.5,0-3.6-0.8-3.6-2.5
					c0-2.4,1.9-3.3,7.9-3.9V53.2z M149.7,60.2c9,0,14.8-5.7,14.8-15.2c0-9-5.5-14.6-14.4-14.6c-9.1,0-14.8,5.7-14.8,15.2
					C135.3,54.5,140.8,60.2,149.7,60.2z M150,37.5c3.5,0,5.4,2.9,5.4,7.7s-2,7.7-5.5,7.7c-3.5,0-5.5-2.8-5.5-7.7
					S146.5,37.5,150,37.5L150,37.5z M136.2,31.8c-3.9-0.8-7.8-1.2-11.7-1.2c-13.1,0-20.6,5.7-20.6,15.8c0,8.1,5,13.3,12.8,13.3
					c2,0.1,4-0.4,5.7-1.2v0.2c0,5.7-2.5,8-8.4,8c-3.4,0-6.7-0.8-9.6-2.4v8.2c3.1,1.1,6.3,1.7,9.6,1.7c4.7,0,8.5-1,11.3-3.1
					c0.5-0.3,0.9-0.7,1.3-1c0.8-0.7,1.3-1.4,1.9-2.4c1.9-3,2.6-6.6,2.6-14.1v-2.5c-0.1-1.2-0.1-2.5-0.1-3.7l-0.1-4.8l-0.1-3.8v-0.9
					c1.8,0.2-0.4-0.2,2,0.2L136.2,31.8L136.2,31.8z M122.7,51.1v0.7c-1,0.4-2.3,0.6-3.4,0.6c-4,0-6.1-2.5-6.1-7
					c0-3.1,1.1-5.3,3.3-6.6c1.5-0.8,3.4-1.3,5.2-1.2h0.9v0.7l0.1,2.9l0.1,4.1c0,1.2,0.1,2.5,0.1,3.4L122.7,51.1z M88.8,30.5
					c-4.7,0.1-9.5,0.8-14,2v26.9h9V38.2c1.3-0.4,2.7-0.7,4.1-0.7c3.2,0,4.3,1.2,4.3,4.7v17.1h9V41.9c0-4.4-0.6-6.6-2.5-8.4
					C96.9,31.7,93.4,30.5,88.8,30.5L88.8,30.5z M223.8,45.5c0-9-5.5-14.6-14.4-14.6c-9.1,0-14.8,5.7-14.8,15.2
					c0,9,5.5,14.6,14.5,14.6C218,60.7,223.8,54.8,223.8,45.5L223.8,45.5z M203.6,45.7c0-4.9,2-7.7,5.6-7.7c3.6,0,5.4,2.9,5.4,7.7
					s-2,7.7-5.5,7.7S203.6,50.7,203.6,45.7L203.6,45.7z M243.9,42.8v17.1h9V42.4c0-4.4-0.6-6.6-2.5-8.4c-1.8-1.8-5.3-3.1-9.9-3.1
					c-4.7,0.1-9.5,0.8-14,2V60h9V38.8c1.3-0.4,2.7-0.7,4.1-0.6C242.7,38.1,243.9,39.4,243.9,42.8L243.9,42.8z M281,59.1
					c1.2-1.3,1.7-2.8,1.7-5.8V41.1h-6.2V53c0,2.5-0.8,3.3-3,3.3c-0.9,0-1.9-0.2-2.9-0.5V41.1h-6.1v18.7c3.2,0.8,6.4,1.3,9.8,1.3
					C277.3,61.3,279.7,60.6,281,59.1z M172,56.5c2.9,2.7,8.2,3.7,11.8,3.6c2.8,0,5.6-0.7,8.1-2v-7.2c-1.9,0.9-4.1,1.5-6.1,1.5
					c-3.5,0-9-1.3-9-7.5s5.5-7.5,9-7.5c2.1,0,4.1,0.7,5.9,1.7v-7.3c-2.5-1.1-5.1-1.7-7.8-1.7c-3.6,0-8.5,1-11.4,3.9
					c-3.1,2.8-4.9,6.8-4.9,10.9C167.1,49.2,168.8,53.5,172,56.5L172,56.5z M292.3,48.5c-1.4-0.7-1.3-1.4-1.3-1.4s0-1.2,2.5-1.2
					c1.8,0,3.6,0.5,5.2,1.2v-4.7c-1.9-0.9-4.1-1.3-6.3-1.1c-7.3,0.3-7.2,5.7-7.2,5.7c-0.2,1.4,0.4,2.9,1.3,4.1
					c1.5,1.2,3.3,2.3,5.1,2.9c1.3,0.5,1.8,1.1,1.8,1.4c0,0.3,0.2,1.3-2.5,1.3c-2-0.1-4-0.7-5.7-1.5v4.9c2.7,1,5.7,1.4,8.5,1
					c2.7-0.5,5.4-1.3,5.7-5.7C299.6,51.1,295.3,49.8,292.3,48.5L292.3,48.5z M255.1,52.7h7.2v7.2h-7.2L255.1,52.7L255.1,52.7z"/>
			</g>
		</g>
	</g>
	<g>
		<path fill="#E99C56" d="M52.1,20.7c-0.1-0.1-0.2-0.3-0.2-0.5v-2.1c0-0.6,0.2-1,0.7-1.4l2.6-2.6c1.8-1.4,3.1-2.4,4.1-3.2
			c0.9-0.8,1.6-1.4,2.1-2.1c0.5-0.6,0.7-1.2,0.7-1.7c0-1.4-0.7-2.1-2.1-2.1c-0.7,0-1.3,0.2-1.7,0.7c-0.4,0.4-0.7,1-0.8,1.7
			c-0.1,0.4-0.4,0.7-1,0.7h-3.7c-0.2,0-0.3-0.1-0.4-0.2c-0.1-0.1-0.2-0.3-0.2-0.4c0-1.2,0.4-2.4,1-3.4c0.6-1,1.6-1.8,2.7-2.4
			c1.2-0.6,2.5-0.9,4-0.9c1.6,0,2.9,0.3,4.1,0.8c1.2,0.5,2,1.2,2.6,2.1c0.6,0.9,0.9,2,0.9,3.2c0,1.4-0.4,2.6-1.3,3.7
			c-0.8,1.1-2.1,2.3-3.8,3.6l-2.3,2.3h7.2c0.2,0,0.4,0.1,0.5,0.2c0.1,0.1,0.2,0.3,0.2,0.5v3c0,0.2-0.1,0.4-0.2,0.5
			c-0.1,0.1-0.3,0.2-0.5,0.2H52.6C52.4,21,52.2,20.9,52.1,20.7z"/>
		<path fill="#E99C56" d="M72.9,19.2c-1.4-1.4-2.1-3.1-2.2-5.4c0-1-0.1-1.9-0.1-2.7c0-0.8,0-1.8,0.1-2.8c0.1-1.4,0.4-2.7,1.1-3.8
			c0.6-1.1,1.5-2,2.7-2.6c1.2-0.6,2.7-1,4.4-1s3.2,0.3,4.4,1c1.2,0.6,2.1,1.5,2.8,2.6s1,2.4,1.1,3.8c0,0.5,0.1,1.5,0.1,2.8
			c0,1.3,0,2.2-0.1,2.7c-0.1,2.2-0.9,4-2.2,5.4c-1.4,1.4-3.3,2-6,2.1C76.3,21.2,74.3,20.5,72.9,19.2z M80.9,16.1
			c0.4-0.6,0.7-1.4,0.7-2.4c0-0.5,0.1-1.4,0.1-2.7c0-1.2,0-2.1-0.1-2.6c0-1-0.3-1.8-0.7-2.4c-0.4-0.6-1.1-0.9-2-0.9
			c-1.7,0-2.6,1.1-2.7,3.3c0,0.5,0,1.4,0,2.6c0,1.2,0,2.1,0,2.7c0.1,2.2,1,3.3,2.7,3.3C79.8,17,80.4,16.7,80.9,16.1z"/>
		<path fill="#E99C56" d="M90,20.7c-0.1-0.1-0.2-0.3-0.2-0.5v-2.1c0-0.6,0.2-1,0.7-1.4l2.6-2.6c1.8-1.4,3.1-2.4,4.1-3.2
			c0.9-0.8,1.6-1.4,2.1-2.1c0.5-0.6,0.7-1.2,0.7-1.7c0-1.4-0.7-2.1-2.1-2.1c-0.7,0-1.3,0.2-1.7,0.7c-0.4,0.4-0.7,1-0.8,1.7
			c-0.1,0.4-0.4,0.7-1,0.7h-3.7c-0.2,0-0.3-0.1-0.4-0.2c-0.1-0.1-0.2-0.3-0.2-0.4c0-1.2,0.4-2.4,1-3.4c0.6-1,1.6-1.8,2.7-2.4
			c1.2-0.6,2.5-0.9,4-0.9c1.6,0,2.9,0.3,4.1,0.8c1.2,0.5,2,1.2,2.6,2.1c0.6,0.9,0.9,2,0.9,3.2c0,1.4-0.4,2.6-1.3,3.7
			s-2.1,2.3-3.8,3.6L98,16.5h7.2c0.2,0,0.4,0.1,0.5,0.2c0.1,0.1,0.2,0.3,0.2,0.5v3c0,0.2-0.1,0.4-0.2,0.5c-0.1,0.1-0.3,0.2-0.5,0.2
			H90.4C90.3,21,90.1,20.9,90,20.7z"/>
		<path fill="#E99C56" d="M110.8,19.2c-1.4-1.4-2.1-3.1-2.2-5.4c0-1-0.1-1.9-0.1-2.7c0-0.8,0-1.8,0.1-2.8c0.1-1.4,0.4-2.7,1.1-3.8
			c0.6-1.1,1.5-2,2.7-2.6c1.2-0.6,2.7-1,4.4-1s3.2,0.3,4.4,1c1.2,0.6,2.1,1.5,2.8,2.6s1,2.4,1.1,3.8c0,0.5,0.1,1.5,0.1,2.8
			c0,1.3,0,2.2-0.1,2.7c-0.1,2.2-0.9,4-2.2,5.4c-1.4,1.4-3.3,2-6,2.1C114.2,21.2,112.2,20.5,110.8,19.2z M118.7,16.1
			c0.4-0.6,0.7-1.4,0.7-2.4c0-0.5,0.1-1.4,0.1-2.7c0-1.2,0-2.1-0.1-2.6c0-1-0.3-1.8-0.7-2.4c-0.4-0.6-1.1-0.9-2-0.9
			c-1.7,0-2.6,1.1-2.7,3.3c0,0.5,0,1.4,0,2.6c0,1.2,0,2.1,0,2.7c0.1,2.2,1,3.3,2.7,3.3C117.7,17,118.3,16.7,118.7,16.1z"/>
	</g>
	<g>
		<path fill="#E99C56" d="M139.6,88.4c-1.3-0.5-2.2-1.2-2.8-2c-0.6-0.8-1-1.8-1-2.8c0-0.2,0.1-0.3,0.2-0.4c0.1-0.1,0.3-0.2,0.4-0.2
			h3.7c0.2,0,0.4,0,0.5,0.1c0.1,0.1,0.3,0.2,0.5,0.4c0.2,0.4,0.6,0.8,1.1,1.1c0.5,0.3,1.2,0.4,2,0.4c1,0,1.8-0.2,2.3-0.5
			c0.5-0.3,0.8-0.7,0.8-1.3c0-0.4-0.1-0.7-0.4-1c-0.3-0.2-0.7-0.5-1.3-0.7s-1.5-0.4-2.6-0.7c-2.2-0.4-3.9-1.1-5-2
			c-1.1-0.9-1.7-2.2-1.7-3.9c0-1.1,0.3-2.2,1-3.1c0.6-0.9,1.5-1.6,2.7-2.1c1.2-0.5,2.5-0.7,4.1-0.7c1.6,0,3,0.3,4.2,0.8
			c1.2,0.6,2.1,1.3,2.7,2.1c0.6,0.8,1,1.7,1,2.5c0,0.2-0.1,0.3-0.2,0.4c-0.1,0.1-0.2,0.2-0.4,0.2h-3.9c-0.4,0-0.7-0.2-0.9-0.5
			c-0.1-0.4-0.4-0.7-0.9-1c-0.5-0.3-1-0.4-1.7-0.4c-0.8,0-1.4,0.1-1.8,0.4c-0.4,0.3-0.6,0.7-0.6,1.2c0,0.5,0.3,1,0.8,1.3
			c0.6,0.3,1.6,0.6,3.1,0.9c1.7,0.3,3.1,0.7,4.1,1.2c1,0.5,1.8,1.1,2.3,1.8c0.5,0.7,0.7,1.7,0.7,2.8c0,1.3-0.4,2.3-1.1,3.3
			c-0.7,0.9-1.7,1.6-3,2.1c-1.3,0.5-2.7,0.7-4.4,0.7C142.4,89.2,140.9,88.9,139.6,88.4z"/>
		<path fill="#E99C56" d="M153.5,88.7c-0.1-0.1-0.2-0.3-0.2-0.4c0-0.1,0-0.2,0-0.2l6.4-17.7c0.2-0.5,0.6-0.8,1.1-0.8h4.3
			c0.6,0,0.9,0.3,1.1,0.8l6.4,17.7c0,0.1,0,0.1,0,0.2c0,0.1-0.1,0.3-0.2,0.4c-0.1,0.1-0.3,0.2-0.4,0.2h-3.6c-0.4,0-0.8-0.2-0.9-0.6
			l-1-2.7h-7.2l-1,2.7c-0.2,0.4-0.5,0.6-0.9,0.6h-3.6C153.7,88.9,153.6,88.9,153.5,88.7z M160.6,81.5h4.9l-2.5-7.1L160.6,81.5z"/>
		<path fill="#E99C56" d="M175.1,88.7c-0.1-0.1-0.2-0.3-0.2-0.5V70.3c0-0.2,0.1-0.4,0.2-0.5c0.1-0.1,0.3-0.2,0.5-0.2h3.1
			c0.4,0,0.7,0.2,0.9,0.5l6.5,10.3V70.3c0-0.2,0.1-0.4,0.2-0.5c0.1-0.1,0.3-0.2,0.5-0.2h3.5c0.2,0,0.4,0.1,0.5,0.2
			c0.1,0.1,0.2,0.3,0.2,0.5v17.9c0,0.2-0.1,0.4-0.2,0.5c-0.1,0.1-0.3,0.2-0.5,0.2h-3.1c-0.4,0-0.7-0.2-0.9-0.5l-6.5-9.9v9.7
			c0,0.2-0.1,0.4-0.2,0.5c-0.1,0.1-0.3,0.2-0.5,0.2h-3.5C175.4,88.9,175.2,88.9,175.1,88.7z"/>
		<path fill="#E99C56" d="M200.8,88.7c-0.1-0.1-0.2-0.3-0.2-0.5V70.3c0-0.2,0.1-0.4,0.2-0.5c0.1-0.1,0.3-0.2,0.5-0.2h7.3
			c2.7,0,4.8,0.7,6.4,2c1.5,1.3,2.3,3.2,2.4,5.6c0,0.5,0,1.2,0,2.1c0,0.9,0,1.6,0,2.1c-0.2,5.1-3.1,7.6-8.6,7.6h-7.4
			C201.1,88.9,200.9,88.9,200.8,88.7z M208.6,84.8c1.2,0,2-0.3,2.6-0.8c0.6-0.6,0.8-1.4,0.9-2.7c0-0.5,0.1-1.2,0.1-2.1
			c0-0.8,0-1.5-0.1-2c0-1.2-0.4-2.1-1-2.6c-0.6-0.6-1.5-0.8-2.6-0.8h-2.6v11.1H208.6z"/>
		<path fill="#E99C56" d="M220.7,88.7c-0.1-0.1-0.2-0.3-0.2-0.5v-18c0-0.2,0.1-0.4,0.2-0.5c0.1-0.1,0.3-0.2,0.5-0.2h4
			c0.2,0,0.4,0.1,0.5,0.2c0.1,0.1,0.2,0.3,0.2,0.5v18c0,0.2-0.1,0.3-0.2,0.5c-0.1,0.1-0.3,0.2-0.5,0.2h-4
			C221,88.9,220.8,88.9,220.7,88.7z"/>
		<path fill="#E99C56" d="M229.8,88.7c-0.1-0.1-0.2-0.3-0.2-0.5V70.3c0-0.2,0.1-0.4,0.2-0.5c0.1-0.1,0.3-0.2,0.5-0.2h13.1
			c0.2,0,0.4,0.1,0.5,0.2c0.1,0.1,0.2,0.3,0.2,0.5V73c0,0.2-0.1,0.4-0.2,0.5c-0.1,0.1-0.3,0.2-0.5,0.2h-8.7v3.5h8.1
			c0.2,0,0.4,0.1,0.5,0.2c0.1,0.1,0.2,0.3,0.2,0.5v2.5c0,0.2-0.1,0.4-0.2,0.5c-0.1,0.1-0.3,0.2-0.5,0.2h-8.1v3.6h9
			c0.2,0,0.4,0.1,0.5,0.2c0.1,0.1,0.2,0.3,0.2,0.5v2.7c0,0.2-0.1,0.4-0.2,0.5c-0.1,0.1-0.3,0.2-0.5,0.2h-13.3
			C230.1,88.9,229.9,88.9,229.8,88.7z"/>
		<path fill="#E99C56" d="M249,87.3c-1.5-1.3-2.3-3.2-2.4-5.6c0-0.5,0-1.4,0-2.5c0-1.2,0-2,0-2.5c0.1-2.3,0.9-4.1,2.4-5.4
			c1.5-1.3,3.6-1.9,6.3-1.9c1.8,0,3.3,0.3,4.6,0.9c1.3,0.6,2.3,1.3,3,2.2c0.7,0.9,1.1,1.8,1.1,2.8c0,0.2-0.1,0.3-0.2,0.4
			c-0.1,0.1-0.3,0.2-0.4,0.2h-4.3c-0.2,0-0.3,0-0.4-0.1c-0.1-0.1-0.2-0.2-0.3-0.3c-0.2-0.5-0.6-1-1.1-1.3c-0.5-0.4-1.2-0.6-2.1-0.6
			c-2.1,0-3.2,1.1-3.3,3.3c0,0.5,0,1.3,0,2.4c0,1.1,0,1.9,0,2.4c0.1,2.3,1.2,3.5,3.4,3.5c1.1,0,1.9-0.3,2.5-0.8
			c0.6-0.5,0.9-1.3,0.9-2.4v-0.5h-2.5c-0.2,0-0.4-0.1-0.5-0.2c-0.1-0.1-0.2-0.3-0.2-0.5v-2.2c0-0.2,0.1-0.4,0.2-0.5
			c0.1-0.1,0.3-0.2,0.5-0.2h7c0.2,0,0.4,0.1,0.5,0.2c0.1,0.1,0.2,0.3,0.2,0.5v3.2c0,1.6-0.4,2.9-1.1,4.1c-0.7,1.1-1.8,2-3.1,2.6
			c-1.3,0.6-2.9,0.9-4.6,0.9C252.6,89.2,250.5,88.6,249,87.3z"/>
		<path fill="#E99C56" d="M269,87.3c-1.5-1.3-2.3-3.1-2.4-5.6c0-0.5,0-1.3,0-2.4c0-1.1,0-1.9,0-2.4c0.1-2.4,0.9-4.3,2.4-5.6
			c1.5-1.3,3.6-2,6.2-2c2.6,0,4.6,0.7,6.2,2c1.5,1.3,2.3,3.2,2.4,5.6c0,1.1,0.1,1.9,0.1,2.4c0,0.6,0,1.3-0.1,2.4
			c-0.1,2.5-0.9,4.3-2.4,5.6c-1.5,1.3-3.6,1.9-6.2,1.9C272.6,89.2,270.5,88.6,269,87.3z M277.5,84.2c0.6-0.6,0.9-1.5,0.9-2.7
			c0-1.1,0.1-1.8,0.1-2.3s0-1.2-0.1-2.2c0-1.2-0.3-2.1-0.9-2.7c-0.6-0.6-1.3-0.9-2.3-0.9c-1,0-1.8,0.3-2.3,0.9
			c-0.6,0.6-0.9,1.5-0.9,2.7c0,0.5,0,1.3,0,2.2c0,1,0,1.8,0,2.3c0,1.2,0.3,2.1,0.9,2.7c0.6,0.6,1.3,0.9,2.3,0.9
			C276.1,85.1,276.9,84.8,277.5,84.2z"/>
	</g>
</g>
</svg>
