<svg id="Layer_1" data-name="Layer 1" xmlns="http://www.w3.org/2000/svg" viewBox="0 0 400 150"><title>submark-black</title><rect x="130.346" y="7.303" width="15.651" height="135.117" rx="2.02"/><path d="M3.854,65.887a2.015,2.015,0,0,1-.631-1.467V10a2.195,2.195,0,0,1,.588-1.551,1.969,1.969,0,0,1,1.51-.628h22.05q12.409,0,19.286,5.91t7.21,16.981q.083,2.43.084,6.454t-.084,6.372q-.838,22.976-26.074,22.975H5.321A2.01,2.01,0,0,1,3.854,65.887ZM27.371,53.939q5.284,0,7.8-2.517t2.683-8.048q.17-2.432.169-6.288t-.169-6.206q-.166-5.365-2.892-7.924T26.952,20.4H18.988v33.54Z"/><path d="M69,61.568q-6.834-5.787-7.254-16.937-.083-2.265-.081-7.379,0-5.2.081-7.545.42-10.9,7.338-16.812t18.739-5.91A34.869,34.869,0,0,1,101.2,9.415a21.615,21.615,0,0,1,9.349,7.044,18.58,18.58,0,0,1,3.606,10.9,1.636,1.636,0,0,1-.545,1.257,1.852,1.852,0,0,1-1.3.5h-11.9a2.636,2.636,0,0,1-1.72-.46,3.859,3.859,0,0,1-.965-1.719q-1.174-4.107-3.562-5.744a11.018,11.018,0,0,0-6.332-1.635q-9.475,0-9.809,10.565-.085,2.265-.084,6.96t.084,7.126q.333,10.563,9.809,10.565A11.055,11.055,0,0,0,94.158,53.1a9.588,9.588,0,0,0,3.562-5.7,3.2,3.2,0,0,1,.922-1.719,2.832,2.832,0,0,1,1.763-.46h11.9a1.844,1.844,0,0,1,1.3.5,1.636,1.636,0,0,1,.545,1.257,18.575,18.575,0,0,1-3.606,10.9,21.565,21.565,0,0,1-9.349,7.042,34.869,34.869,0,0,1-13.373,2.432Q75.837,67.353,69,61.568Z"/><path d="M10.006,136.738q-6.85-5.874-6.851-17.62V84.388a2.224,2.224,0,0,1,.594-1.574,2,2,0,0,1,1.533-.639H16.945a2.181,2.181,0,0,1,2.212,2.213v34.559q0,5.28,2.511,7.916t7.193,2.638q4.68,0,7.193-2.679t2.511-7.875V84.388a2.181,2.181,0,0,1,2.212-2.213H52.354a2.182,2.182,0,0,1,2.213,2.213v34.73q0,11.746-6.809,17.62t-18.811,5.873Q16.859,142.611,10.006,136.738Z"/><path d="M74.145,140.227a20.452,20.452,0,0,1-8.767-6.3,14.673,14.673,0,0,1-3.149-8.513,1.661,1.661,0,0,1,.552-1.276,1.886,1.886,0,0,1,1.321-.511h11.32a3.544,3.544,0,0,1,1.66.34,5.491,5.491,0,0,1,1.405,1.193,8.532,8.532,0,0,0,3.448,3.361,12.71,12.71,0,0,0,6.256,1.321,14.475,14.475,0,0,0,7.064-1.406,4.3,4.3,0,0,0,2.469-3.873,3.773,3.773,0,0,0-1.276-2.936,11.338,11.338,0,0,0-4.086-2.044q-2.809-.891-8.087-2-10.3-2.043-15.408-6.213T63.762,99.454A15.829,15.829,0,0,1,66.7,90.048a19.069,19.069,0,0,1,8.342-6.425,31.851,31.851,0,0,1,12.555-2.3,30.1,30.1,0,0,1,12.98,2.6A22.224,22.224,0,0,1,109,90.39a13.716,13.716,0,0,1,3.108,7.619,1.875,1.875,0,0,1-.511,1.317,1.662,1.662,0,0,1-1.276.555H98.406a3.278,3.278,0,0,1-2.9-1.533,5.248,5.248,0,0,0-2.638-3.021A10.4,10.4,0,0,0,87.6,94.092a10.107,10.107,0,0,0-5.533,1.276A4.188,4.188,0,0,0,80.1,99.114a4.282,4.282,0,0,0,2.554,3.872q2.553,1.406,9.533,2.854a54.45,54.45,0,0,1,12.726,3.616,16.052,16.052,0,0,1,6.98,5.618,15.636,15.636,0,0,1,2.257,8.726,15.844,15.844,0,0,1-3.321,10.043,20.762,20.762,0,0,1-9.192,6.514,37.408,37.408,0,0,1-13.45,2.254A36.884,36.884,0,0,1,74.145,140.227Z"/><path d="M163.469,140.185a4.527,4.527,0,0,1-1.426-3.314V122.655c0-5.461,3.731-8.615,7.42-12.026,5.141-4.753,10.464-9.327,15.752-13.916,13.248-11.5,29.569-21.84,40.4-35.733q4.833-6.156,4.833-11.653,0-14.025-14.02-14.025-7.4,0-11.37,4.452a23.025,23.025,0,0,0-5.306,11.086q-1.136,4.36-6.444,4.36H168.3a3.99,3.99,0,0,1-2.934-1.23,3.81,3.81,0,0,1-1.235-2.749,43.44,43.44,0,0,1,6.917-22.646,46.021,46.021,0,0,1,18.287-16.1Q201.08,6.5,216.431,6.5q15.91,0,27.474,5.116t17.525,14.4a39.045,39.045,0,0,1,5.97,21.6,39.485,39.485,0,0,1-8.43,24.633c-5.622,7.331-7.989,10.358-24.237,24.9l-17.165,14.709h47.938a4.539,4.539,0,0,1,4.735,4.735v20.279a4.707,4.707,0,0,1-1.322,3.314,4.469,4.469,0,0,1-3.413,1.421H166.784A4.544,4.544,0,0,1,163.469,140.185Z"/><path d="M301.72,129.67q-13.643-13.648-14.973-36-.375-10.238-.375-18.385,0-8.336.375-18.946a56.157,56.157,0,0,1,7.108-25.3,45.187,45.187,0,0,1,18.38-17.53q12.033-6.433,29.275-6.439t29.374,6.439a45.105,45.105,0,0,1,18.472,17.53,56.157,56.157,0,0,1,7.108,25.3q.375,5.307.381,18.946,0,13.266-.381,18.385-1.33,22.361-14.973,36T341.51,143.5Q315.362,143.313,301.72,129.67Zm53.054-20.562q4.359-5.78,4.74-16.392.376-5.487.376-17.809t-.376-17.432q-.384-10.238-4.74-16.2T341.51,35.3q-17.053,0-18,22.173-.2,5.11-.191,17.432t.191,17.809q.946,22.172,18,22.172Q350.417,114.888,354.774,109.108Z"/></svg>