<?xml version="1.0" encoding="utf-8"?>
<!-- Generator: Adobe Illustrator 24.0.0, SVG Export Plug-In . SVG Version: 6.00 Build 0)  -->
<svg version="1.1" id="Layer_1" xmlns="http://www.w3.org/2000/svg" xmlns:xlink="http://www.w3.org/1999/xlink" x="0px" y="0px"
	 viewBox="0 0 465 165" enable-background="new 0 0 465 165" xml:space="preserve">
<g>
	<path d="M167,161.3h-13.6c-1.3,0-2.4-1.1-2.4-2.4V5.7c0-1.3,1.1-2.4,2.4-2.4H167c1.3,0,2.4,1.1,2.4,2.4V159
		C169.4,160.3,168.3,161.3,167,161.3z"/>
	<path d="M3.1,71.8c-0.5-0.5-0.7-1.1-0.7-1.7V6.5c0-0.7,0.2-1.3,0.7-1.8s1-0.7,1.8-0.7h25.8c9.7,0,17.2,2.3,22.6,6.9
		c5.4,4.6,8.2,11.2,8.4,19.9c0.1,1.9,0.1,4.4,0.1,7.5c0,3.1,0,5.6-0.1,7.5C61,63.6,50.8,72.6,31.1,72.6H4.9
		C4.2,72.6,3.6,72.3,3.1,71.8z M30.6,57.9c4.1,0,7.2-1,9.1-2.9c2-2,3-5.1,3.1-9.4c0.1-1.9,0.2-4.3,0.2-7.4c0-3-0.1-5.4-0.2-7.3
		c-0.1-4.2-1.3-7.3-3.4-9.3c-2.1-2-5.2-3-9.4-3h-9.3v39.2H30.6z"/>
	<path d="M79.3,66.8C74,62.3,71.2,55.7,70.8,47c-0.1-1.8-0.1-4.6-0.1-8.6c0-4.1,0-7,0.1-8.8c0.3-8.5,3.2-15,8.6-19.7
		C84.8,5.3,92.1,3,101.3,3c5.8,0,11,0.9,15.6,2.8c4.6,1.9,8.3,4.6,10.9,8.2c2.7,3.6,4.1,7.8,4.2,12.7c0,0.6-0.2,1.1-0.6,1.5
		c-0.4,0.4-0.9,0.6-1.5,0.6H116c-0.9,0-1.6-0.2-2-0.5c-0.4-0.4-0.8-1-1.1-2c-0.9-3.2-2.3-5.4-4.2-6.7c-1.9-1.3-4.3-1.9-7.4-1.9
		c-7.4,0-11.2,4.1-11.5,12.4c-0.1,1.8-0.1,4.5-0.1,8.1c0,3.7,0,6.4,0.1,8.3c0.3,8.2,4.1,12.4,11.5,12.4c3,0,5.5-0.7,7.4-2
		c1.9-1.3,3.3-3.5,4.2-6.7c0.3-1,0.6-1.7,1.1-2c0.5-0.4,1.1-0.5,2.1-0.5H130c0.6,0,1.1,0.2,1.5,0.6c0.4,0.4,0.6,0.9,0.6,1.5
		c-0.1,4.9-1.5,9.2-4.2,12.7c-2.7,3.6-6.3,6.3-10.9,8.2c-4.6,1.9-9.8,2.8-15.6,2.8C92,73.6,84.6,71.3,79.3,66.8z"/>
	<path d="M10.3,154.7c-5.3-4.6-8-11.4-8-20.6V93.5c0-0.7,0.2-1.3,0.7-1.8c0.5-0.5,1.1-0.7,1.8-0.7h13.6c0.7,0,1.3,0.2,1.8,0.7
		c0.5,0.5,0.7,1.1,0.7,1.8v40.4c0,4.1,1,7.2,2.9,9.3c2,2.1,4.8,3.1,8.4,3.1c3.6,0,6.5-1,8.4-3.1c2-2.1,2.9-5.2,2.9-9.2V93.5
		c0-0.7,0.2-1.3,0.7-1.8c0.5-0.5,1.1-0.7,1.8-0.7h13.5c0.7,0,1.3,0.2,1.8,0.7c0.5,0.5,0.7,1.1,0.7,1.8v40.6c0,9.2-2.7,16-8,20.6
		c-5.3,4.6-12.6,6.9-22,6.9C23.1,161.6,15.7,159.3,10.3,154.7z"/>
	<path d="M85.3,158.8c-4.5-1.9-7.9-4.3-10.3-7.4c-2.3-3.1-3.6-6.4-3.7-10c0-0.6,0.2-1.1,0.6-1.5c0.4-0.4,0.9-0.6,1.5-0.6h13.2
		c0.8,0,1.4,0.1,1.9,0.4c0.5,0.3,1,0.7,1.6,1.4c0.9,1.6,2.2,2.9,4,3.9c1.8,1,4.3,1.5,7.3,1.5c3.6,0,6.3-0.5,8.3-1.6
		c1.9-1.1,2.9-2.6,2.9-4.5c0-1.4-0.5-2.5-1.5-3.4c-1-0.9-2.6-1.7-4.8-2.4c-2.2-0.7-5.3-1.5-9.5-2.3c-8-1.6-14-4-18-7.3
		c-4-3.3-6-7.9-6-13.9c0-4.1,1.1-7.8,3.4-11c2.3-3.2,5.5-5.7,9.8-7.5c4.2-1.8,9.1-2.7,14.7-2.7c5.8,0,10.9,1,15.2,3
		c4.3,2,7.6,4.5,9.9,7.6s3.5,6,3.6,8.9c0,0.6-0.2,1.1-0.6,1.5c-0.4,0.4-0.9,0.6-1.5,0.6h-13.9c-1.5,0-2.6-0.6-3.4-1.8
		c-0.4-1.4-1.4-2.6-3.1-3.5c-1.7-1-3.7-1.4-6.2-1.4c-2.8,0-4.9,0.5-6.5,1.5c-1.5,1-2.3,2.5-2.3,4.4c0,1.9,1,3.4,3,4.5
		c2,1.1,5.7,2.2,11.1,3.3c6.2,1.1,11.2,2.5,14.9,4.2c3.7,1.7,6.4,3.9,8.2,6.6c1.8,2.7,2.6,6.1,2.6,10.2c0,4.5-1.3,8.4-3.9,11.7
		c-2.6,3.3-6.2,5.9-10.7,7.6c-4.6,1.8-9.8,2.6-15.7,2.6C95.3,161.6,89.8,160.6,85.3,158.8z"/>
	<g>
		<path d="M189.8,158.7c-1.1-1.1-1.7-2.4-1.7-3.9v-16.6c0-4.4,1.8-8.1,5.5-11.1l20.6-20.2c14-10.6,24.6-18.9,31.8-24.8
			c7.2-5.9,12.6-11.3,16.4-16.1s5.7-9.3,5.7-13.6c0-10.9-5.5-16.4-16.4-16.4c-5.8,0-10.2,1.7-13.3,5.2c-3.1,3.5-5.2,7.8-6.2,13
			c-0.9,3.4-3.4,5.1-7.5,5.1h-29.3c-1.3,0-2.5-0.5-3.4-1.4c-1-1-1.4-2-1.4-3.2c0.3-9.8,3-18.6,8.1-26.5c5.1-7.9,12.2-14.2,21.4-18.8
			c9.2-4.7,19.7-7,31.7-7c12.4,0,23.1,2,32.1,6c9,4,15.8,9.6,20.5,16.8c4.7,7.2,7,15.7,7,25.3c0,10.6-3.3,20.2-9.9,28.8
			c-6.6,8.6-16.6,17.9-30,27.9L253,125.6h56.1c1.6,0,3,0.5,4,1.6c1,1,1.5,2.4,1.5,4v23.7c0,1.5-0.5,2.8-1.5,3.9
			c-1,1.1-2.4,1.7-4,1.7H193.7C192.2,160.4,190.9,159.8,189.8,158.7z"/>
		<path d="M351.4,146.4c-10.6-10.6-16.5-24.7-17.5-42.1c-0.3-8-0.4-15.1-0.4-21.5c0-6.5,0.1-13.9,0.4-22.2
			c0.6-11.1,3.4-20.9,8.3-29.6c4.9-8.6,12.1-15.5,21.5-20.5c9.4-5,20.8-7.5,34.2-7.5s24.9,2.5,34.3,7.5c9.5,5,16.6,11.9,21.6,20.5
			c5,8.6,7.7,18.5,8.3,29.6c0.3,4.1,0.4,11.5,0.4,22.2c0,10.3-0.2,17.5-0.4,21.5c-1,17.4-6.9,31.5-17.5,42.1
			c-10.6,10.6-26.2,16-46.8,16.2C377.6,162.5,362.1,157.1,351.4,146.4z M413.5,122.4c3.4-4.5,5.2-10.9,5.5-19.2
			c0.3-4.3,0.4-11.2,0.4-20.8S419.3,66,419,62c-0.3-8-2.1-14.3-5.5-18.9c-3.4-4.7-8.6-7-15.5-7c-13.3,0-20.3,8.6-21,25.9
			c-0.2,4-0.2,10.8-0.2,20.4s0.1,16.5,0.2,20.8c0.7,17.3,7.8,25.9,21,25.9C404.9,129.1,410.1,126.9,413.5,122.4z"/>
	</g>
</g>
</svg>
