<?xml version="1.0" encoding="utf-8"?>
<!-- Generator: Adobe Illustrator 24.0.0, SVG Export Plug-In . SVG Version: 6.00 Build 0)  -->
<svg version="1.1" id="Layer_1" xmlns="http://www.w3.org/2000/svg" xmlns:xlink="http://www.w3.org/1999/xlink" x="0px" y="0px"
	 viewBox="0 0 400 150" enable-background="new 0 0 400 150" xml:space="preserve">
<g>
	<path fill="#FFFFFF" d="M143.976,142.421h-11.61c-1.116,0-2.02-0.905-2.02-2.02V9.324c0-1.116,0.905-2.02,2.02-2.02h11.61
		c1.116,0,2.02,0.905,2.02,2.02V140.4C145.997,141.516,145.092,142.421,143.976,142.421z"/>
	<path fill="#FFFFFF" d="M3.854,65.887c-0.419-0.419-0.631-0.908-0.631-1.467V10.002c0-0.614,0.197-1.132,0.588-1.551
		s0.893-0.629,1.51-0.629h22.05c8.272,0,14.703,1.97,19.286,5.91c4.583,3.942,6.986,9.602,7.21,16.981
		c0.055,1.621,0.084,3.771,0.084,6.454c0,2.685-0.029,4.809-0.084,6.372c-0.559,15.317-9.25,22.975-26.074,22.975H5.321
		C4.762,66.515,4.273,66.306,3.854,65.887z M27.371,53.939c3.523,0,6.122-0.84,7.798-2.517c1.679-1.676,2.572-4.359,2.683-8.048
		c0.113-1.621,0.169-3.718,0.169-6.288c0-2.572-0.055-4.641-0.169-6.206c-0.111-3.576-1.076-6.218-2.892-7.923
		c-1.816-1.705-4.484-2.558-8.008-2.558h-7.964v33.54H27.371z"/>
	<path fill="#FFFFFF" d="M69.003,61.568c-4.556-3.858-6.974-9.503-7.254-16.937c-0.055-1.51-0.082-3.969-0.082-7.379
		c0-3.466,0.026-5.98,0.082-7.545c0.279-7.266,2.726-12.87,7.338-16.812c4.612-3.94,10.857-5.91,18.739-5.91
		c4.976,0,9.433,0.809,13.373,2.43c3.942,1.623,7.056,3.971,9.349,7.044c2.293,3.075,3.494,6.707,3.605,10.9
		c0,0.503-0.181,0.922-0.544,1.257c-0.364,0.335-0.797,0.503-1.3,0.503h-11.904c-0.785,0-1.358-0.154-1.72-0.46
		c-0.364-0.308-0.686-0.881-0.966-1.72c-0.783-2.738-1.97-4.653-3.562-5.744c-1.594-1.091-3.704-1.635-6.331-1.635
		c-6.317,0-9.587,3.521-9.809,10.565c-0.058,1.51-0.084,3.829-0.084,6.96c0,3.131,0.026,5.505,0.084,7.126
		c0.222,7.042,3.492,10.565,9.809,10.565c2.57,0,4.682-0.559,6.331-1.679c1.647-1.117,2.835-3.018,3.562-5.7
		c0.224-0.838,0.532-1.411,0.922-1.72c0.393-0.306,0.978-0.46,1.763-0.46h11.904c0.503,0,0.937,0.166,1.3,0.503
		c0.364,0.335,0.544,0.754,0.544,1.257c-0.111,4.193-1.313,7.827-3.605,10.9c-2.293,3.075-5.407,5.423-9.349,7.042
		c-3.94,1.621-8.398,2.432-13.373,2.432C79.833,67.353,73.557,65.424,69.003,61.568z"/>
	<path fill="#FFFFFF" d="M10.006,136.738c-4.567-3.917-6.851-9.789-6.851-17.62v-34.73c0-0.623,0.198-1.149,0.594-1.575
		s0.907-0.638,1.533-0.638h11.662c0.623,0,1.149,0.213,1.575,0.638c0.425,0.425,0.638,0.951,0.638,1.575v34.559
		c0,3.521,0.836,6.159,2.511,7.917c1.672,1.76,4.071,2.638,7.193,2.638c3.12,0,5.518-0.892,7.193-2.68
		c1.672-1.787,2.511-4.413,2.511-7.875V84.388c0-0.623,0.213-1.149,0.638-1.575c0.425-0.425,0.951-0.638,1.575-0.638h11.577
		c0.623,0,1.149,0.213,1.575,0.638c0.425,0.425,0.638,0.951,0.638,1.575v34.73c0,7.831-2.269,13.704-6.809,17.62
		c-4.54,3.914-10.809,5.873-18.811,5.873C20.888,142.611,14.573,140.653,10.006,136.738z"/>
	<path fill="#FFFFFF" d="M74.145,140.227c-3.86-1.587-6.782-3.687-8.767-6.298c-1.988-2.609-3.037-5.447-3.149-8.513
		c0-0.511,0.183-0.936,0.553-1.276c0.369-0.34,0.809-0.511,1.32-0.511h11.32c0.682,0,1.235,0.115,1.66,0.34
		c0.425,0.227,0.895,0.626,1.406,1.193c0.736,1.362,1.885,2.484,3.447,3.362c1.56,0.88,3.645,1.32,6.256,1.32
		c3.063,0,5.418-0.469,7.063-1.406c1.645-0.936,2.469-2.225,2.469-3.873c0-1.191-0.425-2.171-1.276-2.936
		c-0.851-0.765-2.213-1.447-4.085-2.044c-1.873-0.594-4.57-1.262-8.088-2c-6.865-1.362-12.002-3.433-15.408-6.212
		c-3.403-2.78-5.105-6.753-5.105-11.919c0-3.516,0.978-6.653,2.936-9.406c1.956-2.751,4.736-4.895,8.342-6.425
		c3.601-1.533,7.787-2.298,12.555-2.298c4.992,0,9.32,0.865,12.98,2.596c3.662,1.731,6.469,3.887,8.428,6.469
		c1.958,2.582,2.993,5.12,3.107,7.618c0,0.509-0.171,0.951-0.511,1.318c-0.34,0.369-0.765,0.555-1.276,0.555H98.406
		c-1.249,0-2.215-0.511-2.895-1.533c-0.34-1.193-1.22-2.198-2.638-3.022c-1.42-0.821-3.181-1.235-5.279-1.235
		c-2.384,0-4.227,0.425-5.533,1.276c-1.306,0.851-1.958,2.1-1.958,3.746c0,1.648,0.851,2.936,2.555,3.873
		c1.702,0.936,4.88,1.887,9.533,2.853c5.335,0.966,9.577,2.169,12.726,3.616s5.477,3.32,6.98,5.618
		c1.504,2.298,2.257,5.208,2.257,8.726c0,3.86-1.108,7.208-3.32,10.044c-2.213,2.839-5.279,5.01-9.193,6.513
		c-3.917,1.501-8.401,2.254-13.449,2.254C82.685,142.611,78.003,141.816,74.145,140.227z"/>
	<g>
		<path fill="#FFFFFF" d="M163.469,140.185c-0.952-0.947-1.426-2.052-1.426-3.315c0,0,0-14.216,0-14.216
			c0-5.461,3.731-8.615,7.42-12.025c5.141-4.753,10.464-9.328,15.752-13.916c13.249-11.496,29.57-21.84,40.403-35.733
			c3.222-4.104,4.833-7.99,4.833-11.653c0-9.35-4.675-14.025-14.02-14.025c-4.931,0-8.719,1.486-11.369,4.452
			c-2.656,2.972-4.425,6.667-5.307,11.086c-0.757,2.906-2.906,4.359-6.444,4.359h-25.014c-1.137,0-2.117-0.408-2.934-1.23
			c-0.822-0.822-1.235-1.736-1.235-2.748c0.256-8.338,2.558-15.887,6.917-22.646c4.359-6.754,10.455-12.126,18.287-16.105
			s16.866-5.97,27.098-5.97c10.608,0,19.767,1.709,27.474,5.116c7.701,3.412,13.547,8.213,17.525,14.401
			c3.984,6.194,5.97,13.394,5.97,21.602c0,9.095-2.814,17.307-8.431,24.633c-5.622,7.331-7.988,10.359-24.237,24.897l-17.165,14.709
			h47.938c1.388,0,2.525,0.441,3.412,1.328c0.882,0.882,1.323,2.019,1.323,3.407v20.279c0,1.263-0.441,2.368-1.323,3.315
			c-0.887,0.947-2.025,1.421-3.412,1.421h-98.723C165.521,141.606,164.416,141.132,163.469,140.185z"/>
		<path fill="#FFFFFF" d="M301.72,129.67c-9.095-9.1-14.085-21.095-14.972-36.003c-0.25-6.825-0.376-12.948-0.376-18.385
			c0-5.557,0.125-11.87,0.376-18.946c0.506-9.475,2.874-17.906,7.108-25.297c4.229-7.391,10.357-13.231,18.379-17.53
			c8.022-4.289,17.781-6.439,29.276-6.439s21.286,2.15,29.373,6.439c8.082,4.3,14.238,10.139,18.472,17.53
			c4.234,7.391,6.602,15.822,7.108,25.297c0.25,3.538,0.381,9.851,0.381,18.946c0,8.844-0.131,14.972-0.381,18.385
			c-0.887,14.907-5.873,26.903-14.972,36.003c-9.095,9.095-22.423,13.704-39.981,13.83
			C324.078,143.375,310.814,138.765,301.72,129.67z M354.774,109.108c2.906-3.853,4.485-9.312,4.74-16.393
			c0.25-3.657,0.376-9.595,0.376-17.808s-0.125-14.025-0.376-17.433c-0.256-6.825-1.834-12.224-4.74-16.202
			c-2.906-3.979-7.326-5.97-13.264-5.97c-11.37,0-17.367,7.391-17.999,22.173c-0.131,3.407-0.19,9.22-0.19,17.433
			s0.06,14.151,0.19,17.808c0.631,14.782,6.629,22.173,17.999,22.173C347.448,114.888,351.867,112.962,354.774,109.108z"/>
	</g>
</g>
</svg>
