<svg width="116" height="361" viewBox="0 0 116 361" fill="none" xmlns="http://www.w3.org/2000/svg">
<path fill-rule="evenodd" clip-rule="evenodd" d="M77.4414 7.0711V44.1424L84.5125 37.0713V0L77.4414 7.0711Z" fill="#9CB2FF"/>
<path fill-rule="evenodd" clip-rule="evenodd" d="M77.4414 44.1425H80.2676L87.3387 37.0714H84.5125L77.4414 44.1425Z" fill="#9CB2FF"/>
<path fill-rule="evenodd" clip-rule="evenodd" d="M80.2676 44.1425V73.0486L87.3387 65.9776V37.0714L80.2676 44.1425Z" fill="#9CB2FF"/>
<path fill-rule="evenodd" clip-rule="evenodd" d="M80.2676 73.0486H91.9229L98.994 65.9775H87.3387L80.2676 73.0486Z" fill="#9CB2FF"/>
<path fill-rule="evenodd" clip-rule="evenodd" d="M91.9229 73.0486L108.579 359.344L115.65 352.273L98.994 65.9775L91.9229 73.0486Z" fill="#9CB2FF"/>
<path fill-rule="evenodd" clip-rule="evenodd" d="M108.579 359.344H1.05957L8.13067 352.273H115.65L108.579 359.344Z" fill="#9CB2FF"/>
<path fill-rule="evenodd" clip-rule="evenodd" d="M1.05957 359.344L17.7168 73.0486L24.7879 65.9775L8.13067 352.273L1.05957 359.344Z" fill="#9CB2FF"/>
<path fill-rule="evenodd" clip-rule="evenodd" d="M17.7168 73.0486H29.3701L36.4412 65.9775H24.7879L17.7168 73.0486Z" fill="#9CB2FF"/>
<path fill-rule="evenodd" clip-rule="evenodd" d="M29.3701 73.0486V48.7244L36.4412 41.6533V65.9775L29.3701 73.0486Z" fill="#9CB2FF"/>
<path fill-rule="evenodd" clip-rule="evenodd" d="M29.3701 48.7244H32.1963L39.2674 41.6533H36.4412L29.3701 48.7244Z" fill="#9CB2FF"/>
<path fill-rule="evenodd" clip-rule="evenodd" d="M32.1963 48.7244V16.9881L39.2674 9.91699V41.6533L32.1963 48.7244Z" fill="#9CB2FF"/>
<path fill-rule="evenodd" clip-rule="evenodd" d="M32.1963 16.9881H36.6172L43.6883 9.91699H39.2674L32.1963 16.9881Z" fill="#9CB2FF"/>
<path fill-rule="evenodd" clip-rule="evenodd" d="M36.6172 16.9881V48.7244L43.6883 41.6533V9.91699L36.6172 16.9881Z" fill="#9CB2FF"/>
<path fill-rule="evenodd" clip-rule="evenodd" d="M36.6172 48.7244H39.4434L46.5145 41.6533H43.6883L36.6172 48.7244Z" fill="#9CB2FF"/>
<path fill-rule="evenodd" clip-rule="evenodd" d="M39.4434 48.7244V73.0486L46.5145 65.9775V41.6533L39.4434 48.7244Z" fill="#9CB2FF"/>
<path fill-rule="evenodd" clip-rule="evenodd" d="M39.4434 73.0486H70.1944L77.2655 65.9775H46.5145L39.4434 73.0486Z" fill="#9CB2FF"/>
<path fill-rule="evenodd" clip-rule="evenodd" d="M70.1943 73.0486V44.1425L77.2654 37.0714V65.9776L70.1943 73.0486Z" fill="#9CB2FF"/>
<path fill-rule="evenodd" clip-rule="evenodd" d="M70.1943 44.1425H73.0214L80.0925 37.0714H77.2654L70.1943 44.1425Z" fill="#9CB2FF"/>
<path fill-rule="evenodd" clip-rule="evenodd" d="M73.0215 44.1424V7.0711L80.0926 0V37.0713L73.0215 44.1424Z" fill="#9CB2FF"/>
<path fill-rule="evenodd" clip-rule="evenodd" d="M73.0215 7.0711H77.4414L84.5125 0H80.0926L73.0215 7.0711Z" fill="#9CB2FF"/>
<path d="M77.4414 44.0711V44.1424H80.2676V73.0486H91.9229L108.579 359.344H1.05957L17.7168 73.0486H29.3701V48.7244H32.1963V48.5711H36.6172V48.7244H39.4434V73.0486H70.1944V44.1424H73.0215V44.0711H77.4414Z" fill="white" stroke="#9CB2FF" stroke-width="2"/>
<path d="M77.4414 45.1424V7.07111H73.0215V45.1424H77.4414Z" fill="#9CB2FF"/>
<path d="M32.1963 16.9881V49.7244H36.6172V16.9881H32.1963Z" fill="#9CB2FF"/>
<path d="M17.2285 81.46H92.4094" stroke="#9CB2FF" stroke-width="2" stroke-miterlimit="10" stroke-linecap="round" stroke-linejoin="round"/>
<path d="M17.2285 96.6607H92.4094" stroke="#9CB2FF" stroke-width="2" stroke-miterlimit="10" stroke-linecap="round" stroke-linejoin="round"/>
<path d="M73.0215 96.6607V81.46" stroke="#9CB2FF" stroke-width="2" stroke-miterlimit="10" stroke-linecap="round" stroke-linejoin="round"/>
<path d="M39.4424 96.6607V81.46" stroke="#9CB2FF" stroke-width="2" stroke-miterlimit="10" stroke-linecap="round" stroke-linejoin="round"/>
<path d="M54.818 96.6607L14.6594 125.617L54.818 167.885L10.5518 210.151L54.818 252.421L4.82324 294.687L54.818 359.345" stroke="#9CB2FF" stroke-width="2" stroke-miterlimit="10" stroke-linecap="round" stroke-linejoin="round"/>
<path d="M55.2695 96.6607L95.4298 125.617L55.2695 167.885L99.5357 210.151L55.2695 252.421L105.266 294.687L55.2695 359.345" stroke="#9CB2FF" stroke-width="2" stroke-miterlimit="10" stroke-linecap="round" stroke-linejoin="round"/>
</svg>
