<svg width="182" height="367" viewBox="0 0 182 367" fill="none" xmlns="http://www.w3.org/2000/svg">
<path fill-rule="evenodd" clip-rule="evenodd" d="M62 350.001H-32V54.2273L-24.9289 47.1562V342.93H69.0711L62 350.001Z" fill="#9CB2FF"/>
<path fill-rule="evenodd" clip-rule="evenodd" d="M-21 39.0506H30.4277L37.4988 31.9795H-13.9289L-21 39.0506Z" fill="#9CB2FF"/>
<path fill-rule="evenodd" clip-rule="evenodd" d="M30.4277 39.0506V7.0711L37.4988 0V31.9795L30.4277 39.0506Z" fill="#9CB2FF"/>
<path fill-rule="evenodd" clip-rule="evenodd" d="M30.4277 7.0711H37.6641V39.0506H51.001V54.2273H62V350.001L69.0711 342.93V47.1562H58.0721V31.9795H44.7352V0H37.4988L30.4277 7.0711Z" fill="#9CB2FF"/>
<path d="M37.6641 39.0506H51.001V54.2273H62V350.001H-32V54.2273H-21V39.0506H30.4277V7.07111H37.6641V39.0506Z" fill="#222228"/>
<mask id="path-6-inside-1_280_15850" fill="white">
<path d="M37.6641 39.0506H51.001V54.2274H62V350.001H-32V54.2274H-21V39.0506H30.4277V7.07111H37.6641V39.0506Z"/>
</mask>
<path d="M37.6641 39.0506H51.001V54.2274H62V350.001H-32V54.2274H-21V39.0506H30.4277V7.07111H37.6641V39.0506Z" fill="white"/>
<path d="M37.6641 39.0506H35.6641V41.0506H37.6641V39.0506ZM51.001 39.0506H53.001V37.0506H51.001V39.0506ZM51.001 54.2274H49.001V56.2274H51.001V54.2274ZM62 54.2274H64V52.2274H62V54.2274ZM62 350.001V352.001H64V350.001H62ZM-32 350.001H-34V352.001H-32V350.001ZM-32 54.2274V52.2274H-34V54.2274H-32ZM-21 54.2274V56.2274H-19V54.2274H-21ZM-21 39.0506V37.0506H-23V39.0506H-21ZM30.4277 39.0506V41.0506H32.4277V39.0506H30.4277ZM30.4277 7.07111V5.07111H28.4277V7.07111H30.4277ZM37.6641 7.07111H39.6641V5.07111H37.6641V7.07111ZM37.6641 39.0506V41.0506H51.001V39.0506V37.0506H37.6641V39.0506ZM51.001 39.0506H49.001V54.2274H51.001H53.001V39.0506H51.001ZM51.001 54.2274V56.2274H62V54.2274V52.2274H51.001V54.2274ZM62 54.2274H60V350.001H62H64V54.2274H62ZM62 350.001V348.001H-32V350.001V352.001H62V350.001ZM-32 350.001H-30V54.2274H-32H-34V350.001H-32ZM-32 54.2274V56.2274H-21V54.2274V52.2274H-32V54.2274ZM-21 54.2274H-19V39.0506H-21H-23V54.2274H-21ZM-21 39.0506V41.0506H30.4277V39.0506V37.0506H-21V39.0506ZM30.4277 39.0506H32.4277V7.07111H30.4277H28.4277V39.0506H30.4277ZM30.4277 7.07111V9.07111H37.6641V7.07111V5.07111H30.4277V7.07111ZM37.6641 7.07111H35.6641V39.0506H37.6641H39.6641V7.07111H37.6641Z" fill="#9CB2FF" mask="url(#path-6-inside-1_280_15850)"/>
<path d="M9.85742 73.5391V350" stroke="#9CB2FF" stroke-width="2" stroke-miterlimit="10" stroke-linecap="round" stroke-linejoin="round"/>
<path d="M40.7148 73.5391V350" stroke="#9CB2FF" stroke-width="2" stroke-miterlimit="10" stroke-linecap="round" stroke-linejoin="round"/>
<path d="M-0.427734 73.5391V350" stroke="#9CB2FF" stroke-width="2" stroke-miterlimit="10" stroke-linecap="round" stroke-linejoin="round"/>
<path d="M30.4297 73.5391V350" stroke="#9CB2FF" stroke-width="2" stroke-miterlimit="10" stroke-linecap="round" stroke-linejoin="round"/>
<path d="M51.001 73.5391V350" stroke="#9CB2FF" stroke-width="2" stroke-miterlimit="10" stroke-linecap="round" stroke-linejoin="round"/>
<path d="M20.1416 73.5391V350" stroke="#9CB2FF" stroke-width="2" stroke-miterlimit="10" stroke-linecap="round" stroke-linejoin="round"/>
<path d="M-21 55.2277H51.0012" stroke="#9CB2FF" stroke-width="2" stroke-miterlimit="10" stroke-linecap="round" stroke-linejoin="round"/>
<path d="M39.3314 40.0501H28.6064" stroke="#9CB2FF" stroke-width="2" stroke-miterlimit="10" stroke-linecap="round" stroke-linejoin="round"/>
<path fill-rule="evenodd" clip-rule="evenodd" d="M174 265.123H170.737L177.808 258.052H181.071L174 265.123Z" fill="#9CB2FF"/>
<path fill-rule="evenodd" clip-rule="evenodd" d="M170.737 265.123V365.935L177.808 358.864V258.052L170.737 265.123Z" fill="#9CB2FF"/>
<path fill-rule="evenodd" clip-rule="evenodd" d="M170.737 365.935H-92.7334V265.123H-96V253.356L-88.9289 246.285V258.052H-85.6623V358.864H177.808L170.737 365.935Z" fill="#9CB2FF"/>
<path fill-rule="evenodd" clip-rule="evenodd" d="M-90.0146 247.071H168.016V253.356H174V265.123L181.071 258.052V246.285H175.087V240H-82.9435L-90.0146 247.071Z" fill="#9CB2FF"/>
<path d="M168.016 253.356H174V265.123H170.737V365.935H-92.7334V265.123H-96V253.356H-90.0146V247.071H168.016V253.356Z" fill="white"/>
<path d="M170.737 365.935V265.123H174V253.356H168.016V247.071H-90.0146V253.356H-96V265.123H-92.7334V365.935" stroke="#9CB2FF" stroke-width="2"/>
<path d="M-90.0146 254.356H168.016" stroke="#9CB2FF" stroke-width="2" stroke-miterlimit="10" stroke-linecap="round" stroke-linejoin="round"/>
<path d="M-92.7334 264.122H170.738" stroke="#9CB2FF" stroke-width="2" stroke-miterlimit="10" stroke-linecap="round" stroke-linejoin="round"/>
<path d="M22.3135 274.862V298.801H33.7406V274.862" stroke="#9CB2FF" stroke-width="2" stroke-miterlimit="10" stroke-linecap="round" stroke-linejoin="round"/>
<path d="M86.0527 274.862V298.801H97.4778V274.862" stroke="#9CB2FF" stroke-width="2" stroke-miterlimit="10" stroke-linecap="round" stroke-linejoin="round"/>
<path d="M1.06836 274.862V298.801H12.4934V274.862" stroke="#9CB2FF" stroke-width="2" stroke-miterlimit="10" stroke-linecap="round" stroke-linejoin="round"/>
<path d="M64.8066 274.862V298.801H76.2317V274.862" stroke="#9CB2FF" stroke-width="2" stroke-miterlimit="10" stroke-linecap="round" stroke-linejoin="round"/>
<path d="M43.5615 274.862V298.801H54.9866V274.862" stroke="#9CB2FF" stroke-width="2" stroke-miterlimit="10" stroke-linecap="round" stroke-linejoin="round"/>
<path d="M128.544 274.862V298.801H139.969V274.862" stroke="#9CB2FF" stroke-width="2" stroke-miterlimit="10" stroke-linecap="round" stroke-linejoin="round"/>
<path d="M107.297 274.862V298.801H118.724V274.862" stroke="#9CB2FF" stroke-width="2" stroke-miterlimit="10" stroke-linecap="round" stroke-linejoin="round"/>
<path d="M149.79 274.862V298.801H161.215V274.862" stroke="#9CB2FF" stroke-width="2" stroke-miterlimit="10" stroke-linecap="round" stroke-linejoin="round"/>
<path d="M124.048 343.922H105.006V321.886C105.006 316.629 109.27 312.364 114.526 312.364C119.786 312.364 124.046 316.629 124.046 321.886V343.922H124.048Z" stroke="#9CB2FF" stroke-width="2" stroke-miterlimit="10" stroke-linecap="round" stroke-linejoin="round"/>
<path d="M32.9956 343.922H13.9531V321.886C13.9531 316.629 18.2177 312.364 23.4733 312.364C28.733 312.364 32.9956 316.629 32.9956 321.886V343.922Z" stroke="#9CB2FF" stroke-width="2" stroke-miterlimit="10" stroke-linecap="round" stroke-linejoin="round"/>
<path d="M93.6978 343.922H74.6533V321.886C74.6533 316.629 78.9179 312.364 84.1735 312.364C89.4332 312.364 93.6958 316.629 93.6958 321.886L93.6978 343.922Z" stroke="#9CB2FF" stroke-width="2" stroke-miterlimit="10" stroke-linecap="round" stroke-linejoin="round"/>
<path d="M2.64304 343.922H-16.3994V321.886C-16.3994 316.629 -12.1368 312.364 -6.87919 312.364C-1.62155 312.364 2.64304 316.629 2.64304 321.886V343.922Z" stroke="#9CB2FF" stroke-width="2" stroke-miterlimit="10" stroke-linecap="round" stroke-linejoin="round"/>
<path d="M63.3471 343.922H44.3047V321.886C44.3047 316.629 48.5673 312.364 53.8249 312.364C59.0826 312.364 63.3471 316.629 63.3471 321.886V343.922Z" stroke="#9CB2FF" stroke-width="2" stroke-miterlimit="10" stroke-linecap="round" stroke-linejoin="round"/>
<path d="M154.403 343.922H135.36V321.886C135.36 316.629 139.623 312.364 144.883 312.364C150.14 312.364 154.403 316.629 154.403 321.886V343.922Z" stroke="#9CB2FF" stroke-width="2" stroke-miterlimit="10" stroke-linecap="round" stroke-linejoin="round"/>
<rect y="264.071" width="178" height="102" fill="url(#paint0_linear_280_15850)"/>
<defs>
<linearGradient id="paint0_linear_280_15850" x1="89" y1="264.071" x2="89" y2="366.071" gradientUnits="userSpaceOnUse">
<stop stop-color="white" stop-opacity="0"/>
<stop offset="1" stop-color="white"/>
</linearGradient>
</defs>
</svg>
