<svg width="182" height="126" viewBox="0 0 182 126" fill="none" xmlns="http://www.w3.org/2000/svg">
<path fill-rule="evenodd" clip-rule="evenodd" d="M174 25.1229H170.737L177.808 18.0518H181.071L174 25.1229Z" fill="#9CB2FF"/>
<path fill-rule="evenodd" clip-rule="evenodd" d="M170.737 25.1229V125.935L177.808 118.864V18.0518L170.737 25.1229Z" fill="#9CB2FF"/>
<path fill-rule="evenodd" clip-rule="evenodd" d="M170.737 125.935H-92.7334V25.1229H-96V13.3563L-88.9289 6.28516V18.0518H-85.6623V118.864H177.808L170.737 125.935Z" fill="#9CB2FF"/>
<path fill-rule="evenodd" clip-rule="evenodd" d="M-90.0146 7.0711H168.016V13.3563H174V25.1229L181.071 18.0518V6.28516H175.087V0H-82.9435L-90.0146 7.0711Z" fill="#9CB2FF"/>
<path d="M168.016 13.3563H174V25.1229H170.737V125.935H-92.7334V25.1229H-96V13.3563H-90.0146V7.07111H168.016V13.3563Z" fill="white"/>
<path d="M170.737 125.935V25.1229H174V13.3563H168.016V7.07111H-90.0146V13.3563H-96V25.1229H-92.7334V125.935" stroke="#9CB2FF" stroke-width="2"/>
<path d="M-90.0146 14.3563H168.016" stroke="#9CB2FF" stroke-width="2" stroke-miterlimit="10" stroke-linecap="round" stroke-linejoin="round"/>
<path d="M-92.7334 24.1225H170.738" stroke="#9CB2FF" stroke-width="2" stroke-miterlimit="10" stroke-linecap="round" stroke-linejoin="round"/>
<path d="M22.3135 34.862V58.8006H33.7406V34.862" stroke="#9CB2FF" stroke-width="2" stroke-miterlimit="10" stroke-linecap="round" stroke-linejoin="round"/>
<path d="M86.0527 34.862V58.8006H97.4778V34.862" stroke="#9CB2FF" stroke-width="2" stroke-miterlimit="10" stroke-linecap="round" stroke-linejoin="round"/>
<path d="M1.06836 34.862V58.8006H12.4934V34.862" stroke="#9CB2FF" stroke-width="2" stroke-miterlimit="10" stroke-linecap="round" stroke-linejoin="round"/>
<path d="M64.8066 34.862V58.8006H76.2317V34.862" stroke="#9CB2FF" stroke-width="2" stroke-miterlimit="10" stroke-linecap="round" stroke-linejoin="round"/>
<path d="M43.5615 34.862V58.8006H54.9866V34.862" stroke="#9CB2FF" stroke-width="2" stroke-miterlimit="10" stroke-linecap="round" stroke-linejoin="round"/>
<path d="M128.544 34.862V58.8006H139.969V34.862" stroke="#9CB2FF" stroke-width="2" stroke-miterlimit="10" stroke-linecap="round" stroke-linejoin="round"/>
<path d="M107.297 34.862V58.8006H118.724V34.862" stroke="#9CB2FF" stroke-width="2" stroke-miterlimit="10" stroke-linecap="round" stroke-linejoin="round"/>
<path d="M149.79 34.862V58.8006H161.215V34.862" stroke="#9CB2FF" stroke-width="2" stroke-miterlimit="10" stroke-linecap="round" stroke-linejoin="round"/>
<path d="M124.048 103.922H105.006V81.8864C105.006 76.6288 109.27 72.3642 114.526 72.3642C119.786 72.3642 124.046 76.6288 124.046 81.8864V103.922H124.048Z" stroke="#9CB2FF" stroke-width="2" stroke-miterlimit="10" stroke-linecap="round" stroke-linejoin="round"/>
<path d="M32.9956 103.922H13.9531V81.8864C13.9531 76.6288 18.2177 72.3642 23.4733 72.3642C28.733 72.3642 32.9956 76.6288 32.9956 81.8864V103.922Z" stroke="#9CB2FF" stroke-width="2" stroke-miterlimit="10" stroke-linecap="round" stroke-linejoin="round"/>
<path d="M93.6978 103.922H74.6533V81.8864C74.6533 76.6288 78.9179 72.3642 84.1735 72.3642C89.4332 72.3642 93.6958 76.6288 93.6958 81.8864L93.6978 103.922Z" stroke="#9CB2FF" stroke-width="2" stroke-miterlimit="10" stroke-linecap="round" stroke-linejoin="round"/>
<path d="M2.64304 103.922H-16.3994V81.8864C-16.3994 76.6288 -12.1368 72.3642 -6.87919 72.3642C-1.62155 72.3642 2.64304 76.6288 2.64304 81.8864V103.922Z" stroke="#9CB2FF" stroke-width="2" stroke-miterlimit="10" stroke-linecap="round" stroke-linejoin="round"/>
<path d="M63.3471 103.922H44.3047V81.8864C44.3047 76.6288 48.5673 72.3642 53.8249 72.3642C59.0826 72.3642 63.3471 76.6288 63.3471 81.8864V103.922Z" stroke="#9CB2FF" stroke-width="2" stroke-miterlimit="10" stroke-linecap="round" stroke-linejoin="round"/>
<path d="M154.403 103.922H135.36V81.8864C135.36 76.6288 139.623 72.3642 144.883 72.3642C150.14 72.3642 154.403 76.6288 154.403 81.8864V103.922Z" stroke="#9CB2FF" stroke-width="2" stroke-miterlimit="10" stroke-linecap="round" stroke-linejoin="round"/>
</svg>
