<svg width="70" height="351" viewBox="0 0 70 351" fill="none" xmlns="http://www.w3.org/2000/svg">
<path fill-rule="evenodd" clip-rule="evenodd" d="M62 350.001H-32V54.2273L-24.9289 47.1562V342.93H69.0711L62 350.001Z" fill="#9CB2FF"/>
<path fill-rule="evenodd" clip-rule="evenodd" d="M-21 39.0506H30.4277L37.4988 31.9795H-13.9289L-21 39.0506Z" fill="#9CB2FF"/>
<path fill-rule="evenodd" clip-rule="evenodd" d="M30.4277 39.0506V7.0711L37.4988 0V31.9795L30.4277 39.0506Z" fill="#9CB2FF"/>
<path fill-rule="evenodd" clip-rule="evenodd" d="M30.4277 7.0711H37.6641V39.0506H51.001V54.2273H62V350.001L69.0711 342.93V47.1562H58.0721V31.9795H44.7352V0H37.4988L30.4277 7.0711Z" fill="#9CB2FF"/>
<path d="M37.6641 39.0506H51.001V54.2273H62V350.001H-32V54.2273H-21V39.0506H30.4277V7.07111H37.6641V39.0506Z" fill="#222228"/>
<mask id="path-6-inside-1_279_13761" fill="white">
<path d="M37.6641 39.0506H51.001V54.2274H62V350.001H-32V54.2274H-21V39.0506H30.4277V7.07111H37.6641V39.0506Z"/>
</mask>
<path d="M37.6641 39.0506H51.001V54.2274H62V350.001H-32V54.2274H-21V39.0506H30.4277V7.07111H37.6641V39.0506Z" fill="white"/>
<path d="M37.6641 39.0506H35.6641V41.0506H37.6641V39.0506ZM51.001 39.0506H53.001V37.0506H51.001V39.0506ZM51.001 54.2274H49.001V56.2274H51.001V54.2274ZM62 54.2274H64V52.2274H62V54.2274ZM62 350.001V352.001H64V350.001H62ZM-32 350.001H-34V352.001H-32V350.001ZM-32 54.2274V52.2274H-34V54.2274H-32ZM-21 54.2274V56.2274H-19V54.2274H-21ZM-21 39.0506V37.0506H-23V39.0506H-21ZM30.4277 39.0506V41.0506H32.4277V39.0506H30.4277ZM30.4277 7.07111V5.07111H28.4277V7.07111H30.4277ZM37.6641 7.07111H39.6641V5.07111H37.6641V7.07111ZM37.6641 39.0506V41.0506H51.001V39.0506V37.0506H37.6641V39.0506ZM51.001 39.0506H49.001V54.2274H51.001H53.001V39.0506H51.001ZM51.001 54.2274V56.2274H62V54.2274V52.2274H51.001V54.2274ZM62 54.2274H60V350.001H62H64V54.2274H62ZM62 350.001V348.001H-32V350.001V352.001H62V350.001ZM-32 350.001H-30V54.2274H-32H-34V350.001H-32ZM-32 54.2274V56.2274H-21V54.2274V52.2274H-32V54.2274ZM-21 54.2274H-19V39.0506H-21H-23V54.2274H-21ZM-21 39.0506V41.0506H30.4277V39.0506V37.0506H-21V39.0506ZM30.4277 39.0506H32.4277V7.07111H30.4277H28.4277V39.0506H30.4277ZM30.4277 7.07111V9.07111H37.6641V7.07111V5.07111H30.4277V7.07111ZM37.6641 7.07111H35.6641V39.0506H37.6641H39.6641V7.07111H37.6641Z" fill="#9CB2FF" mask="url(#path-6-inside-1_279_13761)"/>
<path d="M9.85742 73.5391V350" stroke="#9CB2FF" stroke-width="2" stroke-miterlimit="10" stroke-linecap="round" stroke-linejoin="round"/>
<path d="M40.7148 73.5391V350" stroke="#9CB2FF" stroke-width="2" stroke-miterlimit="10" stroke-linecap="round" stroke-linejoin="round"/>
<path d="M-0.427734 73.5391V350" stroke="#9CB2FF" stroke-width="2" stroke-miterlimit="10" stroke-linecap="round" stroke-linejoin="round"/>
<path d="M30.4297 73.5391V350" stroke="#9CB2FF" stroke-width="2" stroke-miterlimit="10" stroke-linecap="round" stroke-linejoin="round"/>
<path d="M51.001 73.5391V350" stroke="#9CB2FF" stroke-width="2" stroke-miterlimit="10" stroke-linecap="round" stroke-linejoin="round"/>
<path d="M20.1416 73.5391V350" stroke="#9CB2FF" stroke-width="2" stroke-miterlimit="10" stroke-linecap="round" stroke-linejoin="round"/>
<path d="M-21 55.2277H51.0012" stroke="#9CB2FF" stroke-width="2" stroke-miterlimit="10" stroke-linecap="round" stroke-linejoin="round"/>
<path d="M39.3314 40.0501H28.6064" stroke="#9CB2FF" stroke-width="2" stroke-miterlimit="10" stroke-linecap="round" stroke-linejoin="round"/>
</svg>
