<svg width="234" height="244" viewBox="0 0 234 244" fill="none" xmlns="http://www.w3.org/2000/svg">
<path d="M162.081 21.8397C162.081 16.8394 156.496 12.5169 151.157 10.4801L147.987 9.53988C147.042 9.34245 146.148 9.23543 145.345 9.23543V7.47272H112.899L112.898 9.23543C112.003 9.23546 111.001 9.35508 109.942 9.576L106.771 10.4863C101.161 12.5254 95.2963 16.8449 95.2963 21.8407V94.9283H90.2754V116.728H87.2175L76.345 100.918H39.4178L28.5474 116.728H23.2737V150.649H20.5378V175.486H18V242.158L23.2737 242.159V242.188H90.2754V242.214H289.598V124.844H167.103V94.9283H162.082L162.081 21.8397Z" fill="white"/>
<path fill-rule="evenodd" clip-rule="evenodd" d="M152.817 10.5305C151.873 10.333 146.148 9.23545 145.345 9.23545L152.817 1.7627C153.621 1.7627 158.055 2.83305 159 3.03046L156 7.03046L152.817 10.5305Z" fill="#9CB2FF"/>
<path fill-rule="evenodd" clip-rule="evenodd" d="M145.345 9.23551V7.47276L152.817 0V1.76275L145.345 9.23551Z" fill="#9CB2FF"/>
<path fill-rule="evenodd" clip-rule="evenodd" d="M112.899 7.47276L112.897 9.23551L120.37 1.76275L120.371 0L112.899 7.47276Z" fill="#9CB2FF"/>
<path fill-rule="evenodd" clip-rule="evenodd" d="M112.897 9.23545C112.002 9.23545 107.56 9.30948 106.5 9.53046L114 3.03046C115.06 2.80948 119.475 1.7627 120.37 1.7627L112.897 9.23545Z" fill="#9CB2FF"/>
<path fill-rule="evenodd" clip-rule="evenodd" d="M106.773 10.4862C103.743 11.5874 100.639 13.3535 98.4248 15.5319L105.898 8.05917C108.112 5.8807 111.216 4.1146 114.245 3.01349L106.773 10.4862Z" fill="#9CB2FF"/>
<path fill-rule="evenodd" clip-rule="evenodd" d="M95.2963 94.928H90.2754L97.7481 87.4553H102.769L95.2963 94.928Z" fill="#9CB2FF"/>
<path fill-rule="evenodd" clip-rule="evenodd" d="M90.2754 94.928V116.728L97.7481 109.255V87.4553L90.2754 94.928Z" fill="#9CB2FF"/>
<path fill-rule="evenodd" clip-rule="evenodd" d="M90.2747 116.728H87.2168L94.6896 109.255H97.7474L90.2747 116.728Z" fill="#9CB2FF"/>
<path fill-rule="evenodd" clip-rule="evenodd" d="M87.2172 116.728L76.3447 100.918L83.8175 93.4453L94.69 109.255L87.2172 116.728Z" fill="#9CB2FF"/>
<path fill-rule="evenodd" clip-rule="evenodd" d="M76.3442 100.918H39.417L46.8898 93.4453H83.817L76.3442 100.918Z" fill="#9CB2FF"/>
<path fill-rule="evenodd" clip-rule="evenodd" d="M39.4183 100.918L28.5479 116.728L36.0206 109.255L46.891 93.4453L39.4183 100.918Z" fill="#9CB2FF"/>
<path fill-rule="evenodd" clip-rule="evenodd" d="M23.275 150.649H20.5391L28.0118 143.176H30.7477L23.275 150.649Z" fill="#9CB2FF"/>
<path fill-rule="evenodd" clip-rule="evenodd" d="M20.5391 150.649V175.486L28.0118 168.013V143.176L20.5391 150.649Z" fill="#9CB2FF"/>
<path fill-rule="evenodd" clip-rule="evenodd" d="M20.5378 175.486H18L25.4728 168.013H28.0105L20.5378 175.486Z" fill="#9CB2FF"/>
<path fill-rule="evenodd" clip-rule="evenodd" d="M18 175.486V242.159L25.4728 234.686V168.013L18 175.486Z" fill="#9CB2FF"/>
<path fill-rule="evenodd" clip-rule="evenodd" d="M18 242.159L23.2737 242.16L30.7464 234.687L25.4728 234.686L18 242.159Z" fill="#9CB2FF"/>
<path fill-rule="evenodd" clip-rule="evenodd" d="M23.2734 242.16V242.188L30.7462 234.715V234.687L23.2734 242.16Z" fill="#9CB2FF"/>
<path fill-rule="evenodd" clip-rule="evenodd" d="M23.2734 242.188H90.2751L97.7479 234.715H30.7462L23.2734 242.188Z" fill="#9CB2FF"/>
<path fill-rule="evenodd" clip-rule="evenodd" d="M90.2754 242.188V242.214L97.7481 234.741V234.715L90.2754 242.188Z" fill="#9CB2FF"/>
<path fill-rule="evenodd" clip-rule="evenodd" d="M90.2754 242.214H289.598L297.071 234.741H97.7481L90.2754 242.214Z" fill="#9CB2FF"/>
<path fill-rule="evenodd" clip-rule="evenodd" d="M289.6 124.844H167.104L174.577 117.371H297.072L289.6 124.844Z" fill="#9CB2FF"/>
<path fill-rule="evenodd" clip-rule="evenodd" d="M167.104 124.844V94.928L174.577 87.4553V117.371L167.104 124.844Z" fill="#9CB2FF"/>
<path fill-rule="evenodd" clip-rule="evenodd" d="M167.103 94.928H162.082L169.555 87.4553H174.576L167.103 94.928Z" fill="#9CB2FF"/>
<path fill-rule="evenodd" clip-rule="evenodd" d="M162.082 94.928L162.081 21.8397C162.081 16.8394 156.496 12.517 151.157 10.4801L158.63 3.00732C163.969 5.04421 169.554 9.36663 169.554 14.3669L169.555 87.4553L162.082 94.928Z" fill="#9CB2FF"/>
<path fill-rule="evenodd" clip-rule="evenodd" d="M145.344 7.47276H112.897L120.37 0H152.816L145.344 7.47276Z" fill="#9CB2FF"/>
<path d="M162.081 21.8396C162.081 16.8394 156.496 12.5169 151.157 10.4801L147.987 9.53993C147.042 9.34252 146.148 9.23546 145.345 9.23546V7.47272H112.899L112.898 9.23546C112.003 9.23546 111.001 9.35509 109.942 9.57607L106.771 10.4863C101.161 12.5254 95.2963 16.845 95.2963 21.8407V94.928H90.2754V116.728H87.2175L76.345 100.918H39.4178L28.5474 116.728H23.2737V150.649H20.5378V175.486H18V242.159L23.2737 242.16V242.188H90.2754V242.214H289.598V124.844H167.103V94.928H162.082L162.081 21.8396Z" fill="white"/>
<path d="M18 242.159V175.486H20.5378V150.649H23.2737V116.728H28.5474L39.4178 100.918H76.345L87.2175 116.728H90.2754V94.928H95.2963V21.8407C95.2963 16.845 101.161 12.5254 106.771 10.4863L109.942 9.57607C111.001 9.35509 112.003 9.23546 112.898 9.23546L112.899 7.47272H145.345V9.23546C146.148 9.23546 147.042 9.34252 147.987 9.53993L151.157 10.4801C156.496 12.5169 162.081 16.8394 162.081 21.8396L162.082 94.928H167.103V124.844H289.598V242.214" stroke="#9CB2FF" stroke-width="2"/>
<path d="M162.081 21.8411H145.345" stroke="#9CB2FF" stroke-width="2" stroke-miterlimit="10" stroke-linecap="round" stroke-linejoin="round"/>
<path d="M162.081 34.9229H145.345" stroke="#9CB2FF" stroke-width="2" stroke-miterlimit="10" stroke-linecap="round" stroke-linejoin="round"/>
<path d="M112.899 21.8411H95.2969" stroke="#9CB2FF" stroke-width="2" stroke-miterlimit="10" stroke-linecap="round" stroke-linejoin="round"/>
<path d="M112.899 34.9229H95.2969" stroke="#9CB2FF" stroke-width="2" stroke-miterlimit="10" stroke-linecap="round" stroke-linejoin="round"/>
<path d="M162.081 94.9279H145.345" stroke="#9CB2FF" stroke-width="2" stroke-miterlimit="10" stroke-linecap="round" stroke-linejoin="round"/>
<path d="M167.103 109.944H145.345" stroke="#9CB2FF" stroke-width="2" stroke-miterlimit="10" stroke-linecap="round" stroke-linejoin="round"/>
<path d="M95.2969 94.9279H112.899" stroke="#9CB2FF" stroke-width="2" stroke-miterlimit="10" stroke-linecap="round" stroke-linejoin="round"/>
<path d="M90.2754 109.944H112.899" stroke="#9CB2FF" stroke-width="2" stroke-miterlimit="10" stroke-linecap="round" stroke-linejoin="round"/>
<path d="M145.345 242.212V7.47302H134.797V242.212" stroke="#9CB2FF" stroke-width="2" stroke-miterlimit="10" stroke-linecap="round" stroke-linejoin="round"/>
<path d="M123.449 242.212V7.47302H112.897V242.212" stroke="#9CB2FF" stroke-width="2" stroke-miterlimit="10" stroke-linecap="round" stroke-linejoin="round"/>
<path d="M28.5498 116.728H87.2204" stroke="#9CB2FF" stroke-width="2" stroke-miterlimit="10" stroke-linecap="round" stroke-linejoin="round"/>
<path d="M92.4914 150.649H69.7607V242.212" stroke="#9CB2FF" stroke-width="2" stroke-miterlimit="10" stroke-linecap="round" stroke-linejoin="round"/>
<path d="M23.2734 150.649H46.0059V242.212" stroke="#9CB2FF" stroke-width="2" stroke-miterlimit="10" stroke-linecap="round" stroke-linejoin="round"/>
<path d="M23.2734 130.899H92.4917" stroke="#9CB2FF" stroke-width="2" stroke-miterlimit="10" stroke-linecap="round" stroke-linejoin="round"/>
<path d="M83.3652 116.728H92.4919V150.649H95.2253V175.486H97.7667V242.159" stroke="#9CB2FF" stroke-width="2" stroke-miterlimit="10" stroke-linecap="round" stroke-linejoin="round"/>
<path d="M167.102 124.844H154.742V242.212" stroke="#9CB2FF" stroke-width="2" stroke-miterlimit="10" stroke-linecap="round" stroke-linejoin="round"/>
<path d="M162.406 133.872V151.817H281.604V133.872" stroke="#9CB2FF" stroke-width="2" stroke-miterlimit="10" stroke-linecap="round" stroke-linejoin="round"/>
<path d="M216.673 151.817V133.872" stroke="#9CB2FF" stroke-width="2" stroke-miterlimit="10" stroke-linecap="round" stroke-linejoin="round"/>
<path d="M205.979 151.817V133.872" stroke="#9CB2FF" stroke-width="2" stroke-miterlimit="10" stroke-linecap="round" stroke-linejoin="round"/>
<path d="M195.28 151.817V133.872" stroke="#9CB2FF" stroke-width="2" stroke-miterlimit="10" stroke-linecap="round" stroke-linejoin="round"/>
<path d="M227.369 151.817V133.872" stroke="#9CB2FF" stroke-width="2" stroke-miterlimit="10" stroke-linecap="round" stroke-linejoin="round"/>
<path d="M184.585 151.817V133.872" stroke="#9CB2FF" stroke-width="2" stroke-miterlimit="10" stroke-linecap="round" stroke-linejoin="round"/>
<path d="M173.891 151.817V133.872" stroke="#9CB2FF" stroke-width="2" stroke-miterlimit="10" stroke-linecap="round" stroke-linejoin="round"/>
<path d="M162.406 162.535V242.212" stroke="#9CB2FF" stroke-width="2" stroke-miterlimit="10" stroke-linecap="round" stroke-linejoin="round"/>
<path d="M179.435 162.535V242.212" stroke="#9CB2FF" stroke-width="2" stroke-miterlimit="10" stroke-linecap="round" stroke-linejoin="round"/>
<path d="M213.492 162.535V242.212" stroke="#9CB2FF" stroke-width="2" stroke-miterlimit="10" stroke-linecap="round" stroke-linejoin="round"/>
<path d="M187.949 162.535V242.212" stroke="#9CB2FF" stroke-width="2" stroke-miterlimit="10" stroke-linecap="round" stroke-linejoin="round"/>
<path d="M222.006 162.535V242.212" stroke="#9CB2FF" stroke-width="2" stroke-miterlimit="10" stroke-linecap="round" stroke-linejoin="round"/>
<path d="M196.464 162.535V242.212" stroke="#9CB2FF" stroke-width="2" stroke-miterlimit="10" stroke-linecap="round" stroke-linejoin="round"/>
<path d="M204.978 162.535V242.212" stroke="#9CB2FF" stroke-width="2" stroke-miterlimit="10" stroke-linecap="round" stroke-linejoin="round"/>
<path d="M170.919 162.535V242.212" stroke="#9CB2FF" stroke-width="2" stroke-miterlimit="10" stroke-linecap="round" stroke-linejoin="round"/>
<path d="M230.519 162.535V242.212" stroke="#9CB2FF" stroke-width="2" stroke-miterlimit="10" stroke-linecap="round" stroke-linejoin="round"/>
<path d="M18 175.486H25.7645" stroke="#9CB2FF" stroke-width="2" stroke-miterlimit="10" stroke-linecap="round" stroke-linejoin="round"/>
<path d="M97.7665 175.486H87.2188" stroke="#9CB2FF" stroke-width="2" stroke-miterlimit="10" stroke-linecap="round" stroke-linejoin="round"/>
<rect y="134.03" width="422" height="109" fill="url(#paint0_linear_280_15741)"/>
<defs>
<linearGradient id="paint0_linear_280_15741" x1="211" y1="134.03" x2="211" y2="243.03" gradientUnits="userSpaceOnUse">
<stop stop-color="white" stop-opacity="0"/>
<stop offset="1" stop-color="white"/>
</linearGradient>
</defs>
</svg>
