<svg width="537" height="213" viewBox="0 0 537 213" fill="none" xmlns="http://www.w3.org/2000/svg">
<path fill-rule="evenodd" clip-rule="evenodd" d="M521.097 16.2481C518.653 13.5172 515.1 11.7982 511.146 11.7982L13.3481 11.7982C9.79446 11.7982 6.56573 13.1876 4.17383 15.4519L15.4223 4.20393C17.8569 1.61605 21.3128 2.08685e-05 25.1462 0H522.945C527.087 0 530.788 1.88637 533.236 4.84647L521.097 16.2481Z" fill="#9CB2FF"/>
<path d="M533.236 4.84668C535.145 7.15568 536.293 10.118 536.293 13.3485V186.854C536.293 190.54 534.799 193.877 532.384 196.293L520.586 208.091C523.001 205.675 524.495 202.338 524.495 198.652V25.1467C524.495 21.7282 523.21 18.6098 521.096 16.2483L533.236 4.84668Z" fill="#102775"/>
<path d="M0 25.1467C0 17.7747 5.97625 11.7984 13.3483 11.7984L511.147 11.7979C518.519 11.7979 524.495 17.7741 524.495 25.1461V198.651C524.495 206.024 518.519 212 511.147 212L13.3483 212C5.97625 212 0 206.024 0 198.652V25.1467Z" fill="#102775"/>
<path d="M0 25.3489C0 17.9768 5.97625 12.0006 13.3483 12.0006L511.147 12C518.519 12 524.495 17.9762 524.495 25.3483V198.854C524.495 206.226 518.519 212.202 511.147 212.202L13.3483 212.202C5.97625 212.202 0 206.226 0 198.854V25.3489Z" fill="white"/>
<path d="M13.3486 13.3906H511.146C517.751 13.3906 523.105 18.7446 523.105 25.3486V198.854C523.105 205.458 517.751 210.812 511.146 210.812H13.3486C6.74464 210.812 1.39082 205.459 1.39062 198.854V25.3486C1.39076 18.7446 6.7446 13.3906 13.3486 13.3906Z" stroke="#102775" stroke-width="2.78089"/>
<path d="M32.8334 90.437C43.2643 90.437 45.383 94.2399 45.383 103.476V118.144C45.383 127.38 43.2643 131.183 32.8334 131.183H26.2054C24.6299 131.183 24.1953 130.748 24.1953 129.173V92.4471C24.1953 90.8716 24.6299 90.437 26.2054 90.437H32.8334ZM32.6704 98.0429C31.9098 98.0429 31.6925 98.2602 31.6925 99.0208V122.599C31.6925 123.305 31.9098 123.577 32.6704 123.577H33.268C36.3103 123.577 37.6685 122.164 37.6685 118.633V102.987C37.6685 99.4554 36.3103 98.0429 33.268 98.0429H32.6704Z" fill="#FF6752"/>
<path d="M49.7461 131.183H47.1927C45.6172 131.183 45.1826 130.748 45.1826 129.173V125.587C45.1826 124.011 45.6172 123.577 47.1927 123.577H49.8548C51.7562 123.577 52.6255 122.708 52.6255 120.534V98.7491C52.6255 97.9885 52.4082 97.7712 51.6476 97.7712H48.9855C47.41 97.7712 46.9754 97.3366 46.9754 95.7611V92.4471C46.9754 90.8716 47.41 90.437 48.9855 90.437H58.1126C59.6881 90.437 60.1227 90.8716 60.1227 92.4471V119.231C60.1227 127.977 57.515 131.183 49.7461 131.183Z" fill="#FF6752"/>
<path d="M69.547 129.173C69.547 130.748 69.1124 131.183 67.5369 131.183H64.0599C62.4844 131.183 62.0498 130.748 62.0498 129.173V115.265C62.0498 112.874 62.1585 111.896 62.8104 109.723L67.7542 93.1534C68.4061 90.8716 68.9494 90.437 71.7744 90.437H73.7302C76.5552 90.437 77.0985 90.8716 77.7504 93.1534L82.6943 109.723C83.3462 111.842 83.4548 112.874 83.4548 115.265V129.173C83.4548 130.748 83.0202 131.183 81.4447 131.183H77.9678C76.3923 131.183 75.9576 130.748 75.9576 129.173V122.001C75.9576 121.241 75.7403 121.023 74.9797 121.023H70.5249C69.7643 121.023 69.547 121.241 69.547 122.001V129.173ZM75.1427 113.418C75.7403 113.418 76.0663 113.2 76.0663 112.711C76.0663 112.44 76.012 112.168 75.9576 111.896L73.4586 101.411C73.3499 100.868 73.2413 100.759 72.7523 100.759C72.2634 100.759 72.1547 100.868 72.0461 101.411L69.547 111.896C69.4927 112.168 69.4383 112.44 69.4383 112.711C69.4383 113.2 69.7643 113.418 70.3619 113.418H75.1427Z" fill="#FF6752"/>
<path d="M99.3517 103.856C99.6233 104.345 99.732 104.454 100.058 104.454C100.384 104.454 100.493 104.291 100.493 103.91V92.4471C100.493 90.8716 100.927 90.437 102.503 90.437H105.817C107.392 90.437 107.827 90.8716 107.827 92.4471V129.173C107.827 130.748 107.392 131.183 105.817 131.183H102.503C100.927 131.183 100.493 130.748 100.493 129.173V121.73C100.493 119.176 100.112 118.253 99.1887 116.514L94.1362 107.116C93.8646 106.627 93.7559 106.518 93.43 106.518C93.104 106.518 92.9953 106.681 92.9953 107.061V129.173C92.9953 130.748 92.5607 131.183 90.9852 131.183H87.6713C86.0958 131.183 85.6611 130.748 85.6611 129.173V92.4471C85.6611 90.8716 86.0958 90.437 87.6713 90.437H89.79C91.8001 90.437 92.5607 90.763 93.7016 92.9904L99.3517 103.856Z" fill="#FF6752"/>
<path d="M124.833 116.677C124.833 115.917 124.616 115.7 123.855 115.7H123.203C121.628 115.7 121.193 115.265 121.193 113.689V110.104C121.193 108.528 121.628 108.094 123.203 108.094H130.103C131.678 108.094 132.113 108.528 132.113 110.104V119.774C132.113 128.521 129.505 131.726 121.628 131.726C113.75 131.726 111.143 128.521 111.143 119.774V101.846C111.143 93.0994 113.75 89.894 121.628 89.894C129.505 89.894 132.004 93.0994 132.004 101.846V102.118C132.004 103.693 131.57 104.128 129.994 104.128H126.517C124.942 104.128 124.507 103.693 124.507 102.118V100.542C124.507 98.3691 123.584 97.4999 121.682 97.4999C119.781 97.4999 118.857 98.3691 118.857 100.542V121.078C118.857 123.251 119.835 124.12 121.845 124.12C123.91 124.12 124.833 123.251 124.833 121.078V116.677Z" fill="#FF6752"/>
<path d="M155.643 119.231C155.643 128.412 153.036 131.726 145.158 131.726C137.281 131.726 134.673 128.412 134.673 119.231V102.389C134.673 93.2623 137.281 89.894 145.158 89.894C153.036 89.894 155.643 93.2623 155.643 102.389V119.231ZM142.387 121.078C142.387 123.251 143.257 124.12 145.158 124.12C147.06 124.12 147.929 123.251 147.929 121.078V100.814C147.929 98.4235 147.06 97.4999 145.158 97.4999C143.257 97.4999 142.387 98.4235 142.387 100.814V121.078Z" fill="#FF6752"/>
<path d="M179.012 118.144V119.774C179.012 128.521 176.513 131.726 168.636 131.726C160.758 131.726 158.15 128.521 158.15 119.774V101.846C158.15 93.0994 160.758 89.894 168.636 89.894C176.513 89.894 179.012 93.0994 179.012 101.846V103.476C179.012 105.051 178.578 105.486 177.002 105.486H173.525C171.95 105.486 171.515 105.051 171.515 103.476V100.542C171.515 98.3691 170.591 97.4999 168.69 97.4999C166.788 97.4999 165.865 98.3691 165.865 100.542V121.078C165.865 123.251 166.788 124.12 168.69 124.12C170.591 124.12 171.515 123.251 171.515 121.078V118.144C171.515 116.569 171.95 116.134 173.525 116.134H177.002C178.578 116.134 179.012 116.569 179.012 118.144Z" fill="#FF6752"/>
<path d="M202.642 119.231C202.642 128.412 200.035 131.726 192.157 131.726C184.28 131.726 181.672 128.412 181.672 119.231V102.389C181.672 93.2623 184.28 89.894 192.157 89.894C200.035 89.894 202.642 93.2623 202.642 102.389V119.231ZM189.386 121.078C189.386 123.251 190.256 124.12 192.157 124.12C194.059 124.12 194.928 123.251 194.928 121.078V100.814C194.928 98.4235 194.059 97.4999 192.157 97.4999C190.256 97.4999 189.386 98.4235 189.386 100.814V121.078Z" fill="#FF6752"/>
<path d="M218.452 103.856C218.724 104.345 218.833 104.454 219.159 104.454C219.484 104.454 219.593 104.291 219.593 103.91V92.4471C219.593 90.8716 220.028 90.437 221.603 90.437H224.917C226.493 90.437 226.927 90.8716 226.927 92.4471V129.173C226.927 130.748 226.493 131.183 224.917 131.183H221.603C220.028 131.183 219.593 130.748 219.593 129.173V121.73C219.593 119.176 219.213 118.253 218.289 116.514L213.237 107.116C212.965 106.627 212.857 106.518 212.531 106.518C212.205 106.518 212.096 106.681 212.096 107.061V129.173C212.096 130.748 211.661 131.183 210.086 131.183H206.772C205.196 131.183 204.762 130.748 204.762 129.173V92.4471C204.762 90.8716 205.196 90.437 206.772 90.437H208.891C210.901 90.437 211.661 90.763 212.802 92.9904L218.452 103.856Z" fill="#FF6752"/>
<path d="M271.292 104.943L278.246 111.245C281.886 114.504 282.701 116.46 282.701 120.1V121.078C282.701 127.923 280.093 131.726 272.216 131.726C264.338 131.726 261.73 128.521 261.73 119.774V118.688C261.73 117.112 262.165 116.677 263.741 116.677H267.435C269.01 116.677 269.445 117.112 269.445 118.688V121.078C269.445 123.251 270.314 124.12 272.216 124.12C274.117 124.12 274.986 123.305 274.986 121.35V120.317C274.986 118.796 274.66 118.036 272.65 116.243L266.131 110.43C262.491 107.225 261.73 105.377 261.73 101.737V100.542C261.73 93.697 264.338 89.894 272.216 89.894C280.093 89.894 282.701 93.0994 282.701 101.846V102.933C282.701 104.508 282.266 104.943 280.691 104.943H276.996C275.421 104.943 274.986 104.508 274.986 102.933V100.542C274.986 98.3691 274.117 97.4999 272.216 97.4999C270.314 97.4999 269.445 98.3148 269.445 100.271V101.194C269.445 102.77 269.771 103.53 271.292 104.943Z" fill="#FF6752"/>
<path d="M252.065 92.4471C252.065 90.8716 252.5 90.437 254.075 90.437H257.552C259.128 90.437 259.562 90.8716 259.562 92.4471V119.774C259.562 128.521 256.954 131.726 249.077 131.726C241.2 131.726 238.592 128.521 238.592 119.774V92.4471C238.592 90.8716 239.026 90.437 240.602 90.437H244.079C245.654 90.437 246.089 90.8716 246.089 92.4471V121.078C246.089 123.251 247.013 124.12 249.077 124.12C251.087 124.12 252.065 123.251 252.065 121.078V92.4471Z" fill="#FF6752"/>
<path d="M153.874 167.039V168.669C153.874 177.415 151.375 180.621 143.498 180.621C135.62 180.621 133.013 177.415 133.013 168.669V150.741C133.013 141.994 135.62 138.789 143.498 138.789C151.375 138.789 153.874 141.994 153.874 150.741V152.37C153.874 153.946 153.44 154.381 151.864 154.381H148.387C146.812 154.381 146.377 153.946 146.377 152.37V149.437C146.377 147.264 145.454 146.394 143.552 146.394C141.651 146.394 140.727 147.264 140.727 149.437V169.973C140.727 172.146 141.651 173.015 143.552 173.015C145.454 173.015 146.377 172.146 146.377 169.973V167.039C146.377 165.463 146.812 165.029 148.387 165.029H151.864C153.44 165.029 153.874 165.463 153.874 167.039Z" fill="#FF6752"/>
<path d="M170.319 178.223V163.554C170.319 162.794 170.102 162.576 169.341 162.576H164.886C164.126 162.576 163.908 162.794 163.908 163.554V178.223C163.908 179.798 163.474 180.233 161.898 180.233H158.421C156.846 180.233 156.411 179.798 156.411 178.223V141.497C156.411 139.922 156.846 139.487 158.421 139.487H161.898C163.474 139.487 163.908 139.922 163.908 141.497V153.993C163.908 154.699 164.126 154.971 164.886 154.971H169.341C170.102 154.971 170.319 154.699 170.319 153.993V141.497C170.319 139.922 170.754 139.487 172.329 139.487H175.806C177.382 139.487 177.816 139.922 177.816 141.497V178.223C177.816 179.798 177.382 180.233 175.806 180.233H172.329C170.754 180.233 170.319 179.798 170.319 178.223Z" fill="#FF6752"/>
<path d="M189.191 141.497V178.223C189.191 179.798 188.756 180.233 187.18 180.233H183.703C182.128 180.233 181.693 179.798 181.693 178.223V141.497C181.693 139.922 182.128 139.487 183.703 139.487H187.18C188.756 139.487 189.191 139.922 189.191 141.497Z" fill="#FF6752"/>
<path d="M213.181 167.194V168.824C213.181 177.571 210.682 180.776 202.805 180.776C194.927 180.776 192.319 177.571 192.319 168.824V150.896C192.319 142.149 194.927 138.944 202.805 138.944C210.682 138.944 213.181 142.149 213.181 150.896V152.526C213.181 154.101 212.746 154.536 211.171 154.536H207.694C206.119 154.536 205.684 154.101 205.684 152.526V149.592C205.684 147.419 204.76 146.55 202.859 146.55C200.957 146.55 200.034 147.419 200.034 149.592V170.128C200.034 172.301 200.957 173.17 202.859 173.17C204.76 173.17 205.684 172.301 205.684 170.128V167.194C205.684 165.619 206.119 165.184 207.694 165.184H211.171C212.746 165.184 213.181 165.619 213.181 167.194Z" fill="#FF6752"/>
<path d="M222.454 178.068C222.454 179.643 222.02 180.078 220.444 180.078H216.967C215.392 180.078 214.957 179.643 214.957 178.068V164.16C214.957 161.769 215.066 160.791 215.718 158.618L220.661 142.048C221.313 139.767 221.857 139.332 224.682 139.332H226.637C229.462 139.332 230.006 139.767 230.658 142.048L235.601 158.618C236.253 160.737 236.362 161.769 236.362 164.16V178.068C236.362 179.643 235.927 180.078 234.352 180.078H230.875C229.299 180.078 228.865 179.643 228.865 178.068V170.896C228.865 170.136 228.648 169.918 227.887 169.918H223.432C222.672 169.918 222.454 170.136 222.454 170.896V178.068ZM228.05 162.313C228.648 162.313 228.974 162.095 228.974 161.606C228.974 161.335 228.919 161.063 228.865 160.791L226.366 150.306C226.257 149.763 226.148 149.654 225.66 149.654C225.171 149.654 225.062 149.763 224.953 150.306L222.454 160.791C222.4 161.063 222.346 161.335 222.346 161.606C222.346 162.095 222.672 162.313 223.269 162.313H228.05Z" fill="#FF6752"/>
<path d="M252.189 165.572C252.189 164.811 251.971 164.594 251.211 164.594H250.559C248.983 164.594 248.549 164.16 248.549 162.584V158.998C248.549 157.423 248.983 156.988 250.559 156.988H257.458C259.034 156.988 259.468 157.423 259.468 158.998V168.669C259.468 177.415 256.861 180.621 248.983 180.621C241.106 180.621 238.498 177.415 238.498 168.669V150.741C238.498 141.994 241.106 138.789 248.983 138.789C256.861 138.789 259.36 141.994 259.36 150.741V151.012C259.36 152.588 258.925 153.022 257.35 153.022H253.873C252.297 153.022 251.863 152.588 251.863 151.012V149.437C251.863 147.264 250.939 146.394 249.038 146.394C247.136 146.394 246.213 147.264 246.213 149.437V169.973C246.213 172.146 247.19 173.015 249.201 173.015C251.265 173.015 252.189 172.146 252.189 169.973V165.572Z" fill="#FF6752"/>
<path d="M283 168.125C283 177.307 280.392 180.621 272.514 180.621C264.637 180.621 262.029 177.307 262.029 168.125V151.284C262.029 142.157 264.637 138.789 272.514 138.789C280.392 138.789 283 142.157 283 151.284V168.125ZM269.744 169.973C269.744 172.146 270.613 173.015 272.514 173.015C274.416 173.015 275.285 172.146 275.285 169.973V149.708C275.285 147.318 274.416 146.394 272.514 146.394C270.613 146.394 269.744 147.318 269.744 149.708V169.973Z" fill="#FF6752"/>
<path d="M99.4713 57.5151C99.4713 57.678 99.5257 57.7324 99.6343 57.7324C99.743 57.7324 99.8516 57.678 100.015 57.5694C101.047 56.8631 102.188 56.4285 104.469 56.4285C109.631 56.4285 112.727 59.3622 112.727 67.0767V71.6945C112.727 79.572 109.848 82.8317 102.242 82.8317C94.3646 82.8317 91.7568 79.5177 91.7568 70.3364V53.4948C91.7568 44.3135 94.3646 40.9995 102.133 40.9995C109.631 40.9995 112.51 44.2592 112.51 52.1366V52.354C112.51 53.9295 112.075 54.3641 110.5 54.3641H107.132C105.556 54.3641 105.121 53.9295 105.121 52.354V51.1044C105.121 49.3116 104.198 48.6054 102.296 48.6054C100.341 48.6054 99.4713 49.4746 99.4713 51.6477V57.5151ZM105.013 72.1835V67.0767C105.013 64.9036 104.144 64.0344 102.242 64.0344C100.341 64.0344 99.4713 64.9036 99.4713 67.0767V72.1835C99.4713 74.3566 100.341 75.2258 102.242 75.2258C104.144 75.2258 105.013 74.3566 105.013 72.1835Z" fill="#FF6752"/>
<path d="M66.781 70.3364C66.781 79.5177 64.1732 82.8317 56.2958 82.8317C48.4183 82.8317 45.8105 79.5177 45.8105 70.3364V53.4948C45.8105 44.3678 48.4183 40.9995 56.2958 40.9995C64.1732 40.9995 66.781 44.3678 66.781 53.4948V70.3364ZM59.0665 51.6477C59.0665 49.4746 58.1972 48.6054 56.2958 48.6054C54.3943 48.6054 53.5251 49.4746 53.5251 51.6477V72.1835C53.5251 74.3566 54.3943 75.2258 56.2958 75.2258C58.1972 75.2258 59.0665 74.3566 59.0665 72.1835V51.6477Z" fill="#FF6752"/>
<path d="M32.5073 73.7047C32.0727 74.4109 32.2357 74.9542 33.1592 74.9542H41.6343C43.2098 74.9542 43.6444 75.3888 43.6444 76.9643V80.2783C43.6444 81.8538 43.2098 82.2884 41.6343 82.2884H25.4447C23.8692 82.2884 23.4346 81.8538 23.4346 80.2783V76.3667C23.4346 74.8999 23.5433 74.1936 24.1409 73.27L33.6482 58.7103C35.115 56.4828 35.9299 53.7665 35.9299 51.8107C35.9299 49.4203 35.1694 48.6054 33.1592 48.6054C31.2578 48.6054 30.3885 49.4746 30.3885 51.6477V54.5814C30.3885 56.1569 29.9539 56.5915 28.3784 56.5915H25.0101C23.4346 56.5915 23 56.1569 23 54.5814V52.9516C23 44.4765 25.6077 40.9995 33.1592 40.9995C40.8194 40.9995 43.6444 44.5308 43.6444 51.5934C43.6444 54.6357 42.5579 57.9497 40.2761 61.481L32.5073 73.7047Z" fill="#FF6752"/>
<path d="M78.4507 73.7047C78.016 74.4109 78.179 74.9542 79.1026 74.9542H87.5777C89.1532 74.9542 89.5878 75.3888 89.5878 76.9643V80.2783C89.5878 81.8538 89.1532 82.2884 87.5777 82.2884H71.3881C69.8126 82.2884 69.378 81.8538 69.378 80.2783V76.3667C69.378 74.8999 69.4866 74.1936 70.0842 73.27L79.5915 58.7103C81.0584 56.4828 81.8733 53.7665 81.8733 51.8107C81.8733 49.4203 81.1127 48.6054 79.1026 48.6054C77.2011 48.6054 76.3319 49.4746 76.3319 51.6477V54.5814C76.3319 56.1569 75.8973 56.5915 74.3218 56.5915H70.9535C69.378 56.5915 68.9434 56.1569 68.9434 54.5814V52.9516C68.9434 44.4765 71.5511 40.9995 79.1026 40.9995C86.7628 40.9995 89.5878 44.5308 89.5878 51.5934C89.5878 54.6357 88.5013 57.9497 86.2195 61.481L78.4507 73.7047Z" fill="#FF6752"/>
<path d="M409.129 124.863V91.4002C409.129 87.7089 406.137 84.7165 402.446 84.7165H388.922C385.23 84.7165 382.238 87.7089 382.238 91.4002V164.085C382.238 167.776 385.23 170.769 388.922 170.769H461.607C465.298 170.769 468.29 167.776 468.29 164.085V150.561C468.29 146.87 465.298 143.877 461.607 143.877H428.144L497.274 74.7477C499.884 72.1376 499.884 67.9057 497.274 65.2955L487.711 55.7329C485.101 53.1228 480.869 53.1228 478.259 55.7329L409.129 124.863Z" fill="#FF6752" fill-opacity="0.75"/>
</svg>
