<svg width="241" height="257" viewBox="0 0 241 257" fill="none" xmlns="http://www.w3.org/2000/svg">
<path fill-rule="evenodd" clip-rule="evenodd" d="M130.246 132.176C129.584 132.858 128.857 133.478 128.077 134.027L133.651 128.453C134.431 127.905 135.157 127.284 135.82 126.602L130.246 132.176Z" fill="#9CB2FF"/>
<path fill-rule="evenodd" clip-rule="evenodd" d="M128.077 134.027L171.574 256.829L177.147 251.255L133.651 128.453L128.077 134.027Z" fill="#9CB2FF"/>
<path fill-rule="evenodd" clip-rule="evenodd" d="M171.574 256.829H162.963L150.813 222.523L119.63 206.524L87.834 222.833L93.4077 217.259L125.203 200.95L156.386 216.95L168.537 251.255H177.148L171.574 256.829Z" fill="#9CB2FF"/>
<path fill-rule="evenodd" clip-rule="evenodd" d="M87.8341 222.833L75.792 256.829L81.3657 251.255L93.4078 217.259L87.8341 222.833Z" fill="#9CB2FF"/>
<path fill-rule="evenodd" clip-rule="evenodd" d="M75.7921 256.829H67.1816L110.681 134.027C106.779 131.285 104.227 126.75 104.227 121.623C104.227 117.439 105.924 113.65 108.666 110.906L114.24 105.333C111.497 108.076 109.801 111.865 109.801 116.049C109.801 121.177 112.353 125.711 116.254 128.454L72.7553 251.255H81.3658L75.7921 256.829Z" fill="#9CB2FF"/>
<path fill-rule="evenodd" clip-rule="evenodd" d="M108.667 110.906C111.409 108.163 115.197 106.466 119.378 106.465C127.746 106.465 134.532 113.255 134.532 121.623C134.532 125.724 132.899 129.447 130.248 132.176L135.822 126.602C138.473 123.873 140.105 120.151 140.106 116.049C140.106 107.681 133.32 100.892 124.952 100.892C120.77 100.892 116.983 102.589 114.241 105.333L108.667 110.906Z" fill="#9CB2FF"/>
<path fill-rule="evenodd" clip-rule="evenodd" d="M110.193 201.682L97.6133 195.227L103.187 189.653L115.766 196.108L110.193 201.682Z" fill="#9CB2FF"/>
<path fill-rule="evenodd" clip-rule="evenodd" d="M97.612 195.227L92.0244 210.999L110.191 201.682L115.765 196.108L97.5981 205.426L103.186 189.653L97.612 195.227Z" fill="#9CB2FF"/>
<path fill-rule="evenodd" clip-rule="evenodd" d="M129.065 201.685L146.623 210.693L152.196 205.119L134.639 196.111L129.065 201.685Z" fill="#9CB2FF"/>
<path fill-rule="evenodd" clip-rule="evenodd" d="M146.623 210.693L141.223 195.448L129.065 201.685L134.639 196.111L146.797 189.875L152.196 205.119L146.623 210.693Z" fill="#9CB2FF"/>
<path fill-rule="evenodd" clip-rule="evenodd" d="M138.321 187.254L120.429 136.738C120.082 136.762 119.731 136.775 119.378 136.775C119.026 136.775 118.678 136.762 118.332 136.738L123.906 131.165C124.251 131.188 124.6 131.202 124.952 131.202C125.305 131.202 125.655 131.189 126.003 131.165L143.895 181.68L138.321 187.254Z" fill="#9CB2FF"/>
<path fill-rule="evenodd" clip-rule="evenodd" d="M118.33 136.738L100.514 187.035L119.627 196.842L138.32 187.254L143.893 181.68L125.2 191.268L106.087 181.462L123.904 131.165L118.33 136.738Z" fill="#9CB2FF"/>
<path d="M225.175 121.623C225.175 180.063 177.822 227.416 119.377 227.416C60.9418 227.416 13.584 180.063 13.584 121.623C13.584 63.1756 60.9418 15.827 119.377 15.827C177.822 15.827 225.175 63.1756 225.175 121.623Z" stroke="#9CB2FF" stroke-width="2" stroke-miterlimit="10"/>
<path d="M184.97 121.623C184.97 157.852 155.61 187.212 119.374 187.212C83.1466 187.212 53.7822 157.855 53.7822 121.623C53.7822 85.3884 83.1466 56.0264 119.374 56.0264C155.608 56.0264 184.97 85.3884 184.97 121.623Z" stroke="#9CB2FF" stroke-width="2" stroke-miterlimit="10"/>
<path fill-rule="evenodd" clip-rule="evenodd" d="M196.455 194.102C177.16 214.612 149.768 227.416 119.377 227.416C60.9418 227.416 13.5841 180.062 13.584 121.623C13.584 93.5683 24.4952 68.0708 42.3054 49.1393L47.879 43.5657C30.0689 62.4971 19.1577 87.9946 19.1577 116.049C19.1577 174.489 66.5154 221.842 124.951 221.843C155.342 221.843 182.734 209.038 202.028 188.529L196.455 194.102Z" fill="#9CB2FF"/>
<path fill-rule="evenodd" clip-rule="evenodd" d="M42.3057 49.1394C61.6 28.6303 88.9911 15.8272 119.378 15.8272C177.822 15.8272 225.176 63.1758 225.176 121.623C225.175 149.674 214.265 175.171 196.455 194.102L202.029 188.529C219.839 169.597 230.749 144.1 230.749 116.049C230.749 57.6021 183.396 10.2535 124.951 10.2535C94.5648 10.2536 67.1737 23.0566 47.8793 43.5657L42.3057 49.1394Z" fill="#9CB2FF"/>
<path fill-rule="evenodd" clip-rule="evenodd" d="M74.4388 73.8342C61.7224 85.7974 53.7822 102.781 53.7822 121.623C53.7823 157.855 83.1469 187.213 119.374 187.213C137.492 187.213 153.892 179.873 165.761 168.004L171.335 162.43C159.465 174.299 143.066 181.639 124.948 181.639C88.7205 181.639 59.356 152.281 59.3559 116.049C59.3559 97.2074 67.2961 80.2237 80.0125 68.2606L74.4388 73.8342Z" fill="#9CB2FF"/>
<path fill-rule="evenodd" clip-rule="evenodd" d="M165.761 168.004C177.63 156.135 184.971 139.738 184.971 121.623C184.971 85.3886 155.608 56.0263 119.374 56.0262C101.985 56.0262 86.1767 62.7913 74.4385 73.8342L80.0121 68.2606C91.7504 57.2176 107.558 50.4526 124.947 50.4526C161.182 50.4527 190.544 79.8149 190.544 116.049C190.544 134.164 183.204 150.561 171.335 162.43L165.761 168.004Z" fill="#9CB2FF"/>
<path d="M119.375 8.68915V234.542" stroke="#9CB2FF" stroke-width="2" stroke-miterlimit="10" stroke-linecap="round" stroke-linejoin="round"/>
<path d="M6.45605 121.623H232.307" stroke="#9CB2FF" stroke-width="2" stroke-miterlimit="10" stroke-linecap="round" stroke-linejoin="round"/>
<path d="M142.911 11.1769L95.8467 232.068" stroke="#9CB2FF" stroke-width="2" stroke-miterlimit="10" stroke-linecap="round" stroke-linejoin="round"/>
<path d="M8.93066 98.0881L229.824 145.148" stroke="#9CB2FF" stroke-width="2" stroke-miterlimit="10" stroke-linecap="round" stroke-linejoin="round"/>
<path d="M166.75 19.1027L72.0186 224.131" stroke="#9CB2FF" stroke-width="2" stroke-miterlimit="10" stroke-linecap="round" stroke-linejoin="round"/>
<path d="M16.8633 74.2626L221.899 168.98" stroke="#9CB2FF" stroke-width="2" stroke-miterlimit="10" stroke-linecap="round" stroke-linejoin="round"/>
<path d="M188.785 32.533L49.9805 210.701" stroke="#9CB2FF" stroke-width="2" stroke-miterlimit="10" stroke-linecap="round" stroke-linejoin="round"/>
<path d="M30.293 52.2238L208.461 191.017" stroke="#9CB2FF" stroke-width="2" stroke-miterlimit="10" stroke-linecap="round" stroke-linejoin="round"/>
<path d="M206.932 50.3019L31.8203 192.941" stroke="#9CB2FF" stroke-width="2" stroke-miterlimit="10" stroke-linecap="round" stroke-linejoin="round"/>
<path d="M48.0557 34.0632L190.695 209.175" stroke="#9CB2FF" stroke-width="2" stroke-miterlimit="10" stroke-linecap="round" stroke-linejoin="round"/>
<path d="M221.44 73.2913L17.3096 169.949" stroke="#9CB2FF" stroke-width="2" stroke-miterlimit="10" stroke-linecap="round" stroke-linejoin="round"/>
<path d="M71.0518 19.5609L167.714 223.682" stroke="#9CB2FF" stroke-width="2" stroke-miterlimit="10" stroke-linecap="round" stroke-linejoin="round"/>
<path d="M229.345 95.9395L9.4043 147.304" stroke="#9CB2FF" stroke-width="2" stroke-miterlimit="10" stroke-linecap="round" stroke-linejoin="round"/>
<path d="M93.6904 11.658L145.064 231.585" stroke="#9CB2FF" stroke-width="2" stroke-miterlimit="10" stroke-linecap="round" stroke-linejoin="round"/>
<path d="M125.835 8.68917C125.835 12.2626 122.946 15.1421 119.377 15.1421C115.82 15.1421 112.92 12.2604 112.92 8.68917C112.92 5.12714 115.822 2.22943 119.377 2.22943C122.949 2.22943 125.835 5.12943 125.835 8.68917Z" fill="#222228"/>
<path d="M125.835 234.542C125.835 238.114 122.946 241 119.377 241C115.82 241 112.92 238.111 112.92 234.542C112.92 230.976 115.822 228.092 119.377 228.092C122.949 228.092 125.835 230.976 125.835 234.542Z" fill="#222228"/>
<path d="M6.45746 115.165C10.0264 115.165 12.9103 118.054 12.9103 121.623C12.9103 125.189 10.0241 128.076 6.45746 128.076C2.88169 128.076 0 125.187 0 121.623C0 118.051 2.88398 115.165 6.45746 115.165Z" fill="#222228"/>
<path d="M232.31 115.165C235.87 115.165 238.763 118.054 238.763 121.623C238.763 125.189 235.867 128.076 232.31 128.076C228.734 128.076 225.853 125.187 225.853 121.623C225.853 118.051 228.734 115.165 232.31 115.165Z" fill="#222228"/>
<path d="M10.5038 90.9594C13.9857 91.7314 16.1824 95.1788 15.4196 98.6584C14.6408 102.143 11.1979 104.339 7.71603 103.574C4.23188 102.8 2.03282 99.3502 2.8002 95.8707C3.56987 92.3911 7.01508 90.1966 10.5038 90.9594Z" fill="#222228"/>
<path d="M231.043 139.667C234.523 140.436 236.72 143.881 235.955 147.368C235.178 150.852 231.744 153.044 228.258 152.275C224.774 151.509 222.582 148.057 223.347 144.582C224.114 141.087 227.561 138.895 231.043 139.667Z" fill="#222228"/>
<path d="M88.725 230.49C89.4924 227.008 92.9399 224.814 96.424 225.583C99.9059 226.348 102.103 229.798 101.333 233.278C100.561 236.764 97.1227 238.957 93.6385 238.189C90.1567 237.426 87.9576 233.981 88.725 230.49Z" fill="#222228"/>
<path d="M137.422 9.95356C138.192 6.474 141.644 4.27954 145.119 5.04463C148.603 5.80972 150.804 9.25491 150.035 12.739C149.258 16.2209 145.815 18.4268 142.342 17.6549C138.851 16.8806 136.659 13.4423 137.422 9.95356Z" fill="#222228"/>
<path d="M19.8543 67.8761C23.0842 69.3857 24.4747 73.2318 22.9605 76.4593C21.4464 79.6892 17.6049 81.0819 14.3796 79.5655C11.1474 78.0605 9.75238 74.2144 11.2619 70.9823C12.7807 67.7524 16.6267 66.3597 19.8543 67.8761Z" fill="#222228"/>
<path d="M224.382 163.671C227.605 165.178 229.005 169.026 227.495 172.252C225.976 175.484 222.132 176.876 218.903 175.36C215.67 173.853 214.285 170.007 215.799 166.779C217.313 163.54 221.15 162.154 224.382 163.671Z" fill="#222228"/>
<path d="M65.6344 221.144C67.1509 217.914 70.9901 216.521 74.2245 218.038C77.4567 219.552 78.8403 223.393 77.3307 226.628C75.8143 229.851 71.9751 231.239 68.7498 229.732C65.5176 228.22 64.1249 224.376 65.6344 221.144Z" fill="#222228"/>
<path d="M161.428 16.6173C162.944 13.3874 166.79 11.9947 170.013 13.5134C173.25 15.023 174.638 18.8622 173.122 22.0921C171.605 25.3265 167.773 26.7193 164.536 25.2005C161.311 23.6887 159.92 19.8449 161.428 16.6173Z" fill="#222228"/>
<path d="M34.5426 46.8087C37.351 49.0055 37.8366 53.0645 35.6307 55.8798C33.4271 58.6813 29.3748 59.1693 26.571 56.9679C23.7626 54.7642 23.2724 50.7051 25.4784 47.8967C27.6797 45.0929 31.7388 44.6027 34.5426 46.8087Z" fill="#292833"/>
<path d="M212.196 186.271C215 188.479 215.49 192.536 213.289 195.339C211.08 198.141 207.026 198.633 204.222 196.43C201.418 194.238 200.921 190.169 203.134 187.363C205.328 184.557 209.388 184.069 212.196 186.271Z" fill="#292833"/>
<path d="M44.5715 206.456C46.7729 203.657 50.8274 203.16 53.6381 205.366C56.4442 207.56 56.9321 211.624 54.7308 214.432C52.5202 217.236 48.4657 217.722 45.6642 215.525C42.8673 213.317 42.3725 209.269 44.5715 206.456Z" fill="#292833"/>
<path d="M184.034 28.8061C186.239 26.0023 190.296 25.512 193.093 27.7157C195.897 29.9193 196.392 33.9716 194.19 36.7823C191.987 39.5815 187.932 40.0717 185.119 37.8727C182.318 35.669 181.825 31.6122 184.034 28.8061Z" fill="#292833"/>
<path d="M52.7802 30.1896C55.0457 32.9476 54.638 37.0205 51.88 39.2837C49.1151 41.5423 45.0514 41.1414 42.7928 38.3788C40.5296 35.6162 40.9305 31.548 43.6862 29.2939C46.4464 27.0261 50.5216 27.4339 52.7802 30.1896Z" fill="#292833"/>
<path d="M195.965 204.855C198.223 207.615 197.82 211.688 195.062 213.947C192.304 216.205 188.24 215.797 185.973 213.046C183.718 210.293 184.117 206.22 186.875 203.957C189.635 201.694 193.699 202.104 195.965 204.855Z" fill="#292833"/>
<path d="M27.9529 188.215C30.7086 185.959 34.7769 186.36 37.0424 189.118C39.301 191.871 38.9024 195.942 36.1376 198.203C33.3796 200.466 29.3227 200.061 27.0572 197.307C24.794 194.551 25.1949 190.483 27.9529 188.215Z" fill="#292833"/>
<path d="M202.618 45.0333C205.385 42.7724 209.446 43.1778 211.705 45.9312C213.973 48.6961 213.565 52.7575 210.809 55.0253C208.049 57.2816 203.981 56.8785 201.722 54.1228C199.459 51.3579 199.869 47.3011 202.618 45.0333Z" fill="#292833"/>
<path d="M76.5668 16.9196C78.1039 20.1426 76.7341 23.9932 73.5179 25.5325C70.2972 27.0765 66.4466 25.709 64.9141 22.4859C63.3725 19.2675 64.7354 15.4146 67.9561 13.8775C71.17 12.3382 75.0344 13.7103 76.5668 16.9196Z" fill="#222228"/>
<path d="M173.844 220.75C175.383 223.971 174.02 227.822 170.802 229.368C167.588 230.898 163.723 229.535 162.189 226.317C160.652 223.1 162.019 219.243 165.24 217.71C168.463 216.169 172.307 217.532 173.844 220.75Z" fill="#222228"/>
<path d="M14.6883 164.431C17.9067 162.896 21.7574 164.259 23.299 167.478C24.8338 170.694 23.4662 174.554 20.2478 176.086C17.0317 177.628 13.1856 176.265 11.6417 173.049C10.1092 169.826 11.4676 165.973 14.6883 164.431Z" fill="#222228"/>
<path d="M218.513 67.1522C221.724 65.6129 225.588 66.9758 227.119 70.1919C228.656 73.4149 227.288 77.2679 224.072 78.8073C220.856 80.3443 217.003 78.9745 215.471 75.7606C213.933 72.5376 215.299 68.6893 218.513 67.1522Z" fill="#222228"/>
<path d="M100.172 10.1483C100.981 13.6256 98.8136 17.0936 95.3363 17.8999C91.859 18.7063 88.3932 16.5462 87.5892 13.0689C86.7806 9.59166 88.9475 6.12812 92.4202 5.31722C95.8929 4.51089 99.3679 6.67562 100.172 10.1483Z" fill="#222228"/>
<path d="M151.167 230.172C151.978 233.642 149.811 237.117 146.343 237.925C142.861 238.725 139.405 236.556 138.585 233.097C137.783 229.617 139.952 226.147 143.418 225.343C146.907 224.534 150.373 226.69 151.167 230.172Z" fill="#222228"/>
<path d="M7.91039 140.828C11.3922 140.028 14.8581 142.191 15.6713 145.668C16.4753 149.138 14.3083 152.609 10.8402 153.401C7.35375 154.219 3.89251 152.057 3.08619 148.584C2.28445 145.109 4.44228 141.641 7.91039 140.828Z" fill="#222228"/>
<path d="M227.936 89.8232C231.399 89.0123 234.874 91.1861 235.676 94.652C236.487 98.1338 234.327 101.602 230.852 102.406C227.372 103.212 223.907 101.05 223.103 97.5749C222.292 94.0976 224.461 90.6318 227.936 89.8232Z" fill="#222228"/>
<path fill-rule="evenodd" clip-rule="evenodd" d="M124.083 238.968C122.905 240.219 121.233 241 119.377 241C115.82 241 112.92 238.111 112.92 234.543C112.92 232.831 113.589 231.276 114.677 230.122L116.907 227.893C115.818 229.047 115.149 230.601 115.149 232.313C115.149 235.882 118.049 238.771 121.607 238.771C123.462 238.771 125.134 237.99 126.312 236.739L124.083 238.968Z" fill="#9CB2FF"/>
<path fill-rule="evenodd" clip-rule="evenodd" d="M114.679 230.122C115.858 228.872 117.53 228.092 119.379 228.092C122.95 228.092 125.837 230.976 125.837 234.543C125.837 236.257 125.171 237.813 124.084 238.968L126.314 236.739C127.4 235.584 128.066 234.027 128.066 232.313C128.066 228.747 125.18 225.862 121.608 225.862C119.76 225.862 118.087 226.642 116.908 227.892L114.679 230.122Z" fill="#9CB2FF"/>
<path fill-rule="evenodd" clip-rule="evenodd" d="M90.332 227.451C91.8398 225.859 94.1234 225.075 96.4229 225.583C99.9045 226.348 102.102 229.798 101.333 233.278C101.07 234.463 100.499 235.499 99.7233 236.319L101.953 234.09C102.729 233.269 103.3 232.234 103.562 231.048C104.332 227.569 102.134 224.119 98.6523 223.353C96.3529 222.846 94.0692 223.629 92.5615 225.222L90.332 227.451Z" fill="#9CB2FF"/>
<path fill-rule="evenodd" clip-rule="evenodd" d="M99.7238 236.319C98.2174 237.913 95.9379 238.695 93.6385 238.189C90.1568 237.426 87.9569 233.982 88.7238 230.49C88.9849 229.307 89.5557 228.272 90.3324 227.451L92.5619 225.222C91.7851 226.042 91.2143 227.077 90.9533 228.261C90.1863 231.752 92.3863 235.197 95.8679 235.96C98.1673 236.466 100.447 235.683 101.953 234.09L99.7238 236.319Z" fill="#9CB2FF"/>
<path fill-rule="evenodd" clip-rule="evenodd" d="M149.505 236.14C148.672 236.998 147.592 237.635 146.344 237.926C142.862 238.725 139.405 236.556 138.585 233.097C138.071 230.87 138.776 228.647 140.258 227.124L142.487 224.895C141.005 226.417 140.301 228.64 140.814 230.868C141.635 234.326 145.092 236.496 148.573 235.696C149.822 235.405 150.902 234.769 151.735 233.911L149.505 236.14Z" fill="#9CB2FF"/>
<path fill-rule="evenodd" clip-rule="evenodd" d="M140.256 227.124C141.089 226.268 142.169 225.633 143.417 225.343C146.906 224.535 150.372 226.69 151.166 230.172C151.685 232.393 150.985 234.616 149.504 236.14L151.733 233.911C153.214 232.386 153.915 230.163 153.396 227.943C152.601 224.46 149.135 222.305 145.646 223.114C144.399 223.403 143.319 224.038 142.485 224.895L140.256 227.124Z" fill="#9CB2FF"/>
<path fill-rule="evenodd" clip-rule="evenodd" d="M66.7988 219.435C68.6617 217.473 71.6366 216.825 74.2241 218.038C77.456 219.552 78.8392 223.393 77.33 226.628C77.0268 227.273 76.6306 227.844 76.1649 228.333L78.3944 226.103C78.86 225.614 79.2562 225.043 79.5595 224.399C81.0686 221.164 79.6854 217.323 76.4535 215.808C73.866 214.595 70.8911 215.244 69.0283 217.206L66.7988 219.435Z" fill="#9CB2FF"/>
<path fill-rule="evenodd" clip-rule="evenodd" d="M76.1657 228.333C74.3032 230.29 71.3298 230.938 68.7496 229.732C65.5175 228.22 64.1249 224.376 65.6344 221.144C65.9377 220.498 66.3339 219.926 66.7996 219.435L69.0291 217.206C68.5634 217.696 68.1672 218.269 67.8639 218.915C66.3543 222.147 67.747 225.991 70.9791 227.503C73.5593 228.708 76.5326 228.061 78.3952 226.104L76.1657 228.333Z" fill="#9CB2FF"/>
<path fill-rule="evenodd" clip-rule="evenodd" d="M172.646 228.043C172.129 228.575 171.511 229.027 170.803 229.367C167.589 230.897 163.725 229.535 162.191 226.317C160.992 223.808 161.56 220.909 163.396 219.028L165.626 216.798C163.789 218.68 163.221 221.579 164.42 224.087C165.955 227.306 169.819 228.668 173.032 227.138C173.74 226.798 174.359 226.346 174.876 225.814L172.646 228.043Z" fill="#9CB2FF"/>
<path fill-rule="evenodd" clip-rule="evenodd" d="M163.395 219.028C163.913 218.497 164.531 218.047 165.24 217.71C168.462 216.169 172.306 217.532 173.843 220.75C175.044 223.262 174.479 226.157 172.645 228.043L174.874 225.814C176.708 223.928 177.274 221.032 176.073 218.521C174.536 215.303 170.692 213.94 167.469 215.481C166.761 215.818 166.142 216.267 165.624 216.798L163.395 219.028Z" fill="#9CB2FF"/>
<path fill-rule="evenodd" clip-rule="evenodd" d="M44.9873 205.977C47.2552 203.607 50.9966 203.292 53.6387 205.366C56.4448 207.56 56.9323 211.624 54.731 214.433C54.5984 214.601 54.4591 214.761 54.3138 214.912L56.5433 212.683C56.6885 212.531 56.8278 212.371 56.9604 212.203C59.1617 209.395 58.6742 205.331 55.8681 203.136C53.2261 201.062 49.4846 201.377 47.2167 203.748L44.9873 205.977Z" fill="#9CB2FF"/>
<path fill-rule="evenodd" clip-rule="evenodd" d="M54.3134 214.912C52.038 217.285 48.2977 217.59 45.6643 215.525C42.8675 213.316 42.3724 209.269 44.5713 206.456C44.7034 206.289 44.8421 206.129 44.9869 205.977L47.2163 203.748C47.0716 203.899 46.9328 204.059 46.8007 204.227C44.6018 207.039 45.097 211.087 47.8938 213.296C50.5271 215.361 54.2674 215.056 56.5429 212.683L54.3134 214.912Z" fill="#9CB2FF"/>
<path fill-rule="evenodd" clip-rule="evenodd" d="M186.875 203.957C189.635 201.694 193.699 202.104 195.964 204.855C198.042 207.394 197.868 211.045 195.679 213.372L197.908 211.142C200.097 208.815 200.272 205.165 198.194 202.625C195.928 199.874 191.865 199.465 189.104 201.728L186.875 203.957Z" fill="#9CB2FF"/>
<path fill-rule="evenodd" clip-rule="evenodd" d="M195.679 213.372C195.489 213.574 195.283 213.766 195.062 213.947L197.292 211.718C197.513 211.537 197.718 211.345 197.908 211.142L195.679 213.372Z" fill="#9CB2FF"/>
<path fill-rule="evenodd" clip-rule="evenodd" d="M195.063 213.947C192.305 216.205 188.24 215.797 185.973 213.046C183.899 210.513 184.07 206.863 186.259 204.533L188.488 202.304C186.3 204.634 186.128 208.284 188.202 210.817C190.47 213.568 194.534 213.976 197.292 211.718L195.063 213.947Z" fill="#9CB2FF"/>
<path fill-rule="evenodd" clip-rule="evenodd" d="M186.258 204.533C186.448 204.331 186.654 204.138 186.874 203.957L189.104 201.728C188.883 201.909 188.678 202.101 188.487 202.304L186.258 204.533Z" fill="#9CB2FF"/>
<path fill-rule="evenodd" clip-rule="evenodd" d="M27.9541 188.215C30.7098 185.959 34.778 186.36 37.0434 189.119C39.1211 191.652 38.9498 195.299 36.7561 197.627L38.9856 195.398C41.1792 193.07 41.3506 189.422 39.2728 186.889C37.0074 184.131 32.9392 183.73 30.1835 185.986L27.9541 188.215Z" fill="#9CB2FF"/>
<path fill-rule="evenodd" clip-rule="evenodd" d="M36.7566 197.627C36.5659 197.83 36.3599 198.022 36.1387 198.203L38.3681 195.973C38.5893 195.793 38.7953 195.6 38.9861 195.398L36.7566 197.627Z" fill="#9CB2FF"/>
<path fill-rule="evenodd" clip-rule="evenodd" d="M36.1371 198.203C33.3791 200.466 29.3224 200.06 27.057 197.307C24.975 194.771 25.148 191.125 27.3365 188.792L29.566 186.563C27.3774 188.896 27.2044 192.542 29.2864 195.077C31.5519 197.831 35.6085 198.236 38.3665 195.973L36.1371 198.203Z" fill="#9CB2FF"/>
<path fill-rule="evenodd" clip-rule="evenodd" d="M27.3369 188.792C27.5272 188.59 27.7328 188.397 27.9534 188.215L30.1828 185.986C29.9622 186.167 29.7567 186.36 29.5663 186.563L27.3369 188.792Z" fill="#9CB2FF"/>
<path fill-rule="evenodd" clip-rule="evenodd" d="M203.549 186.883C205.811 184.508 209.556 184.202 212.196 186.271C215 188.479 215.491 192.536 213.289 195.339C213.157 195.507 213.017 195.667 212.872 195.818L215.102 193.589C215.247 193.438 215.386 193.278 215.519 193.11C217.72 190.306 217.229 186.25 214.425 184.041C211.785 181.972 208.041 182.279 205.778 184.654L203.549 186.883Z" fill="#9CB2FF"/>
<path fill-rule="evenodd" clip-rule="evenodd" d="M212.872 195.818C210.598 198.19 206.857 198.502 204.222 196.43C201.418 194.238 200.921 190.169 203.134 187.363C203.266 187.195 203.404 187.035 203.548 186.883L205.778 184.654C205.633 184.805 205.495 184.965 205.363 185.134C203.151 187.94 203.647 192.009 206.451 194.201C209.087 196.272 212.828 195.961 215.101 193.589L212.872 195.818Z" fill="#9CB2FF"/>
<path fill-rule="evenodd" clip-rule="evenodd" d="M22.0925 174.768C21.5748 175.299 20.9563 175.749 20.2483 176.086C17.0321 177.628 13.1856 176.265 11.6416 173.049C10.4463 170.535 11.0099 167.638 12.8441 165.753L15.0735 163.523C13.2393 165.408 12.6757 168.305 13.871 170.819C15.415 174.035 19.2616 175.398 22.4777 173.856C23.1858 173.519 23.8042 173.07 24.3219 172.539L22.0925 174.768Z" fill="#9CB2FF"/>
<path fill-rule="evenodd" clip-rule="evenodd" d="M12.8438 165.753C13.3611 165.221 13.9795 164.77 14.688 164.431C17.9064 162.896 21.7576 164.259 23.2993 167.478C24.4963 169.986 23.9276 172.886 22.0922 174.768L24.3216 172.539C26.157 170.657 26.7258 167.757 25.5287 165.248C23.987 162.03 20.1358 160.667 16.9174 162.202C16.2089 162.541 15.5905 162.992 15.0732 163.523L12.8438 165.753Z" fill="#9CB2FF"/>
<path fill-rule="evenodd" clip-rule="evenodd" d="M216.964 165.067C218.825 163.102 221.798 162.458 224.383 163.67C227.606 165.178 229.005 169.026 227.496 172.251C227.192 172.898 226.796 173.471 226.329 173.961L228.559 171.732C229.025 171.241 229.422 170.668 229.725 170.022C231.235 166.796 229.836 162.949 226.613 161.441C224.027 160.228 221.054 160.873 219.193 162.837L216.964 165.067Z" fill="#9CB2FF"/>
<path fill-rule="evenodd" clip-rule="evenodd" d="M226.328 173.961C224.463 175.924 221.486 176.573 218.903 175.361C215.67 173.853 214.285 170.007 215.799 166.779C216.102 166.131 216.497 165.558 216.963 165.067L219.192 162.837C218.727 163.328 218.331 163.902 218.028 164.55C216.514 167.778 217.9 171.623 221.132 173.131C223.716 174.344 226.693 173.695 228.557 171.732L226.328 173.961Z" fill="#9CB2FF"/>
<path fill-rule="evenodd" clip-rule="evenodd" d="M14.0024 151.629C13.169 152.483 12.0891 153.116 10.8407 153.401C7.35433 154.22 3.89256 152.057 3.08618 148.584C2.57308 146.36 3.2722 144.139 4.75119 142.615L6.98063 140.385C5.50164 141.91 4.80251 144.131 5.31562 146.355C6.122 149.827 9.58377 151.99 13.0701 151.172C14.3186 150.886 15.3984 150.254 16.2318 149.399L14.0024 151.629Z" fill="#9CB2FF"/>
<path fill-rule="evenodd" clip-rule="evenodd" d="M4.75098 142.615C5.58291 141.757 6.66159 141.12 7.91007 140.827C11.3918 140.028 14.8582 142.19 15.6715 145.668C16.186 147.889 15.4836 150.11 14.0021 151.629L16.2316 149.399C17.7131 147.88 18.4155 145.659 17.9009 143.439C17.0876 139.961 13.6212 137.799 10.1395 138.598C8.89103 138.891 7.81234 139.528 6.98041 140.385L4.75098 142.615Z" fill="#9CB2FF"/>
<path fill-rule="evenodd" clip-rule="evenodd" d="M224.954 141.534C226.461 139.939 228.745 139.157 231.042 139.666C234.522 140.437 236.719 143.882 235.954 147.368C235.69 148.553 235.118 149.588 234.342 150.408L236.572 148.179C237.348 147.359 237.919 146.323 238.183 145.139C238.948 141.652 236.751 138.207 233.272 137.437C230.974 136.928 228.691 137.709 227.184 139.305L224.954 141.534Z" fill="#9CB2FF"/>
<path fill-rule="evenodd" clip-rule="evenodd" d="M234.343 150.408C232.836 152 230.558 152.782 228.257 152.274C224.773 151.51 222.581 148.057 223.347 144.583C223.607 143.394 224.178 142.356 224.955 141.534L227.184 139.305C226.408 140.127 225.837 141.165 225.576 142.353C224.811 145.828 227.003 149.28 230.487 150.045C232.788 150.553 235.066 149.771 236.572 148.179L234.343 150.408Z" fill="#9CB2FF"/>
<path fill-rule="evenodd" clip-rule="evenodd" d="M11.1593 126.044C9.98275 127.295 8.31209 128.075 6.4575 128.075C2.88178 128.075 7.1597e-05 125.187 0 121.623C0 119.837 0.721004 118.223 1.88869 117.055L4.11813 114.825C2.95044 115.993 2.22944 117.608 2.22944 119.394C2.22951 122.958 5.11121 125.846 8.68693 125.846C10.5415 125.846 12.2122 125.066 13.3887 123.815L11.1593 126.044Z" fill="#9CB2FF"/>
<path fill-rule="evenodd" clip-rule="evenodd" d="M1.88867 117.055C3.05636 115.887 4.67074 115.165 6.45748 115.165C10.0264 115.165 12.9104 118.054 12.9104 121.623C12.9103 123.335 12.2453 124.89 11.1593 126.044L13.3887 123.815C14.4747 122.66 15.1398 121.105 15.1398 119.394C15.1398 115.824 12.2558 112.936 8.68691 112.936C6.90017 112.936 5.2858 113.657 4.11811 114.825L1.88867 117.055Z" fill="#9CB2FF"/>
<path fill-rule="evenodd" clip-rule="evenodd" d="M237.009 126.044C235.831 127.295 234.16 128.075 232.311 128.075C228.734 128.075 225.853 125.187 225.853 121.623C225.853 119.837 226.573 118.223 227.74 117.055L229.97 114.825C228.802 115.993 228.082 117.608 228.082 119.394C228.082 122.958 230.964 125.846 234.54 125.846C236.39 125.846 238.061 125.066 239.238 123.815L237.009 126.044Z" fill="#9CB2FF"/>
<path fill-rule="evenodd" clip-rule="evenodd" d="M227.74 117.055C228.908 115.887 230.522 115.165 232.31 115.165C235.87 115.165 238.763 118.054 238.763 121.623C238.763 123.335 238.096 124.89 237.009 126.044L239.238 123.815C240.325 122.66 240.992 121.105 240.992 119.394C240.992 115.824 238.099 112.936 234.54 112.936C232.752 112.936 231.137 113.657 229.97 114.825L227.74 117.055Z" fill="#9CB2FF"/>
<path fill-rule="evenodd" clip-rule="evenodd" d="M4.40918 92.8331C5.9172 91.2409 8.20086 90.4561 10.5034 90.9592C13.9852 91.7316 16.1818 95.1793 15.419 98.6586C15.1542 99.8432 14.5815 100.879 13.804 101.7L16.0334 99.4706C16.8109 98.6495 17.3836 97.6137 17.6485 96.4292C18.4112 92.9499 16.2147 89.5022 12.7328 88.7297C10.4303 88.2267 8.14663 89.0115 6.63862 90.6036L4.40918 92.8331Z" fill="#9CB2FF"/>
<path fill-rule="evenodd" clip-rule="evenodd" d="M13.8046 101.7C12.2953 103.294 10.0145 104.079 7.71662 103.574C4.23247 102.8 2.03279 99.3499 2.80017 95.8706C3.06187 94.6877 3.63289 93.6533 4.40975 92.8331L6.63918 90.6036C5.86232 91.4238 5.29131 92.4582 5.0296 93.6412C4.26223 97.1205 6.46191 100.571 9.94605 101.345C12.244 101.85 14.5248 101.065 16.034 99.4706L13.8046 101.7Z" fill="#9CB2FF"/>
<path fill-rule="evenodd" clip-rule="evenodd" d="M234.016 100.625C233.183 101.482 232.103 102.116 230.852 102.406C227.373 103.212 223.907 101.049 223.103 97.5748C222.584 95.3491 223.285 93.1286 224.769 91.6062L226.998 89.3768C225.515 90.8991 224.813 93.1197 225.332 95.3454C226.136 98.8199 229.602 100.983 233.081 100.176C234.332 99.887 235.413 99.2523 236.246 98.396L234.016 100.625Z" fill="#9CB2FF"/>
<path fill-rule="evenodd" clip-rule="evenodd" d="M224.77 91.6062C225.604 90.7499 226.686 90.1145 227.937 89.8233C231.4 89.0122 234.875 91.1862 235.677 94.652C236.196 96.8803 235.498 99.103 234.017 100.625L236.247 98.3959C237.727 96.8736 238.425 94.6508 237.906 92.4226C237.104 88.9567 233.63 86.7828 230.166 87.5939C228.915 87.885 227.833 88.5204 226.999 89.3767L224.77 91.6062Z" fill="#9CB2FF"/>
<path fill-rule="evenodd" clip-rule="evenodd" d="M12.4297 69.2732C14.2951 67.3116 17.2728 66.6629 19.8548 67.8759C23.0846 69.3855 24.4748 73.2319 22.9607 76.4596C22.6579 77.1055 22.262 77.6779 21.7965 78.1683L24.0259 75.9389C24.4914 75.4485 24.8873 74.876 25.1901 74.2301C26.7043 71.0025 25.3141 67.156 22.0842 65.6465C19.5023 64.4335 16.5246 65.0822 14.6591 67.0437L12.4297 69.2732Z" fill="#9CB2FF"/>
<path fill-rule="evenodd" clip-rule="evenodd" d="M21.7958 78.1683C19.934 80.1299 16.9596 80.7786 14.3795 79.5655C11.1473 78.0606 9.75242 74.2141 11.262 70.9819C11.5657 70.336 11.9626 69.7636 12.4289 69.2732L14.6584 67.0438C14.192 67.5341 13.7952 68.1066 13.4914 68.7525C11.9819 71.9847 13.3767 75.8311 16.6089 77.3361C19.189 78.5492 22.1634 77.9005 24.0252 75.9389L21.7958 78.1683Z" fill="#9CB2FF"/>
<path fill-rule="evenodd" clip-rule="evenodd" d="M225.915 77.4868C225.398 78.018 224.779 78.4687 224.072 78.8073C220.856 80.3443 217.004 78.9744 215.471 75.7606C214.272 73.2466 214.838 70.3524 216.671 68.4711L218.901 66.2417C217.068 68.1229 216.501 71.0172 217.7 73.5311C219.233 76.7449 223.085 78.1149 226.301 76.5779C227.009 76.2392 227.627 75.7886 228.144 75.2573L225.915 77.4868Z" fill="#9CB2FF"/>
<path fill-rule="evenodd" clip-rule="evenodd" d="M216.671 68.4711C217.188 67.9405 217.806 67.4905 218.513 67.1524C221.724 65.6132 225.588 66.9761 227.119 70.1922C228.317 72.7061 227.749 75.6032 225.915 77.4868L228.144 75.2573C229.978 73.3738 230.546 70.4766 229.348 67.9627C227.817 64.7467 223.953 63.3837 220.742 64.9229C220.035 65.2611 219.417 65.7111 218.9 66.2417L216.671 68.4711Z" fill="#9CB2FF"/>
<path fill-rule="evenodd" clip-rule="evenodd" d="M25.8945 47.4172C28.1627 45.044 31.9073 44.735 34.5428 46.8085C37.3512 49.0052 37.8372 53.0647 35.6313 55.8801C35.499 56.0482 35.3602 56.2079 35.2153 56.3593L37.4447 54.1298C37.5896 53.9785 37.7285 53.8187 37.8607 53.6506C40.0666 50.8353 39.5806 46.7757 36.7722 44.579C34.1367 42.5056 30.3922 42.8145 28.124 45.1878L25.8945 47.4172Z" fill="#9CB2FF"/>
<path fill-rule="evenodd" clip-rule="evenodd" d="M35.2148 56.3593C32.9453 58.7303 29.2063 59.037 26.5708 56.9677C23.7624 54.764 23.2726 50.7052 25.4784 47.8968C25.6105 47.7286 25.7493 47.5687 25.8941 47.4172L28.1235 45.1878C27.9787 45.3393 27.8399 45.4992 27.7079 45.6674C25.502 48.4758 25.9919 52.5346 28.8002 54.7382C31.4357 56.8075 35.1747 56.5009 37.4443 54.1298L35.2148 56.3593Z" fill="#9CB2FF"/>
<path fill-rule="evenodd" clip-rule="evenodd" d="M202.618 45.0334C205.385 42.7726 209.447 43.1777 211.705 45.9309C213.791 48.4746 213.613 52.1162 211.425 54.4485L213.654 52.2191C215.842 49.8868 216.021 46.2452 213.934 43.7015C211.676 40.9483 207.614 40.5431 204.848 42.8039L202.618 45.0334Z" fill="#9CB2FF"/>
<path fill-rule="evenodd" clip-rule="evenodd" d="M211.425 54.4485C211.234 54.6513 211.029 54.8442 210.809 55.0256L213.038 52.7962C213.258 52.6148 213.464 52.4219 213.654 52.2191L211.425 54.4485Z" fill="#9CB2FF"/>
<path fill-rule="evenodd" clip-rule="evenodd" d="M210.809 55.0256C208.048 57.2815 203.98 56.8783 201.722 54.1227C199.595 51.5237 199.829 47.7833 202.149 45.4602L204.378 43.2308C202.059 45.5538 201.824 49.2943 203.952 51.8933C206.21 54.6488 210.278 55.0521 213.038 52.7962L210.809 55.0256Z" fill="#9CB2FF"/>
<path fill-rule="evenodd" clip-rule="evenodd" d="M202.147 45.4602C202.296 45.312 202.452 45.1695 202.617 45.0334L204.846 42.804C204.681 42.94 204.525 43.0825 204.377 43.2308L202.147 45.4602Z" fill="#9CB2FF"/>
<path fill-rule="evenodd" clip-rule="evenodd" d="M43.6865 29.2941C46.4468 27.0264 50.5218 27.4338 52.7804 30.1894C54.8647 32.7267 54.6866 36.3775 52.4972 38.7077L54.7266 36.4783C56.9161 34.148 57.0942 30.4972 55.0099 27.9599C52.7513 25.2043 48.6762 24.797 45.916 27.0646L43.6865 29.2941Z" fill="#9CB2FF"/>
<path fill-rule="evenodd" clip-rule="evenodd" d="M52.4984 38.7078C52.3081 38.9104 52.1025 39.103 51.8818 39.2841L54.1113 37.0547C54.3319 36.8736 54.5375 36.681 54.7279 36.4783L52.4984 38.7078Z" fill="#9CB2FF"/>
<path fill-rule="evenodd" clip-rule="evenodd" d="M51.8803 39.2841C49.1155 41.5427 45.0512 41.1414 42.7925 38.3788C40.7106 35.8373 40.8835 32.1907 43.0703 29.8683L45.2997 27.6389C43.113 29.9612 42.94 33.6078 45.022 36.1493C47.2806 38.9119 51.3449 39.3132 54.1097 37.0546L51.8803 39.2841Z" fill="#9CB2FF"/>
<path fill-rule="evenodd" clip-rule="evenodd" d="M43.0703 29.8683C43.2605 29.6664 43.4658 29.4745 43.6863 29.2941L45.9157 27.0647C45.6953 27.245 45.4899 27.437 45.2997 27.6389L43.0703 29.8683Z" fill="#9CB2FF"/>
<path fill-rule="evenodd" clip-rule="evenodd" d="M184.449 28.3265C186.721 25.9533 190.462 25.6441 193.092 27.7153C195.896 29.919 196.391 33.9716 194.189 36.7823C194.057 36.9503 193.918 37.1099 193.773 37.2611L196.003 35.0317C196.148 34.8805 196.287 34.7208 196.419 34.5529C198.62 31.7422 198.125 27.6896 195.322 25.4859C192.692 23.4147 188.95 23.7238 186.679 26.0971L184.449 28.3265Z" fill="#9CB2FF"/>
<path fill-rule="evenodd" clip-rule="evenodd" d="M193.774 37.2611C191.505 39.6306 187.763 39.9394 185.119 37.8723C182.318 35.6686 181.825 31.6121 184.034 28.8061C184.166 28.6379 184.305 28.478 184.45 28.3265L186.68 26.097C186.535 26.2485 186.396 26.4084 186.263 26.5766C184.055 29.3827 184.547 33.4391 187.349 35.6429C189.992 37.71 193.734 37.4012 196.004 35.0317L193.774 37.2611Z" fill="#9CB2FF"/>
<path fill-rule="evenodd" clip-rule="evenodd" d="M75.3608 24.212C74.8433 24.7431 74.2251 25.1937 73.5176 25.5323C70.2968 27.0762 66.4465 25.7086 64.914 22.4856C63.7117 19.9753 64.2763 17.079 66.1113 15.1967L68.3408 12.9672C66.5057 14.8495 65.9411 17.7458 67.1434 20.2561C68.6759 23.4791 72.5263 24.8468 75.747 23.3029C76.4545 22.9642 77.0727 22.5137 77.5903 21.9826L75.3608 24.212Z" fill="#9CB2FF"/>
<path fill-rule="evenodd" clip-rule="evenodd" d="M66.1113 15.1966C66.6289 14.6657 67.2475 14.2155 67.9561 13.8773C71.1699 12.3382 75.0342 13.7103 76.5666 16.9194C77.7655 19.4334 77.1957 22.3291 75.3608 24.212L77.5902 21.9826C79.4252 20.0996 79.9949 17.2039 78.796 14.69C77.2636 11.4809 73.3993 10.1088 70.1855 11.6479C69.477 11.9861 68.8583 12.4363 68.3408 12.9672L66.1113 15.1966Z" fill="#9CB2FF"/>
<path fill-rule="evenodd" clip-rule="evenodd" d="M162.594 14.9082C164.458 12.9467 167.435 12.2984 170.013 13.5133C173.251 15.0229 174.639 18.8625 173.122 22.0923C172.819 22.7391 172.423 23.3123 171.958 23.8033L174.187 21.5739C174.652 21.0829 175.048 20.5097 175.351 19.8628C176.868 16.6331 175.48 12.7935 172.243 11.2839C169.665 10.0689 166.688 10.7172 164.823 12.6788L162.594 14.9082Z" fill="#9CB2FF"/>
<path fill-rule="evenodd" clip-rule="evenodd" d="M171.957 23.8033C170.096 25.7672 167.125 26.4155 164.535 25.2005C161.311 23.6886 159.92 19.8444 161.427 16.6169C161.731 15.971 162.127 15.3985 162.593 14.9081L164.823 12.6787C164.357 13.1691 163.96 13.7416 163.657 14.3875C162.15 17.615 163.54 21.4591 166.765 22.9711C169.355 24.1861 172.325 23.5377 174.187 21.5738L171.957 23.8033Z" fill="#9CB2FF"/>
<path fill-rule="evenodd" clip-rule="evenodd" d="M98.5045 16.118C97.67 16.9746 96.5879 17.6099 95.336 17.9002C91.8591 18.7063 88.3932 16.5462 87.5892 13.0692C87.0716 10.8437 87.7728 8.62367 89.2552 7.10108L91.4847 4.87164C90.0023 6.39423 89.3011 8.61428 89.8187 10.8398C90.6227 14.3167 94.0885 16.4769 97.5654 15.6708C98.8174 15.3805 99.8995 14.7451 100.734 13.8886L98.5045 16.118Z" fill="#9CB2FF"/>
<path fill-rule="evenodd" clip-rule="evenodd" d="M89.2549 7.1011C90.0887 6.24464 91.1697 5.60887 92.42 5.31694C95.8921 4.51071 99.3674 6.67552 100.171 10.1479C100.689 12.3734 99.9878 14.5953 98.5042 16.1181L100.734 13.8886C102.217 12.3659 102.918 10.144 102.401 7.91851C101.597 4.44608 98.1216 2.28127 94.6494 3.08751C93.3991 3.37943 92.3181 4.01521 91.4843 4.87166L89.2549 7.1011Z" fill="#9CB2FF"/>
<path fill-rule="evenodd" clip-rule="evenodd" d="M139.033 6.91611C140.542 5.32394 142.826 4.53946 145.119 5.04442C148.603 5.8096 150.804 9.2549 150.035 12.7389C149.771 13.9227 149.199 14.9591 148.422 15.781L150.651 13.5515C151.428 12.7296 152.001 11.6933 152.265 10.5095C153.034 7.02547 150.832 3.58016 147.348 2.81498C145.055 2.31002 142.772 3.0945 141.263 4.68668L139.033 6.91611Z" fill="#9CB2FF"/>
<path fill-rule="evenodd" clip-rule="evenodd" d="M148.421 15.781C146.913 17.3765 144.634 18.1641 142.342 17.6546C138.851 16.8804 136.659 13.4426 137.422 9.95396C137.684 8.77091 138.255 7.73635 139.033 6.91614L141.262 4.68671C140.485 5.50692 139.913 6.54148 139.651 7.72453C138.888 11.2132 141.081 14.651 144.572 15.4252C146.864 15.9347 149.143 15.1471 150.651 13.5516L148.421 15.781Z" fill="#9CB2FF"/>
<path fill-rule="evenodd" clip-rule="evenodd" d="M124.083 13.1136C122.905 14.3635 121.233 15.1421 119.377 15.1421C115.82 15.1421 112.92 12.2604 112.92 8.68924C112.92 6.97947 113.589 5.42273 114.677 4.26606L116.907 2.03662C115.818 3.1933 115.149 4.75003 115.149 6.4598C115.149 10.031 118.049 12.9127 121.607 12.9127C123.462 12.9127 125.134 12.1341 126.312 10.8842L124.083 13.1136Z" fill="#9CB2FF"/>
<path fill-rule="evenodd" clip-rule="evenodd" d="M114.679 4.26606C115.858 3.013 117.53 2.22944 119.379 2.22944C122.95 2.22946 125.837 5.12952 125.837 8.68924C125.837 10.4045 125.171 11.9598 124.084 13.1136L126.314 10.8842C127.4 9.73041 128.066 8.17506 128.066 6.45981C128.066 2.90009 125.18 1.9535e-05 121.608 0C119.76 0 118.087 0.783561 116.908 2.03663L114.679 4.26606Z" fill="#9CB2FF"/>
<mask id="path-125-inside-1_279_13827" fill="white">
<path d="M119.378 228.092C122.949 228.092 125.836 230.976 125.836 234.543C125.836 238.113 122.947 241 119.378 241C115.82 241 112.921 238.111 112.921 234.543C112.921 230.976 115.823 228.092 119.378 228.092ZM88.725 230.49C89.4927 227.009 92.9405 224.814 96.4244 225.583C99.9061 226.348 102.104 229.798 101.334 233.278C100.562 236.764 97.1236 238.956 93.6396 238.189C90.158 237.426 87.958 233.982 88.725 230.49ZM143.418 225.343C146.907 224.535 150.373 226.69 151.167 230.172C151.978 233.642 149.811 237.117 146.343 237.926C142.862 238.725 139.404 236.556 138.584 233.097C137.782 229.617 139.952 226.147 143.418 225.343ZM65.635 221.144C67.1514 217.914 70.991 216.521 74.2255 218.038C77.4574 219.552 78.8406 223.393 77.3314 226.628C75.815 229.85 71.9755 231.239 68.7502 229.732C65.5181 228.22 64.1255 224.376 65.635 221.144ZM165.241 217.71C168.463 216.169 172.308 217.532 173.845 220.75C175.384 223.97 174.02 227.821 170.802 229.367C167.588 230.897 163.725 229.535 162.19 226.317C160.653 223.101 162.02 219.242 165.241 217.71ZM44.5713 206.456C46.7727 203.657 50.8276 203.159 53.6383 205.366C56.4444 207.56 56.9319 211.624 54.7306 214.433C52.52 217.236 48.4658 217.722 45.6643 215.525C42.8675 213.316 42.3724 209.269 44.5713 206.456ZM186.875 203.957C189.635 201.694 193.699 202.104 195.964 204.855C198.223 207.615 197.82 211.688 195.062 213.947C192.304 216.205 188.24 215.797 185.972 213.046C183.718 210.293 184.117 206.22 186.875 203.957ZM27.9538 188.215C30.7094 185.959 34.7777 186.36 37.043 189.118C39.3015 191.872 38.9026 195.942 36.1378 198.203C33.3798 200.466 29.3232 200.06 27.0577 197.307C24.7947 194.551 25.1958 190.483 27.9538 188.215ZM203.135 187.363C205.329 184.557 209.388 184.07 212.196 186.271C215 188.479 215.491 192.535 213.289 195.339C211.081 198.141 207.026 198.634 204.222 196.43C201.419 194.238 200.922 190.169 203.135 187.363ZM14.6885 164.431C17.9069 162.896 21.7581 164.259 23.2998 167.478C24.8345 170.694 23.4669 174.554 20.2485 176.086C17.0324 177.628 13.1858 176.265 11.6418 173.049C10.1094 169.826 11.468 165.973 14.6885 164.431ZM215.799 166.779C217.313 163.54 221.15 162.155 224.382 163.67C227.605 165.178 229.004 169.026 227.495 172.251C225.977 175.484 222.132 176.876 218.903 175.361C215.671 173.853 214.285 170.007 215.799 166.779ZM7.91007 140.827C11.3918 140.028 14.8582 142.19 15.6715 145.668C16.4755 149.138 14.3084 152.608 10.8405 153.401C7.35411 154.22 3.89234 152.057 3.08596 148.584C2.28423 145.109 4.44206 141.641 7.91007 140.827ZM223.347 144.583C224.114 141.087 227.562 138.895 231.043 139.666C234.523 140.436 236.72 143.882 235.955 147.368C235.178 150.852 231.744 153.044 228.258 152.274C224.774 151.51 222.582 148.057 223.347 144.583ZM6.4575 115.165C10.0264 115.165 12.9104 118.054 12.9104 121.623C12.9103 125.189 10.024 128.075 6.4575 128.075C2.88178 128.075 7.1597e-05 125.187 0 121.623C0 118.051 2.88402 115.165 6.4575 115.165ZM232.311 115.165C235.871 115.165 238.763 118.054 238.763 121.623C238.763 125.189 235.868 128.075 232.311 128.075C228.735 128.075 225.853 125.187 225.853 121.623C225.853 118.051 228.735 115.165 232.311 115.165ZM2.80038 95.8706C3.5701 92.3914 7.0155 90.1969 10.5041 90.9592C13.986 91.7316 16.1826 95.1794 15.4198 98.6586C14.6409 102.143 11.1985 104.339 7.71683 103.574C4.23268 102.8 2.033 99.3499 2.80038 95.8706ZM227.936 89.8233C231.4 89.0122 234.874 91.1862 235.676 94.652C236.487 98.1336 234.327 101.602 230.852 102.406C227.373 103.212 223.907 101.049 223.103 97.5748C222.292 94.0971 224.461 90.632 227.936 89.8233ZM11.2623 70.9819C12.7812 67.7523 16.627 66.3597 19.8544 67.8759C23.0842 69.3855 24.4745 73.2319 22.9603 76.4595C21.4461 79.6892 17.605 81.0818 14.3799 79.5655C11.1477 78.0605 9.7528 74.2141 11.2623 70.9819ZM218.514 67.1523C221.725 65.6132 225.589 66.9761 227.12 70.1922C228.656 73.4151 227.289 77.268 224.072 78.8073C220.856 80.3443 217.004 78.9743 215.471 75.7605C213.934 72.5375 215.299 68.6894 218.514 67.1523ZM25.479 47.8968C27.6803 45.0931 31.7391 44.6027 34.5429 46.8085C37.3512 49.0052 37.8373 53.0647 35.6313 55.8801C33.4277 58.6815 29.375 59.169 26.5713 56.9677C23.763 54.764 23.2731 50.7052 25.479 47.8968ZM202.618 45.0334C205.385 42.7725 209.447 43.1777 211.705 45.9309C213.973 48.6958 213.564 52.7578 210.809 55.0256C208.048 57.2815 203.98 56.8783 201.722 54.1227C199.459 51.3578 199.869 47.3011 202.618 45.0334ZM43.6868 29.2941C46.4471 27.0264 50.5221 27.4338 52.7807 30.1894C55.0463 32.9473 54.6388 37.0208 51.8809 39.2841C49.1161 41.5427 45.0518 41.1414 42.7931 38.3788C40.5301 35.6163 40.9312 31.5481 43.6868 29.2941ZM184.034 28.8061C186.24 26.0024 190.296 25.5119 193.093 27.7153C195.897 29.919 196.392 33.9716 194.19 36.7823C191.987 39.5815 187.932 40.0714 185.119 37.8723C182.318 35.6686 181.825 31.6121 184.034 28.8061ZM67.9566 13.8774C71.1703 12.3383 75.0347 13.7103 76.5671 16.9195C78.1041 20.1425 76.7341 23.9929 73.518 25.5323C70.2973 27.0762 66.447 25.7086 64.9145 22.4856C63.373 19.2672 64.7359 15.4144 67.9566 13.8774ZM161.428 16.617C162.944 13.3873 166.791 11.9946 170.013 13.5133C173.25 15.0229 174.638 18.8625 173.122 22.0923C171.605 25.3266 167.773 26.7193 164.536 25.2006C161.311 23.6886 159.92 19.8444 161.428 16.617ZM92.4202 5.31693C95.8924 4.51069 99.3677 6.6755 100.172 10.1479C100.98 13.6252 98.8136 17.0938 95.3359 17.9002C91.859 18.7063 88.3932 16.5462 87.5891 13.0692C86.7804 9.59189 88.9473 6.12784 92.4202 5.31693ZM137.423 9.95395C138.192 6.47439 141.645 4.27935 145.119 5.04444C148.603 5.80961 150.805 9.25492 150.035 12.7389C149.259 16.2208 145.816 18.4266 142.343 17.6546C138.852 16.8804 136.66 13.4426 137.423 9.95395ZM119.378 2.22943C122.949 2.22945 125.836 5.12952 125.836 8.68924C125.836 12.2627 122.947 15.1421 119.378 15.1421C115.82 15.1421 112.921 12.2604 112.921 8.68924C112.921 5.12722 115.823 2.22943 119.378 2.22943Z"/>
</mask>
<path d="M119.378 228.092C122.949 228.092 125.836 230.976 125.836 234.543C125.836 238.113 122.947 241 119.378 241C115.82 241 112.921 238.111 112.921 234.543C112.921 230.976 115.823 228.092 119.378 228.092ZM88.725 230.49C89.4927 227.009 92.9405 224.814 96.4244 225.583C99.9061 226.348 102.104 229.798 101.334 233.278C100.562 236.764 97.1236 238.956 93.6396 238.189C90.158 237.426 87.958 233.982 88.725 230.49ZM143.418 225.343C146.907 224.535 150.373 226.69 151.167 230.172C151.978 233.642 149.811 237.117 146.343 237.926C142.862 238.725 139.404 236.556 138.584 233.097C137.782 229.617 139.952 226.147 143.418 225.343ZM65.635 221.144C67.1514 217.914 70.991 216.521 74.2255 218.038C77.4574 219.552 78.8406 223.393 77.3314 226.628C75.815 229.85 71.9755 231.239 68.7502 229.732C65.5181 228.22 64.1255 224.376 65.635 221.144ZM165.241 217.71C168.463 216.169 172.308 217.532 173.845 220.75C175.384 223.97 174.02 227.821 170.802 229.367C167.588 230.897 163.725 229.535 162.19 226.317C160.653 223.101 162.02 219.242 165.241 217.71ZM44.5713 206.456C46.7727 203.657 50.8276 203.159 53.6383 205.366C56.4444 207.56 56.9319 211.624 54.7306 214.433C52.52 217.236 48.4658 217.722 45.6643 215.525C42.8675 213.316 42.3724 209.269 44.5713 206.456ZM186.875 203.957C189.635 201.694 193.699 202.104 195.964 204.855C198.223 207.615 197.82 211.688 195.062 213.947C192.304 216.205 188.24 215.797 185.972 213.046C183.718 210.293 184.117 206.22 186.875 203.957ZM27.9538 188.215C30.7094 185.959 34.7777 186.36 37.043 189.118C39.3015 191.872 38.9026 195.942 36.1378 198.203C33.3798 200.466 29.3232 200.06 27.0577 197.307C24.7947 194.551 25.1958 190.483 27.9538 188.215ZM203.135 187.363C205.329 184.557 209.388 184.07 212.196 186.271C215 188.479 215.491 192.535 213.289 195.339C211.081 198.141 207.026 198.634 204.222 196.43C201.419 194.238 200.922 190.169 203.135 187.363ZM14.6885 164.431C17.9069 162.896 21.7581 164.259 23.2998 167.478C24.8345 170.694 23.4669 174.554 20.2485 176.086C17.0324 177.628 13.1858 176.265 11.6418 173.049C10.1094 169.826 11.468 165.973 14.6885 164.431ZM215.799 166.779C217.313 163.54 221.15 162.155 224.382 163.67C227.605 165.178 229.004 169.026 227.495 172.251C225.977 175.484 222.132 176.876 218.903 175.361C215.671 173.853 214.285 170.007 215.799 166.779ZM7.91007 140.827C11.3918 140.028 14.8582 142.19 15.6715 145.668C16.4755 149.138 14.3084 152.608 10.8405 153.401C7.35411 154.22 3.89234 152.057 3.08596 148.584C2.28423 145.109 4.44206 141.641 7.91007 140.827ZM223.347 144.583C224.114 141.087 227.562 138.895 231.043 139.666C234.523 140.436 236.72 143.882 235.955 147.368C235.178 150.852 231.744 153.044 228.258 152.274C224.774 151.51 222.582 148.057 223.347 144.583ZM6.4575 115.165C10.0264 115.165 12.9104 118.054 12.9104 121.623C12.9103 125.189 10.024 128.075 6.4575 128.075C2.88178 128.075 7.1597e-05 125.187 0 121.623C0 118.051 2.88402 115.165 6.4575 115.165ZM232.311 115.165C235.871 115.165 238.763 118.054 238.763 121.623C238.763 125.189 235.868 128.075 232.311 128.075C228.735 128.075 225.853 125.187 225.853 121.623C225.853 118.051 228.735 115.165 232.311 115.165ZM2.80038 95.8706C3.5701 92.3914 7.0155 90.1969 10.5041 90.9592C13.986 91.7316 16.1826 95.1794 15.4198 98.6586C14.6409 102.143 11.1985 104.339 7.71683 103.574C4.23268 102.8 2.033 99.3499 2.80038 95.8706ZM227.936 89.8233C231.4 89.0122 234.874 91.1862 235.676 94.652C236.487 98.1336 234.327 101.602 230.852 102.406C227.373 103.212 223.907 101.049 223.103 97.5748C222.292 94.0971 224.461 90.632 227.936 89.8233ZM11.2623 70.9819C12.7812 67.7523 16.627 66.3597 19.8544 67.8759C23.0842 69.3855 24.4745 73.2319 22.9603 76.4595C21.4461 79.6892 17.605 81.0818 14.3799 79.5655C11.1477 78.0605 9.7528 74.2141 11.2623 70.9819ZM218.514 67.1523C221.725 65.6132 225.589 66.9761 227.12 70.1922C228.656 73.4151 227.289 77.268 224.072 78.8073C220.856 80.3443 217.004 78.9743 215.471 75.7605C213.934 72.5375 215.299 68.6894 218.514 67.1523ZM25.479 47.8968C27.6803 45.0931 31.7391 44.6027 34.5429 46.8085C37.3512 49.0052 37.8373 53.0647 35.6313 55.8801C33.4277 58.6815 29.375 59.169 26.5713 56.9677C23.763 54.764 23.2731 50.7052 25.479 47.8968ZM202.618 45.0334C205.385 42.7725 209.447 43.1777 211.705 45.9309C213.973 48.6958 213.564 52.7578 210.809 55.0256C208.048 57.2815 203.98 56.8783 201.722 54.1227C199.459 51.3578 199.869 47.3011 202.618 45.0334ZM43.6868 29.2941C46.4471 27.0264 50.5221 27.4338 52.7807 30.1894C55.0463 32.9473 54.6388 37.0208 51.8809 39.2841C49.1161 41.5427 45.0518 41.1414 42.7931 38.3788C40.5301 35.6163 40.9312 31.5481 43.6868 29.2941ZM184.034 28.8061C186.24 26.0024 190.296 25.5119 193.093 27.7153C195.897 29.919 196.392 33.9716 194.19 36.7823C191.987 39.5815 187.932 40.0714 185.119 37.8723C182.318 35.6686 181.825 31.6121 184.034 28.8061ZM67.9566 13.8774C71.1703 12.3383 75.0347 13.7103 76.5671 16.9195C78.1041 20.1425 76.7341 23.9929 73.518 25.5323C70.2973 27.0762 66.447 25.7086 64.9145 22.4856C63.373 19.2672 64.7359 15.4144 67.9566 13.8774ZM161.428 16.617C162.944 13.3873 166.791 11.9946 170.013 13.5133C173.25 15.0229 174.638 18.8625 173.122 22.0923C171.605 25.3266 167.773 26.7193 164.536 25.2006C161.311 23.6886 159.92 19.8444 161.428 16.617ZM92.4202 5.31693C95.8924 4.51069 99.3677 6.6755 100.172 10.1479C100.98 13.6252 98.8136 17.0938 95.3359 17.9002C91.859 18.7063 88.3932 16.5462 87.5891 13.0692C86.7804 9.59189 88.9473 6.12784 92.4202 5.31693ZM137.423 9.95395C138.192 6.47439 141.645 4.27935 145.119 5.04444C148.603 5.80961 150.805 9.25492 150.035 12.7389C149.259 16.2208 145.816 18.4266 142.343 17.6546C138.852 16.8804 136.66 13.4426 137.423 9.95395ZM119.378 2.22943C122.949 2.22945 125.836 5.12952 125.836 8.68924C125.836 12.2627 122.947 15.1421 119.378 15.1421C115.82 15.1421 112.921 12.2604 112.921 8.68924C112.921 5.12722 115.823 2.22943 119.378 2.22943Z" fill="white" stroke="#9CB2FF" stroke-width="4" mask="url(#path-125-inside-1_279_13827)"/>
<path d="M119.377 107.465C127.192 107.465 133.531 113.807 133.531 121.623C133.531 126.41 131.15 130.645 127.503 133.209L126.882 133.645L127.136 134.361L170.159 255.829H163.67L151.756 222.189L151.623 221.815L151.27 221.633L120.086 205.634L119.63 205.4L119.174 205.633L87.3779 221.943L87.0244 222.125L86.8916 222.499L75.0859 255.829H68.5967L111.623 134.361L111.877 133.646L111.256 133.21C107.609 130.646 105.227 126.41 105.227 121.623C105.227 113.807 111.567 107.466 119.377 107.465ZM96.6709 194.893L91.083 210.666L90.2422 213.038L92.4824 211.889L110.649 202.571L112.384 201.681L110.649 200.792L98.0693 194.337L97.0527 193.815L96.6709 194.893ZM140.766 194.558L128.608 200.795L126.874 201.684L128.608 202.575L146.166 211.583L148.405 212.731L147.564 210.359L142.165 195.114L141.783 194.037L140.766 194.558ZM120.359 135.741C120.033 135.763 119.705 135.775 119.377 135.775C119.051 135.775 118.725 135.763 118.399 135.741L117.643 135.689L117.389 136.405L99.5723 186.702L99.2803 187.526L100.058 187.925L119.171 197.731L119.628 197.965L120.084 197.732L138.776 188.143L139.555 187.745L139.263 186.92L121.371 136.405L121.117 135.689L120.359 135.741Z" fill="white" stroke="#9CB2FF" stroke-width="2"/>
</svg>
