<svg width="800" height="800" viewBox="0 0 800 800" fill="none" xmlns="http://www.w3.org/2000/svg">
<rect width="800" height="800" fill="white"/>
<path fill-rule="evenodd" clip-rule="evenodd" d="M477.781 509.551C478.236 520.185 473.18 531.849 462.189 542.84C436.021 569.008 386.118 581.451 350.728 570.631C330.201 564.355 319.065 551.632 318.438 536.947V558.389C319.065 573.075 330.201 585.798 350.728 592.073C386.118 602.893 436.021 590.451 462.189 564.283C473.18 553.292 478.236 541.628 477.781 530.993V509.551Z" fill="#102775" stroke="#102775" stroke-width="4"/>
<path fill-rule="evenodd" clip-rule="evenodd" d="M318.436 536.95C317.982 526.316 323.038 514.652 334.028 503.661C360.197 477.493 410.1 465.051 445.49 475.871C466.017 482.146 477.153 494.869 477.78 509.554V530.997C477.153 516.311 466.017 503.589 445.49 497.313C410.1 486.493 360.197 498.935 334.028 525.104C323.038 536.094 317.982 547.758 318.436 558.393V536.95Z" fill="#6580E1" fill-opacity="0.6"/>
<path d="M445.49 475.871C480.881 486.691 488.357 516.675 462.188 542.844C436.02 569.012 386.117 581.454 350.726 570.634C315.336 559.814 307.86 529.829 334.028 503.661C360.197 477.493 410.1 465.051 445.49 475.871Z" fill="#FFBC5E" stroke="#102775" stroke-width="4"/>
<path d="M419.402 502.333C435.388 507.185 438.765 520.632 426.945 532.368C415.125 544.104 392.584 549.684 376.598 544.831C360.612 539.979 357.235 526.532 369.055 514.796C380.876 503.06 403.416 497.48 419.402 502.333Z" fill="#102775" stroke="#102775" stroke-width="4"/>
<path fill-rule="evenodd" clip-rule="evenodd" d="M389.744 519.663C394.262 515.162 507.211 402.011 507.211 340.126C507.211 276.979 454.557 225.787 389.605 225.787C357.129 225.787 327.728 238.585 306.445 259.276L327.235 238.486C348.518 217.795 377.919 204.997 410.395 204.997C475.347 204.997 528.001 256.189 528.001 319.336C528.001 381.221 415.052 494.372 410.534 498.874L389.744 519.663Z" fill="#102775" stroke="#102775" stroke-width="4"/>
<path fill-rule="evenodd" clip-rule="evenodd" d="M306.446 259.275C285.164 279.967 272 308.551 272 340.125C272 403.273 389.606 519.801 389.606 519.801C389.606 519.801 389.653 519.754 389.745 519.663L410.535 498.873C410.443 498.965 410.396 499.011 410.396 499.011C410.396 499.011 292.79 382.483 292.79 319.335C292.79 287.762 305.953 259.177 327.236 238.486L306.446 259.275Z" fill="#6580E1" fill-opacity="0.6"/>
<path fill-rule="evenodd" clip-rule="evenodd" d="M425.244 374.778C434.365 365.91 440.006 353.66 440.006 340.128C440.006 313.065 417.441 291.126 389.604 291.126C375.686 291.126 363.086 296.61 353.965 305.478L374.755 284.688C383.876 275.821 396.476 270.336 410.394 270.336C438.231 270.336 460.796 292.275 460.796 319.338C460.796 332.87 455.155 345.121 446.034 353.988L425.244 374.778Z" fill="#6580E1" fill-opacity="0.6"/>
<path fill-rule="evenodd" clip-rule="evenodd" d="M353.969 305.474C344.848 314.341 339.207 326.592 339.207 340.124C339.207 367.187 361.773 389.126 389.609 389.126C403.527 389.126 416.128 383.641 425.249 374.774L446.038 353.984C436.917 362.851 424.317 368.336 410.399 368.336C382.562 368.336 359.997 346.397 359.997 319.334C359.997 305.802 365.638 293.552 374.759 284.684L353.969 305.474Z" fill="#102775" stroke="#102775" stroke-width="4"/>
<path fill-rule="evenodd" clip-rule="evenodd" d="M389.606 519.799C389.606 519.799 507.212 403.271 507.212 340.123C507.212 276.976 454.558 225.784 389.606 225.784C324.654 225.784 272 276.976 272 340.123C272 403.271 389.606 519.799 389.606 519.799ZM389.606 389.126C417.442 389.126 440.008 367.187 440.008 340.123C440.008 313.06 417.442 291.121 389.606 291.121C361.77 291.121 339.204 313.06 339.204 340.123C339.204 367.187 361.77 389.126 389.606 389.126Z" fill="#FF6752" stroke="#102775" stroke-width="4"/>
</svg>
