<svg width="1716" height="1080" viewBox="0 0 1716 1080" fill="none" xmlns="http://www.w3.org/2000/svg">
<g opacity="0.6">
<path d="M894.881 1262.43V1204.29C894.881 1197.67 898.543 1191.58 904.398 1188.48L1032.33 1120.76C1034.91 1119.39 1037.78 1118.68 1040.7 1118.68H1233.4C1243.27 1118.68 1251.28 1110.67 1251.28 1100.79V1025.36C1251.28 1020.47 1249.28 1015.79 1245.74 1012.41L1215.22 983.32C1207.31 975.775 1207.96 962.96 1216.59 956.252L1525.62 716.146C1528.76 713.707 1532.62 712.383 1536.59 712.383H1594.55C1604.43 712.383 1612.43 704.376 1612.43 694.497V543.923" stroke="#DE752B" stroke-width="5.38176" stroke-linecap="round" stroke-linejoin="round"/>
<path d="M780.833 750.398L883.325 759.508C886.233 759.767 889.16 759.31 891.85 758.177L906.996 751.799C909.193 750.874 911.553 750.398 913.937 750.398H1297.55C1307.43 750.398 1315.43 742.39 1315.43 732.512V514.045C1315.43 504.167 1323.44 496.159 1333.32 496.159H1547.26M1547.26 496.159H1595.3C1605.18 496.159 1613.18 504.167 1613.18 514.045V546.218C1613.18 556.096 1605.18 564.104 1595.3 564.104H1565.14C1555.26 564.104 1547.26 556.096 1547.26 546.218V496.159Z" stroke="#FF8BEA" stroke-width="5.38176" stroke-linecap="round" stroke-linejoin="round"/>
<path d="M488.584 474.783H865.181L1158.06 497.221C1159.22 497.31 1160.41 497.283 1161.56 497.145C1233.74 488.52 1274.96 483.595 1347.21 474.96C1348.19 474.844 1349.19 474.806 1350.17 474.851L1615.57 487.066C1625.11 487.505 1632.63 495.374 1632.63 504.933V645.563C1632.63 646.548 1632.71 647.532 1632.87 648.503L1639.29 687.018C1639.6 688.869 1639.61 690.756 1639.34 692.612L1632.63 737.331L1624.73 975.39C1624.48 982.95 1629.01 989.851 1636.05 992.624L1652.19 998.98C1659.02 1001.67 1663.52 1008.27 1663.52 1015.62V1250.55M1663.52 1250.55H1573.29C1563.42 1250.55 1555.41 1258.56 1555.41 1268.43V1321.76C1555.41 1331.64 1547.4 1339.65 1537.52 1339.65H1328.5M1663.52 1250.55V1321.76C1663.52 1331.64 1671.52 1339.65 1681.4 1339.65H1760.93" stroke="#10752B" stroke-width="5.38176" stroke-linecap="round" stroke-linejoin="round"/>
<path d="M2.69141 -264.153L28.3768 -271.239C33.8856 -272.758 39.789 -271.554 44.2625 -267.998L74.1623 -244.232C79.804 -239.747 87.5861 -239.087 93.9027 -242.557L163.801 -280.952C166.44 -282.401 169.402 -283.161 172.412 -283.161H543.745C544.984 -283.161 546.218 -283.033 547.43 -282.777L588.929 -274.041C590.141 -273.786 591.376 -273.657 592.614 -273.657H656.774C660.206 -273.657 663.567 -272.669 666.453 -270.812L778.736 -198.551C780.9 -197.158 783.338 -196.249 785.886 -195.885L817.929 -191.307C821.617 -190.78 825.049 -189.115 827.745 -186.543L1050.21 25.6502C1053.46 28.7501 1055.42 32.9592 1055.71 37.441L1061.89 133.264C1062.21 138.173 1064.53 142.735 1068.32 145.877L1504.11 507.49C1507.32 510.153 1511.36 511.611 1515.53 511.611H1529.37C1539.25 511.611 1547.26 519.619 1547.26 529.497V545.806C1547.26 555.169 1554.85 562.759 1564.21 562.759C1573.57 562.759 1581.16 570.349 1581.16 579.712V618.199C1581.16 628.078 1573.15 636.085 1563.28 636.085H985.89C983.072 636.085 980.295 636.751 977.783 638.028L916.056 669.415C913.086 670.925 909.753 671.576 906.432 671.293L802.464 662.445C800.724 662.297 798.972 662.404 797.263 662.764L756.518 671.342C755.306 671.597 754.072 671.725 752.833 671.725H525.395" stroke="#102775" stroke-width="5.38176" stroke-linecap="round" stroke-linejoin="round"/>
<path d="M1251.28 -955.569L1292.69 -855.498C1293.59 -853.329 1294.05 -851.006 1294.05 -848.659V-781.1C1294.05 -780.198 1294.12 -779.298 1294.25 -778.406L1320.79 -604.205C1321.17 -601.67 1322.1 -599.247 1323.51 -597.101L1383.79 -505.028C1385.7 -502.116 1386.71 -498.711 1386.71 -495.231V-418.839C1386.71 -414.832 1388.06 -410.94 1390.54 -407.789L1408.73 -384.639C1411.39 -381.253 1412.74 -377.021 1412.53 -372.721L1398.85 -91.1296C1398.68 -87.748 1399.48 -84.3892 1401.15 -81.4437L1436.66 -18.7754C1438.19 -16.0863 1438.99 -13.0482 1438.99 -9.95742V264.441C1438.99 274.32 1446.99 282.327 1456.87 282.327H1559.64C1569.52 282.327 1577.53 290.335 1577.53 300.213V496.16M1577.53 496.16H1595.3C1605.18 496.16 1613.18 504.167 1613.18 514.046V545.546C1613.18 555.424 1605.18 563.432 1595.3 563.432H1565.13C1555.25 563.432 1547.24 555.424 1547.24 545.546V496.16H1577.53Z" stroke="#7F51BF" stroke-width="5.38176" stroke-linecap="round" stroke-linejoin="round"/>
<path d="M1357.25 -600.731L1419.67 -505.402C1421.58 -502.49 1422.59 -499.085 1422.59 -495.605V-419.213C1422.59 -415.206 1423.94 -411.314 1426.42 -408.163L1444.61 -385.013C1447.27 -381.627 1448.62 -377.396 1448.41 -373.095L1434.73 -91.504C1434.56 -88.1224 1435.36 -84.7636 1437.03 -81.8181L1472.54 -19.1498C1474.07 -16.4607 1474.87 -13.4226 1474.87 -10.3318V346.039C1474.87 355.917 1482.87 363.925 1492.75 363.925H1594.79C1604.67 363.925 1612.67 371.933 1612.67 381.811V603.456C1612.67 605.325 1612.38 607.183 1611.81 608.961L1587.5 684.091C1586.86 686.056 1586.57 688.116 1586.64 690.181L1599.46 1082.89C1599.56 1085.86 1598.91 1088.81 1597.58 1091.47L1588.43 1109.78C1587.19 1112.26 1586.54 1115 1586.54 1117.78V1352.4C1586.54 1354.72 1586.99 1357.01 1587.86 1359.15L1598.29 1384.74C1599.16 1386.88 1599.61 1389.17 1599.61 1391.48V1844.17" stroke="#FF6752" stroke-width="5.38176" stroke-linecap="round" stroke-linejoin="round"/>
<path d="M1162.2 -183.369V-164.427C1162.2 -154.549 1170.21 -146.541 1180.09 -146.541H1396.17C1406.05 -146.541 1414.06 -138.533 1414.06 -128.655V48.2809C1414.06 48.2864 1414.05 48.2909 1414.05 48.2909C1414.04 48.2909 1414.04 48.2954 1414.04 48.301V291.765C1414.04 301.643 1422.04 309.651 1431.92 309.651H1529.48C1539.36 309.651 1547.36 317.659 1547.36 327.537V496.175M1547.36 496.175H1595.53C1605.41 496.175 1613.42 504.183 1613.42 514.061V545.569C1613.42 555.447 1605.41 563.455 1595.53 563.455H1565.25C1555.37 563.455 1547.36 555.447 1547.36 545.569V496.175Z" stroke="#93672A" stroke-width="5.38176" stroke-linecap="round" stroke-linejoin="round"/>
</g>
</svg>
