<svg width="479" height="762" viewBox="0 0 479 762" fill="none" xmlns="http://www.w3.org/2000/svg">
<g opacity="0.6">
<path d="M242.775 602.459V586.687C242.775 584.89 243.769 583.24 245.357 582.399L280.064 564.025C280.763 563.655 281.543 563.461 282.334 563.461H334.612C337.292 563.461 339.465 561.289 339.465 558.609V538.144C339.465 536.817 338.921 535.548 337.961 534.632L329.683 526.739C327.536 524.692 327.712 521.215 330.054 519.395L413.891 454.256C414.742 453.595 415.79 453.235 416.868 453.235H432.591C435.27 453.235 437.443 451.063 437.443 448.383V407.533" stroke="#DE752B" stroke-width="1.46004" stroke-linecap="round" stroke-linejoin="round"/>
<path d="M211.835 463.549L239.641 466.02C240.429 466.09 241.223 465.966 241.953 465.659L246.062 463.929C246.658 463.678 247.299 463.549 247.945 463.549H352.016C354.696 463.549 356.869 461.376 356.869 458.696V399.428C356.869 396.748 359.041 394.575 361.721 394.575H419.761M419.761 394.575H432.794C435.474 394.575 437.646 396.748 437.646 399.428V408.156C437.646 410.836 435.474 413.008 432.794 413.008H424.613C421.933 413.008 419.761 410.836 419.761 408.156V394.575Z" stroke="#FF8BEA" stroke-width="1.46004" stroke-linecap="round" stroke-linejoin="round"/>
<path d="M132.55 388.776H234.718L314.174 394.864C314.489 394.888 314.811 394.881 315.125 394.843C334.706 392.503 345.888 391.167 365.491 388.824C365.756 388.793 366.027 388.783 366.294 388.795L438.293 392.109C440.883 392.228 442.922 394.363 442.922 396.956V435.108C442.922 435.375 442.944 435.642 442.988 435.906L444.729 446.354C444.813 446.856 444.817 447.369 444.742 447.872L442.922 460.004L440.779 524.588C440.711 526.639 441.941 528.511 443.851 529.263L448.228 530.988C450.083 531.718 451.302 533.509 451.302 535.502V599.236M451.302 599.236H426.825C424.145 599.236 421.973 601.409 421.973 604.089V618.556C421.973 621.236 419.8 623.409 417.12 623.409H360.414M451.302 599.236V618.556C451.302 621.236 453.474 623.409 456.154 623.409H477.73" stroke="#10752B" stroke-width="1.46004" stroke-linecap="round" stroke-linejoin="round"/>
<path d="M0.72998 188.307L7.69826 186.385C9.19278 185.973 10.7943 186.299 12.008 187.264L20.1196 193.712C21.6502 194.928 23.7614 195.107 25.4751 194.166L44.4381 183.75C45.154 183.357 45.9575 183.15 46.7742 183.15H147.515C147.85 183.15 148.186 183.185 148.514 183.254L159.773 185.625C160.101 185.694 160.436 185.729 160.772 185.729H178.178C179.11 185.729 180.021 185.997 180.804 186.501L211.266 206.105C211.853 206.483 212.515 206.729 213.206 206.828L221.899 208.07C222.9 208.213 223.83 208.665 224.562 209.362L284.914 266.929C285.796 267.77 286.329 268.912 286.407 270.128L288.085 296.124C288.17 297.456 288.801 298.693 289.828 299.546L408.055 397.649C408.926 398.372 410.022 398.767 411.154 398.767H414.908C417.588 398.767 419.761 400.94 419.761 403.62V408.044C419.761 410.584 421.82 412.643 424.36 412.643C426.9 412.643 428.959 414.702 428.959 417.242V427.684C428.959 430.364 426.787 432.536 424.107 432.536H267.466C266.701 432.536 265.948 432.717 265.266 433.063L248.52 441.578C247.714 441.988 246.81 442.165 245.909 442.088L217.703 439.687C217.231 439.647 216.756 439.676 216.292 439.774L205.239 442.101C204.91 442.17 204.575 442.205 204.239 442.205H142.536" stroke="#102775" stroke-width="1.46004" stroke-linecap="round" stroke-linejoin="round"/>
<path d="M239.875 65.1904L254.455 102.086C255.187 103.938 256.976 105.155 258.968 105.155H350.119C350.952 105.155 351.771 105.37 352.498 105.778L361.703 110.957" stroke="#9CB2FF" stroke-width="1.46004" stroke-linecap="round" stroke-linejoin="round"/>
<path d="M339.464 0.730469L350.698 27.8793C350.942 28.4676 351.067 29.098 351.067 29.7346V48.063C351.067 48.3076 351.086 48.5519 351.122 48.7937L358.321 96.0534C358.426 96.7413 358.677 97.3986 359.058 97.9808L375.413 122.96C375.931 123.75 376.206 124.673 376.206 125.618V146.342C376.206 147.429 376.571 148.485 377.243 149.34L382.178 155.62C382.899 156.539 383.266 157.687 383.209 158.854L379.497 235.248C379.453 236.165 379.67 237.076 380.122 237.875L389.757 254.877C390.17 255.606 390.387 256.431 390.387 257.269V331.712C390.387 334.392 392.56 336.564 395.24 336.564H423.121C425.801 336.564 427.973 338.737 427.973 341.417V394.576M427.973 394.576H432.793C435.473 394.576 437.646 396.748 437.646 399.428V407.974C437.646 410.654 435.473 412.826 432.793 412.826H424.609C421.93 412.826 419.757 410.654 419.757 407.974V394.576H427.973Z" stroke="#7F51BF" stroke-width="1.46004" stroke-linecap="round" stroke-linejoin="round"/>
<path d="M368.214 96.9951L385.148 122.857C385.665 123.647 385.941 124.571 385.941 125.515V146.24C385.941 147.327 386.306 148.383 386.978 149.238L391.912 155.518C392.634 156.437 393 157.585 392.943 158.752L389.232 235.145C389.187 236.063 389.404 236.974 389.857 237.773L399.491 254.775C399.904 255.504 400.122 256.328 400.122 257.167V353.848C400.122 356.528 402.294 358.7 404.974 358.7H432.656C435.336 358.7 437.508 360.873 437.508 363.553V423.684C437.508 424.191 437.429 424.695 437.273 425.177L430.678 445.56C430.506 446.093 430.427 446.652 430.445 447.212L433.923 553.751C433.949 554.557 433.774 555.357 433.413 556.079L430.93 561.045C430.593 561.719 430.418 562.462 430.418 563.215V626.868C430.418 627.496 430.54 628.118 430.776 628.699L433.604 635.64C433.841 636.222 433.963 636.843 433.963 637.471V760.283" stroke="#FF6752" stroke-width="1.46004" stroke-linecap="round" stroke-linejoin="round"/>
<path d="M315.298 210.224V215.363C315.298 218.042 317.47 220.215 320.15 220.215H378.772C381.452 220.215 383.625 222.387 383.625 225.067V273.069C383.625 273.07 383.624 273.072 383.622 273.072C383.621 273.072 383.619 273.073 383.619 273.074V339.125C383.619 341.805 385.792 343.977 388.472 343.977H414.938C417.618 343.977 419.79 346.149 419.79 348.829V394.58M419.79 394.58H432.857C435.537 394.58 437.71 396.752 437.71 399.432V407.98C437.71 410.66 435.537 412.832 432.857 412.832H424.643C421.963 412.832 419.79 410.66 419.79 407.98V394.58Z" stroke="#93672A" stroke-width="1.46004" stroke-linecap="round" stroke-linejoin="round"/>
</g>
</svg>
