<svg width="171" height="225" viewBox="0 0 171 225" fill="none" xmlns="http://www.w3.org/2000/svg">
<g clip-path="url(#clip0_313_6158)">
<path fill-rule="evenodd" clip-rule="evenodd" d="M87.068 203.437L88.9645 210.519C91.9567 221.684 99.1354 225.598 110.029 222.68L102.98 234.889C92.0863 237.808 84.9077 233.894 81.9155 222.728L80.0181 215.647L87.068 203.437ZM129.275 199.718L129.273 199.719C130.709 205.078 130.538 209.455 128.736 212.89L128.72 212.916C128.582 213.179 128.434 213.435 128.276 213.686L121.687 225.099C121.691 225.092 121.694 225.084 121.697 225.077L121.685 225.1C119.733 228.821 115.868 231.434 110.062 232.99L110.062 232.991L102.981 234.888L110.03 222.678L117.11 220.781C119.449 220.154 121.473 219.356 123.184 218.382C123.172 216.415 122.851 214.264 122.225 211.926L122.225 211.925L120.329 204.846L127.378 192.636L129.275 199.718ZM106.311 180.474C117.477 177.482 124.457 181.742 127.377 192.637L120.327 204.846C117.408 193.952 110.428 189.692 99.262 192.684L106.311 180.474ZM99.2606 192.683L92.1831 194.579L92.1817 194.582C89.8747 195.2 87.8681 196.012 86.1664 197.012C86.1511 198.986 86.4497 201.13 87.0678 203.436L80.0188 215.645C78.5593 210.199 78.8762 205.662 80.9196 202.122L87.9686 189.913C87.9526 189.941 87.937 189.969 87.9212 189.997L87.9698 189.914C90.0131 186.375 93.782 183.832 99.2276 182.372L99.2292 182.371L106.31 180.474L99.2606 192.683ZM114.523 152.294C115.538 156.085 115.7 158.693 114.719 160.615L114.697 160.652C114.626 160.788 114.55 160.92 114.467 161.049L107.67 172.824C107.673 172.818 107.675 172.812 107.677 172.807L107.669 172.823C106.672 174.774 104.498 176.017 100.846 177.071L100.097 177.28L82.6675 181.951L82.6668 181.952C74.7687 184.068 72.0058 182.473 69.8895 174.575L76.9384 162.366C79.0547 170.263 81.8174 171.858 89.7145 169.742L107.146 165.071C107.296 165.031 107.443 164.988 107.589 164.947C107.551 164.802 107.514 164.654 107.474 164.504L114.523 152.294ZM128.449 57.1951C132.171 71.0851 131.743 78.2055 125.821 92.0524L125.818 92.0562L114.427 118.165L113.567 120.178C109.522 129.798 109.356 133.007 111.75 141.944L111.75 141.945L114.523 152.294L107.474 164.503L104.7 154.153L104.701 154.151C102.147 144.62 102.506 141.604 107.378 130.375L118.772 104.262L118.774 104.257C124.694 90.4132 125.122 83.2927 121.4 69.4043L128.449 57.1951ZM76.9379 162.364L69.889 174.573L65.9483 159.866L72.997 147.656L76.9379 162.364ZM76.4081 114.633C69.761 130.134 69.5664 134.857 72.9963 147.657L65.9474 159.866C62.5175 147.066 62.712 142.343 69.3592 126.842L76.4081 114.633ZM90.3582 69.737C92.0367 76.0011 91.8233 79.5614 88.7258 86.5215L88.72 86.5301L76.4088 114.632L69.3589 126.841L81.6766 98.7297L81.6791 98.724C84.7738 91.7682 84.9872 88.2084 83.3092 81.9462L90.3582 69.737ZM64.9136 85.8956C65.9294 89.6868 66.09 92.2953 65.109 94.2164L65.0963 94.237C65.0231 94.3788 64.9432 94.5164 64.8574 94.6509L58.06 106.426C58.0615 106.423 58.0622 106.419 58.0637 106.417L58.0598 106.425C56.9972 108.506 54.5945 109.78 50.4883 110.881L50.4886 110.882L33.6028 115.406L40.6518 103.197L57.5357 98.6732L57.5364 98.672C57.6862 98.6318 57.8331 98.5891 57.9784 98.5484C57.9411 98.4027 57.9047 98.2542 57.8646 98.1048L64.9136 85.8956ZM27.8742 95.8193C29.9906 103.717 32.7533 105.313 40.6515 103.196L33.6026 115.405C25.7043 117.522 22.9416 115.927 20.8253 108.028L27.8742 95.8193ZM53.5101 26.2937C39.5958 30.022 29.6602 35.2078 23.224 42.3857C19.4447 53.7592 20.5583 68.5196 25.6842 87.6497L27.8733 95.8195L20.8246 108.03L18.6352 99.8589C12.4877 76.9159 12.1102 60.2578 19.0246 48.1899L19.0243 48.189L26.0733 35.9798C31.9634 25.6999 43.145 18.7507 60.559 14.0845L53.5101 26.2937ZM63.7261 64.4245C62.3468 64.794 61.1003 65.2267 59.9859 65.7279C60.1092 67.3776 60.4381 69.1928 60.9727 71.1879L64.9133 85.8947L57.8644 98.1038L53.9234 83.3961C52.406 77.7319 52.5407 73.5186 54.3592 70.4203L54.3859 70.3727C54.3763 70.3887 54.3668 70.4047 54.3573 70.4208L61.4063 58.2116C63.0851 55.3515 66.1997 53.4413 70.7751 52.2153L63.7261 64.4245ZM70.777 52.2148C80.3092 49.6607 85.8346 52.8509 88.7537 63.745L88.7523 63.7474L90.357 69.7363L83.3083 81.9464L81.7028 75.9547L81.7032 75.9525C78.7841 65.06 73.2596 61.8701 63.728 64.4239L70.777 52.2148ZM60.5602 14.0852C99.7789 3.57668 118.232 19.0652 127.719 54.4709L127.718 54.4721L128.448 57.1944L121.399 69.4036L120.669 66.6794C111.182 31.2745 92.7295 15.786 53.5112 26.2944L60.5602 14.0852Z" fill="#102775"/>
<path d="M87.068 203.437L89 202.92L87.7507 198.255L85.336 202.437L87.068 203.437ZM88.9645 210.519L87.0326 211.036L87.0327 211.036L88.9645 210.519ZM110.029 222.68L111.761 223.68L114.175 219.498L109.511 220.748L110.029 222.68ZM102.98 234.889L103.498 236.821L104.298 236.606L104.712 235.889L102.98 234.889ZM81.9155 222.728L79.9837 223.246L79.9837 223.246L81.9155 222.728ZM80.0181 215.647L78.2861 214.647L77.8718 215.364L78.0863 216.164L80.0181 215.647ZM129.275 199.718L130.602 201.214L131.527 200.394L131.207 199.2L129.275 199.718ZM129.273 199.719L127.946 198.223L127.022 199.043L127.341 200.237L129.273 199.719ZM128.736 212.89L130.446 213.928L130.478 213.875L130.507 213.819L128.736 212.89ZM128.72 212.916L127.011 211.878L126.979 211.93L126.951 211.983L128.72 212.916ZM128.276 213.686L126.582 212.624L126.562 212.655L126.544 212.686L128.276 213.686ZM121.687 225.099L119.916 224.17L123.419 226.099L121.687 225.099ZM121.697 225.077L123.47 226.003L119.939 224.124L121.697 225.077ZM121.685 225.1L119.927 224.147L119.92 224.159L119.914 224.17L121.685 225.1ZM110.062 232.99L109.544 231.058L107.612 231.576L108.13 233.508L110.062 232.99ZM110.062 232.991L110.58 234.923L112.512 234.405L111.994 232.473L110.062 232.991ZM102.981 234.888L101.249 233.889L98.8349 238.07L103.499 236.82L102.981 234.888ZM110.03 222.678L109.512 220.746L108.712 220.961L108.298 221.678L110.03 222.678ZM117.11 220.781L116.592 218.849L117.11 220.781ZM123.184 218.382L124.173 220.12L125.192 219.541L125.184 218.369L123.184 218.382ZM122.225 211.926L120.493 210.926L120.079 211.644L120.293 212.444L122.225 211.926ZM122.225 211.925L123.958 212.925L124.372 212.207L124.157 211.407L122.225 211.925ZM120.329 204.846L118.596 203.846L118.182 204.563L118.397 205.363L120.329 204.846ZM127.378 192.636L129.309 192.119L128.06 187.455L125.645 191.636L127.378 192.636ZM106.311 180.474L105.793 178.542L104.993 178.757L104.579 179.474L106.311 180.474ZM127.377 192.637L129.109 193.637L129.523 192.919L129.308 192.119L127.377 192.637ZM120.327 204.846L118.395 205.364L119.644 210.027L122.059 205.846L120.327 204.846ZM99.262 192.684L97.5299 191.684L95.1161 195.866L99.7796 194.616L99.262 192.684ZM99.2606 192.683L99.7782 194.615L100.578 194.4L100.993 193.683L99.2606 192.683ZM92.1831 194.579L91.6654 192.647L90.8652 192.862L90.451 193.579L92.1831 194.579ZM92.1817 194.582L92.6993 196.513L93.4995 196.299L93.9137 195.582L92.1817 194.582ZM86.1664 197.012L85.1529 195.288L84.1753 195.863L84.1665 196.997L86.1664 197.012ZM87.0678 203.436L88.7998 204.436L89.2141 203.719L88.9996 202.919L87.0678 203.436ZM80.0188 215.645L78.087 216.163L79.3367 220.827L81.7509 216.645L80.0188 215.645ZM80.9196 202.122L79.1876 201.122L79.1875 201.123L80.9196 202.122ZM87.9686 189.913L89.7007 190.913L86.2365 188.913L87.9686 189.913ZM87.9212 189.997L86.1815 189.01L89.646 191.009L87.9212 189.997ZM87.9698 189.914L89.6946 190.926L89.6982 190.92L89.7018 190.914L87.9698 189.914ZM99.2276 182.372L99.7454 184.304L100.201 184.182L100.555 183.869L99.2276 182.372ZM99.2292 182.371L98.7116 180.439L98.2555 180.561L97.9023 180.874L99.2292 182.371ZM106.31 180.474L108.042 181.474L110.456 177.292L105.792 178.542L106.31 180.474ZM114.523 152.294L116.454 151.776L114.523 152.294ZM114.719 160.615L116.435 161.642L116.469 161.584L116.5 161.524L114.719 160.615ZM114.697 160.652L112.981 159.624L112.95 159.675L112.923 159.728L114.697 160.652ZM114.467 161.049L112.781 159.973L112.757 160.01L112.735 160.049L114.467 161.049ZM107.67 172.824L105.889 171.914L109.402 173.824L107.67 172.824ZM107.677 172.807L109.462 173.71L105.91 171.871L107.677 172.807ZM107.669 172.823L105.901 171.888L105.894 171.901L105.887 171.913L107.669 172.823ZM100.846 177.071L101.383 178.998L101.392 178.995L101.401 178.993L100.846 177.071ZM100.097 177.28L100.614 179.212L100.624 179.21L100.634 179.207L100.097 177.28ZM82.6675 181.951L82.1498 180.019L81.3496 180.233L80.9354 180.951L82.6675 181.951ZM82.6668 181.952L83.1844 183.884L83.9846 183.669L84.3988 182.952L82.6668 181.952ZM69.8895 174.575L68.1574 173.575L67.7432 174.292L67.9576 175.092L69.8895 174.575ZM76.9384 162.366L78.8703 161.848L77.6206 157.184L75.2064 161.366L76.9384 162.366ZM89.7145 169.742L90.2321 171.674L90.2322 171.674L89.7145 169.742ZM107.146 165.071L107.663 167.003V167.003L107.146 165.071ZM107.589 164.947L108.127 166.874L110.012 166.346L109.526 164.451L107.589 164.947ZM107.474 164.504L105.742 163.504L105.328 164.222L105.542 165.022L107.474 164.504ZM128.449 57.1951L130.381 56.6775L129.131 52.0136L126.717 56.1951L128.449 57.1951ZM125.821 92.0524L127.394 93.2873L127.556 93.0806L127.66 92.8389L125.821 92.0524ZM125.818 92.0562L124.244 90.8213L124.087 91.0223L123.985 91.2565L125.818 92.0562ZM114.427 118.165L112.594 117.366L112.591 117.372L112.588 117.379L114.427 118.165ZM113.567 120.178L111.728 119.392L111.723 119.403L113.567 120.178ZM111.75 141.944L113.482 142.944L113.897 142.226L113.682 141.426L111.75 141.944ZM111.75 141.945L110.018 140.945L109.603 141.663L109.818 142.463L111.75 141.945ZM107.474 164.503L105.542 165.021L106.791 169.685L109.206 165.503L107.474 164.503ZM104.7 154.153L102.741 153.752L102.646 154.215L102.768 154.671L104.7 154.153ZM104.701 154.151L106.66 154.552L106.755 154.09L106.633 153.634L104.701 154.151ZM107.378 130.375L105.545 129.575L105.544 129.579L107.378 130.375ZM118.772 104.262L120.605 105.061L120.617 105.034L120.628 105.007L118.772 104.262ZM118.774 104.257L116.935 103.471L116.926 103.491L116.918 103.512L118.774 104.257ZM121.4 69.4043L119.668 68.4043L119.254 69.1217L119.468 69.922L121.4 69.4043ZM76.9379 162.364L78.67 163.364L79.0842 162.646L78.8698 161.846L76.9379 162.364ZM69.889 174.573L67.9571 175.09L69.2068 179.754L71.621 175.573L69.889 174.573ZM65.9483 159.866L64.2162 158.866L63.8021 159.584L64.0164 160.384L65.9483 159.866ZM72.997 147.656L74.9289 147.138L73.6791 142.474L71.2649 146.656L72.997 147.656ZM76.4081 114.633L78.2463 115.421L74.6761 113.633L76.4081 114.633ZM72.9963 147.657L74.7284 148.657L75.1426 147.94L74.9282 147.139L72.9963 147.657ZM65.9474 159.866L64.0155 160.384L65.2652 165.048L67.6794 160.866L65.9474 159.866ZM69.3592 126.842L67.6271 125.842L67.5678 125.945L67.521 126.054L69.3592 126.842ZM90.3582 69.737L92.2901 69.2194L91.0404 64.5555L88.6262 68.737L90.3582 69.737ZM88.7258 86.5215L90.3875 87.6344L90.4832 87.4917L90.553 87.3346L88.7258 86.5215ZM88.72 86.5301L87.0583 85.4171L86.9594 85.5647L86.8881 85.7275L88.72 86.5301ZM76.4088 114.632L78.1408 115.632L78.1963 115.536L78.2407 115.435L76.4088 114.632ZM69.3589 126.841L67.527 126.039L71.0909 127.842L69.3589 126.841ZM81.6766 98.7297L83.5085 99.5323L83.5085 99.5323L81.6766 98.7297ZM81.6791 98.724L79.8518 97.9109L79.8472 97.9213L81.6791 98.724ZM83.3092 81.9462L81.5772 80.9462L81.163 81.6636L81.3774 82.4638L83.3092 81.9462ZM64.9136 85.8956L66.8454 85.378L65.5958 80.7141L63.1815 84.8956L64.9136 85.8956ZM65.109 94.2164L66.8118 95.2655L66.8538 95.1973L66.8902 95.126L65.109 94.2164ZM65.0963 94.237L63.3935 93.188L63.354 93.2521L63.3194 93.3191L65.0963 94.237ZM64.8574 94.6509L63.1717 93.5745L63.1477 93.6122L63.1253 93.651L64.8574 94.6509ZM58.06 106.426L56.2788 105.516L59.7921 107.426L58.06 106.426ZM58.0637 106.417L59.8673 107.281L56.2808 105.51L58.0637 106.417ZM58.0598 106.425L59.841 107.334L59.8525 107.312L59.8634 107.289L58.0598 106.425ZM50.4883 110.881L49.9706 108.949L48.0389 109.467L48.5565 111.399L50.4883 110.881ZM50.4886 110.882L51.0062 112.814L52.9381 112.296L52.4204 110.364L50.4886 110.882ZM33.6028 115.406L31.8708 114.406L29.4565 118.588L34.1204 117.338L33.6028 115.406ZM40.6518 103.197L40.1341 101.265L39.3339 101.48L38.9197 102.197L40.6518 103.197ZM57.5357 98.6732L58.0533 100.605L58.8535 100.391L59.2677 99.6732L57.5357 98.6732ZM57.5364 98.672L57.0187 96.7401L56.2185 96.9545L55.8043 97.672L57.5364 98.672ZM57.9784 98.5484L58.5172 100.475L60.4017 99.9474L59.9158 98.0519L57.9784 98.5484ZM57.8646 98.1048L56.1326 97.1048L55.7184 97.8222L55.9328 98.6224L57.8646 98.1048ZM27.8742 95.8193L29.8061 95.3016L28.5564 90.6377L26.1422 94.8193L27.8742 95.8193ZM40.6515 103.196L42.3836 104.196L44.7978 100.015L40.1339 101.264L40.6515 103.196ZM33.6026 115.405L34.1202 117.337L34.9204 117.123L35.3346 116.405L33.6026 115.405ZM20.8253 108.028L19.0932 107.028L18.679 107.746L18.8934 108.546L20.8253 108.028ZM53.5101 26.2937L54.0277 28.2256L54.8279 28.0112L55.2421 27.2937L53.5101 26.2937ZM23.224 42.3857L21.735 41.0505L21.4573 41.3603L21.3261 41.755L23.224 42.3857ZM27.8733 95.8195L29.6054 96.8194L30.0195 96.102L29.8051 95.3019L27.8733 95.8195ZM20.8246 108.03L18.8927 108.547L20.1425 113.211L22.5567 109.03L20.8246 108.03ZM18.6352 99.8589L16.7034 100.377V100.377L18.6352 99.8589ZM19.0246 48.1899L20.7599 49.1842L21.1699 48.4687L20.9565 47.6723L19.0246 48.1899ZM19.0243 48.189L17.2923 47.189L16.8781 47.9064L17.0925 48.7066L19.0243 48.189ZM26.0733 35.9798L27.8054 36.9798L27.8087 36.9741L26.0733 35.9798ZM60.559 14.0845L62.2911 15.0845L64.7053 10.903L60.0414 12.1527L60.559 14.0845ZM63.7261 64.4245L64.2438 66.3563L65.044 66.1419L65.4582 65.4245L63.7261 64.4245ZM59.9859 65.7279L59.1655 63.904L57.8869 64.479L57.9914 65.8771L59.9859 65.7279ZM60.9727 71.1879L59.0408 71.7055L59.0408 71.7055L60.9727 71.1879ZM64.9133 85.8947L66.6454 86.8947L67.0596 86.1772L66.8452 85.377L64.9133 85.8947ZM57.8644 98.1038L55.9325 98.6215L57.1822 103.285L59.5964 99.1038L57.8644 98.1038ZM53.9234 83.3961L51.9916 83.9137L51.9916 83.9137L53.9234 83.3961ZM54.3592 70.4203L56.084 71.4327L56.0941 71.4156L56.1038 71.3983L54.3592 70.4203ZM54.3859 70.3727L56.1304 71.3507L52.667 69.3502L54.3859 70.3727ZM54.3573 70.4208L52.6253 69.4208L56.0821 71.4333L54.3573 70.4208ZM61.4063 58.2116L59.6815 57.1992L59.6778 57.2054L59.6742 57.2116L61.4063 58.2116ZM70.7751 52.2153L72.5072 53.2153L74.9214 49.0337L70.2575 50.2834L70.7751 52.2153ZM70.777 52.2148L70.2594 50.2829L69.4592 50.4973L69.0449 51.2148L70.777 52.2148ZM88.7537 63.745L90.4857 64.745L90.8999 64.0276L90.6855 63.2274L88.7537 63.745ZM88.7523 63.7474L87.0202 62.7474L86.606 63.4648L86.8204 64.265L88.7523 63.7474ZM90.357 69.7363L92.0891 70.7362L92.5033 70.0188L92.2889 69.2187L90.357 69.7363ZM83.3083 81.9464L81.3764 82.4641L82.6262 87.1283L85.0404 82.9463L83.3083 81.9464ZM81.7028 75.9547L79.7434 75.5537L79.6488 76.0163L79.771 76.4723L81.7028 75.9547ZM81.7032 75.9525L83.6626 76.3535L83.7573 75.8909L83.6351 75.4348L81.7032 75.9525ZM63.728 64.4239L61.996 63.4239L59.5818 67.6054L64.2456 66.3558L63.728 64.4239ZM60.5602 14.0852L60.0426 12.1534L59.2424 12.3678L58.8282 13.0852L60.5602 14.0852ZM127.719 54.4709L129.451 55.4709L129.865 54.7535L129.651 53.9533L127.719 54.4709ZM127.718 54.4721L125.986 53.4721L125.572 54.1896L125.787 54.9898L127.718 54.4721ZM128.448 57.1944L130.18 58.1944L130.594 57.477L130.38 56.6768L128.448 57.1944ZM121.399 69.4036L119.467 69.9213L120.717 74.5852L123.131 70.4036L121.399 69.4036ZM120.669 66.6794L122.601 66.1618L122.601 66.1618L120.669 66.6794ZM53.5112 26.2944L51.7792 25.2944L49.365 29.4759L54.0289 28.2263L53.5112 26.2944ZM87.068 203.437L85.1361 203.955L87.0326 211.036L88.9645 210.519L90.8964 210.001L89 202.92L87.068 203.437ZM88.9645 210.519L87.0327 211.036C88.6118 216.929 91.3915 221.255 95.5444 223.619C99.6918 225.979 104.802 226.151 110.547 224.611L110.029 222.68L109.511 220.748C104.362 222.127 100.436 221.801 97.523 220.143C94.6151 218.487 92.3095 215.274 90.8963 210.001L88.9645 210.519ZM110.029 222.68L108.297 221.68L101.248 233.889L102.98 234.889L104.712 235.889L111.761 223.68L110.029 222.68ZM102.98 234.889L102.462 232.957C97.3132 234.336 93.3874 234.01 90.474 232.352C87.5662 230.697 85.2605 227.483 83.8474 222.21L81.9155 222.728L79.9837 223.246C81.5628 229.138 84.3425 233.464 88.4954 235.828C92.6428 238.189 97.753 238.36 103.498 236.821L102.98 234.889ZM81.9155 222.728L83.8474 222.21L81.95 215.129L80.0181 215.647L78.0863 216.164L79.9837 223.246L81.9155 222.728ZM80.0181 215.647L81.7501 216.647L88.8 204.437L87.068 203.437L85.336 202.437L78.2861 214.647L80.0181 215.647ZM129.275 199.718L127.948 198.221L127.946 198.223L129.273 199.719L130.6 201.215L130.602 201.214L129.275 199.718ZM129.273 199.719L127.341 200.237C128.704 205.322 128.448 209.133 126.965 211.961L128.736 212.89L130.507 213.819C132.627 209.777 132.714 204.834 131.205 199.202L129.273 199.719ZM128.736 212.89L127.027 211.852L127.011 211.878L128.72 212.916L130.429 213.955L130.446 213.928L128.736 212.89ZM128.72 212.916L126.951 211.983C126.836 212.201 126.713 212.415 126.582 212.624L128.276 213.686L129.971 214.749C130.154 214.456 130.327 214.156 130.489 213.85L128.72 212.916ZM128.276 213.686L126.544 212.686L119.955 224.099L121.687 225.099L123.419 226.099L130.008 214.686L128.276 213.686ZM121.687 225.099L123.458 226.028C123.479 225.988 123.495 225.954 123.505 225.933C123.51 225.922 123.514 225.913 123.517 225.907C123.519 225.902 123.521 225.897 123.522 225.897C123.522 225.895 123.521 225.898 123.52 225.901C123.518 225.905 123.515 225.911 123.511 225.92C123.503 225.937 123.489 225.966 123.47 226.003L121.697 225.077L119.924 224.152C119.914 224.172 119.905 224.19 119.897 224.205C119.89 224.221 119.884 224.234 119.879 224.245C119.874 224.256 119.87 224.264 119.867 224.27C119.865 224.275 119.863 224.28 119.863 224.28C119.862 224.281 119.864 224.278 119.865 224.274C119.867 224.27 119.87 224.263 119.874 224.254C119.879 224.245 119.884 224.233 119.891 224.219C119.898 224.205 119.906 224.189 119.916 224.17L121.687 225.099ZM121.697 225.077L119.939 224.124L119.927 224.147L121.685 225.1L123.444 226.052L123.456 226.03L121.697 225.077ZM121.685 225.1L119.914 224.17C118.318 227.212 115.052 229.582 109.544 231.058L110.062 232.99L110.58 234.922C116.684 233.286 121.148 230.429 123.456 226.029L121.685 225.1ZM110.062 232.99L108.13 233.508L108.13 233.509L110.062 232.991L111.994 232.473L111.994 232.472L110.062 232.99ZM110.062 232.991L109.545 231.059L102.463 232.957L102.981 234.888L103.499 236.82L110.58 234.923L110.062 232.991ZM102.981 234.888L104.713 235.888L111.762 223.678L110.03 222.678L108.298 221.678L101.249 233.889L102.981 234.888ZM110.03 222.678L110.547 224.61L117.628 222.713L117.11 220.781L116.592 218.849L109.512 220.746L110.03 222.678ZM117.11 220.781L117.628 222.713C120.095 222.052 122.284 221.195 124.173 220.12L123.184 218.382L122.195 216.644C120.662 217.516 118.804 218.257 116.592 218.849L117.11 220.781ZM123.184 218.382L125.184 218.369C125.17 216.197 124.817 213.874 124.157 211.408L122.225 211.926L120.293 212.444C120.885 214.654 121.173 216.632 121.184 218.395L123.184 218.382ZM122.225 211.926L123.957 212.926L123.958 212.925L122.225 211.925L120.493 210.925L120.493 210.926L122.225 211.926ZM122.225 211.925L124.157 211.407L122.26 204.328L120.329 204.846L118.397 205.363L120.294 212.443L122.225 211.925ZM120.329 204.846L122.061 205.846L129.11 193.636L127.378 192.636L125.645 191.636L118.596 203.846L120.329 204.846ZM127.378 192.636L125.446 193.154L127.343 200.235L129.275 199.718L131.207 199.2L129.309 192.119L127.378 192.636ZM106.311 180.474L106.828 182.406C112.102 180.993 116.038 181.383 118.926 183.074C121.819 184.768 124.065 188.005 125.445 193.154L127.377 192.637L129.308 192.119C127.769 186.374 125.065 182.034 120.947 179.622C116.823 177.207 111.686 176.963 105.793 178.542L106.311 180.474ZM127.377 192.637L125.645 191.637L118.595 203.846L120.327 204.846L122.059 205.846L129.109 193.637L127.377 192.637ZM120.327 204.846L122.259 204.328C120.719 198.584 118.016 194.243 113.898 191.832C109.774 189.417 104.637 189.174 98.7444 190.753L99.262 192.684L99.7796 194.616C105.053 193.203 108.989 193.593 111.877 195.284C114.769 196.978 117.015 200.214 118.395 205.364L120.327 204.846ZM99.262 192.684L100.994 193.684L108.043 181.474L106.311 180.474L104.579 179.474L97.5299 191.684L99.262 192.684ZM99.2606 192.683L98.7429 190.751L91.6654 192.647L92.1831 194.579L92.7007 196.511L99.7782 194.615L99.2606 192.683ZM92.1831 194.579L90.451 193.579L90.4496 193.582L92.1817 194.582L93.9137 195.582L93.9151 195.579L92.1831 194.579ZM92.1817 194.582L91.6641 192.65C89.2169 193.305 87.0372 194.18 85.1529 195.288L86.1664 197.012L87.1799 198.736C88.6989 197.844 90.5324 197.094 92.6993 196.513L92.1817 194.582ZM86.1664 197.012L84.1665 196.997C84.1495 199.181 84.4801 201.506 85.1359 203.954L87.0678 203.436L88.9996 202.919C88.4193 200.753 88.1527 198.79 88.1663 197.028L86.1664 197.012ZM87.0678 203.436L85.3357 202.436L78.2868 214.645L80.0188 215.645L81.7509 216.645L88.7998 204.436L87.0678 203.436ZM80.0188 215.645L81.9507 215.128C80.5774 210.003 80.9581 206.056 82.6517 203.122L80.9196 202.122L79.1875 201.123C76.7943 205.268 76.5413 210.395 78.087 216.163L80.0188 215.645ZM80.9196 202.122L82.6517 203.122L89.7006 190.913L87.9686 189.913L86.2365 188.913L79.1876 201.122L80.9196 202.122ZM87.9686 189.913L86.2365 188.913C86.2156 188.949 86.1889 188.997 86.1815 189.01L87.9212 189.997L89.6609 190.983C89.685 190.941 89.6895 190.932 89.7007 190.913L87.9686 189.913ZM87.9212 189.997L89.646 191.009L89.6946 190.926L87.9698 189.914L86.245 188.902L86.1964 188.984L87.9212 189.997ZM87.9698 189.914L89.7018 190.914C91.3954 187.981 94.6217 185.677 99.7454 184.304L99.2276 182.372L98.7098 180.44C92.9422 181.986 88.6307 184.769 86.2377 188.914L87.9698 189.914ZM99.2276 182.372L100.555 183.869L100.556 183.867L99.2292 182.371L97.9023 180.874L97.9006 180.876L99.2276 182.372ZM99.2292 182.371L99.7469 184.303L106.827 182.405L106.31 180.474L105.792 178.542L98.7116 180.439L99.2292 182.371ZM106.31 180.474L104.577 179.474L97.5285 191.683L99.2606 192.683L100.993 193.683L108.042 181.474L106.31 180.474ZM114.523 152.294L112.591 152.812C113.598 156.572 113.547 158.511 112.938 159.705L114.719 160.615L116.5 161.524C117.853 158.875 117.478 155.598 116.454 151.776L114.523 152.294ZM114.719 160.615L113.003 159.587L112.981 159.624L114.697 160.652L116.412 161.679L116.435 161.642L114.719 160.615ZM114.697 160.652L112.923 159.728C112.878 159.814 112.831 159.895 112.781 159.973L114.467 161.049L116.153 162.125C116.268 161.944 116.374 161.761 116.47 161.576L114.697 160.652ZM114.467 161.049L112.735 160.049L105.938 171.824L107.67 172.824L109.402 173.824L116.199 162.049L114.467 161.049ZM107.67 172.824L109.451 173.733C109.465 173.707 109.476 173.683 109.486 173.663C109.495 173.642 109.503 173.625 109.509 173.611C109.515 173.597 109.519 173.585 109.522 173.578C109.525 173.571 109.528 173.565 109.528 173.565C109.528 173.563 109.527 173.567 109.525 173.572C109.523 173.577 109.519 173.587 109.514 173.599C109.509 173.611 109.502 173.626 109.493 173.645C109.485 173.663 109.474 173.685 109.462 173.71L107.677 172.807L105.893 171.903C105.88 171.929 105.869 171.953 105.86 171.973C105.85 171.992 105.843 172.009 105.837 172.023C105.831 172.036 105.827 172.047 105.824 172.054C105.823 172.057 105.822 172.06 105.821 172.062C105.821 172.063 105.82 172.064 105.82 172.064C105.82 172.065 105.82 172.065 105.82 172.065C105.819 172.066 105.82 172.065 105.82 172.063C105.821 172.062 105.822 172.06 105.823 172.057C105.826 172.051 105.83 172.041 105.835 172.028C105.84 172.016 105.848 172 105.856 171.981C105.865 171.962 105.876 171.939 105.889 171.914L107.67 172.824ZM107.677 172.807L105.91 171.871L105.901 171.888L107.669 172.823L109.437 173.758L109.445 173.742L107.677 172.807ZM107.669 172.823L105.887 171.913C105.299 173.066 103.872 174.116 100.292 175.15L100.846 177.071L101.401 178.993C105.125 177.918 108.046 176.482 109.45 173.733L107.669 172.823ZM100.846 177.071L100.309 175.145L99.5596 175.354L100.097 177.28L100.634 179.207L101.383 178.998L100.846 177.071ZM100.097 177.28L99.5789 175.349L82.1498 180.019L82.6675 181.951L83.1851 183.882L100.614 179.212L100.097 177.28ZM82.6675 181.951L80.9354 180.951L80.9347 180.952L82.6668 181.952L84.3988 182.952L84.3995 182.951L82.6675 181.951ZM82.6668 181.952L82.1491 180.02C78.226 181.071 76.2898 180.968 75.11 180.287C73.9302 179.605 72.8725 177.98 71.8213 174.057L69.8895 174.575L67.9576 175.092C69.0227 179.067 70.4047 182.189 73.11 183.751C75.8152 185.313 79.2095 184.949 83.1844 183.884L82.6668 181.952ZM69.8895 174.575L71.6215 175.575L78.6705 163.366L76.9384 162.366L75.2064 161.366L68.1574 173.575L69.8895 174.575ZM76.9384 162.366L75.0066 162.883C76.0716 166.858 77.4536 169.979 80.1587 171.541C82.8638 173.102 86.2577 172.739 90.2321 171.674L89.7145 169.742L89.197 167.81C85.2742 168.861 83.3382 168.758 82.1586 168.077C80.979 167.396 79.9215 165.771 78.8703 161.848L76.9384 162.366ZM89.7145 169.742L90.2322 171.674L107.663 167.003L107.146 165.071L106.628 163.139L89.1969 167.81L89.7145 169.742ZM107.146 165.071L107.663 167.003C107.826 166.959 108.009 166.907 108.127 166.874L107.589 164.947L107.05 163.021C106.877 163.07 106.765 163.103 106.628 163.139L107.146 165.071ZM107.589 164.947L109.526 164.451C109.491 164.315 109.449 164.15 109.406 163.986L107.474 164.504L105.542 165.022C105.578 165.157 105.611 165.288 105.651 165.444L107.589 164.947ZM107.474 164.504L109.206 165.504L116.255 153.294L114.523 152.294L112.79 151.294L105.742 163.504L107.474 164.504ZM128.449 57.1951L126.517 57.7128C128.354 64.5662 129.115 69.5702 128.757 74.4947C128.398 79.4225 126.906 84.4294 123.982 91.2659L125.821 92.0524L127.66 92.8389C130.658 85.8285 132.341 80.3518 132.746 74.7851C133.152 69.2152 132.266 63.7141 130.381 56.6775L128.449 57.1951ZM125.821 92.0524L124.248 90.8175L124.244 90.8213L125.818 92.0562L127.391 93.2911L127.394 93.2873L125.821 92.0524ZM125.818 92.0562L123.985 91.2565L112.594 117.366L114.427 118.165L116.261 118.965L127.651 92.856L125.818 92.0562ZM114.427 118.165L112.588 117.379L111.728 119.392L113.567 120.178L115.405 120.965L116.266 118.952L114.427 118.165ZM113.567 120.178L111.723 119.403C109.689 124.241 108.525 127.698 108.25 131.159C107.974 134.639 108.61 137.952 109.818 142.462L111.75 141.944L113.682 141.426C112.496 136.999 112.018 134.239 112.237 131.476C112.458 128.693 113.4 125.736 115.41 120.954L113.567 120.178ZM111.75 141.944L110.018 140.944L110.018 140.945L111.75 141.945L113.482 142.945L113.482 142.944L111.75 141.944ZM111.75 141.945L109.818 142.463L112.591 152.812L114.523 152.294L116.454 151.776L113.681 141.427L111.75 141.945ZM114.523 152.294L112.79 151.294L105.741 163.503L107.474 164.503L109.206 165.503L116.255 153.294L114.523 152.294ZM107.474 164.503L109.405 163.985L106.632 153.636L104.7 154.153L102.768 154.671L105.542 165.021L107.474 164.503ZM104.7 154.153L106.66 154.554L106.66 154.552L104.701 154.151L102.741 153.75L102.741 153.752L104.7 154.153ZM104.701 154.151L106.633 153.634C105.369 148.917 104.907 146.083 105.242 143.125C105.584 140.108 106.772 136.798 109.213 131.171L107.378 130.375L105.544 129.579C103.113 135.181 101.685 138.993 101.268 142.675C100.844 146.415 101.479 149.855 102.769 154.669L104.701 154.151ZM107.378 130.375L109.212 131.174L120.605 105.061L118.772 104.262L116.939 103.462L105.545 129.575L107.378 130.375ZM118.772 104.262L120.628 105.007L120.63 105.002L118.774 104.257L116.918 103.512L116.916 103.517L118.772 104.262ZM118.774 104.257L120.612 105.043C123.61 98.0346 125.292 92.5586 125.697 86.9925C126.103 81.4232 125.217 75.9224 123.332 68.8867L121.4 69.4043L119.468 69.922C121.304 76.7746 122.066 81.7782 121.708 86.7023C121.349 91.6295 119.858 96.6357 116.935 103.471L118.774 104.257ZM121.4 69.4043L123.132 70.4043L130.181 58.1951L128.449 57.1951L126.717 56.1951L119.668 68.4043L121.4 69.4043ZM76.9379 162.364L75.2059 161.364L68.1569 173.573L69.889 174.573L71.621 175.573L78.67 163.364L76.9379 162.364ZM69.889 174.573L71.8208 174.055L67.8802 159.348L65.9483 159.866L64.0164 160.384L67.9571 175.09L69.889 174.573ZM65.9483 159.866L67.6804 160.866L74.7291 148.656L72.997 147.656L71.2649 146.656L64.2162 158.866L65.9483 159.866ZM72.997 147.656L71.0652 148.174L75.0061 162.881L76.9379 162.364L78.8698 161.846L74.9289 147.138L72.997 147.656ZM76.4081 114.633L74.57 113.845C71.2384 121.614 69.415 126.916 68.9324 131.968C68.4459 137.059 69.3374 141.729 71.0645 148.175L72.9963 147.657L74.9282 147.139C73.2253 140.784 72.4992 136.693 72.9143 132.348C73.3332 127.963 74.9307 123.153 78.2463 115.421L76.4081 114.633ZM72.9963 147.657L71.2643 146.657L64.2153 158.866L65.9474 159.866L67.6794 160.866L74.7284 148.657L72.9963 147.657ZM65.9474 159.866L67.8792 159.349C66.1764 152.994 65.4502 148.902 65.8653 144.557C66.2843 140.172 67.8817 135.362 71.1973 127.631L69.3592 126.842L67.521 126.054C64.1894 133.823 62.3661 139.125 61.8834 144.177C61.397 149.269 62.2885 153.939 64.0155 160.384L65.9474 159.866ZM69.3592 126.842L71.0912 127.842L78.1402 115.633L76.4081 114.633L74.6761 113.633L67.6271 125.842L69.3592 126.842ZM90.3582 69.737L88.4264 70.2546C89.2361 73.2767 89.5419 75.4754 89.3412 77.6876C89.139 79.9157 88.4087 82.3151 86.8986 85.7083L88.7258 86.5215L90.553 87.3346C92.1405 83.7677 93.0655 80.907 93.3248 78.049C93.5856 75.1749 93.1588 72.4614 92.2901 69.2194L90.3582 69.737ZM88.7258 86.5215L87.0641 85.4085L87.0583 85.4171L88.72 86.5301L90.3817 87.6431L90.3875 87.6344L88.7258 86.5215ZM88.72 86.5301L86.8881 85.7275L74.5769 113.829L76.4088 114.632L78.2407 115.435L90.552 87.3326L88.72 86.5301ZM76.4088 114.632L74.6768 113.632L67.6269 125.841L69.3589 126.841L71.0909 127.842L78.1408 115.632L76.4088 114.632ZM69.3589 126.841L71.1908 127.644L83.5085 99.5323L81.6766 98.7297L79.8447 97.927L67.527 126.039L69.3589 126.841ZM81.6766 98.7297L83.5085 99.5323L83.511 99.5266L81.6791 98.724L79.8472 97.9213L79.8447 97.9271L81.6766 98.7297ZM81.6791 98.724L83.5064 99.537C85.0925 95.9721 86.0168 93.1126 86.2758 90.2555C86.5362 87.3825 86.1095 84.6696 85.2411 81.4285L83.3092 81.9462L81.3774 82.4638C82.1869 85.4849 82.4925 87.6831 82.2921 89.8944C82.0902 92.1218 81.3605 94.52 79.8518 97.911L81.6791 98.724ZM83.3092 81.9462L85.0413 82.9462L92.0903 70.737L90.3582 69.737L88.6262 68.737L81.5772 80.9462L83.3092 81.9462ZM64.9136 85.8956L62.9817 86.4132C63.9892 90.1732 63.9374 92.1131 63.3278 93.3069L65.109 94.2164L66.8902 95.126C68.2426 92.4775 67.8696 89.2003 66.8454 85.378L64.9136 85.8956ZM65.109 94.2164L63.4062 93.1674L63.3935 93.188L65.0963 94.237L66.7991 95.2861L66.8118 95.2655L65.109 94.2164ZM65.0963 94.237L63.3194 93.3191C63.2761 93.403 63.2271 93.4879 63.1717 93.5745L64.8574 94.6509L66.543 95.7272C66.6594 95.545 66.7701 95.3545 66.8732 95.155L65.0963 94.237ZM64.8574 94.6509L63.1253 93.651L56.3279 105.426L58.06 106.426L59.7921 107.426L66.5895 95.6508L64.8574 94.6509ZM58.06 106.426L59.8412 107.335C59.8622 107.294 59.8793 107.257 59.8927 107.226C59.9061 107.196 59.9168 107.169 59.9247 107.149C59.9326 107.129 59.9386 107.112 59.9422 107.102C59.9441 107.097 59.9456 107.093 59.9465 107.091C59.947 107.089 59.9474 107.088 59.9476 107.087C59.9479 107.087 59.9481 107.086 59.9481 107.086C59.9483 107.085 59.9477 107.087 59.947 107.089C59.9463 107.091 59.945 107.095 59.9433 107.099C59.9401 107.108 59.9344 107.124 59.927 107.143C59.9196 107.162 59.9093 107.188 59.8964 107.217C59.8834 107.247 59.8669 107.283 59.8465 107.323L58.0637 106.417L56.2808 105.51C56.26 105.551 56.2432 105.588 56.2299 105.618C56.2167 105.649 56.2061 105.675 56.1984 105.695C56.1906 105.715 56.1847 105.731 56.1812 105.741C56.1794 105.745 56.1779 105.75 56.1771 105.752C56.1766 105.753 56.1762 105.754 56.176 105.755C56.1759 105.755 56.1758 105.756 56.1757 105.756C56.1757 105.756 56.1756 105.756 56.1756 105.756C56.1755 105.757 56.1761 105.755 56.1768 105.753C56.1776 105.751 56.1789 105.747 56.1807 105.742C56.184 105.733 56.1897 105.717 56.1973 105.698C56.2049 105.678 56.2153 105.653 56.2284 105.623C56.2415 105.593 56.2582 105.557 56.2788 105.516L58.06 106.426ZM58.0637 106.417L56.26 105.552L56.2561 105.56L58.0598 106.425L59.8634 107.289L59.8673 107.281L58.0637 106.417ZM58.0598 106.425L56.2786 105.515C55.6457 106.755 54.0552 107.854 49.9706 108.949L50.4883 110.881L51.006 112.813C55.1338 111.707 58.3486 110.257 59.841 107.334L58.0598 106.425ZM50.4883 110.881L48.5565 111.399L48.5567 111.399L50.4886 110.882L52.4204 110.364L52.4202 110.363L50.4883 110.881ZM50.4886 110.882L49.9709 108.95L33.0852 113.475L33.6028 115.406L34.1204 117.338L51.0062 112.814L50.4886 110.882ZM33.6028 115.406L35.3349 116.406L42.3838 104.197L40.6518 103.197L38.9197 102.197L31.8708 114.406L33.6028 115.406ZM40.6518 103.197L41.1694 105.129L58.0533 100.605L57.5357 98.6732L57.018 96.7413L40.1341 101.265L40.6518 103.197ZM57.5357 98.6732L59.2677 99.6732L59.2684 99.672L57.5364 98.672L55.8043 97.672L55.8036 97.6732L57.5357 98.6732ZM57.5364 98.672L58.054 100.604C58.2167 100.56 58.3991 100.508 58.5172 100.475L57.9784 98.5484L57.4397 96.6224C57.2672 96.6706 57.1557 96.7034 57.0187 96.7401L57.5364 98.672ZM57.9784 98.5484L59.9158 98.0519C59.8856 97.934 59.8399 97.7492 59.7965 97.5871L57.8646 98.1048L55.9328 98.6224C55.9694 98.7592 55.9966 98.8713 56.0411 99.045L57.9784 98.5484ZM57.8646 98.1048L59.5967 99.1048L66.6456 86.8956L64.9136 85.8956L63.1815 84.8956L56.1326 97.1048L57.8646 98.1048ZM27.8742 95.8193L25.9424 96.3369C27.0075 100.312 28.3894 103.433 31.0947 104.995C33.7999 106.557 37.1942 106.193 41.1692 105.128L40.6515 103.196L40.1339 101.264C36.2106 102.316 34.2744 102.212 33.0947 101.531C31.9149 100.85 30.8573 99.2249 29.8061 95.3016L27.8742 95.8193ZM40.6515 103.196L38.9195 102.196L31.8705 114.405L33.6026 115.405L35.3346 116.405L42.3836 104.196L40.6515 103.196ZM33.6026 115.405L33.0849 113.474C29.1616 114.525 27.2254 114.421 26.0457 113.74C24.8659 113.059 23.8084 111.434 22.7571 107.511L20.8253 108.028L18.8934 108.546C19.9585 112.521 21.3404 115.643 24.0457 117.204C26.7509 118.766 30.1452 118.402 34.1202 117.337L33.6026 115.405ZM20.8253 108.028L22.5573 109.028L29.6063 96.8193L27.8742 95.8193L26.1422 94.8193L19.0932 107.028L20.8253 108.028ZM53.5101 26.2937L52.9924 24.3619C38.8945 28.1394 28.5366 33.4651 21.735 41.0505L23.224 42.3857L24.7131 43.7209C30.7839 36.9504 40.2972 31.9047 54.0277 28.2256L53.5101 26.2937ZM23.224 42.3857L21.3261 41.755C17.3569 53.6996 18.5987 68.9338 23.7523 88.1673L25.6842 87.6497L27.616 87.1321C22.5179 68.1054 21.5324 53.8187 25.122 43.0164L23.224 42.3857ZM25.6842 87.6497L23.7523 88.1673L25.9414 96.3372L27.8733 95.8195L29.8051 95.3019L27.616 87.1321L25.6842 87.6497ZM27.8733 95.8195L26.1412 94.8196L19.0925 107.03L20.8246 108.03L22.5567 109.03L29.6054 96.8194L27.8733 95.8195ZM20.8246 108.03L22.7564 107.512L20.5671 99.3412L18.6352 99.8589L16.7034 100.377L18.8927 108.547L20.8246 108.03ZM18.6352 99.8589L20.5671 99.3412C14.4451 76.4935 14.2637 60.5222 20.7599 49.1842L19.0246 48.1899L17.2893 47.1956C9.95661 59.9934 10.5303 77.3382 16.7034 100.377L18.6352 99.8589ZM19.0246 48.1899L20.9565 47.6723L20.9562 47.6713L19.0243 48.189L17.0925 48.7066L17.0927 48.7075L19.0246 48.1899ZM19.0243 48.189L20.7564 49.189L27.8054 36.9798L26.0733 35.9798L24.3413 34.9798L17.2923 47.189L19.0243 48.189ZM26.0733 35.9798L27.8087 36.9741C33.3157 27.3627 43.8898 20.6216 61.0767 16.0164L60.559 14.0845L60.0414 12.1527C42.4002 16.8797 30.6111 24.0371 24.338 34.9855L26.0733 35.9798ZM60.559 14.0845L58.827 13.0845L51.778 25.2937L53.5101 26.2937L55.2421 27.2937L62.2911 15.0845L60.559 14.0845ZM63.7261 64.4245L63.2085 62.4926C61.745 62.8847 60.3946 63.3511 59.1655 63.904L59.9859 65.7279L60.8063 67.5519C61.806 67.1023 62.9487 66.7033 64.2438 66.3563L63.7261 64.4245ZM59.9859 65.7279L57.9914 65.8771C58.1261 67.6782 58.4818 69.6191 59.0408 71.7055L60.9727 71.1879L62.9045 70.6703C62.3944 68.7665 62.0923 67.077 61.9803 65.5788L59.9859 65.7279ZM60.9727 71.1879L59.0408 71.7055L62.9815 86.4123L64.9133 85.8947L66.8452 85.377L62.9045 70.6702L60.9727 71.1879ZM64.9133 85.8947L63.1813 84.8947L56.1323 97.1038L57.8644 98.1038L59.5964 99.1038L66.6454 86.8947L64.9133 85.8947ZM57.8644 98.1038L59.7962 97.5862L55.8553 82.8785L53.9234 83.3961L51.9916 83.9137L55.9325 98.6215L57.8644 98.1038ZM53.9234 83.3961L55.8553 82.8785C54.3915 77.4149 54.6666 73.8477 56.084 71.4327L54.3592 70.4203L52.6343 69.4079C50.4148 73.1896 50.4204 78.049 51.9916 83.9137L53.9234 83.3961ZM54.3592 70.4203L56.1038 71.3983L56.1304 71.3507L54.3859 70.3727L52.6413 69.3947L52.6146 69.4423L54.3592 70.4203ZM54.3859 70.3727L52.667 69.3502C52.6626 69.3576 52.6458 69.3856 52.6325 69.4083L54.3573 70.4208L56.0821 71.4333C56.0877 71.4238 56.0901 71.4199 56.1047 71.3952L54.3859 70.3727ZM54.3573 70.4208L56.0894 71.4208L63.1383 59.2116L61.4063 58.2116L59.6742 57.2116L52.6253 69.4208L54.3573 70.4208ZM61.4063 58.2116L63.1311 59.224C64.4314 57.0088 66.9596 55.3082 71.2927 54.1471L70.7751 52.2153L70.2575 50.2834C65.4398 51.5743 61.7388 53.6942 59.6815 57.1992L61.4063 58.2116ZM70.7751 52.2153L69.0431 51.2153L61.9941 63.4245L63.7261 64.4245L65.4582 65.4245L72.5072 53.2153L70.7751 52.2153ZM70.777 52.2148L71.2946 54.1466C75.8066 52.9377 78.9174 53.2123 81.1836 54.6318C83.4905 56.0767 85.4143 59.0098 86.8218 64.2626L88.7537 63.745L90.6855 63.2274C89.174 57.5862 86.8756 53.4771 83.3069 51.2419C79.6977 48.9812 75.2796 48.9378 70.2594 50.2829L70.777 52.2148ZM88.7537 63.745L87.0216 62.745L87.0202 62.7474L88.7523 63.7474L90.4843 64.7474L90.4857 64.745L88.7537 63.745ZM88.7523 63.7474L86.8204 64.265L88.4252 70.254L90.357 69.7363L92.2889 69.2187L90.6841 63.2297L88.7523 63.7474ZM90.357 69.7363L88.6249 68.7364L81.5762 80.9465L83.3083 81.9464L85.0404 82.9463L92.0891 70.7362L90.357 69.7363ZM83.3083 81.9464L85.2401 81.4288L83.6347 75.437L81.7028 75.9547L79.771 76.4723L81.3764 82.4641L83.3083 81.9464ZM81.7028 75.9547L83.6622 76.3556L83.6626 76.3535L81.7032 75.9525L79.7438 75.5516L79.7434 75.5537L81.7028 75.9547ZM81.7032 75.9525L83.6351 75.4348C82.1235 69.7944 79.8253 65.6858 76.2569 63.4508C72.648 61.1905 68.2303 61.1471 63.2104 62.4921L63.728 64.4239L64.2456 66.3558C68.7574 65.147 71.8677 65.4216 74.1337 66.8408C76.4402 68.2855 78.3639 71.2181 79.7714 76.4703L81.7032 75.9525ZM63.728 64.4239L65.4601 65.4239L72.5091 53.2148L70.777 52.2148L69.0449 51.2148L61.996 63.4239L63.728 64.4239ZM60.5602 14.0852L61.0779 16.0171C80.4071 10.8378 94.1622 12.1866 104.196 18.7351C114.283 25.3186 121.091 37.462 125.787 54.9886L127.719 54.4709L129.651 53.9533C124.86 36.0741 117.698 22.7704 106.382 15.3854C95.0129 7.96527 79.932 6.82406 60.0426 12.1534L60.5602 14.0852ZM127.719 54.4709L125.987 53.4709L125.986 53.4721L127.718 54.4721L129.451 55.4721L129.451 55.4709L127.719 54.4709ZM127.718 54.4721L125.787 54.9898L126.516 57.7121L128.448 57.1944L130.38 56.6768L129.65 53.9545L127.718 54.4721ZM128.448 57.1944L126.716 56.1944L119.667 68.4036L121.399 69.4036L123.131 70.4036L130.18 58.1944L128.448 57.1944ZM121.399 69.4036L123.331 68.886L122.601 66.1618L120.669 66.6794L118.737 67.197L119.467 69.9213L121.399 69.4036ZM120.669 66.6794L122.601 66.1618C117.81 48.283 110.648 34.9795 99.3324 27.5946C87.9633 20.1746 72.8828 19.0333 52.9936 24.3626L53.5112 26.2944L54.0289 28.2263C73.3579 23.0471 87.1127 24.3959 97.1462 30.9443C107.233 37.5277 114.041 49.6709 118.737 67.1971L120.669 66.6794ZM53.5112 26.2944L55.2433 27.2944L62.2923 15.0852L60.5602 14.0852L58.8282 13.0852L51.7792 25.2944L53.5112 26.2944Z" fill="#102775"/>
<path d="M107.474 164.503C109.59 172.401 107.995 175.164 100.097 177.28L82.6662 181.951C74.7679 184.067 72.0053 182.472 69.8889 174.574L65.9482 159.867C62.5182 147.066 62.7124 142.344 69.3596 126.843L81.6766 98.7304C84.7741 91.7703 84.9878 88.2102 83.3093 81.946L81.7038 75.9542C78.7847 65.0601 73.2594 61.8701 63.727 64.4243C54.1947 66.9784 51.0046 72.5037 53.9237 83.3979L57.8645 98.105C59.9808 106.003 58.3858 108.766 50.4875 110.882L33.6016 115.407C25.7033 117.523 22.9407 115.928 20.8243 108.03L18.635 99.8593C7.25061 57.3721 15.6531 36.4385 53.5103 26.2947C92.7292 15.786 111.183 31.2749 120.67 66.6809L121.4 69.4045C125.122 83.2945 124.694 90.4148 118.772 104.262L107.378 130.375C102.506 141.606 102.146 144.621 104.701 154.154L107.474 164.503ZM120.327 204.845L122.224 211.927C125.216 223.093 121.229 230 110.062 232.992L102.981 234.889C92.0868 237.808 84.9079 233.894 81.9158 222.727L80.0184 215.646C77.0993 204.752 81.2862 197.5 92.1804 194.581L99.2616 192.683C110.428 189.691 117.408 193.951 120.327 204.845Z" fill="#FF6752" stroke="#102775" stroke-width="4"/>
</g>
<defs>
<clipPath id="clip0_313_6158">
<rect width="171" height="225" fill="white"/>
</clipPath>
</defs>
</svg>
