<svg width="101" height="96" viewBox="0 0 101 96" fill="none" xmlns="http://www.w3.org/2000/svg">
<path fill-rule="evenodd" clip-rule="evenodd" d="M46.6523 9.06372L60.4511 37.0231L91.3061 41.5065L98.3699 34.4428L67.5148 29.9594L53.7161 2L46.6523 9.06372Z" fill="#102775" stroke="#102775" stroke-width="4" stroke-linejoin="round"/>
<path fill-rule="evenodd" clip-rule="evenodd" d="M91.3075 41.5065L68.9805 63.2697L76.0442 56.206L98.3712 34.4428L91.3075 41.5065Z" fill="#102775" stroke="#102775" stroke-width="4" stroke-linejoin="round"/>
<path fill-rule="evenodd" clip-rule="evenodd" d="M68.9805 63.2689L74.2512 93.9992L81.315 86.9355L76.0442 56.2051L68.9805 63.2689Z" fill="#102775" stroke="#102775" stroke-width="4" stroke-linejoin="round"/>
<path fill-rule="evenodd" clip-rule="evenodd" d="M74.2511 94L46.6536 79.4912L19.0562 94L24.3268 63.2697L2 41.5065L9.06372 34.4428L31.3905 56.206L26.1199 86.9363L53.7173 72.4275L81.3149 86.9363L74.2511 94Z" fill="#102775" stroke="#102775" stroke-width="4" stroke-linejoin="round"/>
<path fill-rule="evenodd" clip-rule="evenodd" d="M2 41.5066L32.855 37.0232L39.9187 29.9595L9.06372 34.4429L2 41.5066Z" fill="#102775" stroke="#102775" stroke-width="4" stroke-linejoin="round"/>
<path fill-rule="evenodd" clip-rule="evenodd" d="M32.8555 37.0231L46.6541 9.06372L53.7178 2L39.9192 29.9594L32.8555 37.0231Z" fill="#102775" stroke="#102775" stroke-width="4" stroke-linejoin="round"/>
<path d="M46.6536 9.06293L60.4524 37.0223L91.3074 41.5057L68.9804 63.2689L74.2512 93.9992L46.6536 79.4904L19.0562 93.9992L24.3268 63.2689L2 41.5057L32.855 37.0223L46.6536 9.06293Z" fill="#FFBC5E" stroke="#102775" stroke-width="3" stroke-linejoin="round"/>
</svg>
