<svg width="930" height="930" viewBox="0 0 930 930" fill="none" xmlns="http://www.w3.org/2000/svg">
<g clip-path="url(#clip0_259_2946)">
<g clip-path="url(#clip1_259_2946)">
<path d="M70.7959 213.812C63.6564 209.878 50.6052 197.098 43.4657 189.724C41.7427 188.004 41 185.79 41 183.576C41 165.141 53.8036 102.701 59.9628 81.0736C60.2104 80.095 60.2104 78.8594 60.2104 77.8809C60.2104 72.7212 59.2202 64.606 59.2202 63.1332C59.2202 61.1662 60.2104 59.4463 62.171 58.7049C75.9649 52.8039 92.7096 48.8699 103.295 48.8699C141.221 48.8699 171.502 89.6731 171.502 120.641C171.502 169.065 129.15 211.836 79.8961 215.275C76.6977 215.275 73.4893 215.028 70.786 213.803L70.7959 213.812ZM137.527 109.837C137.527 91.4029 122.01 80.3421 105.266 80.3421C103.543 80.3421 102.067 80.3421 100.344 80.5892C97.3934 81.0834 95.9081 82.3091 95.4228 84.7704C89.5112 108.859 81.629 143.03 76.7076 175.47C76.7076 175.47 76.46 176.943 76.46 177.438C76.46 179.405 77.6879 180.146 79.906 180.146C98.3737 180.146 137.527 156.304 137.527 109.847V109.837Z" fill="#DB433B"/>
<path d="M258.186 114.997C258.186 114.503 258.434 113.771 258.434 113.771C260.157 107.376 261.632 101.732 261.632 95.3368C261.632 86.9745 259.167 80.0949 251.78 80.0949C235.035 80.0949 213.854 116.233 213.854 149.662C213.854 173.009 224.687 181.371 235.768 181.371C246.848 181.371 262.118 170.311 268.267 165.151C268.267 165.151 269.742 163.678 271.218 163.678C272.941 163.678 273.931 164.172 274.911 165.398C277.129 168.106 282.298 179.652 283.289 182.113C284.031 183.833 284.516 185.058 284.516 186.778C284.516 188.251 284.021 189.487 283.041 190.712C275.654 200.547 256.444 215.542 238.719 215.542C222.954 215.542 196.862 202.514 187.256 188.014C180.85 178.179 177.156 165.645 177.156 151.876C177.156 106.892 204.981 50.1152 243.64 50.1152C254.968 50.1152 298.063 64.6158 298.063 86.2529C298.063 95.5938 293.627 106.655 290.923 113.05C289.943 115.511 287.477 117.231 284.516 117.231C280.823 117.725 265.306 117.972 261.613 117.972C259.642 117.972 258.167 116.747 258.167 115.027L258.186 114.997Z" fill="#DB433B"/>
<path d="M166.343 252.836V258.985C166.343 301.013 152.311 403.269 100.344 403.269C79.906 403.269 59.4677 389.499 52.3282 379.427C46.9116 371.806 44.446 359.273 44.446 347.718C44.446 307.409 59.9628 257.996 67.8351 243.248C69.3106 240.787 71.0336 239.314 74.2419 239.314C78.9158 239.314 91.9768 243.496 98.1262 245.71C100.097 246.451 101.077 248.655 101.077 250.622C101.077 251.848 100.582 253.331 100.582 253.331C90.7292 279.88 79.6485 326.09 79.6485 349.191C79.6485 361.971 82.1142 370.818 91.957 370.818C105.989 370.818 113.871 349.922 120.278 324.361C127.665 295.112 132.101 257.255 133.329 244.474C133.576 242.013 135.299 240.54 137.517 240.54C141.211 240.54 155.985 244.227 161.897 246.441C164.848 247.667 166.085 250.375 166.333 252.836H166.343Z" fill="#DB433B"/>
<path d="M220.023 404C208.2 404 188.999 399.334 177.424 389.499C169.541 382.867 166.095 374.258 164.125 360.983C164.125 360.983 163.877 358.769 163.877 357.79C163.877 354.834 165.6 353.124 168.313 351.889C178.166 348.202 188.257 346.729 190.475 346.482C193.673 346.482 194.663 348.696 195.149 350.416C198.595 362.703 199.585 374.258 215.834 374.258C227.41 374.258 235.045 367.625 235.045 361.23C235.045 341.322 175.701 337.635 175.701 296.338C175.701 270.283 199.09 238.326 224.707 238.326C241.699 238.326 284.051 252.332 284.051 274.948C284.051 282.569 279.13 295.35 276.416 300.025C274.693 303.465 273.466 304.206 270.505 304.453C266.811 304.947 251.79 304.947 247.848 304.947C244.402 304.947 243.175 303.722 243.175 301.755C243.175 299.788 246.621 287.254 246.621 279.88C246.621 270.292 241.452 267.1 236.035 267.1C223.231 267.1 213.131 284.556 213.131 294.134C213.131 319.448 271.743 318.964 271.743 357.306C271.743 382.135 245.888 404.01 220.033 404.01L220.023 404Z" fill="#DB433B"/>
<path d="M649.108 154.1C649.108 206.626 587.546 281.739 525.973 321.662C523.864 323.234 522.814 324.291 522.814 325.339C522.814 326.387 524.389 326.387 527.548 326.387C529.132 326.387 553.858 324.815 568.068 324.815C575.96 324.815 583.327 324.815 589.645 325.339C595.428 325.863 600.171 330.064 601.221 335.323C603.855 346.354 607.013 366.834 609.113 382.6C609.113 387.849 605.429 391.526 599.646 392.05C566.493 394.145 460.727 400.451 427.05 402.033C421.267 402.033 414.949 399.928 412.315 394.679C407.057 383.124 398.105 350.555 398.105 346.354C398.105 341.629 400.739 336.904 404.423 334.275C505.456 271.765 575.435 173.019 576.495 136.773C575.97 121.017 563.859 115.234 552.294 115.234C533.875 115.234 504.931 134.667 483.364 168.808C481.789 171.438 479.155 173.009 475.997 173.009C472.838 173.009 469.679 170.914 469.679 170.914C457.578 163.036 443.369 151.481 435.476 142.545C432.842 139.916 431.268 136.239 431.268 132.038C431.268 130.466 431.793 127.837 432.318 126.265C442.309 101.574 481.77 48 533.341 48C581.228 48 649.108 100.002 649.108 154.1Z" fill="#3D9CFB"/>
<path d="M864.848 247.074C871.166 247.074 873.79 251.275 874.85 256.523C876.949 268.602 879.583 291.722 879.583 305.896C879.583 310.621 876.424 315.356 870.631 315.356C867.997 315.356 847.48 315.88 844.846 315.88C838.528 315.88 835.379 320.604 834.32 325.863C831.161 348.449 827.477 371.035 824.853 393.097C824.328 398.356 820.645 401.499 815.912 401.499C806.96 401.499 775.391 392.05 764.865 387.839C758.548 385.743 755.399 379.961 755.399 374.712C755.924 362.633 759.082 330.588 759.082 328.492C759.082 324.291 755.924 321.662 752.24 321.662C740.139 321.662 669.625 328.492 665.417 328.492C659.099 328.492 654.366 325.863 652.267 321.138C647.009 310.631 635.433 278.071 635.433 270.184C635.433 265.459 637.017 260.2 639.641 257.057C677.527 206.636 759.092 89.4951 783.818 57.4594C786.452 54.3063 789.601 52.2107 793.82 52.2107C798.553 52.2107 808.554 59.0409 812.238 59.0409C814.337 59.0409 815.921 57.9932 816.971 55.8878C818.555 52.7346 822.239 50.1152 826.448 50.1152C832.765 50.1152 868.542 60.0986 882.227 64.8234C886.435 66.4049 888.01 70.0819 888.01 73.7589C888.01 74.8067 887.485 77.436 887.485 77.436C878.019 105.804 863.284 164.103 849.599 236.062C849.599 236.062 849.074 239.215 849.074 240.787C849.074 243.94 851.173 247.093 854.857 247.093H864.858L864.848 247.074ZM719.622 252.322C719.622 253.904 721.206 255.475 723.83 255.475C724.88 255.475 749.091 252.846 761.716 251.798C766.975 251.275 770.133 248.645 771.183 243.397C776.966 210.827 787.492 159.883 787.492 156.206C787.492 154.624 787.492 153.576 786.967 153.576C785.918 153.576 784.333 155.672 784.333 155.672C778.016 164.074 726.454 240.767 721.186 248.645C720.137 250.227 719.602 251.275 719.602 252.322H719.622Z" fill="#3D9CFB"/>
<path d="M382.945 60.9487C387.252 63.1331 390.827 65.5351 390.213 70.9715C390.213 70.9715 353.515 395.351 353.466 395.786C352.773 401.934 348.168 404.099 343.395 403.397C340.276 402.942 337.563 401.39 334.79 400.007C330.067 397.634 324.977 395.865 320.452 393.127C316.521 390.834 311.857 387.374 311.896 382.323C311.896 381.997 311.926 381.681 311.966 381.355L348.713 56.5402C348.743 56.2832 348.782 56.0361 348.822 55.7988C349.931 50.0461 356.526 47.1894 361.724 49.8978L382.945 60.9487Z" fill="black"/>
</g>
<path d="M408 398.5L420 405.5L427.5 406L441 407.5L446.5 405.5L438.5 395.5L423.5 392L408 398.5Z" fill="white"/>
<g clip-path="url(#clip2_259_2946)">
<path d="M613.244 899.374L587.727 855.213L618.241 822.276L670.873 834.435L698.189 812.121L760.949 759.342L784.2 824.28L767.011 893.294L725.505 917.613L679.001 924.761L624.37 922.69L613.244 899.374Z" fill="#DB433B"/>
<path d="M331.492 784.663L328.894 830.36L345.083 875.055L378.462 896.301L438.157 904.451L474.6 881.135L494.587 830.694L479.663 786.734L420.968 797.891L331.492 784.663Z" fill="#DB433B"/>
<path d="M482.661 604.612C459.543 606.884 436.691 611.293 414.772 619.845C380.261 633.207 342.818 654.251 325.829 688.858C310.306 727.474 321.165 771.434 353.145 798.96C403.845 843.989 535.361 877.394 661.946 838.912C714.045 823.078 786.066 785.999 782.335 721.194C778.67 657.993 707.45 623.786 654.684 610.091C619.24 600.871 584.129 602.474 547.819 602.341C526.167 602.274 504.314 602.541 482.728 604.612H482.661Z" fill="#DB433B"/>
<path d="M515.507 676.165C515.507 676.165 516.106 676.365 516.373 676.432H516.906L515.507 676.165ZM631.632 411.267C628.767 410.064 627.035 410.398 626.569 411.334C626.569 411.334 626.635 411.4 626.702 411.4C626.835 411.4 627.102 411.534 627.235 411.601C627.235 411.601 627.235 411.668 627.301 411.668C650.287 422.023 660.88 448.88 651.019 472.197C641.026 495.78 613.843 506.804 590.325 496.782C583.796 493.976 578 489.701 573.336 484.289C591.591 470.593 624.636 441.798 626.502 412.135C626.569 411.868 626.569 411.601 626.569 411.334C625.436 411.334 624.17 413.004 623.637 416.211C619.107 435.719 604.649 451.553 589.792 465.182C585.995 468.656 582.064 471.929 578.066 475.069L569.539 481.817C568.872 482.619 566.807 483.354 567.407 484.222L569.805 487.028C571.204 488.698 573.603 491.17 574.669 492.039C583.13 499.789 594.256 504.399 605.715 505C628.834 506.737 651.486 490.035 656.816 467.787C663.078 445.607 651.552 420.754 631.632 411.267ZM442.421 411.801C439.622 410.398 437.823 410.665 437.357 411.668C437.424 411.668 437.49 411.734 437.557 411.734C437.624 411.734 437.624 411.734 437.69 411.801C437.757 411.868 437.89 411.935 437.957 412.002H438.023C460.609 423.426 469.87 450.884 458.81 473.8C453.68 484.489 444.619 492.774 433.56 496.983C415.171 503.597 394.585 498.185 381.793 483.287C398.582 470.66 433.027 442.133 437.224 412.336C437.224 412.135 437.224 411.935 437.357 411.734C436.291 411.534 434.892 413.071 434.093 416.211C428.23 435.318 413.706 450.617 398.782 464.046C394.918 467.386 391.054 470.66 386.99 473.8L378.795 480.147L375.797 482.418C374.931 482.819 375.863 483.287 376.197 483.755L377.462 485.091C379.195 486.961 380.727 488.899 382.592 490.569C390.854 498.319 401.78 503.263 413.106 504.198C435.958 506.804 459.076 490.903 465.073 468.99C472.068 447.277 461.675 422.157 442.421 411.801Z" fill="black"/>
<path d="M561.477 642.894C557.813 641.958 550.484 641.691 547.553 644.297C544.821 646.702 542.956 650.577 542.09 654.051C541.557 656.189 541.157 658.193 540.491 659.462C539.625 660.999 538.492 662.536 537.226 663.872C532.229 669.484 524.701 671.755 518.372 668.882L517.839 668.615H517.572C517.572 668.615 517.839 668.749 517.972 668.816L516.639 668.615H517.572C514.774 667.413 512.375 665.475 510.643 663.07C509.71 661.801 508.911 660.398 508.378 658.995C508.045 657.992 507.179 654.652 505.513 652.648C502.382 648.172 496.719 645.7 491.256 646.435C485.859 646.969 480.862 650.777 478.73 655.855C476.199 660.999 478.131 667.212 479.73 670.686C481.329 674.695 483.594 678.436 486.192 681.843C491.456 688.725 498.584 694.069 506.579 697.209C522.569 704.024 542.29 699.748 554.348 687.923C560.544 682.111 565.141 674.895 567.673 666.811C569.072 662.87 569.472 658.46 569.205 654.118C568.939 650.309 567.14 646.368 564.009 644.096C563.076 643.428 562.277 643.027 561.477 642.827V642.894ZM516.373 676.432C516.373 676.432 515.773 676.298 515.507 676.165L516.906 676.432H516.373Z" fill="black"/>
<path d="M510.51 830.694C508.578 856.148 499.051 881.936 478.397 899.374C457.344 914.339 431.095 921.688 405.311 919.884C379.594 917.813 354.078 907.858 335.556 889.085C316.901 870.379 308.041 843.521 308.84 817.466C309.107 812.856 309.64 808.313 310.506 803.837C312.171 794.216 315.103 784.863 319.033 775.977C323.764 765.288 329.96 755.267 337.355 746.247C341.552 741.303 346.083 736.76 350.48 732.017L365.137 719.524L381.127 708.701C383.059 706.897 388.522 704.492 392.653 705.36C397.05 705.828 401.181 708.3 403.712 711.907C409.309 719.19 405.977 730.948 398.516 734.689C393.519 738.163 388.122 741.237 383.392 745.112C373.931 752.661 364.937 760.945 357.942 770.766C343.551 789.874 336.089 814.66 341.419 837.709C344.017 849.133 349.68 859.823 357.942 868.107C366.27 876.258 376.863 882.07 388.189 885.745C410.574 893.227 437.157 890.087 456.611 878.997C474.333 863.698 484.26 839.045 481.529 815.395C480.796 809.449 479.73 803.569 477.265 798.759C474.8 793.882 470.802 790.208 466.139 789.206C456.345 787.268 446.485 796.822 440.555 806.576C439.023 809.181 437.424 811.72 436.225 814.459L434.293 818.602C433.56 820.205 432.427 822.142 431.028 823.612C425.498 829.291 415.704 831.295 408.842 824.882C405.578 821.808 405.178 816.063 405.311 813.925C405.311 812.722 404.045 811.587 401.98 811.186C401.047 811.052 399.981 811.186 399.182 811.453C398.715 811.653 398.649 811.653 398.516 811.854L397.45 813.19C394.851 816.464 394.052 821.14 395.318 825.149C396.583 829.157 400.781 831.496 401.847 835.705C403.579 844.123 397.916 852.14 389.721 853.743C385.657 854.545 381.26 852.808 378.662 850.67C375.664 848.799 373.265 846.06 371.333 843.12C367.469 837.174 366.003 830.159 366.136 823.545C366.47 810.25 371.333 796.755 382.592 788.203C388.322 784.262 395.184 782.591 401.98 782.792C405.311 782.925 408.709 783.594 411.907 784.729C413.506 785.331 415.038 785.999 416.504 786.8C417.303 787.268 417.903 787.669 418.436 788.07L420.435 784.997C421.701 783.193 422.966 781.522 424.366 779.919C427.23 776.645 430.362 773.706 433.826 771.167C442.82 764.887 458.011 759.141 469.137 760.878C472.535 761.079 476.532 761.413 480.663 763.484C493.188 768.628 501.449 780.454 505.647 792.546C509.91 804.772 511.443 817.867 510.51 830.694Z" fill="black"/>
<path d="M515.507 676.165L516.906 676.432H516.373C516.373 676.432 515.773 676.298 515.507 676.165Z" fill="#202020"/>
<path d="M517.905 668.883L516.573 668.682H517.506C517.506 668.682 517.772 668.816 517.905 668.883Z" fill="#202020"/>
<path d="M799.857 832.698C800.59 857.551 792.728 883.34 775.672 902.18C767.278 911.466 757.218 919.216 746.358 925.363C735.298 931.242 723.573 935.584 711.514 938.591C687.329 944.203 661.946 944.604 637.695 938.724C613.777 933.112 589.326 919.951 576.667 896.768C570.471 885.277 568.206 871.915 569.206 859.088L570.671 849.601C571.138 847.196 571.271 843.722 572.204 840.381C573.869 833.901 577 827.754 581.331 822.543C589.925 812.121 603.383 806.042 616.908 806.309C623.637 806.442 630.299 808.179 636.296 811.186C639.36 812.656 642.159 814.593 644.757 816.731C645.956 817.6 647.555 819.337 648.155 819.804C648.554 819.47 650.287 817.867 651.419 816.998C653.951 815.061 656.749 813.391 659.681 812.054C665.41 809.382 672.272 808.246 678.202 808.38C690.327 808.447 702.253 810.718 713.513 815.796C719.042 818.401 724.572 821.875 728.836 827.153C733.233 832.298 735.498 839.646 734.832 846.461C734.499 854.612 726.637 861.359 719.042 861.359C715.178 861.493 711.047 860.491 707.783 857.485C704.452 854.545 703.119 849.668 703.452 846.127C703.452 846.127 703.319 845.927 703.252 845.86C702.653 845.392 701.787 844.791 700.654 844.323C698.456 843.321 695.857 842.586 693.192 841.918C687.862 840.849 681.866 839.446 677.402 840.114C674.871 840.448 672.272 840.983 670.274 841.918C668.075 842.987 667.609 843.922 667.809 843.855C667.809 844.056 668.075 844.724 668.741 845.726C669.807 847.463 670.673 849.334 671.073 851.472C672.006 855.814 670.274 860.625 667.342 863.497C661.812 869.377 652.019 870.713 645.356 865.301C641.892 862.295 640.759 859.622 639.094 857.418C637.495 855.079 635.829 852.741 634.03 850.603C627.435 842.118 617.508 833.767 610.379 838.377C609.579 839.045 608.38 839.713 608.247 840.114C607.381 841.116 606.581 842.185 605.915 843.321C604.449 845.459 603.317 847.864 602.384 850.336C600.452 855.213 599.653 860.558 599.919 865.836C600.319 876.458 605.782 886.413 613.777 893.561C630.299 907.925 654.151 913.136 676.603 913.003C699.255 912.802 722.24 906.723 740.695 893.762C759.749 881.068 768.677 858.687 770.676 836.039C772.341 813.391 765.346 790.275 751.355 772.303C737.497 754.398 716.844 741.838 694.391 737.896C689.794 737.562 685.131 734.556 683.199 730.28C681.267 726.138 681.133 721.127 683.465 717.119C687.196 710.705 697.923 712.108 704.052 712.843C710.048 713.578 716.111 714.981 721.774 716.985C735.232 721.728 747.757 729.144 758.484 738.498C765.945 744.978 772.541 752.327 778.071 760.545C778.404 761.079 778.804 761.614 779.137 762.148C793.061 783.059 798.391 808.113 799.857 832.698Z" fill="black"/>
<path d="M631.632 411.267C628.767 410.064 627.035 410.398 626.569 411.334C625.436 411.334 624.17 413.004 623.637 416.211C619.107 435.719 604.649 451.553 589.792 465.182C585.995 468.656 582.064 471.929 578.067 475.069L569.539 481.817C568.872 482.619 566.807 483.354 567.407 484.222L569.805 487.028C571.204 488.698 573.603 491.17 574.669 492.039C583.13 499.789 594.256 504.399 605.715 505C628.834 506.737 651.486 490.035 656.816 467.787C663.078 445.607 651.552 420.754 631.632 411.267ZM628.301 416.945C628.367 416.077 628.367 415.275 628.301 414.607C628.634 414.874 629.034 415.075 629.433 415.342C646.689 425.363 654.95 447.277 649.021 465.516C643.824 484.022 625.036 497.116 606.182 495.713C596.854 495.246 587.66 491.571 580.665 485.358C579.732 484.489 580.132 485.024 579.999 484.757C580.198 484.556 579.732 484.89 580.465 484.356L583.53 481.817C587.594 478.41 591.524 474.869 595.322 471.128C610.179 456.43 624.77 438.992 628.301 416.945Z" fill="#202020"/>
<path d="M588.654 519.43C588.654 519.43 588.588 519.497 588.588 519.563C588.521 519.762 588.124 519.895 587.594 519.962C587.925 519.563 588.256 519.364 588.521 519.364H588.654V519.43Z" fill="#202020"/>
<path d="M442.421 411.801C439.622 410.398 437.823 410.665 437.357 411.668C436.291 411.534 434.892 413.071 434.093 416.211C428.23 435.318 413.706 450.617 398.782 464.046C394.918 467.386 391.054 470.66 386.99 473.8L378.795 480.147L375.797 482.418C374.931 482.819 375.863 483.287 376.197 483.755L377.462 485.091C379.195 486.961 380.727 488.899 382.592 490.569C390.854 498.319 401.78 503.263 413.106 504.198C435.958 506.804 459.076 490.903 465.073 468.99C472.068 447.277 461.675 422.157 442.421 411.801ZM438.69 417.346C438.823 416.411 438.889 415.543 438.889 414.874C439.223 415.208 439.622 415.476 440.022 415.743C456.678 426.499 463.94 448.613 457.344 466.451C451.481 484.69 432.627 497.05 413.906 494.912C404.578 494.177 395.584 490.235 388.722 483.955C384.791 486.427 397.45 476.806 404.245 470.059C419.169 455.561 433.759 438.725 438.69 417.346Z" fill="#202020"/>
<path d="M424.896 521.167C424.896 521.167 424.763 521.633 424.432 521.832C424.498 521.433 424.697 521.234 424.896 521.167Z" fill="#202020"/>
<path d="M424.896 521.167C424.896 521.167 424.763 521.633 424.432 521.832C424.498 521.433 424.697 521.234 424.896 521.167Z" fill="#202020"/>
<path d="M880.672 666.345C878.873 662.203 876.208 658.394 873.21 654.987C867.28 648.173 859.952 642.828 852.69 637.55C839.831 628.264 824.908 621.85 809.318 619.311C794.394 616.706 778.804 617.307 764.08 621.249C756.752 623.186 749.623 625.992 742.827 629.466C742.761 629.466 742.694 629.533 742.561 629.533C715.511 608.421 684.398 594.859 652.752 585.238C637.229 580.695 621.505 577.155 605.716 574.549C606.782 564.995 608.114 555.575 609.846 546.155C610.779 540.877 611.845 535.666 613.044 530.455L613.91 526.58C613.91 526.58 613.977 526.38 614.044 526.38C614.843 526.38 617.974 526.179 619.906 525.778C642.625 522.438 663.145 507.406 673.539 486.829C683.865 466.252 684.132 440.73 673.272 420.287C662.945 399.71 642.225 384.878 619.507 381.604C596.921 378.13 572.87 386.014 557.08 402.583C541.024 418.75 533.562 442.868 537.56 465.116C541.29 487.43 556.214 507.339 576.335 517.026C581.931 519.699 585.862 520.233 587.594 519.966C587.927 519.565 588.26 519.365 588.527 519.365H588.66V519.498C588.66 519.498 588.593 519.498 588.593 519.565C588.527 519.766 588.127 519.899 587.594 519.966C586.595 521.169 585.329 524.108 584.13 528.985C580.998 542.681 578.6 556.644 576.934 570.674C565.208 569.472 553.483 568.67 541.757 568.269C519.838 567.601 497.918 568.269 476.066 570.34L462.741 541.078L455.346 524.91L451.881 517.427C451.881 517.427 452.015 517.026 452.881 516.626C463.807 510.412 473.068 501.326 479.597 490.503C493.055 469.058 493.788 440.33 481.529 418.082C469.47 395.701 445.286 380.469 419.902 380.001C394.585 378.865 369.535 392.428 356.343 413.873C342.685 435.119 341.752 463.446 353.412 485.493C364.804 507.606 388.256 522.839 412.84 523.641C419.369 523.908 423.167 522.705 424.432 521.77C424.499 521.369 424.699 521.169 424.899 521.102C424.899 521.102 424.766 521.569 424.432 521.77C424.099 523.106 424.832 526.179 426.898 530.99L441.355 563.592L446.085 574.215C440.755 575.017 435.425 575.952 430.095 576.954C393.452 584.17 356.743 594.926 323.364 614.768C307.641 624.522 292.051 635.412 279.459 650.511C277.127 649.642 274.729 648.841 272.33 648.373C264.336 646.77 256.141 646.235 248.146 647.371C232.156 649.375 217.233 656.257 204.774 665.944C202.442 667.748 200.177 669.685 198.045 671.623C186.652 682.112 177.791 695.139 171.862 709.437C168.93 716.518 166.732 723.867 165.333 731.417C164.134 738.966 163.667 746.582 164.2 754.199C164.533 759.677 165.333 765.289 170.996 767.761C176.725 770.3 184.187 768.696 187.785 763.351C190.783 759.744 190.517 754.466 190.85 751.593C191.05 748.119 191.383 744.712 192.182 741.371C194.78 727.809 200.443 714.915 208.705 704.025C217.033 693.336 228.092 684.717 240.618 680.441C246.947 678.771 253.476 677.502 259.872 678.504C260.471 678.504 261.004 678.571 261.537 678.638C257.54 687.657 254.875 697.478 254.209 707.766C254.142 708.902 254.076 710.038 254.076 711.174C232.956 719.257 216.7 738.031 206.906 758.007C195.247 782.125 189.917 809.984 196.779 837.109C199.311 846.462 210.97 851.139 219.165 846.395C223.229 844.19 226.227 840.182 227.093 835.572C227.559 833.301 227.493 831.029 226.96 828.691L226.027 824.215C223.629 812.256 224.561 799.562 227.959 787.603C231.357 775.578 236.82 764.02 244.282 753.998C248.146 749.188 252.277 744.444 257.207 740.77C257.607 740.503 258.006 740.169 258.406 739.968C261.604 749.722 266.334 758.875 271.997 766.826C282.924 781.858 296.115 794.217 310.506 803.771C312.171 794.15 315.103 784.797 319.034 775.912C307.441 767.026 297.381 756.671 290.252 744.845C283.057 733.221 280.325 719.859 281.791 706.898C283.323 694.004 289.519 681.444 298.247 670.42C314.437 651.313 337.222 636.882 361.473 626.126C385.857 615.369 411.907 608.154 438.423 603.277C474.533 596.663 511.843 594.926 548.686 596.796C572.004 598.4 595.522 600.271 618.441 605.014C646.689 611.16 674.538 620.113 699.455 633.608C711.781 640.49 723.973 647.839 734.033 657.192C740.562 662.937 746.691 669.284 751.688 676.5C757.151 684.383 762.814 692.534 765.946 701.687C770.476 714.915 765.213 727.208 758.484 738.432C765.946 744.912 772.541 752.261 778.071 760.479C784.201 746.716 785.6 728.344 783.801 713.846C786.066 714.915 788.131 716.251 790.263 717.587C799.591 723.734 807.519 731.818 813.248 741.304C819.045 750.725 822.776 761.414 823.908 772.304C824.308 775.043 824.375 777.849 824.375 780.588C824.175 783.795 825.374 788.672 828.106 791.678C833.302 798.226 844.029 799.161 850.291 793.482C853.423 790.81 855.421 786.868 855.754 782.726C855.821 779.052 855.555 776.446 855.421 773.239C854.888 767.16 853.889 761.147 852.423 755.201C849.359 743.376 844.162 732.152 837.1 722.264C824.841 704.626 806.853 691.198 786.865 684.383C786.066 681.844 785.067 679.372 783.734 677.168C779.604 667.748 773.674 659.931 767.211 652.782H767.478C774.007 650.444 780.803 649.041 787.732 648.707C801.456 647.772 815.514 650.845 827.839 657.058C834.835 660.532 841.23 665.142 846.893 670.554C853.356 676.767 856.354 681.711 859.818 689.861C862.483 696.275 866.481 700.751 873.943 700.417C878.34 700.217 882.804 698.213 885.535 694.471C891.998 685.853 884.07 674.495 880.672 666.278V666.345ZM413.106 504.199C401.78 503.264 390.854 498.32 382.593 490.57C380.727 488.9 379.195 486.962 377.463 485.092L376.197 483.756C375.864 483.288 374.931 482.82 375.797 482.419L378.795 480.148L386.99 473.801C391.054 470.661 394.918 467.387 398.782 464.047C413.706 450.618 428.23 435.319 434.093 416.212C434.892 413.072 436.291 411.535 437.357 411.669C437.824 410.666 439.623 410.399 442.421 411.802C461.675 422.158 472.068 447.278 465.073 468.991C459.077 490.904 435.958 506.805 413.106 504.199ZM574.669 492.04C573.603 491.171 571.205 488.699 569.805 487.029L567.407 484.223C566.807 483.355 568.873 482.62 569.539 481.818L578.067 475.07C582.064 471.93 585.995 468.657 589.793 465.183C604.65 451.554 619.107 435.72 623.637 416.212C624.17 413.005 625.436 411.334 626.569 411.334C627.035 410.399 628.767 410.065 631.632 411.268C651.553 420.755 663.079 445.608 656.816 467.788C651.486 490.036 628.834 506.738 605.716 505.001C594.256 504.4 583.13 499.79 574.669 492.04Z" fill="black"/>
<path d="M328.894 797.824C329.627 799.093 330.493 800.429 331.226 801.565C330.359 805.173 329.227 810.184 328.361 814.793C323.63 812.188 319.167 809.449 314.57 806.576C313.237 805.707 311.838 804.839 310.506 803.837C312.171 794.216 315.103 784.863 319.033 775.977C323.031 779.117 327.161 781.99 331.492 784.729C330.493 788.07 327.628 795.552 328.894 797.824Z" fill="black"/>
<path d="M767.211 652.848L762.614 654.519L757.018 657.124L754.553 658.26C753.753 658.46 752.821 659.596 752.221 658.46L748.224 654.452L744.426 650.577L734.632 640.622L730.835 636.747C730.968 635.678 733.566 634.877 734.832 633.941C737.697 632.271 741.228 630.133 742.56 629.532C747.024 633.006 751.355 636.681 755.619 640.555C759.483 644.564 763.48 648.573 767.211 652.848Z" fill="black"/>
<path d="M778.071 760.545C776.339 764.553 774.14 768.228 771.542 771.234C764.546 769.764 756.352 769.23 750.622 764.62C748.024 762.482 746.358 760.144 744.293 758.139C748.024 754.131 751.355 749.788 754.22 745.379C755.685 743.107 757.085 740.836 758.484 738.498C765.945 744.978 772.541 752.327 778.071 760.545Z" fill="black"/>
<path d="M783.734 713.177C783.734 713.177 783.8 713.644 783.8 713.912C783.534 713.711 783.268 713.578 783.001 713.444L780.336 712.175L778.737 711.373C778.337 711.039 778.471 710.237 778.271 709.703L777.271 704.692C776.139 699.08 774.473 693.602 772.474 688.257C771.342 685.317 771.608 683.313 772.608 682.845H772.674C772.674 682.845 772.808 682.511 772.941 682.378C773.074 682.244 773.274 682.111 773.54 681.977C773.807 681.843 774.073 681.843 774.407 681.776C775.139 681.643 776.005 681.643 777.071 681.776C777.671 681.843 778.271 681.977 778.937 682.111C781.602 682.779 784.267 683.58 786.865 684.449C787.998 688.324 788.731 692.399 789.33 696.074C789.33 705.828 787.065 711.306 783.734 713.177Z" fill="black"/>
<path d="M588.66 855.079C589.459 851.004 590.525 845.726 590.925 845.726C591.258 845.726 591.591 845.726 591.924 845.726C592.524 842.653 593.19 839.58 593.856 836.506C594.589 833.166 595.255 829.892 595.988 826.552C595.988 826.485 595.988 826.218 596.121 825.884C595.588 825.951 595.055 826.084 594.456 826.218C561.544 831.362 527.899 832.765 494.587 830.761C494.254 832.632 494.054 834.168 493.987 834.569C493.721 835.838 491.789 848.465 490.856 848.599C489.857 848.733 488.924 848.599 487.925 848.733C487.525 851.539 487.058 854.679 486.592 857.885C495.187 858.553 503.848 859.021 512.442 859.155C537.559 859.823 562.743 858.687 587.727 855.347C588.06 855.347 588.326 855.28 588.66 855.213V855.079Z" fill="black"/>
<path d="M683.465 750.657C681.533 750.056 680.001 749.989 678.935 749.187C674.671 745.913 672.872 741.571 674.138 736.159C675.27 731.215 682.266 728.877 685.93 732.284C689.994 736.026 691.193 742.773 688.129 747.717C687.196 749.254 684.798 749.855 683.465 750.724V750.657Z" fill="black"/>
<path d="M602.051 831.228C601.451 836.172 597.054 840.448 592.057 840.248C590.392 840.248 588.06 838.511 587.261 836.907C584.529 831.295 587.794 825.149 593.723 823.879C597.787 822.944 602.517 827.153 601.984 831.228H602.051Z" fill="black"/>
<path d="M621.039 765.689C619.973 766.958 618.973 768.896 617.374 769.697C615.709 770.566 613.444 770.633 611.445 770.633C608.247 770.633 605.982 768.695 605.582 766.223C605.116 763.15 606.648 760.945 608.913 759.409C612.378 757.07 617.175 758.006 619.706 761.413C620.439 762.415 620.506 763.885 620.972 765.622L621.039 765.689Z" fill="black"/>
<path d="M467.271 829.558C467.338 833.299 465.406 835.972 462.941 838.377C460.476 840.648 455.745 840.515 453.747 838.377C451.082 835.437 451.215 829.825 454.08 827.353C457.278 824.614 461.875 824.08 465.273 826.351C466.272 827.019 466.672 828.489 467.338 829.558H467.271Z" fill="black"/>
<path d="M688.529 785.598C687.729 786.6 686.663 788.404 685.197 789.874C683.199 791.945 679.801 791.611 677.669 789.473C675.67 787.468 675.27 784.195 676.736 781.656C678.202 779.051 680.134 776.979 683.265 777.046C686.397 777.046 689.528 781.79 688.462 785.598H688.529Z" fill="black"/>
<path d="M459.01 693.335C462.141 693.268 465.139 696.408 465.406 700.082C465.672 704.091 463.074 707.298 459.743 706.964C456.078 706.63 453.413 703.957 453.08 700.349C452.814 696.875 455.745 693.401 459.01 693.335Z" fill="black"/>
<path d="M702.719 671.087C704.118 672.624 706.05 673.826 706.45 675.43C706.85 677.167 706.184 679.572 705.184 681.175C702.986 684.783 698.855 685.451 696.59 682.979C694.125 680.24 693.992 676.098 696.79 673.826C698.322 672.624 700.387 672.089 702.719 671.02V671.087Z" fill="black"/>
<path d="M527.832 753.53C530.83 753.195 534.295 756.87 534.161 760.21C534.028 763.618 530.697 767.159 527.832 767.025C524.634 766.825 521.17 763.35 521.236 760.344C521.236 757.338 524.634 753.93 527.899 753.596L527.832 753.53Z" fill="black"/>
<path d="M516.306 728.676C514.974 722.998 517.639 719.323 522.302 716.651C524.501 715.381 528.099 716.384 529.631 718.588C531.496 721.327 530.697 726.405 527.899 727.741C524.035 729.612 520.037 730.547 515.906 728.276L516.306 728.61V728.676Z" fill="black"/>
<path d="M596.988 776.712C597.787 778.048 599.586 779.719 599.453 781.188C598.92 786.6 595.455 789.406 589.792 789.74C587.794 789.874 585.262 788.203 585.262 786.466C585.262 785.197 585.328 783.46 586.128 782.792C588.66 780.587 591.524 778.717 594.323 776.779C594.789 776.445 595.655 776.779 596.988 776.779V776.712Z" fill="black"/>
<path d="M687.463 651.98C688.129 655.12 685.331 658.594 681.866 658.794C679.535 658.995 676.87 656.322 676.736 653.65C676.603 650.978 678.868 648.305 681.4 648.105C684.731 647.904 686.93 649.307 687.529 651.98H687.463Z" fill="black"/>
<path d="M772.808 881.335C769.543 881.803 766.345 878.863 766.345 875.322C766.345 872.717 768.61 869.71 770.942 869.443C774.007 869.109 777.205 872.049 777.471 875.656C777.671 878.062 775.339 881.068 772.741 881.335H772.808Z" fill="black"/>
<path d="M642.758 787.201C643.025 790.341 640.027 794.016 636.762 794.55C634.563 794.884 631.232 792.279 630.766 789.941C629.9 785.665 633.364 781.456 637.495 781.723C640.027 781.923 642.492 784.529 642.758 787.201Z" fill="black"/>
<path d="M572.537 801.699C574.335 801.899 576.068 804.104 576.001 805.974C575.934 808.914 574.535 811.052 571.937 812.321C569.805 813.39 565.608 812.455 564.875 810.25C564.342 808.647 564.608 806.175 565.541 804.705C567.007 802.434 569.539 801.164 572.537 801.699Z" fill="black"/>
<path d="M664.744 807.645C664.611 811.119 661.479 813.925 657.948 813.524C655.217 813.19 652.818 810.317 653.218 807.979C653.884 804.371 656.816 801.833 660.147 801.833C662.412 801.833 664.744 804.973 664.677 807.645H664.744Z" fill="black"/>
<path d="M752.754 719.123C752.287 722.263 748.823 724 746.824 722.129C745.359 720.793 744.093 719.123 743.027 717.386C741.828 715.315 742.494 712.91 744.159 712.041C746.025 711.106 748.024 710.638 749.889 712.041C752.221 713.845 753.487 716.116 752.754 719.056V719.123Z" fill="black"/>
<path d="M638.095 827.42C640.426 827.621 642.692 830.293 642.891 833.032C643.091 835.838 640.626 838.711 638.294 838.511C636.096 838.31 633.497 835.371 633.364 832.965C633.231 830.494 635.963 827.287 638.095 827.42Z" fill="black"/>
<path d="M710.648 897.436C710.381 900.042 707.783 902.046 704.918 901.712C702.52 901.445 700.054 898.371 700.454 896.1C700.854 893.695 703.652 891.624 706.317 891.691C708.782 891.757 710.914 894.63 710.648 897.369V897.436Z" fill="black"/>
<path d="M486.392 719.591C487.058 721.996 483.727 724.735 480.729 724.067C477.931 723.399 475.799 721.728 474.533 718.922C473.401 716.45 475.199 712.976 477.931 712.642C482.395 712.175 486.126 715.181 486.392 719.524V719.591Z" fill="black"/>
<path d="M725.438 692.199C728.769 691.664 731.767 694.136 731.901 696.675C731.967 698.345 730.035 700.683 728.17 701.018C725.705 701.552 722.174 698.946 722.707 696.474C723.04 694.737 724.705 693.268 725.438 692.132V692.199Z" fill="black"/>
<path d="M398.449 759.876C398.982 763.818 397.183 766.357 394.385 766.624C391.32 766.891 388.988 764.753 389.188 761.947C389.388 759.008 391.587 756.603 394.451 757.07C396.05 757.338 397.45 759.141 398.449 759.876Z" fill="black"/>
<path d="M511.643 732.752C512.842 737.295 511.376 740.635 507.379 742.974C505.713 743.976 503.448 743.575 502.049 741.771C500.783 740.034 500.25 738.164 501.649 736.226C504.314 732.618 507.512 730.748 511.976 733.019L511.576 732.685L511.643 732.752Z" fill="black"/>
<path d="M530.231 805.44C529.098 806.509 527.965 808.179 526.3 808.914C524.967 809.515 522.302 806.709 522.502 804.906C522.769 803.035 523.635 801.231 524.568 799.561C525.434 798.024 526.833 798.024 528.032 799.36C528.498 799.828 529.031 800.363 529.231 800.964C529.631 802.233 529.764 803.569 530.097 805.507L530.231 805.44Z" fill="black"/>
<path d="M658.548 722.196C657.882 720.993 656.283 719.457 656.216 717.787C656.083 715.248 660.014 712.776 662.146 713.845C663.145 714.379 664.144 715.916 664.278 717.119C664.544 720.125 661.879 722.73 658.548 722.196Z" fill="black"/>
<path d="M596.188 740.969C595.122 741.838 593.923 743.441 592.257 744.109C590.392 744.911 587.927 742.907 588.193 740.769C588.393 738.965 589.326 736.76 590.658 735.758C592.457 734.489 596.121 737.629 596.188 741.036V740.969Z" fill="black"/>
<path d="M550.418 789.339C549.218 788.738 547.819 788.27 546.82 787.402C545.221 786.065 545.421 783.393 546.887 781.856C548.286 780.387 550.817 780.453 552.416 782.257C553.282 783.193 553.882 784.529 554.282 785.798C554.881 787.869 552.616 789.874 550.418 789.406V789.339Z" fill="black"/>
<path d="M680.201 835.972C678.269 835.571 677.069 833.233 677.802 831.095C678.535 828.957 680.933 827.821 682.666 829.157C683.665 829.892 684.398 831.295 684.664 832.498C684.998 834.369 682.133 836.306 680.201 835.905V835.972Z" fill="black"/>
<path d="M616.908 806.309C616.042 806.91 615.176 808.113 614.376 808.046C612.244 807.778 611.245 805.707 612.111 803.904C612.311 803.436 612.977 802.968 613.51 802.768C615.243 802.1 617.108 804.104 616.842 806.309H616.908Z" fill="black"/>
<path d="M752.487 851.605C752.487 853.877 750.422 855.814 748.423 854.946C747.424 854.545 746.358 853.275 746.225 852.206C745.892 850.002 748.29 847.997 750.222 848.799C751.221 849.2 751.755 850.603 752.487 851.538V851.605Z" fill="black"/>
<path d="M705.185 631.737C704.052 632.204 702.853 633.273 701.787 633.073C700.254 632.805 699.655 631.068 700.654 629.866C701.32 628.997 702.853 628.73 703.985 628.262C704.385 629.398 704.785 630.601 705.118 631.737H705.185Z" fill="black"/>
<path d="M728.236 875.857C727.17 875.256 725.505 874.855 725.105 873.986C724.239 871.982 725.105 870.178 727.104 869.109C728.903 868.107 731.168 869.51 731.434 871.648C731.701 873.919 730.435 875.59 728.17 875.924L728.236 875.857Z" fill="black"/>
<path d="M614.176 859.823C612.511 860.491 611.445 859.956 610.779 858.286C609.313 854.812 609.979 853.275 613.377 851.872C615.043 851.204 616.175 851.605 616.841 853.275C618.174 856.616 617.441 858.42 614.243 859.756L614.176 859.823Z" fill="black"/>
<path d="M729.036 784.061C728.503 785.197 728.236 786.667 727.37 787.335C725.904 788.471 723.439 786.667 723.506 784.462C723.506 783.26 724.172 781.857 725.038 780.988C726.171 779.852 728.703 781.857 729.036 784.061Z" fill="black"/>
<path d="M507.246 827.888C506.779 829.959 505.047 830.627 502.915 829.692C501.383 829.024 500.983 827.955 501.782 826.418C502.848 824.28 505.114 823.145 506.113 824.347C506.846 825.283 506.912 826.752 507.312 827.955L507.246 827.888Z" fill="black"/>
<path d="M415.038 650.978C414.572 651.646 414.305 652.447 413.772 652.648C412.24 653.249 411.307 652.447 411.307 650.643C411.307 650.109 411.907 649.575 412.307 649.04C413.239 649.708 414.105 650.376 415.038 651.044V650.978Z" fill="black"/>
<path d="M636.629 870.913C637.095 870.98 637.828 870.913 638.028 871.18C638.294 871.581 638.428 872.316 638.228 872.784C638.028 873.318 637.428 873.652 636.962 874.12C636.629 873.585 636.162 873.051 636.096 872.516C636.029 872.049 636.429 871.448 636.562 870.98L636.629 870.913Z" fill="black"/>
<path d="M747.69 894.964C748.223 895.365 749.289 896.1 749.223 896.234C748.69 897.369 747.89 898.438 747.157 899.507C746.691 898.973 746.025 898.572 745.825 897.971C745.159 896.234 745.825 895.232 747.69 894.964Z" fill="black"/>
<path d="M590.725 876.859C590.259 876.324 589.392 875.523 589.526 875.189C590.192 873.652 591.524 873.184 593.057 873.919C593.656 874.187 593.99 874.922 594.456 875.456C593.19 875.924 591.991 876.391 590.725 876.859Z" fill="black"/>
<path d="M706.717 763.016C707.45 763.684 708.183 764.419 708.849 765.087C708.382 765.488 707.783 766.223 707.383 766.156C706.25 765.889 705.185 765.288 704.119 764.82C704.985 764.219 705.851 763.618 706.717 763.016Z" fill="black"/>
<path d="M752.221 807.578C751.821 808.046 751.288 809.048 751.022 808.981C749.889 808.647 748.823 807.979 747.757 807.444C748.89 806.977 749.956 806.375 751.088 806.108C751.355 806.108 751.821 807.043 752.221 807.578Z" fill="black"/>
<path d="M515.906 728.343C515.906 731.215 514.108 732.284 511.643 732.752L512.042 733.086C512.042 730.213 513.841 729.144 516.306 728.677L515.906 728.343Z" fill="black"/>
<path d="M658.481 763.751L658.948 765.087L657.682 764.887L658.481 763.751Z" fill="black"/>
</g>
</g>
<defs>
<clipPath id="clip0_259_2946">
<rect width="930" height="930" fill="white"/>
</clipPath>
<clipPath id="clip1_259_2946">
<rect width="847" height="356" fill="white" transform="translate(41 48)"/>
</clipPath>
<clipPath id="clip2_259_2946">
<rect width="724" height="563" fill="white" transform="translate(164 380)"/>
</clipPath>
</defs>
</svg>
