<svg width="930" height="930" viewBox="0 0 930 930" fill="none" xmlns="http://www.w3.org/2000/svg">
<g clip-path="url(#clip0_336_229)">
<g clip-path="url(#clip1_336_229)">
<path d="M70.7959 213.812C63.6564 209.878 50.6052 197.098 43.4657 189.724C41.7427 188.004 41 185.79 41 183.576C41 165.141 53.8036 102.701 59.9628 81.0736C60.2104 80.095 60.2104 78.8594 60.2104 77.8809C60.2104 72.7212 59.2202 64.606 59.2202 63.1332C59.2202 61.1662 60.2104 59.4463 62.171 58.7049C75.9649 52.8039 92.7096 48.8699 103.295 48.8699C141.221 48.8699 171.502 89.6731 171.502 120.641C171.502 169.065 129.15 211.836 79.8961 215.275C76.6977 215.275 73.4893 215.028 70.786 213.803L70.7959 213.812ZM137.527 109.837C137.527 91.4029 122.01 80.3421 105.266 80.3421C103.543 80.3421 102.067 80.3421 100.344 80.5892C97.3934 81.0834 95.9081 82.3091 95.4228 84.7704C89.5112 108.859 81.629 143.03 76.7076 175.47C76.7076 175.47 76.46 176.943 76.46 177.438C76.46 179.405 77.6879 180.146 79.906 180.146C98.3737 180.146 137.527 156.304 137.527 109.847V109.837Z" fill="#DB433B"/>
<path d="M258.186 114.997C258.186 114.503 258.434 113.771 258.434 113.771C260.157 107.376 261.632 101.732 261.632 95.3368C261.632 86.9745 259.167 80.0949 251.78 80.0949C235.035 80.0949 213.854 116.233 213.854 149.662C213.854 173.009 224.687 181.371 235.768 181.371C246.848 181.371 262.118 170.311 268.267 165.151C268.267 165.151 269.742 163.678 271.218 163.678C272.941 163.678 273.931 164.172 274.911 165.398C277.13 168.106 282.298 179.652 283.289 182.113C284.031 183.833 284.517 185.058 284.517 186.778C284.517 188.251 284.021 189.487 283.041 190.712C275.654 200.547 256.444 215.542 238.719 215.542C222.954 215.542 196.862 202.514 187.257 188.014C180.85 178.179 177.156 165.645 177.156 151.876C177.156 106.892 204.982 50.1152 243.64 50.1152C254.968 50.1152 298.063 64.6158 298.063 86.2529C298.063 95.5938 293.627 106.655 290.923 113.05C289.943 115.511 287.477 117.231 284.517 117.231C280.823 117.725 265.306 117.972 261.613 117.972C259.642 117.972 258.167 116.747 258.167 115.027L258.186 114.997Z" fill="#DB433B"/>
<path d="M166.343 252.836V258.985C166.343 301.013 152.311 403.269 100.344 403.269C79.9058 403.269 59.4675 389.499 52.328 379.427C46.9115 371.806 44.4458 359.273 44.4458 347.718C44.4458 307.409 59.9626 257.996 67.8349 243.248C69.3104 240.787 71.0334 239.314 74.2417 239.314C78.9156 239.314 91.9767 243.496 98.126 245.71C100.097 246.451 101.077 248.655 101.077 250.622C101.077 251.848 100.582 253.331 100.582 253.331C90.729 279.88 79.6483 326.09 79.6483 349.191C79.6483 361.971 82.114 370.818 91.9569 370.818C105.988 370.818 113.871 349.922 120.277 324.361C127.664 295.112 132.101 257.255 133.329 244.474C133.576 242.013 135.299 240.54 137.517 240.54C141.211 240.54 155.985 244.227 161.897 246.441C164.847 247.667 166.085 250.375 166.333 252.836H166.343Z" fill="#DB433B"/>
<path d="M220.023 404C208.199 404 188.999 399.334 177.423 389.499C169.541 382.867 166.095 374.258 164.125 360.983C164.125 360.983 163.877 358.769 163.877 357.79C163.877 354.834 165.6 353.124 168.313 351.889C178.166 348.202 188.256 346.729 190.474 346.482C193.673 346.482 194.663 348.696 195.148 350.416C198.594 362.703 199.585 374.258 215.834 374.258C227.41 374.258 235.045 367.625 235.045 361.23C235.045 341.322 175.7 337.635 175.7 296.338C175.7 270.283 199.089 238.326 224.707 238.326C241.699 238.326 284.051 252.332 284.051 274.948C284.051 282.569 279.129 295.35 276.416 300.025C274.693 303.465 273.465 304.206 270.505 304.453C266.811 304.947 251.789 304.947 247.848 304.947C244.402 304.947 243.174 303.722 243.174 301.755C243.174 299.788 246.62 287.254 246.62 279.88C246.62 270.292 241.451 267.1 236.035 267.1C223.231 267.1 213.131 284.556 213.131 294.134C213.131 319.448 271.742 318.964 271.742 357.306C271.742 382.135 245.888 404.01 220.033 404.01L220.023 404Z" fill="#DB433B"/>
<path d="M649.108 154.1C649.108 206.626 587.546 281.739 525.973 321.662C523.864 323.234 522.815 324.291 522.815 325.339C522.815 326.387 524.389 326.387 527.548 326.387C529.132 326.387 553.858 324.815 568.068 324.815C575.96 324.815 583.327 324.815 589.645 325.339C595.428 325.863 600.171 330.064 601.221 335.323C603.855 346.354 607.013 366.834 609.113 382.6C609.113 387.849 605.429 391.526 599.646 392.05C566.493 394.145 460.727 400.451 427.05 402.033C421.267 402.033 414.949 399.928 412.315 394.679C407.057 383.124 398.105 350.555 398.105 346.354C398.105 341.629 400.739 336.904 404.423 334.275C505.456 271.765 575.435 173.019 576.495 136.773C575.97 121.017 563.859 115.234 552.294 115.234C533.875 115.234 504.931 134.667 483.364 168.808C481.79 171.438 479.156 173.009 475.997 173.009C472.838 173.009 469.679 170.914 469.679 170.914C457.578 163.036 443.369 151.481 435.477 142.545C432.843 139.916 431.268 136.239 431.268 132.038C431.268 130.466 431.793 127.837 432.318 126.265C442.309 101.574 481.77 48 533.341 48C581.228 48 649.108 100.002 649.108 154.1Z" fill="#F39745"/>
<path d="M864.848 247.074C871.166 247.074 873.79 251.275 874.85 256.523C876.949 268.602 879.583 291.722 879.583 305.896C879.583 310.621 876.424 315.356 870.631 315.356C867.997 315.356 847.48 315.88 844.846 315.88C838.528 315.88 835.379 320.604 834.32 325.863C831.161 348.449 827.477 371.035 824.853 393.097C824.328 398.356 820.645 401.499 815.911 401.499C806.96 401.499 775.391 392.05 764.865 387.839C758.547 385.743 755.399 379.961 755.399 374.712C755.923 362.633 759.082 330.588 759.082 328.492C759.082 324.291 755.923 321.662 752.24 321.662C740.139 321.662 669.625 328.492 665.417 328.492C659.099 328.492 654.366 325.863 652.266 321.138C647.008 310.631 635.433 278.071 635.433 270.184C635.433 265.459 637.017 260.2 639.641 257.057C677.527 206.636 759.092 89.4951 783.818 57.4594C786.452 54.3063 789.601 52.2107 793.819 52.2107C798.553 52.2107 808.554 59.0409 812.238 59.0409C814.337 59.0409 815.921 57.9932 816.971 55.8878C818.555 52.7346 822.239 50.1152 826.447 50.1152C832.765 50.1152 868.542 60.0986 882.227 64.8234C886.435 66.4049 888.01 70.0819 888.01 73.7589C888.01 74.8067 887.485 77.436 887.485 77.436C878.018 105.804 863.284 164.103 849.599 236.062C849.599 236.062 849.074 239.215 849.074 240.787C849.074 243.94 851.173 247.093 854.857 247.093H864.858L864.848 247.074ZM719.622 252.322C719.622 253.904 721.206 255.475 723.83 255.475C724.88 255.475 749.091 252.846 761.716 251.798C766.974 251.275 770.133 248.645 771.183 243.397C776.966 210.827 787.492 159.883 787.492 156.206C787.492 154.624 787.492 153.576 786.967 153.576C785.917 153.576 784.333 155.672 784.333 155.672C778.015 164.074 726.454 240.767 721.186 248.645C720.137 250.227 719.602 251.275 719.602 252.322H719.622Z" fill="#F39745"/>
<path d="M382.945 60.9487C387.252 63.1331 390.827 65.5351 390.213 70.9715C390.213 70.9715 353.515 395.351 353.466 395.786C352.773 401.934 348.168 404.099 343.395 403.397C340.276 402.942 337.563 401.39 334.79 400.007C330.067 397.634 324.977 395.865 320.452 393.127C316.521 390.834 311.857 387.374 311.896 382.323C311.896 381.997 311.926 381.681 311.966 381.355L348.713 56.5402C348.743 56.2832 348.782 56.0361 348.822 55.7988C349.931 50.0461 356.526 47.1894 361.724 49.8978L382.945 60.9487Z" fill="black"/>
</g>
<g clip-path="url(#clip2_336_229)">
<path d="M705.27 902.918C727.351 895.129 820.423 714.33 756.404 691.639C666.403 659.897 652.257 583.652 623.349 588.995C594.44 594.338 517.538 770.822 532.394 807.967C547.25 845.112 683.096 910.816 705.27 902.918Z" fill="#3D9CFB"/>
<path d="M425.973 706.139C469.148 695.716 535.463 510.614 520.037 468.525C511.74 446.977 448.623 403.678 432.423 428.509C396.775 483.45 347.544 601.006 343.937 658.588C341.931 690.392 401.228 712.122 425.973 706.139Z" fill="#DB433B"/>
<path d="M509.104 783.398C552.279 772.975 629.589 594.495 614.163 552.406C605.866 530.858 531.754 480.937 515.554 505.768C490.053 545.088 457.579 616.477 439.836 675.017C429.788 708.259 441.074 744.266 467.897 766.275C483.997 779.512 493.925 787.08 509.087 783.44L509.104 783.398Z" fill="#E7BB43"/>
<path d="M587.965 776.932C580.891 775.959 588.81 754.631 580.891 759.802C576.529 762.718 573.472 772.05 567.617 771.222C558.875 769.876 539.755 763.432 557.63 778.363C562.763 782.584 560.485 784.469 558.773 786.286C551.969 794.066 551.001 796.477 550.983 797.746C552.187 803.189 569.808 787.915 573.848 793.268C583.179 804.771 583.558 806.151 585.844 805.841C588.129 805.53 586.714 799.02 585.967 793.171C585.173 784.503 613.03 780.801 587.923 776.915L587.965 776.932Z" fill="black"/>
<path d="M705.301 762.821C698.227 761.849 706.146 740.521 698.227 745.692C693.865 748.607 690.808 757.939 684.952 757.112C676.211 755.766 657.091 749.321 674.966 764.253C680.099 768.474 677.821 770.358 676.109 772.176C669.304 779.955 668.337 782.366 668.319 783.636C669.523 789.079 687.144 773.805 691.183 779.158C700.515 790.661 700.894 792.041 703.18 791.73C705.465 791.42 704.05 784.91 703.303 779.061C702.509 770.393 730.366 766.691 705.259 762.804L705.301 762.821Z" fill="black"/>
<path d="M648.917 834.439C641.842 833.466 649.762 812.138 641.843 817.309C637.481 820.225 634.424 829.557 628.568 828.729C619.827 827.383 600.706 820.939 618.582 835.87C623.715 840.091 621.436 841.976 619.725 843.793C612.92 851.573 611.953 853.984 611.934 855.253C613.139 860.696 630.759 845.422 634.799 850.775C644.131 862.278 644.51 863.658 646.795 863.348C649.081 863.037 647.666 856.527 646.919 850.678C646.124 842.01 673.982 838.308 648.875 834.422L648.917 834.439Z" fill="black"/>
<path d="M703.666 835.682C696.591 834.71 704.511 813.382 696.592 818.553C692.23 821.468 689.173 830.8 683.317 829.973C674.576 828.626 655.455 822.182 673.331 837.114C678.464 841.334 676.185 843.219 674.474 845.037C667.669 852.816 666.702 855.227 666.684 856.497C667.888 861.94 685.508 846.665 689.548 852.018C698.88 863.522 699.259 864.902 701.544 864.591C703.83 864.28 702.415 857.77 701.668 851.921C700.873 843.254 728.731 839.551 703.624 835.665L703.666 835.682Z" fill="black"/>
<path d="M672.503 701.976C675.134 703.13 676.39 707.71 674.838 710.721C673.583 713.115 670.187 714.601 668.14 713.583C664.689 711.904 663.059 708.5 664.281 705.454C665.52 702.366 669.432 700.695 672.486 702.018L672.503 701.976Z" fill="black"/>
<path d="M597.802 775.182C595.492 774.697 593.548 771.707 593.932 769.16C594.571 764.997 598.678 762.716 602.874 764.252C604.939 764.982 606.088 766.769 606.086 768.733C606.107 772.719 601.652 775.99 597.802 775.182Z" fill="black"/>
<path d="M441.017 717.479C437.684 716.485 435.572 712.691 436.735 709.671C437.592 707.412 441.106 705.63 443.331 706.327C446.589 707.388 448.498 710.953 447.546 714.304C446.841 716.673 443.64 718.286 441.043 717.538L441.017 717.479Z" fill="black"/>
<path d="M691.934 694.303C693.047 690.919 698.229 689.021 701.764 691.225C703.1 692.056 704.113 694.427 704.128 696.102C704.167 699.801 698.603 702.529 695.228 700.782C692.665 699.459 691.204 696.613 691.96 694.363L691.934 694.303Z" fill="black"/>
<path d="M585.819 583.758C584.698 586.796 581.455 588.637 578.197 588.067C575.227 587.513 573.446 583.263 574.938 580.277C576.49 577.265 580.478 575.772 583.151 577.188C585.503 578.426 586.668 581.398 585.819 583.758Z" fill="black"/>
<path d="M502.503 687.736C501.662 690.444 499.071 692.007 496.558 691.293C493.647 690.469 492.084 688.369 492.332 685.669C492.623 682.741 496.654 680.282 499.675 681.2C501.731 681.828 503.2 685.266 502.461 687.719L502.503 687.736Z" fill="black"/>
<path d="M486.817 658.902C485.732 661.118 482.057 662.197 479.909 660.942C477.718 659.671 476.867 656.53 477.894 653.848C478.81 651.564 482.29 650.603 484.793 651.951C487.187 653.206 488.098 656.322 486.817 658.902Z" fill="black"/>
<path d="M720.153 756.405C718.013 755.252 716.704 752.026 717.393 749.699C718.369 746.653 722.543 745.43 725.401 747.363C727.651 748.855 728.122 751.352 726.698 754.169C725.519 756.495 722.335 757.575 720.153 756.405Z" fill="black"/>
<path d="M414.997 720.888C414.444 723.612 411.615 725.277 409.162 724.292C406.709 723.308 404.842 720.005 405.69 718.136C406.496 716.249 410.069 715.178 412.556 716.078C414.206 716.74 415.456 719.009 415.039 720.905L414.997 720.888Z" fill="black"/>
<path d="M437.421 613.84C436.403 616.623 434.539 617.84 431.196 617.972C428.115 618.062 425.502 616.62 424.963 614.047C424.727 612.921 425 611.262 425.711 610.467C428.482 607.356 433.197 607.234 436.452 610.259C437.204 610.953 437.076 612.621 437.362 613.865L437.421 613.84Z" fill="black"/>
<path d="M554.383 760.756C552.268 759.662 550.689 756.131 551.275 753.813C552.083 750.699 556.231 749.662 559.614 751.756C562.177 753.325 562.876 756.11 561.469 758.639C560.256 760.805 556.497 761.85 554.383 760.756Z" fill="black"/>
<path d="M772.944 633.648C772.129 635.678 768.463 637.104 766.094 636.399C763.598 635.643 762.12 632.595 762.953 630.031C763.903 627.172 766.436 625.389 768.814 625.95C771.834 626.622 774.123 630.831 772.927 633.69L772.944 633.648Z" fill="black"/>
<path d="M485.873 726.49C484.152 728.943 481.824 729.482 479.372 727.761C478.458 727.1 477.233 725.381 477.513 724.805C478.208 723.317 479.539 721.346 480.911 721.11C482.401 720.824 484.422 722.028 485.817 723.079C486.384 723.503 485.9 725.322 485.89 726.448L485.873 726.49Z" fill="black"/>
<path d="M402.489 696.618C401.31 698.699 396.95 699.65 395.92 697.813C395.075 696.246 394.612 694.096 394.918 692.353C395.276 689.992 399.493 688.54 401.201 689.913C403.526 691.829 404.015 694.038 402.531 696.635L402.489 696.618Z" fill="black"/>
<path d="M504.271 783.08C503.443 782.207 502.174 781.453 501.93 780.471C501.433 778.405 502.704 776.951 504.626 776.199C507.521 775.102 509.991 776.29 510.53 778.863C510.985 780.912 509.824 782.95 507.936 783.126C506.7 783.269 505.439 783.106 504.229 783.063L504.271 783.08Z" fill="black"/>
<path d="M521.384 807.38C519.656 808.995 518.393 810.55 516.776 811.522C515.141 812.536 512.536 810.95 512.276 809.029C512.007 807.006 511.882 804.991 513.644 803.538C515.152 802.227 517.05 800.681 518.885 802.35C520.119 803.434 520.472 805.491 521.342 807.363L521.384 807.38Z" fill="black"/>
<path d="M510.134 737.993C512.176 735.963 516.67 735.41 519.343 736.826C520.756 737.589 521.59 740.772 520.709 741.99C519.404 743.775 515.873 745.108 513.657 744.022C512.1 743.25 511.07 741.413 509.988 739.947C509.692 739.583 510.091 738.712 510.159 738.052L510.134 737.993Z" fill="black"/>
<path d="M383.358 572.7C381.943 574.392 377.855 574.176 376.207 572.286C374.161 570.041 374.122 567.079 376.189 565.355C378.12 563.723 379.964 564.758 381.681 565.742C384.024 567.124 384.816 571.026 383.358 572.7Z" fill="black"/>
<path d="M514.143 574.152C517.342 574.748 519.285 577.983 518.216 580.157C517.266 582.035 515.539 582.913 513.432 582.657C511.079 582.401 508.773 578.725 510.052 576.881C511.002 575.494 513.017 574.879 514.084 574.177L514.143 574.152Z" fill="black"/>
<path d="M503.458 618.286C502.591 620.934 499.628 622.201 497.361 620.751C495.593 619.649 494.639 617.744 495.682 616.001C496.564 614.538 498.266 613.109 499.867 612.671C501.788 612.165 504.162 616.163 503.458 618.286Z" fill="black"/>
<path d="M702.496 631.998C701.454 632.759 700.488 633.697 699.328 634.263C697.423 635.217 695.537 633.675 695.464 631.288C695.373 628.944 696.669 627.794 698.676 627.077C700.166 626.545 701.418 626.851 701.95 628.341C702.372 629.493 702.294 630.788 702.437 632.024L702.496 631.998Z" fill="black"/>
<path d="M443.255 580.576C442.579 579.077 441.514 577.815 441.777 577.037C442.329 575.294 443.381 573.653 444.55 572.207C445.703 570.803 448.402 571.542 449.365 573.304C450.429 575.302 449.851 577.232 448.25 578.406C446.844 579.463 444.914 579.867 443.255 580.576Z" fill="black"/>
<path d="M718.845 657.956C716.939 659.156 715.584 660.576 714.111 660.82C711.995 661.199 710.82 659.353 710.263 657.558C709.665 655.5 712.952 652.694 715.337 653.602C716.649 654.128 717.425 656.11 718.845 657.956Z" fill="black"/>
<path d="M524.391 607.484C523.715 605.985 522.583 604.401 522.339 602.683C522.205 601.794 523.484 600.441 524.433 599.79C526.076 598.633 528.132 599.507 529.145 601.632C530.032 603.461 530.673 605.535 528.725 606.964C527.818 607.631 526.219 607.333 524.374 607.526L524.391 607.484Z" fill="black"/>
<path d="M732.508 710.191C732.689 707.415 735.17 706.004 736.964 706.92C738.757 707.836 739.838 710.038 738.829 711.941C738.278 712.948 736.059 714.316 735.813 714.071C734.384 712.859 733.328 711.207 732.508 710.191Z" fill="black"/>
<path d="M528.641 771.79C528.279 770.613 527.045 768.547 527.58 767.337C528.199 765.916 530.367 764.674 532.001 764.397C534.422 763.993 536.051 767.888 534.703 770.392C533.889 771.931 531.357 772.733 528.641 771.79Z" fill="black"/>
<path d="M419.215 654.318C416.625 655.145 414.821 656.336 413.204 656.081C411.114 655.782 410.49 653.666 410.746 651.558C411.011 649.553 413.45 648.371 415.353 649.625C416.697 650.558 417.55 652.226 419.215 654.318Z" fill="black"/>
<path d="M590.301 745.653C589.799 748.496 587.351 749.822 585.719 748.873C583.934 747.813 583.225 746.153 583.506 744.105C583.796 742.159 586.489 740.588 587.918 741.8C589.153 742.884 589.752 744.696 590.301 745.653Z" fill="black"/>
<path d="M602.615 706.396C601.539 706.995 600.48 708.044 599.363 708.136C598.228 708.27 596.816 707.752 595.919 707.049C594.431 705.862 594.105 702.392 595.29 701.885C596.433 701.362 597.821 701.084 599.023 701.271C600.182 701.442 601.35 702.205 602.297 703.027C603.548 704.069 603.547 705.296 602.572 706.379L602.615 706.396Z" fill="black"/>
<path d="M603.779 543.28C602.112 543.396 600.3 543.995 598.811 543.545C597.093 543.052 596.969 540.056 598.316 538.78C599.723 537.478 602.296 537.43 603.327 539.022C603.893 539.937 603.603 541.392 603.779 543.28Z" fill="black"/>
<path d="M687.668 670.787C686.288 671.903 685.482 673.053 684.475 673.238C682.503 673.626 681.091 671.635 681.965 669.58C682.39 668.522 683.601 667.829 684.431 666.984C685.496 668.246 686.561 669.508 687.651 670.83L687.668 670.787Z" fill="black"/>
<path d="M565.25 625.842C563.152 624.951 562.451 623.148 563.757 621.364C564.401 620.492 565.62 619.656 566.619 619.615C568.82 619.515 570.482 624.062 568.695 625.457C567.907 626.074 566.409 625.767 565.191 625.868L565.25 625.842Z" fill="black"/>
<path d="M659.52 685.865C657.523 685.456 655.798 684.371 655.868 682.238C655.877 681.358 657.453 679.879 658.426 679.778C660.635 679.535 661.726 681.102 661.867 683.32C661.992 685.089 661.263 685.926 659.478 685.848L659.52 685.865Z" fill="black"/>
<path d="M461.847 598.251C462.066 599.419 462.707 600.757 462.385 601.806C461.697 604.133 459.512 605.172 457.787 604.086C456.814 603.451 455.681 602.112 455.699 601.088C455.717 600.064 456.955 598.694 457.962 598.264C459.029 597.808 460.518 598.258 461.83 598.293L461.847 598.251Z" fill="black"/>
<path d="M308.809 630.841C311.509 630.844 312.785 632.682 312.131 634.924C311.842 635.888 310.63 637.072 309.682 637.232C307.972 637.577 305.334 635.34 305.885 634.088C306.462 632.65 308.055 631.619 308.826 630.799L308.809 630.841Z" fill="black"/>
<path d="M540.652 564.997C541.6 564.592 542.506 564.17 543.438 563.807C543.724 564.806 544.028 565.763 544.154 566.795C544.145 566.939 542.884 567.513 542.706 567.344C541.937 566.691 541.354 565.819 540.694 565.014L540.652 564.997Z" fill="black"/>
<path d="M729.31 622.082C728.905 621.134 727.764 619.694 727.749 618.263C727.717 616.385 730.02 615.295 731.805 615.864C733.971 616.586 734.299 618.338 734.314 620.259C734.304 622.121 732.593 622.957 729.31 622.082Z" fill="black"/>
<path d="M550.353 729.919C548.785 731.5 546.627 731.371 545.834 729.432C545.479 728.602 545.845 726.588 546.379 726.36C547.386 725.93 548.977 726.126 549.984 726.677C551.396 727.44 551.344 728.794 550.353 729.919Z" fill="black"/>
<path d="M402.834 460.884C403.543 462.544 404.616 464.153 404.86 465.872C405.112 467.692 402.233 468.746 400.262 467.661C398.401 466.669 397.549 464.019 398.914 462.454C399.625 461.66 401.149 461.534 402.876 460.901L402.834 460.884Z" fill="black"/>
<path d="M572.087 785.293C571.442 787.146 568.851 787.973 567.448 786.575C566.754 785.855 566.24 784.322 566.562 783.519C566.919 782.63 568.274 781.701 569.289 781.617C571.253 781.374 572.681 783.567 572.07 785.336L572.087 785.293Z" fill="black"/>
<path d="M453.572 738.084C452.32 738.024 450.83 738.31 449.865 737.776C448.512 736.987 448.785 735.574 449.852 734.382C451.03 733.037 452.207 732.92 453.009 734.47C453.524 735.511 453.413 736.891 453.572 738.084Z" fill="black"/>
<path d="M373.18 704.305C372.646 704.533 372.011 705.015 371.613 704.904C370.395 704.514 370.244 703.422 371.185 702.179C371.481 701.807 372.286 701.393 372.666 701.546C373.978 702.072 374.146 703.121 373.222 704.322L373.18 704.305Z" fill="black"/>
<path d="M576.166 485.055C577.553 485.514 578.111 486.572 577.398 488.103C576.762 489.567 575.568 489.726 574.275 488.667C573.793 488.277 573.472 487.608 573.1 487.066C574.108 486.39 575.116 485.714 576.123 485.038L576.166 485.055Z" fill="black"/>
<path d="M546.632 497.465C547.207 497.499 547.986 497.272 548.401 497.585C549.982 498.662 549.812 499.576 548.068 499.76C547.56 499.802 546.884 499.285 546.52 498.844C546.334 498.573 546.589 497.939 546.632 497.465Z" fill="black"/>
<path d="M594.926 606.713C594.993 607.771 595.102 608.846 595.025 609.895C595.016 610.039 593.797 610.385 593.433 610.19C592.198 609.35 592.191 608.267 593.318 607.295C593.699 606.957 594.351 606.924 594.926 606.713Z" fill="black"/>
<path d="M578.316 650.925C577.317 650.966 576.361 651.025 575.362 651.066C575.6 649.983 575.711 648.849 576.161 647.851C576.331 647.428 577.313 647.429 577.931 647.235C578.031 648.453 578.173 649.689 578.274 650.908L578.316 650.925Z" fill="black"/>
<path d="M343.246 552.971C342.238 553.402 341.255 554.137 340.308 554.051C338.911 553.982 338.32 552.763 338.863 551.409C339.067 550.902 340.202 550.277 340.438 550.421C341.436 551.116 342.29 552.048 343.246 552.971Z" fill="black"/>
<path d="M625.293 599.45C624.48 600.007 623.709 600.582 622.896 601.14C622.304 600.166 621.688 599.133 621.113 598.116C621.706 597.863 622.468 597.187 622.832 597.382C623.771 597.857 624.515 598.696 625.352 599.424L625.293 599.45Z" fill="black"/>
<path d="M382.847 504.577C382.256 503.603 381.605 502.654 381.014 501.68C382.14 501.445 383.452 500.744 384.383 501.117C385.229 501.456 385.634 502.896 386.242 503.827C385.116 504.063 383.99 504.299 382.864 504.535L382.847 504.577Z" fill="black"/>
<path d="M755.584 674.711C755.017 674.778 754.39 675.116 753.942 674.887C752.411 674.174 752.302 673.345 753.572 672.872C754.029 672.712 754.765 672.958 755.162 673.314C755.45 673.577 755.424 674.254 755.542 674.694L755.584 674.711Z" fill="black"/>
<path d="M724.966 687.373C724.62 686.4 724.274 685.426 723.929 684.452C724.784 684.157 725.868 683.413 726.485 683.71C727.678 684.287 727.685 685.616 726.609 686.706C726.211 687.087 725.542 687.162 724.966 687.373Z" fill="black"/>
<path d="M607.731 639.302C607.021 638.379 606.268 637.439 605.558 636.516C606.151 636.262 606.71 635.848 607.277 635.781C609.004 635.639 609.773 636.537 609.255 638.195C609.068 638.661 608.273 638.931 607.731 639.302Z" fill="black"/>
<path d="M485.963 587.105C486.385 587.52 487.197 587.944 487.146 588.316C487.026 589.594 486.002 589.821 484.615 588.872C484.268 588.635 484.311 587.915 484.185 587.374C484.752 587.306 485.336 587.197 485.903 587.13L485.963 587.105Z" fill="black"/>
<path d="M683.213 737.704C682.062 737.88 680.741 738.48 679.81 738.106C678.964 737.767 678.543 736.37 677.934 735.438C679.043 735.245 680.339 734.586 681.21 734.985C682.099 735.341 682.562 736.755 683.213 737.704Z" fill="black"/>
<path d="M643.756 721.725C642.597 721.799 641.48 721.891 640.329 721.822C640.202 721.772 639.941 720.586 640.127 720.121C640.314 719.656 641.449 719.031 641.516 719.107C642.336 719.878 643.029 720.844 643.756 721.725Z" fill="black"/>
<path d="M535.099 700.619C534.507 700.627 533.787 700.829 533.339 700.6C532.907 700.329 532.705 699.609 532.376 699.084C533.01 699.093 533.73 698.891 534.204 699.179C534.652 699.408 534.795 700.153 535.082 700.661L535.099 700.619Z" fill="black"/>
<path d="M333.693 621.82C333.482 621.244 332.975 620.55 333.161 620.085C333.772 618.562 334.805 618.436 335.794 619.766C336.005 620.096 335.759 621.078 335.403 621.475C335.064 621.83 334.277 621.711 333.693 621.82Z" fill="black"/>
<path d="M562.57 686.252C562.967 686.608 563.703 687.099 563.635 687.269C563.414 687.819 562.898 688.25 562.508 688.732C562.153 688.393 561.375 687.884 561.443 687.715C561.663 687.165 562.18 686.734 562.57 686.252Z" fill="black"/>
<path d="M549.671 662.955L549.783 661.33L551.026 662.025L549.671 662.955Z" fill="black"/>
<path d="M466.906 465.819L466.726 467.122L465.796 466.504L466.906 465.819Z" fill="black"/>
<path d="M636.241 626.138C635.818 626.459 635.496 626.772 635.132 627.068C634.692 626.45 634.312 625.806 633.873 625.188C634.406 624.96 635.101 624.453 635.481 624.606C635.862 624.758 636.013 625.605 636.258 626.096L636.241 626.138Z" fill="black"/>
<path d="M651.063 766.301C643.989 765.329 651.908 744.001 643.989 749.172C639.627 752.087 636.571 761.419 630.715 760.592C621.973 759.245 602.853 752.801 620.729 767.733C625.861 771.953 623.583 773.838 621.871 775.656C615.067 783.435 614.099 785.846 614.081 787.116C615.285 792.559 632.906 777.284 636.946 782.638C646.277 794.141 646.656 795.521 648.942 795.21C651.227 794.899 649.812 788.39 649.065 782.54C648.271 773.873 676.128 770.17 651.021 766.284L651.063 766.301Z" fill="black"/>
<path d="M758.258 762.413C751.183 761.44 759.102 740.112 751.184 745.283C746.822 748.199 743.765 757.53 737.909 756.703C729.168 755.357 710.047 748.912 727.923 763.844C733.056 768.065 730.777 769.949 729.066 771.767C722.261 779.546 721.294 781.958 721.275 783.227C722.48 788.67 740.1 773.396 744.14 778.749C753.471 790.252 753.851 791.632 756.136 791.322C758.422 791.011 757.007 784.501 756.26 778.652C755.465 769.984 783.322 766.282 758.215 762.396L758.258 762.413Z" fill="black"/>
<path d="M421 352L386 409L480 409L489 392L421 352Z" fill="white"/>
<path d="M-68.3218 1570.39C50.3999 1328.96 176.291 991.71 283.924 711.954C286.487 705.321 294.268 702.452 300.587 705.675C539.237 827.999 409.163 866.513 724.416 973.067C766.659 987.365 808.286 801.491 861.542 727.636C868.379 713.044 875.382 685.308 860.883 678.361C551.503 516.902 797.578 486.578 423.689 333.023C395.391 305.757 323.971 556.091 254.966 692.33C254.559 693.1 254.237 693.904 253.897 694.749C144.601 978.405 16.3664 1322.72 -103.218 1563.6C-109.045 1575.31 -97.4317 1589.94 -84.7907 1593.19C-71.0836 1596.73 -74.5983 1583.09 -68.3218 1570.39ZM423.65 370.33C735.028 515.304 555.793 550.152 836.484 701.229C798.794 782.066 753.401 880.143 722.552 950.662C423.181 832.065 566.292 815.037 296.289 680.525C345.539 553.498 388.963 444.662 423.709 370.305L423.65 370.33Z" fill="black"/>
</g>
</g>
<defs>
<clipPath id="clip0_336_229">
<rect width="930" height="930" fill="white"/>
</clipPath>
<clipPath id="clip1_336_229">
<rect width="847" height="356" fill="white" transform="translate(41 48)"/>
</clipPath>
<clipPath id="clip2_336_229">
<rect width="584.256" height="1359.66" fill="white" transform="translate(395.315 321) rotate(21.8627)"/>
</clipPath>
</defs>
</svg>
