<svg width="930" height="930" viewBox="0 0 930 930" fill="none" xmlns="http://www.w3.org/2000/svg">
<g clip-path="url(#clip0_259_3485)">
<path d="M70.7959 213.812C63.6564 209.878 50.6052 197.098 43.4657 189.724C41.7427 188.004 41 185.79 41 183.576C41 165.141 53.8036 102.701 59.9628 81.0736C60.2104 80.095 60.2104 78.8594 60.2104 77.8809C60.2104 72.7212 59.2202 64.606 59.2202 63.1332C59.2202 61.1662 60.2104 59.4463 62.171 58.7049C75.9649 52.8039 92.7096 48.8699 103.295 48.8699C141.221 48.8699 171.502 89.6731 171.502 120.641C171.502 169.065 129.15 211.836 79.8961 215.275C76.6977 215.275 73.4893 215.028 70.786 213.803L70.7959 213.812ZM137.527 109.837C137.527 91.4029 122.01 80.3421 105.266 80.3421C103.543 80.3421 102.067 80.3421 100.344 80.5892C97.3934 81.0834 95.9081 82.3091 95.4228 84.7704C89.5112 108.859 81.629 143.03 76.7076 175.47C76.7076 175.47 76.46 176.943 76.46 177.438C76.46 179.405 77.6879 180.146 79.906 180.146C98.3737 180.146 137.527 156.304 137.527 109.847V109.837Z" fill="#DB433B"/>
<path d="M258.186 114.997C258.186 114.503 258.434 113.771 258.434 113.771C260.157 107.376 261.632 101.732 261.632 95.3368C261.632 86.9745 259.167 80.0949 251.78 80.0949C235.035 80.0949 213.854 116.233 213.854 149.662C213.854 173.009 224.687 181.371 235.768 181.371C246.848 181.371 262.118 170.311 268.267 165.151C268.267 165.151 269.742 163.678 271.218 163.678C272.941 163.678 273.931 164.172 274.911 165.398C277.129 168.106 282.298 179.652 283.289 182.113C284.031 183.833 284.516 185.058 284.516 186.778C284.516 188.251 284.021 189.487 283.041 190.712C275.654 200.547 256.444 215.542 238.719 215.542C222.954 215.542 196.862 202.514 187.256 188.014C180.85 178.179 177.156 165.645 177.156 151.876C177.156 106.892 204.981 50.1152 243.64 50.1152C254.968 50.1152 298.063 64.6158 298.063 86.2529C298.063 95.5938 293.627 106.655 290.923 113.05C289.943 115.511 287.477 117.231 284.516 117.231C280.823 117.725 265.306 117.972 261.613 117.972C259.642 117.972 258.167 116.747 258.167 115.027L258.186 114.997Z" fill="#DB433B"/>
<path d="M166.343 252.836V258.985C166.343 301.013 152.311 403.269 100.344 403.269C79.9061 403.269 59.4678 389.499 52.3282 379.427C46.9117 371.806 44.446 359.273 44.446 347.718C44.446 307.409 59.9629 257.996 67.8352 243.248C69.3106 240.787 71.0336 239.314 74.242 239.314C78.9158 239.314 91.9769 243.496 98.1262 245.71C100.097 246.451 101.077 248.655 101.077 250.622C101.077 251.848 100.582 253.331 100.582 253.331C90.7292 279.88 79.6486 326.09 79.6486 349.191C79.6486 361.971 82.1143 370.818 91.9571 370.818C105.989 370.818 113.871 349.922 120.278 324.361C127.665 295.112 132.101 257.255 133.329 244.474C133.576 242.013 135.299 240.54 137.517 240.54C141.211 240.54 155.985 244.227 161.897 246.441C164.848 247.667 166.085 250.375 166.333 252.836H166.343Z" fill="#DB433B"/>
<path d="M220.023 404C208.2 404 188.999 399.334 177.424 389.499C169.541 382.867 166.095 374.258 164.125 360.983C164.125 360.983 163.877 358.769 163.877 357.79C163.877 354.834 165.6 353.124 168.313 351.889C178.166 348.202 188.257 346.729 190.475 346.482C193.673 346.482 194.663 348.696 195.149 350.416C198.595 362.703 199.585 374.258 215.834 374.258C227.41 374.258 235.045 367.625 235.045 361.23C235.045 341.322 175.701 337.635 175.701 296.338C175.701 270.283 199.09 238.326 224.707 238.326C241.699 238.326 284.051 252.332 284.051 274.948C284.051 282.569 279.13 295.35 276.416 300.025C274.693 303.465 273.466 304.206 270.505 304.453C266.811 304.947 251.79 304.947 247.848 304.947C244.402 304.947 243.175 303.722 243.175 301.755C243.175 299.788 246.621 287.254 246.621 279.88C246.621 270.292 241.452 267.1 236.035 267.1C223.231 267.1 213.131 284.556 213.131 294.134C213.131 319.448 271.743 318.964 271.743 357.306C271.743 382.135 245.888 404.01 220.033 404.01L220.023 404Z" fill="#DB433B"/>
<path d="M649.108 154.1C649.108 206.626 587.546 281.739 525.973 321.662C523.864 323.234 522.814 324.291 522.814 325.339C522.814 326.387 524.389 326.387 527.548 326.387C529.132 326.387 553.858 324.815 568.068 324.815C575.96 324.815 583.327 324.815 589.645 325.339C595.428 325.863 600.171 330.064 601.221 335.323C603.855 346.354 607.013 366.834 609.113 382.6C609.113 387.849 605.429 391.526 599.646 392.05C566.493 394.145 460.727 400.451 427.05 402.033C421.267 402.033 414.949 399.928 412.315 394.679C407.057 383.124 398.105 350.555 398.105 346.354C398.105 341.629 400.739 336.904 404.423 334.275C505.456 271.765 575.435 173.019 576.495 136.773C575.97 121.017 563.859 115.234 552.294 115.234C533.875 115.234 504.931 134.667 483.364 168.808C481.789 171.438 479.155 173.009 475.997 173.009C472.838 173.009 469.679 170.914 469.679 170.914C457.578 163.036 443.369 151.481 435.476 142.545C432.842 139.916 431.268 136.239 431.268 132.038C431.268 130.466 431.793 127.837 432.318 126.265C442.309 101.574 481.77 48 533.341 48C581.228 48 649.108 100.002 649.108 154.1Z" fill="#3D9CFB"/>
<path d="M864.848 247.074C871.166 247.074 873.79 251.275 874.85 256.523C876.949 268.602 879.583 291.722 879.583 305.896C879.583 310.621 876.424 315.356 870.631 315.356C867.997 315.356 847.48 315.88 844.846 315.88C838.528 315.88 835.379 320.604 834.32 325.863C831.161 348.449 827.477 371.035 824.853 393.097C824.328 398.356 820.645 401.499 815.912 401.499C806.96 401.499 775.391 392.05 764.865 387.839C758.548 385.743 755.399 379.961 755.399 374.712C755.924 362.633 759.082 330.588 759.082 328.492C759.082 324.291 755.924 321.662 752.24 321.662C740.139 321.662 669.625 328.492 665.417 328.492C659.099 328.492 654.366 325.863 652.267 321.138C647.009 310.631 635.433 278.071 635.433 270.184C635.433 265.459 637.017 260.2 639.641 257.057C677.527 206.636 759.092 89.4951 783.818 57.4594C786.452 54.3063 789.601 52.2107 793.82 52.2107C798.553 52.2107 808.554 59.0409 812.238 59.0409C814.337 59.0409 815.921 57.9932 816.971 55.8878C818.555 52.7346 822.239 50.1152 826.448 50.1152C832.765 50.1152 868.542 60.0986 882.227 64.8234C886.435 66.4049 888.01 70.0819 888.01 73.7589C888.01 74.8067 887.485 77.436 887.485 77.436C878.019 105.804 863.284 164.103 849.599 236.062C849.599 236.062 849.074 239.215 849.074 240.787C849.074 243.94 851.173 247.093 854.857 247.093H864.858L864.848 247.074ZM719.622 252.322C719.622 253.904 721.206 255.475 723.83 255.475C724.88 255.475 749.091 252.846 761.716 251.798C766.975 251.275 770.133 248.645 771.183 243.397C776.966 210.827 787.492 159.883 787.492 156.206C787.492 154.624 787.492 153.576 786.967 153.576C785.918 153.576 784.333 155.672 784.333 155.672C778.016 164.074 726.454 240.767 721.186 248.645C720.137 250.227 719.602 251.275 719.602 252.322H719.622Z" fill="#3D9CFB"/>
<path d="M382.945 60.9487C387.252 63.1331 390.827 65.5351 390.213 70.9715C390.213 70.9715 353.515 395.351 353.466 395.786C352.773 401.934 348.168 404.099 343.395 403.397C340.276 402.942 337.563 401.39 334.79 400.007C330.067 397.634 324.977 395.865 320.452 393.127C316.521 390.834 311.857 387.374 311.896 382.323C311.896 381.997 311.926 381.681 311.966 381.355L348.713 56.5402C348.743 56.2832 348.782 56.0361 348.822 55.7988C349.931 50.0461 356.526 47.1894 361.724 49.8978L382.945 60.9487Z" fill="black"/>
</g>
<path d="M409.586 426.232L421.104 432.951L428.303 433.431L441.261 434.87L446.54 432.951L438.861 423.352L424.463 419.993L409.586 426.232Z" fill="white"/>
<path d="M638.629 775.093C650.49 765.598 659.568 753.078 664.833 738.866C675.908 701.308 619.747 696.712 595.661 702.397C585.857 704.635 576.477 708.264 567.702 713.162C543.495 704.332 519.046 696.228 494.294 688.971C498.833 687.701 503.311 686.37 507.85 684.979C543.979 673.609 575.025 649.357 574.843 611.8C610.367 606.78 636.874 576.661 637.297 540.797C636.934 535.112 635.784 529.609 633.787 524.287C637.842 522.654 641.776 520.718 645.528 518.602C677.421 500.216 714.7 453.647 686.74 417.36C664.954 389.237 622.289 385.911 589.67 387.786C549.123 388.874 510.271 404.78 480.556 432.419C464.58 449.111 450.297 467.376 438.012 486.911C424.941 505.236 412.776 524.166 401.702 543.761C394.076 443.003 299.366 424.194 254.583 484.733C242.298 482.798 230.013 481.528 217.546 480.923C138.813 477.053 145.288 506.566 210.345 553.316C217.728 558.578 225.111 563.658 232.736 568.618C177.968 681.048 206.471 805.151 337.432 851.72C406.846 874.641 483.159 860.429 539.743 814.162C585.01 833.515 688.374 873.069 688.919 823.415C689.161 799.95 660.536 783.197 638.689 775.032L638.629 775.093ZM584.707 503.361C591.667 503.724 598.324 506.264 603.771 510.497C605.223 511.586 606.675 512.796 607.946 514.066C579.261 517.332 562.134 502.635 584.707 503.361ZM539.259 594.563C489.21 582.709 539.682 566.017 554.872 596.68C549.607 596.377 544.403 595.712 539.259 594.563Z" fill="#DB433B"/>
<path d="M264.648 499.86C263.374 500.406 261.918 500.588 260.523 500.406C245.175 497.798 229.646 496.099 214.116 495.432C200.103 493.976 186.03 495.311 172.502 499.375C177.537 506.835 183.603 513.568 190.579 519.269C209.991 535.403 230.313 550.324 251.545 563.971C257.247 542.924 261.615 521.574 264.648 499.981V499.86Z" fill="#E7BB43"/>
<path d="M676.852 526.825L680.784 524.887C683.445 523.556 686.168 522.405 688.587 520.771C693.548 517.684 698.327 514.354 702.803 510.601C711.817 503.155 719.923 494.74 726.759 485.236C733.595 475.731 739.16 465.077 741.943 453.393C744.786 441.77 744.121 428.875 739.039 417.736C733.958 406.658 725.61 397.517 715.81 390.737C705.889 384.078 694.758 379.719 683.506 376.874C660.821 371.183 637.41 371.425 614.724 372.878C568.628 376.329 523.621 397.214 492.769 432.023C485.207 440.62 477.948 449.519 471.112 458.66C464.215 467.74 458.106 477.729 451.814 486.749C445.22 496.072 438.929 505.576 432.819 515.201C429.794 520.044 426.77 524.887 423.866 529.791L420.841 534.937L420.055 529.246C419.873 526.401 419.027 523.677 418.301 520.892L416.062 512.598C412.796 501.641 408.017 491.047 401.725 481.361C400.334 478.819 398.398 476.639 396.583 474.399L391.018 467.68C389.082 465.561 386.723 463.805 384.545 461.808C382.307 459.991 380.371 457.812 377.83 456.299C372.809 453.393 368.151 449.7 362.586 447.823C359.864 446.734 357.202 445.584 354.48 444.554L345.95 442.496C323.083 437.169 298.583 443.525 279.467 456.359C276.926 457.752 274.749 459.689 272.571 461.626L266.038 467.316C263.92 469.314 262.166 471.615 260.23 473.794L257.447 477.063L256.721 477.91C256.721 477.91 256.661 477.971 256.54 477.91L249.644 476.942L241.295 475.913C235.67 475.307 230.104 474.823 224.478 474.46C213.226 473.733 201.974 473.37 190.602 474.097C184.855 474.52 179.168 475.186 173.421 476.518C167.735 477.911 161.807 479.848 156.725 484.509C154.245 486.87 152.248 490.2 151.644 493.771C150.978 497.403 151.704 500.733 152.611 503.82C154.668 509.874 158.056 514.778 161.686 519.318C169.005 528.399 177.414 536.026 186.065 543.23C194.776 550.374 203.729 557.214 212.984 563.51L226.837 573.015L229.62 574.891L226.837 581.308C217.158 601.77 210.928 623.624 206.27 645.72C202.035 667.998 201.188 690.76 203.003 713.401C205.423 735.981 211.593 758.077 221.03 778.781C230.77 799.424 244.744 817.706 260.654 833.93C269.244 841.316 277.41 849.307 287.029 855.3L294.046 860.143C296.345 861.777 298.704 863.412 301.245 864.623L316.187 872.674C321.026 875.58 326.41 877.517 331.613 879.696L347.281 886.174C352.725 887.748 358.17 889.503 363.675 890.896C369.18 892.046 374.624 893.62 380.25 894.407C402.572 898.342 425.378 899.008 447.882 896.586C470.446 894.165 492.527 888.111 513.397 879.394L521.14 876.004L528.763 872.25C533.904 869.829 538.684 866.802 543.584 864.017C548.544 861.233 553.081 857.782 557.86 854.755C560.219 853.181 562.397 851.365 564.635 849.67L568.023 847.067L569.535 845.917L585.264 852.455C591.253 854.816 597.242 857.177 603.231 859.416C615.269 863.896 627.489 868.013 639.89 871.645C658.159 876.851 676.852 881.513 696.573 881.634C705.163 881.634 712.966 880.362 719.197 877.214C725.489 874.188 729.542 869.163 731.236 864.865C732.022 862.685 732.566 860.748 732.627 859.053C732.869 857.419 732.869 856.026 732.687 854.937C732.445 852.697 732.022 851.668 731.538 851.668C732.203 851.789 734.079 847.309 731.599 838.592C729.239 829.935 720.831 818.614 706.433 809.352C701.957 806.507 697.299 803.904 692.58 801.543C690.221 800.453 687.861 799.303 685.442 798.274L684.05 797.668L684.534 797.184C686.289 795.61 687.922 793.915 689.555 792.22C692.761 788.709 695.665 785.016 698.327 781.142C702.199 775.512 705.465 769.397 708.006 763.041C710.728 756.2 711.636 748.754 709.579 741.308C707.522 733.802 701.957 727.869 695.968 724.055C689.858 720.181 683.264 717.88 676.549 716.306C663.18 713.279 649.569 712.856 635.958 714.611C629.122 715.58 622.589 717.396 616.176 719.636C612.97 720.786 609.824 721.997 606.739 723.45C605.166 724.116 603.654 724.842 602.142 725.629L599.117 727.203L559.554 714.127C547.455 710.01 525.556 703.23 532.695 704.986L534.933 704.32L538.502 703.109C540.196 702.504 542.011 701.959 543.704 701.293C550.661 698.69 557.376 695.603 563.909 692.091C570.382 688.399 576.613 684.222 582.36 679.439C588.047 674.536 593.249 669.027 597.726 662.852C602.021 656.617 605.469 649.715 607.828 642.451C608.856 638.758 609.824 635.065 610.248 631.312C610.611 629.435 610.732 627.498 610.792 625.621V624.169V623.926C610.792 623.926 610.853 623.866 611.276 623.805L614.059 623.321C615.934 622.958 617.689 622.352 619.564 621.868C623.193 620.96 626.702 619.386 630.211 617.994C637.107 614.906 643.519 610.729 649.327 605.886C660.881 596.2 669.895 583.306 674.613 568.898C677.094 561.694 678.545 554.309 678.848 546.56C678.969 544.744 679.09 542.685 678.848 540.688C678.666 538.811 678.424 536.874 678.061 534.997C677.759 533.12 677.275 531.244 676.791 529.367L676.126 527.188L676.791 526.825H676.852ZM228.35 543.291C218.671 536.632 209.355 529.549 200.281 521.982L193.505 516.231C191.146 514.414 189.089 512.659 187.093 510.661C185.097 508.663 183.161 506.605 181.407 504.426L179.531 501.944L180.015 501.823C181.89 501.399 183.826 501.036 185.702 500.733C189.513 500.067 193.384 499.583 197.256 499.341C204.999 498.675 212.621 499.341 220.667 499.825C228.592 500.309 236.456 501.036 244.26 502.065L247.587 502.549L240.146 551.161C236.154 548.557 232.221 545.954 228.35 543.291ZM714.66 858.993L714.116 858.448L714.418 858.69L714.66 858.932V858.993ZM713.511 857.298C713.511 857.298 713.632 857.358 713.692 857.419C714.237 857.661 714.781 857.964 715.084 858.206L714.297 857.964H714.116L713.632 857.782C713.571 857.782 713.45 857.721 713.45 857.721L712.482 856.753C712.482 856.753 713.148 857.055 713.511 857.298ZM666.205 503.76L664.329 504.547C664.329 504.547 664.45 504.789 664.087 504.426C662.394 502.125 660.397 500.067 658.34 498.009C650.113 490.018 639.708 483.964 628.275 481.482C622.589 480.271 616.66 479.848 610.732 480.695C604.803 481.543 598.814 483.722 593.975 487.839C591.495 489.897 589.801 492.379 587.926 494.8C586.413 497.525 584.78 500.37 584.417 503.82C583.147 510.601 586.413 517.502 590.829 521.74C595.245 526.219 600.569 528.943 605.953 531.062C611.337 533.302 616.963 534.392 622.589 535.3C625.432 535.663 628.275 535.845 631.058 536.087C633.901 536.087 636.744 536.147 639.587 536.087C642.37 535.784 645.213 535.724 647.996 535.3C647.996 535.3 651.444 534.755 651.505 534.876C651.505 535.118 652.231 538.327 652.412 540.324C652.775 542.806 652.896 545.349 652.775 547.831C652.654 552.916 651.747 557.941 650.113 562.723C646.786 572.349 640.555 580.642 632.268 586.817C628.214 589.965 623.738 592.629 619.08 594.747C616.721 595.777 614.301 596.685 611.821 597.411C610.187 597.956 607.586 598.622 606.8 598.743C606.8 598.622 606.8 598.561 606.739 598.38C606.134 597.048 605.711 595.656 605.045 594.384C603.533 591.902 602.444 589.117 600.629 586.878C597.423 581.974 593.189 577.858 588.651 574.165C579.335 567.142 567.842 562.844 555.924 563.086C549.996 563.268 543.946 564.539 538.502 567.385L534.57 569.867C533.36 570.835 532.271 571.925 531.122 572.954C528.883 575.073 526.948 577.736 525.617 580.642C522.895 586.454 522.592 593.295 524.709 599.409C527.008 606.128 531.727 609.155 537.534 612.606C547.334 618.296 558.102 622.292 569.233 624.35C572.016 624.895 574.798 625.258 577.581 625.561L581.816 625.864L585.264 625.985C585.264 625.985 585.264 626.227 585.203 626.59C584.84 629.072 584.417 631.615 583.63 633.976C580.848 643.662 574.677 652.197 566.934 658.978C551.327 672.659 530.033 679.56 509.707 685.19C499.241 687.733 489.018 689.246 477.948 689.852C476.012 690.033 474.197 690.699 472.564 691.668C471.717 692.152 470.991 692.757 470.265 693.423L469.781 693.908C469.781 693.908 469.599 694.089 469.539 694.21C469.357 694.392 468.874 694.816 468.632 695.179C466.091 698.145 465.062 702.322 465.909 706.136C466.333 708.013 467.18 709.768 468.45 711.342C469.781 712.977 471.596 714.188 473.592 714.793C474.499 715.096 475.83 715.277 476.496 715.277C476.496 715.277 476.556 715.277 476.738 715.277L477.706 715.58L481.638 716.609C502.569 722.36 523.379 728.535 544.068 735.194C554.351 738.523 564.635 741.974 574.919 745.546L590.224 751.236L594.338 752.508C595.487 752.871 597.302 753.416 599.117 753.476C600.932 753.597 602.747 753.355 604.501 752.871C605.348 752.568 606.195 752.265 606.981 751.842C607.828 751.418 608.675 750.873 608.917 750.691C617.689 745.485 626.521 741.429 636.26 739.734C645.879 737.797 655.86 737.979 665.418 740.037C670.197 741.127 674.916 742.579 679.392 744.577C684.958 747.362 685.623 746.696 684.897 751.6C683.929 755.595 681.389 759.893 678.545 763.828C675.702 767.763 672.375 771.577 668.927 775.209C665.418 778.841 661.789 782.352 657.977 785.682C656.102 787.377 654.166 789.012 652.231 790.525L650.779 791.736C650.295 792.099 649.327 792.886 648.782 793.552C647.512 795.005 646.726 796.639 646.242 798.334C645.213 801.724 645.455 805.417 647.27 808.747C648.177 810.442 649.569 811.895 651.263 812.924C652.11 813.469 653.017 813.771 653.924 814.135L655.8 814.619C660.639 816.011 665.418 817.646 670.076 819.522C679.332 823.215 688.466 827.937 696.512 833.567C700.505 836.412 704.316 839.56 706.857 843.132C708.187 844.948 709.095 846.825 709.518 848.701C709.7 849.609 709.76 850.578 709.7 851.486L709.518 852.878C709.518 852.878 709.337 853.544 709.276 853.726C709.216 853.786 708.913 854.21 708.671 854.573C708.308 854.816 707.643 854.937 707.219 855.239C705.949 855.663 704.558 856.026 702.985 856.208C699.96 856.632 696.694 856.632 693.366 856.329C682.417 855.542 671.286 852.939 660.337 850.094C649.387 847.188 638.559 843.798 627.731 840.166C589.922 827.15 571.048 820.491 570.201 822.307C570.382 821.944 569.414 820.673 566.45 820.309C565.059 820.128 563.063 820.309 561.006 821.399C558.949 822.61 557.497 823.699 555.319 825.213C547.213 831.024 535.114 839.621 517.632 848.762C507.348 854.029 496.701 858.508 485.812 862.141C474.802 865.531 463.611 868.497 452.177 870.132C429.25 873.582 405.597 873.461 382.73 869.284C359.864 865.349 337.844 856.692 317.76 845.069C297.857 833.143 279.77 817.948 265.13 799.848C257.81 790.888 251.035 781.263 245.53 771.153C240.509 760.922 236.335 750.086 233.794 738.766C223.208 693.423 229.62 644.933 246.014 601.407C248.192 595.595 250.37 589.481 253.455 584.093C258.113 575.92 260.472 568.656 261.924 559.454C262.771 553.885 263.678 548.315 264.525 542.746C266.219 531.849 267.913 520.892 269.486 509.995C270.212 504.668 271.542 500.551 274.809 496.253C275.898 494.619 277.108 493.105 278.318 491.652C279.528 490.078 280.738 488.626 282.068 487.233C283.339 485.841 284.67 484.449 286.061 483.117C291.566 477.85 297.797 473.37 304.633 470.283C311.408 467.195 318.788 465.561 326.229 465.803C329.193 465.924 332.157 466.287 335.122 466.893C340.022 467.982 344.922 469.435 349.64 471.191C350.366 471.433 351.031 471.736 351.757 471.978C356.839 473.976 361.981 476.155 366.336 479.484C371.781 483.662 376.439 488.928 380.31 494.74C388.054 506.424 392.591 520.226 395.01 534.271C396.22 541.293 396.946 548.558 397.309 555.64C397.37 562.844 397.249 570.169 396.886 577.373C396.16 591.963 394.648 606.431 392.288 620.778C389.929 635.126 386.723 649.352 382.73 663.336L379.645 673.809C378.98 675.746 378.435 678.652 379.101 681.195C379.706 683.798 381.097 686.219 383.033 687.854C386.723 691.123 392.167 692.818 397.43 690.396C399.971 689.307 401.967 686.946 402.935 684.645C403.54 683.374 403.722 682.527 404.024 681.679L404.871 679.015C409.348 664.85 413.038 650.502 415.881 635.913C417.333 628.648 418.543 621.323 419.571 613.938L420.902 602.92L421.93 592.447L424.652 586.03L427.738 579.129C429.794 574.528 431.972 569.988 434.15 565.447C438.627 556.367 443.345 547.468 448.427 538.75C458.529 521.134 469.478 504.547 481.94 488.141C491.438 471.857 502.69 457.631 515.998 444.797C529.186 432.084 544.43 421.127 560.401 412.712C599.117 396.064 644.85 392.129 685.2 404.358C695.06 407.687 704.497 412.651 710.91 420.218C713.995 424.032 716.415 428.33 717.564 433.052C717.685 433.355 717.624 433.173 717.685 433.416V434.384L717.806 436.261C717.745 437.532 717.806 438.803 717.745 440.075C717.625 442.617 717.262 445.16 716.838 447.642C714.902 457.631 710.063 467.074 703.106 474.46L701.775 475.852L701.11 476.518C701.11 476.518 700.142 477.487 700.142 477.608L697.54 480.574C696.21 482.088 694.879 483.54 693.427 484.933C689.253 488.989 684.716 492.803 679.876 496.011C675.521 498.917 670.984 501.52 666.205 503.699V503.76ZM632.872 510.722C629.303 510.661 625.795 510.358 622.286 509.632C619.503 509.087 616.721 508.3 614.301 507.271C613.696 507.029 613.031 506.666 612.668 506.484L612.426 506.302H612.668L613.575 506.181C614.24 506.121 614.906 506.121 615.632 506.121C618.414 506 621.076 506.302 623.738 506.968C626.944 507.755 630.029 508.966 632.872 510.722ZM578.065 599.651C572.439 598.925 566.874 597.653 561.369 595.958C558.163 594.869 554.896 593.718 552.174 592.205C551.569 591.781 550.782 591.418 550.298 590.994L549.512 590.389L549.149 590.026C549.149 590.026 550.722 589.299 551.75 589.178C553.142 588.936 554.714 588.875 556.227 588.936C559.372 589.057 562.579 589.783 565.543 590.873C570.443 592.689 574.798 595.716 578.065 599.651Z" fill="black"/>
<path d="M715.779 858.646L714.694 858.351L713.859 857.686C714.611 857.981 715.362 858.351 715.779 858.646Z" fill="#010101"/>
<path d="M346.736 527.43C340.97 526.53 337.719 531.089 335.265 535.468C332.137 541.047 329.254 545.487 322.875 548.186C312.876 552.445 308.276 544.587 307.294 535.948C306.435 528.749 310.852 515.312 300.179 513.272C295.21 512.312 290.426 515.432 289.383 520.231C283.801 562.704 310.913 576.501 335.02 562.584C349.435 554.545 362.5 529.889 346.736 527.43Z" fill="black"/>
<path d="M612.734 807.44C611.556 805.999 610.437 805.122 610.084 803.995C608.435 799.234 609.142 794.912 612.616 791.279C615.796 787.959 622.097 789.65 623.275 794.098C624.57 799.109 622.274 805.06 617.68 807.44C616.267 808.191 614.206 807.44 612.793 807.44H612.734Z" fill="black"/>
<path d="M510.201 829.075C507.335 832.719 501.848 833.997 498.068 831.249C496.787 830.354 495.812 827.797 495.995 826.135C496.604 820.191 502.092 816.931 507.396 818.912C510.993 820.255 512.579 826.071 510.201 829.075Z" fill="black"/>
<path d="M716.965 834.014C720.424 836.006 721.259 839.566 720.066 841.618C717.86 845.48 711.478 846.566 708.913 843.187C707.482 841.316 706.885 838.721 706.229 836.368C705.811 834.919 708.197 832.505 709.688 832.747C712.671 833.169 715.653 833.773 716.965 834.014Z" fill="black"/>
<path d="M399.659 856.487C397.152 859.269 391.842 859.395 389.873 856.676C388.083 854.21 387.963 849.848 389.753 847.572C392.14 844.474 397.212 844.41 399.36 847.445C401.329 850.164 401.508 854.463 399.659 856.487Z" fill="black"/>
<path d="M284.64 782.602C286.03 779.938 290.39 778.249 293.297 779.288C296.584 780.458 298.353 785.85 296.584 789.683C295.257 792.542 291.022 794.231 288.115 792.931C284.513 791.372 282.744 786.11 284.576 782.602H284.64Z" fill="black"/>
<path d="M557.27 788.291C555.831 788.699 554.152 789.691 552.533 789.516C550.854 789.399 549.115 788.349 547.616 787.474C545.217 786.015 544.378 783.448 545.277 781.464C546.417 778.955 548.635 778.08 551.094 778.022C554.812 777.905 558.05 780.822 558.35 784.557C558.47 785.607 557.75 786.774 557.33 788.291H557.27Z" fill="black"/>
<path d="M408.432 762.603C406.689 765.619 403.764 766.813 400.651 767.378C397.601 767.943 393.866 765.493 393.368 762.729C392.684 759.022 395.609 754.687 399.095 754.121C402.954 753.556 406.876 755.441 408.432 758.959C408.868 759.964 408.432 761.346 408.432 762.54V762.603Z" fill="black"/>
<path d="M315.009 753.601C313.885 754.344 312.893 755.335 311.637 755.707C310.38 756.079 308.86 755.955 307.537 755.707C304.165 754.964 301.057 751.495 301.123 748.894C301.189 746.106 305.487 743.071 308.595 743.505C313.025 744.124 315.935 747.655 315.472 751.743C315.406 752.362 315.141 752.982 314.943 753.663L315.009 753.601Z" fill="black"/>
<path d="M339.998 750.798C335.111 747.367 334.43 742.957 337.647 738.67C339.256 736.587 343.03 735.975 344.391 737.935C345.876 739.956 347.113 742.284 347.917 744.672C348.783 747.245 347.175 750.614 344.886 751.043C343.092 751.349 341.174 750.859 339.936 750.798H339.998Z" fill="black"/>
<path d="M599.387 836.637C598.194 837.086 596.339 837.984 594.351 838.368C591.568 839.009 588.852 837.022 588.256 834.201C587.659 831.573 589.051 828.688 591.635 827.342C594.219 825.995 596.935 825.354 599.585 826.957C602.169 828.624 602.302 834.009 599.453 836.573L599.387 836.637Z" fill="black"/>
<path d="M299.7 721.214C300.541 719.359 303.904 717.983 305.946 718.701C310.451 720.316 312.072 724.803 309.49 728.871C308.409 730.606 304.745 731.564 303.003 730.606C299.94 728.991 298.319 724.325 299.7 721.154V721.214Z" fill="black"/>
<path d="M467.537 654.837C470.027 656.195 470.836 659.817 469.217 662.533C467.413 665.532 463.803 666.607 461.314 664.909C458.575 662.985 457.766 659.873 459.322 657.157C460.816 654.554 464.923 653.365 467.537 654.837Z" fill="black"/>
<path d="M665.938 754.86C666.24 756.864 667.208 759.002 666.664 760.539C666.119 762.209 664.487 763.879 662.915 764.747C659.469 766.617 656.023 765.014 655.418 761.674C654.814 758.067 656.749 754.46 660.013 754.059C661.767 753.858 663.58 754.526 665.938 754.86Z" fill="black"/>
<path d="M442.169 844.131C439.678 842.166 439.678 838.594 442.169 836.272C444.532 834.07 448.746 834.129 450.598 836.332C452.258 838.237 452.194 841.035 450.598 842.88C448.363 845.381 444.468 845.976 442.105 844.131H442.169Z" fill="black"/>
<path d="M491.552 733.504C494.016 734.705 494.858 739.148 493.175 741.61C491.431 744.131 487.163 745.272 485.06 743.711C482.715 742.03 481.753 737.707 483.256 735.426C484.699 733.144 488.907 732.183 491.552 733.504Z" fill="black"/>
<path d="M494.175 709.053C495.949 704.416 499.803 702.946 504.697 703.172C507.021 703.285 509.346 705.604 509.407 707.922C509.529 710.75 506.41 713.973 503.596 713.691C499.681 713.238 496.133 712.107 494.053 708.657L494.175 709.053Z" fill="black"/>
<path d="M533.233 785.096C533.233 786.541 533.784 788.802 532.926 789.87C529.865 793.89 525.824 794.33 521.233 791.818C519.58 790.938 518.478 788.3 519.273 786.918C519.886 785.913 520.804 784.531 521.784 784.405C524.845 783.903 527.967 783.84 531.09 783.777C531.579 783.777 532.13 784.405 533.171 785.096H533.233Z" fill="black"/>
<path d="M277.055 698.856C278.999 700.183 279.668 703.658 278.392 705.617C277.055 707.575 273.651 708.586 271.889 707.512C269.033 705.68 267.696 702.015 268.972 699.361C270.127 696.96 274.016 696.707 277.115 698.856H277.055Z" fill="black"/>
<path d="M563.459 815.288C562.056 817.752 557.512 819.042 554.505 817.928C552.5 817.165 551.03 813.645 551.899 811.709C553.503 808.131 558.648 806.605 561.989 808.776C564.06 810.067 564.728 813.176 563.526 815.347L563.459 815.288Z" fill="black"/>
<path d="M331.62 690.325C329.537 693.161 325.8 693.358 323.595 690.787C321.635 688.478 321.819 684.522 324.024 681.752C325.617 679.708 328.802 679.576 330.64 681.356C333.029 683.73 333.519 687.753 331.681 690.325H331.62Z" fill="black"/>
<path d="M691.645 842.988C689.533 845.462 685.242 845.968 682.931 844C681.017 842.426 680.687 839.84 682.073 837.647C683.525 835.398 688.609 833.88 690.787 835.061C692.966 836.241 693.428 840.795 691.645 842.932V842.988Z" fill="black"/>
<path d="M502.474 792.138C503.775 793.174 504.023 795.732 503.093 797.133C501.545 799.387 499.439 800.3 496.713 800.057C494.483 799.813 491.695 797.072 492.191 795.001C492.563 793.478 493.987 791.712 495.474 791.103C497.766 790.067 500.368 790.311 502.474 792.199V792.138Z" fill="black"/>
<path d="M681.346 816.006C679.421 818.041 675.821 817.75 675.138 815.483C674.641 813.797 674.455 811.995 674.517 810.251C674.579 808.158 676.317 806.704 678.056 806.82C680.042 806.995 681.842 807.576 682.587 809.495C683.519 811.878 683.394 814.204 681.346 816.006Z" fill="black"/>
<path d="M475.895 687.002C475.172 688.979 470.969 689.418 468.802 687.606C466.832 685.904 465.913 683.818 466.307 681.347C466.635 679.096 469.984 677.504 472.414 678.492C476.42 680.14 477.93 683.873 475.829 687.002H475.895Z" fill="black"/>
<path d="M302.134 843.288C301.768 841.514 300.73 839.68 301.279 838.557C301.951 837.196 303.782 835.895 305.368 835.658C306.894 835.422 308.969 836.072 310.311 836.96C311.532 837.788 309.823 842.164 307.809 842.874C306.284 843.407 304.392 843.17 302.134 843.288Z" fill="black"/>
<path d="M672.97 781.858C675.952 783.12 677.183 786.654 675.952 788.673C675.109 790.062 672.322 790.882 670.636 790.314C668.367 789.494 666.812 785.644 668.497 783.94C669.664 782.741 671.803 782.426 672.97 781.858Z" fill="black"/>
<path d="M334.523 712.808C335.024 714.742 335.837 716.374 335.649 717.824C335.462 719.455 332.771 719.939 330.893 718.972C328.139 717.522 327.013 714.138 329.015 713.231C330.455 712.627 332.332 712.929 334.46 712.748L334.523 712.808Z" fill="black"/>
<path d="M259.246 763.479C258.288 763.969 256.851 765.136 255.235 765.504C253.739 765.872 252.003 763.356 252.183 761.637C252.422 758.998 254.756 756.728 257.031 756.912C259.246 757.096 260.742 760.471 259.246 763.479Z" fill="black"/>
<path d="M281.105 728.363C281.666 729.249 282.395 730.086 282.788 731.071C283.349 732.549 281.385 734.125 279.478 733.829C277.515 733.484 276.506 732.401 276.225 730.628C276.001 729.397 276.394 728.412 277.74 728.166C278.805 727.969 279.983 728.313 281.105 728.412V728.363Z" fill="black"/>
<path d="M489.19 709.967C487.848 713.951 484.973 715.794 480.5 715.616C478.647 715.556 476.986 714.189 476.794 712.167C476.666 710.265 477.177 708.6 479.286 707.827C483.311 706.4 486.826 706.519 489.254 710.383L489.126 709.967H489.19Z" fill="black"/>
<path d="M468.565 775.234C467.234 775.485 465.48 776.303 463.847 776.051C462.517 775.863 461.851 772.28 462.88 770.96C463.968 769.64 465.541 768.572 467.053 767.755C468.444 767 469.533 767.755 469.835 769.326C469.956 769.954 470.138 770.646 470.017 771.212C469.714 772.406 469.17 773.537 468.505 775.297L468.565 775.234Z" fill="black"/>
<path d="M606.451 773.878C606.451 772.582 606.068 770.442 606.835 769.081C608.048 766.942 612.454 766.942 613.604 768.951C614.178 769.924 614.178 771.674 613.604 772.712C612.263 775.305 608.814 776.018 606.388 773.878H606.451Z" fill="black"/>
<path d="M550.035 757.334C548.922 757.503 547.309 758.065 545.863 757.784C544.194 757.503 543.359 754.971 544.472 753.564C545.418 752.383 547.031 751.201 548.477 751.145C550.313 751.032 551.481 754.971 550.035 757.39V757.334Z" fill="black"/>
<path d="M491.103 771.563C490.524 770.691 489.715 769.916 489.367 768.996C488.847 767.591 490.177 765.992 492.028 765.605C493.763 765.266 495.556 766.283 495.903 768.027C496.077 768.947 495.903 769.964 495.614 770.885C495.094 772.386 492.491 772.725 491.103 771.563Z" fill="black"/>
<path d="M400.03 733.812C398.242 733.442 396.388 733.125 394.667 732.65C394.336 732.544 394.071 731.382 394.336 731.17C395.594 730.061 397.117 729.11 398.507 728.106C399.368 728.898 400.626 729.585 400.89 730.484C401.155 731.382 400.427 732.439 400.03 733.865V733.812Z" fill="black"/>
<path d="M534.616 817.129C533.575 817.179 532.21 817.581 531.624 817.229C529.999 816.224 530.259 814.465 531.885 813.711C532.34 813.51 533.055 813.51 533.64 813.561C535.396 813.812 535.916 815.872 534.551 817.129H534.616Z" fill="black"/>
<path d="M443.181 805.854C443.061 807.866 443.3 809.322 442.822 810.363C442.045 812.097 439.773 812.027 438.697 810.154C438.219 809.322 438.338 807.033 438.697 806.825C440.012 806.201 441.566 806.131 443.181 805.854Z" fill="black"/>
<path d="M415.939 809.693C416.593 811.949 417.393 813.415 417.247 814.825C417.247 815.445 415.213 816.517 414.195 816.404C411.87 816.235 410.126 814.6 410.634 813.021C410.998 811.893 413.468 811.16 415.939 809.693Z" fill="black"/>
<path d="M346.837 774.179C345.858 773.934 344.228 773.996 343.086 773.201C341.836 772.285 342.379 769.414 343.956 768.681C344.771 768.254 346.13 768.376 346.946 768.864C348.522 769.903 348.631 772.346 346.837 774.179Z" fill="black"/>
<path d="M505.742 857.548C504.056 857.246 503.408 856.339 503.732 854.768C504.316 851.444 505.677 850.538 509.179 851.142C510.865 851.444 511.578 852.29 511.254 853.861C510.606 857.065 509.049 858.092 505.742 857.548Z" fill="black"/>
<path d="M362.212 712.305C361.075 712.439 359.685 713.041 358.801 712.573C357.222 711.703 357.475 709.026 359.243 707.554C360.443 706.55 361.833 706.884 362.401 708.557C362.78 709.695 362.338 711.1 362.275 712.372L362.212 712.305Z" fill="black"/>
<path d="M285.42 754.022C286.175 755.095 286.929 756.168 287.684 757.178C286.518 757.746 285.351 758.756 284.116 758.819C282.332 758.882 281.371 757.557 282.263 756.042C282.812 755.095 284.391 754.653 285.488 754.022H285.42Z" fill="black"/>
<path d="M439.404 780.156C438.018 781.351 436.254 781.08 435.057 779.504C434.174 778.362 434.426 777.438 435.813 776.732C437.766 775.754 440.16 775.917 440.286 777.167C440.412 778.145 439.719 779.178 439.404 780.156Z" fill="black"/>
<path d="M351.035 798.218C351.965 798.26 352.895 798.302 353.773 798.429C353.876 798.429 354.031 799.276 353.773 799.572C353.566 799.869 352.585 800.165 352.533 800.08C351.965 799.488 351.5 798.853 351.035 798.175V798.218Z" fill="black"/>
<path d="M389.429 823.56C389.173 823.958 389.002 824.455 388.704 824.703C388.362 824.952 387.893 824.952 387.509 825.051C387.637 824.156 387.68 823.212 387.893 822.367C387.893 822.218 388.789 822.069 389.045 822.267C389.301 822.466 389.301 823.113 389.429 823.61V823.56Z" fill="black"/>
<path d="M479.897 858.713C479.836 857.894 479.47 856.63 479.775 856.406C481.055 855.29 482.336 855.662 483.129 857.299C483.433 857.894 483.372 858.787 483.494 859.606C482.275 859.308 481.116 859.011 479.897 858.713Z" fill="black"/>
<path d="M328.313 832.806C328.525 833.412 329.033 834.094 328.949 834.548C328.694 835.912 327.974 835.988 327.126 834.624C326.957 834.321 327.084 833.336 327.084 832.73C327.508 832.73 327.889 832.73 328.313 832.806Z" fill="black"/>
<path d="M266.262 818.332L268.487 819.55L265.608 821.212L266.262 818.332Z" fill="black"/>
<path d="M624.047 827.931C624.245 828.842 624.394 829.693 624.593 830.605C624.146 830.605 623.451 830.97 623.252 830.727C622.657 829.997 622.21 829.025 621.713 828.113C622.508 828.113 623.252 828.052 624.047 827.991V827.931Z" fill="black"/>
<path d="M493.947 708.088C492.734 711.349 491.1 711.259 489.254 710.081L489.359 710.715C490.572 707.363 492.207 707.544 494.053 708.722L493.947 707.997V708.088Z" fill="black"/>
<path d="M586.199 804.894L585.946 805.854L585.239 805.278L586.199 804.894Z" fill="black"/>
<defs>
<clipPath id="clip0_259_3485">
<rect width="847" height="356" fill="white" transform="translate(41 48)"/>
</clipPath>
</defs>
</svg>
