<svg width="930" height="930" viewBox="0 0 930 930" fill="none" xmlns="http://www.w3.org/2000/svg">
<g clip-path="url(#clip0_259_3627)">
<g clip-path="url(#clip1_259_3627)">
<path d="M70.7959 213.812C63.6564 209.878 50.6052 197.098 43.4657 189.724C41.7427 188.004 41 185.79 41 183.576C41 165.141 53.8036 102.701 59.9628 81.0736C60.2104 80.095 60.2104 78.8594 60.2104 77.8809C60.2104 72.7212 59.2202 64.606 59.2202 63.1332C59.2202 61.1662 60.2104 59.4463 62.171 58.7049C75.9649 52.8039 92.7096 48.8699 103.295 48.8699C141.221 48.8699 171.502 89.6731 171.502 120.641C171.502 169.065 129.15 211.836 79.8961 215.275C76.6977 215.275 73.4893 215.028 70.786 213.803L70.7959 213.812ZM137.527 109.837C137.527 91.4029 122.01 80.3421 105.266 80.3421C103.543 80.3421 102.067 80.3421 100.344 80.5892C97.3934 81.0834 95.9081 82.3091 95.4228 84.7704C89.5112 108.859 81.629 143.03 76.7076 175.47C76.7076 175.47 76.46 176.943 76.46 177.438C76.46 179.405 77.6879 180.146 79.906 180.146C98.3737 180.146 137.527 156.304 137.527 109.847V109.837Z" fill="#DB433B"/>
<path d="M258.186 114.997C258.186 114.503 258.434 113.771 258.434 113.771C260.157 107.376 261.632 101.732 261.632 95.3368C261.632 86.9745 259.167 80.0949 251.78 80.0949C235.035 80.0949 213.854 116.233 213.854 149.662C213.854 173.009 224.687 181.371 235.768 181.371C246.848 181.371 262.118 170.311 268.267 165.151C268.267 165.151 269.742 163.678 271.218 163.678C272.941 163.678 273.931 164.172 274.911 165.398C277.13 168.106 282.298 179.652 283.289 182.113C284.031 183.833 284.517 185.058 284.517 186.778C284.517 188.251 284.021 189.487 283.041 190.712C275.654 200.547 256.444 215.542 238.719 215.542C222.954 215.542 196.862 202.514 187.257 188.014C180.85 178.179 177.156 165.645 177.156 151.876C177.156 106.892 204.982 50.1152 243.64 50.1152C254.968 50.1152 298.063 64.6158 298.063 86.2529C298.063 95.5938 293.627 106.655 290.923 113.05C289.943 115.511 287.477 117.231 284.517 117.231C280.823 117.725 265.306 117.972 261.613 117.972C259.642 117.972 258.167 116.747 258.167 115.027L258.186 114.997Z" fill="#DB433B"/>
<path d="M166.343 252.836V258.985C166.343 301.013 152.311 403.269 100.344 403.269C79.9061 403.269 59.4678 389.499 52.3282 379.427C46.9117 371.806 44.446 359.273 44.446 347.718C44.446 307.409 59.9629 257.996 67.8352 243.248C69.3106 240.787 71.0336 239.314 74.242 239.314C78.9158 239.314 91.9769 243.496 98.1262 245.71C100.097 246.451 101.077 248.655 101.077 250.622C101.077 251.848 100.582 253.331 100.582 253.331C90.7292 279.88 79.6486 326.09 79.6486 349.191C79.6486 361.971 82.1143 370.818 91.9571 370.818C105.989 370.818 113.871 349.922 120.278 324.361C127.665 295.112 132.101 257.255 133.329 244.474C133.576 242.013 135.299 240.54 137.517 240.54C141.211 240.54 155.985 244.227 161.897 246.441C164.848 247.667 166.085 250.375 166.333 252.836H166.343Z" fill="#DB433B"/>
<path d="M220.023 404C208.2 404 188.999 399.334 177.424 389.499C169.541 382.867 166.095 374.258 164.125 360.983C164.125 360.983 163.877 358.769 163.877 357.79C163.877 354.834 165.6 353.124 168.313 351.889C178.166 348.202 188.257 346.729 190.475 346.482C193.673 346.482 194.663 348.696 195.149 350.416C198.595 362.703 199.585 374.258 215.834 374.258C227.41 374.258 235.045 367.625 235.045 361.23C235.045 341.322 175.701 337.635 175.701 296.338C175.701 270.283 199.09 238.326 224.707 238.326C241.699 238.326 284.051 252.332 284.051 274.948C284.051 282.569 279.13 295.35 276.416 300.025C274.693 303.465 273.466 304.206 270.505 304.453C266.811 304.947 251.79 304.947 247.848 304.947C244.402 304.947 243.175 303.722 243.175 301.755C243.175 299.788 246.621 287.254 246.621 279.88C246.621 270.292 241.452 267.1 236.035 267.1C223.231 267.1 213.131 284.556 213.131 294.134C213.131 319.448 271.743 318.964 271.743 357.306C271.743 382.135 245.888 404.01 220.033 404.01L220.023 404Z" fill="#DB433B"/>
<path d="M649.108 154.1C649.108 206.626 587.545 281.739 525.973 321.662C523.864 323.234 522.814 324.291 522.814 325.339C522.814 326.387 524.389 326.387 527.548 326.387C529.132 326.387 553.858 324.815 568.068 324.815C575.96 324.815 583.327 324.815 589.645 325.339C595.428 325.863 600.171 330.064 601.22 335.323C603.854 346.354 607.013 366.834 609.113 382.6C609.113 387.849 605.429 391.526 599.646 392.05C566.493 394.145 460.727 400.451 427.05 402.033C421.267 402.033 414.949 399.928 412.315 394.679C407.057 383.124 398.105 350.555 398.105 346.354C398.105 341.629 400.739 336.904 404.423 334.275C505.456 271.765 575.435 173.019 576.495 136.773C575.97 121.017 563.859 115.234 552.293 115.234C533.875 115.234 504.931 134.667 483.364 168.808C481.789 171.438 479.155 173.009 475.996 173.009C472.838 173.009 469.679 170.914 469.679 170.914C457.578 163.036 443.368 151.481 435.476 142.545C432.842 139.916 431.268 136.239 431.268 132.038C431.268 130.466 431.793 127.837 432.318 126.265C442.309 101.574 481.769 48 533.34 48C581.228 48 649.108 100.002 649.108 154.1Z" fill="#3D9CFB"/>
<path d="M864.848 247.074C871.166 247.074 873.79 251.275 874.85 256.523C876.949 268.602 879.583 291.722 879.583 305.896C879.583 310.621 876.424 315.356 870.631 315.356C867.997 315.356 847.48 315.88 844.846 315.88C838.528 315.88 835.379 320.604 834.32 325.863C831.161 348.449 827.477 371.035 824.853 393.097C824.328 398.356 820.645 401.499 815.912 401.499C806.96 401.499 775.391 392.05 764.865 387.839C758.548 385.743 755.399 379.961 755.399 374.712C755.924 362.633 759.082 330.588 759.082 328.492C759.082 324.291 755.924 321.662 752.24 321.662C740.139 321.662 669.625 328.492 665.417 328.492C659.099 328.492 654.366 325.863 652.267 321.138C647.009 310.631 635.433 278.071 635.433 270.184C635.433 265.459 637.017 260.2 639.641 257.057C677.527 206.636 759.092 89.4951 783.818 57.4594C786.452 54.3063 789.601 52.2107 793.82 52.2107C798.553 52.2107 808.554 59.0409 812.238 59.0409C814.337 59.0409 815.921 57.9932 816.971 55.8878C818.555 52.7346 822.239 50.1152 826.448 50.1152C832.765 50.1152 868.542 60.0986 882.227 64.8234C886.435 66.4049 888.01 70.0819 888.01 73.7589C888.01 74.8067 887.485 77.436 887.485 77.436C878.019 105.804 863.284 164.103 849.599 236.062C849.599 236.062 849.074 239.215 849.074 240.787C849.074 243.94 851.173 247.093 854.857 247.093H864.858L864.848 247.074ZM719.622 252.322C719.622 253.904 721.206 255.475 723.83 255.475C724.88 255.475 749.091 252.846 761.716 251.798C766.975 251.275 770.133 248.645 771.183 243.397C776.966 210.827 787.492 159.883 787.492 156.206C787.492 154.624 787.492 153.576 786.967 153.576C785.918 153.576 784.333 155.672 784.333 155.672C778.016 164.074 726.454 240.767 721.186 248.645C720.137 250.227 719.602 251.275 719.602 252.322H719.622Z" fill="#3D9CFB"/>
<path d="M382.945 60.9487C387.252 63.1331 390.827 65.5351 390.213 70.9715C390.213 70.9715 353.515 395.351 353.466 395.786C352.773 401.934 348.168 404.099 343.395 403.397C340.276 402.942 337.563 401.39 334.79 400.007C330.067 397.634 324.977 395.865 320.452 393.127C316.521 390.834 311.857 387.374 311.896 382.323C311.896 381.997 311.926 381.681 311.966 381.355L348.713 56.5402C348.743 56.2832 348.782 56.0361 348.822 55.7988C349.931 50.0461 356.526 47.1894 361.724 49.8978L382.945 60.9487Z" fill="black"/>
</g>
<g clip-path="url(#clip2_259_3627)">
<path d="M486.331 808.228C559.266 875.199 672.543 870.516 739.341 797.768C806.14 725.021 801.165 611.757 728.23 544.786C655.294 477.815 542.018 482.498 475.219 555.246C408.421 627.993 413.396 741.258 486.331 808.228Z" fill="#E7BB43"/>
<path d="M585.09 549.286C545.798 531.769 516.968 596.41 559.023 610.918C598.983 630.179 623.672 561.397 585.09 549.286Z" fill="black"/>
<path d="M715.474 729.221C713.806 727.577 711.918 726.296 709.81 725.379C707.702 724.462 705.378 724.026 703.076 724.062C700.773 724.098 698.486 724.488 696.399 725.402C694.251 726.258 692.359 727.577 690.718 729.24C644.187 774.231 549.43 744.947 543.322 674.484C539.983 650.932 504.03 656.968 508.511 678.286C529.967 838.562 750.6 790.45 715.535 729.278L715.474 729.221Z" fill="black"/>
<path d="M708.332 452.266C599.915 403.874 449.649 461.366 414.779 574.109C339.905 767.493 551.361 948.98 732.023 866.542C903.892 791.084 880.494 516.633 708.332 452.266ZM554.608 833.231C328.435 737.719 457.186 385.435 694.166 484.872C922.596 580.645 799.201 936.489 554.608 833.231Z" fill="black"/>
<path d="M695.466 644.977C715.869 683.065 772.633 651.771 755.65 612.182C735.044 576.17 675.201 604.638 695.466 644.977Z" fill="black"/>
</g>
<g clip-path="url(#clip3_259_3627)">
<path d="M-954.792 302.861C-954.262 302.29 -953.671 301.74 -953.04 301.271C-949.657 298.662 -923.265 319.749 -919.067 319.076C-853.33 308.51 -811.714 334.159 -747.889 345.54C-503.349 389.212 -245.707 423.732 -2.0421 471.765C-1.02317 471.968 170.543 503.588 179.326 508.416C235.044 538.831 296.079 560.32 346.866 597.481C361.581 607.545 357.078 616.37 346.665 617.961C140.977 649.62 175.495 638.264 112.119 628.696C-123.719 592.746 -820.22 414.836 -854.048 408.728C-890.158 402.233 -955.713 406.136 -965.461 359.248C-968.52 344.475 -965.405 329.109 -960.761 314.762C-959.376 310.503 -957.746 306.122 -954.751 302.942L-954.792 302.861Z" fill="#E7BB43"/>
<path d="M-1246.57 254.082C-1216.84 236.511 -1245.12 245.36 -41.6591 454.898C-41.0478 455 196.463 499.997 207.936 506.333C280.426 546.139 350.288 590.572 417.156 639.305C436.456 652.528 431.506 664.123 418.566 666.265C162.526 708.997 174.649 700.844 94.1552 688.528C-205.263 642.399 -1106.27 482.413 -1149.37 474.574C-1237 458.592 -1278.59 462.327 -1297.69 404.885C-1306.99 377.642 -1307.06 348.074 -1297.79 320.766C-1288.54 293.519 -1270.53 270.041 -1246.57 254.082ZM-515.219 456.134C-509.002 464.488 -518.088 477.389 -533.209 474.558C-693.669 443.447 -717.063 441.086 -777.465 429.827C-1107 368.501 -1069.57 364.297 -1072.58 384.452C-1081.72 445.525 -1120.24 447.773 -1086.18 453.514C-963.894 474.219 -87.299 623.898 153.208 672.95C169.103 676.208 153.634 661.375 164.385 607.393C167.459 591.742 187.37 604.557 -301.487 516.133C-474.01 484.942 -483.057 488.346 -482.306 472.431C-482.367 469.965 -481.471 467.581 -479.78 465.767C-478.13 463.974 -475.827 462.873 -473.341 462.75C-440.187 461.706 168.577 576.255 168.72 575.725C182.223 526.225 183.323 527.917 168.875 525.616C-90.3573 484.555 -767.246 362.049 -1063.18 306.79C-1076.98 304.266 -1070.48 311.05 -1069.55 346.711C-1069.22 359.386 -1070.43 351.684 -809.239 398.593C-514.445 451.366 -517.482 447.943 -515.239 456.195L-515.219 456.134ZM-1244.28 425.601C-1211.47 433.034 -1178.27 438.694 -1144.81 442.54C-1128.08 445.023 -1128.08 444.921 -1120 429.616C-1099.83 394.869 -1091.13 354.703 -1095.07 314.743C-1096.64 297.137 -1090.73 302.026 -1184.78 284.312C-1204.63 280.586 -1167.54 309.721 -1188.6 365.396C-1192.65 378.581 -1200.19 390.402 -1210.42 399.594C-1232.93 417.632 -1204.39 353.172 -1216.44 300.151C-1219.38 287.252 -1234.34 274.559 -1244.14 283.996C-1256.04 295.348 -1265.27 309.186 -1271.17 324.572C-1277.06 339.897 -1279.5 356.404 -1278.28 372.808C-1277.23 401.173 -1268.98 417.984 -1244.2 425.662L-1244.28 425.601ZM203.54 538.489C187.933 557.097 184.075 642.888 184.955 667.158C185.385 679.425 187.789 673.637 292.549 658.582C305.386 656.746 300.088 654.811 312.838 617.456C316.016 608.123 316.791 612.117 238.063 561.266C225.978 554.625 214.403 546.965 203.479 538.469L203.54 538.489Z" fill="#191919"/>
</g>
</g>
<defs>
<clipPath id="clip0_259_3627">
<rect width="930" height="930" fill="white"/>
</clipPath>
<clipPath id="clip1_259_3627">
<rect width="847" height="356" fill="white" transform="translate(41 48)"/>
</clipPath>
<clipPath id="clip2_259_3627">
<rect width="464.228" height="444.526" fill="white" transform="translate(607.615 339.752) rotate(42.5589)"/>
</clipPath>
<clipPath id="clip3_259_3627">
<rect width="1114.82" height="1435.01" fill="white" transform="translate(-850.279 1302.01) rotate(-116.574)"/>
</clipPath>
</defs>
</svg>
