<svg width="930" height="930" viewBox="0 0 930 930" fill="none" xmlns="http://www.w3.org/2000/svg">
<g clip-path="url(#clip0_336_323)">
<g clip-path="url(#clip1_336_323)">
<path d="M70.7959 213.812C63.6564 209.878 50.6052 197.098 43.4657 189.724C41.7427 188.004 41 185.79 41 183.576C41 165.141 53.8036 102.701 59.9628 81.0736C60.2104 80.095 60.2104 78.8594 60.2104 77.8809C60.2104 72.7212 59.2202 64.606 59.2202 63.1332C59.2202 61.1662 60.2104 59.4463 62.171 58.7049C75.9649 52.8039 92.7096 48.8699 103.295 48.8699C141.221 48.8699 171.502 89.6731 171.502 120.641C171.502 169.065 129.15 211.836 79.8961 215.275C76.6977 215.275 73.4893 215.028 70.786 213.803L70.7959 213.812ZM137.527 109.837C137.527 91.4029 122.01 80.3421 105.266 80.3421C103.543 80.3421 102.067 80.3421 100.344 80.5892C97.3934 81.0834 95.9081 82.3091 95.4228 84.7704C89.5112 108.859 81.629 143.03 76.7076 175.47C76.7076 175.47 76.46 176.943 76.46 177.438C76.46 179.405 77.6879 180.146 79.906 180.146C98.3737 180.146 137.527 156.304 137.527 109.847V109.837Z" fill="#DB433B"/>
<path d="M258.186 114.997C258.186 114.503 258.434 113.771 258.434 113.771C260.157 107.376 261.632 101.732 261.632 95.3368C261.632 86.9745 259.167 80.0949 251.78 80.0949C235.035 80.0949 213.854 116.233 213.854 149.662C213.854 173.009 224.687 181.371 235.768 181.371C246.848 181.371 262.118 170.311 268.267 165.151C268.267 165.151 269.742 163.678 271.218 163.678C272.941 163.678 273.931 164.172 274.911 165.398C277.13 168.106 282.298 179.652 283.289 182.113C284.031 183.833 284.517 185.058 284.517 186.778C284.517 188.251 284.021 189.487 283.041 190.712C275.654 200.547 256.444 215.542 238.719 215.542C222.954 215.542 196.862 202.514 187.257 188.014C180.85 178.179 177.156 165.645 177.156 151.876C177.156 106.892 204.982 50.1152 243.64 50.1152C254.968 50.1152 298.063 64.6158 298.063 86.2529C298.063 95.5938 293.627 106.655 290.923 113.05C289.943 115.511 287.477 117.231 284.517 117.231C280.823 117.725 265.306 117.972 261.613 117.972C259.642 117.972 258.167 116.747 258.167 115.027L258.186 114.997Z" fill="#DB433B"/>
<path d="M166.343 252.836V258.985C166.343 301.013 152.311 403.269 100.344 403.269C79.9058 403.269 59.4675 389.499 52.328 379.427C46.9115 371.806 44.4458 359.273 44.4458 347.718C44.4458 307.409 59.9626 257.996 67.8349 243.248C69.3104 240.787 71.0334 239.314 74.2417 239.314C78.9156 239.314 91.9767 243.496 98.126 245.71C100.097 246.451 101.077 248.655 101.077 250.622C101.077 251.848 100.582 253.331 100.582 253.331C90.729 279.88 79.6483 326.09 79.6483 349.191C79.6483 361.971 82.114 370.818 91.9569 370.818C105.988 370.818 113.871 349.922 120.277 324.361C127.664 295.112 132.101 257.255 133.329 244.474C133.576 242.013 135.299 240.54 137.517 240.54C141.211 240.54 155.985 244.227 161.897 246.441C164.847 247.667 166.085 250.375 166.333 252.836H166.343Z" fill="#DB433B"/>
<path d="M220.023 404C208.199 404 188.999 399.334 177.423 389.499C169.541 382.867 166.095 374.258 164.125 360.983C164.125 360.983 163.877 358.769 163.877 357.79C163.877 354.834 165.6 353.124 168.313 351.889C178.166 348.202 188.256 346.729 190.474 346.482C193.673 346.482 194.663 348.696 195.148 350.416C198.594 362.703 199.585 374.258 215.834 374.258C227.41 374.258 235.045 367.625 235.045 361.23C235.045 341.322 175.7 337.635 175.7 296.338C175.7 270.283 199.089 238.326 224.707 238.326C241.699 238.326 284.051 252.332 284.051 274.948C284.051 282.569 279.129 295.35 276.416 300.025C274.693 303.465 273.465 304.206 270.505 304.453C266.811 304.947 251.789 304.947 247.848 304.947C244.402 304.947 243.174 303.722 243.174 301.755C243.174 299.788 246.62 287.254 246.62 279.88C246.62 270.292 241.451 267.1 236.035 267.1C223.231 267.1 213.131 284.556 213.131 294.134C213.131 319.448 271.742 318.964 271.742 357.306C271.742 382.135 245.888 404.01 220.033 404.01L220.023 404Z" fill="#DB433B"/>
<path d="M649.108 154.1C649.108 206.626 587.546 281.739 525.973 321.662C523.864 323.234 522.815 324.291 522.815 325.339C522.815 326.387 524.389 326.387 527.548 326.387C529.132 326.387 553.858 324.815 568.068 324.815C575.96 324.815 583.327 324.815 589.645 325.339C595.428 325.863 600.171 330.064 601.221 335.323C603.855 346.354 607.013 366.834 609.113 382.6C609.113 387.849 605.429 391.526 599.646 392.05C566.493 394.145 460.727 400.451 427.05 402.033C421.267 402.033 414.949 399.928 412.315 394.679C407.057 383.124 398.105 350.555 398.105 346.354C398.105 341.629 400.739 336.904 404.423 334.275C505.456 271.765 575.435 173.019 576.495 136.773C575.97 121.017 563.859 115.234 552.294 115.234C533.875 115.234 504.931 134.667 483.364 168.808C481.79 171.438 479.156 173.009 475.997 173.009C472.838 173.009 469.679 170.914 469.679 170.914C457.578 163.036 443.369 151.481 435.477 142.545C432.843 139.916 431.268 136.239 431.268 132.038C431.268 130.466 431.793 127.837 432.318 126.265C442.309 101.574 481.77 48 533.341 48C581.228 48 649.108 100.002 649.108 154.1Z" fill="#3D9CFB"/>
<path d="M864.848 247.074C871.166 247.074 873.79 251.275 874.85 256.523C876.949 268.602 879.583 291.722 879.583 305.896C879.583 310.621 876.424 315.356 870.631 315.356C867.997 315.356 847.48 315.88 844.846 315.88C838.528 315.88 835.379 320.604 834.32 325.863C831.161 348.449 827.477 371.035 824.853 393.097C824.328 398.356 820.645 401.499 815.911 401.499C806.96 401.499 775.391 392.05 764.865 387.839C758.547 385.743 755.399 379.961 755.399 374.712C755.923 362.633 759.082 330.588 759.082 328.492C759.082 324.291 755.923 321.662 752.24 321.662C740.139 321.662 669.625 328.492 665.417 328.492C659.099 328.492 654.366 325.863 652.266 321.138C647.008 310.631 635.433 278.071 635.433 270.184C635.433 265.459 637.017 260.2 639.641 257.057C677.527 206.636 759.092 89.4951 783.818 57.4594C786.452 54.3063 789.601 52.2107 793.819 52.2107C798.553 52.2107 808.554 59.0409 812.238 59.0409C814.337 59.0409 815.921 57.9932 816.971 55.8878C818.555 52.7346 822.239 50.1152 826.447 50.1152C832.765 50.1152 868.542 60.0986 882.227 64.8234C886.435 66.4049 888.01 70.0819 888.01 73.7589C888.01 74.8067 887.485 77.436 887.485 77.436C878.018 105.804 863.284 164.103 849.599 236.062C849.599 236.062 849.074 239.215 849.074 240.787C849.074 243.94 851.173 247.093 854.857 247.093H864.858L864.848 247.074ZM719.622 252.322C719.622 253.904 721.206 255.475 723.83 255.475C724.88 255.475 749.091 252.846 761.716 251.798C766.974 251.275 770.133 248.645 771.183 243.397C776.966 210.827 787.492 159.883 787.492 156.206C787.492 154.624 787.492 153.576 786.967 153.576C785.917 153.576 784.333 155.672 784.333 155.672C778.015 164.074 726.454 240.767 721.186 248.645C720.137 250.227 719.602 251.275 719.602 252.322H719.622Z" fill="#F39745"/>
<path d="M382.945 60.9487C387.252 63.1331 390.827 65.5351 390.213 70.9715C390.213 70.9715 353.515 395.351 353.466 395.786C352.773 401.934 348.168 404.099 343.395 403.397C340.276 402.942 337.563 401.39 334.79 400.007C330.067 397.634 324.977 395.865 320.452 393.127C316.521 390.834 311.857 387.374 311.896 382.323C311.896 381.997 311.926 381.681 311.966 381.355L348.713 56.5402C348.743 56.2832 348.782 56.0361 348.822 55.7988C349.931 50.0461 356.526 47.1894 361.724 49.8978L382.945 60.9487Z" fill="black"/>
</g>
<g clip-path="url(#clip2_336_323)">
<path d="M244.405 772.096C240.825 778.843 289.35 795.121 296.123 793.356C305.479 790.979 327.643 757.425 316.933 755.465C291.691 750.817 272.202 737.446 265.1 739.743C261.591 740.87 256.254 749.94 244.371 772.072L244.405 772.096Z" fill="#3D9CFB"/>
<path d="M180.23 546.383C180.503 580.851 331.078 707.209 365.532 663.357C390.668 623.695 217.824 510.743 180.23 546.383Z" fill="#3D9CFB"/>
<path d="M180.875 639.346C195.111 648.975 207.005 624.604 218.315 633.682C229.624 642.759 198.201 689.026 215.823 695.193C233.445 701.36 259.469 664.681 270.601 670.925C283.809 678.341 273.026 694.77 282.494 701.054C293.071 708.077 314.412 696.258 336.835 675.248C249.904 646.988 133.027 541.875 189.566 511.046C170.313 514.699 92.0727 596.932 118.192 628.459C141.188 643.001 158.055 597.45 171.414 605.228C184.772 613.007 166.174 629.436 180.885 639.404L180.875 639.346Z" fill="#3D9CFB"/>
<path d="M7.71551 738.81L9.81541 735.862L3.91948 742.848C1.27369 746.276 -1.2166 750.274 -2.70979 754.88C0.030188 749.527 3.95525 744.304 7.71551 738.81Z" fill="black"/>
<path d="M503.417 657.372C506.141 650.322 507.664 642.877 507.964 635.428C509.284 602.81 490.619 571.433 468.612 548.044C462.185 541.219 455.372 534.936 448.57 529.427C435.193 518.519 420.469 509.717 404.259 503.79C390.799 498.952 376.769 495.701 362.587 494.385C334.185 491.52 305.182 495.737 278.654 506.16C275.381 507.456 272.341 508.713 269.431 509.5C266.52 510.287 263.856 510.586 260.92 510.333C255.034 509.92 248.767 507.602 241.975 505.522C228.514 501.4 214.432 498.009 199.666 498.014C192.31 498.086 184.786 499.112 177.574 501.636C170.42 504.151 163.577 508.164 158.051 513.269C152.515 518.316 148.02 524.052 143.795 529.625C139.639 535.245 135.724 540.884 131.659 546.519L35.0141 681.841C26.9088 693.076 19.0406 704.481 11.0949 715.78L-0.838068 732.819C-4.69487 738.449 -9.04974 744.132 -12.402 750.99C-14.066 754.402 -15.4636 758.156 -16.1983 762.128C-16.9233 766.158 -16.9371 770.336 -16.3178 774.2C-15.0839 782.076 -11.8103 788.954 -8.24249 795.275C-1.07804 807.734 7.71477 819.054 17.3575 829.396C27.0002 839.737 37.4445 849.169 48.1446 858.17C58.8108 867.146 69.7861 875.833 81.1235 884.01C103.75 900.434 127.936 914.954 153.613 926.45C166.48 932.193 179.985 937.114 194.318 939.508C201.448 940.756 208.882 941.148 216.107 940.829C223.38 940.442 231.214 939.484 238.54 935.15C242.222 932.921 245.265 929.725 247.476 926.549C249.769 923.33 251.414 920.16 253.142 917.304C253.972 915.853 254.821 914.517 255.68 913.239L258.649 909.071L264.727 900.681L289.009 866.95L386.1 732.15L392.134 723.679C394.244 720.789 395.991 718.407 397.697 717.375C399.408 716.192 402.139 715.584 405.35 715.164C408.653 714.758 412.304 714.294 415.737 713.777C429.701 711.669 443.761 708.352 457.034 702.483C470.316 696.672 482.647 688.037 492.053 676.553C496.756 670.811 500.684 664.364 503.417 657.372ZM3.91955 742.848L9.7816 735.837L7.6817 738.786C3.95533 744.304 0.0302657 749.527 -2.70972 754.88C-1.21653 750.274 1.27377 746.276 3.91955 742.848ZM195.705 520.067C196.6 520.245 197.79 520.582 199.092 520.692C200.383 520.743 201.926 520.872 203.739 520.836C205.775 520.702 207.947 521.023 210.046 521.088C212.209 521.352 214.371 521.615 216.518 521.97C237.054 525.768 257.039 534.283 275.942 544.172C285.462 549.166 294.62 554.667 303.637 560.58C312.655 566.492 321.528 572.608 330.136 579.097C347.307 591.992 363.75 606.054 377.661 622.092C384.466 630.106 390.919 638.687 394.805 647.789C396.722 652.27 397.84 657.153 397.013 660.394C396.594 661.986 395.846 663.036 394.594 663.933C393.957 664.398 392.608 665.072 391.656 665.62C390.544 666.105 389.51 666.696 388.355 667.099C379.461 670.622 369.174 670.65 359.093 668.883C359.059 668.859 359.035 668.893 359.001 668.869C348.837 667.146 338.74 663.682 328.96 659.628C309.488 651.325 291.071 639.892 273.537 627.505C256.018 615.026 239.276 601.313 223.901 586.327C216.235 578.874 208.893 571.039 202.339 562.744C197.029 556 192.014 548.698 189.011 541.298C188.298 539.717 187.759 538.108 187.302 536.454C186.262 532.751 186.311 529.312 187.57 527.042C189.775 523.301 193.04 520.008 192.002 517.379C192.473 518.582 193.862 519.572 195.729 520.034L195.705 520.067ZM228.309 914.735C223.502 918.615 217.883 919.261 214.005 920.33C210.041 921.235 207.837 922.321 207.761 923.647C207.859 920.856 200.084 918.433 184.863 913.772C175.956 911.003 166.984 907.32 158.293 903.53C139.749 895.071 122.208 883.7 105.415 871.636C88.602 859.456 72.5377 846.226 57.3911 832.066C42.3364 817.92 27.822 802.729 16.2946 786.141C10.7943 777.728 5.28846 768.75 6.61773 760.86C7.12036 756.927 9.29638 753.012 12.1594 749.279L22.1693 737.306C28.9003 729.075 35.2924 720.603 41.4571 712.02L59.8741 686.523L96.3933 635.254L112.932 612.25L114.743 609.709L133.247 584.376C139.397 575.885 145.693 567.548 152.109 559.401C155.364 555.334 158.628 551.325 161.994 547.389L163.239 545.926L163.457 545.621L163.824 545.321L163.969 545.118L164.838 547.627C165.425 549.527 166.216 551.213 167.006 552.9C167.797 554.587 168.587 556.274 169.533 557.815C173.004 564.272 177.272 569.969 181.565 575.631C190.41 586.733 200.13 596.824 210.304 606.42C230.782 625.501 252.949 642.568 276.546 657.486C288.405 664.861 300.626 671.727 313.406 677.663C317.969 679.79 322.571 681.791 327.294 683.623C335.733 686.978 344.408 689.786 353.373 691.83C356.459 692.445 359.536 693.001 362.709 693.423C360.387 693.455 358.114 693.419 355.749 693.369C349.983 692.429 344.094 696.968 343.497 702.826C343.143 705.689 343.998 708.648 345.751 710.919C346.652 712.02 347.81 713.049 349.126 713.782L350.631 714.395L351.841 714.848C355.16 716.139 358.919 716.671 362.053 716.861L365.303 717.03L363.469 719.606C362.151 721.527 360.867 723.473 359.607 725.385C357.097 729.267 354.704 733.13 352.32 737.05L345.332 748.725L341.887 754.494C341.327 755.424 340.719 756.421 340.212 757.132L338.257 759.877L307.14 804.422C301.338 812.854 295.367 821.166 289.303 829.463C285.828 834.343 282.25 839.15 278.649 843.991C266.85 860.054 255.027 876.15 243.775 892.806C241.101 896.776 238.461 900.769 235.855 904.787L233.948 907.822L232.978 909.327L232.109 910.547C230.951 912.173 229.763 913.626 228.309 914.735ZM460.251 673.872C451.012 679.959 440.218 684.069 429.132 686.797C424.558 687.983 419.834 688.806 415.134 689.596C413.998 689.757 412.987 689.957 412.069 690.171C412.643 689.15 413.212 687.92 413.771 686.633C414.9 684.117 415.457 681.398 416.3 678.781C416.867 676.12 417.333 673.387 417.74 670.663C418.927 657.667 416.086 644.661 410.78 633.322C405.605 621.871 398.487 611.642 390.591 602.29C374.718 583.628 356 568.099 336.463 554.08C326.636 547.08 316.553 540.511 306.239 534.339L298.461 529.769L291.733 525.948L291.211 525.678L291.911 525.411L292.332 525.251L292.472 525.197L293.101 525.032L295.15 524.449L303.466 522.097C306.226 521.305 309.089 520.944 311.913 520.35C314.746 519.814 317.526 519.138 320.442 518.917L329.015 517.924C331.888 517.62 334.795 517.698 337.662 517.545C343.412 517.145 349.192 517.636 354.933 517.894C377.922 519.61 400.502 526.346 420.409 537.768C440.041 549.504 456.883 565.944 468.284 585.865C473.965 595.888 478.951 606.386 481.442 617.303C484.154 628.123 484.324 639.43 480.633 649.417C477.009 659.452 469.524 667.81 460.251 673.872Z" fill="black"/>
<path d="M-2.70979 754.88C-1.2166 750.274 1.27369 746.276 3.91948 742.848L9.78153 735.837L7.68162 738.785C3.95525 744.304 0.030188 749.527 -2.70979 754.88Z" fill="black"/>
<path d="M-2.70979 754.88C-1.2166 750.274 1.27369 746.276 3.91948 742.848L9.78153 735.837L7.68162 738.785C3.95525 744.304 0.030188 749.527 -2.70979 754.88Z" fill="black"/>
<path d="M270.07 826.49C270.07 826.49 269.834 826.679 269.693 826.732C268.915 827.251 268.036 827.697 267.19 828.167C267.213 827.418 267.111 826.629 267.25 825.86C267.341 825.517 267.418 825.265 267.631 825.11C267.954 824.728 268.511 824.664 269.198 824.847C269.493 825.364 270.119 826.422 270.07 826.49Z" fill="black"/>
<path d="M287.776 826.23C287.369 825.583 286.889 825.037 286.4 824.433C285.91 823.829 285.606 823.612 285.204 823.172C281.499 819.409 277.553 816.344 273.555 813.495C269.556 810.647 265.461 807.935 261.337 805.406C253.172 800.305 244.75 795.634 236.807 790.794C234.881 789.626 232.785 788.337 231.401 787.198L231.096 786.981C231.096 786.981 231.091 786.773 231.027 786.574C231.061 786.241 231.094 785.907 231.094 785.549C231.568 782.158 233.4 777.793 235.271 773.661C237.19 769.46 239.342 765.221 241.416 760.875L242.983 757.599L243.726 755.983L244.435 754.7L247.807 748.316C250.017 744.067 252.144 739.862 254.412 735.961C255.546 734.01 256.758 732.166 257.974 730.53C259.109 728.937 260.756 727.556 261.036 727.45L261.288 727.527C262.101 727.748 263.151 728.139 264.167 728.505C266.233 729.261 268.41 730.148 270.588 731.035L283.702 736.648C292.499 740.36 301.494 744.009 310.977 746.831C313.392 747.529 315.772 748.203 318.273 748.707C319.487 749.01 320.856 749.168 322.143 749.37C323.222 749.576 325.118 749.854 327.008 749.566C330.771 749.233 334.729 747.046 336.798 743.208C337.816 741.277 338.331 738.834 338.023 736.47C337.657 734.115 336.363 731.916 334.702 730.376C333.061 728.951 331.231 728.005 329.606 727.563L328.348 727.177L327.477 726.966L325.803 726.591C323.534 726.047 321.265 725.504 319.011 724.868C314.545 723.68 310.074 722.283 305.652 720.818C296.783 717.924 288.165 714.39 279.296 710.779C274.791 709 270.416 707.11 264.983 705.846C262.361 705.153 258.893 704.93 255.92 705.519C252.844 706.036 249.944 707.239 247.451 708.732C237.593 715.042 232.784 724.948 228.321 733.006C223.699 741.36 219.174 749.936 215.283 758.912C213.306 763.48 211.575 767.917 210.039 772.799C208.561 777.671 207.306 783.162 208.203 789.216C208.677 792.209 209.783 795.245 211.47 797.825C212.284 799.12 213.262 800.328 214.347 801.458C215.379 802.448 216.478 803.487 217.528 804.235C221.101 807.035 224.659 809.212 228.124 811.374C228.371 811.243 228.603 811.204 228.821 811.257C229.716 811.435 230.263 812.029 230.38 812.725C238.415 817.58 246.173 822.392 253.662 827.726C256.848 829.995 260.018 832.355 263.083 834.794C268.273 839.053 272.655 839.211 274.321 837.231C273.529 838.199 273.154 839.873 274.893 841.878C275.605 842.743 276.815 843.554 278.649 843.991C282.25 839.15 285.794 834.319 289.303 829.464C288.958 828.298 288.391 827.23 287.776 826.23ZM267.631 825.11C267.954 824.728 268.511 824.664 269.198 824.847C269.493 825.364 270.119 826.423 270.07 826.49C269.964 826.568 269.834 826.679 269.693 826.733C268.915 827.251 268.036 827.697 267.19 828.167C267.213 827.418 267.111 826.63 267.25 825.86C267.341 825.517 267.418 825.265 267.631 825.11ZM333.092 730.914C333.668 731.325 334.52 731.778 334.651 732.383C334.89 733.267 334.073 733.912 333.212 733.4C332.689 733.13 332.615 732.158 332.324 731.491C332.585 731.268 333.024 730.866 333.092 730.914Z" fill="black"/>
<path d="M230.38 812.725C230.38 812.725 230.085 812.566 229.949 812.469C229.349 812.093 228.749 811.716 228.125 811.374C228.371 811.243 228.603 811.204 228.821 811.257C229.716 811.435 230.263 812.029 230.38 812.725Z" fill="black"/>
<path d="M333.212 733.4C332.689 733.13 332.615 732.158 332.324 731.491C332.585 731.268 333.024 730.866 333.092 730.914C333.668 731.325 334.52 731.778 334.651 732.383C334.89 733.267 334.073 733.912 333.212 733.4Z" fill="black"/>
<path d="M269.548 826.578C269.548 826.578 269.65 826.65 269.693 826.733C268.915 827.251 268.036 827.697 267.19 828.167C267.213 827.418 267.11 826.63 267.25 825.86C267.341 825.517 267.418 825.265 267.631 825.11C268.309 825.593 268.928 826.085 269.548 826.578Z" fill="black"/>
<path d="M287.611 840.517C285.482 843.291 282.32 844.359 279.844 844.178C279.418 844.13 278.992 844.083 278.649 843.991C282.25 839.15 285.794 834.319 289.303 829.463C289.43 829.86 289.522 830.232 289.614 830.604C290.359 833.791 289.851 837.515 287.611 840.517Z" fill="black"/>
<path d="M26.9997 743.863C29.3479 742.215 31.7733 740.316 34.3054 738.697C36.4606 737.321 39.7939 738.163 41.3104 740.265C43.1031 742.768 42.3248 746.657 39.6186 748.305C38.8889 748.756 37.9852 749.236 37.2258 749.154C35.499 748.997 33.6464 748.801 32.122 748.073C28.5264 746.38 25.4173 746.873 22.2767 749.131C21.6389 749.596 20.6233 749.587 19.7529 749.734C18.3363 750.002 16.2204 748.239 16.083 746.711C15.9456 745.183 17.5725 742.971 19.0477 743.051C21.6304 743.154 24.17 743.533 26.9899 743.804L26.9997 743.863Z" fill="black"/>
<path d="M94.5013 836.689C93.6278 838.059 92.1247 838.878 90.3743 839.112C89.5281 839.225 88.5607 839.149 87.8204 838.826C83.6297 836.964 79.5959 836.747 75.7014 839.49C75.3825 839.722 74.8747 839.718 74.4444 839.82C72.8152 840.243 71.0675 838.896 70.8377 836.996C70.6032 835.245 71.766 833.111 73.1585 832.877C73.995 832.707 74.8314 832.536 75.6489 832.608C76.5002 832.703 77.2939 833.166 78.1067 833.388C80.2838 833.917 82.3438 833.75 84.2813 832.321C85.6631 831.313 87.1128 830.353 88.6158 829.534C90.5055 828.53 93.2822 829.078 94.5996 830.527C95.917 831.976 95.9495 834.656 94.5352 836.713L94.5013 836.689Z" fill="black"/>
<path d="M161.847 884.557C160.571 885.129 159.45 885.914 158.256 886.085C156.771 886.305 154.428 884.431 154.281 883.203C154.159 881.941 153.823 880.476 154.238 879.392C155.737 875.352 155.582 871.768 152.429 868.45C151.669 867.653 151.638 866.047 151.423 864.771C151.174 863.112 152.507 861.457 154.291 860.888C156.249 860.291 159.041 861.82 159.527 863.648C160.004 865.417 159.87 867.11 159.036 868.712C157.661 871.359 158.133 873.637 159.93 875.99C160.962 877.338 161.719 879 162.142 880.63C162.429 881.804 161.971 883.164 161.847 884.557Z" fill="black"/>
<path d="M87.9735 756.647C85.5069 760.253 82.7673 762.235 79.1555 762.931C76.7863 763.389 74.3377 762.309 73.7598 760.467C72.9001 757.658 73.7184 754.717 75.7867 753.534C79.5127 751.386 83.2225 751.628 86.8961 753.785C87.8593 754.369 88.239 756.274 87.9735 756.647Z" fill="black"/>
<path d="M197.119 881.793C194.675 879.847 193.804 875.907 195.295 873.598C196.869 871.245 201.361 870.461 203.442 872.199C205.636 874.068 205.868 877.757 204.029 880.483C202.484 882.651 199.046 883.319 197.144 881.759L197.119 881.793Z" fill="black"/>
<path d="M205.948 897.939C205.208 898.332 204.532 898.923 203.729 899.117C201.099 899.798 198.572 897.896 198.38 895.154C198.139 892.122 199.746 889.793 202.338 889.597C203.136 889.552 204.104 889.628 204.772 890.053C207.25 891.665 207.802 895.838 205.982 897.963L205.948 897.939Z" fill="black"/>
<path d="M179.938 861.382C178.829 863.299 176.112 864.173 174.282 863.227C172.158 862.122 171.07 858.845 171.976 856.425C172.844 854.132 176.479 853.044 178.619 854.414C180.666 855.771 181.28 859.068 179.938 861.382Z" fill="black"/>
<path d="M181.093 904.293C179.113 902.985 178.37 900.514 179.397 898.641C180.927 895.849 185.031 894.891 187.235 896.818C188.842 898.218 189.111 900.708 187.881 902.794C186.467 905.21 183.445 905.866 181.068 904.327L181.093 904.293Z" fill="black"/>
<path d="M218.129 856.814C216.815 857.513 215.297 858.424 213.707 859.079C211.919 859.797 209.673 858.862 209.314 857.431C208.852 855.569 209.376 853.542 210.933 852.863C212.455 852.16 214.229 851.533 215.888 851.643C216.856 851.719 217.921 853.091 218.595 854.081C218.924 854.623 218.384 855.668 218.163 856.839L218.129 856.814Z" fill="black"/>
<path d="M38.3848 766.172C37.0484 764.964 36.4644 762.199 37.3421 760.321C38.0946 758.763 39.2053 757.562 41.1154 757.39C43.0497 757.185 45.2476 758.903 45.5889 760.934C46.0912 764.101 43.904 766.885 40.7508 766.938C39.977 766.948 39.2074 766.451 38.4187 766.196L38.3848 766.172Z" fill="black"/>
<path d="M148.94 807.735C147.236 810.557 141.898 811.096 140.071 808.569C139.286 807.448 139.246 806.142 140.042 805.024C141.684 802.719 143.994 801.913 146.737 802.437C148.619 802.807 149.915 806.079 148.906 807.711L148.94 807.735Z" fill="black"/>
<path d="M171.511 723.698C169.783 722.467 169.35 720.422 170.232 718.037C170.733 716.759 172.927 715.257 174.281 715.507C175.051 715.646 175.854 716.167 176.401 716.761C177.835 718.191 177.228 719.904 176.659 721.491C176.004 723.272 174.38 723.903 172.639 724.195C172.291 724.253 171.84 723.882 171.477 723.674L171.511 723.698Z" fill="black"/>
<path d="M209.913 732.46C211.555 730.155 214.49 729.692 216.77 731.367C217.99 732.236 218.228 733.479 217.945 734.809C217.541 736.667 216.145 737.766 214.55 738.571C213.259 739.236 210.56 738.436 209.833 737.306C208.83 735.774 208.827 733.984 209.947 732.484L209.913 732.46Z" fill="black"/>
<path d="M228.848 913.332C228.173 914.639 225.621 915.426 224.28 914.726C221.734 913.424 221.034 910.678 222.579 908.151C223.356 906.917 225.778 906.599 227.25 907.545C229.06 908.732 229.818 911.469 228.815 913.308L228.848 913.332Z" fill="black"/>
<path d="M136.15 769.255C134.857 768.129 134.531 766.007 135.486 764.593C136.215 763.427 137.365 762.816 138.778 763.056C139.605 763.185 140.5 763.363 141.192 763.754C143.215 764.786 144.021 767.455 142.974 769.212C142.134 770.606 140.201 771.169 138.386 770.49C137.588 770.176 136.876 769.67 136.15 769.255Z" fill="black"/>
<path d="M85.229 780.435C83.824 782.193 80.7683 782.826 79.4899 781.608C78.1098 780.319 78.1539 777.03 79.5255 775.607C80.646 774.464 82.9428 774.108 84.3753 774.822C86.2385 775.791 86.6824 778.61 85.229 780.435Z" fill="black"/>
<path d="M86.1185 798.691C84.5236 799.496 82.5206 798.938 81.5175 797.406C80.4805 795.85 80.9952 793.765 82.5465 792.878C84.296 791.928 86.1973 792.414 87.0361 794.033C87.972 795.874 87.5394 797.916 86.0846 798.667L86.1185 798.691Z" fill="black"/>
<path d="M232.615 834.901C231.741 836.271 229.349 837.479 228.182 836.75C227.185 836.142 226.182 834.968 225.973 833.899C225.681 832.159 226.476 830.325 228.061 829.462C229.047 828.938 230.575 828.801 231.649 829.157C233.488 829.803 233.865 832.931 232.639 834.868L232.615 834.901Z" fill="black"/>
<path d="M220.227 874.092C219.233 875.273 216.955 875.387 215.715 874.403C214.084 873.036 213.616 870.251 214.78 868.832C216.146 867.201 218.864 867.042 220.297 868.472C221.774 869.984 221.773 872.281 220.193 874.068L220.227 874.092Z" fill="black"/>
<path d="M119.774 772.812C117.837 770.87 117.921 768.171 119.679 766.921C120.718 766.18 121.946 765.675 123.19 766.51C125.305 767.915 125.238 771.595 122.865 772.919C122.019 773.389 120.558 772.859 119.74 772.787L119.774 772.812Z" fill="black"/>
<path d="M68.9214 795.585C70.2958 796.309 70.8506 798.9 69.8605 799.932C68.8802 801.021 66.1048 801.547 65.3296 800.484C64.7336 799.6 64.4221 798.101 64.6964 797.07C65.1392 795.445 67.4211 794.823 68.8633 795.595L68.9214 795.585Z" fill="black"/>
<path d="M150.733 825.511C149.269 826.92 147.238 826.903 145.853 825.764C144.672 824.769 144.383 822.163 145.403 821.305C146.837 820.08 150.228 820.554 150.913 822.318C151.286 823.3 150.795 824.635 150.757 825.477L150.733 825.511Z" fill="black"/>
<path d="M187.111 681.791C185.584 682.644 183.615 682.11 182.713 680.65C181.681 678.944 182.133 677.019 183.689 676.34C185.492 675.53 187.476 675.972 188.068 677.364C188.921 679.249 188.532 681.015 187.087 681.825L187.111 681.791Z" fill="black"/>
<path d="M178.988 741.743C178.308 743.199 176.045 743.937 174.71 743.088C173.103 742.045 172.626 740.276 173.538 738.78C174.537 737.091 176.592 736.358 177.763 737.295C179.206 738.425 179.692 740.252 178.988 741.743Z" fill="black"/>
<path d="M128.208 790.516C126.754 791.983 124.573 792.32 123.025 791.625C121.442 790.907 120.936 788.247 122.41 787.254C123.424 786.547 124.73 786.148 125.968 786.06C126.674 786.001 127.855 786.637 128.044 787.232C128.413 788.363 128.212 789.65 128.242 790.54L128.208 790.516Z" fill="black"/>
<path d="M236.997 853.704C236.305 854.029 235.581 854.688 234.913 854.621C233.235 854.396 231.941 852.555 232.104 851.036C232.228 850.001 233.788 848.814 234.824 848.938C236.962 849.236 238.15 851.87 236.997 853.704Z" fill="black"/>
<path d="M105.177 790.507C107.114 791.733 107.426 793.948 106.233 795.192C105.291 796.156 103.753 796.236 102.741 795.361C101.899 794.608 101.442 792.597 102.263 791.803C103.094 791.066 104.336 790.828 105.143 790.483L105.177 790.507Z" fill="black"/>
<path d="M166.118 785.697C165.325 785.95 164.161 786.653 163.077 786.596C161.66 786.506 160.806 783.905 161.495 782.507C162.296 780.881 163.978 780.24 165.537 780.992C166.8 781.586 167.199 783.965 166.094 785.731L166.118 785.697Z" fill="black"/>
<path d="M98.3092 731.165C99.3842 732.237 99.271 734.404 98.0006 735.542C96.6577 736.782 94.6362 736.824 93.5513 735.693C92.4763 734.621 92.6573 732.503 93.9082 731.248C95.1592 729.994 97.0888 729.938 98.3092 731.165Z" fill="black"/>
<path d="M144.738 665.553C143.429 666.817 141.751 666.592 141.382 665.46C141.139 664.726 140.877 663.875 140.992 663.14C141.141 662.428 141.638 661.659 142.252 661.228C142.986 660.627 144.999 661.601 145.083 662.631C145.176 663.719 144.805 664.885 144.738 665.553Z" fill="black"/>
<path d="M144.753 786.722C144.261 788.057 141.641 788.796 140.348 787.67C139.515 786.975 139.165 785.602 138.946 784.475C138.898 784.185 140.236 783.453 141.015 783.293C142.272 782.962 143.655 783.028 144.387 784.367C144.736 785.024 144.65 785.933 144.753 786.722Z" fill="black"/>
<path d="M63.8149 781.528C62.7663 782.211 62.1675 782.908 61.4713 783.025C60.7411 783.118 59.6962 782.935 59.2264 782.448C58.2628 781.506 59.0189 779.082 60.5655 778.345C61.1745 778.063 62.4418 778.149 62.7421 778.516C63.3623 779.366 63.5331 780.561 63.839 781.494L63.8149 781.528Z" fill="black"/>
<path d="M222.02 891.51C222.191 892.346 222.801 893.497 222.643 894.508C222.35 896.138 219.677 897.094 218.612 896.08C218.074 895.544 217.725 894.529 217.772 893.745C217.895 891.994 219.848 890.831 221.996 891.544L222.02 891.51Z" fill="black"/>
<path d="M243.569 912.171C243.403 911.185 243.102 910.102 242.975 908.99C242.926 908.7 243.332 908.273 243.626 908.075C244.486 907.513 246.059 908.173 246.772 909.396C247.475 910.56 247.322 912.137 246.191 912.506C245.514 912.739 244.672 912.344 243.511 912.181L243.569 912.171Z" fill="black"/>
<path d="M195.396 858.397C194.352 858.572 193.254 858.966 192.161 858.851C190.918 858.732 190.592 857.325 191.214 855.878C191.807 854.615 194.491 854.432 195.398 855.742C195.751 856.249 195.409 857.231 195.396 858.397Z" fill="black"/>
<path d="M108.931 812.846C108.06 812.635 106.894 812.622 106.023 812.052C105.04 811.352 105.115 809.311 106.067 808.763C106.724 808.414 107.623 808.084 108.31 808.267C109.684 808.633 110.167 811.326 108.931 812.846Z" fill="black"/>
<path d="M209.649 836.523C210.154 834.738 210.182 833.48 210.809 832.599C211.437 831.718 213.396 832.194 214.026 833.461C214.332 834.036 214.15 835.438 213.763 835.623C212.744 836.122 211.496 836.153 209.649 836.523Z" fill="black"/>
<path d="M166.189 802.808C165.899 802.857 165.372 803.094 165.043 802.911C163.122 801.951 162.803 798.813 164.465 797.698C164.784 797.466 165.389 797.334 165.684 797.494C167.615 798.512 167.914 801.534 166.155 802.784L166.189 802.808Z" fill="black"/>
<path d="M113.139 832.036C112.467 832.477 111.724 833.378 111.139 833.267C109.784 833.017 109.463 831.818 109.665 830.532C109.837 829.429 110.495 829.08 111.535 829.412C113.02 829.908 113.626 830.85 113.105 832.012L113.139 832.036Z" fill="black"/>
<path d="M88.2071 691.637C88.7307 692.623 89.4623 693.603 89.7395 694.72C89.9581 695.489 87.8558 696.648 86.9075 696.33C85.4319 695.891 84.7518 693.619 85.9206 692.409C86.3504 691.949 87.2741 691.943 88.2071 691.637Z" fill="black"/>
<path d="M70.8782 698.755C70.0042 699.767 68.263 699.701 67.9279 698.594C67.7529 697.908 67.8387 696.998 68.1474 696.35C68.6974 695.362 70.6322 695.515 71.0495 696.578C71.2728 697.197 70.9353 698.029 70.8782 698.755Z" fill="black"/>
<path d="M253.292 866.18C254.287 864.64 256.501 864.328 256.909 865.333C257.2 866 257.225 867.04 256.873 867.606C256.521 868.173 255.138 868.823 254.935 868.678C254.185 867.939 253.685 866.919 253.234 866.189L253.292 866.18Z" fill="black"/>
<path d="M191.507 717.714C191.289 718.019 191.135 718.522 190.879 718.595C189.448 718.955 188.393 718.356 187.811 717.022C187.66 716.66 187.756 716.166 187.77 715.716C188.602 715.696 189.579 715.472 190.261 715.805C190.852 716.123 191.133 717.09 191.541 717.738L191.507 717.714Z" fill="black"/>
<path d="M136.84 727.197C136.966 727.593 137.252 728.053 137.194 728.42C136.92 729.451 134.604 729.691 133.824 728.778C133.601 728.517 133.62 727.917 133.759 727.506C134.265 726.078 135.586 725.946 136.84 727.197Z" fill="black"/>
<path d="M333.212 733.4C332.689 733.13 332.615 732.158 332.324 731.491C332.585 731.268 333.024 730.866 333.092 730.914C333.668 731.325 334.52 731.778 334.651 732.383C334.89 733.267 334.073 733.912 333.212 733.4Z" fill="black"/>
<path d="M119.448 753.118C118.38 753.328 117.442 753.784 117.069 753.518C116.561 753.156 116.086 752.102 116.298 751.589C116.548 750.951 117.472 750.587 118.076 750.098C118.507 751.069 118.973 752.065 119.448 753.118Z" fill="black"/>
<path d="M184.358 798.383C184.647 797.619 184.767 796.733 185.293 796.138C186.085 795.17 186.966 795.439 187.137 796.634C187.263 797.388 186.868 798.23 186.68 799.067C185.925 798.836 185.113 798.614 184.358 798.383Z" fill="black"/>
<path d="M230.019 813.949C229.609 814.525 228.656 814.715 227.999 815.064C227.509 814.102 227.01 813.083 226.486 812.097C227.129 811.839 227.646 811.544 228.125 811.374C228.371 811.243 228.603 811.204 228.821 811.257C229.716 811.435 230.263 812.029 230.38 812.725C230.414 813.107 230.309 813.542 230.019 813.949Z" fill="black"/>
<path d="M128.434 690.307C128.09 690.216 127.582 690.212 127.393 689.975C126.686 688.96 126.922 688.413 128.083 688.576C128.393 688.644 128.819 689.049 128.902 689.363C128.974 689.62 128.617 689.978 128.434 690.307Z" fill="black"/>
<path d="M270.07 826.49C270.07 826.49 269.834 826.679 269.693 826.732C268.915 827.251 268.036 827.697 267.19 828.167C267.213 827.418 267.111 826.629 267.25 825.86C267.341 825.517 267.418 825.265 267.631 825.11C267.954 824.728 268.511 824.664 269.198 824.847C269.493 825.364 270.119 826.422 270.07 826.49Z" fill="black"/>
<path d="M113.422 730.386C113.765 730.478 114.239 730.458 114.428 730.694C115.198 731.549 114.986 732.062 113.917 731.914C113.641 731.871 113.307 731.479 113.157 731.117C113.069 730.952 113.311 730.614 113.412 730.328L113.422 730.386Z" fill="black"/>
<path d="M131.325 707.69C131.054 707.855 130.663 708.189 130.537 708.15C130.232 707.933 129.752 707.387 129.849 707.252C130.302 706.4 130.873 706.602 131.325 707.69Z" fill="black"/>
<path d="M238.235 871.901C237.915 871.776 237.34 871.724 237.31 871.55C237.13 870.655 237.551 870.495 238.408 871.156C238.509 871.229 238.312 871.65 238.235 871.901Z" fill="black"/>
<path d="M261.84 886.52C261.555 886.418 260.994 886.274 261.008 886.182C260.987 884.992 261.456 884.765 262.216 885.562C262.352 885.658 261.99 886.166 261.84 886.52Z" fill="black"/>
<path d="M240.379 888.038L241.447 887.47L241.042 888.612L240.379 888.038Z" fill="black"/>
<path d="M128.577 809.933C128.161 809.943 127.59 810.099 127.343 809.872C126.419 809.162 126.524 808.369 127.534 807.811C127.887 807.603 128.583 807.486 128.762 807.665C129.513 808.404 129.383 809.231 128.601 809.899L128.577 809.933Z" fill="black"/>
<path d="M155.005 845.257C154.623 845.291 154.145 845.461 153.941 845.316C153.738 845.171 153.824 844.62 153.79 844.238C154.172 844.203 154.651 844.033 154.854 844.178C155.057 844.323 154.971 844.875 155.005 845.257Z" fill="black"/>
<path d="M95.762 754.533L95.9736 753.662L96.6031 754.213L95.762 754.533Z" fill="black"/>
<path d="M254.238 846.422L254.003 847.327L253.407 846.801L254.238 846.422Z" fill="black"/>
<path d="M231.058 710.233L230.803 711.022L230.299 710.51L231.058 710.233Z" fill="black"/>
<path d="M194.739 737.843C194.739 737.485 194.603 737.031 194.782 736.851C194.926 736.648 195.43 736.802 195.754 736.778C195.754 737.136 195.89 737.59 195.711 737.769C195.567 737.972 195.063 737.818 194.739 737.843Z" fill="black"/>
<path d="M241.267 769.044C241.301 769.426 241.36 769.774 241.394 770.156C241.012 770.19 240.509 770.394 240.33 770.215C240.127 770.071 240.213 769.519 240.179 769.137C240.561 769.103 240.909 769.044 241.291 769.01L241.267 769.044Z" fill="black"/>
<path d="M90.6176 715.216L90.897 714.393L91.4345 714.929L90.6176 715.216Z" fill="black"/>
</g>
<g clip-path="url(#clip3_336_323)">
<path d="M506.312 504.71L506.522 505.424C506.979 507.112 507.548 508.651 508.202 509.953C507.262 508.6 506.648 506.841 506.312 504.71Z" fill="#3D9CFB"/>
<path d="M623.228 372.325C625.823 382.345 614.609 396.054 600.592 396.197L600.51 396.183C599.832 396.188 599.155 396.193 598.493 396.116C594.667 395.767 591.147 396.064 587.963 396.844C571.29 400.949 564.872 418.31 577.322 423.126C587.716 427.15 590.203 435.417 588.254 442.971C587.748 445.078 586.881 447.078 585.702 448.937L585.694 448.978C581.733 455.495 574.479 460.108 567.033 458.263C558.619 456.159 548.484 460.339 547.791 469.134C546.113 491.87 576.566 472.953 580.557 485.084C583.422 493.841 579.955 500.193 572.436 504.632C571.926 504.414 571.401 504.277 570.925 504.107C565.302 502.462 559.951 502.134 554.733 502C549.509 501.906 544.348 502.162 539.295 502.522C536.851 502.717 534.187 502.957 532.059 503.039C529.131 503.105 526.917 503.425 524.536 503.505C522.311 503.654 520.022 503.454 519.478 503.187C519.459 503.057 519.395 502.707 519.345 501.811C519.299 501.126 519.557 499.693 519.666 498.614L520.106 495.226C520.347 492.945 521.142 490.636 521.595 488.351C526.377 469.977 535.67 452.372 545.781 435.633C550.921 427.257 556.367 419.064 562.119 411.052C564.987 407.087 567.938 403.136 570.955 399.282C573.992 395.559 577.183 391.441 580.155 388.551C586.919 382.665 595.256 377.908 604.066 375.222C608.454 373.855 613.007 372.982 617.602 372.582C619.492 372.415 621.415 372.296 623.228 372.325Z" fill="#3D9CFB"/>
<path d="M594.558 421.067C590.893 419.816 586.825 419.17 583.772 416.634C580.72 414.099 579.226 409.942 580.048 406.074C581.14 400.944 585.921 397.153 591.058 396.09C596.195 395.027 601.555 396.244 606.449 398.18C611.581 400.201 616.32 402.998 620.932 406.025C625.314 408.926 629.537 412.01 633.64 415.283C635.631 416.909 637.647 418.624 638.98 420.851C641.612 425.255 640.988 431.314 637.52 435.087C634.052 438.86 628.093 440.029 623.456 437.843C620.961 436.676 618.947 434.708 616.823 432.888C610.333 427.368 602.723 423.38 594.572 420.985C594.449 420.963 594.334 420.9 594.211 420.878" fill="black"/>
<path d="M506.312 504.71L506.522 505.424C506.979 507.112 507.548 508.651 508.202 509.953C507.262 508.6 506.648 506.841 506.312 504.71Z" fill="black"/>
<path d="M551.941 383.015C548.247 387.339 544.77 391.87 541.43 396.343C529.391 412.524 518.388 429.526 509.129 447.644C504.534 456.751 500.467 466.208 497.562 476.253C496.11 481.276 494.997 486.529 494.647 492.003C494.53 494.772 494.338 497.485 494.828 500.405C495.035 501.837 495.112 503.288 495.417 504.653L496.597 508.67C497.131 511.344 498.766 514.005 499.977 516.675C500.891 517.938 501.854 519.168 502.857 520.405C503.723 521.702 505.217 522.562 506.421 523.624C511.728 527.494 518.104 528.471 523.492 528.594C534.388 528.651 543.933 526.815 553.285 527.228C555.525 527.462 557.899 527.424 560.048 527.936L563.323 528.525L566.444 529.509L568.011 529.96C568.603 530.193 569.91 530.681 570.949 530.783C573.167 531.14 575.511 530.8 577.541 529.855C579.563 528.95 581.361 527.413 582.555 525.472C583.175 524.612 583.656 523.345 583.993 522.18C584.267 521.595 584.124 520.978 584.235 520.364L584.265 519.016C584.306 515.262 582.314 511.057 579.493 508.648C577.233 506.636 574.779 505.476 572.429 504.673C571.919 504.455 571.394 504.318 570.917 504.148C565.295 502.503 559.944 502.175 554.726 502.041C549.502 501.947 544.341 502.203 539.288 502.563C536.844 502.758 534.18 502.997 532.052 503.08C529.123 503.145 526.91 503.466 524.529 503.545C522.304 503.695 520.015 503.495 519.471 503.228C519.452 503.098 519.388 502.748 519.338 501.851C519.292 501.167 519.549 499.734 519.659 498.654L520.099 495.267C520.34 492.986 521.135 490.677 521.588 488.391C526.37 470.018 535.663 452.413 545.773 435.674C550.914 427.298 556.36 419.104 562.112 411.092C564.98 407.127 567.931 403.177 570.948 399.323C573.984 395.6 577.176 391.481 580.147 388.592C586.912 382.706 595.249 377.948 604.059 375.263C608.447 373.896 613 373.023 617.594 372.623C619.484 372.456 621.408 372.336 623.22 372.366C623.604 372.35 624.028 372.342 624.404 372.367L625.628 372.376L625.778 372.953L626.145 374.202C626.422 375.013 626.692 375.864 626.976 376.634C627.564 378.304 628.248 379.906 628.932 381.509C630.308 384.673 631.992 387.765 633.836 390.675C637.558 396.543 642.183 401.855 647.454 406.395L648.449 407.208C648.658 407.457 649.634 408.14 650.171 408.448C651.359 409.126 652.707 409.622 654.107 409.832C656.891 410.332 659.811 409.842 662.264 408.423C667.286 405.648 669.681 399.147 667.683 393.8C667.241 392.494 666.539 391.227 665.636 390.135C665.185 389.589 664.685 389.076 664.096 388.59L663.101 387.777C661.875 386.838 660.853 385.936 659.854 384.911C657.841 382.943 656.002 380.71 654.486 378.324C651.366 373.578 649.301 368.135 648.448 362.529L648.221 360.501C648.134 359.809 647.987 358.98 647.833 358.191C647.549 357.421 647.183 356.637 646.802 355.934C645.073 353.088 642.763 351.827 640.819 350.886C636.785 349.104 633.145 348.661 629.606 348.363C615.524 347.692 602.342 350.48 589.61 354.997C582.202 357.639 574.823 361.3 568.63 366.359C562.59 371.275 557.079 377.006 551.934 383.056L551.941 383.015ZM506.522 505.424C506.979 507.112 507.548 508.651 508.202 509.953C507.261 508.6 506.648 506.841 506.312 504.71L506.522 505.424Z" fill="black"/>
<path d="M506.312 504.71L506.522 505.424C506.979 507.112 507.548 508.651 508.202 509.953C507.262 508.6 506.648 506.841 506.312 504.71Z" fill="black"/>
<path d="M764.554 537.091L766.688 534.389L761.406 533.44C762.729 534.777 763.822 535.988 764.554 537.091ZM635.698 485.441C635.952 485.91 636.481 486.258 637.152 486.759C637.861 485.872 638.611 484.993 639.32 484.106C638.839 483.723 638.366 483.3 637.874 483.212C636.311 482.973 635.112 484.237 635.698 485.441ZM670.484 417.256C670.484 417.256 670.86 417.281 671.064 417.318L670.8 417.144L670.569 417.017L670.525 417.263L670.484 417.256Z" fill="black"/>
<path d="M669.584 406.738C668.695 406.747 667.646 406.939 666.694 407.064C665.7 407.181 664.76 407.477 663.838 407.903C660.034 409.544 657.57 412.906 656.27 415.673C654.824 418.541 654.141 421.166 653.432 423.702C652.102 428.746 651.148 433.351 649.489 437.407C648.629 439.366 647.71 441.188 646.508 442.705L641.987 448.571L623.511 472.345L586.545 519.976C585.212 521.511 583.435 524.109 582.885 528.11C582.662 530.057 582.987 532.482 584.036 534.404C585.045 536.318 586.368 537.655 587.621 538.683C589.808 540.387 591.708 541.109 593.35 541.615L594.005 541.733C594.31 541.915 594.638 541.974 594.966 542.033C595.613 542.191 596.276 542.268 596.838 542.2C598.036 542.119 599.017 541.831 599.817 541.383C601.712 540.244 602.323 538.959 602.329 537.988C602.765 540.264 604.963 543.322 609.614 546.61C613.56 549.348 617.588 552.101 622.147 554.484C625.858 556.419 629.656 557.863 633.409 559.087L638.92 560.881C641.128 561.531 643.742 562.043 646.301 561.912C651.503 561.663 656.101 559.361 659.553 556.854C661.3 555.604 662.897 554.242 664.398 552.948L665.616 551.814L688.152 567.067C692.501 569.919 696.886 572.567 701.256 575.297C705.419 578.244 709.827 581.234 714.394 584.042C718.97 586.808 723.69 589.474 728.874 591.674C734.039 593.744 739.911 595.645 746.589 594.943C749.822 594.594 753.236 593.475 755.745 591.981C757.128 591.342 758.41 590.558 759.618 589.718C760.859 588.927 762.033 588.039 763.133 587.095C767.639 583.424 771.333 579.101 774.524 574.517C777.681 569.885 780.328 565.035 782.48 559.884C783.572 557.333 784.516 554.671 785.262 551.93C786.015 549.149 786.646 546.346 786.77 543.071C787.114 536.454 784.351 529.955 780.62 525.311C776.863 520.578 772.476 517 768.023 513.79C765.806 512.25 763.541 510.744 761.253 509.361L760.377 508.823L759.93 508.489L758.358 507.361L755.179 505.056L748.855 500.496L742.282 496.144L720.82 481.973C720.82 481.973 720.842 481.85 720.857 481.768L721.376 480.762C721.705 480.103 721.953 479.429 722.242 478.762C723.309 476.122 724.074 473.512 724.675 470.872C725.918 465.601 726.566 460.349 726.548 454.808C726.445 452.084 726.376 448.944 724.907 445.594L723.842 443.289L722.654 441.427C721.829 440.138 720.96 439.094 720.099 438.009C716.548 433.778 712.749 430.221 708.749 426.839C700.72 420.239 692.265 414.365 682.403 409.972C679.844 408.92 677.271 407.95 674.304 407.29C672.934 406.917 671.122 406.887 669.543 406.731L669.584 406.738ZM637.152 486.759C636.481 486.258 635.952 485.91 635.698 485.441C635.112 484.237 636.311 482.973 637.874 483.212C638.366 483.3 638.839 483.723 639.32 484.106C639.503 484.265 639.685 484.425 639.875 484.543C639.207 485.438 638.573 486.381 637.898 487.316C637.64 487.101 637.376 486.926 637.152 486.759ZM766.688 534.389L764.554 537.091C763.822 535.988 762.729 534.777 761.406 533.44L766.688 534.389ZM707.193 502.053L717.934 508.845C725.975 513.968 734.008 519.132 741.778 524.586C745.601 527.302 749.417 530.059 752.991 532.984C754.758 534.443 756.436 535.928 757.949 537.384C758.576 538.13 759.448 538.921 759.878 539.59L760.557 540.515C760.557 540.515 760.542 540.597 760.576 540.646L760.568 540.687C760.568 540.687 760.609 540.694 760.657 540.66L760.643 540.742C761.289 543.733 760.694 547.515 759.198 551.135C757.62 554.74 755.305 558.213 752.613 561.195C751.254 562.641 749.772 564.066 748.289 565.025C746.751 566.059 745.457 566.672 744.713 566.58C740.928 566.703 736.829 565.755 732.83 564.487C724.739 561.765 716.875 557.308 709.248 552.471C701.587 547.585 694.104 542.182 686.532 536.806L682.172 533.782L685.639 529.544C691.768 522.022 697.598 514.278 703.305 506.512L706.731 501.801L707.193 502.053ZM679.678 435.478C682.16 437.192 684.601 438.899 687.027 440.688C691.804 444.21 696.668 447.958 700.505 451.776C700.971 452.24 701.355 452.689 701.739 453.139C701.806 453.236 701.833 453.325 701.915 453.34C701.863 453.626 701.959 455.207 701.946 456.22C701.926 458.921 701.563 461.646 701.003 464.293C700.719 465.637 700.36 466.925 699.954 468.247C699.754 468.887 699.514 469.52 699.273 470.153C699.21 470.269 699.203 470.31 699.203 470.31L698.924 470.682L693.223 477.943C685.685 487.662 678.397 497.639 671.354 507.659L660.85 522.594C657.336 527.331 653.654 532.291 649.935 534.878C648.058 536.147 646.492 536.626 644.338 536.619C642.232 536.579 639.655 535.862 637.026 534.967C631.742 533.087 626.222 530.404 620.769 527.818L613.956 524.564C613.956 524.564 613.685 524.431 613.562 524.409C613.576 524.327 613.721 524.226 613.784 524.111L618.383 518.047C629.877 503.247 642.608 489.093 654.139 473.623C654.146 473.582 654.161 473.5 654.127 473.452C654.127 473.452 654.224 473.385 654.354 473.366C657.59 469.002 660.759 464.541 663.786 459.928C667.117 454.567 670.381 449.109 673.007 443.198C674.404 440.364 675.469 437.258 676.609 434.208L676.857 433.534L679.678 435.478ZM670.8 417.143L671.064 417.318C671.064 417.318 670.689 417.293 670.484 417.256L670.528 417.01L670.8 417.143Z" fill="black"/>
<path d="M620.554 497.26C620.659 497.617 620.764 497.974 620.917 498.298C621.953 497.004 623.03 495.718 624.065 494.425C623.942 494.403 623.834 494.299 623.711 494.277C621.98 493.797 620.153 495.497 620.554 497.26Z" fill="black"/>
<path d="M764.553 537.091L766.688 534.389L761.405 533.44C762.729 534.777 763.822 535.988 764.553 537.091Z" fill="black"/>
<path d="M635.698 485.441C635.952 485.91 636.481 486.258 637.152 486.759C637.376 486.926 637.64 487.101 637.897 487.316C638.573 486.381 639.207 485.438 639.875 484.544C639.685 484.425 639.502 484.265 639.32 484.106C638.839 483.723 638.366 483.3 637.874 483.212C636.311 482.973 635.111 484.237 635.698 485.441ZM654.127 473.452C654.127 473.452 654.146 473.582 654.139 473.623C654.235 473.556 654.298 473.44 654.354 473.366C654.224 473.385 654.127 473.452 654.127 473.452ZM670.484 417.256C670.484 417.256 670.859 417.281 671.064 417.318L670.8 417.144L670.569 417.018L670.524 417.263L670.484 417.256Z" fill="black"/>
<path d="M670.568 417.018L670.799 417.144L671.064 417.318C671.064 417.318 670.688 417.293 670.483 417.256L670.528 417.01L670.568 417.018Z" fill="black"/>
<path d="M623.711 494.277C623.711 494.277 623.95 494.362 624.065 494.425C623.03 495.718 621.953 497.004 620.917 498.298C620.764 497.974 620.659 497.617 620.554 497.26C620.153 495.497 621.98 493.797 623.711 494.277Z" fill="black"/>
<path d="M590.4 447.964C589.731 448.393 588.78 449.448 587.746 449.558C585.499 449.831 583.812 447.456 584.381 445.234C584.813 443.536 586.775 442.494 588.451 443.049C590.004 443.581 590.729 445.191 590.366 447.916L590.4 447.964Z" fill="black"/>
<path d="M598.849 489.851C598.362 492.088 596.78 493.368 595.153 493.244C593.698 493.11 592.522 490.954 593.021 489.353C593.527 487.711 595.505 486.587 597.006 487.406C597.889 487.903 598.371 489.215 598.849 489.851Z" fill="black"/>
<path d="M565.445 488.497C563.704 488.31 562.278 486.363 562.953 484.963C563.549 483.76 564.694 483.035 565.893 483.42C566.969 483.783 568.087 484.618 568.677 485.569C569.293 486.61 566.934 488.68 565.445 488.497Z" fill="black"/>
<path d="M634.448 439.48C636.686 439.967 637.622 441.107 637.284 442.991C637.048 444.301 635.814 445.052 634.403 444.671C632.173 444.144 631.203 442.955 631.527 441.153C631.748 439.925 633.071 439.148 634.489 439.488L634.448 439.48Z" fill="black"/>
<path d="M637.874 483.212C638.366 483.3 638.839 483.723 639.32 484.106C639.502 484.265 639.685 484.425 639.875 484.544C639.207 485.438 638.573 486.381 637.897 487.316C637.64 487.101 637.376 486.926 637.152 486.759C636.481 486.258 635.952 485.91 635.698 485.441C635.111 484.237 636.311 482.973 637.874 483.212Z" fill="black"/>
<path d="M666.7 485.814C667.095 486.435 667.92 487.259 668.331 488.263C668.761 489.397 667.669 490.3 666.054 490.348C664.309 490.415 664.169 489.079 664.006 487.866C663.776 486.557 664.98 485.505 666.748 485.781L666.7 485.814Z" fill="black"/>
<path d="M524.869 489.657C525.135 490.297 525.713 491.077 525.576 491.602C525.196 493.013 523.671 493.5 522.795 492.497C522.37 492.04 522.27 490.712 522.589 490.347C523.02 489.832 524.073 489.852 524.869 489.657Z" fill="black"/>
<path d="M564.307 416.517C564.685 415.824 564.854 414.883 565.434 414.48C566.311 413.834 567.413 415.934 566.768 417.171C566.586 417.476 566.151 417.779 565.794 417.884C564.738 418.116 564.197 417.597 564.266 416.51L564.307 416.517Z" fill="black"/>
<path d="M656.374 473.179C656.97 473.625 657.798 474.196 657.817 474.791C657.83 475.428 657.27 476.426 656.679 476.658C656.266 476.837 655.242 476.188 654.831 475.65C654.421 475.111 654.307 474.33 654.139 473.623C654.146 473.582 654.161 473.5 654.127 473.452C654.127 473.452 654.224 473.385 654.354 473.366C654.581 473.28 654.986 473.141 655.254 473.063C655.63 473.088 656.158 472.971 656.374 473.179Z" fill="black"/>
<path d="M650.955 502.386C650.441 503.604 649.039 504.113 648.007 503.505C646.941 502.848 646.645 501.442 647.588 500.428C648.059 499.921 648.974 499.536 649.644 499.572C650.902 499.629 651.526 501.094 650.955 502.386Z" fill="black"/>
<path d="M545.882 450.826C546.822 451.713 546.739 453.347 545.662 454.168C545.372 454.369 544.933 454.46 544.565 454.393C543.425 454.146 542.703 452.284 543.557 451.296C543.981 450.822 545.093 450.98 545.882 450.826Z" fill="black"/>
</g>
<path d="M607.631 849.098C609.101 874.34 591.376 897.295 566.3 902.196C566.055 902.278 565.81 902.278 565.483 902.278H565.401C542.286 901.788 522.764 885.531 518.026 862.903C511.492 837.253 519.987 814.053 528.972 789.546C535.914 770.594 543.102 750.989 543.102 729.341C543.102 727.789 544.001 726.318 545.471 725.665C546.86 725.011 548.575 725.175 549.8 726.237L554.865 730.403C554.865 730.403 555.518 731.138 555.763 731.546C561.317 741.594 566.463 750.744 571.119 758.994C594.562 800.574 607.467 823.447 607.631 849.098Z" fill="#3D9CFB"/>
<path d="M647.855 695.058C642.358 700.315 635.306 703 628.254 703C622.313 703 616.316 701.098 611.207 697.239C603.766 690.639 599.435 681.411 599.102 671.623C597.492 649.642 615.483 605.68 617.537 600.702C618.037 599.583 619.147 598.856 620.425 599.024L623.867 599.471C624.534 599.471 625.089 599.807 625.533 600.31C645.912 621.956 670.733 672.182 647.855 695.058Z" fill="#3D9CFB"/>
</g>
<defs>
<clipPath id="clip0_336_323">
<rect width="930" height="930" fill="white"/>
</clipPath>
<clipPath id="clip1_336_323">
<rect width="847" height="356" fill="white" transform="translate(41 48)"/>
</clipPath>
<clipPath id="clip2_336_323">
<rect width="369.397" height="502.362" fill="white" transform="translate(246.454 385) rotate(35.4623)"/>
</clipPath>
<clipPath id="clip3_336_323">
<rect width="223.411" height="297.257" fill="white" transform="translate(484 548.887) rotate(-79.8106)"/>
</clipPath>
</defs>
</svg>
