<svg width="930" height="930" viewBox="0 0 930 930" fill="none" xmlns="http://www.w3.org/2000/svg">
<g clip-path="url(#clip0_259_3776)">
<g clip-path="url(#clip1_259_3776)">
<path d="M70.7959 213.812C63.6564 209.878 50.6052 197.098 43.4657 189.724C41.7427 188.004 41 185.79 41 183.576C41 165.141 53.8036 102.701 59.9628 81.0736C60.2104 80.095 60.2104 78.8594 60.2104 77.8809C60.2104 72.7212 59.2202 64.606 59.2202 63.1332C59.2202 61.1662 60.2104 59.4463 62.171 58.7049C75.9649 52.8039 92.7096 48.8699 103.295 48.8699C141.221 48.8699 171.502 89.6731 171.502 120.641C171.502 169.065 129.15 211.836 79.8961 215.275C76.6977 215.275 73.4893 215.028 70.786 213.803L70.7959 213.812ZM137.527 109.837C137.527 91.4029 122.01 80.3421 105.266 80.3421C103.543 80.3421 102.067 80.3421 100.344 80.5892C97.3934 81.0834 95.9081 82.3091 95.4228 84.7704C89.5112 108.859 81.629 143.03 76.7076 175.47C76.7076 175.47 76.46 176.943 76.46 177.438C76.46 179.405 77.6879 180.146 79.906 180.146C98.3737 180.146 137.527 156.304 137.527 109.847V109.837Z" fill="#DB433B"/>
<path d="M258.186 114.997C258.186 114.503 258.434 113.771 258.434 113.771C260.157 107.376 261.632 101.732 261.632 95.3368C261.632 86.9745 259.167 80.0949 251.78 80.0949C235.035 80.0949 213.854 116.233 213.854 149.662C213.854 173.009 224.687 181.371 235.768 181.371C246.848 181.371 262.118 170.311 268.267 165.151C268.267 165.151 269.742 163.678 271.218 163.678C272.941 163.678 273.931 164.172 274.911 165.398C277.129 168.106 282.298 179.652 283.289 182.113C284.031 183.833 284.516 185.058 284.516 186.778C284.516 188.251 284.021 189.487 283.041 190.712C275.654 200.547 256.444 215.542 238.719 215.542C222.954 215.542 196.862 202.514 187.256 188.014C180.85 178.179 177.156 165.645 177.156 151.876C177.156 106.892 204.982 50.1152 243.64 50.1152C254.968 50.1152 298.063 64.6158 298.063 86.2529C298.063 95.5938 293.627 106.655 290.923 113.05C289.943 115.511 287.477 117.231 284.516 117.231C280.823 117.725 265.306 117.972 261.613 117.972C259.642 117.972 258.167 116.747 258.167 115.027L258.186 114.997Z" fill="#DB433B"/>
<path d="M166.343 252.836V258.985C166.343 301.013 152.311 403.269 100.344 403.269C79.906 403.269 59.4677 389.499 52.3282 379.427C46.9116 371.806 44.446 359.273 44.446 347.718C44.446 307.409 59.9628 257.996 67.8351 243.248C69.3106 240.787 71.0336 239.314 74.2419 239.314C78.9158 239.314 91.9768 243.496 98.1262 245.71C100.097 246.451 101.077 248.655 101.077 250.622C101.077 251.848 100.582 253.331 100.582 253.331C90.7292 279.88 79.6485 326.09 79.6485 349.191C79.6485 361.971 82.1142 370.818 91.957 370.818C105.989 370.818 113.871 349.922 120.278 324.361C127.665 295.112 132.101 257.255 133.329 244.474C133.576 242.013 135.299 240.54 137.517 240.54C141.211 240.54 155.985 244.227 161.897 246.441C164.848 247.667 166.085 250.375 166.333 252.836H166.343Z" fill="#DB433B"/>
<path d="M220.023 404C208.2 404 188.999 399.334 177.424 389.499C169.541 382.867 166.095 374.258 164.125 360.983C164.125 360.983 163.877 358.769 163.877 357.79C163.877 354.834 165.6 353.124 168.313 351.889C178.166 348.202 188.257 346.729 190.475 346.482C193.673 346.482 194.663 348.696 195.149 350.416C198.595 362.703 199.585 374.258 215.834 374.258C227.41 374.258 235.045 367.625 235.045 361.23C235.045 341.322 175.701 337.635 175.701 296.338C175.701 270.283 199.09 238.326 224.707 238.326C241.699 238.326 284.051 252.332 284.051 274.948C284.051 282.569 279.13 295.35 276.416 300.025C274.693 303.465 273.466 304.206 270.505 304.453C266.811 304.947 251.79 304.947 247.848 304.947C244.402 304.947 243.175 303.722 243.175 301.755C243.175 299.788 246.621 287.254 246.621 279.88C246.621 270.292 241.452 267.1 236.035 267.1C223.231 267.1 213.131 284.556 213.131 294.134C213.131 319.448 271.743 318.964 271.743 357.306C271.743 382.135 245.888 404.01 220.033 404.01L220.023 404Z" fill="#DB433B"/>
<path d="M649.108 154.1C649.108 206.626 587.546 281.739 525.973 321.662C523.864 323.234 522.814 324.291 522.814 325.339C522.814 326.387 524.389 326.387 527.548 326.387C529.132 326.387 553.858 324.815 568.068 324.815C575.96 324.815 583.327 324.815 589.645 325.339C595.428 325.863 600.171 330.064 601.221 335.323C603.855 346.354 607.013 366.834 609.113 382.6C609.113 387.849 605.429 391.526 599.646 392.05C566.493 394.145 460.727 400.451 427.05 402.033C421.267 402.033 414.949 399.928 412.315 394.679C407.057 383.124 398.105 350.555 398.105 346.354C398.105 341.629 400.739 336.904 404.423 334.275C505.456 271.765 575.435 173.019 576.495 136.773C575.97 121.017 563.859 115.234 552.293 115.234C533.875 115.234 504.931 134.667 483.364 168.808C481.789 171.438 479.155 173.009 475.997 173.009C472.838 173.009 469.679 170.914 469.679 170.914C457.578 163.036 443.369 151.481 435.476 142.545C432.842 139.916 431.268 136.239 431.268 132.038C431.268 130.466 431.793 127.837 432.318 126.265C442.309 101.574 481.77 48 533.341 48C581.228 48 649.108 100.002 649.108 154.1Z" fill="#F39745"/>
<path d="M864.848 247.074C871.166 247.074 873.79 251.275 874.85 256.523C876.949 268.602 879.583 291.722 879.583 305.896C879.583 310.621 876.424 315.356 870.631 315.356C867.997 315.356 847.48 315.88 844.846 315.88C838.528 315.88 835.379 320.604 834.32 325.863C831.161 348.449 827.477 371.035 824.853 393.097C824.328 398.356 820.645 401.499 815.912 401.499C806.96 401.499 775.391 392.05 764.865 387.839C758.548 385.743 755.399 379.961 755.399 374.712C755.924 362.633 759.082 330.588 759.082 328.492C759.082 324.291 755.924 321.662 752.24 321.662C740.139 321.662 669.625 328.492 665.417 328.492C659.099 328.492 654.366 325.863 652.267 321.138C647.009 310.631 635.433 278.071 635.433 270.184C635.433 265.459 637.017 260.2 639.641 257.057C677.527 206.636 759.092 89.4951 783.818 57.4594C786.452 54.3063 789.601 52.2107 793.82 52.2107C798.553 52.2107 808.554 59.0409 812.238 59.0409C814.337 59.0409 815.921 57.9932 816.971 55.8878C818.555 52.7346 822.239 50.1152 826.448 50.1152C832.765 50.1152 868.542 60.0986 882.227 64.8234C886.435 66.4049 888.01 70.0819 888.01 73.7589C888.01 74.8067 887.485 77.436 887.485 77.436C878.019 105.804 863.284 164.103 849.599 236.062C849.599 236.062 849.074 239.215 849.074 240.787C849.074 243.94 851.173 247.093 854.857 247.093H864.858L864.848 247.074ZM719.622 252.322C719.622 253.904 721.206 255.475 723.83 255.475C724.88 255.475 749.091 252.846 761.716 251.798C766.975 251.275 770.133 248.645 771.183 243.397C776.966 210.827 787.492 159.883 787.492 156.206C787.492 154.624 787.492 153.576 786.967 153.576C785.918 153.576 784.333 155.672 784.333 155.672C778.016 164.074 726.454 240.767 721.186 248.645C720.137 250.227 719.602 251.275 719.602 252.322H719.622Z" fill="#F39745"/>
<path d="M382.945 60.9487C387.252 63.1331 390.827 65.5351 390.213 70.9715C390.213 70.9715 353.515 395.351 353.466 395.786C352.773 401.934 348.168 404.099 343.395 403.397C340.276 402.942 337.563 401.39 334.79 400.007C330.067 397.634 324.977 395.865 320.452 393.127C316.521 390.834 311.857 387.374 311.896 382.323C311.896 381.997 311.926 381.681 311.966 381.355L348.713 56.5402C348.743 56.2832 348.782 56.0361 348.822 55.7988C349.931 50.0461 356.526 47.1894 361.724 49.8978L382.945 60.9487Z" fill="black"/>
</g>
<path d="M466.587 422.13L524.245 469.462L551.784 479.788L586.207 490.115L635.26 484.091L683.452 461.716L716.154 422.13L737.668 362.75V312.837L710.99 341.236L658.495 375.659L601.697 392.01L551.784 386.846L502.731 382.543L471.75 392.01L466.587 422.13Z" fill="white"/>
<g clip-path="url(#clip2_259_3776)">
<path d="M1200.75 988.873C1201.69 986.546 1203.12 984.444 1204.91 982.655C1212.16 978.047 1217.93 971.516 1221.65 963.732C1225.32 955.992 1226.71 947.359 1225.72 938.814C1220.26 903.25 1182.84 896.718 1162.07 872.069C1155.94 864.688 1143.32 850.641 1137.1 879.361C1121.79 946.106 1154.55 966.237 1143.32 977.376C1111.18 1010.79 1005.58 970.084 964.852 977.376C943.411 981.536 927.565 1002.65 917.897 1012.85C913.823 1017.15 942.963 1042.11 947.171 1037.9C956.66 1029.13 968.075 1022.74 980.518 1019.16C1028.55 1009.72 1170.44 1087.96 1200.79 988.828L1200.75 988.873Z" fill="#3D9CFB"/>
<path d="M982.622 1311.23C966.956 1292.49 932.444 1271.6 925.193 1241.4C917.897 1211.21 964.852 1042.15 871.613 991.02C797.756 950.311 662.933 927.362 651.34 815.748C651.027 813.153 649.773 810.738 647.759 808.993C645.79 807.248 643.238 806.309 640.597 806.309C466.34 794.857 487.109 599.767 615.531 657.162C665.574 678.59 683.39 655.015 679.853 642.578C676.317 630.142 687.373 614.53 697.534 621.15C739.028 650.273 786.297 632.602 747.712 580.441C774.883 577.355 800.576 566.395 821.703 549.037C842.831 531.635 858.408 508.507 866.689 482.427C867.361 479.743 867.002 476.969 865.749 474.509C864.496 472.093 862.392 470.169 859.841 469.14C857.289 468.112 854.424 468.067 851.873 468.962C849.277 469.856 847.128 471.69 845.785 474.061C817.585 525.149 755.948 544.966 706.442 543.893C704.159 543.759 701.966 542.998 700.086 541.701C698.206 540.403 696.684 538.659 695.744 536.601C683.3 500.052 633.167 495.892 597.671 489.674C623.677 489.003 649.102 481.845 671.707 468.962C694.311 456.078 713.335 437.692 727.122 415.637C728.599 413.266 729.136 410.403 728.599 407.674C728.107 404.946 726.585 402.44 724.391 400.741C722.198 399.041 719.378 398.235 716.603 398.459C713.828 398.727 711.187 399.98 709.307 401.993C642.522 465.651 523.545 447.936 511.012 443.776C445.302 421.811 390.961 403.067 383.665 439.615C382.725 448.831 383.933 458.136 387.201 466.814C390.468 475.493 395.661 483.321 402.42 489.629C404.21 491.597 405.24 494.147 405.329 496.787C405.419 499.426 404.613 502.021 403.046 504.123C401.435 506.226 399.152 507.747 396.556 508.284C394.005 508.91 391.274 508.552 388.857 507.344C387.38 505.957 385.589 504.884 383.665 504.257C381.74 503.631 379.681 503.452 377.666 503.81C375.652 504.079 373.727 504.884 372.071 506.002C370.37 507.165 368.983 508.686 367.998 510.476C337.784 591.804 150.948 677.382 112.274 778.305C83.3129 856.054 81.1196 941.23 106.052 1020.32C81.612 1001.98 82.7758 978.315 68.5415 978.628C42.4006 979.165 -42.1544 986.994 -53.6582 1022.47C-60.9544 1043.27 -48.4211 1082.91 -32.2173 1122.54C-18.6097 1154.66 -29.1287 1167.41 -25.9954 1185.21C-22.7726 1200.87 -12.3878 1203.96 -11.3135 1216.48C-8.09069 1235.99 18.8111 1216.48 83.6262 1229.99C101.307 1232.14 101.307 1202.89 100.367 1186.2C97.2786 1174.97 91.5491 1164.59 83.6262 1156C77.3148 1146.56 88.8634 1134.57 98.2186 1140.35C155.648 1171.62 203.677 1152.87 245.395 1161.24C276.057 1165.62 239.8 1113.24 259.003 1007.84C259.54 1005.02 261.151 1002.52 263.434 1000.82C265.717 999.117 268.582 998.267 271.447 998.58C274.311 998.849 276.952 1000.15 278.922 1002.29C280.847 1004.4 281.966 1007.17 281.966 1010.03C283.04 1149.29 313.254 1213.58 281.966 1288.55C255.825 1356.37 213.033 1429.33 239.084 1441.86C299.423 1459.13 347.542 1497.87 347.542 1466.91C344.453 1433.49 364.283 1438.73 373.683 1414.75C381.516 1393.95 356.763 1360.44 456.089 1236.39C463.699 1225.03 491.764 1242.3 539.57 1234.24C542.077 1233.84 544.583 1234.24 546.866 1235.41C549.104 1236.57 550.939 1238.32 552.103 1240.6C587.555 1316.78 643.954 1325.01 628.288 1347.74C608.458 1375.92 586.077 1411.04 573.947 1431.21C572.917 1432.78 572.291 1434.61 572.201 1436.49C572.112 1438.37 572.47 1440.25 573.32 1441.95C574.171 1443.65 575.469 1445.04 577.035 1446.11C578.602 1447.14 580.437 1447.77 582.317 1447.81C684.016 1455.64 699.235 1512.09 711.768 1484.36C724.302 1456.62 750.353 1445.8 751.427 1416.54C752.502 1387.28 756.575 1366.53 778.553 1344.56C779.851 1343.35 780.836 1341.83 781.373 1340.13C781.955 1338.43 782.045 1336.64 781.731 1334.9C781.418 1333.15 780.657 1331.5 779.538 1330.11C778.419 1328.73 776.986 1327.65 775.33 1326.94C724.212 1302.96 688.313 1277.24 663.739 1247.67C662.038 1245.47 661.143 1242.79 661.232 1240.02C661.322 1237.24 662.441 1234.6 664.321 1232.59C666.201 1230.58 668.797 1229.28 671.528 1228.97C674.303 1228.7 677.078 1229.37 679.361 1230.93C721.482 1258.8 768.079 1279.34 817.093 1291.46C872.374 1306.04 894.262 1447.85 913.555 1456.22C929.221 1463.51 967.135 1466.96 993.813 1490.71C995.334 1492.5 997.349 1493.8 999.587 1494.33C1001.87 1494.87 1004.24 1494.65 1006.39 1493.71C1008.54 1492.72 1010.33 1491.16 1011.45 1489.1C1012.57 1487.09 1013.02 1484.72 1012.7 1482.39C1013.69 1441.68 992.873 1395.74 987.635 1378.02C982.488 1358.21 997.796 1330.02 982.488 1311.28L982.398 1311.19L982.622 1311.23Z" fill="#3D9CFB"/>
<path d="M662.351 718.538C666.246 721.715 671.483 719.254 677.078 716.346C689.029 710.173 695.341 692.413 679.988 686.419C670.14 682.616 661.277 688.521 657.114 697.468C653.757 704.715 656.622 713.841 662.351 718.494V718.538Z" fill="black"/>
<path d="M580.616 702.792C585.54 710.576 593.105 715.675 601.61 712.097C622.558 703.329 604.161 669.688 586.033 669.688C571.575 669.688 572.47 689.908 580.616 702.792Z" fill="black"/>
<path d="M587.062 620.658C612.397 618.869 603.445 581.962 592.657 569.392C581.377 556.195 564.055 549.619 546.911 546.801C542.435 546.085 537.735 545.637 533.437 547.069C521.62 551.095 523.858 568.184 525.694 577.668C531.423 607.551 557.877 622.671 587.062 620.613V620.658Z" fill="black"/>
<path d="M434.738 455.899C440.96 451.739 453.493 456.883 461.863 469.409C470.234 481.935 481.693 477.774 479.544 467.351C475.381 445.386 435.722 421.408 416.967 443.373C403.449 459.03 423.279 489.226 438.408 485.066C453.538 480.906 425.338 461.088 434.782 455.944L434.738 455.899Z" fill="black"/>
<path d="M-52.4049 1222.52C-71.2496 1323.76 -55.6278 1390.5 61.29 1329.66C129.149 1292.18 178.118 1286.81 109.319 1211.83C121.853 1168.98 107.171 1168.98 90.5642 1134.71C135.371 1168.04 192.8 1162.76 244.992 1161.82C248.439 1164.14 251.975 1166.2 255.691 1168.04C273.371 1258.76 201.439 1324.56 188.906 1411.13C173.239 1435.11 144.01 1452.82 136.714 1486.1C131.477 1506.99 140.876 1537.19 164.914 1540.32C226.953 1548.87 289.799 1548.51 351.749 1539.25C391.408 1531.96 362.447 1469.42 360.12 1444.32C411.551 1405.76 349.422 1382.09 469.652 1234.65C495.211 1238.99 521.217 1239.7 546.911 1236.79C556.221 1277.41 595.88 1303.54 624.08 1329.57C594.806 1372.43 574.036 1416.23 535.317 1456.85C527.081 1465.61 520.725 1475.95 516.607 1487.27C512.489 1498.58 510.743 1510.57 511.415 1522.61C515.801 1576.15 635.181 1553.88 697.176 1553.88C723.227 1553.88 727.39 1520.46 723.227 1501.72C722.064 1499.03 721.571 1496.12 721.795 1493.26C721.974 1490.35 722.825 1487.53 724.346 1485.03C783.835 1428.66 753.621 1390.1 794.22 1341.03C825.508 1349.39 829.716 1396.32 841.175 1421.37C844.621 1428.04 846.77 1435.33 847.486 1442.8C830.924 1459.75 817.496 1479.53 807.827 1501.18C800.531 1519.92 792.161 1553.34 818.525 1559.56C862.347 1570.29 911.451 1564.79 961.494 1562.78C1013.69 1560.63 1027.29 1510.62 1029.35 1469.91C1030.43 1434.43 1008.45 1403.16 1005.36 1370.82C1001.2 1335.35 1038.8 1298.84 1001.2 1268.6C987.993 1260.28 976.669 1249.32 967.851 1236.48C952.094 1206.69 1011.27 1109.21 956.302 1041.39C1007.51 979.881 1162.92 1121.74 1210.95 986.099C1242.24 970.442 1251.68 921.815 1226.62 881.732C1210.95 856.77 1173.04 844.244 1152.54 812.93C1121.65 756.25 1071.07 920.831 1133.78 967.31C1055.45 988.202 966.776 898.418 897.977 987.128C815.571 930.762 677.839 922.844 658.949 805.011C723.272 792.486 748.786 715.362 709.128 664.141C699.817 653.941 694.938 640.431 695.52 626.653C731.016 663.201 793.682 630.813 771.704 581.783C864.093 567.11 907.377 468.335 876.089 387.767C867.718 366.339 847.889 354.44 834.281 388.841C804.067 468.111 743.504 479.564 669.424 486.855C665.888 484.484 662.038 482.74 657.965 481.621C781.865 438.765 784.327 230.165 721.616 308.497C601.565 455.586 532.677 301.205 458.596 398.146C387.648 355.29 317.641 415.95 365.67 487.929C319.789 579.725 182.057 602.675 117.332 692.324C90.8776 728.38 72.3014 769.536 62.7224 813.198C53.1882 856.859 52.9196 902.042 62.0062 945.793C-6.92693 949.953 -101.867 944.809 -105 1017.77C-107.149 1066.85 -76.8001 1111.72 -76.8001 1160.7C-77.7849 1182.89 -79.8887 1214.25 -52.4497 1222.52H-52.4049ZM114.467 1251.78C119.212 1256.7 122.479 1262.88 123.912 1269.54C87.5652 1298.98 45.131 1319.96 -0.3022 1331.05C-6.3898 1332.53 -12.8355 1331.9 -18.5202 1329.26C-24.205 1326.62 -28.8602 1322.1 -31.5907 1316.47C-42.2888 1293.56 -33.6497 1261.18 -29.4421 1237.2C-20.8479 1235.9 -12.1193 1235.18 -3.39075 1235.05C-14.0888 1250.71 -11.985 1286.5 -0.3022 1298.71C16.8416 1316.83 102.784 1281.04 114.288 1251.78H114.512H114.467ZM338.903 1521.98C283.756 1536.56 225.611 1535.8 170.867 1519.83C167.196 1518.89 163.884 1516.93 161.288 1514.11C158.736 1511.38 156.946 1507.89 156.275 1504.18C153.186 1477.07 182.326 1453.09 201.171 1434.34C206.318 1435.42 213.614 1436.49 218.852 1437.43C209.317 1444.1 201.842 1453.31 197.232 1464C192.621 1474.7 191.099 1486.46 192.8 1497.96C197.948 1514.69 244.992 1515.76 267.821 1515.76C290.649 1515.76 337.694 1515.76 347.139 1487.58C356.36 1514.69 345.975 1519.83 338.679 1521.98H338.903ZM698.922 1531.42C650.042 1536.92 600.714 1537.24 551.745 1532.36C548.97 1532.09 546.329 1531.2 543.912 1529.81C541.495 1528.38 539.435 1526.5 537.869 1524.22C536.302 1521.94 535.183 1519.34 534.736 1516.61C534.288 1513.88 534.333 1511.07 535.049 1508.38C541.136 1486.51 553.491 1467 570.634 1452.15C577.483 1453.36 584.466 1454.03 591.449 1454.16C576.856 1467.76 567.456 1494.87 572.693 1509.45C589.434 1533.43 671.841 1530.35 703.129 1520.15C701.966 1523.99 700.533 1527.8 698.743 1531.42H698.967H698.922ZM744.892 1409.29C741.669 1434.34 717.677 1454.16 703.085 1476.13C671.796 1446.87 628.064 1436.49 587.241 1432.33C673.945 1277.86 657.249 1357.36 576.543 1252.9C574.797 1250.71 573.633 1248.07 573.052 1245.34C572.47 1242.57 572.559 1239.75 573.231 1237.02C573.947 1234.29 575.29 1231.78 577.08 1229.64C578.915 1227.49 581.243 1225.79 583.839 1224.76C599.282 1216.17 616.336 1210.8 633.883 1209.1C661.098 1266.41 719.646 1304.03 774.838 1331.14C753.71 1349.97 748.384 1381.51 744.713 1409.34H744.937L744.892 1409.29ZM959.794 1538.67C823.762 1541.98 780.388 1556.65 864.854 1451.03C874.298 1453.09 884.683 1454.12 894.128 1456.26C872.687 1467 852.455 1496.88 858.632 1514.64C864.854 1532.45 907.735 1532.31 930.654 1532.31C949.409 1532.31 981.772 1531.38 996.364 1516.66C991.753 1521.04 992.067 1537.77 959.614 1538.62H959.838L959.794 1538.67ZM1138.26 823.04C1150.79 845.944 1178.99 861.601 1198.82 879.406C1220.26 899.223 1230.96 936.085 1209.52 957.603C1176.49 989.096 1087.01 937.159 1138.03 823.04H1138.26ZM1016.15 971.202C1055.81 981.894 1114.22 1001.4 1151.82 977.42C1162.56 983.862 1174.74 987.575 1187.27 988.112C1137.23 1083.04 998.423 951.563 940.77 1023.59C932.534 1014.42 923.447 1006.01 913.644 998.535C944.933 962.837 976.445 960.734 1015.88 971.202H1016.1H1016.15ZM955.631 1138.11C947.484 1198.72 921.209 1243.42 984.905 1281.98C997.438 1292.67 996.364 1300.81 991.216 1316.47C960.868 1371.76 1012.03 1429.07 1003.66 1484.36C966.15 1451.03 915.032 1435.42 865.928 1430.14C833.789 1341.43 849.187 1340.45 759.484 1299.78C703.085 1268.51 649.952 1222.52 637.419 1157.93C633.793 1147.19 613.606 1150.95 627.974 1189.2C600.849 1190.27 577.931 1205.93 551.79 1214.25C529.722 1217.92 507.297 1218.95 485.005 1217.33C498.613 1201.68 512.131 1187 526.813 1172.47C546.642 1152.65 536.123 1146.43 529.901 1151.04C452.642 1203.11 380.621 1303.27 369.117 1376.01C359.806 1433.32 328.518 1416.72 341.991 1463.65C299.109 1447.99 256.228 1421.86 210.481 1415.65C218.852 1360.35 249.155 1315.48 268.985 1263.32C296.11 1178.77 252.244 1088.05 272.073 1002.56C303.362 825.276 463.072 837.668 445.257 662.53C458.103 678.993 474.039 692.816 492.212 703.15C501.657 772.042 577.931 810.29 642.253 808.59C648.565 993.078 982.13 940.38 955.004 1138.15H955.541L955.631 1138.11ZM733.299 620.658C727.927 620.39 722.735 619.092 717.901 616.721C713.066 614.395 708.769 611.13 705.233 607.103C714.32 590.775 718.304 572.121 716.692 553.555C741.445 566.394 776.942 616.453 733.075 620.613H733.299V620.658ZM855.499 391.212C883.698 463.191 837.683 552.884 759.037 563.397C746.235 547.069 728.778 535.035 708.993 528.906C704.965 519.959 699.325 511.818 692.252 504.928C781.328 499.023 832.983 456.704 855.275 390.809L855.499 391.257V391.212ZM489.168 396.446C516.607 364.326 582.541 411.969 631.063 398.459C675.243 384.591 713.693 356.766 740.729 319.188C745.877 392.241 689.611 458.449 619.604 472.585C570.635 473.569 532.99 448.607 494.405 421.363C482.722 413.132 480.35 406.601 488.944 396.401H489.168V396.446ZM-82.7534 1003.55C-66.0125 966.997 -26.3983 971.426 66.5272 964.895C87.9681 1030.66 120.778 1045.24 107.126 1013.97C83.85 964.716 74.0919 910.184 78.8367 855.92C83.5814 801.656 102.739 749.629 134.252 705.207C197.903 618.645 339.932 592.52 379.591 501.663C391.005 511.997 405.866 517.588 421.264 517.32C447.405 516.246 442.705 499.65 433.798 500.589C371.221 508.955 338.858 389.065 421.264 406.735C465.086 417.471 498.031 452.812 536.078 474.553C576.364 497.592 627.93 485.29 665.574 510.028C678.466 518.394 687.955 531.143 692.163 545.861C696.37 560.624 695.072 576.415 688.537 590.372C652.011 609.116 641.582 618.556 672.87 633.229C675.198 651.302 682.628 668.346 694.311 682.303C732.896 752.135 660.964 806.353 594.09 778.17C522.157 758.353 494.002 699.973 517.995 632.155C521.62 619.495 494.092 618.556 489.795 675.011C423.01 627.01 456.358 573.776 459.446 552.884C460.52 546.666 444.854 542.148 433.395 565.41C405.195 620.703 444.093 732.317 394.81 779.691C278.967 877.706 224.715 987.307 251.841 1142.76C236.174 1131.31 187.518 1097.85 176.82 1105.14C166.122 1112.43 210.168 1139.54 214.331 1142.76C163.213 1150.05 127.717 1134.4 83.8947 1110.64C82.8204 1101.2 73.1967 1073.02 67.1538 1084.52C57.8434 1101.25 66.1691 1135.74 75.5243 1155.56C96.9652 1183.6 94.2795 1179.44 88.0576 1215.01C48.1748 1209.6 7.79969 1209.95 -31.9935 1215.95C-33.2916 1212.77 -35.2611 1209.91 -37.7678 1207.58C-40.3192 1205.26 -43.2735 1203.47 -46.5411 1202.44C-62.2077 1195.15 -54.9116 1174.25 -55.9859 1159.58C-57.9106 1115.25 -98.6438 1039.07 -82.9772 1003.59H-82.7534V1003.55Z" fill="black"/>
<path d="M404.076 882.179C404.3 884.953 402.017 887.413 398.928 887.727C395.75 888.04 393.109 885.892 393.154 883.029C393.199 880.032 395.347 877.616 398.257 877.259C400.943 876.945 403.807 879.361 404.076 882.179Z" fill="black"/>
<path d="M434.962 555.39C435.23 558.297 433.216 560.534 430.127 560.758C427.083 560.981 424.532 558.879 424.577 556.15C424.577 553.287 426.591 551.006 429.456 550.513C431.828 550.111 434.693 552.616 434.962 555.345V555.39Z" fill="black"/>
<path d="M463.743 731.243C463.743 734.017 461.326 736.567 458.551 736.612C456.492 736.612 454.12 734.598 453.672 732.451C453.18 729.991 455.91 727.307 458.954 727.307C461.64 727.307 463.743 729.007 463.788 731.199L463.743 731.243Z" fill="black"/>
<path d="M373.548 793.738C373.593 796.109 371.847 798.525 369.744 798.927C366.968 799.464 364.417 796.825 364.73 793.783C364.954 791.546 367.058 789.443 369.251 789.175C371.265 788.951 373.504 791.278 373.548 793.738Z" fill="black"/>
<path d="M666.783 616.766C664.411 616.721 662.352 614.708 662.307 612.382C662.262 610.682 664.008 608.893 665.888 608.714C668.305 608.49 670.812 610.235 671.08 612.382C671.393 614.619 669.245 616.811 666.783 616.721V616.766Z" fill="black"/>
<path d="M517.413 818.879C519.74 818.477 522.471 820.624 522.336 822.771C522.247 824.382 520.501 826.484 518.89 826.842C516.876 827.334 514.19 825.098 513.966 822.727C513.787 821.071 515.533 819.148 517.368 818.835L517.413 818.879Z" fill="black"/>
<path d="M447.271 570.018C446.958 570.734 446.51 571.986 445.839 573.15C445.257 574.178 443.019 574.357 442.258 573.597C440.064 571.36 440.064 567.334 442.437 564.874C442.884 564.426 444.317 564.292 444.899 564.65C446.376 565.545 447.182 567.558 447.271 570.018Z" fill="black"/>
<path d="M475.471 871.846C473.233 872.114 471.487 870.772 471.129 868.849C470.771 867.104 472.517 865.046 474.173 865.27C475.874 865.493 477.575 867.193 477.306 869.027C477.127 870.146 476.008 871.085 475.516 871.846H475.471Z" fill="black"/>
<path d="M651.206 898.597C651.206 896.003 653.175 894.168 655.413 894.571C657.025 894.84 658.278 896.718 658.233 898.642C658.189 900.431 656.488 902.042 654.697 902.087C652.907 902.087 651.206 900.431 651.206 898.642V898.597Z" fill="black"/>
<path d="M669.11 910.318C669.871 910.855 671.393 911.436 671.796 912.465C672.199 913.584 671.751 915.194 671.349 916.447C670.901 917.923 669.513 918.37 668.036 918.37C666.201 918.37 665.709 916.939 665.395 915.641C664.813 913.047 666.335 910.72 669.11 910.318Z" fill="black"/>
<path d="M308.688 648.036C306.853 647.723 305.824 645.71 306.495 643.742C306.943 642.399 307.838 641.281 309.36 641.192C311.016 641.102 312.538 643.115 312.493 645.039C312.404 646.962 310.613 648.349 308.688 648.036Z" fill="black"/>
<path d="M711.947 603.256C709.575 603.167 708.322 601.377 708.859 599.409C709.575 596.904 712.127 595.427 714.007 596.412C716.021 597.485 716.827 599.23 716.021 600.885C715.081 602.764 713.469 603.346 711.947 603.256Z" fill="black"/>
<path d="M614.009 792.396C613.74 794.901 612.129 796.556 610.383 796.735C608.637 796.87 606.802 794.901 607.026 793.112C607.25 791.367 609.174 789.846 611.189 790.338C612.308 790.607 613.248 791.814 614.009 792.396Z" fill="black"/>
<path d="M474.486 803.759C476.053 803.759 477.754 805.772 477.709 807.517C477.664 809.172 475.963 810.827 474.128 811.006C472.248 811.185 470.144 809.664 470.279 808.098C470.502 805.638 472.338 803.714 474.441 803.759H474.486Z" fill="black"/>
<path d="M642.432 670.672C642.88 673.043 641.448 674.922 639.657 675.011C638.404 675.056 637.061 673.893 636.837 672.596C636.524 670.627 637.956 668.569 639.657 668.927C640.776 669.151 641.716 670.225 642.388 670.672H642.432Z" fill="black"/>
<path d="M294.723 901.058C294.23 900.387 293.067 899.447 292.888 898.374C292.574 896.584 294.678 894.84 296.334 895.108C297.632 895.287 298.886 896.674 298.841 897.837C298.751 899.582 296.871 901.371 294.723 901.058Z" fill="black"/>
<path d="M625.736 509.402C625.826 511.281 624.572 512.981 622.782 513.339C621.126 513.652 618.932 511.728 619.201 510.252C619.425 508.776 621.26 507.165 623.051 506.986C624.349 506.852 625.692 508.015 625.736 509.402Z" fill="black"/>
<path d="M446.107 535.572C446.734 536.288 447.942 537.138 448.345 538.256C448.882 539.643 446.6 542.148 445.122 541.656C444.003 541.298 442.75 540.135 442.347 539.016C441.765 537.495 443.869 535.482 446.062 535.527L446.107 535.572Z" fill="black"/>
<path d="M462.982 855.025C462.982 856.457 460.879 858.694 459.581 858.738C458.282 858.738 456.134 856.412 456.179 855.025C456.223 853.639 458.372 851.312 459.625 851.268C460.879 851.268 463.027 853.594 462.982 854.981V855.025Z" fill="black"/>
<path d="M659.71 599.32C659.173 600.527 658.994 601.646 658.412 602.048C656.309 603.346 653.802 602.183 652.996 599.767C652.862 599.364 652.862 598.604 652.996 598.559C654.205 598.022 655.503 597.217 656.667 597.351C657.741 597.485 658.726 598.649 659.666 599.364L659.71 599.32Z" fill="black"/>
<path d="M371.847 734.509C371.221 735.001 370.325 736.209 369.251 736.522C367.461 736.969 365.312 734.42 366.252 733.077C366.924 732.138 368.356 731.467 369.564 731.199C370.997 730.885 372.161 732.406 371.892 734.509H371.847Z" fill="black"/>
<path d="M493.018 495.713C492.301 496.25 491.63 497.145 490.824 497.234C489.571 497.368 488.183 495.31 488.72 494.103C489.034 493.387 490.108 492.671 490.869 492.626C492.346 492.537 493.331 494.192 492.973 495.758L493.018 495.713Z" fill="black"/>
<path d="M478.022 510.207C476.142 510.968 474.979 511.728 473.86 511.773C472.696 511.773 471.89 509.67 472.606 508.462C472.964 507.836 474.262 507.12 474.71 507.344C475.784 507.881 476.545 508.91 478.022 510.252V510.207Z" fill="black"/>
<path d="M551.118 555.703C550.402 556.016 549.328 556.866 548.209 556.911C547.179 556.955 546.418 554.763 546.866 553.556C547.314 552.392 548.836 552.035 550.357 552.75C551.387 553.242 551.7 554.003 551.118 555.658V555.703Z" fill="black"/>
<path d="M730.031 555.658C729.405 556.15 728.867 556.866 728.196 557.09C726.808 557.448 726.092 556.15 726.629 554.585C727.032 553.511 727.793 553.019 728.733 553.69C729.36 554.092 729.628 555.032 730.031 555.703V555.658Z" fill="black"/>
<path d="M418.31 568.81C417.773 569.929 417.46 571.405 415.669 570.868C414.371 570.465 413.252 569.794 413.521 568.184C413.834 566.395 415.58 565.723 417.46 566.618C418.444 567.066 418.758 567.781 418.31 568.81Z" fill="black"/>
<path d="M489.347 520.809C490.153 521.212 491.182 521.436 491.675 522.062C492.301 522.957 490.869 525.059 489.616 524.97C488.855 524.925 487.87 524.299 487.467 523.628C486.706 522.375 487.736 520.944 489.392 520.809H489.347Z" fill="black"/>
<path d="M535.676 534.901C536.302 535.438 537.6 536.064 538.003 537.048C538.719 538.793 537.332 540.493 535.362 540.806C534.288 540.985 532.453 539.822 532.229 538.838C531.871 537.048 533.079 535.393 535.676 534.856V534.901Z" fill="black"/>
<path d="M414.819 868.491C414.147 868.938 413.521 869.788 412.804 869.833C411.283 869.922 410.343 868.133 411.327 867.014C411.864 866.433 413.118 865.896 413.744 866.164C414.326 866.433 414.461 867.685 414.819 868.535V868.491Z" fill="black"/>
<path d="M520.322 882.269C519.919 883.029 519.696 884.103 519.069 884.416C517.95 885.042 516.025 883.745 516.115 882.492C516.159 881.732 516.786 880.748 517.413 880.3C518.577 879.54 520.009 880.613 520.278 882.269H520.322Z" fill="black"/>
<path d="M622.693 902.221C621.35 901.818 620.41 901.147 620.365 899.537C620.365 897.568 621.976 896.002 623.812 896.405C625.199 896.718 626.05 897.568 626.139 899.089C626.273 900.968 624.617 902.489 622.693 902.221Z" fill="black"/>
<path d="M667.768 854.354C666.514 854.041 665.664 852.296 666.335 850.999C666.693 850.328 667.589 849.612 668.305 849.523C669.648 849.299 670.99 850.865 670.901 852.162C670.856 853.37 668.976 854.667 667.768 854.354Z" fill="black"/>
<path d="M493.555 852.207C492.794 852.878 491.988 853.907 490.959 854.399C490.6 854.578 489.258 853.638 489.034 852.967C488.855 852.386 489.392 851.267 489.974 850.82C491.048 850.015 493.062 850.731 493.555 852.207Z" fill="black"/>
<path d="M741.356 930.717C740.595 930.359 739.521 930.18 739.118 929.598C738.357 928.435 740.371 926.109 741.938 926.422C742.609 926.556 743.325 927.451 743.594 928.122C744.042 929.285 742.788 930.583 741.311 930.717H741.356Z" fill="black"/>
<path d="M505.596 627.503C504.924 628.666 504.656 629.65 504.029 630.142C502.955 630.992 501.388 629.963 501.254 628.218C501.209 627.458 501.925 626.653 502.283 625.892C503.402 626.429 504.477 626.921 505.596 627.458V627.503Z" fill="black"/>
<path d="M657.159 659.801C656.532 661.635 655.906 662.664 654.249 662.62C652.593 662.62 651.206 660.383 651.698 658.817C652.011 657.878 654.115 656.804 655.01 657.386C655.95 658.012 656.577 659.13 657.114 659.801H657.159Z" fill="black"/>
<path d="M622.648 690.355C622.245 689.729 621.484 689.103 621.439 688.477C621.394 687.09 622.961 686.24 624.08 687.09C624.617 687.492 625.02 688.745 624.752 689.237C624.438 689.819 623.364 689.998 622.648 690.355Z" fill="black"/>
<path d="M249.648 705.386C248.215 705.073 247.41 703.686 247.947 702.479C248.529 701.226 250.185 700.421 251.125 701.181C251.707 701.673 252.199 702.613 252.289 703.373C252.468 704.805 251.08 705.7 249.648 705.386Z" fill="black"/>
<path d="M622.961 571.315C621.484 571.181 620.41 569.526 621.171 568.318C621.618 567.692 622.603 567.11 623.409 567.065C624.796 567.021 626.05 569.034 625.289 570.018C624.796 570.644 623.767 570.868 622.961 571.27V571.315Z" fill="black"/>
<path d="M700.757 581.739C701.473 581.739 702.458 582.32 702.906 582.946C703.756 584.199 702.771 585.72 701.07 585.631C700.22 585.586 699.19 585.183 698.564 584.602C697.848 583.931 699.325 581.739 700.757 581.694V581.739Z" fill="black"/>
<path d="M757.694 585.362C756.262 585.004 755.187 583.528 755.859 582.544C756.262 581.918 757.246 581.381 758.007 581.336C759.171 581.247 760.201 582.902 759.664 584.154C759.395 584.736 758.41 585.004 757.739 585.362H757.694Z" fill="black"/>
<path d="M490.645 611.443C491.54 612.114 492.659 612.651 493.286 613.59C493.51 613.903 492.704 615.156 492.167 615.827C491.451 616.677 490.466 616.632 489.795 615.737C489.258 615.066 488.631 614.172 488.676 613.411C488.72 612.83 489.75 612.293 490.69 611.443H490.645Z" fill="black"/>
<path d="M606.534 760.231C607.16 760.813 608.234 761.529 608.861 762.513C609.622 763.721 608.458 764.929 606.623 765.152C605.012 765.331 603.893 764.66 603.579 763.184C603.266 761.842 604.251 760.679 606.578 760.231H606.534Z" fill="black"/>
<path d="M132.909 791.815C132.327 792.978 132.148 794.051 131.521 794.365C130.178 795.125 129.015 794.588 128.433 793.112C128.03 792.083 128.433 791.054 129.462 791.009C130.537 790.965 131.656 791.502 132.864 791.815H132.909Z" fill="black"/>
<path d="M312.225 793.738C311.106 794.275 310.076 794.946 308.912 795.259C308.733 795.304 307.838 793.828 307.793 793.022C307.704 791.635 309.226 790.651 310.613 791.322C311.24 791.591 311.508 792.62 312.18 793.738H312.225Z" fill="black"/>
<path d="M458.417 494.774C458.954 494.237 459.67 493.208 459.983 493.297C460.7 493.521 461.371 494.237 461.729 494.953C462.221 495.847 461.729 496.697 460.7 497.1C459.625 497.503 458.864 497.1 458.551 496.071C458.417 495.668 458.462 495.221 458.417 494.774Z" fill="black"/>
<path d="M432.365 673.669C431.963 674.43 431.783 675.414 431.157 675.861C430.396 676.443 428.65 675.101 428.516 673.759C428.471 673.177 429.143 672.193 429.724 672.014C431.157 671.477 432.276 672.282 432.365 673.669Z" fill="black"/>
<path d="M358.24 717.331C358.016 718.896 356.852 719.567 355.375 718.896C355.017 718.717 354.614 718.36 354.525 718.002C354.256 716.839 356.046 714.915 357.031 715.362C357.613 715.631 357.882 716.66 358.285 717.331H358.24Z" fill="black"/>
<path d="M445.973 598.872C445.525 598.872 444.899 599.006 444.809 598.872C444.451 598.156 443.959 597.306 443.959 596.546C444.048 595.025 445.301 594.175 446.6 594.667C447.271 594.891 447.808 595.607 448.211 596.233C448.39 596.501 448.211 597.172 447.942 597.441C447.361 598.022 446.6 598.47 446.018 598.917L445.973 598.872Z" fill="black"/>
<path d="M161.78 819.819C162.541 820.177 163.571 820.311 164.018 820.892C164.556 821.608 163.168 823.353 161.736 823.577C161.154 823.666 160.079 822.995 159.856 822.458C159.274 821.116 160.214 820.043 161.78 819.819Z" fill="black"/>
<path d="M356.136 806.175C356.897 806.443 358.15 806.622 358.285 807.069C358.464 807.74 357.792 808.59 357.524 809.396C356.807 809.038 355.867 808.814 355.42 808.232C354.704 807.382 355.106 806.532 356.181 806.13L356.136 806.175Z" fill="black"/>
<path d="M536.66 809.932C535.899 811.051 533.572 811.051 532.99 809.888C532.811 809.53 532.856 808.903 532.99 808.501C533.572 807.159 535.452 807.159 536.481 808.546C536.705 808.859 536.615 809.44 536.615 809.932H536.66Z" fill="black"/>
<path d="M611.994 913.405C611.457 913.941 611.01 914.747 610.383 914.925C609.309 915.194 607.966 913.404 608.19 912.241C608.413 911.123 610.249 910.318 611.189 911.123C611.726 911.57 611.771 912.599 612.039 913.36L611.994 913.405Z" fill="black"/>
<path d="M580.303 853.549C579.99 854.667 579.318 855.16 578.334 854.891C576.901 854.533 576.006 852.699 576.991 851.894C577.573 851.357 578.692 851.089 579.497 851.268C580.616 851.491 580.84 852.52 580.348 853.549H580.303Z" fill="black"/>
<path d="M668.618 732.272L669.782 732.854L668.529 733.212L668.618 732.272Z" fill="black"/>
<path d="M563.741 838.742C563.383 838.607 562.801 838.607 562.667 838.339C562.264 837.579 562.756 837.131 563.92 837.265C564.278 837.31 564.547 837.802 564.815 838.071C564.457 838.294 564.099 838.518 563.741 838.742Z" fill="black"/>
<path d="M399.6 820.803C400.092 821.384 400.987 821.921 400.943 822.413C400.898 823.039 400.092 823.621 399.644 824.203C399.286 823.889 398.66 823.532 398.704 823.308C398.839 822.503 399.286 821.742 399.6 820.848V820.803Z" fill="black"/>
<path d="M491.272 820.4C491.406 820.758 491.719 821.206 491.63 821.474C491.182 822.637 490.466 822.727 489.839 821.698C489.705 821.429 489.884 820.803 490.153 820.535C490.377 820.311 490.869 820.445 491.272 820.4Z" fill="black"/>
<path d="M551.521 852.252C551.118 852.744 550.671 853.236 550.223 853.683C549.731 853.147 549.194 852.654 548.746 852.118C548.746 852.118 549.238 851.402 549.597 851.268C550.626 850.91 551.253 851.268 551.477 852.207L551.521 852.252Z" fill="black"/>
<path d="M430.933 763.9C430.127 764.258 429.322 764.616 428.471 764.839C428.292 764.839 427.71 764.124 427.755 763.766C427.755 763.408 428.426 762.737 428.605 762.782C429.411 763.05 430.172 763.497 430.978 763.9H430.933Z" fill="black"/>
<path d="M415.043 927.943C414.774 928.257 414.595 928.749 414.237 928.883C413.297 929.241 412.581 927.585 413.207 926.288C413.342 926.02 413.923 925.662 414.147 925.751C415.177 926.109 415.445 926.914 415.043 927.899V927.943Z" fill="black"/>
<path d="M682.584 927.496C682.27 927.585 681.957 927.675 681.599 927.764C681.509 927.362 681.375 926.959 681.286 926.556C681.644 926.467 681.957 926.378 682.315 926.288C682.405 926.691 682.494 927.049 682.584 927.451V927.496Z" fill="black"/>
<path d="M490.242 883.074C490.242 883.343 490.242 883.79 490.108 883.879C489.795 884.058 489.347 884.193 489.034 884.103C488.72 884.014 488.452 883.611 488.183 883.343C488.855 883.253 489.571 883.164 490.242 883.074Z" fill="black"/>
<path d="M340.604 913.047C340.29 913.27 339.932 913.539 339.619 913.762C339.261 913.091 338.903 912.465 338.545 911.794C338.903 911.615 339.306 911.257 339.619 911.257C340.738 911.347 341.051 912.018 340.604 913.047Z" fill="black"/>
<path d="M400.719 913.762C400.45 914.076 400.226 914.568 399.913 914.702C398.928 915.06 398.212 913.405 398.884 912.107C399.018 911.839 399.6 911.481 399.824 911.57C400.853 911.928 401.122 912.734 400.719 913.762Z" fill="black"/>
<path d="M638.717 912.913C638.493 912.51 638.091 912.018 638.18 911.66C638.449 910.407 639.254 910.139 640.329 910.855C640.687 911.123 640.866 911.571 641.179 911.973C640.373 912.286 639.568 912.599 638.762 912.957L638.717 912.913Z" fill="black"/>
<path d="M250.051 643.697C250.409 643.518 250.811 643.16 251.17 643.16C251.483 643.16 252.02 643.607 252.02 643.876C252.065 645.128 251.393 645.486 250.319 644.77C250.095 644.636 250.14 644.099 250.051 643.741V643.697Z" fill="black"/>
<path d="M219.747 641.684C220.284 642.131 221.269 642.623 221.224 642.936C221.134 643.652 220.508 644.323 220.105 644.994C219.747 644.681 219.165 644.368 219.165 644.099C219.21 643.339 219.523 642.578 219.792 641.684H219.747Z" fill="black"/>
<path d="M220.105 703.642C220.015 703.239 219.836 702.792 219.836 702.389C219.836 702.255 220.418 702.165 220.732 702.031C220.821 702.434 221.045 702.881 221 703.284C221 703.418 220.418 703.508 220.105 703.642Z" fill="black"/>
<path d="M386.261 687.582C385.903 688.298 385.589 689.013 385.231 689.729C384.963 689.416 384.56 689.148 384.381 688.79C383.933 687.806 384.291 687.045 385.321 686.777C385.545 686.732 385.947 687.313 386.261 687.582Z" fill="black"/>
<path d="M445.078 715.049C446.107 715.541 446.421 716.346 445.883 717.331C445.704 717.688 445.167 717.867 444.809 718.091C444.496 717.286 444.138 716.525 443.959 715.72C443.959 715.586 444.675 715.273 445.078 715.049Z" fill="black"/>
<path d="M294.275 688.879L294.007 687.716L294.902 687.94L294.275 688.879Z" fill="black"/>
<path d="M325.832 777.589L326.19 778.484L325.295 778.394L325.832 777.589Z" fill="black"/>
<path d="M368.58 703.329C368.938 703.642 369.251 703.955 369.609 704.268C369.251 704.581 368.893 705.163 368.58 705.163C368.266 705.163 367.908 704.581 367.595 704.223C367.953 703.91 368.266 703.597 368.58 703.329Z" fill="black"/>
<path d="M683.792 897.792L684.598 897.524L684.509 898.239L683.792 897.792Z" fill="black"/>
<path d="M234.16 897.523L234.921 897.3L234.787 898.06L234.16 897.523Z" fill="black"/>
<path d="M446.331 897.479C446.197 897.747 446.018 898.016 445.883 898.24C445.481 897.971 445.078 897.658 444.675 897.39C444.943 897.121 445.257 896.674 445.525 896.674C445.794 896.674 446.062 897.166 446.331 897.479Z" fill="black"/>
<path d="M221.224 852.475C220.866 852.789 220.553 853.057 220.239 853.37C219.971 853.012 219.433 852.654 219.478 852.341C219.478 852.028 220.06 851.76 220.418 851.447C220.687 851.804 221 852.118 221.269 852.475H221.224Z" fill="black"/>
<path d="M519.517 791.412C519.785 791.725 520.277 792.083 520.277 792.396C520.277 792.709 519.561 793.291 519.427 793.201C518.263 792.575 518.308 791.949 519.517 791.412Z" fill="black"/>
<path d="M534.467 507.926C534.288 508.194 534.154 508.507 533.975 508.776C533.572 508.463 533.124 508.149 532.721 507.836C533.035 507.568 533.348 507.299 533.661 507.031C533.93 507.344 534.199 507.657 534.467 507.97V507.926Z" fill="black"/>
<path d="M579.274 732.406L579.453 733.167L578.826 733.033L579.274 732.406Z" fill="black"/>
<path d="M339.887 613.635L339.574 612.606L340.469 612.74L339.887 613.635Z" fill="black"/>
</g>
</g>
<defs>
<clipPath id="clip0_259_3776">
<rect width="930" height="930" fill="white"/>
</clipPath>
<clipPath id="clip1_259_3776">
<rect width="847" height="356" fill="white" transform="translate(41 48)"/>
</clipPath>
<clipPath id="clip2_259_3776">
<rect width="1345.94" height="1611" fill="white" transform="translate(-105 -45)"/>
</clipPath>
</defs>
</svg>
