<svg id="Layer_1" data-name="Layer 1" xmlns="http://www.w3.org/2000/svg" viewBox="0 0 100 100"><title>cap</title><path d="M93.2,39.3a2.8,2.8,0,0,0,.3-1.3,3.3,3.3,0,0,0-1.8-2.9L51.9,19.6a4.2,4.2,0,0,0-3.8-.1L8.3,35.1A3.3,3.3,0,0,0,6.5,38a3.1,3.1,0,0,0,1.8,2.8.1.1,0,0,0,.1.1l16.2,5.4V71.2a.6.6,0,0,0,.1.4c1.3,4,16.8,5.1,25.2,5.1s23.9-1.1,25.3-5.1V46.3l14-4.7A20.2,20.2,0,0,1,93.2,39.3Z" fill="#f7b07c"/><path d="M92.6,35.2,52,19.6a4.5,4.5,0,0,0-3.9-.1L7.3,35.2a3.2,3.2,0,0,0,0,5.8h.1L24,46.5v25c0,.2,0,.3.1.4C25.6,76,41.4,77.1,50,77.1S74.4,76,75.8,71.9c.1-.1.1-.2.1-.4v-25l16.2-5.3V80A.9.9,0,1,0,94,80V39.8a3.4,3.4,0,0,0,.5-1.7A3.3,3.3,0,0,0,92.6,35.2ZM50,75.3c-15.3,0-23.8-2.5-24.1-3.9s8.8-3.8,24.1-3.8,23.8,2.5,24.1,3.8S65.3,75.3,50,75.3Zm24.2-6.1c-4.6-2.7-17-3.4-24.2-3.4s-19.6.7-24.2,3.4V47.1l22.3,7.2a3.9,3.9,0,0,0,3.8,0l22.3-7.2ZM91.9,39.3,51.3,52.6h-.1a2.6,2.6,0,0,1-2.4,0h-.1L8.1,39.3a1.3,1.3,0,0,1-.8-1.2,1.2,1.2,0,0,1,.8-1.2L48.8,21.2h0a2.5,2.5,0,0,1,2.4,0L91.9,36.8a1.4,1.4,0,0,1,.8,1.3A1.3,1.3,0,0,1,91.9,39.3Z" fill="#171d2f"/></svg>