<svg id="Layer_1" data-name="Layer 1" xmlns="http://www.w3.org/2000/svg" viewBox="0 0 100 100"><title>code</title><path d="M89,11.2V88H11.2V11.2H89Z" fill="#f7b07c"/><path d="M35.8,37.9,18.9,49.7,35.8,61.6a.5.5,0,0,1,.2.4v1.5c0,.2-.1.3-.3.4h-.5l-18.5-13c-.2-.1-.2-.2-.2-.4V49c0-.2,0-.3.2-.4l18.4-13a.6.6,0,0,1,.6,0,.5.5,0,0,1,.3.5v1.3A.8.8,0,0,1,35.8,37.9Z" fill="#171d2f"/><path d="M59.5,27.7h0L42.7,72.6a.9.9,0,0,1-.5.3H41a.5.5,0,0,1-.4-.2.6.6,0,0,1-.1-.4L57.3,27.4a.5.5,0,0,1,.5-.3H59a.5.5,0,0,1,.4.2A.6.6,0,0,1,59.5,27.7Z" fill="#171d2f"/><path d="M83.6,49v1.5c0,.2-.1.3-.3.4l-18.5,13h-.5c-.2-.2-.3-.3-.3-.5V62a.5.5,0,0,1,.3-.4L81.1,49.7,64.2,37.9a.8.8,0,0,1-.2-.4V36.1a.5.5,0,0,1,.3-.5c.2-.1.5-.1.6.1L83.3,48.6C83.5,48.7,83.6,48.8,83.6,49Z" fill="#171d2f"/><path d="M87.5,89.8h-75a2.3,2.3,0,0,1-2.3-2.3v-75a2.3,2.3,0,0,1,2.3-2.3h75a2.3,2.3,0,0,1,2.3,2.3v75A2.3,2.3,0,0,1,87.5,89.8Zm-75-77.7a.4.4,0,0,0-.4.4v75a.4.4,0,0,0,.4.4h75a.4.4,0,0,0,.4-.4v-75a.4.4,0,0,0-.4-.4Z" fill="#171d2f"/></svg>