<svg id="Layer_1" data-name="Layer 1" xmlns="http://www.w3.org/2000/svg" viewBox="0 0 100 100"><title>list</title><path d="M21.8,20.7V33a.9.9,0,0,1-1,1H8.5a.9.9,0,0,1-1-1V20.7a.9.9,0,0,1,1-1H20.8A.9.9,0,0,1,21.8,20.7Z" fill="#d19fdd"/><path d="M92.7,20.7V33a1,1,0,0,1-1,1H28.3a1,1,0,0,1-1.1-1V20.7a1,1,0,0,1,1.1-1H91.7A1,1,0,0,1,92.7,20.7Z" fill="#d19fdd"/><path d="M93,43.5V56a1,1,0,0,1-1,1H28.3a1,1,0,0,1-1.1-1V43.5a1,1,0,0,1,1.1-.9H92A1,1,0,0,1,93,43.5Z" fill="#d19fdd"/><path d="M92.7,66.5V80a1.1,1.1,0,0,1-1,1H28.3a1.1,1.1,0,0,1-1.1-1V66.5a1.1,1.1,0,0,1,1.1-1.1H91.7A1.1,1.1,0,0,1,92.7,66.5Z" fill="#d19fdd"/><path d="M22,43.5V56a.9.9,0,0,1-1,1H8.5a.9.9,0,0,1-1-1V43.5a.9.9,0,0,1,1-.9H21A.9.9,0,0,1,22,43.5Z" fill="#d19fdd"/><path d="M22,66.9V79.1a.9.9,0,0,1-1,.9H8.5a.9.9,0,0,1-1-.9V66.9a.9.9,0,0,1,1-.9H21A.9.9,0,0,1,22,66.9Z" fill="#d19fdd"/><path d="M20.6,20.5V32.8H8.3V20.5H20.6m.8-1.8H7.6a1.1,1.1,0,0,0-1.1,1.1V33.6a1.1,1.1,0,0,0,1.1,1H21.4a1.1,1.1,0,0,0,1-1V19.8a1.1,1.1,0,0,0-1-1.1Z" fill="#171d2f"/><path d="M91.7,20.5V32.8H28.5V20.5H91.7m.7-1.8H27.7a1,1,0,0,0-1,1.1V33.6a1,1,0,0,0,1,1H92.4a1.1,1.1,0,0,0,1.1-1V19.8a1.1,1.1,0,0,0-1.1-1.1Z" fill="#171d2f"/><path d="M91.7,43.8V56.2H28.5V43.8H91.7m.7-1.8H27.7a1,1,0,0,0-1,1.1V56.9a1,1,0,0,0,1,1.1H92.4a1.1,1.1,0,0,0,1.1-1.1V43.1A1.1,1.1,0,0,0,92.4,42Z" fill="#171d2f"/><path d="M91.7,67.2V79.5H28.5V67.2H91.7m.7-1.8H27.7a1,1,0,0,0-1,1V80.2a1,1,0,0,0,1,1.1H92.4a1.1,1.1,0,0,0,1.1-1.1V66.4a1.1,1.1,0,0,0-1.1-1Z" fill="#171d2f"/><path d="M20.6,43.8V56.2H8.3V43.8H20.6m.8-1.8H7.6a1.1,1.1,0,0,0-1.1,1.1V56.9A1.1,1.1,0,0,0,7.6,58H21.4a1.1,1.1,0,0,0,1-1.1V43.1a1.1,1.1,0,0,0-1-1.1Z" fill="#171d2f"/><path d="M20.6,67.2V79.5H8.3V67.2H20.6m.8-1.8H7.6a1.1,1.1,0,0,0-1.1,1V80.2a1.1,1.1,0,0,0,1.1,1.1H21.4a1.1,1.1,0,0,0,1-1.1V66.4a1.1,1.1,0,0,0-1-1Z" fill="#171d2f"/></svg>