<svg id="Layer_1" data-name="Layer 1" xmlns="http://www.w3.org/2000/svg" viewBox="0 0 100 100"><title>navigate</title><circle cx="49.8" cy="50.3" r="35.2" fill="#c4b8db"/><path d="M50,13.8A36.2,36.2,0,1,0,86.2,50,36.3,36.3,0,0,0,50,13.8Zm0,70.6A34.4,34.4,0,1,1,84.4,50,34.4,34.4,0,0,1,50,84.4Z" fill="#171d2f"/><path d="M68.3,31.7a2.7,2.7,0,0,0-3.3-.4l-19.8,11A2.3,2.3,0,0,0,44.1,44H44a2.3,2.3,0,0,0-1.7,1.1L31.3,65A2.7,2.7,0,0,0,35,68.7l19.8-11A2.3,2.3,0,0,0,55.9,56H56a2.3,2.3,0,0,0,1.7-1.1L68.7,35A2.7,2.7,0,0,0,68.3,31.7ZM54.2,55.8c-.1,0-.1.2-.3.3l-19.8,11a.9.9,0,0,1-1.2-1.2L43.8,46.1c.2-.2.4-.2.4-.3h.1l.4.2L54,55.3A.6.6,0,0,1,54.2,55.8ZM67.1,34.1l-11,19.8c-.1.2-.3.2-.3.3a.6.6,0,0,1-.5-.2L46,44.7a.6.6,0,0,1-.2-.5l.3-.4L65.9,32.9a.9.9,0,0,1,1.2,1.2Z" fill="#171d2f"/></svg>