<svg id="Layer_1" data-name="Layer 1" xmlns="http://www.w3.org/2000/svg" viewBox="0 0 100 100"><title>people</title><path d="M94.9,72.8c0,.5-1.4.9-1.9.9H51.7a23.2,23.2,0,0,1,1.5,8.4.9.9,0,0,1-.8.9H5.9a.9.9,0,0,1-.9-.9c0-11.4,9-20,19.7-22.4-4.9-2.1-9.4-8-9.4-13.7a13.8,13.8,0,1,1,27.6,0c0,5.7-4.4,11.6-9.4,13.7,2.8.6,7.4,1.7,9.7,3.2A30,30,0,0,1,63.1,46.4a15.4,15.4,0,0,1-9.6-14.2c0-8.5,4.9-15.4,13.4-15.4a15.4,15.4,0,0,1,5.8,29.6C84.8,49.1,94.9,59.9,94.9,72.8Z" fill="#f7b07c"/><path d="M73.9,46.4a15.9,15.9,0,1,0-11.8,0,27.9,27.9,0,0,0-19.6,16,25,25,0,0,0-7.9-3.3,14.2,14.2,0,1,0-11.2,0A24.8,24.8,0,0,0,4.1,83.3a.9.9,0,0,0,.9.9H53a.9.9,0,0,0,.9-.9,25.3,25.3,0,0,0-1.6-8.7H95a.9.9,0,0,0,.9-.9A27.9,27.9,0,0,0,73.9,46.4Zm-20-14.7A14.1,14.1,0,1,1,68,45.8,14.1,14.1,0,0,1,53.9,31.7ZM16.6,46A12.4,12.4,0,1,1,29,58.4,12.3,12.3,0,0,1,16.6,46ZM5.9,82.4a23.1,23.1,0,0,1,46.2,0Zm45.6-9.6A24.4,24.4,0,0,0,44,63.5a26.1,26.1,0,0,1,50.1,9.3Z" fill="#171d2f"/></svg>