<svg id="Layer_1" data-name="Layer 1" xmlns="http://www.w3.org/2000/svg" viewBox="0 0 100 100"><title>star</title><path d="M89.2,41.8l-19,18.7L74.7,87a.9.9,0,0,1-1.3.9L50,75.4,26.6,87.9a.9.9,0,0,1-1.3-.9l4.5-26.5-19-18.7a.9.9,0,0,1,.5-1.5l26.2-3.9,11.7-24a.9.9,0,0,1,1.6,0l11.7,24,26.2,3.9A.9.9,0,0,1,89.2,41.8Z" fill="#fbaecd"/><path d="M50.8,11.2h0M50,12.8,61.7,36.6a1.7,1.7,0,0,0,1.4.9l26.2,3.9-19,18.5a1.8,1.8,0,0,0-.5,1.6l4.5,26.1L50.8,75.2,50,75l-.8.2L25.7,87.6l4.5-26.1a1.8,1.8,0,0,0-.5-1.6l-19-18.5,26.2-3.9a1.7,1.7,0,0,0,1.4-.9L50,12.8m0-2.9a.9.9,0,0,0-.8.5L36.7,35.8l-28,4a1,1,0,0,0-.6,1.6L28.4,61.2,23.6,89a1,1,0,0,0,.9,1.1H25L50,76.8,75,90h.5a1,1,0,0,0,.9-1.1L71.6,61.2,91.9,41.4a1,1,0,0,0-.6-1.6l-28-4L50.8,10.4a.9.9,0,0,0-.8-.5Z" fill="#171d2f"/></svg>