<?xml version="1.0" encoding="utf-8"?>
<!-- Generator: Adobe Illustrator 22.0.1, SVG Export Plug-In . SVG Version: 6.00 Build 0)  -->
<svg version="1.1" id="Layer_1" xmlns="http://www.w3.org/2000/svg" xmlns:xlink="http://www.w3.org/1999/xlink" x="0px" y="0px"
	 viewBox="0 0 100 100" style="enable-background:new 0 0 100 100;" xml:space="preserve">
<style type="text/css">
	.st0{fill:#07C8E8;}
	.st1{fill:#FC7E56;}
	.st2{fill:#1E1E1E;}
	.st3{fill:#EA5397;}
	.st4{fill:#F9CC12;}
	.st5{fill:#F9CC12;stroke:#F9CC12;stroke-width:1.8;stroke-linecap:round;stroke-linejoin:round;stroke-miterlimit:10;}
	.st6{fill:none;stroke:#1E1E1E;stroke-width:1.8;stroke-linecap:round;stroke-linejoin:round;stroke-miterlimit:10;}
	.st7{fill:#F9CC12;stroke:#1E1E1E;stroke-width:1.8;stroke-linecap:round;stroke-linejoin:round;stroke-miterlimit:10;}
	.st8{fill:#FC7E56;stroke:#FC7E56;stroke-width:1.8;stroke-linecap:round;stroke-linejoin:round;stroke-miterlimit:10;}
	.st9{fill:#EA5397;stroke:#EA5397;stroke-width:1.8;stroke-linecap:round;stroke-linejoin:round;stroke-miterlimit:10;}
	.st10{fill:#07C8E8;stroke:#07C8E8;stroke-width:1.8;stroke-linecap:round;stroke-linejoin:round;stroke-miterlimit:10;}
	.st11{fill:#B7DB53;stroke:#B7DB53;stroke-width:1.9691;stroke-linecap:round;stroke-linejoin:round;stroke-miterlimit:10;}
	.st12{fill:none;stroke:#1E1E1E;stroke-width:1.9691;stroke-linecap:round;stroke-linejoin:round;stroke-miterlimit:10;}
	.st13{fill:#EA5397;stroke:#EA5397;stroke-width:1.7384;stroke-linecap:round;stroke-linejoin:round;stroke-miterlimit:10;}
	.st14{fill:none;stroke:#1E1E1E;stroke-width:1.7384;stroke-linecap:round;stroke-linejoin:round;stroke-miterlimit:10;}
	.st15{fill:#B7DB53;}
</style>
<g>
	<g>
		<path class="st15" d="M92.1,27.3v61.3c0,0.5-0.4,0.9-0.9,0.9H15.1c-0.5,0-0.9-0.4-0.9-0.9V27.3c0-0.5,0.4-0.9,0.9-0.9h76.1
			C91.7,26.4,92.1,26.8,92.1,27.3z"/>
	</g>
	<path class="st2" d="M84.9,20H60.2v-8.6c0-0.5-0.4-0.9-0.9-0.9H34.4c-0.5,0-0.9,0.4-0.9,0.9V20H8.8c-0.5,0-0.9,0.4-0.9,0.9v61.3
		c0,0.5,0.4,0.9,0.9,0.9h76.1c0.5,0,0.9-0.4,0.9-0.9V20.9C85.8,20.4,85.4,20,84.9,20z M35.3,12.3h23.1V20H35.3V12.3z M84,81.3H9.7
		V21.8H84V81.3z"/>
</g>
</svg>
