<?xml version="1.0" encoding="utf-8"?>
<!-- Generator: Adobe Illustrator 22.0.1, SVG Export Plug-In . SVG Version: 6.00 Build 0)  -->
<svg version="1.1" id="Layer_1" xmlns="http://www.w3.org/2000/svg" xmlns:xlink="http://www.w3.org/1999/xlink" x="0px" y="0px"
	 viewBox="0 0 100 100" style="enable-background:new 0 0 100 100;" xml:space="preserve">
<style type="text/css">
	.st0{fill:#FC7E56;}
	.st1{fill:#07C8E8;}
	.st2{fill:#1E1E1E;}
	.st3{fill:#EA5397;}
	.st4{fill:#F9CC12;}
	.st5{fill:#F9CC12;stroke:#F9CC12;stroke-width:1.8;stroke-linecap:round;stroke-linejoin:round;stroke-miterlimit:10;}
	.st6{fill:none;stroke:#1E1E1E;stroke-width:1.8;stroke-linecap:round;stroke-linejoin:round;stroke-miterlimit:10;}
	.st7{fill:#F9CC12;stroke:#1E1E1E;stroke-width:1.8;stroke-linecap:round;stroke-linejoin:round;stroke-miterlimit:10;}
	.st8{fill:#FC7E56;stroke:#FC7E56;stroke-width:1.8;stroke-linecap:round;stroke-linejoin:round;stroke-miterlimit:10;}
	.st9{fill:#EA5397;stroke:#EA5397;stroke-width:1.8;stroke-linecap:round;stroke-linejoin:round;stroke-miterlimit:10;}
	.st10{fill:#07C8E8;stroke:#07C8E8;stroke-width:1.8;stroke-linecap:round;stroke-linejoin:round;stroke-miterlimit:10;}
	.st11{fill:#B7DB53;stroke:#B7DB53;stroke-width:1.9691;stroke-linecap:round;stroke-linejoin:round;stroke-miterlimit:10;}
	.st12{fill:none;stroke:#1E1E1E;stroke-width:1.9691;stroke-linecap:round;stroke-linejoin:round;stroke-miterlimit:10;}
	.st13{fill:#EA5397;stroke:#EA5397;stroke-width:1.7384;stroke-linecap:round;stroke-linejoin:round;stroke-miterlimit:10;}
	.st14{fill:none;stroke:#1E1E1E;stroke-width:1.7384;stroke-linecap:round;stroke-linejoin:round;stroke-miterlimit:10;}
	.st15{fill:#B7DB53;}
</style>
<g>
	<path class="st0" d="M96.4,26.8V72c0,3.1-2.5,5.6-5.6,5.6h-28L66.1,89h11.5c0.5,0,0.9,0.4,0.9,0.9c0,0.5-0.4,0.9-0.9,0.9H34.4
		c-0.5,0-0.9-0.4-0.9-0.9c0-0.5,0.4-0.9,0.9-0.9h11.5l3.2-11.4h-28c-3.1,0-5.6-2.5-5.6-5.6V26.8c0-3.1,2.5-5.6,5.6-5.6h69.6
		C93.9,21.2,96.4,23.8,96.4,26.8z"/>
</g>
<g>
	<path class="st2" d="M84.8,15.2H15.2c-3.1,0-5.6,2.5-5.6,5.6V66c0,3.1,2.5,5.6,5.6,5.6h28L39.9,83H28.4c-0.5,0-0.9,0.4-0.9,0.9
		c0,0.5,0.4,0.9,0.9,0.9h43.3c0.5,0,0.9-0.4,0.9-0.9c0-0.5-0.4-0.9-0.9-0.9H60.1l-3.2-11.4h28c3.1,0,5.6-2.5,5.6-5.6V20.8
		C90.4,17.8,87.9,15.2,84.8,15.2z M58.2,83H41.8L45,71.6H55L58.2,83z M88.6,66c0,2.1-1.7,3.8-3.8,3.8H15.2c-2.1,0-3.8-1.7-3.8-3.8
		V20.8c0-2.1,1.7-3.8,3.8-3.8h69.6c2.1,0,3.8,1.7,3.8,3.8V66z"/>
</g>
<path class="st2" d="M68.6,47.7h-6.1c0-0.2,0-0.4,0-0.7c0-2.2-0.4-4.3-1.2-6.3l4.6-3.6c0.4-0.3,0.4-0.9,0.1-1.3
	c-0.3-0.4-0.9-0.5-1.3-0.1l-4.2,3.4c-0.8-1.4-1.7-2.6-2.8-3.7c0.1-0.5,0.2-1,0.2-1.5c0-4.3-3.5-7.9-7.9-7.9s-7.9,3.5-7.9,7.9
	c0,0.5,0.1,1,0.2,1.5c-1.3,1.2-2.3,2.6-3.1,4.3l-4.5-3.2c-0.4-0.3-1-0.2-1.3,0.2c-0.3,0.4-0.2,1,0.2,1.3l4.8,3.5
	c-0.6,1.8-1,3.7-1,5.6c0,0.2,0,0.4,0,0.7h-6.1c-0.5,0-0.9,0.4-0.9,0.9c0,0.5,0.4,0.9,0.9,0.9h6.2c0.3,2.2,1.1,4.3,2.1,6.1l-5.6,4.5
	c-0.4,0.3-0.4,0.9-0.1,1.3c0.2,0.2,0.4,0.3,0.7,0.3c0.2,0,0.4-0.1,0.6-0.2l5.5-4.4c2.3,2.9,5.6,4.8,9.2,4.8c3.8,0,7.3-2,9.6-5.3
	l5.8,4.2c0.2,0.1,0.3,0.2,0.5,0.2c0.3,0,0.5-0.1,0.7-0.4c0.3-0.4,0.2-1-0.2-1.3l-5.9-4.2c0.9-1.7,1.5-3.5,1.8-5.6h6.2
	c0.5,0,0.9-0.4,0.9-0.9C69.4,48.1,69,47.7,68.6,47.7z M43.9,34c0-3.3,2.7-6.1,6.1-6.1s6.1,2.7,6.1,6.1v0.2c-0.2-0.2-0.4-0.3-0.7-0.4
	c-0.3-0.1-0.5-0.3-0.8-0.4c-0.5-0.2-0.9-0.4-1.4-0.5c-0.2-0.1-0.5-0.1-0.7-0.2c0,0,0,0-0.1,0c-0.2-0.1-0.5-0.1-0.8-0.2
	c-0.3,0-0.5-0.1-0.8-0.1c-0.3,0-0.5,0-0.8,0s-0.5,0-0.8,0c-0.3,0-0.5,0-0.8,0.1c-0.3,0-0.5,0.1-0.8,0.2c0,0,0,0-0.1,0
	c-0.2,0.1-0.5,0.1-0.7,0.2c-0.5,0.1-0.9,0.3-1.4,0.5c-0.3,0.1-0.6,0.3-0.8,0.4c-0.2,0.1-0.5,0.3-0.7,0.4V34z M50,60.1
	c-5.9,0-10.7-5.8-10.7-13c0-4.2,1.7-8.2,4.6-10.6c1.8-1.5,3.9-2.4,6.1-2.4c1.4,0,2.7,0.3,4,0.9c0.5,0.2,1,0.5,1.4,0.9
	c0.2,0.1,0.3,0.2,0.4,0.4c0.1,0.1,0.2,0.1,0.2,0.2c2.9,2.4,4.6,6.4,4.6,10.6C60.7,54.3,55.9,60.1,50,60.1z"/>
<path class="st2" d="M55.4,33.7c0.2,0.1,0.5,0.3,0.7,0.4v0C55.8,34,55.6,33.8,55.4,33.7z M54,35c0.5,0.2,1,0.5,1.4,0.9
	C55,35.6,54.5,35.3,54,35z M43.9,34.1L43.9,34.1c0.2-0.1,0.4-0.3,0.7-0.4C44.4,33.8,44.2,34,43.9,34.1z"/>
</svg>
