<?xml version="1.0" encoding="utf-8"?>
<!-- Generator: Adobe Illustrator 22.0.1, SVG Export Plug-In . SVG Version: 6.00 Build 0)  -->
<svg version="1.1" id="Layer_1" xmlns="http://www.w3.org/2000/svg" xmlns:xlink="http://www.w3.org/1999/xlink" x="0px" y="0px"
	 viewBox="0 0 100 100" style="enable-background:new 0 0 100 100;" xml:space="preserve">
<style type="text/css">
	.st0{fill:#FC7E56;}
	.st1{fill:#07C8E8;}
	.st2{fill:#1E1E1E;}
	.st3{fill:#EA5397;}
	.st4{fill:#F9CC12;}
	.st5{fill:#F9CC12;stroke:#F9CC12;stroke-width:1.8;stroke-linecap:round;stroke-linejoin:round;stroke-miterlimit:10;}
	.st6{fill:none;stroke:#1E1E1E;stroke-width:1.8;stroke-linecap:round;stroke-linejoin:round;stroke-miterlimit:10;}
	.st7{fill:#F9CC12;stroke:#1E1E1E;stroke-width:1.8;stroke-linecap:round;stroke-linejoin:round;stroke-miterlimit:10;}
	.st8{fill:#FC7E56;stroke:#FC7E56;stroke-width:1.8;stroke-linecap:round;stroke-linejoin:round;stroke-miterlimit:10;}
	.st9{fill:#EA5397;stroke:#EA5397;stroke-width:1.8;stroke-linecap:round;stroke-linejoin:round;stroke-miterlimit:10;}
	.st10{fill:#07C8E8;stroke:#07C8E8;stroke-width:1.8;stroke-linecap:round;stroke-linejoin:round;stroke-miterlimit:10;}
	.st11{fill:#B7DB53;stroke:#B7DB53;stroke-width:1.9691;stroke-linecap:round;stroke-linejoin:round;stroke-miterlimit:10;}
	.st12{fill:none;stroke:#1E1E1E;stroke-width:1.9691;stroke-linecap:round;stroke-linejoin:round;stroke-miterlimit:10;}
	.st13{fill:#EA5397;stroke:#EA5397;stroke-width:1.7384;stroke-linecap:round;stroke-linejoin:round;stroke-miterlimit:10;}
	.st14{fill:none;stroke:#1E1E1E;stroke-width:1.7384;stroke-linecap:round;stroke-linejoin:round;stroke-miterlimit:10;}
	.st15{fill:#B7DB53;}
</style>
<g>
	<path class="st1" d="M97,41.6c0,0.6-0.2,1.2-0.5,1.7v40.2c0,0.5-0.4,0.9-0.9,0.9c-0.5,0-0.9-0.4-0.9-0.9V44.7L78.5,50v24.2l0,0.6
		V75c0,0.1,0,0.3-0.1,0.4c-1.4,4-17.2,5.1-25.8,5.1s-24.4-1.1-25.8-5.1c-0.1-0.1-0.1-0.3-0.1-0.4l0-0.8V50L9.9,44.5c0,0-0.1,0-0.1,0
		C8.7,43.9,8,42.8,8,41.6s0.7-2.3,1.8-2.9L50.6,23c1.2-0.6,2.7-0.6,3.9,0l40.6,15.6C96.3,39.3,97,40.4,97,41.6z"/>
	<path class="st2" d="M90.1,31.7L49.5,16.1c-1.2-0.6-2.7-0.6-3.9,0L4.8,31.7C3.7,32.3,3,33.4,3,34.6s0.7,2.3,1.8,2.9
		c0,0,0.1,0,0.1,0L21.5,43v24.2l0,0.8c0,0.1,0,0.3,0.1,0.4c1.4,4,17.2,5.1,25.8,5.1s24.4-1.1,25.8-5.1c0.1-0.1,0.1-0.3,0.1-0.4v-0.2
		l0-0.6V43l16.2-5.3v38.8c0,0.5,0.4,0.9,0.9,0.9c0.5,0,0.9-0.4,0.9-0.9V36.3c0.3-0.5,0.5-1.1,0.5-1.7C92,33.4,91.3,32.3,90.1,31.7z
		 M47.5,71.8c-15.3,0-23.8-2.5-24.1-3.8c0.4-1.4,8.8-3.8,24.1-3.8s23.8,2.5,24.1,3.8C71.2,69.3,62.8,71.8,47.5,71.8z M71.7,65.7
		c-4.6-2.7-16.9-3.4-24.2-3.4S27.9,63,23.3,65.7V43.6l22.3,7.3c0.6,0.3,1.2,0.4,1.9,0.4s1.3-0.1,1.9-0.4l22.3-7.3V65.7z M89.4,35.8
		L48.8,49.1c0,0-0.1,0-0.1,0.1c-0.7,0.4-1.6,0.4-2.3,0c0,0-0.1,0-0.1-0.1L5.6,35.8c-0.5-0.2-0.7-0.7-0.7-1.2c0-0.5,0.3-1,0.7-1.2
		l40.7-15.7c0,0,0.1,0,0.1,0c0.7-0.4,1.6-0.4,2.4,0l40.6,15.6c0.5,0.2,0.8,0.7,0.8,1.3C90.2,35.1,89.9,35.6,89.4,35.8z"/>
</g>
</svg>
