<?xml version="1.0" encoding="utf-8"?>
<!-- Generator: Adobe Illustrator 22.0.1, SVG Export Plug-In . SVG Version: 6.00 Build 0)  -->
<svg version="1.1" id="Layer_1" xmlns="http://www.w3.org/2000/svg" xmlns:xlink="http://www.w3.org/1999/xlink" x="0px" y="0px"
	 viewBox="0 0 100 100" style="enable-background:new 0 0 100 100;" xml:space="preserve">
<style type="text/css">
	.st0{fill:#FC7E56;}
	.st1{fill:#07C8E8;}
	.st2{fill:#1E1E1E;}
	.st3{fill:#EA5397;}
	.st4{fill:#F9CC12;}
	.st5{fill:#F9CC12;stroke:#F9CC12;stroke-width:1.8;stroke-linecap:round;stroke-linejoin:round;stroke-miterlimit:10;}
	.st6{fill:none;stroke:#1E1E1E;stroke-width:1.8;stroke-linecap:round;stroke-linejoin:round;stroke-miterlimit:10;}
	.st7{fill:#F9CC12;stroke:#1E1E1E;stroke-width:1.8;stroke-linecap:round;stroke-linejoin:round;stroke-miterlimit:10;}
	.st8{fill:#FC7E56;stroke:#FC7E56;stroke-width:1.8;stroke-linecap:round;stroke-linejoin:round;stroke-miterlimit:10;}
	.st9{fill:#EA5397;stroke:#EA5397;stroke-width:1.8;stroke-linecap:round;stroke-linejoin:round;stroke-miterlimit:10;}
	.st10{fill:#07C8E8;stroke:#07C8E8;stroke-width:1.8;stroke-linecap:round;stroke-linejoin:round;stroke-miterlimit:10;}
	.st11{fill:#B7DB53;stroke:#B7DB53;stroke-width:1.9691;stroke-linecap:round;stroke-linejoin:round;stroke-miterlimit:10;}
	.st12{fill:none;stroke:#1E1E1E;stroke-width:1.9691;stroke-linecap:round;stroke-linejoin:round;stroke-miterlimit:10;}
	.st13{fill:#EA5397;stroke:#EA5397;stroke-width:1.7384;stroke-linecap:round;stroke-linejoin:round;stroke-miterlimit:10;}
	.st14{fill:none;stroke:#1E1E1E;stroke-width:1.7384;stroke-linecap:round;stroke-linejoin:round;stroke-miterlimit:10;}
	.st15{fill:#B7DB53;}
	.st16{fill:none;stroke:#1E1E1E;stroke-width:1.88;stroke-miterlimit:10;}
</style>
<g>
	<g>
		<path class="st1" d="M91.8,14.6v74.9c0,1.3-1.1,2.4-2.4,2.4H14.6c-1.3,0-2.4-1.1-2.4-2.4V14.6c0-1.3,1.1-2.4,2.4-2.4h74.9
			C90.8,12.2,91.8,13.3,91.8,14.6z"/>
	</g>
	<g>
		<g>
			<g>
				<path class="st2" d="M32.8,34.9L15.9,46.8l16.9,11.9c0.1,0.1,0.2,0.2,0.2,0.4v1.5c0,0.2-0.1,0.3-0.3,0.4c-0.1,0-0.2,0.1-0.2,0.1
					c-0.1,0-0.2,0-0.3-0.1l-18.5-13c-0.1-0.1-0.2-0.2-0.2-0.4V46c0-0.2,0.1-0.3,0.2-0.4l18.4-12.9c0.2-0.1,0.4-0.1,0.6,0
					c0.2,0.1,0.3,0.3,0.3,0.5v1.3C33,34.6,32.9,34.8,32.8,34.9z"/>
			</g>
		</g>
		<g>
			<g>
				<path class="st2" d="M56.5,24.8L56.5,24.8L39.7,69.6c-0.1,0.2-0.2,0.3-0.4,0.3H38c-0.1,0-0.3-0.1-0.4-0.2
					c-0.1-0.1-0.1-0.3-0.1-0.4l16.8-44.8c0.1-0.2,0.2-0.3,0.4-0.3h1.3c0.1,0,0.3,0.1,0.4,0.2C56.5,24.5,56.5,24.6,56.5,24.8z"/>
			</g>
		</g>
		<g>
			<g>
				<path class="st2" d="M80.6,46v1.5c0,0.2-0.1,0.3-0.2,0.4l-18.5,13C61.7,61,61.6,61,61.5,61c-0.1,0-0.1,0-0.2,0
					c-0.2-0.1-0.3-0.3-0.3-0.4v-1.5c0-0.2,0.1-0.4,0.2-0.5l16.8-11.8L61.2,34.9c-0.1-0.1-0.2-0.2-0.2-0.4v-1.3
					c0-0.2,0.1-0.4,0.3-0.5c0.2-0.1,0.4-0.1,0.6,0l18.4,12.9C80.5,45.7,80.6,45.8,80.6,46z"/>
			</g>
		</g>
	</g>
	<path class="st16" d="M84.5,85.9H9.6c-0.8,0-1.4-0.6-1.4-1.4V9.6c0-0.8,0.6-1.4,1.4-1.4h74.9c0.8,0,1.4,0.6,1.4,1.4v74.9
		C85.9,85.3,85.3,85.9,84.5,85.9z"/>
</g>
</svg>
