<?xml version="1.0" encoding="utf-8"?>
<!-- Generator: Adobe Illustrator 22.0.1, SVG Export Plug-In . SVG Version: 6.00 Build 0)  -->
<svg version="1.1" id="Layer_1" xmlns="http://www.w3.org/2000/svg" xmlns:xlink="http://www.w3.org/1999/xlink" x="0px" y="0px"
	 viewBox="0 0 100 100" style="enable-background:new 0 0 100 100;" xml:space="preserve">
<style type="text/css">
	.st0{fill:#07C8E8;}
	.st1{fill:#FC7E56;}
	.st2{fill:#1E1E1E;}
	.st3{fill:#EA5397;}
	.st4{fill:#F9CC12;}
	.st5{fill:#F9CC12;stroke:#F9CC12;stroke-width:1.8;stroke-linecap:round;stroke-linejoin:round;stroke-miterlimit:10;}
	.st6{fill:none;stroke:#1E1E1E;stroke-width:1.8;stroke-linecap:round;stroke-linejoin:round;stroke-miterlimit:10;}
	.st7{fill:#F9CC12;stroke:#1E1E1E;stroke-width:1.8;stroke-linecap:round;stroke-linejoin:round;stroke-miterlimit:10;}
	.st8{fill:#FC7E56;stroke:#FC7E56;stroke-width:1.8;stroke-linecap:round;stroke-linejoin:round;stroke-miterlimit:10;}
	.st9{fill:#EA5397;stroke:#EA5397;stroke-width:1.8;stroke-linecap:round;stroke-linejoin:round;stroke-miterlimit:10;}
	.st10{fill:#07C8E8;stroke:#07C8E8;stroke-width:1.8;stroke-linecap:round;stroke-linejoin:round;stroke-miterlimit:10;}
	.st11{fill:#B7DB53;stroke:#B7DB53;stroke-width:1.9691;stroke-linecap:round;stroke-linejoin:round;stroke-miterlimit:10;}
	.st12{fill:none;stroke:#1E1E1E;stroke-width:1.9691;stroke-linecap:round;stroke-linejoin:round;stroke-miterlimit:10;}
	.st13{fill:#EA5397;stroke:#EA5397;stroke-width:1.7384;stroke-linecap:round;stroke-linejoin:round;stroke-miterlimit:10;}
	.st14{fill:none;stroke:#1E1E1E;stroke-width:1.7384;stroke-linecap:round;stroke-linejoin:round;stroke-miterlimit:10;}
	.st15{fill:#B7DB53;}
</style>
<g>
	<g>
		<g>
			<path class="st4" d="M97.5,36.4L78.2,55.7l4.5,5c0.1,0.1,0.2,0.2,0.2,0.4c1.9,2.3,1.7,5.7-0.4,7.8c-1.5,1.5-3.6,2-5.5,1.6
				c0.4,1.9-0.1,4-1.6,5.5c-1.1,1.2-2.7,1.7-4.2,1.7c-0.5,0-0.9-0.1-1.3-0.2c0.4,1.9-0.1,4-1.6,5.5c-1.5,1.4-3.5,2-5.5,1.6
				c0.4,1.9-0.1,4-1.6,5.5l-0.2,0.2c-1,1-2.5,1.6-4,1.6c0,0,0,0,0,0c-1.5,0-3-0.6-4-1.7l-5.9-5.9c-0.1,0.1-0.2,0.2-0.3,0.3
				c-2.4,2.4-6.3,2.4-8.7,0c-2.1-2.1-2.4-5.3-0.9-7.6c-2.4,1.5-5.6,1.2-7.6-0.8c-1.2-1.2-1.8-2.7-1.8-4.4c0-1.2,0.3-2.3,0.9-3.3
				c-1,0.6-2.1,1-3.3,1c-1.6,0-3.2-0.6-4.3-1.8c-1.2-1.2-1.8-2.7-1.8-4.3c0-1.7,0.6-3.2,1.8-4.4c0.1-0.1,0.2-0.2,0.3-0.3L5.1,42.3
				c-0.3-0.3-0.3-0.9,0-1.2l21.7-22.8c0.2-0.2,0.4-0.3,0.7-0.3c0.2,0,0.5,0.1,0.6,0.3c0.8,0.8,2.6,2.6,4.3,4.3
				c1.8,1.8,3.5,3.5,4.3,4.3c0.2,0.2,0.4,0.4,0.6,0.5c0.2,0.1,0.5,0,0.8,0c4.9-0.4,8.8,0.1,11.8,1.6l1.9-1.9
				c2.4-2.4,5.7-3.6,9.1-3.2l5.8,0.7l9.5-9.5c0.4-0.4,0.9-0.4,1.3,0l20,20c0.2,0.2,0.3,0.4,0.3,0.6S97.6,36.2,97.5,36.4z"/>
		</g>
	</g>
	<path class="st2" d="M27.9,58.4c-0.2,0.5-0.5,0.9-0.9,1.3c-0.1,0.1-0.1,0.1-0.2,0.2l-6.1-6.1c0-0.1,0.1-0.1,0.2-0.2
		c0.4-0.4,0.8-0.7,1.3-0.9L27.9,58.4z"/>
	<path class="st2" d="M29.3,59.8c-0.1,0-0.1,0.1-0.2,0.1C29.2,59.9,29.2,59.8,29.3,59.8L29.3,59.8z"/>
	<path class="st2" d="M36.4,66.9c-0.2,0.5-0.5,0.9-0.9,1.3c-0.1,0.1-0.1,0.1-0.2,0.2l-6.1-6.1c0-0.1,0.1-0.1,0.2-0.2
		c0.4-0.4,0.8-0.7,1.3-0.9L36.4,66.9z"/>
	<path class="st2" d="M37.8,68.3c-0.1,0-0.1,0.1-0.2,0.1C37.6,68.4,37.7,68.3,37.8,68.3L37.8,68.3z"/>
	<path class="st2" d="M44.9,75.4c-0.2,0.5-0.5,0.9-0.9,1.3c-0.1,0.1-0.1,0.1-0.2,0.2l-6.1-6.1c0.1-0.1,0.1-0.1,0.2-0.2
		c0.4-0.4,0.8-0.7,1.3-0.9L44.9,75.4z"/>
	<g>
		<path class="st4" d="M28.3,56.6c0,0.6-0.1,1.2-0.4,1.8c-0.2,0.5-0.5,0.9-0.9,1.3c-0.1,0.1-0.1,0.1-0.2,0.2C26,60.6,25,61,23.9,61
			c-1.2,0-2.3-0.5-3.1-1.3c-0.8-0.8-1.3-1.9-1.3-3.1c0-1.1,0.4-2.1,1.1-2.9c0-0.1,0.1-0.1,0.2-0.2c0.4-0.4,0.8-0.7,1.3-0.9
			c0.6-0.3,1.2-0.4,1.8-0.4c1.1,0,2.2,0.4,3.1,1.3C27.8,54.4,28.3,55.5,28.3,56.6z"/>
		<path class="st2" d="M27.9,61c-0.2,0.3-0.5,0.5-0.7,0.8c0.3-0.2,0.6-0.4,0.8-0.7L27.9,61z"/>
		<path class="st2" d="M94.9,28.4c-0.4-0.3-0.9-0.3-1.3,0L74,48L55.3,29.3c-0.3-0.3-0.9-0.4-1.2,0l-7.6,7.5c-0.8,0.8-1.5,1.8-2,2.9
			c-1,2.3-2.7,4-4.4,4.6c-1.2,0.4-3.5,0.2-4.1-0.8c-0.8-1.4,0-3.9,1.8-8.4c0.4-0.9,0.9-1.8,1.6-2.5l11-11c2-2,4.8-3,7.6-2.7l6.3,0.7
			c0.3,0,0.5-0.1,0.7-0.2l9.8-9.8c0.4-0.3,0.4-0.9,0-1.3c-0.3-0.3-0.9-0.3-1.3,0l-9.5,9.5l-5.8-0.7c-3.4-0.4-6.7,0.8-9.1,3.2
			l-1.9,1.9c-3.1-1.5-6.9-2-11.8-1.6c-0.3,0-0.6,0.1-0.8,0c-0.2-0.1-0.4-0.3-0.6-0.5c-1.6-1.6-7-7-8.6-8.6c-0.4-0.4-0.9-0.4-1.3,0
			c-0.3,0.3-0.3,0.9,0,1.3c1.6,1.6,7,7,8.6,8.6c0.3,0.3,0.7,0.7,1.2,0.9c0.6,0.2,1.2,0.2,1.7,0.1c4.2-0.4,7.6,0,10.3,1.2l-7.7,7.7
			c-0.9,0.9-1.6,2-2,3.1c-2,5.2-2.8,7.9-1.7,10c1.1,2,4.3,2.3,6.2,1.6c2.2-0.8,4.2-2.8,5.4-5.6c0.4-1,1-1.8,1.6-2.4l6.9-6.9l23.9,24
			c0.8,0.8,1.2,1.8,1.2,2.9c0,1.1-0.4,2.1-1.2,2.9c-1.6,1.6-4.2,1.6-5.8,0L57.5,45.6c-0.3-0.4-0.9-0.4-1.3,0c-0.4,0.4-0.4,0.9,0,1.3
			l15.3,15.3c1.6,1.6,1.6,4.2,0,5.8c-1.6,1.6-4.2,1.6-5.8,0L50.5,52.7c-0.3-0.4-0.9-0.4-1.3,0c-0.4,0.4-0.4,0.9,0,1.3l15.3,15.3
			c1.6,1.6,1.6,4.2,0,5.8c-0.8,0.8-1.8,1.2-2.9,1.2c-1.1,0-2.1-0.4-2.9-1.2L43.4,59.8c-0.4-0.4-0.9-0.4-1.3,0
			c-0.3,0.4-0.3,0.9,0,1.3l15.3,15.3c1.6,1.6,1.6,4.2,0,5.8l-0.1,0.1c-1.5,1.5-4,1.5-5.5,0l-5.6-5.6c0.6-0.9,0.9-2,0.9-3.1
			c0-1.6-0.6-3.2-1.8-4.3c-1.2-1.2-2.7-1.8-4.4-1.8c-1.1,0-2.2,0.3-3.1,0.9c-0.1,0-0.1,0.1-0.2,0.1c0,0,0.1-0.1,0.1-0.2
			c0.6-0.9,0.9-2,0.9-3.1c0-1.7-0.6-3.2-1.8-4.3c-2-2-5.1-2.3-7.5-0.9c-0.1,0-0.1,0.1-0.2,0.1c0-0.1,0.1-0.1,0.1-0.2
			c0.6-0.9,0.9-2,0.9-3.1c0-1.6-0.6-3.2-1.8-4.3c-2-2-5.1-2.3-7.5-0.9l-17-17c-0.3-0.4-0.9-0.4-1.3,0c-0.4,0.3-0.4,0.9,0,1.3
			l16.9,16.9c-1,1.1-1.6,2.6-1.6,4.1c0,1.6,0.6,3.2,1.8,4.3c1.2,1.2,2.7,1.8,4.4,1.8c1.2,0,2.3-0.3,3.3-1c0.2-0.3,0.4-0.6,0.7-0.8
			l0.2,0.2c-0.3,0.2-0.5,0.5-0.8,0.7c-0.6,1-1,2.1-1,3.3c0,1.6,0.6,3.2,1.8,4.3c1.2,1.2,2.7,1.8,4.3,1.8c1.2,0,2.3-0.3,3.3-1
			c0.2-0.3,0.4-0.6,0.7-0.8l0.2,0.2c-0.3,0.2-0.5,0.5-0.8,0.6c-0.6,1-1,2.1-1,3.3c0,1.6,0.6,3.2,1.8,4.3c1.2,1.2,2.8,1.8,4.3,1.8
			c1.5,0,3-0.5,4.1-1.6l5.4,5.4c1.1,1.1,2.6,1.7,4,1.7c1.5,0,2.9-0.6,4-1.7l0.1-0.1c1.5-1.5,2-3.6,1.6-5.5c0.4,0.1,0.9,0.2,1.3,0.2
			c1.6,0,3.1-0.6,4.2-1.7c1.5-1.5,2-3.6,1.6-5.5c0.4,0.1,0.9,0.2,1.3,0.2c1.5,0,3-0.6,4.2-1.7c1.5-1.5,2-3.6,1.6-5.5
			c0.4,0.1,0.9,0.1,1.3,0.1c1.6,0,3.1-0.6,4.2-1.7c1.1-1.1,1.7-2.6,1.7-4.2c0-1.6-0.6-3.1-1.7-4.2l-4.6-4.6l19.6-19.6
			C95.2,29.3,95.2,28.7,94.9,28.4z M27.9,58.4c-0.2,0.5-0.5,0.9-0.9,1.3c-0.1,0.1-0.1,0.1-0.2,0.2C26,60.6,25,61,23.9,61
			c-1.2,0-2.3-0.5-3.1-1.3c-0.8-0.8-1.3-1.9-1.3-3.1c0-1.1,0.4-2.1,1.1-2.9c0-0.1,0.1-0.1,0.2-0.2c0.4-0.4,0.8-0.7,1.3-0.9
			c0.6-0.3,1.2-0.4,1.8-0.4c1.1,0,2.2,0.4,3.1,1.3c0.8,0.8,1.3,1.9,1.3,3.1C28.3,57.3,28.2,57.9,27.9,58.4z M36.4,66.9
			c-0.2,0.5-0.5,0.9-0.9,1.3c-0.1,0.1-0.1,0.1-0.2,0.2c-0.8,0.7-1.8,1.1-2.9,1.1c-1.2,0-2.3-0.5-3.1-1.3c-0.8-0.8-1.3-1.9-1.3-3.1
			c0-1.1,0.4-2.1,1.1-2.9c0-0.1,0.1-0.1,0.2-0.2c0.4-0.4,0.8-0.7,1.3-0.9c0.6-0.3,1.2-0.4,1.8-0.4c1.1,0,2.2,0.4,3.1,1.3
			c0.8,0.8,1.3,1.9,1.3,3.1C36.8,65.7,36.6,66.4,36.4,66.9z M37.8,76.7c-0.8-0.8-1.3-1.9-1.3-3.1c0-1.1,0.4-2.1,1.1-2.9
			c0.1-0.1,0.1-0.1,0.2-0.2c0.4-0.4,0.8-0.7,1.3-0.9c0.5-0.3,1.2-0.4,1.8-0.4c1.2,0,2.2,0.5,3.1,1.3c0.8,0.8,1.3,1.9,1.3,3.1
			c0,0.6-0.1,1.2-0.4,1.8c-0.2,0.5-0.5,0.9-0.9,1.3c-0.1,0.1-0.1,0.1-0.2,0.2C42.1,78.4,39.5,78.3,37.8,76.7z"/>
	</g>
	<g>
		<path class="st4" d="M36.8,65.1c0,0.6-0.1,1.2-0.4,1.8c-0.2,0.5-0.5,0.9-0.9,1.3c-0.1,0.1-0.1,0.1-0.2,0.2
			c-0.8,0.7-1.8,1.1-2.9,1.1c-1.2,0-2.3-0.5-3.1-1.3c-0.8-0.8-1.3-1.9-1.3-3.1c0-1.1,0.4-2.1,1.1-2.9c0-0.1,0.1-0.1,0.2-0.2
			c0.4-0.4,0.8-0.7,1.3-0.9c0.6-0.3,1.2-0.4,1.8-0.4c1.1,0,2.2,0.4,3.1,1.3C36.3,62.9,36.8,63.9,36.8,65.1z"/>
		<path class="st2" d="M27.9,61c-0.2,0.3-0.5,0.5-0.7,0.8c0.3-0.2,0.6-0.4,0.8-0.7L27.9,61z M36.4,69.4c-0.2,0.3-0.5,0.5-0.7,0.8
			c0.3-0.2,0.6-0.4,0.8-0.6L36.4,69.4z"/>
	</g>
	<g>
		<path class="st4" d="M45.3,73.6c0,0.6-0.1,1.2-0.4,1.8c-0.2,0.5-0.5,0.9-0.9,1.3c-0.1,0.1-0.1,0.1-0.2,0.2c-1.7,1.5-4.3,1.5-6-0.2
			c-0.8-0.8-1.3-1.9-1.3-3.1c0-1.1,0.4-2.1,1.1-2.9c0.1-0.1,0.1-0.1,0.2-0.2c0.4-0.4,0.8-0.7,1.3-0.9c0.5-0.3,1.2-0.4,1.8-0.4
			c1.2,0,2.2,0.5,3.1,1.3C44.8,71.3,45.3,72.4,45.3,73.6z"/>
		<path class="st2" d="M36.4,69.4c-0.2,0.3-0.5,0.5-0.7,0.8c0.3-0.2,0.6-0.4,0.8-0.6L36.4,69.4z"/>
	</g>
</g>
</svg>
