<?xml version="1.0" encoding="utf-8"?>
<!-- Generator: Adobe Illustrator 22.0.1, SVG Export Plug-In . SVG Version: 6.00 Build 0)  -->
<svg version="1.1" id="Layer_1" xmlns="http://www.w3.org/2000/svg" xmlns:xlink="http://www.w3.org/1999/xlink" x="0px" y="0px"
	 viewBox="0 0 100 100" style="enable-background:new 0 0 100 100;" xml:space="preserve">
<style type="text/css">
	.st0{fill:#07C8E8;}
	.st1{fill:#FC7E56;}
	.st2{fill:#1E1E1E;}
	.st3{fill:#EA5397;}
	.st4{fill:#F9CC12;}
	.st5{fill:#F9CC12;stroke:#F9CC12;stroke-width:1.8;stroke-linecap:round;stroke-linejoin:round;stroke-miterlimit:10;}
	.st6{fill:none;stroke:#1E1E1E;stroke-width:1.8;stroke-linecap:round;stroke-linejoin:round;stroke-miterlimit:10;}
	.st7{fill:#F9CC12;stroke:#1E1E1E;stroke-width:1.8;stroke-linecap:round;stroke-linejoin:round;stroke-miterlimit:10;}
	.st8{fill:#FC7E56;stroke:#FC7E56;stroke-width:1.8;stroke-linecap:round;stroke-linejoin:round;stroke-miterlimit:10;}
	.st9{fill:#EA5397;stroke:#EA5397;stroke-width:1.8;stroke-linecap:round;stroke-linejoin:round;stroke-miterlimit:10;}
	.st10{fill:#07C8E8;stroke:#07C8E8;stroke-width:1.8;stroke-linecap:round;stroke-linejoin:round;stroke-miterlimit:10;}
	.st11{fill:#B7DB53;stroke:#B7DB53;stroke-width:1.9691;stroke-linecap:round;stroke-linejoin:round;stroke-miterlimit:10;}
	.st12{fill:none;stroke:#1E1E1E;stroke-width:1.9691;stroke-linecap:round;stroke-linejoin:round;stroke-miterlimit:10;}
	.st13{fill:#EA5397;stroke:#EA5397;stroke-width:1.7384;stroke-linecap:round;stroke-linejoin:round;stroke-miterlimit:10;}
	.st14{fill:none;stroke:#1E1E1E;stroke-width:1.7384;stroke-linecap:round;stroke-linejoin:round;stroke-miterlimit:10;}
	.st15{fill:#B7DB53;}
</style>
<g>
	<g>
		<path class="st3" d="M24.4,21.8v13.8c0,0.6-0.5,1.1-1.1,1.1H9.6c-0.6,0-1.1-0.5-1.1-1.1V21.8c0-0.6,0.5-1.1,1.1-1.1h13.8
			C23.9,20.7,24.4,21.2,24.4,21.8z"/>
		<path class="st3" d="M95.5,21.8v13.8c0,0.6-0.5,1.1-1.1,1.1H29.7c-0.6,0-1.1-0.5-1.1-1.1V21.8c0-0.6,0.5-1.1,1.1-1.1h64.7
			C95,20.7,95.5,21.2,95.5,21.8z"/>
		<path class="st3" d="M95.5,45.1v13.8c0,0.6-0.5,1.1-1.1,1.1H29.7c-0.6,0-1.1-0.5-1.1-1.1V45.1c0-0.6,0.5-1.1,1.1-1.1h64.7
			C95,44,95.5,44.5,95.5,45.1z"/>
		<path class="st3" d="M95.5,68.4v13.8c0,0.6-0.5,1.1-1.1,1.1H29.7c-0.6,0-1.1-0.5-1.1-1.1V68.4c0-0.6,0.5-1.1,1.1-1.1h64.7
			C95,67.4,95.5,67.9,95.5,68.4z"/>
		<path class="st3" d="M24.4,45.1v13.8c0,0.6-0.5,1.1-1.1,1.1H9.6c-0.6,0-1.1-0.5-1.1-1.1V45.1C8.5,44.5,9,44,9.6,44h13.8
			C23.9,44,24.4,44.5,24.4,45.1z"/>
		<path class="st3" d="M24.4,68.4v13.8c0,0.6-0.5,1.1-1.1,1.1H9.6c-0.6,0-1.1-0.5-1.1-1.1V68.4c0-0.6,0.5-1.1,1.1-1.1h13.8
			C23.9,67.4,24.4,67.9,24.4,68.4z"/>
	</g>
	<g>
		<path class="st2" d="M18.6,18.5v12.3H6.3V18.5H18.6 M19.4,16.7H5.6c-0.6,0-1.1,0.5-1.1,1.1v13.8c0,0.6,0.5,1.1,1.1,1.1h13.8
			c0.6,0,1.1-0.5,1.1-1.1V17.8C20.4,17.2,19.9,16.7,19.4,16.7L19.4,16.7z"/>
		<path class="st2" d="M89.7,18.5v12.3H26.5V18.5H89.7 M90.4,16.7H25.7c-0.6,0-1.1,0.5-1.1,1.1v13.8c0,0.6,0.5,1.1,1.1,1.1h64.7
			c0.6,0,1.1-0.5,1.1-1.1V17.8C91.5,17.2,91,16.7,90.4,16.7L90.4,16.7z"/>
		<path class="st2" d="M89.7,41.8v12.3H26.5V41.8H89.7 M90.4,40H25.7c-0.6,0-1.1,0.5-1.1,1.1v13.8c0,0.6,0.5,1.1,1.1,1.1h64.7
			c0.6,0,1.1-0.5,1.1-1.1V41.1C91.5,40.5,91,40,90.4,40L90.4,40z"/>
		<path class="st2" d="M89.7,65.2v12.3H26.5V65.2H89.7 M90.4,63.4H25.7c-0.6,0-1.1,0.5-1.1,1.1v13.8c0,0.6,0.5,1.1,1.1,1.1h64.7
			c0.6,0,1.1-0.5,1.1-1.1V64.4C91.5,63.9,91,63.4,90.4,63.4L90.4,63.4z"/>
		<path class="st2" d="M18.6,41.8v12.3H6.3V41.8H18.6 M19.4,40H5.6c-0.6,0-1.1,0.5-1.1,1.1v13.8C4.5,55.5,5,56,5.6,56h13.8
			c0.6,0,1.1-0.5,1.1-1.1V41.1C20.4,40.5,19.9,40,19.4,40L19.4,40z"/>
		<path class="st2" d="M18.6,65.2v12.3H6.3V65.2H18.6 M19.4,63.4H5.6c-0.6,0-1.1,0.5-1.1,1.1v13.8c0,0.6,0.5,1.1,1.1,1.1h13.8
			c0.6,0,1.1-0.5,1.1-1.1V64.4C20.4,63.9,19.9,63.4,19.4,63.4L19.4,63.4z"/>
	</g>
</g>
</svg>
