<?xml version="1.0" encoding="utf-8"?>
<!-- Generator: Adobe Illustrator 22.0.1, SVG Export Plug-In . SVG Version: 6.00 Build 0)  -->
<svg version="1.1" id="Layer_1" xmlns="http://www.w3.org/2000/svg" xmlns:xlink="http://www.w3.org/1999/xlink" x="0px" y="0px"
	 viewBox="0 0 100 100" style="enable-background:new 0 0 100 100;" xml:space="preserve">
<style type="text/css">
	.st0{fill:#07C8E8;}
	.st1{fill:#FC7E56;}
	.st2{fill:#1E1E1E;}
	.st3{fill:#EA5397;}
	.st4{fill:#F9CC12;}
	.st5{fill:#F9CC12;stroke:#F9CC12;stroke-width:1.8;stroke-linecap:round;stroke-linejoin:round;stroke-miterlimit:10;}
	.st6{fill:none;stroke:#1E1E1E;stroke-width:1.8;stroke-linecap:round;stroke-linejoin:round;stroke-miterlimit:10;}
	.st7{fill:#F9CC12;stroke:#1E1E1E;stroke-width:1.8;stroke-linecap:round;stroke-linejoin:round;stroke-miterlimit:10;}
	.st8{fill:#FC7E56;stroke:#FC7E56;stroke-width:1.8;stroke-linecap:round;stroke-linejoin:round;stroke-miterlimit:10;}
	.st9{fill:#EA5397;stroke:#EA5397;stroke-width:1.8;stroke-linecap:round;stroke-linejoin:round;stroke-miterlimit:10;}
	.st10{fill:#07C8E8;stroke:#07C8E8;stroke-width:1.8;stroke-linecap:round;stroke-linejoin:round;stroke-miterlimit:10;}
	.st11{fill:#B7DB53;stroke:#B7DB53;stroke-width:1.9691;stroke-linecap:round;stroke-linejoin:round;stroke-miterlimit:10;}
	.st12{fill:none;stroke:#1E1E1E;stroke-width:1.9691;stroke-linecap:round;stroke-linejoin:round;stroke-miterlimit:10;}
	.st13{fill:#EA5397;stroke:#EA5397;stroke-width:1.7384;stroke-linecap:round;stroke-linejoin:round;stroke-miterlimit:10;}
	.st14{fill:none;stroke:#1E1E1E;stroke-width:1.7384;stroke-linecap:round;stroke-linejoin:round;stroke-miterlimit:10;}
	.st15{fill:#B7DB53;}
</style>
<g>
	<g>
		<circle class="st1" cx="53" cy="53" r="36.2"/>
	</g>
	<path class="st2" d="M47,10.8C27.1,10.8,10.8,27,10.8,47S27.1,83.2,47,83.2S83.2,67,83.2,47S66.9,10.8,47,10.8z M47,81.4
		C28,81.4,12.6,66,12.6,47C12.6,28,28,12.6,47,12.6S81.4,28,81.4,47C81.4,66,66,81.4,47,81.4z"/>
	<g>
		<path class="st2" d="M65.3,28.7c-0.9-0.9-2.2-1-3.3-0.4l-19.7,11c-0.7,0.4-1.1,1-1.2,1.7v0.1H41c-0.7,0.1-1.4,0.5-1.7,1.2L28.3,62
			c-0.7,1.2-0.5,2.5,0.4,3.3c0.5,0.5,1.2,0.8,1.9,0.8c0.5,0,1-0.1,1.5-0.4l19.8-11c0.6-0.4,1.1-1,1.2-1.7v-0.1H53
			c0.7-0.1,1.4-0.5,1.7-1.2l11-19.7C66.3,30.9,66.2,29.6,65.3,28.7z M51.2,52.8c0,0.1-0.1,0.3-0.3,0.4l-19.7,11
			c-0.4,0.2-0.9,0.2-1.2-0.1c-0.3-0.3-0.3-0.7-0.1-1.2l11-19.7c0.1-0.2,0.3-0.3,0.4-0.3c0,0,0.1,0,0.1,0c0.1,0,0.2,0,0.4,0.2
			l9.3,9.3C51.2,52.5,51.2,52.6,51.2,52.8z M64.1,31.1l-11,19.7c-0.1,0.2-0.3,0.3-0.4,0.3c-0.1,0-0.3,0-0.5-0.2L43,41.7
			c-0.2-0.2-0.2-0.4-0.2-0.5c0-0.1,0.1-0.3,0.3-0.4l19.7-11c0.4-0.2,0.9-0.2,1.2,0.1C64.3,30.3,64.4,30.7,64.1,31.1z"/>
	</g>
</g>
</svg>
