<?xml version="1.0" encoding="utf-8"?>
<!-- Generator: Adobe Illustrator 22.0.1, SVG Export Plug-In . SVG Version: 6.00 Build 0)  -->
<svg version="1.1" id="Layer_1" xmlns="http://www.w3.org/2000/svg" xmlns:xlink="http://www.w3.org/1999/xlink" x="0px" y="0px"
	 viewBox="0 0 100 100" style="enable-background:new 0 0 100 100;" xml:space="preserve">
<style type="text/css">
	.st0{fill:#07C8E8;}
	.st1{fill:#FC7E56;}
	.st2{fill:#1E1E1E;}
	.st3{fill:#EA5397;}
	.st4{fill:#F9CC12;}
	.st5{fill:#F9CC12;stroke:#F9CC12;stroke-width:1.8;stroke-linecap:round;stroke-linejoin:round;stroke-miterlimit:10;}
	.st6{fill:none;stroke:#1E1E1E;stroke-width:1.8;stroke-linecap:round;stroke-linejoin:round;stroke-miterlimit:10;}
	.st7{fill:#F9CC12;stroke:#1E1E1E;stroke-width:1.8;stroke-linecap:round;stroke-linejoin:round;stroke-miterlimit:10;}
	.st8{fill:#FC7E56;stroke:#FC7E56;stroke-width:1.8;stroke-linecap:round;stroke-linejoin:round;stroke-miterlimit:10;}
	.st9{fill:#EA5397;stroke:#EA5397;stroke-width:1.8;stroke-linecap:round;stroke-linejoin:round;stroke-miterlimit:10;}
	.st10{fill:#07C8E8;stroke:#07C8E8;stroke-width:1.8;stroke-linecap:round;stroke-linejoin:round;stroke-miterlimit:10;}
	.st11{fill:#B7DB53;stroke:#B7DB53;stroke-width:1.9691;stroke-linecap:round;stroke-linejoin:round;stroke-miterlimit:10;}
	.st12{fill:none;stroke:#1E1E1E;stroke-width:1.9691;stroke-linecap:round;stroke-linejoin:round;stroke-miterlimit:10;}
	.st13{fill:#EA5397;stroke:#EA5397;stroke-width:1.7384;stroke-linecap:round;stroke-linejoin:round;stroke-miterlimit:10;}
	.st14{fill:none;stroke:#1E1E1E;stroke-width:1.7384;stroke-linecap:round;stroke-linejoin:round;stroke-miterlimit:10;}
	.st15{fill:#B7DB53;}
</style>
<g>
	<path class="st0" d="M97.9,75.7c0,0.5-0.4,0.9-0.9,0.9H54.3c1,2.7,1.6,5.7,1.6,8.8c0,0.5-0.4,0.9-0.9,0.9H7c-0.5,0-0.9-0.4-0.9-0.9
		c0-11.8,8.2-21.7,19.3-24.3c-5.1-2.2-8.6-7.2-8.6-13.1c0-7.9,6.4-14.2,14.2-14.2S45.2,40.1,45.2,48c0,5.9-3.6,10.9-8.6,13.1
		c2.8,0.7,5.5,1.8,7.9,3.3c3.6-8,10.8-14.1,19.6-16c-5.8-2.4-10-8.1-10-14.7c0-8.8,7.1-15.9,15.9-15.9s15.9,7.1,15.9,15.9
		c0,6.7-4.1,12.4-10,14.7C88.5,51.1,97.9,62.3,97.9,75.7z"/>
	<g>
		<path class="st2" d="M71.9,44.4c5.8-2.4,10-8.1,10-14.7c0-8.8-7.1-15.9-15.9-15.9s-15.9,7.1-15.9,15.9c0,6.7,4.1,12.4,10,14.7
			c-8.8,1.9-16,8-19.6,16c-2.4-1.5-5-2.7-7.9-3.3c5.1-2.2,8.6-7.2,8.6-13.1c0-7.9-6.4-14.2-14.2-14.2S12.8,36.1,12.8,44
			c0,5.9,3.6,10.9,8.6,13.1c-11,2.5-19.3,12.5-19.3,24.3c0,0.5,0.4,0.9,0.9,0.9h48c0.5,0,0.9-0.4,0.9-0.9c0-3.1-0.6-6-1.6-8.8H93
			c0.5,0,0.9-0.4,0.9-0.9C93.9,58.3,84.5,47.1,71.9,44.4z M51.9,29.7c0-7.8,6.3-14.1,14.1-14.1s14.1,6.3,14.1,14.1
			c0,7.8-6.3,14.1-14.1,14.1S51.9,37.4,51.9,29.7z M14.6,44c0-6.9,5.6-12.4,12.4-12.4S39.4,37.1,39.4,44S33.9,56.4,27,56.4
			S14.6,50.9,14.6,44z M3.9,80.4C4.4,68.1,14.6,58.2,27,58.2s22.6,9.9,23.1,22.2H3.9z M49.5,70.8c-1.7-3.7-4.3-6.9-7.6-9.3
			c4-9.3,13.2-15.9,24-15.9c14.1,0,25.6,11.2,26.1,25.2H49.5z"/>
	</g>
</g>
</svg>
