<?xml version="1.0" encoding="utf-8"?>
<!-- Generator: Adobe Illustrator 22.0.1, SVG Export Plug-In . SVG Version: 6.00 Build 0)  -->
<svg version="1.1" id="Layer_1" xmlns="http://www.w3.org/2000/svg" xmlns:xlink="http://www.w3.org/1999/xlink" x="0px" y="0px"
	 viewBox="0 0 100 100" style="enable-background:new 0 0 100 100;" xml:space="preserve">
<style type="text/css">
	.st0{fill:#FC7E56;}
	.st1{fill:#07C8E8;}
	.st2{fill:#1E1E1E;}
	.st3{fill:#EA5397;}
	.st4{fill:#F9CC12;}
	.st5{fill:#F9CC12;stroke:#F9CC12;stroke-width:1.8;stroke-linecap:round;stroke-linejoin:round;stroke-miterlimit:10;}
	.st6{fill:none;stroke:#1E1E1E;stroke-width:1.8;stroke-linecap:round;stroke-linejoin:round;stroke-miterlimit:10;}
	.st7{fill:#F9CC12;stroke:#1E1E1E;stroke-width:1.8;stroke-linecap:round;stroke-linejoin:round;stroke-miterlimit:10;}
	.st8{fill:#FC7E56;stroke:#FC7E56;stroke-width:1.8;stroke-linecap:round;stroke-linejoin:round;stroke-miterlimit:10;}
	.st9{fill:#EA5397;stroke:#EA5397;stroke-width:1.8;stroke-linecap:round;stroke-linejoin:round;stroke-miterlimit:10;}
	.st10{fill:#07C8E8;stroke:#07C8E8;stroke-width:1.8;stroke-linecap:round;stroke-linejoin:round;stroke-miterlimit:10;}
	.st11{fill:#B7DB53;stroke:#B7DB53;stroke-width:1.9691;stroke-linecap:round;stroke-linejoin:round;stroke-miterlimit:10;}
	.st12{fill:none;stroke:#1E1E1E;stroke-width:1.9691;stroke-linecap:round;stroke-linejoin:round;stroke-miterlimit:10;}
	.st13{fill:#EA5397;stroke:#EA5397;stroke-width:1.7384;stroke-linecap:round;stroke-linejoin:round;stroke-miterlimit:10;}
	.st14{fill:none;stroke:#1E1E1E;stroke-width:1.7384;stroke-linecap:round;stroke-linejoin:round;stroke-miterlimit:10;}
	.st15{fill:#B7DB53;}
</style>
<g>
	<g>
		<path class="st2" d="M8.7,49.6v0.1l22.4,15.8c0.1,0.1,0.1,0.2,0.1,0.3v2c0,0.1-0.1,0.2-0.2,0.3c0,0-0.1,0-0.2,0
			c-0.1,0-0.1,0-0.2-0.1L6.4,50.9c-0.1-0.1-0.1-0.2-0.1-0.3v-2c0-0.1,0-0.2,0.1-0.3l24.2-17c0.1-0.1,0.3-0.1,0.4,0
			c0.1,0.1,0.2,0.2,0.2,0.4v1.7c0,0.1-0.1,0.3-0.2,0.3L8.7,49.6z"/>
	</g>
	<g>
		<path class="st2" d="M62.3,20.7L40.2,79.6c-0.1,0.2-0.2,0.3-0.4,0.3h-1.7c-0.1,0-0.3-0.1-0.3-0.2c-0.1-0.1-0.1-0.3-0.1-0.4
			l22.1-58.9c0.1-0.2,0.2-0.3,0.4-0.3h1.7c0.1,0,0.3,0.1,0.3,0.2C62.3,20.5,62.3,20.6,62.3,20.7z"/>
	</g>
	<g>
		<path class="st2" d="M93.7,48.7v2c0,0.1,0,0.2-0.1,0.3L69.2,68C69.2,68,69.1,68,69,68c-0.1,0-0.1,0-0.2,0
			c-0.1-0.1-0.2-0.2-0.2-0.3v-1.9c0-0.1,0.1-0.3,0.2-0.4l22.4-15.7v-0.1L68.8,33.8c-0.1-0.1-0.1-0.2-0.1-0.3v-1.7
			c0-0.2,0.1-0.3,0.2-0.4c0.2-0.1,0.3-0.1,0.5,0l24.2,16.9C93.7,48.5,93.7,48.6,93.7,48.7z"/>
	</g>
</g>
</svg>
