<?xml version="1.0" encoding="utf-8"?>
<!-- Generator: Adobe Illustrator 22.0.1, SVG Export Plug-In . SVG Version: 6.00 Build 0)  -->
<svg version="1.1" id="Layer_1" xmlns="http://www.w3.org/2000/svg" xmlns:xlink="http://www.w3.org/1999/xlink" x="0px" y="0px"
	 viewBox="0 0 100 100" style="enable-background:new 0 0 100 100;" xml:space="preserve">
<style type="text/css">
	.st0{fill:#FC7E56;}
	.st1{fill:#07C8E8;}
	.st2{fill:#1E1E1E;}
	.st3{fill:#EA5397;}
	.st4{fill:#F9CC12;}
	.st5{fill:#F9CC12;stroke:#F9CC12;stroke-width:1.8;stroke-linecap:round;stroke-linejoin:round;stroke-miterlimit:10;}
	.st6{fill:none;stroke:#1E1E1E;stroke-width:1.8;stroke-linecap:round;stroke-linejoin:round;stroke-miterlimit:10;}
	.st7{fill:#F9CC12;stroke:#1E1E1E;stroke-width:1.8;stroke-linecap:round;stroke-linejoin:round;stroke-miterlimit:10;}
	.st8{fill:#FC7E56;stroke:#FC7E56;stroke-width:1.8;stroke-linecap:round;stroke-linejoin:round;stroke-miterlimit:10;}
	.st9{fill:#EA5397;stroke:#EA5397;stroke-width:1.8;stroke-linecap:round;stroke-linejoin:round;stroke-miterlimit:10;}
	.st10{fill:#07C8E8;stroke:#07C8E8;stroke-width:1.8;stroke-linecap:round;stroke-linejoin:round;stroke-miterlimit:10;}
	.st11{fill:#B7DB53;stroke:#B7DB53;stroke-width:1.9691;stroke-linecap:round;stroke-linejoin:round;stroke-miterlimit:10;}
	.st12{fill:none;stroke:#1E1E1E;stroke-width:1.9691;stroke-linecap:round;stroke-linejoin:round;stroke-miterlimit:10;}
	.st13{fill:#EA5397;stroke:#EA5397;stroke-width:1.7384;stroke-linecap:round;stroke-linejoin:round;stroke-miterlimit:10;}
	.st14{fill:none;stroke:#1E1E1E;stroke-width:1.7384;stroke-linecap:round;stroke-linejoin:round;stroke-miterlimit:10;}
	.st15{fill:#B7DB53;}
</style>
<g>
	<path class="st2" d="M29.3,69.9c-0.1,0-0.1,0.1-0.2,0.1C29.2,69.9,29.2,69.9,29.3,69.9L29.3,69.9z"/>
	<path class="st2" d="M37.8,78.4c-0.1,0-0.1,0.1-0.2,0.1C37.7,78.4,37.7,78.4,37.8,78.4L37.8,78.4z"/>
	<path class="st2" d="M94.9,38.4c-0.3-0.4-0.9-0.4-1.3,0L74,58L55.3,39.4c-0.3-0.3-0.9-0.4-1.2,0l-7.6,7.5c-0.8,0.8-1.5,1.8-2,2.9
		c-1,2.3-2.7,4-4.4,4.6c-1.2,0.4-3.5,0.2-4.1-0.8c-0.8-1.4,0-3.9,1.8-8.4c0.4-0.9,0.9-1.8,1.6-2.5l11-11c2-2,4.8-3,7.6-2.7l6.3,0.7
		c0.3,0,0.5-0.1,0.7-0.2l9.8-9.8c0.3-0.3,0.3-0.9,0-1.3c-0.3-0.3-0.9-0.3-1.3,0l-9.5,9.5l-5.8-0.7c-3.4-0.4-6.7,0.8-9.1,3.2
		l-1.9,1.9c-3.1-1.5-6.9-2-11.8-1.6c-0.3,0-0.6,0.1-0.8,0c-0.2-0.1-0.4-0.3-0.6-0.5c-1.6-1.6-7-7-8.6-8.6c-0.4-0.4-0.9-0.4-1.3,0
		c-0.3,0.3-0.3,0.9,0,1.3c1.6,1.6,7,7,8.6,8.6c0.3,0.3,0.7,0.7,1.2,0.9c0.6,0.2,1.2,0.2,1.7,0.1c4.2-0.4,7.6,0,10.3,1.2l-7.7,7.7
		c-0.9,0.9-1.6,1.9-2,3.1c-2,5.2-2.8,7.9-1.7,10c1.1,2,4.3,2.3,6.2,1.6c2.2-0.8,4.2-2.8,5.4-5.6c0.4-1,1-1.8,1.6-2.4l6.9-6.9
		l23.9,24c0.8,0.8,1.2,1.8,1.2,2.9c0,1.1-0.4,2.1-1.2,2.9c-1.6,1.6-4.2,1.6-5.8,0L57.5,55.7c-0.3-0.4-0.9-0.4-1.3,0
		c-0.4,0.4-0.4,0.9,0,1.3l15.3,15.3c1.6,1.6,1.6,4.2,0,5.8c-1.6,1.6-4.2,1.6-5.8,0L50.5,62.8c-0.3-0.4-0.9-0.4-1.3,0
		c-0.4,0.4-0.4,0.9,0,1.3l15.3,15.3c1.6,1.6,1.6,4.2,0,5.8c-0.8,0.8-1.8,1.2-2.9,1.2c-1.1,0-2.1-0.4-2.9-1.2L43.4,69.8
		c-0.4-0.3-0.9-0.3-1.3,0c-0.3,0.4-0.3,0.9,0,1.3l15.3,15.3c1.6,1.6,1.6,4.2,0,5.8l-0.1,0.1c-1.5,1.5-4,1.5-5.5,0l-5.6-5.6
		c0.6-0.9,0.9-2,0.9-3.1c0-1.6-0.6-3.2-1.8-4.3c-1.2-1.2-2.7-1.8-4.4-1.8c-1.1,0-2.2,0.3-3.1,0.9c-0.1,0-0.1,0.1-0.2,0.1
		c0,0,0.1-0.1,0.1-0.2c0.6-0.9,0.9-2,0.9-3.1c0-1.7-0.6-3.2-1.8-4.4c-2-2-5.1-2.3-7.5-0.9c-0.1,0-0.1,0.1-0.2,0.1
		c0-0.1,0.1-0.1,0.1-0.2c0.6-0.9,0.9-2,0.9-3.1c0-1.6-0.6-3.2-1.8-4.3c-2-2-5.1-2.3-7.5-0.9l-17-17c-0.3-0.4-0.9-0.4-1.3,0
		c-0.4,0.3-0.4,0.9,0,1.3l16.9,16.9c-1,1.1-1.6,2.6-1.6,4.1c0,1.6,0.6,3.2,1.8,4.3c1.2,1.2,2.7,1.8,4.4,1.8c1.2,0,2.3-0.3,3.3-1
		c-0.6,1-1,2.1-1,3.3c0,1.6,0.6,3.2,1.8,4.3c1.2,1.2,2.7,1.8,4.3,1.8c1.2,0,2.3-0.3,3.3-1c-0.6,1-1,2.1-1,3.3c0,1.6,0.6,3.2,1.8,4.3
		c1.2,1.2,2.8,1.8,4.3,1.8c1.5,0,3-0.5,4.1-1.6l5.4,5.4c1.1,1.1,2.6,1.7,4,1.7c1.5,0,2.9-0.6,4-1.7l0.1-0.1c1.5-1.5,2-3.6,1.6-5.5
		c0.4,0.1,0.9,0.2,1.3,0.2c1.6,0,3.1-0.6,4.2-1.7c1.5-1.5,2-3.6,1.6-5.5c0.4,0.1,0.9,0.2,1.3,0.2c1.5,0,3-0.6,4.2-1.7
		c1.5-1.5,2-3.6,1.6-5.5c0.4,0.1,0.9,0.2,1.3,0.2c1.6,0,3.1-0.6,4.2-1.7c1.1-1.1,1.7-2.6,1.7-4.2c0-1.6-0.6-3-1.7-4.2l-4.6-4.6
		l19.6-19.6C95.2,39.3,95.2,38.8,94.9,38.4z M27,69.8c-0.1,0.1-0.1,0.1-0.2,0.2C26,70.7,25,71,24,71c-1.2,0-2.3-0.5-3.1-1.3
		c-0.8-0.8-1.3-1.9-1.3-3.1c0-1.1,0.4-2.1,1.1-2.9c0-0.1,0.1-0.1,0.2-0.2c0.4-0.4,0.8-0.7,1.3-0.9c0.6-0.3,1.2-0.4,1.8-0.4
		c1.1,0,2.2,0.4,3.1,1.3c0.8,0.8,1.3,1.9,1.3,3.1c0,0.6-0.1,1.2-0.4,1.8C27.7,69,27.4,69.4,27,69.8z M36.4,77
		c-0.2,0.5-0.5,0.9-0.9,1.3c-0.1,0.1-0.1,0.1-0.2,0.2c-0.8,0.7-1.8,1.1-2.9,1.1c-1.2,0-2.3-0.4-3.1-1.3c-0.8-0.8-1.3-1.9-1.3-3.1
		c0-1.1,0.4-2.1,1.1-2.9c0-0.1,0.1-0.1,0.2-0.2c0.4-0.4,0.8-0.7,1.3-0.9c0.6-0.3,1.2-0.4,1.8-0.4c1.1,0,2.2,0.4,3.1,1.3
		c0.8,0.8,1.3,1.9,1.3,3.1C36.8,75.8,36.6,76.4,36.4,77z M44.9,85.5c-0.2,0.5-0.5,0.9-0.9,1.3c-0.1,0.1-0.1,0.1-0.2,0.2
		c-1.7,1.5-4.3,1.5-6-0.2c-0.8-0.8-1.3-1.9-1.3-3.1c0-1.1,0.4-2.1,1.1-2.9c0.1-0.1,0.1-0.1,0.2-0.2c0.4-0.4,0.8-0.7,1.3-0.9
		c0.5-0.3,1.2-0.4,1.8-0.4c1.2,0,2.2,0.5,3.1,1.3c0.8,0.8,1.3,1.9,1.3,3.1C45.3,84.3,45.1,84.9,44.9,85.5z"/>
</g>
</svg>
