<?xml version="1.0" encoding="utf-8"?>
<!-- Generator: Adobe Illustrator 22.0.1, SVG Export Plug-In . SVG Version: 6.00 Build 0)  -->
<svg version="1.1" id="Layer_1" xmlns="http://www.w3.org/2000/svg" xmlns:xlink="http://www.w3.org/1999/xlink" x="0px" y="0px"
	 viewBox="0 0 100 100" style="enable-background:new 0 0 100 100;" xml:space="preserve">
<style type="text/css">
	.st0{fill:#FC7E56;}
	.st1{fill:#07C8E8;}
	.st2{fill:#1E1E1E;}
	.st3{fill:#EA5397;}
	.st4{fill:#F9CC12;}
	.st5{fill:#F9CC12;stroke:#F9CC12;stroke-width:1.8;stroke-linecap:round;stroke-linejoin:round;stroke-miterlimit:10;}
	.st6{fill:none;stroke:#1E1E1E;stroke-width:1.8;stroke-linecap:round;stroke-linejoin:round;stroke-miterlimit:10;}
	.st7{fill:#F9CC12;stroke:#1E1E1E;stroke-width:1.8;stroke-linecap:round;stroke-linejoin:round;stroke-miterlimit:10;}
	.st8{fill:#FC7E56;stroke:#FC7E56;stroke-width:1.8;stroke-linecap:round;stroke-linejoin:round;stroke-miterlimit:10;}
	.st9{fill:#EA5397;stroke:#EA5397;stroke-width:1.8;stroke-linecap:round;stroke-linejoin:round;stroke-miterlimit:10;}
	.st10{fill:#07C8E8;stroke:#07C8E8;stroke-width:1.8;stroke-linecap:round;stroke-linejoin:round;stroke-miterlimit:10;}
	.st11{fill:#B7DB53;stroke:#B7DB53;stroke-width:1.9691;stroke-linecap:round;stroke-linejoin:round;stroke-miterlimit:10;}
	.st12{fill:none;stroke:#1E1E1E;stroke-width:1.9691;stroke-linecap:round;stroke-linejoin:round;stroke-miterlimit:10;}
	.st13{fill:#EA5397;stroke:#EA5397;stroke-width:1.7384;stroke-linecap:round;stroke-linejoin:round;stroke-miterlimit:10;}
	.st14{fill:none;stroke:#1E1E1E;stroke-width:1.7384;stroke-linecap:round;stroke-linejoin:round;stroke-miterlimit:10;}
	.st15{fill:#B7DB53;}
</style>
<g>
	<path class="st2" d="M20.6,20.5v12.3H8.3V20.5H20.6 M21.4,18.7H7.6c-0.6,0-1.1,0.5-1.1,1.1v13.8c0,0.6,0.5,1.1,1.1,1.1h13.8
		c0.6,0,1.1-0.5,1.1-1.1V19.8C22.4,19.2,21.9,18.7,21.4,18.7L21.4,18.7z"/>
	<path class="st2" d="M91.7,20.5v12.3H28.5V20.5H91.7 M92.4,18.7H27.7c-0.6,0-1.1,0.5-1.1,1.1v13.8c0,0.6,0.5,1.1,1.1,1.1h64.7
		c0.6,0,1.1-0.5,1.1-1.1V19.8C93.5,19.2,93,18.7,92.4,18.7L92.4,18.7z"/>
	<path class="st2" d="M91.7,43.8v12.3H28.5V43.8H91.7 M92.4,42H27.7c-0.6,0-1.1,0.5-1.1,1.1v13.8c0,0.6,0.5,1.1,1.1,1.1h64.7
		c0.6,0,1.1-0.5,1.1-1.1V43.1C93.5,42.5,93,42,92.4,42L92.4,42z"/>
	<path class="st2" d="M91.7,67.2v12.3H28.5V67.2H91.7 M92.4,65.4H27.7c-0.6,0-1.1,0.5-1.1,1.1v13.8c0,0.6,0.5,1.1,1.1,1.1h64.7
		c0.6,0,1.1-0.5,1.1-1.1V66.4C93.5,65.9,93,65.4,92.4,65.4L92.4,65.4z"/>
	<path class="st2" d="M20.6,43.8v12.3H8.3V43.8H20.6 M21.4,42H7.6c-0.6,0-1.1,0.5-1.1,1.1v13.8C6.5,57.5,7,58,7.6,58h13.8
		c0.6,0,1.1-0.5,1.1-1.1V43.1C22.4,42.5,21.9,42,21.4,42L21.4,42z"/>
	<path class="st2" d="M20.6,67.2v12.3H8.3V67.2H20.6 M21.4,65.4H7.6c-0.6,0-1.1,0.5-1.1,1.1v13.8c0,0.6,0.5,1.1,1.1,1.1h13.8
		c0.6,0,1.1-0.5,1.1-1.1V66.4C22.4,65.9,21.9,65.4,21.4,65.4L21.4,65.4z"/>
</g>
</svg>
