<?xml version="1.0" encoding="utf-8"?>
<!-- Generator: Adobe Illustrator 22.0.1, SVG Export Plug-In . SVG Version: 6.00 Build 0)  -->
<svg version="1.1" id="Layer_1" xmlns="http://www.w3.org/2000/svg" xmlns:xlink="http://www.w3.org/1999/xlink" x="0px" y="0px"
	 viewBox="0 0 100 100" style="enable-background:new 0 0 100 100;" xml:space="preserve">
<style type="text/css">
	.st0{fill:#FC7E56;}
	.st1{fill:#07C8E8;}
	.st2{fill:#1E1E1E;}
	.st3{fill:#EA5397;}
	.st4{fill:#F9CC12;}
	.st5{fill:#F9CC12;stroke:#F9CC12;stroke-width:1.8;stroke-linecap:round;stroke-linejoin:round;stroke-miterlimit:10;}
	.st6{fill:none;stroke:#1E1E1E;stroke-width:1.8;stroke-linecap:round;stroke-linejoin:round;stroke-miterlimit:10;}
	.st7{fill:#F9CC12;stroke:#1E1E1E;stroke-width:1.8;stroke-linecap:round;stroke-linejoin:round;stroke-miterlimit:10;}
	.st8{fill:#FC7E56;stroke:#FC7E56;stroke-width:1.8;stroke-linecap:round;stroke-linejoin:round;stroke-miterlimit:10;}
	.st9{fill:#EA5397;stroke:#EA5397;stroke-width:1.8;stroke-linecap:round;stroke-linejoin:round;stroke-miterlimit:10;}
	.st10{fill:#07C8E8;stroke:#07C8E8;stroke-width:1.8;stroke-linecap:round;stroke-linejoin:round;stroke-miterlimit:10;}
	.st11{fill:#B7DB53;stroke:#B7DB53;stroke-width:1.9691;stroke-linecap:round;stroke-linejoin:round;stroke-miterlimit:10;}
	.st12{fill:none;stroke:#1E1E1E;stroke-width:1.9691;stroke-linecap:round;stroke-linejoin:round;stroke-miterlimit:10;}
	.st13{fill:#EA5397;stroke:#EA5397;stroke-width:1.7384;stroke-linecap:round;stroke-linejoin:round;stroke-miterlimit:10;}
	.st14{fill:none;stroke:#1E1E1E;stroke-width:1.7384;stroke-linecap:round;stroke-linejoin:round;stroke-miterlimit:10;}
	.st15{fill:#B7DB53;}
</style>
<path class="st2" d="M50,13.8C30.1,13.8,13.8,30,13.8,50S30.1,86.2,50,86.2S86.2,70,86.2,50S69.9,13.8,50,13.8z M50,84.4
	C31,84.4,15.6,69,15.6,50C15.6,31,31,15.6,50,15.6S84.4,31,84.4,50C84.4,69,69,84.4,50,84.4z"/>
<g>
	<path class="st2" d="M68.3,31.7c-0.9-0.9-2.2-1-3.3-0.4l-19.7,11c-0.7,0.4-1.1,1-1.2,1.7v0.1H44c-0.7,0.1-1.4,0.5-1.7,1.2L31.3,65
		c-0.7,1.2-0.5,2.5,0.4,3.3c0.5,0.5,1.2,0.8,1.9,0.8c0.5,0,1-0.1,1.5-0.4l19.8-11c0.6-0.4,1.1-1,1.2-1.7v-0.1H56
		c0.7-0.1,1.4-0.5,1.7-1.2l11-19.7C69.3,33.9,69.2,32.6,68.3,31.7z M54.2,55.8c0,0.1-0.1,0.3-0.3,0.4l-19.7,11
		c-0.4,0.2-0.9,0.2-1.2-0.1c-0.3-0.3-0.3-0.7-0.1-1.2l11-19.7c0.1-0.2,0.3-0.3,0.4-0.3c0,0,0.1,0,0.1,0c0.1,0,0.2,0,0.4,0.2l9.3,9.3
		C54.2,55.5,54.2,55.6,54.2,55.8z M67.1,34.1l-11,19.7c-0.1,0.2-0.3,0.3-0.4,0.3c-0.1,0-0.3,0-0.5-0.2L46,44.7
		c-0.2-0.2-0.2-0.4-0.2-0.5c0-0.1,0.1-0.3,0.3-0.4l19.7-11c0.4-0.2,0.9-0.2,1.2,0.1C67.3,33.3,67.4,33.7,67.1,34.1z"/>
</g>
</svg>
