<?xml version="1.0" encoding="utf-8"?>
<!-- Generator: Adobe Illustrator 22.0.1, SVG Export Plug-In . SVG Version: 6.00 Build 0)  -->
<svg version="1.1" id="Layer_1" xmlns="http://www.w3.org/2000/svg" xmlns:xlink="http://www.w3.org/1999/xlink" x="0px" y="0px"
	 viewBox="0 0 100 100" style="enable-background:new 0 0 100 100;" xml:space="preserve">
<style type="text/css">
	.st0{fill:#FC7E56;}
	.st1{fill:#07C8E8;}
	.st2{fill:#1E1E1E;}
	.st3{fill:#EA5397;}
	.st4{fill:#F9CC12;}
	.st5{fill:#F9CC12;stroke:#F9CC12;stroke-width:1.8;stroke-linecap:round;stroke-linejoin:round;stroke-miterlimit:10;}
	.st6{fill:none;stroke:#1E1E1E;stroke-width:1.8;stroke-linecap:round;stroke-linejoin:round;stroke-miterlimit:10;}
	.st7{fill:#F9CC12;stroke:#1E1E1E;stroke-width:1.8;stroke-linecap:round;stroke-linejoin:round;stroke-miterlimit:10;}
	.st8{fill:#FC7E56;stroke:#FC7E56;stroke-width:1.8;stroke-linecap:round;stroke-linejoin:round;stroke-miterlimit:10;}
	.st9{fill:#EA5397;stroke:#EA5397;stroke-width:1.8;stroke-linecap:round;stroke-linejoin:round;stroke-miterlimit:10;}
	.st10{fill:#07C8E8;stroke:#07C8E8;stroke-width:1.8;stroke-linecap:round;stroke-linejoin:round;stroke-miterlimit:10;}
	.st11{fill:#B7DB53;stroke:#B7DB53;stroke-width:1.9691;stroke-linecap:round;stroke-linejoin:round;stroke-miterlimit:10;}
	.st12{fill:none;stroke:#1E1E1E;stroke-width:1.9691;stroke-linecap:round;stroke-linejoin:round;stroke-miterlimit:10;}
	.st13{fill:#EA5397;stroke:#EA5397;stroke-width:1.7384;stroke-linecap:round;stroke-linejoin:round;stroke-miterlimit:10;}
	.st14{fill:none;stroke:#1E1E1E;stroke-width:1.7384;stroke-linecap:round;stroke-linejoin:round;stroke-miterlimit:10;}
	.st15{fill:#B7DB53;}
</style>
<g>
	<path class="st2" d="M73.9,46.4c5.8-2.4,10-8.1,10-14.7c0-8.8-7.1-15.9-15.9-15.9s-15.9,7.1-15.9,15.9c0,6.7,4.1,12.4,10,14.7
		c-8.8,1.9-16,8-19.6,16c-2.4-1.5-5-2.7-7.9-3.3c5.1-2.2,8.6-7.2,8.6-13.1c0-7.9-6.4-14.2-14.2-14.2S14.8,38.1,14.8,46
		c0,5.9,3.6,10.9,8.6,13.1c-11,2.5-19.3,12.5-19.3,24.3c0,0.5,0.4,0.9,0.9,0.9h48c0.5,0,0.9-0.4,0.9-0.9c0-3.1-0.6-6-1.6-8.8H95
		c0.5,0,0.9-0.4,0.9-0.9C95.9,60.3,86.5,49.1,73.9,46.4z M53.9,31.7c0-7.8,6.3-14.1,14.1-14.1s14.1,6.3,14.1,14.1
		c0,7.8-6.3,14.1-14.1,14.1S53.9,39.4,53.9,31.7z M16.6,46c0-6.9,5.6-12.4,12.4-12.4S41.4,39.1,41.4,46S35.9,58.4,29,58.4
		S16.6,52.9,16.6,46z M5.9,82.4C6.4,70.1,16.6,60.2,29,60.2s22.6,9.9,23.1,22.2H5.9z M51.5,72.8c-1.7-3.7-4.3-6.9-7.6-9.3
		c4-9.3,13.2-15.9,24-15.9c14.1,0,25.6,11.2,26.1,25.2H51.5z"/>
</g>
</svg>
