<?xml version="1.0" encoding="utf-8"?>
<!-- Generator: Adobe Illustrator 22.0.1, SVG Export Plug-In . SVG Version: 6.00 Build 0)  -->
<svg version="1.1" id="Layer_1" xmlns="http://www.w3.org/2000/svg" xmlns:xlink="http://www.w3.org/1999/xlink" x="0px" y="0px"
	 viewBox="0 0 100 100" style="enable-background:new 0 0 100 100;" xml:space="preserve">
<style type="text/css">
	.st0{fill:#FC7E56;}
	.st1{fill:#07C8E8;}
	.st2{fill:#1E1E1E;}
	.st3{fill:#EA5397;}
	.st4{fill:#F9CC12;}
	.st5{fill:#F9CC12;stroke:#F9CC12;stroke-width:1.8;stroke-linecap:round;stroke-linejoin:round;stroke-miterlimit:10;}
	.st6{fill:none;stroke:#1E1E1E;stroke-width:1.8;stroke-linecap:round;stroke-linejoin:round;stroke-miterlimit:10;}
	.st7{fill:#F9CC12;stroke:#1E1E1E;stroke-width:1.8;stroke-linecap:round;stroke-linejoin:round;stroke-miterlimit:10;}
	.st8{fill:#FC7E56;stroke:#FC7E56;stroke-width:1.8;stroke-linecap:round;stroke-linejoin:round;stroke-miterlimit:10;}
	.st9{fill:#EA5397;stroke:#EA5397;stroke-width:1.8;stroke-linecap:round;stroke-linejoin:round;stroke-miterlimit:10;}
	.st10{fill:#07C8E8;stroke:#07C8E8;stroke-width:1.8;stroke-linecap:round;stroke-linejoin:round;stroke-miterlimit:10;}
	.st11{fill:#B7DB53;stroke:#B7DB53;stroke-width:1.9691;stroke-linecap:round;stroke-linejoin:round;stroke-miterlimit:10;}
	.st12{fill:none;stroke:#1E1E1E;stroke-width:1.9691;stroke-linecap:round;stroke-linejoin:round;stroke-miterlimit:10;}
	.st13{fill:#EA5397;stroke:#EA5397;stroke-width:1.7384;stroke-linecap:round;stroke-linejoin:round;stroke-miterlimit:10;}
	.st14{fill:none;stroke:#1E1E1E;stroke-width:1.7384;stroke-linecap:round;stroke-linejoin:round;stroke-miterlimit:10;}
	.st15{fill:#B7DB53;}
</style>
<g>
	<path class="st2" d="M50.8,11.2L50.8,11.2L50.8,11.2 M50,12.8l11.7,23.8c0.3,0.5,0.8,0.9,1.4,1l26.2,3.8l-19,18.5
		c-0.4,0.4-0.6,1-0.5,1.6l4.5,26.1L50.8,75.2C50.6,75.1,50.3,75,50,75s-0.6,0.1-0.8,0.2L25.7,87.6l4.5-26.1c0.1-0.6-0.1-1.2-0.5-1.6
		l-19-18.5l26.2-3.8c0.6-0.1,1.1-0.5,1.4-1L50,12.8 M50,9.9c-0.3,0-0.7,0.2-0.8,0.5L36.7,35.8l-28,4.1c-0.8,0.1-1.1,1-0.5,1.6
		l20.3,19.8L23.6,89c-0.1,0.6,0.4,1.1,0.9,1.1c0.1,0,0.3,0,0.4-0.1l25-13.2L75,90c0.1,0.1,0.3,0.1,0.4,0.1c0.5,0,1-0.5,0.9-1.1
		l-4.8-27.9l20.3-19.8c0.5-0.5,0.2-1.5-0.5-1.6l-28-4.1L50.8,10.4C50.7,10.1,50.3,9.9,50,9.9L50,9.9z"/>
</g>
</svg>
