<svg width="1064" height="401" viewBox="0 0 1064 401" fill="none" xmlns="http://www.w3.org/2000/svg">
<g clip-path="url(#clip0_144_235)">
<path d="M113.125 25.1461C125.996 32.3825 136.093 42.3627 143.403 55.0866C150.712 67.8106 154.374 82.027 154.374 97.7209C154.374 113.415 150.712 127.631 143.403 140.355C136.093 153.079 125.996 163.059 113.125 170.311C100.255 177.547 85.8924 181.165 70.053 181.165H25.7145C21.2987 181.165 17.9078 179.989 15.5417 177.623C13.1755 175.256 12 171.864 12 167.446V27.9954C12 23.5782 13.1755 20.1862 15.5417 17.8193C17.9078 15.4524 21.2836 14.2765 25.7145 14.2765H70.053C85.8924 14.2765 100.255 17.8947 113.125 25.131V25.1461ZM72.3286 140.024C78.7338 140.024 84.521 138.199 89.6903 134.536C94.8747 130.873 98.9438 125.807 101.913 119.34C104.882 112.857 106.374 105.666 106.374 97.736C106.374 89.8061 104.882 82.615 101.913 76.1324C98.9438 69.6498 94.8596 64.5844 89.6903 60.9209C84.5059 57.2575 78.7187 55.4334 72.3286 55.4334H59.9856V140.024H72.3286Z" fill="#033A43"/>
<path d="M309.559 145.963C311.533 147.637 312.528 149.386 312.528 151.225C312.528 152.446 311.925 153.893 310.704 155.567C303.847 164.416 295.242 171.261 284.873 176.145C274.504 181.03 263.307 183.457 251.28 183.457C234.672 183.457 219.782 179.718 206.595 172.256C193.408 164.793 183.13 154.541 175.745 141.501C168.36 128.475 164.668 113.882 164.668 97.7209C164.668 81.5596 168.36 66.9663 175.745 53.9408C183.13 40.9153 193.423 30.6638 206.595 23.2013C219.767 15.7388 234.672 12 251.28 12C263.307 12 274.504 14.4423 284.873 19.3118C295.227 24.1963 303.847 31.0407 310.704 39.8902C311.925 41.5636 312.528 43.0109 312.528 44.232C312.528 46.0562 311.533 47.8201 309.559 49.4935L289.213 66.6346C287.691 68.0065 286.169 68.7 284.647 68.7C283.125 68.7 281.452 68.0065 279.613 66.6346C275.8 63.7401 271.46 61.5239 266.592 60.0013C261.709 58.4786 256.69 57.7098 251.506 57.7098C243.579 57.7098 236.691 59.5792 230.829 63.318C224.966 67.0567 220.46 71.9714 217.34 78.0621C214.221 84.1527 212.653 90.7106 212.653 97.7209C212.653 104.731 214.221 111.289 217.34 117.38C220.46 123.47 224.951 128.385 230.829 132.124C236.691 135.863 243.594 137.717 251.506 137.717C256.69 137.717 261.709 136.948 266.592 135.425C271.46 133.903 275.815 131.687 279.613 128.792C281.437 127.42 283.11 126.742 284.647 126.742C286.184 126.742 287.691 127.435 289.213 128.792L309.559 145.933V145.963Z" fill="#033A43"/>
<path d="M146.839 219.443C151.255 219.443 154.646 220.619 157.012 222.986C159.378 225.352 160.553 228.744 160.553 233.162V325.742C160.553 337.486 157.313 348.145 150.848 357.748C144.367 367.351 135.491 374.889 124.218 380.377C112.945 385.864 100.376 388.608 86.5103 388.608C72.6452 388.608 60.0761 385.864 48.8031 380.377C37.5301 374.889 28.6533 367.351 22.1729 357.748C15.6924 348.145 12.4672 337.486 12.4672 325.742V233.162C12.4672 228.744 13.6428 225.352 16.0089 222.986C18.375 220.619 21.7509 219.443 26.1817 219.443H46.7534C51.1692 219.443 54.5601 220.619 56.9263 222.986C59.2924 225.352 60.4679 228.744 60.4679 233.162V323.466C60.4679 329.722 62.9395 334.893 67.8978 339.009C72.8411 343.124 79.0503 345.19 86.5254 345.19C93.9855 345.039 100.195 342.868 105.153 338.677C110.096 334.486 112.583 329.421 112.583 323.481V233.177C112.583 228.76 113.758 225.368 116.125 223.001C118.491 220.634 121.867 219.458 126.297 219.458H146.869L146.839 219.443Z" fill="#033A43"/>
<path d="M235.094 276.942C238.44 278.389 243.775 279.957 251.099 281.63C261.619 284.073 270.48 286.847 277.729 289.967C284.963 293.088 291.323 298.153 296.809 305.164C302.295 312.174 305.038 321.702 305.038 333.747C305.038 344.119 302.22 353.451 296.583 361.758C290.947 370.065 283.215 376.623 273.389 381.417C263.563 386.211 252.621 388.623 240.595 388.623C218.35 388.623 198.472 381.01 180.944 365.768C177.749 362.723 176.152 359.602 176.152 356.391C176.152 352.728 177.9 349.305 181.412 346.109L196.95 331.712C199.09 329.586 201.441 328.516 204.033 328.516C206.625 328.516 209.142 329.436 211.568 331.26C221.621 338.27 231.296 341.783 240.595 341.783C244.558 341.783 247.904 341.029 250.647 339.491C253.39 337.969 254.761 336.054 254.761 333.777C254.761 330.581 252.938 328.109 249.276 326.345C245.613 324.596 239.751 322.652 231.673 320.511C221.304 317.767 212.668 314.918 205.736 311.933C198.803 308.963 192.745 304.123 187.56 297.415C182.376 290.706 179.784 281.796 179.784 270.67C179.784 260.615 182.482 251.464 187.892 243.232C193.302 235.001 200.717 228.564 210.167 223.92C219.616 219.277 230.121 216.94 241.71 216.94H241.936C258.695 216.94 274.308 222.277 288.791 232.951C292.454 235.845 294.277 239.041 294.277 242.554C294.277 245.75 292.604 249.037 289.244 252.383L274.158 266.555C271.867 268.695 269.44 269.751 266.848 269.751C264.407 269.751 261.965 268.997 259.539 267.459C254.053 264.263 248.191 262.665 241.936 262.665C238.274 262.665 235.38 263.434 233.255 264.957C231.115 266.479 230.06 268.394 230.06 270.67C230.06 273.414 231.733 275.51 235.094 276.957V276.942Z" fill="#033A43"/>
<path d="M733.005 309.113C741.776 309.113 748.422 311.39 752.974 315.943C757.525 320.496 759.801 327.159 759.801 335.918V359.18C759.801 367.607 757.525 374.181 752.974 378.899C748.422 383.633 741.776 385.985 733.005 385.985H522.706C514.282 385.985 507.801 383.708 503.25 379.156C498.698 374.603 496.423 367.954 496.423 359.18V335.918C496.423 333.898 496.754 330.853 497.432 326.812C497.432 322.425 500.13 318.053 505.525 313.666C542.931 281.299 576.298 248.931 605.626 216.563C634.939 184.196 649.769 158.748 650.115 140.204C650.115 129.425 646.408 120.41 638.993 113.143C631.578 105.892 622.309 102.274 611.187 102.274H610.675C602.235 102.274 593.735 104.55 585.145 109.103C576.554 113.656 569.546 120.485 564.166 129.576C561.137 134.31 558.183 137.762 555.32 139.948C552.456 142.149 549.005 143.235 544.951 143.235C542.585 143.235 540.731 143.069 539.39 142.737L500.462 133.631C495.744 132.29 491.947 130.179 489.083 127.315C486.22 124.45 484.788 120.998 484.788 116.943C484.788 113.912 485.119 111.545 485.798 109.857C494.554 81.8763 510.318 59.0365 533.075 41.3224C555.832 23.6235 581.347 14.6082 609.665 14.2765H619.265C642.519 14.2765 663.498 19.4173 682.216 29.699C700.919 39.9807 715.583 54.0615 726.193 71.9263C736.803 89.8061 742.123 109.857 742.123 132.109C742.123 174.924 705.877 233.931 633.432 309.113H733.02H733.005Z" fill="#033A43"/>
<path d="M1034.56 326.812C1023.6 346.366 1007.93 361.547 987.552 372.326C967.146 383.12 943.138 388.668 915.513 389.015H912.484C884.497 388.337 859.314 379.08 836.903 361.2C814.493 343.335 799.076 320.752 790.651 293.435C789.973 291.746 789.641 289.394 789.641 286.349C789.641 282.309 791.073 278.841 793.936 275.977C796.8 273.113 800.583 271.002 805.315 269.66L844.243 260.554C845.584 260.223 847.438 260.057 849.804 260.057C853.843 260.057 857.309 261.157 860.173 263.343C863.036 265.544 865.99 268.997 869.019 273.716C874.083 282.49 880.82 289.138 889.245 293.691C897.669 298.244 905.928 300.686 914.006 301.018C928.836 300.686 940.711 296.299 949.648 287.872C958.57 279.444 963.046 268.153 963.046 253.996C963.046 239.84 957.998 229.8 947.885 221.885C937.773 213.97 924.299 210.005 907.45 210.005C898.679 210.005 888.657 211.618 877.369 214.814C866.081 218.026 856.043 221.975 847.287 226.694C843.911 228.383 841.229 229.227 839.194 229.227C835.818 229.227 832.277 227.704 828.584 224.674L803.31 204.442L800.779 201.91C797.071 199.211 795.549 195.171 796.227 189.774L818.472 32.488C820.16 23.3822 824.877 18.8293 832.623 18.8293H1010.07C1016.47 18.8293 1021.45 21.1058 1024.99 25.6587C1028.53 30.2116 1030.29 36.875 1030.29 45.6341V69.3935C1030.29 86.9266 1023.54 95.6857 1010.07 95.6857H888.235L881.664 147.772C897.503 144.411 911.821 142.722 924.631 142.722H925.641C964.734 143.054 995.404 153.426 1017.65 173.823C1039.89 194.236 1051.02 222.292 1051.02 258.022C1051.02 284.314 1045.53 307.244 1034.59 326.797L1034.56 326.812Z" fill="#033A43"/>
<path d="M352.194 386.814C347.869 387.296 344.433 386.467 341.856 384.281C339.294 382.11 337.772 378.929 337.304 374.708C336.973 371.799 337.154 368.814 337.847 365.798L397.708 39.7846C399.638 29.4125 404.912 23.7289 413.563 22.749L448.286 18.8293C452.355 18.377 455.731 19.2213 458.429 21.3771C461.112 23.5329 462.724 26.8798 463.237 31.4176C463.523 34.0106 463.463 36.7996 463.026 39.7997L402.787 365.859C400.858 376.246 395.704 381.914 387.31 382.849L352.21 386.814H352.194Z" fill="#033A43"/>
</g>
<defs>
<clipPath id="clip0_144_235">
<rect width="1039" height="377" fill="white" transform="translate(12 12)"/>
</clipPath>
</defs>
</svg>
