<?xml version="1.0" encoding="utf-8"?>
<!-- Generator: Adobe Illustrator 25.0.1, SVG Export Plug-In . SVG Version: 6.00 Build 0)  -->
<svg version="1.1" id="Layer_1" xmlns="http://www.w3.org/2000/svg" xmlns:xlink="http://www.w3.org/1999/xlink" x="0px" y="0px"
	 viewBox="0 0 300 90" style="enable-background:new 0 0 300 90;" xml:space="preserve">
<g>
	<g>
		<path d="M34.247,17.588h9v9.1h-9V17.588z M28.947,17.488h-9v13.6c-1.309-0.326-2.651-0.494-4-0.5c-9.3,0-15.4,5.8-15.4,14.9
			c0,9.4,5.7,14.2,16.7,14.3c3.925-0.014,7.841-0.382,11.7-1.1C28.947,58.688,28.947,17.488,28.947,17.488z M19.947,52.488
			c-1.024,0.169-2.063,0.236-3.1,0.2c-4.6,0-7.2-2.6-7.2-7.4s2.6-7.6,7.2-7.6c1.023-0.03,2.042,0.14,3,0.5L19.947,52.488z"/>
		<path d="M34.247,48.688c0,7.7-0.4,10.6-1.7,13.2s-3.2,4.1-7.2,5.9l8.3,4c4-1.9,5.8-3.8,7.4-6.6c1.4-2.8,2.1-6.3,2.1-13.5v-20.5h-9
			C34.147,31.188,34.247,48.688,34.247,48.688z M60.447,30.588c-4.125-0.059-8.205,0.866-11.9,2.7v6.8
			c3.254-1.675,6.842-2.598,10.5-2.7c2.3,0,3.1,0.6,3.1,2.3v1.9c-11,0.9-15.6,3.8-15.6,10c0,5.7,3.4,8.4,10.9,8.4
			c4.281-0.051,8.554-0.351,12.8-0.9v-18.2c0-3.7-0.2-5.4-0.9-6.8C68.047,31.688,65.147,30.588,60.447,30.588z M62.647,53.288
			c-1.416,0.282-2.857,0.416-4.3,0.4c-2.5,0-3.6-0.8-3.6-2.5c0-2.4,1.9-3.3,7.9-3.9L62.647,53.288z M149.747,60.288
			c9,0,14.8-5.7,14.8-15.2c0-9-5.5-14.6-14.4-14.6c-9.1,0-14.8,5.7-14.8,15.2C135.347,54.588,140.847,60.288,149.747,60.288z
			 M150.047,37.588c3.5,0,5.4,2.9,5.4,7.7s-2,7.7-5.5,7.7s-5.5-2.8-5.5-7.7S146.547,37.588,150.047,37.588z M136.247,31.888
			c-3.849-0.795-7.769-1.197-11.7-1.2c-13.1,0-20.6,5.7-20.6,15.8c0,8.1,5,13.3,12.8,13.3c1.969,0.067,3.925-0.345,5.7-1.2v0.2
			c0,5.7-2.5,8-8.4,8c-3.351,0.025-6.654-0.801-9.6-2.4v8.2c3.079,1.113,6.326,1.688,9.6,1.7c4.7,0,8.5-1,11.3-3.1
			c0.452-0.309,0.886-0.643,1.3-1c0.763-0.688,1.406-1.499,1.9-2.4c1.9-3,2.6-6.6,2.6-14.1v-2.5c-0.1-1.2-0.1-2.5-0.1-3.7l-0.1-4.8
			l-0.1-3.8v-0.9c1.8,0.2-0.4-0.2,2,0.2L136.247,31.888L136.247,31.888z M122.747,51.188v0.7c-1.089,0.401-2.24,0.604-3.4,0.6
			c-4,0-6.1-2.5-6.1-7c0-3.1,1.1-5.3,3.3-6.6c1.597-0.853,3.391-1.267,5.2-1.2h0.9v0.7l0.1,2.9l0.1,4.1c0,1.2,0.1,2.5,0.1,3.4
			L122.747,51.188z M88.847,30.588c-4.729,0.111-9.429,0.783-14,2v26.9h9v-21.2c1.325-0.435,2.706-0.671,4.1-0.7
			c3.2,0,4.3,1.2,4.3,4.7v17.1h9v-17.4c0-4.4-0.6-6.6-2.5-8.4C96.947,31.788,93.447,30.588,88.847,30.588z M223.847,45.588
			c0-9-5.5-14.6-14.4-14.6c-9.1,0-14.8,5.7-14.8,15.2c0,9,5.5,14.6,14.5,14.6C218.047,60.788,223.847,54.888,223.847,45.588z
			 M203.647,45.788c0-4.9,2-7.7,5.6-7.7s5.4,2.9,5.4,7.7s-2,7.7-5.5,7.7S203.647,50.788,203.647,45.788z M243.947,42.888v17.1h9
			v-17.5c0-4.4-0.6-6.6-2.5-8.4c-1.8-1.8-5.3-3.1-9.9-3.1c-4.729,0.111-9.429,0.783-14,2v27.1h9v-21.2
			c1.318-0.45,2.708-0.654,4.1-0.6C242.747,38.188,243.947,39.488,243.947,42.888L243.947,42.888z M281.047,59.188
			c1.2-1.3,1.7-2.8,1.7-5.8v-12.2h-6.2v11.9c0,2.5-0.8,3.3-3,3.3c-0.985-0.028-1.962-0.197-2.9-0.5v-14.7h-6.1v18.7
			c3.2,0.838,6.492,1.274,9.8,1.3C277.347,61.388,279.747,60.688,281.047,59.188z M172.047,56.588c2.9,2.7,8.2,3.7,11.8,3.6
			c2.821-0.01,5.599-0.695,8.1-2v-7.2c-1.903,0.93-3.983,1.442-6.1,1.5c-3.5,0-9-1.3-9-7.5s5.5-7.5,9-7.5
			c2.079,0.056,4.11,0.641,5.9,1.7v-7.3c-2.452-1.106-5.11-1.685-7.8-1.7c-3.6,0-8.5,1-11.4,3.9c-3.093,2.783-4.871,6.739-4.9,10.9
			C167.198,49.333,168.829,53.634,172.047,56.588z M292.347,48.588c-1.4-0.7-1.3-1.4-1.3-1.4s0-1.2,2.5-1.2
			c1.797,0.042,3.567,0.45,5.2,1.2v-4.7c-1.965-0.919-4.14-1.299-6.3-1.1c-7.3,0.3-7.2,5.7-7.2,5.7
			c-0.112,1.483,0.354,2.952,1.3,4.1c1.522,1.251,3.247,2.232,5.1,2.9c1.3,0.5,1.8,1.1,1.8,1.4s0.2,1.3-2.5,1.3
			c-1.978-0.131-3.913-0.64-5.7-1.5v4.9c2.709,1.025,5.628,1.368,8.5,1c2.7-0.5,5.4-1.3,5.7-5.7
			C299.647,51.188,295.347,49.888,292.347,48.588z M255.147,52.788h7.2v7.2h-7.2L255.147,52.788L255.147,52.788z"/>
		<path d="M139.576,88.377c-1.117-0.415-2.101-1.122-2.851-2.048c-0.625-0.792-0.984-1.76-1.025-2.768
			c-0.004-0.158,0.062-0.31,0.18-0.415c0.116-0.109,0.27-0.169,0.429-0.166h3.682c0.186-0.008,0.372,0.031,0.54,0.111
			c0.173,0.103,0.327,0.234,0.457,0.388c0.262,0.464,0.651,0.843,1.121,1.093c0.631,0.314,1.331,0.462,2.035,0.429
			c0.793,0.044,1.584-0.113,2.3-0.456c0.487-0.231,0.798-0.721,0.8-1.26c0.011-0.364-0.141-0.714-0.415-0.955
			c-0.393-0.309-0.846-0.535-1.329-0.664c-0.609-0.194-1.486-0.411-2.63-0.651c-1.808-0.265-3.526-0.957-5.011-2.021
			c-1.132-0.959-1.748-2.395-1.661-3.876c-0.015-1.095,0.319-2.167,0.955-3.059c0.691-0.937,1.631-1.662,2.713-2.091
			c1.297-0.521,2.686-0.775,4.083-0.747c1.452-0.035,2.895,0.253,4.222,0.844c1.07,0.468,2.01,1.189,2.74,2.1
			c0.582,0.703,0.934,1.568,1.01,2.477c0.003,0.159-0.057,0.313-0.166,0.429c-0.105,0.118-0.257,0.184-0.415,0.18h-3.876
			c-0.38,0.013-0.739-0.177-0.941-0.5c-0.145-0.428-0.454-0.782-0.859-0.983c-0.527-0.283-1.119-0.421-1.716-0.4
			c-0.627-0.036-1.252,0.108-1.8,0.415c-0.416,0.262-0.66,0.727-0.637,1.218c0.008,0.546,0.332,1.037,0.831,1.259
			c0.989,0.442,2.031,0.754,3.1,0.927c1.422,0.224,2.811,0.619,4.138,1.177c0.915,0.381,1.703,1.015,2.27,1.828
			c0.518,0.853,0.773,1.84,0.734,2.837c0.025,1.181-0.356,2.334-1.08,3.267c-0.782,0.968-1.816,1.701-2.989,2.118
			c-1.401,0.511-2.883,0.76-4.374,0.734C142.583,89.19,141.033,88.928,139.576,88.377z"/>
		<path d="M153.459,88.696c-0.112-0.103-0.177-0.248-0.179-0.4c-0.003-0.084,0.006-0.168,0.027-0.249l6.451-17.746
			c0.133-0.496,0.596-0.83,1.108-0.8h4.318c0.512-0.03,0.975,0.304,1.108,0.8l6.455,17.744c0.022,0.081,0.031,0.165,0.028,0.249
			c-0.017,0.313-0.268,0.564-0.581,0.581h-3.6c-0.412,0.02-0.791-0.225-0.942-0.609l-1-2.685h-7.254l-1,2.685
			c-0.151,0.384-0.53,0.629-0.942,0.609h-3.6C153.704,88.872,153.561,88.808,153.459,88.696z M160.559,81.429h4.928l-2.464-7.06
			L160.559,81.429z"/>
		<path d="M175.08,88.669c-0.133-0.126-0.208-0.302-0.207-0.485V70.217c-0.005-0.19,0.064-0.374,0.194-0.512
			c0.128-0.139,0.311-0.215,0.5-0.208h3.128c0.389-0.019,0.755,0.185,0.942,0.526l6.534,10.326V70.217
			c-0.005-0.19,0.064-0.374,0.194-0.512c0.128-0.139,0.311-0.215,0.5-0.208h3.515c0.189-0.007,0.372,0.069,0.5,0.208
			c0.129,0.139,0.199,0.322,0.194,0.512v17.94c0.005,0.189-0.065,0.373-0.194,0.512c-0.129,0.138-0.311,0.214-0.5,0.207h-3.133
			c-0.389,0.02-0.755-0.184-0.942-0.525l-6.506-9.911v9.748c0.007,0.189-0.069,0.371-0.207,0.5c-0.139,0.13-0.323,0.2-0.513,0.194
			h-3.515C175.38,88.881,175.205,88.804,175.08,88.669z"/>
		<path d="M200.853,88.669c-0.133-0.126-0.208-0.302-0.207-0.485V70.217c-0.005-0.19,0.064-0.374,0.194-0.512
			c0.128-0.139,0.311-0.215,0.5-0.208h7.281c2.289-0.142,4.552,0.552,6.368,1.952c1.573,1.433,2.442,3.48,2.381,5.606
			c0.018,0.533,0.027,1.244,0.028,2.131s-0.009,1.587-0.028,2.1c-0.185,5.057-3.055,7.585-8.61,7.585h-7.419
			C201.157,88.874,200.98,88.801,200.853,88.669z M208.619,84.723c0.935,0.078,1.862-0.221,2.575-0.83
			c0.622-0.741,0.939-1.692,0.886-2.658c0.037-0.533,0.056-1.225,0.056-2.076s-0.019-1.534-0.056-2.049
			c0.046-0.965-0.298-1.908-0.955-2.616c-0.74-0.611-1.686-0.913-2.643-0.844h-2.635v11.074h2.768L208.619,84.723z"/>
		<path d="M220.758,88.669c-0.133-0.126-0.208-0.302-0.207-0.485v-18c-0.007-0.189,0.069-0.371,0.207-0.5
			c0.13-0.126,0.304-0.195,0.485-0.194h3.959c0.366-0.016,0.676,0.268,0.692,0.635c0.001,0.019,0.001,0.038,0,0.057v18
			c0.001,0.181-0.068,0.355-0.194,0.485c-0.129,0.138-0.311,0.213-0.5,0.207h-3.953C221.062,88.876,220.885,88.802,220.758,88.669z"
			/>
		<path d="M229.867,88.669c-0.133-0.126-0.208-0.302-0.207-0.485V70.217c-0.005-0.19,0.064-0.374,0.194-0.512
			c0.128-0.139,0.311-0.215,0.5-0.208h13.067c0.392-0.006,0.714,0.308,0.72,0.7c0,0.007,0,0.013,0,0.02v2.74
			c0.007,0.189-0.069,0.372-0.208,0.5c-0.138,0.13-0.322,0.199-0.512,0.194h-8.749v3.516h8.139c0.392-0.006,0.714,0.306,0.72,0.698
			c0,0.007,0,0.014,0,0.021v2.52c0.006,0.392-0.308,0.714-0.7,0.72c-0.007,0-0.013,0-0.02,0h-8.139v3.6h8.97
			c0.392-0.006,0.713,0.307,0.719,0.699c0,0.007,0,0.014,0,0.021v2.74c0.007,0.189-0.069,0.371-0.207,0.5
			c-0.138,0.13-0.322,0.199-0.512,0.194h-13.295C230.164,88.879,229.991,88.802,229.867,88.669z"/>
		<path d="M249.093,87.201c-1.57-1.425-2.448-3.458-2.408-5.578c-0.019-0.517-0.029-1.357-0.028-2.52s0.01-2.012,0.028-2.547
			c-0.041-2.075,0.848-4.06,2.422-5.412c1.795-1.365,4.018-2.047,6.27-1.924c1.588-0.035,3.166,0.258,4.637,0.858
			c1.176,0.466,2.214,1.223,3.017,2.2c0.647,0.779,1.029,1.743,1.093,2.754c-0.002,0.335-0.273,0.606-0.608,0.609h-4.291
			c-0.15,0.007-0.298-0.027-0.429-0.1c-0.115-0.078-0.213-0.176-0.291-0.291c-0.232-0.529-0.599-0.988-1.065-1.329
			c-0.609-0.403-1.334-0.598-2.063-0.553c-2.141,0-3.249,1.107-3.322,3.322c-0.019,0.517-0.029,1.31-0.028,2.381
			s0.01,1.874,0.028,2.409c0.073,2.344,1.198,3.516,3.377,3.515c0.918,0.05,1.823-0.234,2.548-0.8
			c0.666-0.628,1.012-1.524,0.941-2.437v-0.5h-2.464c-0.392,0.006-0.714-0.306-0.72-0.698c0-0.007,0-0.014,0-0.021v-2.151
			c-0.006-0.392,0.307-0.713,0.699-0.719c0.007,0,0.014,0,0.021,0h7.032c0.392-0.006,0.714,0.306,0.72,0.698
			c0,0.007,0,0.014,0,0.021V81.6c0.038,1.429-0.342,2.839-1.094,4.055c-0.75,1.152-1.824,2.056-3.087,2.6
			c-1.469,0.628-3.054,0.935-4.651,0.9C253.114,89.288,250.881,88.593,249.093,87.201z"/>
		<path d="M269.108,87.243c-1.585-1.432-2.465-3.485-2.408-5.62c-0.019-0.517-0.029-1.31-0.028-2.381s0.01-1.874,0.028-2.409
			c-0.056-2.142,0.829-4.2,2.422-5.633c3.692-2.64,8.655-2.64,12.347,0c1.593,1.433,2.478,3.491,2.422,5.633
			c0.037,1.071,0.055,1.874,0.055,2.409c0,0.553-0.018,1.346-0.055,2.381c0.057,2.132-0.817,4.184-2.394,5.62
			C277.76,89.79,272.845,89.79,269.108,87.243L269.108,87.243z M277.608,84.128c0.631-0.743,0.957-1.698,0.913-2.672
			c0.037-1.067,0.056-1.833,0.056-2.3s-0.019-1.214-0.056-2.243c0.044-0.974-0.282-1.928-0.913-2.671
			c-0.612-0.597-1.446-0.913-2.3-0.872c-0.863-0.044-1.705,0.271-2.326,0.872c-0.632,0.742-0.958,1.697-0.913,2.671
			c-0.015,0.517-0.022,1.265-0.022,2.246c0,1,0.009,1.763,0.028,2.3c-0.045,0.974,0.281,1.929,0.913,2.672
			c0.621,0.6,1.463,0.916,2.326,0.871C276.167,85.042,276.998,84.725,277.608,84.128z"/>
	</g>
	<path d="M51.928,21.119c-0.139-0.13-0.217-0.313-0.215-0.503v-2.15c0-0.826,0.564-1.308,1.123-1.82
		c0.778-0.719,1.583-1.408,2.383-2.107c2.006-1.739,4.476-3.305,6.116-5.407c0.434-0.489,0.692-1.11,0.73-1.764
		c0.147-1.025-0.565-1.975-1.59-2.123c-0.176-0.025-0.355-0.025-0.532,0c-0.645-0.041-1.275,0.206-1.721,0.673
		c-0.415,0.476-0.693,1.056-0.805,1.678c-0.108,0.437-0.53,0.722-0.976,0.66h-3.783c-0.167,0.002-0.328-0.065-0.444-0.186
		c-0.117-0.107-0.185-0.257-0.187-0.415c0.025-1.217,0.388-2.404,1.047-3.428c0.686-1.047,1.642-1.889,2.768-2.438
		c1.276-0.624,2.682-0.934,4.102-0.905c1.425-0.034,2.841,0.229,4.158,0.774c1.081,0.447,2.005,1.206,2.652,2.18
		c0.615,0.978,0.93,2.115,0.905,3.27c0.008,1.351-0.442,2.665-1.277,3.727c-1.066,1.399-2.298,2.665-3.668,3.769l-2.599,2.232h7.255
		c0.379-0.017,0.699,0.276,0.716,0.655c0.001,0.021,0.001,0.041,0,0.062v3.069c0.003,0.188-0.07,0.369-0.201,0.503
		c-0.133,0.143-0.321,0.222-0.516,0.215H52.43C52.24,21.339,52.058,21.259,51.928,21.119z"/>
	<path d="M72.853,19.528c-1.415-1.466-2.225-3.412-2.267-5.45c-0.037-1.032-0.056-1.96-0.056-2.783c0-0.841,0.019-1.797,0.056-2.867
		c0.051-1.343,0.42-2.655,1.076-3.828c0.654-1.132,1.62-2.053,2.782-2.654c1.372-0.685,2.893-1.02,4.426-0.974
		c1.539-0.045,3.066,0.289,4.446,0.974c1.167,0.598,2.138,1.519,2.796,2.654c0.656,1.173,1.025,2.485,1.075,3.828
		c0.038,0.537,0.057,1.492,0.057,2.867c0,1.341-0.019,2.269-0.057,2.783c-0.041,2.037-0.85,3.984-2.266,5.45
		c-1.656,1.479-3.835,2.233-6.051,2.093C76.665,21.758,74.497,21.004,72.853,19.528z M80.878,16.416
		c0.486-0.734,0.737-1.6,0.717-2.481c0.038-0.553,0.057-1.452,0.057-2.695s-0.019-2.123-0.057-2.639
		c0.011-0.871-0.239-1.724-0.717-2.452c-0.475-0.622-1.232-0.962-2.012-0.905c-1.721,0-2.629,1.118-2.724,3.355
		c-0.02,0.516-0.03,1.395-0.029,2.639c0.001,1.243,0.01,2.142,0.029,2.695c0.095,2.237,1.003,3.356,2.724,3.356
		C79.639,17.348,80.392,17.021,80.878,16.416z"/>
	<path d="M90.157,21.119c-0.139-0.13-0.217-0.313-0.215-0.503v-2.15c0-0.826,0.564-1.308,1.123-1.82
		c0.778-0.719,1.583-1.408,2.383-2.107c2.006-1.739,4.476-3.305,6.116-5.407c0.435-0.489,0.692-1.11,0.731-1.764
		c0.147-1.025-0.565-1.975-1.59-2.123c-0.176-0.025-0.355-0.025-0.532,0c-0.645-0.041-1.275,0.206-1.721,0.673
		c-0.415,0.476-0.693,1.056-0.805,1.678c-0.108,0.437-0.53,0.722-0.976,0.66h-3.784c-0.167,0.002-0.328-0.065-0.444-0.186
		c-0.117-0.107-0.185-0.257-0.187-0.415c0.025-1.217,0.388-2.404,1.047-3.428c0.686-1.047,1.642-1.889,2.768-2.438
		c1.276-0.624,2.682-0.934,4.102-0.905c1.425-0.034,2.841,0.229,4.158,0.774c1.081,0.447,2.005,1.206,2.652,2.18
		c0.615,0.978,0.93,2.115,0.905,3.27c0.008,1.351-0.442,2.665-1.277,3.727c-1.066,1.399-2.298,2.665-3.668,3.769l-2.599,2.232h7.255
		c0.379-0.017,0.699,0.276,0.716,0.655c0.001,0.021,0.001,0.041,0,0.062v3.069c0.003,0.188-0.07,0.369-0.201,0.503
		c-0.133,0.143-0.321,0.222-0.516,0.215h-14.94C90.468,21.339,90.287,21.259,90.157,21.119z"/>
	<path d="M108.847,21.119c-0.139-0.13-0.217-0.313-0.215-0.503v-2.15c0-0.826,0.564-1.308,1.123-1.82
		c0.778-0.719,1.583-1.408,2.383-2.107c2.006-1.739,4.476-3.305,6.116-5.407c0.435-0.489,0.692-1.11,0.731-1.764
		c0.147-1.025-0.565-1.975-1.59-2.123c-0.176-0.025-0.355-0.025-0.532,0c-0.645-0.041-1.275,0.206-1.721,0.673
		c-0.415,0.476-0.693,1.056-0.805,1.678c-0.108,0.437-0.53,0.722-0.976,0.66h-3.784c-0.167,0.002-0.328-0.065-0.444-0.186
		c-0.117-0.107-0.185-0.257-0.187-0.415c0.025-1.217,0.388-2.404,1.047-3.428c0.686-1.047,1.642-1.889,2.768-2.438
		c1.276-0.624,2.682-0.934,4.102-0.905c1.425-0.034,2.841,0.229,4.158,0.774c1.081,0.447,2.005,1.206,2.652,2.18
		c0.615,0.978,0.93,2.115,0.905,3.27c0.008,1.351-0.442,2.665-1.277,3.727c-1.066,1.399-2.298,2.665-3.668,3.769l-2.599,2.232h7.255
		c0.379-0.017,0.699,0.276,0.716,0.655c0.001,0.021,0.001,0.041,0,0.062v3.069c0.003,0.188-0.07,0.369-0.201,0.503
		c-0.133,0.143-0.321,0.222-0.516,0.215h-14.94C109.158,21.339,108.976,21.259,108.847,21.119z"/>
</g>
</svg>
