<?xml version="1.0" encoding="utf-8"?>
<!-- Generator: Adobe Illustrator 25.0.1, SVG Export Plug-In . SVG Version: 6.00 Build 0)  -->
<svg version="1.1" id="Layer_1" xmlns="http://www.w3.org/2000/svg" xmlns:xlink="http://www.w3.org/1999/xlink" x="0px" y="0px"
	 viewBox="0 0 400 150" style="enable-background:new 0 0 400 150;" xml:space="preserve">
<g>
	<path d="M133.7,7.3h11.6c1.1,0,2,0.9,2,2v131.1c0,1.1-0.9,2-2,2h-11.6c-1.1,0-2-0.9-2-2V9.3C131.6,8.2,132.6,7.3,133.7,7.3z"/>
	<path d="M5.2,65.9c-0.4-0.4-0.6-0.9-0.6-1.5V10c0-0.6,0.2-1.1,0.6-1.6C5.5,8,6.1,7.8,6.6,7.8h22c8.3,0,14.7,2,19.3,5.9
		s7,9.6,7.2,17c0.1,1.6,0.1,3.8,0.1,6.5c0,2.7,0,4.8-0.1,6.4c-0.6,15.3-9.3,23-26.1,23H6.6C6.1,66.5,5.5,66.3,5.2,65.9z M28.7,53.9
		c3.5,0,6.1-0.8,7.8-2.5c1.7-1.7,2.6-4.4,2.7-8c0.1-1.6,0.2-3.7,0.2-6.3c0-2.6-0.1-4.6-0.2-6.2c-0.1-3.6-1.1-6.2-2.9-7.9
		c-1.8-1.7-4.5-2.6-8-2.6h-8v33.5L28.7,53.9z"/>
	<path d="M70.3,61.6c-4.6-3.9-7-9.5-7.3-16.9c-0.1-1.5-0.1-4-0.1-7.4c0-3.5,0-6,0.1-7.5c0.3-7.3,2.7-12.9,7.3-16.8
		C75,9,81.2,7,89.1,7c4.6-0.1,9.1,0.8,13.4,2.4c3.7,1.4,6.9,3.9,9.3,7c2.3,3.2,3.6,7,3.6,10.9c0,0.5-0.2,0.9-0.5,1.3
		c-0.4,0.3-0.8,0.5-1.3,0.5h-11.9c-0.6,0.1-1.2-0.1-1.7-0.5c-0.5-0.5-0.8-1.1-1-1.7c-0.8-2.7-2-4.7-3.6-5.7
		c-1.9-1.2-4.1-1.7-6.3-1.6c-6.3,0-9.6,3.5-9.8,10.6c-0.1,1.5-0.1,3.8-0.1,7s0,5.5,0.1,7.1c0.2,7,3.5,10.6,9.8,10.6
		c2.2,0.1,4.4-0.5,6.3-1.7c1.8-1.4,3.1-3.4,3.6-5.7c0.1-0.7,0.4-1.3,0.9-1.7c0.5-0.3,1.1-0.5,1.8-0.5h11.9c0.5,0,0.9,0.2,1.3,0.5
		c0.4,0.3,0.6,0.8,0.5,1.3c0,3.9-1.3,7.7-3.6,10.9c-2.4,3.2-5.6,5.6-9.3,7c-4.3,1.7-8.8,2.5-13.4,2.4C81.1,67.4,74.9,65.4,70.3,61.6
		z"/>
	<path d="M11.3,136.7c-4.6-3.9-6.9-9.8-6.9-17.6V84.4c0-0.6,0.2-1.1,0.6-1.6c0.4-0.4,1-0.7,1.5-0.6h11.7c1.2,0,2.2,0.9,2.2,2.1
		c0,0,0,0,0,0.1v34.6c0,3.5,0.8,6.2,2.5,7.9c1.7,1.8,4.1,2.6,7.2,2.6c3.1,0,5.5-0.9,7.2-2.7c1.7-1.8,2.5-4.4,2.5-7.9V84.4
		c0-1.2,0.9-2.2,2.1-2.2c0,0,0,0,0.1,0h11.6c1.2,0,2.2,0.9,2.2,2.2c0,0,0,0,0,0.1v34.7c0,7.8-2.3,13.7-6.8,17.6
		c-4.5,3.9-10.8,5.9-18.8,5.9C22.2,142.6,15.9,140.7,11.3,136.7z"/>
	<path d="M75.4,140.2c-3.4-1.3-6.5-3.5-8.8-6.3c-1.9-2.4-3-5.4-3.1-8.5c0-0.5,0.2-1,0.6-1.3c0.4-0.3,0.8-0.5,1.3-0.5h11.3
		c0.6,0,1.1,0.1,1.7,0.3c0.5,0.3,1,0.7,1.4,1.2c0.8,1.4,2,2.6,3.4,3.4c1.9,1,4.1,1.4,6.3,1.3c2.4,0.1,4.9-0.3,7.1-1.4
		c1.5-0.7,2.5-2.2,2.5-3.9c0-1.1-0.4-2.2-1.3-2.9c-1.2-1-2.6-1.6-4.1-2c-1.9-0.6-4.6-1.3-8.1-2c-6.9-1.4-12-3.4-15.4-6.2
		s-5.1-6.8-5.1-11.9c0-3.4,1-6.7,2.9-9.4c2.1-2.9,5-5.1,8.3-6.4c4-1.6,8.3-2.4,12.6-2.3c4.5-0.1,8.9,0.8,13,2.6
		c3.3,1.4,6.2,3.7,8.4,6.5c1.8,2.2,2.9,4.8,3.1,7.6c0,0.5-0.2,1-0.5,1.3c-0.3,0.4-0.8,0.6-1.3,0.6H99.7c-1.2,0-2.3-0.5-2.9-1.5
		c-0.4-1.3-1.4-2.4-2.6-3c-1.6-0.9-3.4-1.3-5.3-1.2c-1.9-0.1-3.8,0.3-5.5,1.3c-1.3,0.8-2,2.2-2,3.7c0,1.7,1,3.2,2.6,3.9
		c1.7,0.9,4.9,1.9,9.5,2.9c4.4,0.7,8.6,1.9,12.7,3.6c2.8,1.2,5.2,3.1,7,5.6c1.6,2.6,2.4,5.7,2.3,8.7c0.1,3.6-1.1,7.2-3.3,10
		c-2.4,3-5.6,5.2-9.2,6.5c-4.3,1.6-8.9,2.3-13.4,2.3C84.7,142.7,79.9,141.9,75.4,140.2z"/>
	<path d="M164.8,140.2c-0.9-0.9-1.4-2.1-1.4-3.3v-14.2c0-5.5,3.7-8.6,7.4-12c5.1-4.8,10.5-9.3,15.8-13.9
		c13.2-11.5,29.6-21.8,40.4-35.7c3.2-4.1,4.8-8,4.8-11.7c0-9.4-4.7-14-14-14c-4.9,0-8.7,1.5-11.4,4.5c-2.7,3.1-4.6,7-5.3,11.1
		c-0.8,2.9-2.9,4.4-6.4,4.4h-25c-1.1,0-2.2-0.4-2.9-1.2c-0.8-0.7-1.2-1.7-1.2-2.7c0.2-8,2.6-15.9,6.9-22.6
		c4.5-6.9,10.9-12.5,18.3-16.1c7.8-4,16.9-6,27.1-6c10.6,0,19.8,1.7,27.5,5.1c7.7,3.4,13.6,8.2,17.5,14.4c4.1,6.5,6.1,14,6,21.6
		c0.1,8.9-2.9,17.6-8.4,24.6c-5.6,7.3-8,10.4-24.2,24.9l-17.2,14.7h47.9c2.5-0.1,4.6,1.8,4.7,4.3c0,0.1,0,0.3,0,0.4v20.3
		c0,1.2-0.5,2.4-1.3,3.3c-0.9,0.9-2.1,1.5-3.4,1.4h-98.7C166.8,141.6,165.6,141.1,164.8,140.2z"/>
	<path d="M288.8,140.2c-0.9-0.9-1.4-2.1-1.4-3.3v-14.2c0-5.5,3.7-8.6,7.4-12c5.1-4.8,10.5-9.3,15.8-13.9
		c13.2-11.5,29.6-21.8,40.4-35.7c3.2-4.1,4.8-8,4.8-11.7c0-9.4-4.7-14-14-14c-4.9,0-8.7,1.5-11.4,4.5c-2.7,3.1-4.6,7-5.3,11.1
		c-0.8,2.9-2.9,4.4-6.4,4.4h-25c-1.1,0-2.2-0.4-2.9-1.2c-0.8-0.7-1.2-1.7-1.2-2.7c0.2-8,2.6-15.9,6.9-22.6
		c4.5-6.9,10.9-12.5,18.3-16.1c7.8-4,16.9-6,27.1-6c10.6,0,19.8,1.7,27.5,5.1c7.7,3.4,13.6,8.2,17.5,14.4c4.1,6.5,6.1,14,6,21.6
		c0.1,8.9-2.9,17.6-8.4,24.6c-5.6,7.3-8,10.4-24.2,24.9l-17.2,14.7h47.9c2.5-0.1,4.6,1.8,4.7,4.3c0,0.1,0,0.3,0,0.4v20.3
		c0,1.2-0.5,2.4-1.3,3.3c-0.9,0.9-2.1,1.5-3.4,1.4h-98.7C290.8,141.6,289.6,141.1,288.8,140.2z"/>
</g>
</svg>
