<svg id="Layer_1" data-name="Layer 1" xmlns="http://www.w3.org/2000/svg" viewBox="0 0 100 100"><title>globe</title><path d="M82,41.4A35.6,35.6,0,1,1,46.4,5.9,35.7,35.7,0,0,1,82,41.4Z" fill="#f7b07c"/><path d="M46.4,77.6A36.2,36.2,0,1,1,82.5,41.4,36.2,36.2,0,0,1,46.4,77.6ZM46.4,7A34.4,34.4,0,1,0,80.7,41.4,34.4,34.4,0,0,0,46.4,7Z" fill="#171d2f"/><path d="M47.2,84.2V93H65.5a.9.9,0,1,1,0,1.8H27.1a.9.9,0,1,1,0-1.8H45.4V84.1A42.2,42.2,0,0,1,17.6,71.8a.9.9,0,0,1,0-1.3.9.9,0,0,1,1.2,0A40.5,40.5,0,0,0,88,41.8,40.2,40.2,0,0,0,76.2,13.2a.9.9,0,0,1,0-1.3.9.9,0,0,1,1.2,0A42.4,42.4,0,0,1,47.5,84.2Z" fill="#171d2f"/></svg>