<svg id="Layer_1" data-name="Layer 1" xmlns="http://www.w3.org/2000/svg" viewBox="0 0 100 100"><title>hands</title><path d="M26.3,15.4l-22,23c-.3.3.9.2,1.2.6l16,16-.3.3a6,6,0,0,0,0,8.4,6,6,0,0,0,4.3,1.8A12,12,0,0,0,30,64c-.6.9-2.3,2.6-2.3,3.8A6,6,0,0,0,29.5,72c2,2,6.5.8,8.8-.6-1.5,2.3-2.5,6.8-.5,8.9a6,6,0,0,0,8.4,0l.3-.3,5.8,5.7a5.6,5.6,0,0,0,3.9,1.7h.1a5.5,5.5,0,0,0,3.8-1.6l.2-.2c1.5-1.4,1.4-3.4,1-5.2a7.1,7.1,0,0,0,5.9-1.7c1.4-1.4.5-4.5.1-6.3.4.1,2.3,1.1,2.7,1.1a5.8,5.8,0,0,0,4.1-1.7,5.7,5.7,0,0,0,1.5-5.4A5.5,5.5,0,0,0,81,64.9c2.1-2.1,1.1-5.3-.7-7.5-1.1.1-.9.1-1,0l-4-5L95.6,33.2a.9.9,0,0,0,.3-.6.9.9,0,0,0-.3-.7L76.1,12.4a1.1,1.1,0,0,0-1.3,0l-9.2,9.3L59.9,21A10.9,10.9,0,0,0,51,24.1L49.2,26c-3-1.5-6.8-2-11.5-1.6-.3,0-.6.1-.8,0s-1.4,1.2-1.6,1-2.3-3.3-4-5l-4-4Z" fill="#fbaecd"/><path d="M29.6,60a5.8,5.8,0,0,1-.4,1.8,3.8,3.8,0,0,1-.9,1.3h-.2a3.9,3.9,0,0,1-2.9,1.1,4.2,4.2,0,0,1-3-1.2A4.2,4.2,0,0,1,20.9,60,4.4,4.4,0,0,1,22,57.1c0-.1.1-.1.2-.2a3.4,3.4,0,0,1,1.2-.9,5.8,5.8,0,0,1,1.8-.4,4.6,4.6,0,0,1,3.1,1.3A4.4,4.4,0,0,1,29.6,60Z" fill="#fbaecd"/><path d="M29.2,64.3l-.7.9.9-.7Z" fill="#171d2f"/><path d="M96.2,31.7a1.1,1.1,0,0,0-1.3,0L75.3,51.3,56.6,32.6a.9.9,0,0,0-1.2,0l-7.6,7.5a12.4,12.4,0,0,0-2,2.9,8.2,8.2,0,0,1-4.3,4.6c-1.2.4-3.6.3-4.1-.7s0-4,1.8-8.5a6.7,6.7,0,0,1,1.6-2.5L51.8,25a9.2,9.2,0,0,1,7.5-2.7l6.3.7a.6.6,0,0,0,.7-.2L76.2,13a1,1,0,0,0,0-1.3.9.9,0,0,0-1.3,0l-9.5,9.5-5.9-.7a10.9,10.9,0,0,0-9,3.2l-1.9,1.9c-3.1-1.5-6.9-2.1-11.8-1.6h-.9l-.5-.5-8.7-8.6a.8.8,0,0,0-1.2,1.2l8.6,8.7a3.6,3.6,0,0,0,1.2.8,3.2,3.2,0,0,0,1.6.2c4.3-.4,7.7,0,10.3,1.2l-7.7,7.7a7.2,7.2,0,0,0-2,3.1c-2.1,5.2-2.8,7.9-1.7,9.9S40.2,50,42,49.3s4.2-2.8,5.5-5.5a7.2,7.2,0,0,1,1.6-2.4L56,34.5l23.9,24a3.8,3.8,0,0,1,1.2,2.9,4,4,0,0,1-1.2,2.9,4.1,4.1,0,0,1-5.8,0L58.8,49a.8.8,0,0,0-1.2,0,.9.9,0,0,0,0,1.3L72.8,65.5A4.1,4.1,0,1,1,67,71.3L51.8,56a1,1,0,0,0-1.3,0,.9.9,0,0,0,0,1.3L65.8,72.6a4.1,4.1,0,0,1,0,5.8,4.1,4.1,0,0,1-5.8,0L44.7,63.1a.9.9,0,1,0-1.3,1.3L58.7,79.7a4.1,4.1,0,0,1,0,5.8h-.1a4,4,0,0,1-5.6,0l-5.5-5.5a6.8,6.8,0,0,0,.8-3.1,6,6,0,0,0-1.8-4.4,5.8,5.8,0,0,0-4.3-1.8,5.6,5.6,0,0,0-3.1.9h-.2v-.2a5.6,5.6,0,0,0,.9-3.1,6.5,6.5,0,0,0-1.8-4.4,6.2,6.2,0,0,0-7.5-.9h-.2c.1-.1.1-.1.1-.2a5.6,5.6,0,0,0,.9-3.1,6.5,6.5,0,0,0-1.8-4.4,6.2,6.2,0,0,0-7.5-.9l-17-17a.9.9,0,0,0-1.3,0,.9.9,0,0,0,0,1.2L20.7,55.8A6.5,6.5,0,0,0,19.1,60a6.1,6.1,0,0,0,6.1,6.1,6,6,0,0,0,3.3-.9,6,6,0,0,0-.9,3.3,6,6,0,0,0,1.8,4.3,5.8,5.8,0,0,0,4.3,1.8,5.6,5.6,0,0,0,3.3-1A6.7,6.7,0,0,0,36,77a6.4,6.4,0,0,0,1.8,4.3,6.2,6.2,0,0,0,4.4,1.8,5.7,5.7,0,0,0,4.1-1.6l5.5,5.4a5.6,5.6,0,0,0,8,0H60a5.7,5.7,0,0,0,1.5-5.5h1.4A5.7,5.7,0,0,0,67,79.7a5.8,5.8,0,0,0,1.6-5.5h1.3a5.5,5.5,0,0,0,4.2-1.7,6,6,0,0,0,1.6-5.5l1.3.2a5.6,5.6,0,0,0,4.2-1.8,5.7,5.7,0,0,0,1.7-4.1,5.9,5.9,0,0,0-1.7-4.2l-4.6-4.6L96.2,33A1.1,1.1,0,0,0,96.2,31.7ZM28.3,63.1h-.2a3.9,3.9,0,0,1-2.9,1.1,4.2,4.2,0,0,1-3-1.2,4.4,4.4,0,0,1-.2-6c0-.1.1-.1.2-.2a3,3,0,0,1,1.3-.9,4.7,4.7,0,0,1,1.7-.4,4.6,4.6,0,0,1,3.1,1.3A4.4,4.4,0,0,1,29.6,60a3.9,3.9,0,0,1-.4,1.8A5.1,5.1,0,0,1,28.3,63.1Zm9.4,7.2a3.4,3.4,0,0,1-.9,1.2c-.1.1-.1.2-.2.2a4.4,4.4,0,0,1-6-.2,4.2,4.2,0,0,1-1.2-3,4.4,4.4,0,0,1,1.1-2.9v-.2a5.1,5.1,0,0,1,1.3-.9,3.9,3.9,0,0,1,1.8-.4,4.3,4.3,0,0,1,3.1,1.3,4.4,4.4,0,0,1,1.3,3.1A5.8,5.8,0,0,1,37.7,70.3Zm8.5,8.4L45.3,80c-.1.1-.2.1-.2.2A4.4,4.4,0,0,1,37.8,77,4,4,0,0,1,39,74.1v-.2a3.8,3.8,0,0,1,1.3-.9,3.9,3.9,0,0,1,1.8-.4,4,4,0,0,1,3.1,1.3A4.3,4.3,0,0,1,46.5,77,4.7,4.7,0,0,1,46.2,78.7Z" fill="#171d2f"/></svg>