<svg id="Layer_1" data-name="Layer 1" xmlns="http://www.w3.org/2000/svg" viewBox="0 0 100 100"><title>heart</title><path d="M45.9,20.6l1.4,1.8a.8.8,0,0,0,1.2.2A16.4,16.4,0,0,0,45.9,20.6Z" fill="#ea5397"/><path d="M88.5,38.7c0,9.8-4.8,19.4-14.1,28.6A98.9,98.9,0,0,1,51.2,83.7a2.6,2.6,0,0,1-2.4,0A98.9,98.9,0,0,1,25.6,67.3,61,61,0,0,1,16,55.1a35.7,35.7,0,0,1-3.6-9.3,28.8,28.8,0,0,1-.9-7.1c0-11.4,8.3-23.1,22.3-23.1a19,19,0,0,1,10.3,2.9,10.9,10.9,0,0,1,1.3,1.7.8.8,0,0,0,1.2.2A30.5,30.5,0,0,1,50,24.1c4.3-5.7,9.7-8.5,16.2-8.5A21.5,21.5,0,0,1,78,18.9a25.4,25.4,0,0,1,4.3,3.7A24.2,24.2,0,0,1,88.5,38.7Z" fill="#d19fdd"/><path d="M89.4,33.7a19.2,19.2,0,0,0-.9-3.2c-.3-.9-.7-1.8-1.1-2.7A22.3,22.3,0,0,0,66.8,14.6c-6.8,0-12.3,2.9-16.8,8.8-4.5-5.9-10-8.8-16.8-8.8-14.4,0-23,12.2-23,23.9,0,7.8,2.9,15.5,8.6,23,1.4,1.8,3,3.5,4.7,5.3a15.9,15.9,0,0,0,1.3,1.3c1.7,1.7,3.5,3.3,5.2,4.7a.1.1,0,0,1,.1.1A107.6,107.6,0,0,0,48.8,85.1a2.6,2.6,0,0,0,2.4,0,100.2,100.2,0,0,0,24-17c9.7-9.5,14.6-19.5,14.6-29.6A25.9,25.9,0,0,0,89.4,33.7ZM74,66.8A102.6,102.6,0,0,1,50.4,83.5h-.8A102.6,102.6,0,0,1,26,66.8a63.4,63.4,0,0,1-5.6-6.3,31.9,31.9,0,0,1-3.1-4.4c-.8-1.4-1.6-2.8-2.3-4.2a32.2,32.2,0,0,1-3-13.4c0-10.9,7.9-22.1,21.2-22.1q8.7,0,14.7,7.2l1.4,1.8a.8.8,0,0,0,1.2.2c.1-.1.2-.1.2-.2,4.3-6.1,9.6-9,16.1-9A20.3,20.3,0,0,1,83,24.1a17,17,0,0,1,1.5,2.2,15.7,15.7,0,0,1,1.4,2.5A23.5,23.5,0,0,1,88,38.5C88,48.1,83.3,57.6,74,66.8Z" fill="#171d2f"/></svg>