<svg id="Layer_1" data-name="Layer 1" xmlns="http://www.w3.org/2000/svg" viewBox="0 0 100 100"><title>program</title><path d="M80.8,13.9V86.3a.8.8,0,0,1-.8.8H20.1a.9.9,0,0,1-.8-.8V13.9a.9.9,0,0,1,.8-.9H80A.8.8,0,0,1,80.8,13.9Z" fill="#d19fdd"/><path d="M81.3,88.2H18.7a.9.9,0,0,1-.9-.9V12.7a.9.9,0,0,1,.9-.9H81.3a.9.9,0,0,1,.9.9V87.3A.9.9,0,0,1,81.3,88.2ZM19.6,86.5H80.4v-73H19.6Z" fill="#171d2f"/><path d="M73.2,29.1H26.8a.9.9,0,0,1-.9-.9.8.8,0,0,1,.9-.8H73.2a.8.8,0,0,1,.9.8A.9.9,0,0,1,73.2,29.1Z" fill="#171d2f"/><path d="M73.2,43.6H26.8a.9.9,0,0,1-.9-.9.9.9,0,0,1,.9-.8H73.2a.9.9,0,0,1,.9.8A.9.9,0,0,1,73.2,43.6Z" fill="#171d2f"/><path d="M73.2,58.1H26.8a.9.9,0,0,1-.9-.8.9.9,0,0,1,.9-.9H73.2a.9.9,0,0,1,.9.9A.9.9,0,0,1,73.2,58.1Z" fill="#171d2f"/><path d="M73.2,72.6H26.8a.8.8,0,0,1-.9-.8.9.9,0,0,1,.9-.9H73.2a.9.9,0,0,1,.9.9A.8.8,0,0,1,73.2,72.6Z" fill="#171d2f"/></svg>