<svg id="Layer_1" data-name="Layer 1" xmlns="http://www.w3.org/2000/svg" viewBox="0 0 100 100"><title>talk</title><path d="M91.6,52.3a40.8,40.8,0,0,1-12,26.5A41.2,41.2,0,0,1,53,90.7H50.5a40.6,40.6,0,0,1-21.4-6.1L13.5,88.1a2.7,2.7,0,0,1-2.8-.8,3,3,0,0,1-.8-2.7l3.7-16.8A41.1,41.1,0,0,1,47.9,8.5,41.1,41.1,0,0,1,91.6,52.3Z" fill="#f7b07c"/><path d="M50,92.1A42,42,0,0,1,28.1,86l-16,3.5a3,3,0,0,1-2.8-.9,3.2,3.2,0,0,1-.8-2.8l3.7-17.1A43.9,43.9,0,0,1,7.9,47.2a42.2,42.2,0,0,1,84.2,5.6h0A42.3,42.3,0,0,1,52.6,92.1Zm-21.8-8,.5.2A40.4,40.4,0,0,0,90.3,52.7a40.4,40.4,0,0,0-42.9-43A40.3,40.3,0,0,0,14,68.2a1.3,1.3,0,0,1,.1.6L10.2,86.2a1.4,1.4,0,0,0,.4,1.2,1.2,1.2,0,0,0,1.2.3L28,84.2Zm63-31.4Z" fill="#171d2f"/></svg>