<svg id="Layer_1" data-name="Layer 1" xmlns="http://www.w3.org/2000/svg" viewBox="0 0 100 100"><title>volunteer</title><path d="M70,12.5V73.1c0,.3.2-.6,0-.4h0c-1,1-.9,0-1,0L52.1,66H37.9l7.6,18.3c.3.7.8,2.7.5,3.4s-1.4.1-2.1.4a8.7,8.7,0,0,1-3.2.6c-3.4,0-4.4-2.8-5.7-6l-7-17C16,64.8,4.2,55,4.2,42.8A23.2,23.2,0,0,1,27.4,19.6H50.1l18.7-7.9a.8.8,0,0,1,.8.1A.7.7,0,0,1,70,12.5Z" fill="#c4b8db"/><path d="M71.3,10.4a1,1,0,0,0-.9-.1L51.1,18.4H27.7a24,24,0,0,0-.6,47.9l7.4,18.1a8.8,8.8,0,0,0,8.1,5.4,7.4,7.4,0,0,0,3.2-.7,3.3,3.3,0,0,0,1.7-1.6,3,3,0,0,0,0-2.3L39.7,66.3H51.1l19.3,8.2h.9a1.2,1.2,0,0,0,.4-.8V11.1A.8.8,0,0,0,71.3,10.4ZM45.8,85.9a1.2,1.2,0,0,1-.7,1.6,6.9,6.9,0,0,1-8.9-3.8L29.1,66.3h8.7Zm4.6-21.4H27.7a22.2,22.2,0,0,1,0-44.3H50.4Zm19.5,7.8L52.2,64.8V19.9l17.7-7.4Z" fill="#171d2f"/><path d="M95.3,43.8H82.2a.9.9,0,1,1,0-1.8H95.3a.9.9,0,1,1,0,1.8Z" fill="#171d2f"/><path d="M92.7,56.2h-.4L80.1,51.2a.9.9,0,0,1-.5-1.2,1,1,0,0,1,1.2-.5L93,54.4a1,1,0,0,1,.5,1.2C93.3,55.9,93,56.2,92.7,56.2Z" fill="#171d2f"/><path d="M80.4,36.4a.9.9,0,0,1-.3-1.7l12.2-4.9a.9.9,0,0,1,1.2.5.9.9,0,0,1-.5,1.1l-12.2,5Z" fill="#171d2f"/></svg>