<?xml version="1.0" encoding="utf-8"?>
<!-- Generator: Adobe Illustrator 22.0.1, SVG Export Plug-In . SVG Version: 6.00 Build 0)  -->
<svg version="1.1" id="Layer_1" xmlns="http://www.w3.org/2000/svg" xmlns:xlink="http://www.w3.org/1999/xlink" x="0px" y="0px"
	 viewBox="0 0 85 80" style="enable-background:new 0 0 85 80;" xml:space="preserve">
<style type="text/css">
	.st0{fill:#F9CC12;}
	.st1{fill:#1E1E1E;}
</style>
<g>
	<g>
		<path class="st0" d="M81.7,49.7c0,0.3-0.1,0.6-0.3,0.8l-25,25c-0.2,0.2-0.4,0.3-0.6,0.3c0,0-0.1,0-0.1,0c-0.3,0-0.5-0.2-0.7-0.5
			l-6-11.2c0-0.1-0.1-0.2-0.1-0.2l-23.4,1c-0.1,0-0.3,0-0.4,0c-2.1,0-4-0.9-5.3-2.5C8.5,48.8,9.5,28.4,21.9,16
			C34.4,3.5,54.7,2.6,68.3,13.8c1.7,1.4,2.6,3.5,2.4,5.8l-1,23.3c0.1,0,0.2,0,0.3,0.1l11.2,6C81.5,49.2,81.6,49.4,81.7,49.7z"/>
	</g>
	<path class="st1" d="M72.6,47.3l-11.2-6c-0.1,0-0.2-0.1-0.3-0.1l1-23.3c0.1-2.2-0.8-4.4-2.4-5.8C46.1,0.9,25.8,1.8,13.3,14.3v0
		C0.9,26.7-0.1,47.1,11.2,60.6c1.3,1.6,3.3,2.5,5.3,2.5c0.1,0,0.3,0,0.4,0l23.4-0.9c0,0.1,0,0.1,0.1,0.2l6,11.2
		c0.1,0.2,0.4,0.4,0.7,0.5c0,0,0.1,0,0.1,0c0.2,0,0.5-0.1,0.6-0.3l25-25c0.2-0.2,0.3-0.5,0.2-0.8C73,47.7,72.8,47.4,72.6,47.3z
		 M58.5,13.5c1.2,1,1.9,2.6,1.8,4.3l-1.1,24.7l-3.7,3.7l-22-39.9C42.3,5.2,51.4,7.6,58.5,13.5z M31.7,6.6l22.5,40.9L51,50.7
		L15.2,14.9C19.9,10.5,25.7,7.7,31.7,6.6z M14,16.2L49.8,52l-3.2,3.2L5.7,32.7C6.8,26.6,9.5,20.9,14,16.2z M41.5,60.3l-24.6,1
		c-1.7,0.1-3.2-0.6-4.2-1.8c-5.9-7.1-8.3-16.2-7.2-24.9l39.9,22L41.5,60.3L41.5,60.3z M47.4,71.6l-5.2-9.6l9.4-9.4c0,0,0,0,0,0
		c0,0,0,0,0,0l9.4-9.4l9.6,5.2L47.4,71.6z"/>
</g>
</svg>
