<svg fill="none" height="281" viewBox="0 0 521 281" width="521" xmlns="http://www.w3.org/2000/svg"><g fill="#fff"><path d="m19.7039 99.0659c20.9018 0 25.1475 7.6201 25.1475 26.1271v29.393c0 18.507-4.2457 26.128-25.1475 26.128h-13.28141c-3.15705 0-4.02796-.871-4.02796-4.028v-73.592c0-3.1572.87091-4.0281 4.02796-4.0281zm-.3266 15.2411c-1.5241 0-1.9596.435-1.9596 1.959v47.247c0 1.416.4355 1.96 1.9596 1.96h1.1975c6.0964 0 8.818-2.831 8.818-9.907v-31.353c0-7.076-2.7216-9.906-8.818-9.906z"/><path d="m53.5977 180.714h-5.1166c-3.1571 0-4.028-.871-4.028-4.028v-7.185c0-3.157.8709-4.028 4.028-4.028h5.3343c3.8103 0 5.5521-1.742 5.5521-6.097v-43.654c0-1.524-.4355-1.959-1.9596-1.959h-5.3343c-3.1571 0-4.028-.871-4.028-4.028v-6.641c0-3.1572.8709-4.0281 4.028-4.0281h18.2891c3.1571 0 4.028.8709 4.028 4.0281v53.67c0 17.527-5.2255 23.95-20.793 23.95z"/><path d="m93.2761 176.686c0 3.157-.8709 4.028-4.0279 4.028h-6.9673c-3.1571 0-4.028-.871-4.028-4.028v-27.869c0-4.79.2178-6.75 1.5241-11.104l9.9066-33.204c1.3064-4.5722 2.395-5.4431 8.056-5.4431h3.9194c5.661 0 6.749.8709 8.056 5.4431l9.906 33.204c1.307 4.245 1.524 6.314 1.524 11.104v27.869c0 3.157-.871 4.028-4.028 4.028h-6.967c-3.157 0-4.028-.871-4.028-4.028v-14.37c0-1.524-.435-1.96-1.959-1.96h-8.9273c-1.5241 0-1.9596.436-1.9596 1.96zm11.2129-31.571c1.198 0 1.851-.435 1.851-1.415 0-.544-.109-1.089-.218-1.633l-5.008-21.011c-.217-1.088-.435-1.306-1.4149-1.306-.9798 0-1.1975.218-1.4152 1.306l-5.0078 21.011c-.1088.544-.2177 1.089-.2177 1.633 0 .98.6532 1.415 1.8507 1.415z"/><path d="m152.998 125.955c.544.98.762 1.198 1.415 1.198.654 0 .871-.327.871-1.089v-22.97c0-3.1572.871-4.0281 4.028-4.0281h6.641c3.157 0 4.028.8709 4.028 4.0281v73.592c0 3.157-.871 4.028-4.028 4.028h-6.641c-3.157 0-4.028-.871-4.028-4.028v-14.915c0-5.116-.762-6.967-2.612-10.45l-10.125-18.834c-.544-.98-.762-1.197-1.415-1.197s-.871.326-.871 1.088v44.308c0 3.157-.871 4.028-4.028 4.028h-6.641c-3.157 0-4.028-.871-4.028-4.028v-73.592c0-3.1572.871-4.0281 4.028-4.0281h4.246c4.028 0 5.552.6532 7.838 5.1171z"/><path d="m204.059 151.647c0-1.524-.436-1.959-1.96-1.959h-1.306c-3.157 0-4.028-.871-4.028-4.028v-7.185c0-3.157.871-4.028 4.028-4.028h13.825c3.158 0 4.028.871 4.028 4.028v19.378c0 17.527-5.225 23.95-21.01 23.95-15.786 0-21.011-6.423-21.011-23.95v-35.926c0-17.527 5.225-23.9496 21.011-23.9496 15.785 0 20.793 6.4226 20.793 23.9496v.545c0 3.157-.871 4.028-4.028 4.028h-6.968c-3.157 0-4.028-.871-4.028-4.028v-3.157c0-4.355-1.85-6.097-5.66-6.097-3.811 0-5.661 1.742-5.661 6.097v41.15c0 4.355 1.959 6.097 5.987 6.097 4.137 0 5.988-1.742 5.988-6.097z"/><path d="m265.798 156.764c0 18.398-5.226 25.039-21.011 25.039s-21.011-6.641-21.011-25.039v-33.748c0-18.289 5.226-25.0385 21.011-25.0385s21.011 6.7495 21.011 25.0385zm-26.563 3.701c0 4.355 1.742 6.097 5.552 6.097s5.552-1.742 5.552-6.097v-40.606c0-4.79-1.742-6.641-5.552-6.641s-5.552 1.851-5.552 6.641z"/><path d="m312.625 154.587v3.266c0 17.527-5.008 23.95-20.793 23.95s-21.011-6.423-21.011-23.95v-35.925c0-17.527 5.226-23.9505 21.011-23.9505s20.793 6.4235 20.793 23.9505v3.265c0 3.158-.871 4.028-4.028 4.028h-6.967c-3.157 0-4.028-.87-4.028-4.028v-5.878c0-4.355-1.851-6.097-5.661-6.097s-5.661 1.742-5.661 6.097v41.15c0 4.355 1.851 6.097 5.661 6.097s5.661-1.742 5.661-6.097v-5.878c0-3.157.871-4.028 4.028-4.028h6.967c3.157 0 4.028.871 4.028 4.028z"/><path d="m359.976 156.764c0 18.398-5.226 25.039-21.011 25.039s-21.011-6.641-21.011-25.039v-33.748c0-18.289 5.226-25.0385 21.011-25.0385s21.011 6.7495 21.011 25.0385zm-26.563 3.701c0 4.355 1.742 6.097 5.552 6.097s5.552-1.742 5.552-6.097v-40.606c0-4.79-1.742-6.641-5.552-6.641s-5.552 1.851-5.552 6.641z"/><path d="m391.655 125.955c.545.98.762 1.198 1.416 1.198.653 0 .87-.327.87-1.089v-22.97c0-3.1572.871-4.0281 4.028-4.0281h6.641c3.157 0 4.028.8709 4.028 4.0281v73.592c0 3.157-.871 4.028-4.028 4.028h-6.641c-3.157 0-4.028-.871-4.028-4.028v-14.915c0-5.116-.762-6.967-2.612-10.45l-10.125-18.834c-.544-.98-.762-1.197-1.415-1.197s-.871.326-.871 1.088v44.308c0 3.157-.871 4.028-4.028 4.028h-6.64c-3.157 0-4.028-.871-4.028-4.028v-73.592c0-3.1572.871-4.0281 4.028-4.0281h4.245c4.028 0 5.552.6532 7.839 5.1171z"/><path d="m497.538 128.133 13.935 12.628c7.293 6.532 8.926 10.451 8.926 17.745v1.959c0 13.717-5.225 21.337-21.01 21.337-15.786 0-21.011-6.423-21.011-23.95v-2.177c0-3.157.871-4.028 4.028-4.028h7.403c3.157 0 4.028.871 4.028 4.028v4.79c0 4.355 1.741 6.097 5.552 6.097 3.81 0 5.552-1.633 5.552-5.553v-2.068c0-3.048-.653-4.572-4.681-8.165l-13.064-11.648c-7.294-6.423-8.818-10.125-8.818-17.418v-2.395c0-13.717 5.225-21.3377 21.011-21.3377 15.785 0 21.01 6.4227 21.01 23.9497v2.178c0 3.157-.871 4.028-4.028 4.028h-7.402c-3.157 0-4.028-.871-4.028-4.028v-4.79c0-4.355-1.742-6.097-5.552-6.097-3.811 0-5.552 1.633-5.552 5.552v1.851c0 3.157.653 4.681 3.701 7.512z"/><path d="m459.01 103.094c0-3.1572.871-4.0281 4.028-4.0281h6.967c3.157 0 4.028.8709 4.028 4.0281v54.758c0 17.527-5.225 23.95-21.011 23.95-15.785 0-21.01-6.423-21.01-23.95v-54.758c0-3.1572.871-4.0281 4.028-4.0281h6.967c3.157 0 4.028.8709 4.028 4.0281v57.371c0 4.355 1.851 6.096 5.987 6.096 4.028 0 5.988-1.741 5.988-6.096z"/><path d="m262.253 252.564v3.266c0 17.527-5.008 23.95-20.793 23.95s-21.011-6.423-21.011-23.95v-35.925c0-17.527 5.226-23.95 21.011-23.95s20.793 6.423 20.793 23.95v3.266c0 3.157-.871 4.028-4.028 4.028h-6.967c-3.157 0-4.028-.871-4.028-4.028v-5.879c0-4.354-1.851-6.096-5.661-6.096s-5.661 1.742-5.661 6.096v41.151c0 4.354 1.851 6.096 5.661 6.096s5.661-1.742 5.661-6.096v-5.879c0-3.157.871-4.028 4.028-4.028h6.967c3.157 0 4.028.871 4.028 4.028z"/><path d="m295.205 274.974v-29.393c0-1.525-.435-1.96-1.959-1.96h-8.927c-1.524 0-1.96.435-1.96 1.96v29.393c0 3.157-.871 4.028-4.028 4.028h-6.967c-3.157 0-4.028-.871-4.028-4.028v-73.592c0-3.157.871-4.028 4.028-4.028h6.967c3.157 0 4.028.871 4.028 4.028v25.039c0 1.415.436 1.959 1.96 1.959h8.927c1.524 0 1.959-.544 1.959-1.959v-25.039c0-3.157.871-4.028 4.028-4.028h6.967c3.157 0 4.028.871 4.028 4.028v73.592c0 3.157-.871 4.028-4.028 4.028h-6.967c-3.157 0-4.028-.871-4.028-4.028z"/><path d="m333.019 201.382v73.592c0 3.157-.871 4.028-4.028 4.028h-6.967c-3.157 0-4.028-.871-4.028-4.028v-73.592c0-3.157.871-4.028 4.028-4.028h6.967c3.157 0 4.028.871 4.028 4.028z"/><path d="m381.096 252.874v3.266c0 17.527-5.008 23.95-20.793 23.95-15.786 0-21.011-6.423-21.011-23.95v-35.925c0-17.527 5.225-23.95 21.011-23.95 15.785 0 20.793 6.423 20.793 23.95v3.266c0 3.157-.871 4.028-4.028 4.028h-6.968c-3.157 0-4.027-.871-4.027-4.028v-5.879c0-4.354-1.851-6.096-5.661-6.096-3.811 0-5.661 1.742-5.661 6.096v41.151c0 4.355 1.85 6.096 5.661 6.096 3.81 0 5.661-1.741 5.661-6.096v-5.879c0-3.157.87-4.028 4.027-4.028h6.968c3.157 0 4.028.871 4.028 4.028z"/><path d="m399.676 274.663c0 3.158-.871 4.028-4.028 4.028h-6.968c-3.157 0-4.028-.87-4.028-4.028v-27.869c0-4.79.218-6.749 1.524-11.104l9.907-33.203c1.306-4.573 2.395-5.443 8.056-5.443h3.919c5.661 0 6.75.87 8.056 5.443l9.907 33.203c1.306 4.246 1.524 6.314 1.524 11.104v27.869c0 3.158-.871 4.028-4.028 4.028h-6.968c-3.157 0-4.028-.87-4.028-4.028v-14.37c0-1.524-.435-1.959-1.959-1.959h-8.927c-1.524 0-1.959.435-1.959 1.959zm11.213-31.57c1.197 0 1.85-.435 1.85-1.415 0-.545-.109-1.089-.218-1.633l-5.007-21.011c-.218-1.089-.436-1.306-1.415-1.306-.98 0-1.198.217-1.416 1.306l-5.007 21.011c-.109.544-.218 1.088-.218 1.633 0 .98.653 1.415 1.851 1.415z"/><path d="m459.26 249.625c0-1.524-.436-1.96-1.96-1.96h-1.306c-3.157 0-4.028-.871-4.028-4.028v-7.185c0-3.157.871-4.028 4.028-4.028h13.826c3.157 0 4.028.871 4.028 4.028v19.378c0 17.527-5.226 23.95-21.011 23.95s-21.011-6.423-21.011-23.95v-35.925c0-17.527 5.226-23.95 21.011-23.95s20.793 6.423 20.793 23.95v.544c0 3.157-.871 4.028-4.028 4.028h-6.967c-3.157 0-4.028-.871-4.028-4.028v-3.157c0-4.354-1.851-6.096-5.661-6.096s-5.661 1.742-5.661 6.096v41.151c0 4.354 1.959 6.096 5.987 6.096 4.137 0 5.988-1.742 5.988-6.096z"/><path d="m521 254.741c0 18.398-5.226 25.039-21.011 25.039s-21.01-6.641-21.01-25.039v-33.747c0-18.289 5.225-25.039 21.01-25.039s21.011 6.75 21.011 25.039zm-26.563 3.702c0 4.354 1.742 6.096 5.552 6.096s5.552-1.742 5.552-6.096v-40.606c0-4.79-1.742-6.641-5.552-6.641s-5.552 1.851-5.552 6.641z"/><path d="m153.239 33.0946c0 .3266.109.4355.327.4355.217 0 .435-.1089.762-.3266 2.068-1.4153 4.354-2.2862 8.926-2.2862 10.342 0 16.548 5.8787 16.548 21.3373v9.2535c0 15.7852-5.77 22.317-21.011 22.317-15.785 0-21.011-6.6407-21.011-25.0386v-33.7478c0-18.39801 5.226-25.0387 20.793-25.0387 15.023 0 20.793 6.53183 20.793 22.3171v.4354c0 3.1571-.871 4.028-4.028 4.028h-6.749c-3.157 0-4.028-.8709-4.028-4.028v-2.5038c0-3.5925-1.851-5.0078-5.661-5.0078-3.919 0-5.661 1.7419-5.661 6.0964zm11.104 29.3932v-10.2332c0-4.3545-1.742-6.0963-5.552-6.0963s-5.552 1.7418-5.552 6.0963v10.2332c0 4.3546 1.742 6.0964 5.552 6.0964s5.552-1.7418 5.552-6.0964z"/><path d="m87.7304 58.7865c0 18.3979-5.2254 25.0386-21.0107 25.0386s-21.0107-6.6407-21.0107-25.0386v-33.7478c0-18.28914 5.2254-25.0387 21.0107-25.0387s21.0107 6.74956 21.0107 25.0387zm-15.4586-37.4492c0-4.3545-1.7419-6.0964-5.5521-6.0964s-5.5521 1.7419-5.5521 6.0964v41.1505c0 4.3546 1.7419 6.0964 5.5521 6.0964s5.5521-1.7418 5.5521-6.0964z"/><path d="m19.0512 65.536c-.8709 1.4152-.5444 2.5039 1.3063 2.5039h16.9828c3.157 0 4.0279.8709 4.0279 4.0279v6.6407c0 3.1571-.8709 4.028-4.0279 4.028h-32.44143c-3.15705 0-4.02796-.8709-4.02796-4.028v-7.8382c0-2.9393.21773-4.3545 1.41523-6.2052l19.05116-29.1755c2.9393-4.4634 4.5723-9.9066 4.5723-13.8257 0-4.79-1.5241-6.423-5.5521-6.423-3.8102 0-5.552 1.7419-5.552 6.0964v5.8787c0 3.157-.8709 4.0279-4.028 4.0279h-6.74954c-3.157049 0-4.02796-.8709-4.02796-4.0279v-3.266c0-16.98271 5.22546-23.95 20.3575-23.95 15.3498 0 21.0107 7.07615 21.0107 21.2284 0 6.0964-2.1772 12.7371-6.7495 19.8133z"/><path d="m111.114 65.536c-.871 1.4152-.545 2.5039 1.306 2.5039h16.983c3.157 0 4.028.8709 4.028 4.0279v6.6407c0 3.1571-.871 4.028-4.028 4.028h-32.4416c-3.1571 0-4.028-.8709-4.028-4.028v-7.8382c0-2.9393.2177-4.3545 1.4152-6.2052l19.0514-29.1755c2.939-4.4634 4.572-9.9066 4.572-13.8257 0-4.79-1.524-6.423-5.552-6.423-3.81 0-5.552 1.7419-5.552 6.0964v5.8787c0 3.157-.871 4.0279-4.028 4.0279h-6.7495c-3.1571 0-4.028-.8709-4.028-4.0279v-3.266c0-16.98271 5.2255-23.95 20.3575-23.95 15.35 0 21.011 7.07615 21.011 21.2284 0 6.0964-2.178 12.7371-6.75 19.8133z"/></g></svg>