<svg fill="none" height="316" viewBox="0 0 414 316" width="414" xmlns="http://www.w3.org/2000/svg"><path d="m24.3232 184.534c-.0002-5.227-1.3984-6.788-6.3916-6.881l-.4961-.005h-11.91207l-.49316.005c-2.46541.046-4.053222.45-5.03027783 1.476.01904833-.02.03711443-.041.05664063-.061l15.6796672-15.68h12.6992l1.6543-.01c6.2503-.073 11.5951-.571 16.1573-1.521.0069.239.0097.487.0097.744zm34.792-154.0526c-.0256-.0179-.0523-.0348-.0781-.0527-6.2847-4.3637-15.5304-6.4648-28.9473-6.6221l-1.6552-.0097h-22.70609l-.49414.0039c-2.4541.0454-4.03847.4464-5.016598 1.4619.014845-.0154.028823-.0318.043946-.0469l21.934582-21.93554c1.0469-1.04661 2.7686-1.4189 5.4668-1.41895h22.707c14.9001.00001 24.8501 2.26536 31.3867 7.2002zm8.2647 247.6736c-.0001 14.855-2.2576 24.091-7.0869 29.682-4.7161 5.46-12.5453 8.163-25.7334 8.163s-21.0173-2.704-25.73344-8.163c-4.82929-5.591-7.08588-14.827-7.08594-29.682l.00001-93.62c.00004-2.657.42977-3.192.51074-3.273.08155-.082.61835-.511 3.27344-.511h11.91209c2.6527 0 3.1913.429 3.2735.511.0824.083.5106.623.5107 3.273v98.087c.0001 4.072.853 7.674 3.375 10.196 2.5237 2.524 6.081 3.328 9.9639 3.328 3.8118 0 7.3452-.814 9.8789-3.313 2.5407-2.506 3.4598-6.096 3.4599-10.211v-98.087c.0001-2.654.4292-3.191.5108-3.273.0822-.082.6204-.511 3.2734-.511h11.9121c2.6548 0 3.1919.429 3.2735.511.0818.082.5116.62.5117 3.273zm.9482-159.436c0 15.822-1.8791 25.899-7.334 32.162-5.3503 6.143-14.8856 9.405-32.5586 9.405h-22.70601c-2.65327 0-3.1922-.429-3.27442-.511-.08106-.081-.51072-.617-.51074-3.274v-125.8184c.00006-2.6564.42967-3.1923.51075-3.2734.08144-.0814.61866-.5108 3.27441-.5108h22.70601c17.673.0001 27.2083 3.2623 32.5586 9.4053 5.4548 6.2633 7.334 16.3402 7.334 32.1621zm-20.2246-51.929c-.0001-6.3355-1.1992-11.5176-4.4336-15.0879-3.3028-3.6452-8.1143-4.95-13.7451-4.9502h-2.0478c-1.3677.0001-3.376.136-4.8458 1.6055-1.4696 1.4697-1.6064 3.478-1.6064 4.8457v80.7779c.0001 1.346.1634 3.267 1.5586 4.726 1.4269 1.491 3.385 1.727 4.8935 1.727h2.0479c5.6307-.001 10.4423-1.306 13.7451-4.952 3.2345-3.57 4.4335-8.752 4.4336-15.087zm-22.874 69.776c-.0202-.021-.0395-.042-.0586-.064.0191.022.0414.041.0615.061zm19.7578-15.059c-.2186 8.721-3.0671 13.414-9.0127 15.096-.0614.017-.1234.033-.1855.049-1.7024.459-3.6535.679-5.8643.679h-2.0479c-.8304 0-1.4715-.096-1.9599-.304-.0137-.006-.0275-.011-.041-.017-.2573-.115-.4682-.264-.6436-.447l19.7676-19.942v3.774zm-.2002 161.8c-.1025 3.505-1.0086 5.951-2.7383 7.516-.0648.059-.1321.116-.1992.172-.0303.025-.0601.051-.0908.076-.0952.077-.1932.152-.293.224-.7675.555-1.6691.968-2.706 1.254-.0773.021-.1547.043-.2334.063-.325.082-.6631.152-1.0137.21l-.5371.079c-.1495.019-.3013.036-.4551.051-.6184.061-1.272.093-1.9609.093-.2141 0-.4249-.003-.6319-.009l-.0205-.001c-.5755-.016-1.1247-.055-1.6455-.114-2.13-.244-3.8037-.864-5.0557-1.918-.1132-.095-.2227-.194-.3291-.297-.0286-.028-.0567-.056-.0849-.084l18.0039-18.005.001 10.005zm-4.1445-149.182c-.0329.03-.0673.058-.1006.087.0334-.029.0674-.058.1006-.088l.0234-.021c.0038-.004.008-.007.0117-.01zm29.8388 50.409c-.0002-5.396-1.4907-6.886-6.8877-6.886h-11.9121c-2.5841 0-4.2706.344-5.3281 1.292-.032.029-.0658.057-.0967.086l21.8926-21.893c1.0469-1.047 2.7686-1.419 5.4668-1.419h11.9814c1.8611 2.232 4.1043 4.034 6.7764 5.446.0292.446.041.926.041 1.441zm-15.3945-156.37c-.0415-.0195-.0843-.0372-.126-.0566.0679.0315.1358.0628.2032.0947zm91.5631 192.293c0 2.656-.43 3.192-.511 3.273-.082.082-.62.511-3.274.511h-12.656c-2.654 0-3.192-.429-3.273-.511-.082-.081-.512-.618-.512-3.273v-8.189c0-4.034-.789-7.596-3.134-10.117-2.396-2.574-5.795-3.408-9.46-3.408-3.618 0-6.968.764-9.365 3.126-2.407 2.371-3.229 5.734-3.229 9.468v3.164c0 2.91.297 5.445 1.517 7.978 1.187 2.463 3.116 4.642 5.803 7.137l.027.027 23.824 21.589.007.006.007.007c6.124 5.484 9.591 9.632 11.588 13.728 1.967 4.036 2.641 8.299 2.641 14.298v3.351c0 11.435-2.198 19.61-7.038 24.951-4.78 5.276-12.732 8.427-25.782 8.427-13.188 0-21.0172-2.703-25.7333-8.163-4.8293-5.591-7.0859-14.828-7.086-29.682v-3.722c0-2.652.4285-3.191.5108-3.274.0814-.081.6184-.512 3.2744-.512h12.6553c2.6568 0 3.1928.431 3.2748.512.082.083.51.623.51 3.274v8.189c0 4.034.79 7.596 3.135 10.116 2.396 2.575 5.794 3.408 9.459 3.408 3.618 0 6.969-.764 9.366-3.126 2.407-2.37 3.228-5.733 3.228-9.467v-3.536c0-2.862-.307-5.412-1.803-8.128-1.323-2.403-3.468-4.733-6.598-7.573l-.639-.574-22.3342-19.916-.0078-.006-.0078-.007c-6.1314-5.399-9.5374-9.404-11.4785-13.368-1.9113-3.903-2.5449-8.06-2.545-14.083v-4.094c.0001-11.436 2.1978-19.611 7.0371-24.953 4.7806-5.276 12.7322-8.425 25.7822-8.425 13.188 0 21.018 2.701 25.734 8.161 4.83 5.591 7.086 14.829 7.086 29.683zm-.275-151.9912c0 2.6566-.431 3.1923-.512 3.2734-.081.0814-.618.5108-3.273.5108h-11.912c-2.657-.0001-3.193-.4297-3.274-.5108-.081-.0815-.509-.6183-.509-3.2734v-10.0508c-.001-4.0753-.854-7.6395-3.259-10.1494-2.436-2.5416-5.857-3.3749-9.523-3.375-3.666.0001-7.085.8335-9.521 3.375-2.405 2.5099-3.259 6.0739-3.259 10.1494v70.355c0 4.075.854 7.639 3.259 10.149 2.436 2.541 5.855 3.375 9.521 3.375s7.087-.833 9.523-3.375c2.405-2.51 3.258-6.074 3.259-10.149v-10.051c0-2.655.428-3.192.509-3.274.081-.081.617-.51 3.274-.51h11.912c2.656 0 3.192.429 3.273.51.082.082.512.618.512 3.274v5.584c0 14.876-2.17 24.114-6.917 29.702-4.621 5.439-12.341 8.142-25.531 8.142-13.189 0-21.0175-2.703-25.7336-8.163-4.8293-5.591-7.0859-14.827-7.086-29.681v-61.4212c0-14.8548 2.2564-24.0925 7.086-29.6836 4.7161-5.4593 12.5456-8.1611 25.7336-8.1611 13.19 0 20.91 2.7034 25.531 8.1426 4.747 5.5879 6.917 14.826 6.917 29.7021zm-2.456 119.2642c-.018-.027-.035-.055-.053-.083.041.063.079.127.119.191-.59-.94-1.233-1.817-1.926-2.637-.097-.114-.194-.228-.292-.34-.077-.087-.154-.174-.232-.259-.097-.107-.194-.212-.293-.316-.573-.605-1.177-1.176-1.816-1.712-.209-.174-.42-.346-.636-.513-.017-.014-.034-.027-.052-.041-.176-.135-.354-.268-.535-.399-.032-.023-.063-.047-.096-.07-.197-.142-.398-.279-.601-.415-.51-.341-1.039-.663-1.586-.969-.136-.076-.272-.152-.409-.226-.807-.432-1.652-.828-2.538-1.189-.172-.07-.345-.138-.519-.205-.084-.033-.168-.065-.253-.097-.226-.084-.455-.167-.686-.248-4.478-1.559-9.91-2.321-16.433-2.406l-1.252-.009c-12.731 0-21.4434 2.902-27.0966 8.427-.0282.027-.0579.054-.0859.082l19.4155-19.416c2.068.211 4.27.331 6.613.361l1.251.008c14.776 0 24.026-3.293 29.374-11.19-.028.04-.054.083-.082.124 11.476 1.092 18.868 4.984 23.236 12.609zm-.809-154.8853c-.081-.1159-.163-.2309-.246-.3447-5.409-7.4463-14.557-10.5645-28.937-10.5645-12.201.0001-20.7116 2.2445-26.3752 7.4727.0106-.0098.0206-.0205.0312-.0303-.0341.0313-.0677.0632-.1016.0947-.1571.1464-.312.2953-.4648.4463-.0169.0167-.034.0331-.0508.0498l21.8602-21.86031c5.655-5.68217 14.351-8.10840214 27.035-8.10840214 15.116.00008389 24.451 3.44541214 29.739 11.74121214zm-19.319 95.9253c0 7.444-3.164 10.422-9.678 10.422l-.6-.009c-4.246-.127-6.472-2.207-6.483-2.217l16.761-17.781zm95.054-97.0835-.004-.1582c-.084-1.6445-1.443-2.953-3.109-2.9531h-32.68l-.161.0039c-.809.0411-1.535.3919-2.065.9346.004-.0041.008-.0087.012-.0127-.007.007-.015.0134-.022.0205l22.009-22.00881c.566-.58289 1.358-.94622 2.235-.94629h32.68l.16.00488c1.645.08336 2.953 1.44327 2.954 3.1084zm-3.103 281.6845-.002.002-.004.003h-32.688l-.004-.003-.003-.004v-281.6844c0-.0007.001-.0032.003-.0049.002-.0022.005-.003.005-.003h32.686c.001.0002.003.0011.005.003.002.0018.003.0042.003.0049v281.6814c0 .003-.001.005-.001.005zm101.072-154.75c0 2.652-.427 3.191-.509 3.274-.081.08-.617.511-3.274.511h-55.465c-2.653 0-3.192-.43-3.274-.511-.082-.083-.51-.622-.51-3.274v-13.4c0-2.478.097-4.064.373-5.353.258-1.203.695-2.251 1.541-3.561l32.573-49.8802-.001-.001c5.304-8.0594 8.322-17.9436 8.322-25.3321 0-4.2553-.639-7.9957-2.935-10.6093-2.399-2.7314-5.907-3.4736-9.66-3.4737-3.665.0001-7.064.8327-9.46 3.4073-2.345 2.5204-3.134 6.083-3.134 10.1172v10.0507c0 2.6542-.429 3.1917-.51 3.2735-.082.0814-.62.5097-3.275.5097h-11.539c-2.65 0-3.19-.4273-3.273-.5097-.081-.0812-.511-.6174-.511-3.2735v-5.584c0-14.3588 2.245-23.6514 6.989-29.3847 4.613-5.574 12.185-8.4599 24.713-8.46 12.712.0001 20.679 2.9344 25.545 8.0977 4.902 5.2024 7.274 13.313 7.274 25.0937 0 9.6699-3.452 20.4463-11.042 32.1914l-.006.0098-.006.0098-26.615 41.8774-.013.019-.012.019c-.887 1.44-1.826 3.722-.81 5.957 1.122 2.469 3.714 3.051 5.685 3.051h29.036c2.657.001 3.193.43 3.274.511.082.083.509.623.509 3.274zm0 151.733c0 2.65-.427 3.19-.509 3.273-.081.081-.617.512-3.274.512h-55.465c-2.653 0-3.192-.43-3.274-.512-.082-.083-.51-.623-.51-3.273v-13.401c0-2.478.097-4.063.373-5.352.258-1.204.695-2.25 1.541-3.561l32.573-49.881-.001-.001c5.304-8.059 8.322-17.943 8.322-25.332 0-4.255-.639-7.996-2.935-10.609-2.399-2.732-5.907-3.474-9.66-3.474-3.665 0-7.064.833-9.46 3.407-2.345 2.521-3.134 6.083-3.134 10.118v10.05c0 2.655-.429 3.192-.51 3.274-.082.081-.619.51-3.275.511h-11.539c-2.651 0-3.19-.429-3.273-.511-.082-.082-.511-.618-.511-3.274v-5.584c0-14.358 2.245-23.65 6.989-29.383 4.613-5.575 12.185-8.461 24.713-8.461 12.713 0 20.679 2.935 25.545 8.098 4.902 5.203 7.274 13.312 7.274 25.093 0 9.67-3.452 20.446-11.042 32.191l-.006.01-.006.01-26.615 41.878-.013.018-.012.019c-.887 1.441-1.826 3.722-.81 5.957 1.122 2.469 3.714 3.052 5.685 3.052h29.036c2.656 0 3.192.429 3.274.511s.509.622.509 3.273zm-58.763-126.276c.11-.114.222-.226.335-.338-.113.112-.225.224-.335.338zm54.731-149.8348c-.049-.0595-.101-.1169-.151-.1758l-.512-.5869c-5.681-6.2831-14.752-9.4258-28.125-9.4258-11.815.0001-20.095 2.4875-25.607 7.9531.02-.0198.039-.0408.059-.0605-.025.0246-.051.0484-.076.0732l21.83-21.832c5.512-5.54833 13.83-8.06839 25.731-8.06839 13.112.00013 22.089 3.02061 27.79 9.06149zm1.488 153.7308-.024-.037c-4.255-6.35-11.099-10.211-21.174-11.583l-1.051-.132-.049-.006c-.082-.01-.164-.016-.245-.026l-.782-.084c-2.174-.212-4.49-.319-6.95-.319-4.042 0-7.671.291-10.917.893l-.056.009c-.496.093-.982.197-1.46.304-.144.032-.287.062-.429.096-.016.003-.032.006-.047.01-5.288 1.255-9.469 3.437-12.7 6.641.019-.019.038-.039.057-.058-.024.023-.049.047-.073.071l18.245-18.245h36.416l.494-.005c4.994-.093 6.392-1.653 6.392-6.882v-3.272c7.93 1.966 13.429 5.871 16.937 11.716zm81.81-63.413c0 15.62-2.262 25.346-7.128 31.221-4.723 5.703-12.531 8.486-25.692 8.486-13.162 0-20.97-2.783-25.693-8.486-4.865-5.875-7.127-15.601-7.127-31.221v-57.6977c0-15.5223 2.26-25.2545 7.131-31.1563 4.728-5.7276 12.54-8.5507 25.689-8.5508 13.148 0 20.961 2.8232 25.688 8.5508 4.871 5.9018 7.132 15.634 7.132 31.1563zm.015 156.386c0 13.242-2.447 21.792-7.362 27.086-4.861 5.237-12.782 7.967-25.459 7.967-13.161 0-20.969-2.783-25.692-8.485-4.866-5.876-7.127-15.601-7.127-31.221v-57.698c0-15.619 2.261-25.352 7.089-31.231 4.68-5.698 12.395-8.475 25.358-8.475 12.479 0 20.307 2.723 25.125 7.956 4.877 5.297 7.323 13.855 7.323 27.096v.745c0 2.655-.43 3.193-.511 3.274-.082.081-.619.511-3.274.511h-11.54c-2.651 0-3.19-.429-3.273-.511-.081-.081-.511-.619-.511-3.274v-4.281c0-3.574-.932-6.76-3.482-8.941-2.441-2.087-5.766-2.722-9.298-2.722-3.736 0-7.181.822-9.607 3.391-2.385 2.525-3.173 6.101-3.173 10.134v20.101c0 .487.053 1.561.819 2.519.913 1.141 2.159 1.327 2.841 1.327 1.41 0 2.492-.725 3.023-1.079l.016-.01.015-.012c2.933-2.006 6.204-3.366 13.51-3.366 8.244 0 14.303 2.32 18.397 7.217 4.191 5.013 6.793 13.275 6.793 26.162zm-6.787-97.224c.063.06.125.123.188.184-5.512-5.398-13.784-7.951-25.401-8.112l-1.193-.008c-8.494 0-15.187 1.159-20.363 3.757.108-.055.215-.11.324-.163l-.073.034c-.183.089-.362.183-.541.275.06-.031.121-.06.182-.091-2.336 1.186-4.361 2.667-6.102 4.472.14-.145.282-.289.426-.43-.029.028-.059.054-.087.083l16.954-16.954c2.57.355 5.361.549 8.387.59l1.251.009c15.653 0 25.23-3.821 30.515-13.166-.032.058-.063.116-.096.173 8.108 1.055 14.14 3.729 18.399 8.257zm1.8-150.2679-.165-.1865c-5.63-6.4593-14.502-9.2139-27.683-9.2139-4.639 0-8.744.3411-12.363 1.0644l-.034.0069c-.311.0625-.619.1281-.923.1963l-.016.0039c-5.508 1.2375-9.839 3.4165-13.172 6.6924-.036.0356-.074.0704-.11.1064l21.881-21.8828c5.662-5.68063 14.257-8.12203 26.671-8.12208 13.758.00005 22.825 2.99937 28.408 10.08198zm-48.677 146.1439c.036-.019.072-.037.108-.055-.036.018-.072.036-.108.055zm33.423-119.0638c0-4.0341-.789-7.5968-3.134-10.1172-2.396-2.5746-5.795-3.4073-9.46-3.4073-3.665.0001-7.063.833-9.459 3.4073-2.345 2.5204-3.135 6.0831-3.135 10.1172v70.3538c0 4.034.789 7.596 3.135 10.117 2.396 2.574 5.794 3.408 9.459 3.408s7.064-.834 9.46-3.408c2.345-2.52 3.133-6.083 3.134-10.117zm.014 204.5918c0-4.034-.789-7.597-3.134-10.117-2.395-2.575-5.795-3.409-9.46-3.409-3.664 0-7.063.834-9.459 3.409-2.345 2.52-3.134 6.083-3.134 10.117v17.494c0 4.034.789 7.597 3.134 10.117 2.396 2.574 5.795 3.408 9.459 3.408 3.665 0 7.065-.833 9.46-3.408 2.346-2.52 3.134-6.083 3.134-10.117zm-3.116-134.238c0 7.444-2.978 10.423-9.492 10.423-4.045-.001-6.995-2.227-6.995-2.227l16.487-16.486zm.015 151.732c0 7.445-2.979 10.423-9.493 10.423-3.747 0-6.972-2.21-6.995-2.226l16.488-16.488z" fill="#fff"/></svg>