<svg fill="none" height="546" viewBox="0 0 722 546" width="722" xmlns="http://www.w3.org/2000/svg" xmlns:xlink="http://www.w3.org/1999/xlink"><linearGradient id="a"><stop offset="0" stop-color="#c9c9c9"/><stop offset="1" stop-color="#949494"/></linearGradient><linearGradient id="b" gradientUnits="userSpaceOnUse" x1="623.103" x2="623.103" xlink:href="#a" y1="300.389" y2="545.289"/><linearGradient id="c" gradientUnits="userSpaceOnUse" x1="488.583" x2="488.583" xlink:href="#a" y1="300.389" y2="542.108"/><linearGradient id="d"><stop offset="0" stop-color="#fff"/><stop offset="1" stop-color="#fff" stop-opacity="0"/></linearGradient><linearGradient id="e" gradientUnits="userSpaceOnUse" x1="623.103" x2="694.665" xlink:href="#d" y1="300.389" y2="415.218"/><linearGradient id="f" gradientUnits="userSpaceOnUse" x1="488.583" x2="559.296" xlink:href="#d" y1="300.389" y2="413.562"/><linearGradient id="g" gradientUnits="userSpaceOnUse" x1="623.079" x2="623.079" xlink:href="#a" y1="41.104" y2="286.003"/><linearGradient id="h" gradientUnits="userSpaceOnUse" x1="488.583" x2="488.583" xlink:href="#a" y1="41.104" y2="282.823"/><linearGradient id="i" gradientUnits="userSpaceOnUse" x1="623.079" x2="694.641" xlink:href="#d" y1="41.104" y2="155.933"/><linearGradient id="j" gradientUnits="userSpaceOnUse" x1="488.583" x2="559.296" xlink:href="#d" y1="41.104" y2="154.277"/><g clip-rule="evenodd" fill-rule="evenodd"><path d="m90.6445 303.57c-4.5499 0-7.4752.62-9.2708 2.354-.0242.024-.0482.047-.0719.071l.0719-.071 37.4103-37.411c1.789-1.789 4.731-2.426 9.343-2.426h20.355c9.224 0 11.768 2.545 11.768 11.768l-37.482 37.483c0-9.224-2.545-11.768-11.768-11.768z" fill="#ff6752"/><path d="m85.5875 459.145-37.4825 37.482c2.8624 2.863 7.2356 4.135 13.2786 4.135 5.8839 0 10.2571-1.272 13.1593-4.135l37.4821-37.482c-2.902 2.862-7.275 4.134-13.1588 4.134-6.043 0-10.4162-1.272-13.2787-4.134z" fill="#ff6752"/><path d="m43.8906 315.338v167.613c0 6.361 1.3518 10.814 4.2143 13.676l37.4825-37.482c-2.8625-2.863-4.2141-7.316-4.2141-13.677v-139.543-28.07z" fill="#102775"/><path d="m122.768 475.318v-159.98l37.482-37.483v159.98c0 27.14-4.288 45.166-15.185 56.116l-37.482 37.483c10.896-10.95 15.185-28.977 15.185-56.116z" fill="#102775"/><path d="m11.7676 303.57c-4.61178 0-7.55376.636-9.3428 2.425l37.4826-37.482c1.789-1.789 4.731-2.426 9.3428-2.426h20.3552c9.2235 0 11.7679 2.545 11.7679 11.768l-37.4826 37.483c0-9.224-2.5444-11.768-11.7679-11.768z" fill="#ff6752"/><path d="m180.626 482.951v-13.994l37.483-37.483v13.994c0 12.722 5.089 17.811 16.221 17.811 5.566 0 9.621-1.192 12.284-3.816l-37.482 37.482c-2.664 2.624-6.719 3.817-12.285 3.817-11.132 0-16.221-5.089-16.221-17.811z" fill="#102775"/><path d="m147.231 457.189c-4.612 0-7.554.636-9.343 2.425l37.483-37.483c1.789-1.789 4.731-2.425 9.343-2.425h21.627c9.223 0 11.768 2.544 11.768 11.768l-37.483 37.483c0-9.224-2.544-11.768-11.768-11.768z" fill="#102775"/><path d="m150.039 315.283c.117-.119.235-.237.354-.354z" fill="#102775"/><path d="m150.039 315.283c.117-.119.235-.237.354-.354z" fill="#102775"/><path d="m150.039 315.286c.118-.12.237-.239.357-.357zm136.734-30.269c-8.969-15.659-25.403-22.11-52.443-22.11-22.136 0-37.165 5.13-46.808 14.896l-37.126 37.126c9.656-9.535 24.586-14.539 46.451-14.539 26.039 0 42.243 5.982 51.417 20.408z" fill="#ff6752"/><path d="m258.231 482.951v-5.725l37.482-37.482v5.725c0 20.838-4.128 36.861-14.575 47.441l-37.483 37.483c10.448-10.58 14.576-26.603 14.576-47.442z" fill="#102775"/><path d="m180.626 366.545c0 9.223 1.909 13.676 10.814 21.945l40.711 36.894c21.309 19.083 26.08 30.533 26.08 51.842l37.483-37.482c0-21.31-4.771-32.759-26.081-51.843l-40.71-36.893c-8.906-8.27-10.814-12.723-10.814-21.946z" fill="#102775"/><path d="m180.626 361.138c0-5.725 1.273-9.781 3.936-12.404l37.371-37.371c-2.587 2.626-3.824 6.648-3.824 12.292v5.407l-37.483 37.482zm41.419-49.887-.112.112c.037-.038.074-.075.112-.112z" fill="#102775"/><path d="m248.263 320.798c7.074 11.124 9.968 27.269 9.968 49.563v6.361c0 4.52-.611 7.435-2.319 9.234l37.482-37.483c1.709-1.798 2.32-4.714 2.32-9.234v-6.361c0-21.182-2.613-36.813-8.941-47.861z" fill="#102775"/></g><path d="m191.439 388.49 40.711 36.894c21.309 19.083 26.08 30.533 26.08 51.842v5.725c0 40.074-15.266 62.338-61.384 62.338-46.117 0-61.384-18.765-61.384-69.971v-6.361c0-9.224 2.545-11.768 11.768-11.768h21.628c9.223 0 11.768 2.544 11.768 11.768v13.994c0 12.722 5.088 17.811 16.22 17.811s16.221-4.771 16.221-16.221v-6.043c0-8.905-1.908-13.358-13.676-23.854l-38.167-34.031c-21.309-18.765-25.762-29.579-25.762-50.888v-6.997c0-40.075 15.267-62.338 61.384-62.338 46.118 0 61.384 18.765 61.384 69.971v6.361c0 9.223-2.544 11.768-11.768 11.768h-21.627c-9.224 0-11.768-2.545-11.768-11.768v-13.994c0-12.722-5.089-17.811-16.221-17.811s-16.22 4.771-16.22 16.22v5.407c0 9.224 1.908 13.677 10.813 21.946z" fill="#ff6752"/><path d="m78.8767 315.338c0-9.223 2.5444-11.768 11.7679-11.768h20.3554c9.223 0 11.768 2.545 11.768 11.768v159.98c0 51.206-15.267 69.971-61.3841 69.971-46.1174 0-61.3839-18.765-61.3839-69.971v-159.98c0-9.223 2.54442-11.768 11.7679-11.768h20.3553c9.2234 0 11.7679 2.545 11.7679 11.768v167.613c0 12.722 5.4068 17.811 17.4928 17.811 11.7679 0 17.4928-5.089 17.4928-17.811z" fill="#ff6752"/><path d="m196.846 303.04c22.798 0 37.16 4.654 45.981 14.865 8.917 10.323 12.753 26.962 12.753 52.456v6.361c0 4.576-.685 6.505-1.649 7.468-.964.964-2.892 1.65-7.469 1.65h-21.628c-4.576 0-6.505-.686-7.468-1.65-.964-.963-1.649-2.892-1.649-7.468v-13.994c0-6.628-1.31-11.897-4.646-15.482-3.379-3.631-8.31-4.979-14.225-4.979-5.874 0-10.764 1.249-14.144 4.579-3.389 3.337-4.727 8.238-4.727 14.292v5.406c0 4.793.492 8.668 2.33 12.481 1.81 3.755 4.809 7.207 9.331 11.407l.012.011.012.011 40.71 36.894.005.005.006.005c10.56 9.457 16.783 16.818 20.417 24.274 3.609 7.404 4.782 15.141 4.782 25.595v5.724c0 19.789-3.787 34.566-12.712 44.417-8.876 9.796-23.342 15.271-46.022 15.271-22.798 0-37.16-4.655-45.98-14.866-8.917-10.323-12.753-26.962-12.753-52.456v-6.36c0-4.576.685-6.505 1.648-7.469.964-.963 2.893-1.649 7.469-1.649h21.628c4.576 0 6.505.686 7.469 1.649.963.964 1.648 2.893 1.648 7.469v13.994c0 6.627 1.311 11.897 4.647 15.482 3.379 3.631 8.31 4.979 14.224 4.979 5.874 0 10.764-1.249 14.145-4.579 3.388-3.338 4.726-8.239 4.726-14.292v-6.043c0-4.672-.502-8.518-2.754-12.608-2.179-3.959-5.893-7.948-11.808-13.224l-38.166-34.031-.007-.006-.006-.005-.977-.866c-9.97-8.884-15.83-15.784-19.266-22.801-3.522-7.192-4.62-14.759-4.62-25.232v-6.997c0-19.79 3.786-34.566 12.712-44.417 8.875-9.796 23.341-15.271 46.021-15.271z" stroke="#102775" stroke-width="5.30085"/><path d="m11.7681 306.221h20.3554c4.576 0 6.505.685 7.4688 1.648.9637.964 1.6484 2.893 1.6484 7.469v167.613c0 6.661 1.405 11.965 4.9912 15.551 3.5876 3.587 8.8134 4.91 15.1524 4.91 6.1989 0 11.4045-1.331 15.0205-4.897 3.6222-3.573 5.123-8.867 5.123-15.564v-167.613c.0001-4.576.6848-6.505 1.6485-7.469.9637-.963 2.8927-1.648 7.4687-1.648h20.355c4.577 0 6.506.684 7.469 1.648.964.964 1.649 2.893 1.649 7.469v159.98c0 25.494-3.836 42.132-12.753 52.455-8.8204 10.211-23.183 14.866-45.9807 14.866s-37.1603-4.655-45.9805-14.866c-8.91699-10.323-12.75288-26.961-12.75292-52.455v-159.98c.00003-4.576.68475-6.505 1.64844-7.469.96368-.964 2.8927-1.648 7.46878-1.648z" stroke="#102775" stroke-width="5.30085"/><path clip-rule="evenodd" d="m124.389 202.869v-85.874l37.483-37.4823v85.8733c0 28.116-3.354 47.632-15.16 59.889l-37.483 37.483c11.806-12.258 15.16-31.773 15.16-59.889z" fill="#102775" fill-rule="evenodd"/><path clip-rule="evenodd" d="m49.9647 234.674c-2.22 0-3.6494-.395-4.5248-1.304l37.3265-37.657c.8576 1.033 2.3235 1.479 4.6808 1.479h3.4986c8.3711 0 14.5642-1.827 18.7772-5.91l-37.4823 37.483c-4.2132 4.082-10.4064 5.909-18.7775 5.909z" fill="#ff6752" fill-rule="evenodd"/><path clip-rule="evenodd" d="m103.344 52.0876c16.612 11.6285 21.045 32.5849 21.045 64.9074l37.483-37.4824c0-31.5243-4.217-52.2368-19.836-64.0287z" fill="#102775" fill-rule="evenodd"/><path clip-rule="evenodd" d="m2.7749 43.0879c1.78904-1.789 4.73101-2.4251 9.3428-2.4251h38.8022c24.5601 0 41.2488 3.6013 52.4251 11.4246l38.691-36.6037c-11.17-8.43291-28.172-12.30352-53.6335-12.30352h-38.8022c-4.6118 0-7.5538.6361-9.3428 2.42514z" fill="#ff6752" fill-rule="evenodd"/><path clip-rule="evenodd" d="m44.2402 90.9152c0-2.2263.3181-3.6576 1.1927-4.5322l37.4826-37.4826c-.8746.8746-1.1927 2.3059-1.1927 4.5322v138.0344c0 1.946.2818 3.328 1.0441 4.246l-37.3265 37.657c-.8803-.914-1.2002-2.347-1.2002-4.421z" fill="#102775" fill-rule="evenodd"/><path d="m50.9193 40.6631c61.0657 0 73.4697 22.2636 73.4697 76.3319v85.874c0 54.069-12.404 76.332-73.4697 76.332h-38.8023c-9.22347 0-11.767879-2.544-11.767879-11.767v-215.003c0-9.2235 2.544409-11.7679 11.767879-11.7679zm-.9542 44.5272c-4.4527 0-5.7249 1.2722-5.7249 5.7249v138.0338c0 4.135 1.2722 5.725 5.7249 5.725h3.4986c17.8108 0 25.7621-8.269 25.7621-28.942v-91.599c0-20.6734-7.9513-28.9427-25.7621-28.9427z" fill="#ff6752"/><path clip-rule="evenodd" d="m234.491 0c25.831 0 41.783 5.88685 50.82 20.0636l-38.431 36.0613c-9.188-13.1501-24.922-18.6423-49.871-18.6423-21.581 0-36.406 4.109-46.072 13.7285l37.356-37.3556c9.663-9.71031 24.523-13.8555 46.198-13.8555z" fill="#ff6752" fill-rule="evenodd"/><path clip-rule="evenodd" d="m197.327 237.854c-5.344 0-9.368-1.172-12.108-3.798l36.428-38.645c2.717 3.445 7.087 4.961 13.162 4.961 5.343 0 9.368-1.173 12.108-3.799l-37.482 37.483c-2.741 2.626-6.765 3.798-12.108 3.798z" fill="#ff6752" fill-rule="evenodd"/><path clip-rule="evenodd" d="m180.788 99.8204c0-6.6155 1.462-11.1669 4.431-14.0121l37.147-37.1472c-2.743 2.8625-4.095 7.3153-4.095 13.6767v120.2232c0 5.779 1.115 9.983 3.376 12.85l-36.428 38.645c-2.969-2.845-4.431-7.397-4.431-14.012zm41.913-51.4947-.335.3354c.11-.1143.221-.2261.335-.3354z" fill="#102775" fill-rule="evenodd"/><path clip-rule="evenodd" d="m257.757 212.41v-9.541l37.482-37.483v9.542c0 27.139-4.11 45.166-14.838 56.116l-37.483 37.482c10.729-10.95 14.839-28.976 14.839-56.116z" fill="#102775" fill-rule="evenodd"/><path clip-rule="evenodd" d="m225.633 191.101c-4.611 0-7.553.636-9.342 2.425l37.482-37.482c1.789-1.789 4.731-2.425 9.343-2.425h20.355c9.224 0 11.768 2.544 11.768 11.768l-37.483 37.482c0-9.223-2.544-11.768-11.767-11.768z" fill="#102775" fill-rule="evenodd"/><path d="m257.758 202.869v9.542c0 51.206-14.631 69.971-60.748 69.971-46.118 0-61.384-18.765-61.384-69.971v-104.957c0-51.2066 15.266-69.9716 61.384-69.9716 46.117 0 60.748 18.765 60.748 69.9716v9.541c0 9.224-2.545 11.768-11.768 11.768h-20.355c-9.224 0-11.768-2.544-11.768-11.768v-17.1745c0-12.7221-5.407-17.8109-16.539-17.8109s-16.539 5.0888-16.539 17.8109v120.2235c0 12.722 5.407 17.811 16.539 17.811s16.539-5.089 16.539-17.811v-17.175c0-9.223 2.544-11.768 11.768-11.768h20.355c9.223 0 11.768 2.545 11.768 11.768z" fill="#ff6752"/><path clip-rule="evenodd" d="m246.879 56.1247c7.795 11.1567 10.877 27.8253 10.877 51.3283v9.542c0 4.519-.61 7.435-2.319 9.234l37.483-37.4826c1.708-1.7986 2.319-4.7145 2.319-9.234v-9.5416c0-22.5255-2.831-38.773-9.928-49.9073z" fill="#102775" fill-rule="evenodd"/><path d="m12.1167 43.3135h38.8027c30.3666 0 47.6972 5.5696 57.6356 16.9804 10.028 11.5137 13.184 29.6653 13.184 56.7011v85.874c0 27.036-3.156 45.188-13.184 56.701-9.9384 11.411-27.2689 16.981-57.6356 16.981h-38.8027c-4.57606 0-6.50507-.685-7.46875-1.649-.96363-.963-1.64844-2.892-1.64844-7.468v-215.0033c.00003-4.5761.68476-6.5051 1.64844-7.4688s2.8927-1.6484 7.46875-1.6484zm37.8486 39.2265c-2.2817 0-4.713.2757-6.4062 1.9688-1.6932 1.6932-1.9697 4.1245-1.9697 6.4062v138.034c0 2.183.298 4.541 1.9277 6.245 1.6566 1.732 4.046 2.131 6.4482 2.131h3.4981c9.264 0 16.5952-2.149 21.5244-7.59 4.8709-5.376 6.8887-13.422 6.8887-24.004v-91.598c0-10.582-2.0179-18.6268-6.8887-24.0031-4.9292-5.4407-12.2602-7.5899-21.5244-7.5899z" stroke="#102775" stroke-width="5.30085"/><path d="m197.01 40.1328c22.8 0 36.989 4.6551 45.648 14.8486 8.767 10.3205 12.449 26.9605 12.449 52.4726v9.541c0 4.576-.685 6.505-1.649 7.469-.964.963-2.892 1.648-7.468 1.648h-20.355c-4.576 0-6.505-.684-7.469-1.648s-1.649-2.893-1.649-7.469v-17.1747c0-6.6626-1.405-11.934-4.831-15.5098-3.453-3.6028-8.442-4.9511-14.358-4.9511-5.915 0-10.905 1.3482-14.357 4.9511-3.427 3.5758-4.832 8.8471-4.832 15.5098v120.2237c0 6.663 1.405 11.934 4.832 15.51 3.452 3.603 8.442 4.951 14.357 4.951 5.916 0 10.905-1.348 14.358-4.951 3.426-3.576 4.831-8.847 4.831-15.51v-17.175c0-4.576.685-6.505 1.649-7.469.964-.963 2.893-1.648 7.469-1.648h20.355c4.576 0 6.504.685 7.468 1.648.964.964 1.649 2.893 1.649 7.469v9.541c0 25.512-3.682 42.152-12.449 52.473-8.659 10.193-22.848 14.848-45.648 14.848-22.798 0-37.161-4.654-45.981-14.865-8.917-10.323-12.753-26.962-12.753-52.456v-104.956c0-25.4937 3.836-42.1328 12.753-52.456 8.82-10.2109 23.183-14.8652 45.981-14.8652z" stroke="#102775" stroke-width="5.30085"/><path clip-rule="evenodd" d="m475.671 348.715c-2.886 2.845-4.262 7.397-4.262 14.012v17.175c0 4.519-.611 7.435-2.32 9.234l37.483-37.483c1.708-1.798 2.319-4.714 2.319-9.234v-17.174c0-6.616 1.376-11.167 4.262-14.013z" fill="#102775" fill-rule="evenodd"/><path clip-rule="evenodd" d="m443.662 314.178c.059-.06.118-.119.177-.178z" fill="#ffbc5e" fill-rule="evenodd"/><path clip-rule="evenodd" d="m577.956 285.485c-9.033-15.052-25.786-22.578-52.844-22.578-20.337 0-34.548 4.307-43.967 13.788l-37.306 37.305c9.42-9.357 23.581-13.611 43.79-13.611 25.987 0 42.467 6.943 51.733 20.827z" fill="#ffbc5e" fill-rule="evenodd"/><path clip-rule="evenodd" d="m584.176 464.223c-1.778-1.872-4.744-2.534-9.448-2.534h-49.616c-2.444 0-3.979-.65-4.691-1.744l-36.609 38.347c.85.563 2.112.879 3.817.879h49.616c5.014 0 8.055.752 9.785 2.921z" fill="#102775" fill-rule="evenodd"/><path clip-rule="evenodd" d="m549.013 530.34v-19.401c0-4.209-.53-7.027-1.983-8.847l37.146-37.869c1.709 1.798 2.32 4.714 2.32 9.234v19.401c0 4.519-.611 7.435-2.32 9.234l-37.482 37.482c1.708-1.798 2.319-4.714 2.319-9.234z" fill="#102775" fill-rule="evenodd"/><path clip-rule="evenodd" d="m577.427 314.16c.07-.07.139-.14.209-.209zm129.074-36.249c-9.712-10.325-24.817-15.004-46.552-15.004-20.922 0-35.45 4.105-45.039 13.771l-37.274 37.273c9.592-9.516 24.06-13.562 44.83-13.562 20.695 0 35.38 4.243 45.122 13.562z" fill="#ffbc5e" fill-rule="evenodd"/><path clip-rule="evenodd" d="m606.882 362.727c0-6.615 1.376-11.167 4.307-14.012l37.255-37.255c-2.775 2.858-4.08 7.343-4.08 13.785v34.349c0 .954.318 1.272.955 1.272l-37.483 37.483c-.636 0-.954-.318-.954-1.272zm41.789-51.495-.227.228c.074-.077.15-.153.227-.228z" fill="#102775" fill-rule="evenodd"/><path clip-rule="evenodd" d="m684.487 480.088v-27.035l37.482-37.482v27.034c0 23.52-4.384 40.008-14.587 50.52l-37.483 37.482c10.203-10.511 14.588-26.999 14.588-50.519z" fill="#102775" fill-rule="evenodd"/><path clip-rule="evenodd" d="m607.836 398.349c.637 0 1.273-.318 2.227-.954 6.043-4.135 12.722-6.68 26.08-6.68 30.215 0 48.344 17.175 48.344 62.339l37.482-37.483c0-45.163-18.129-62.338-48.343-62.338-13.359 0-20.038 2.544-26.081 6.679-.954.636-1.59.954-2.226.954z" fill="#102775" fill-rule="evenodd"/><path clip-rule="evenodd" d="m623.103 500.761c-5.343 0-9.294-1.172-11.958-3.798l37.482-37.483c2.664 2.626 6.615 3.799 11.959 3.799 5.343 0 9.294-1.173 11.958-3.799l-37.483 37.483c-2.664 2.626-6.615 3.798-11.958 3.798zm25.524-99.202-.11.11c.037-.037.073-.074.11-.11z" fill="#ffbc5e" fill-rule="evenodd"/><path clip-rule="evenodd" d="m606.883 453.054c0-6.616 1.376-11.167 4.262-14.012l37.373-37.373c-2.811 2.852-4.153 7.371-4.153 13.902v29.897c0 6.615 1.376 11.167 4.263 14.012l-37.483 37.483c-2.886-2.846-4.262-7.397-4.262-14.012zm41.745-51.495-.11.11c.036-.037.073-.074.11-.11z" fill="#102775" fill-rule="evenodd"/><path clip-rule="evenodd" d="m667.588 313.951c8.407 8.042 13.132 19.863 14.861 36.001.516 4.822.766 10.03.766 15.638v1.272c0 4.519-.611 7.435-2.32 9.234l37.483-37.483c1.708-1.798 2.319-4.714 2.319-9.234v-1.272c0-4.958-.195-9.604-.597-13.947-1.487-16.049-5.807-27.966-13.598-36.249z" fill="#102775" fill-rule="evenodd"/><path clip-rule="evenodd" d="m539.362 321.216c6.725 10.076 9.651 23.806 9.651 41.194 0 17.81-6.361 37.212-19.719 57.885l-45.482 71.561c-1.742 2.831-1.844 5.215 0 6.437l36.609-38.348c-.864-1.326-.52-3.306.874-5.571l45.481-71.562c13.358-20.673 19.719-40.074 19.719-57.885 0-16.399-2.601-29.547-8.539-39.442z" fill="#102775" fill-rule="evenodd"/><path d="m606.882 397.077c0 .954.318 1.272.954 1.272s1.272-.318 2.227-.954c6.043-4.135 12.722-6.679 26.08-6.679 30.215 0 48.344 17.174 48.344 62.338v27.034c0 46.117-16.857 65.201-61.384 65.201-46.118 0-61.384-19.402-61.384-73.152v-98.596c0-53.751 15.266-73.152 60.748-73.152 43.891 0 60.747 19.083 60.747 65.201v1.272c0 9.223-2.544 11.768-11.768 11.768h-19.719c-9.223 0-11.768-2.545-11.768-11.768v-7.315c0-10.496-5.407-14.631-16.538-14.631-11.45 0-16.539 5.089-16.539 17.811zm32.441 85.874v-29.897c0-12.722-5.089-17.811-16.22-17.811-11.132 0-16.221 5.089-16.221 17.811v29.897c0 12.722 5.089 17.81 16.221 17.81 11.131 0 16.22-5.088 16.22-17.81z" fill="url(#b)"/><path d="m483.812 491.856c-2.544 4.135-1.59 7.315 3.817 7.315h49.616c9.223 0 11.768 2.545 11.768 11.768v19.401c0 9.224-2.545 11.768-11.768 11.768h-94.779c-9.224 0-11.768-2.544-11.768-11.768v-22.9c0-8.587.636-12.722 4.134-18.128l55.659-85.238c8.588-13.04 13.358-28.943 13.358-40.393 0-13.994-4.452-18.765-16.22-18.765-11.132 0-16.221 5.089-16.221 17.811v17.175c0 9.223-2.544 11.768-11.768 11.768h-19.719c-9.223 0-11.768-2.545-11.768-11.768v-9.542c0-49.616 15.267-69.971 59.476-69.971 44.845 0 61.384 20.673 61.384 62.02 0 17.811-6.361 37.212-19.719 57.885z" fill="url(#c)"/><path d="m606.883 397.077c0 .954.318 1.272.954 1.272s1.272-.318 2.226-.954c6.043-4.135 12.722-6.679 26.08-6.679 30.215 0 48.344 17.174 48.344 62.338v27.034c0 46.117-16.857 65.201-61.384 65.201-46.117 0-61.384-19.402-61.384-73.152v-98.596c0-53.751 15.267-73.152 60.748-73.152 43.891 0 60.748 19.083 60.748 65.201v1.272c0 9.223-2.545 11.768-11.768 11.768h-19.719c-9.224 0-11.768-2.545-11.768-11.768v-7.315c0-10.496-5.407-14.631-16.539-14.631-11.45 0-16.538 5.089-16.538 17.811zm32.441 85.874v-29.897c0-12.722-5.089-17.811-16.221-17.811s-16.22 5.089-16.22 17.811v29.897c0 12.722 5.088 17.81 16.22 17.81s16.221-5.088 16.221-17.81z" fill="url(#e)"/><path d="m483.812 491.856c-2.544 4.135-1.59 7.315 3.817 7.315h49.616c9.223 0 11.768 2.545 11.768 11.768v19.401c0 9.224-2.545 11.768-11.768 11.768h-94.779c-9.224 0-11.768-2.544-11.768-11.768v-22.9c0-8.587.636-12.722 4.134-18.128l55.659-85.238c8.588-13.04 13.358-28.943 13.358-40.393 0-13.994-4.452-18.765-16.22-18.765-11.132 0-16.221 5.089-16.221 17.811v17.175c0 9.223-2.544 11.768-11.768 11.768h-19.719c-9.223 0-11.768-2.545-11.768-11.768v-9.542c0-49.616 15.267-69.971 59.476-69.971 44.845 0 61.384 20.673 61.384 62.02 0 17.811-6.361 37.212-19.719 57.885z" fill="url(#f)"/><path d="m606.883 397.077c0 .954.318 1.272.954 1.272s1.272-.318 2.226-.954c6.043-4.135 12.722-6.679 26.08-6.679 30.215 0 48.344 17.174 48.344 62.338v27.034c0 46.117-16.857 65.201-61.384 65.201-46.117 0-61.384-19.402-61.384-73.152v-98.596c0-53.751 15.267-73.152 60.748-73.152 43.891 0 60.748 19.083 60.748 65.201v1.272c0 9.223-2.545 11.768-11.768 11.768h-19.719c-9.224 0-11.768-2.545-11.768-11.768v-7.315c0-10.496-5.407-14.631-16.539-14.631-11.45 0-16.538 5.089-16.538 17.811zm32.441 85.874v-29.897c0-12.722-5.089-17.811-16.221-17.811s-16.22 5.089-16.22 17.811v29.897c0 12.722 5.088 17.81 16.22 17.81s16.221-5.088 16.221-17.81z" fill="#ffbc5e"/><path d="m483.812 491.856c-2.544 4.135-1.59 7.315 3.817 7.315h49.616c9.223 0 11.768 2.545 11.768 11.768v19.401c0 9.224-2.545 11.768-11.768 11.768h-94.779c-9.224 0-11.768-2.544-11.768-11.768v-22.9c0-8.587.636-12.722 4.134-18.128l55.659-85.238c8.588-13.04 13.358-28.943 13.358-40.393 0-13.994-4.452-18.765-16.22-18.765-11.132 0-16.221 5.089-16.221 17.811v17.175c0 9.223-2.544 11.768-11.768 11.768h-19.719c-9.223 0-11.768-2.545-11.768-11.768v-9.542c0-49.616 15.267-69.971 59.476-69.971 44.845 0 61.384 20.673 61.384 62.02 0 17.811-6.361 37.212-19.719 57.885z" fill="#ffbc5e"/><path d="m622.467 303.04c21.635 0 35.916 4.712 44.883 14.451 9.017 9.793 13.214 25.255 13.214 48.098v1.273c0 4.576-.685 6.505-1.648 7.469-.964.963-2.893 1.648-7.469 1.648h-19.719c-4.576 0-6.505-.685-7.469-1.648-.963-.964-1.649-2.893-1.649-7.469v-7.316c0-5.678-1.471-10.229-5.023-13.265-3.456-2.956-8.365-4.015-14.166-4.015-6.054 0-11.065 1.339-14.49 4.965-3.389 3.589-4.699 8.87-4.699 15.496v34.35c0 .654.085 1.731.819 2.649.86 1.075 2.044 1.273 2.785 1.274 1.523 0 2.767-.779 3.698-1.4l.012-.009.014-.008c5.527-3.782 11.661-6.217 24.583-6.217 14.598 0 25.817 4.13 33.469 13.283 7.735 9.253 12.224 24.103 12.224 46.405v27.034c0 22.844-4.196 38.3-13.286 48.091-9.043 9.742-23.484 14.459-45.447 14.459-22.775 0-37.118-4.803-45.944-15.46-8.948-10.804-12.789-28.257-12.789-55.041v-98.596c0-26.783 3.839-44.243 12.715-55.05 8.75-10.654 22.936-15.451 45.382-15.451zm.636 129.552c-5.914 0-10.846 1.349-14.225 4.98-3.335 3.584-4.646 8.855-4.646 15.482v29.897c0 6.627 1.311 11.896 4.646 15.481 3.379 3.631 8.311 4.98 14.225 4.98 5.915 0 10.847-1.349 14.226-4.98 3.335-3.585 4.645-8.854 4.645-15.481v-29.897c0-6.627-1.31-11.898-4.645-15.482-3.379-3.631-8.311-4.98-14.226-4.98z" stroke="#102775" stroke-width="5.30085"/><path d="m487.629 303.04c22.073 0 36.553 5.091 45.58 14.671 9.059 9.614 13.153 24.295 13.153 44.698 0 17.167-6.131 36.075-19.295 56.447l-.005.009-.005.008-45.482 71.561-.01.017-.01.016c-1.394 2.265-2.395 5.128-1.229 7.694 1.258 2.766 4.267 3.661 7.303 3.661h49.616c4.576 0 6.505.685 7.469 1.648.964.964 1.648 2.893 1.648 7.469v19.401c0 4.576-.684 6.505-1.648 7.469s-2.893 1.648-7.469 1.649h-94.779c-4.576 0-6.505-.685-7.469-1.649s-1.648-2.893-1.648-7.469v-22.899c0-4.264.162-7.209.696-9.702.519-2.423 1.41-4.513 3.012-6.989l55.653-85.228c8.826-13.406 13.79-29.803 13.79-41.841 0-7.134-1.103-12.675-4.356-16.379-3.343-3.805-8.366-5.036-14.515-5.036-5.915 0-10.846 1.349-14.225 4.98-3.335 3.584-4.646 8.854-4.646 15.481v17.175c0 4.576-.685 6.505-1.649 7.469-.963.963-2.892 1.648-7.468 1.648h-19.72c-4.576 0-6.505-.685-7.469-1.648-.963-.964-1.648-2.893-1.648-7.469v-9.541c0-24.672 3.826-41.358 12.55-51.903 8.613-10.408 22.518-15.418 44.275-15.418z" stroke="#102775" stroke-width="5.30085"/><path clip-rule="evenodd" d="m475.67 89.4299c-2.886 2.8451-4.262 7.3966-4.262 14.0121v17.175c0 4.519-.611 7.435-2.319 9.234l37.482-37.4829c1.709-1.7986 2.32-4.7145 2.32-9.234v-17.1748c0-6.6154 1.376-11.1669 4.262-14.012z" fill="#102775" fill-rule="evenodd"/><path clip-rule="evenodd" d="m443.662 54.8901c.058-.0585.116-.1167.174-.1748z" fill="#102775" fill-rule="evenodd"/><path clip-rule="evenodd" d="m443.662 54.8925c.059-.0593.118-.1183.177-.1772z" fill="#ffbc5e" fill-rule="evenodd"/><path clip-rule="evenodd" d="m572.602 19.1067c-9.741-10.3234-25.082-15.48512-47.49-15.48512-20.337 0-34.548 4.30718-43.967 13.78832l-37.306 37.3054c9.42-9.3576 23.581-13.6111 43.79-13.6111 23.76 0 39.574 5.8031 49.192 17.4094z" fill="#ffbc5e" fill-rule="evenodd"/><path clip-rule="evenodd" d="m712.627 54.8901c.058-.0585.116-.1167.175-.1748z" fill="#102775" fill-rule="evenodd"/><path clip-rule="evenodd" d="m584.176 204.938c-1.778-1.873-4.745-2.534-9.449-2.534h-49.616c-2.444 0-3.978-.65-4.691-1.744l-36.608 38.347c.849.563 2.112.879 3.817.879h49.616c5.014 0 8.054.752 9.785 2.921z" fill="#102775" fill-rule="evenodd"/><path clip-rule="evenodd" d="m549.013 271.055v-19.401c0-4.209-.53-7.027-1.983-8.847l37.146-37.869c1.708 1.798 2.319 4.714 2.319 9.234v19.401c0 4.519-.611 7.435-2.319 9.234l-37.483 37.482c1.709-1.798 2.32-4.714 2.32-9.234z" fill="#102775" fill-rule="evenodd"/><path clip-rule="evenodd" d="m577.593 54.8945c9.676-9.6434 24.337-13.7903 45.486-13.7903 22.742 0 37.982 4.7954 47.588 16.0646l38.436-36.3194c-9.54-12.10322-25.032-17.22782-48.542-17.22782-21.214 0-35.9 4.17258-45.575 13.87992z" fill="#ffbc5e" fill-rule="evenodd"/><path clip-rule="evenodd" d="m623.079 241.476c-5.344 0-9.295-1.172-11.959-3.799l37.483-37.482c2.664 2.626 6.615 3.799 11.958 3.799s9.294-1.173 11.959-3.799l-37.483 37.482c-2.664 2.627-6.615 3.799-11.958 3.799z" fill="#ffbc5e" fill-rule="evenodd"/><path clip-rule="evenodd" d="m606.858 103.442c0-6.6155 1.376-11.167 4.263-14.0121l37.373-37.373c-2.812 2.8519-4.153 7.3713-4.153 13.9024v120.2237c0 6.615 1.376 11.167 4.262 14.012l-37.482 37.482c-2.887-2.845-4.263-7.396-4.263-14.012zm41.745-51.4947-.109.1096c.036-.0368.072-.0734.109-.1096z" fill="#102775" fill-rule="evenodd"/><path clip-rule="evenodd" d="m536.821 58.5138c8.535 10.2999 12.191 25.1702 12.191 44.6102 0 17.811-6.361 37.212-19.719 57.886l-45.481 71.561c-1.742 2.831-1.844 5.215 0 6.436l36.608-38.347c-.864-1.326-.52-3.306.874-5.571l45.482-71.562c13.358-20.673 19.719-40.0743 19.719-57.8851 0-20.6866-4.14-36.1983-13.894-46.535z" fill="#102775" fill-rule="evenodd"/><path clip-rule="evenodd" d="m670.667 57.1685c9.874 11.5827 13.796 30.0044 13.796 57.0875v98.596c0 28.487-4.289 47.326-15.186 58.742l37.483-37.482c10.897-11.416 15.185-30.255 15.185-58.743v-98.5959c0-26.1935-3.668-44.2853-12.842-55.924z" fill="#102775" fill-rule="evenodd"/><path d="m684.463 212.852c0 53.75-15.267 73.151-61.384 73.151-46.118 0-61.384-19.401-61.384-73.151v-98.596c0-53.4328 15.266-73.152 61.384-73.152 46.117 0 61.384 19.7192 61.384 73.152zm-45.164-109.41c0-12.722-5.089-17.8108-16.22-17.8108-11.132 0-16.221 5.0888-16.221 17.8108v120.223c0 12.722 5.089 17.811 16.221 17.811 11.131 0 16.22-5.089 16.22-17.811z" fill="url(#g)"/><path d="m483.812 232.571c-2.544 4.134-1.59 7.315 3.817 7.315h49.616c9.223 0 11.768 2.544 11.768 11.768v19.401c0 9.223-2.545 11.768-11.768 11.768h-94.779c-9.224 0-11.768-2.545-11.768-11.768v-22.9c0-8.587.636-12.722 4.134-18.129l55.659-85.237c8.588-13.04 13.358-28.943 13.358-40.393 0-13.9941-4.452-18.7648-16.22-18.7648-11.132 0-16.221 5.0888-16.221 17.8108v17.175c0 9.223-2.544 11.768-11.768 11.768h-19.719c-9.223 0-11.768-2.545-11.768-11.768v-9.542c0-49.6157 15.267-69.971 59.476-69.971 44.845 0 61.384 20.6733 61.384 62.02 0 17.811-6.361 37.212-19.719 57.885z" fill="url(#h)"/><path d="m684.463 212.852c0 53.75-15.267 73.151-61.384 73.151-46.118 0-61.384-19.401-61.384-73.151v-98.596c0-53.4328 15.266-73.152 61.384-73.152 46.117 0 61.384 19.7192 61.384 73.152zm-45.164-109.41c0-12.722-5.089-17.8108-16.22-17.8108-11.132 0-16.221 5.0888-16.221 17.8108v120.223c0 12.722 5.089 17.811 16.221 17.811 11.131 0 16.22-5.089 16.22-17.811z" fill="url(#i)"/><path d="m483.812 232.571c-2.544 4.134-1.59 7.315 3.817 7.315h49.616c9.223 0 11.768 2.544 11.768 11.768v19.401c0 9.223-2.545 11.768-11.768 11.768h-94.779c-9.224 0-11.768-2.545-11.768-11.768v-22.9c0-8.587.636-12.722 4.134-18.129l55.659-85.237c8.588-13.04 13.358-28.943 13.358-40.393 0-13.9941-4.452-18.7648-16.22-18.7648-11.132 0-16.221 5.0888-16.221 17.8108v17.175c0 9.223-2.544 11.768-11.768 11.768h-19.719c-9.223 0-11.768-2.545-11.768-11.768v-9.542c0-49.6157 15.267-69.971 59.476-69.971 44.845 0 61.384 20.6733 61.384 62.02 0 17.811-6.361 37.212-19.719 57.885z" fill="url(#j)"/><path d="m684.463 212.852c0 53.75-15.267 73.151-61.384 73.151-46.118 0-61.384-19.401-61.384-73.151v-98.596c0-53.4328 15.266-73.152 61.384-73.152 46.117 0 61.384 19.7192 61.384 73.152zm-45.164-109.41c0-12.722-5.089-17.8108-16.22-17.8108-11.132 0-16.221 5.0888-16.221 17.8108v120.223c0 12.722 5.089 17.811 16.221 17.811 11.131 0 16.22-5.089 16.22-17.811z" fill="#ffbc5e"/><path d="m483.812 232.571c-2.544 4.134-1.59 7.315 3.817 7.315h49.616c9.223 0 11.768 2.544 11.768 11.768v19.401c0 9.223-2.545 11.768-11.768 11.768h-94.779c-9.224 0-11.768-2.545-11.768-11.768v-22.9c0-8.587.636-12.722 4.134-18.129l55.659-85.237c8.588-13.04 13.358-28.943 13.358-40.393 0-13.9941-4.452-18.7648-16.22-18.7648-11.132 0-16.221 5.0888-16.221 17.8108v17.175c0 9.223-2.544 11.768-11.768 11.768h-19.719c-9.223 0-11.768-2.545-11.768-11.768v-9.542c0-49.6157 15.267-69.971 59.476-69.971 44.845 0 61.384 20.6733 61.384 62.02 0 17.811-6.361 37.212-19.719 57.885z" fill="#ffbc5e"/><path d="m623.079 43.7544c22.763 0 37.112 4.8766 45.942 15.5752 8.952 10.8469 12.791 28.3053 12.791 54.9254v98.597c0 26.784-3.841 44.237-12.789 55.041-8.826 10.657-23.17 15.46-45.944 15.46-22.775 0-37.119-4.803-45.945-15.46-8.948-10.804-12.789-28.257-12.789-55.041v-98.597c0-26.6202 3.84-44.0785 12.792-54.9254 8.83-10.6984 23.178-15.5752 45.942-15.5752zm0 39.2266c-5.915 0-10.846 1.3484-14.225 4.9794-3.336 3.5847-4.646 8.8542-4.646 15.4816v120.224c0 6.627 1.31 11.896 4.646 15.481 3.379 3.631 8.31 4.979 14.225 4.979 5.914 0 10.846-1.348 14.225-4.979 3.336-3.585 4.646-8.854 4.646-15.481v-120.224c0-6.6272-1.31-11.8969-4.646-15.4816-3.379-3.6311-8.311-4.9794-14.225-4.9794z" stroke="#102775" stroke-width="5.30085"/><path d="m487.629 43.7544c22.073 0 36.553 5.0918 45.58 14.6719 9.059 9.6132 13.153 24.2949 13.153 44.6977 0 17.167-6.131 36.075-19.295 56.447l-.005.009-.005.007-45.482 71.562-.01.017-.01.016c-1.394 2.265-2.395 5.128-1.229 7.693 1.258 2.767 4.267 3.662 7.303 3.662h49.616c4.576 0 6.505.684 7.469 1.648s1.648 2.893 1.648 7.469v19.401c0 4.576-.684 6.505-1.648 7.469s-2.893 1.648-7.469 1.648h-94.779c-4.576 0-6.505-.684-7.469-1.648s-1.648-2.893-1.648-7.469v-22.899c0-4.265.162-7.209.696-9.702.519-2.423 1.41-4.513 3.012-6.989l55.653-85.228c8.826-13.406 13.79-29.803 13.79-41.841 0-7.1344-1.103-12.6748-4.356-16.3789-3.343-3.8048-8.366-5.0361-14.515-5.0361-5.915 0-10.846 1.3484-14.225 4.9794-3.335 3.5847-4.646 8.8542-4.646 15.4816v17.175c0 4.576-.685 6.505-1.649 7.468-.963.964-2.892 1.649-7.468 1.649h-19.72c-4.576 0-6.505-.685-7.469-1.649-.963-.963-1.648-2.892-1.648-7.468v-9.541c0-24.6726 3.826-41.3586 12.55-51.9027 8.613-10.4084 22.518-15.4189 44.275-15.4189z" stroke="#102775" stroke-width="5.30085"/><path d="m408.586 11.2217c2.937 0 5.319 2.3811 5.319 5.3183l-37.609 37.6094c0-2.9374-2.381-5.3193-5.318-5.3193h-55.846l37.608-37.6084zm-93.455 37.6084c-1.498.0001-2.852.6196-3.819 1.6162l37.61-37.6084c.967-.9966 2.32-1.6162 3.818-1.6162z" fill="#9cb2ff"/><path d="m413.905 497.88-.007.274c-.069 1.36-.649 2.585-1.551 3.487l-37.609 37.609c.962-.962 1.557-2.292 1.557-3.76l.001-481.3411 37.609-37.6084z" fill="#102775"/><path d="m309.812 54.1492c0-2.9374 2.382-5.3186 5.319-5.3186h55.846c2.938 0 5.319 2.3812 5.319 5.3186v481.3398c0 2.938-2.381 5.319-5.319 5.319h-55.846c-2.937 0-5.319-2.381-5.319-5.319z" fill="#9cb2ff"/><path d="m315.131 51.481h55.847c1.473.0001 2.667 1.1946 2.668 2.6679v481.3411c-.001 1.473-1.195 2.668-2.668 2.668h-55.847c-1.473 0-2.668-1.195-2.668-2.668v-481.3411c0-1.4734 1.194-2.6678 2.668-2.6679z" stroke="#102775" stroke-width="5.30085"/></svg>