<svg fill="none" height="438" viewBox="0 0 542 438" width="542" xmlns="http://www.w3.org/2000/svg" xmlns:xlink="http://www.w3.org/1999/xlink"><clipPath id="a"><path d="m0 0h437.769v542h-437.769z" transform="matrix(0 1 -1 0 542 .000024)"/></clipPath><g clip-path="url(#a)"><path d="m0 0h437.769v542h-437.769z" fill="#ff6752" transform="matrix(0 1 -1 0 542 .000024)"/><path d="m87.376 243.4c-.0002-5.173-1.3839-6.718-6.3252-6.809l-.4903-.004h-11.7871l-.4883.004c-2.4397.045-4.0107.446-4.9775 1.461.0189-.02.0363-.041.0557-.061l15.5156-15.515h12.5664l1.6367-.01c6.1847-.073 11.473-.566 15.987-1.505.007.236.01.482.01.735zm34.427-152.4371c-.026-.0178-.052-.035-.077-.0527-6.219-4.318-15.368-6.3971-28.644-6.5528l-1.6377-.0097h-22.4687l-.4883.0039c-2.4285.0449-3.996.4423-4.9639 1.4472.0147-.0152.028-.0319.043-.0468l21.7051-21.7051c1.0359-1.0357 2.7392-1.4043 5.4092-1.4043h22.4683c14.744 0 24.59 2.2418 31.058 7.125zm8.177 245.0761c0 14.699-2.233 23.839-7.011 29.371-4.667 5.403-12.414 8.077-25.4641 8.077-13.0499 0-20.7972-2.675-25.4639-8.077-4.7787-5.532-7.0117-14.672-7.0117-29.371v-92.638c0-2.629.4257-3.159.5058-3.239.0806-.08.6115-.506 3.2393-.506h11.7871c2.6284 0 3.159.426 3.2393.506.0816.082.5049.616.5049 3.239v97.058c0 4.03.8441 7.594 3.3398 10.09 2.4973 2.497 6.0172 3.293 9.8594 3.293 3.7721 0 7.2681-.806 9.7751-3.279 2.514-2.479 3.424-6.032 3.424-10.104v-97.058c0-2.626.424-3.158.505-3.239.081-.08.612-.506 3.239-.506h11.787c2.629 0 3.159.426 3.24.506.081.081.505.614.505 3.239zm.939-157.765c0 15.657-1.859 25.628-7.257 31.826-5.294 6.078-14.729 9.306-32.2167 9.306h-22.4687c-2.6256 0-3.158-.425-3.2393-.506-.0803-.08-.5058-.61-.5059-3.239v-124.4989c0-2.6294.4258-3.1591.5059-3.2392.0806-.0805.6114-.5059 3.2393-.5059h22.4687c17.4877.0001 26.9227 3.2281 32.2167 9.3066 5.398 6.1974 7.257 16.1694 7.257 31.8254zm-20.013-51.383c0-6.27-1.186-11.397-4.386-14.93-3.269-3.607-8.0293-4.898-13.6011-4.898h-2.0263c-1.3534 0-3.3405.134-4.7949 1.588-1.4545 1.455-1.5899 3.442-1.5899 4.795v79.931c0 1.331.1613 3.233 1.542 4.677 1.412 1.476 3.35 1.708 4.8428 1.708h2.0263c5.5718 0 10.3321-1.293 13.6011-4.9 3.2-3.533 4.386-8.66 4.386-14.929zm-22.6335 69.045c-.02-.021-.0386-.043-.0577-.065.019.022.0407.041.0606.062zm19.5505-14.903c-.216 8.63-3.034 13.274-8.9177 14.938-.0576.016-.1157.031-.1739.047-1.6868.455-3.6205.673-5.8125.673h-2.0263c-.8219 0-1.4561-.094-1.9395-.299-.0137-.006-.0275-.012-.041-.018-.2545-.113-.4632-.261-.6367-.441l19.5606-19.734v3.734zm-.198 160.104c-.101 3.468-.998 5.889-2.71 7.437-.064.058-.13.115-.196.17-.03.025-.06.052-.09.076-.094.077-.191.15-.29.221-.76.549-1.652.958-2.678 1.241-.076.021-.153.043-.231.063-.322.081-.656.15-1.003.208l-.5315.078c-.1479.019-.298.035-.4502.05-.612.06-1.2586.091-1.9404.091-.2119 0-.4202-.002-.625-.007l-.0205-.001c-.5696-.016-1.1126-.055-1.628-.114-2.1079-.241-3.764-.855-5.0029-1.898-.1121-.094-.2209-.192-.3262-.293-.0285-.028-.0559-.056-.084-.084l17.8157-17.815.001 9.899zm-4.101-147.617c-.032.029-.066.057-.099.085.033-.029.066-.058.099-.087.008-.007.015-.013.022-.02.004-.004.008-.007.013-.011zm29.526 49.88c0-5.34-1.475-6.813-6.816-6.813h-11.787c-2.557 0-4.226.34-5.272 1.278-.032.029-.065.056-.096.085l21.663-21.664c1.036-1.036 2.74-1.404 5.41-1.404h11.856c1.841 2.209 4.061 3.993 6.705 5.389.029.442.041.916.041 1.425zm-15.234-154.7301c-.041-.0193-.082-.0374-.124-.0566.068.0312.135.0622.202.0937zm90.604 190.2761c0 2.629-.426 3.159-.506 3.24-.081.08-.613.504-3.239.504h-12.524c-2.626 0-3.158-.424-3.239-.504-.08-.081-.506-.611-.506-3.24v-8.103c0-3.992-.781-7.517-3.101-10.011-2.371-2.548-5.734-3.372-9.361-3.372-3.58 0-6.895.756-9.267 3.093-2.382 2.346-3.195 5.674-3.195 9.369v3.131c0 2.88.294 5.388 1.501 7.893 1.175 2.438 3.083 4.595 5.742 7.064l.027.025 23.574 21.363.007.006.007.007c6.06 5.427 9.491 9.531 11.467 13.584 1.946 3.994 2.613 8.212 2.613 14.149v3.315c0 11.315-2.175 19.404-6.964 24.689-4.73 5.221-12.598 8.339-25.512 8.339-13.05 0-20.797-2.674-25.464-8.077-4.778-5.532-7.011-14.672-7.011-29.371v-3.684c0-2.628.425-3.158.506-3.239.08-.08.611-.506 3.239-.506h12.523c2.629 0 3.159.426 3.24.506.08.081.505.611.505 3.239v8.104c0 3.992.781 7.517 3.102 10.011 2.371 2.547 5.734 3.372 9.36 3.372 3.58 0 6.896-.756 9.268-3.093 2.381-2.346 3.194-5.674 3.194-9.369v-3.499c0-2.832-.304-5.354-1.784-8.042-1.309-2.378-3.431-4.684-6.528-7.493l-.633-.569-22.101-19.707-.007-.006-.007-.006c-6.068-5.343-9.438-9.306-11.359-13.228-1.891-3.863-2.518-7.976-2.518-13.935v-4.052c0-11.316 2.175-19.405 6.964-24.691 4.73-5.221 12.598-8.338 25.511-8.338 13.05 0 20.797 2.674 25.464 8.077 4.779 5.532 7.012 14.673 7.012 29.372zm-.273-150.397c0 2.629-.425 3.159-.505 3.239-.081.081-.612.505-3.24.505h-11.787c-2.628 0-3.159-.425-3.239-.505s-.505-.61-.505-3.239v-9.945c0-4.033-.845-7.56-3.225-10.043-2.41-2.515-5.794-3.34-9.421-3.34-3.628 0-7.012.825-9.422 3.34-2.38 2.483-3.225 6.01-3.225 10.043v69.616c0 4.033.845 7.559 3.225 10.043 2.41 2.515 5.794 3.34 9.422 3.34 3.627-.001 7.011-.825 9.421-3.34 2.38-2.484 3.225-6.011 3.225-10.043v-9.946c0-2.629.425-3.159.505-3.239s.61-.505 3.239-.505h11.787c2.628 0 3.159.425 3.24.505.08.08.505.61.505 3.239v5.526c0 14.72-2.146 23.861-6.843 29.39-4.572 5.383-12.212 8.058-25.264 8.058-13.05 0-20.797-2.675-25.464-8.077-4.779-5.533-7.012-14.672-7.012-29.371v-60.777c0-14.699 2.233-23.8392 7.012-29.3716 4.667-5.4023 12.414-8.0762 25.464-8.0762 13.052 0 20.692 2.6752 25.264 8.0576 4.696 5.5294 6.843 14.6702 6.843 29.3902zm-2.429 118.014c-.018-.028-.035-.055-.053-.083.04.063.079.126.118.189-.584-.93-1.22-1.798-1.906-2.609-.096-.113-.192-.226-.289-.336-.076-.087-.152-.172-.23-.257-.095-.105-.192-.21-.29-.313-.566-.598-1.164-1.163-1.797-1.693-.206-.173-.415-.343-.628-.509-.017-.013-.035-.026-.052-.039-.174-.134-.351-.266-.529-.395-.032-.023-.063-.047-.095-.07-.195-.14-.394-.276-.595-.411-.505-.337-1.028-.656-1.569-.959-.134-.075-.269-.15-.406-.223-.798-.427-1.634-.819-2.511-1.176-.17-.069-.341-.137-.513-.203-.083-.033-.167-.065-.251-.096-.224-.084-.45-.166-.679-.245-4.43-1.543-9.805-2.298-16.26-2.382l-1.239-.008c-12.597 0-21.218 2.871-26.812 8.338-.028.027-.057.054-.085.081l19.212-19.212c2.046.209 4.224.327 6.543.358l1.238.007c14.621 0 23.774-3.259 29.065-11.073-.027.041-.053.082-.081.122 11.357 1.081 18.672 4.932 22.994 12.478zm-.801-153.2622c-.08-.1147-.161-.2282-.243-.3408-5.353-7.3682-14.405-10.4541-28.634-10.4541-12.073 0-20.494 2.2211-26.099 7.3945l-.069.0645c-.155.1448-.309.2919-.46.4414-.017.0165-.034.0322-.051.0488l21.631-21.6309c5.596-5.6227 14.201-8.0234 26.752-8.0234 14.957.0001 24.194 3.4092 29.427 11.6182zm-19.116 94.9192c0 7.366-3.131 10.313-9.576 10.313l-.595-.009c-4.211-.125-6.414-2.194-6.414-2.194l16.585-17.595zm94.056-96.0647-.003-.1572c-.083-1.6274-1.429-2.9219-3.077-2.9219h-32.338l-.159.0039c-.8.0407-1.518.3878-2.043.9248.004-.0041.008-.0086.012-.0127-.007.007-.015.0134-.021.0205l21.778-21.7783c.56-.5768 1.344-.9356 2.211-.9356h32.338l.158.004c1.627.0824 2.922 1.4284 2.922 3.0761zm-3.07 278.7307-.002.002-.004.003h-32.345l-.004-.003-.003-.004v-278.7307c0-.0002.001-.0029.003-.0048.002-.0023.005-.003.005-.003h32.343s.003.0009.005.003c.002.0019.003.0046.003.0048v278.7277c0 .002-.001.005-.001.005zm100.014-153.127c0 2.625-.424 3.158-.505 3.239-.08.08-.611.506-3.239.506h-54.883c-2.626 0-3.159-.425-3.24-.506s-.505-.614-.505-3.239v-13.26c0-2.452.096-4.021.369-5.297.255-1.19.687-2.226 1.525-3.523l32.231-49.358-.001-.001c5.248-7.975 8.235-17.755 8.235-25.066 0-4.211-.633-7.912-2.904-10.498-2.374-2.703-5.845-3.438-9.559-3.438-3.626 0-6.989.825-9.36 3.372-2.321 2.494-3.102 6.019-3.102 10.011v9.946c0 2.626-.424 3.158-.505 3.239-.08.08-.611.505-3.24.505h-11.418c-2.623 0-3.157-.424-3.239-.505-.08-.08-.506-.611-.506-3.239v-5.526c0-14.208 2.222-23.403 6.916-29.0761 4.564-5.5158 12.057-8.372 24.454-8.372 12.58 0 20.463 2.9043 25.278 8.0136 4.85 5.1475 7.198 13.1725 7.198 24.8305 0 9.568-3.417 20.231-10.927 31.853l-.007.01-.006.01-26.336 41.438-.012.019-.012.018c-.877 1.426-1.807 3.683-.802 5.895 1.111 2.443 3.676 3.019 5.626 3.019h28.732c2.628 0 3.159.426 3.239.506.081.082.505.616.505 3.239zm0 150.141c0 2.626-.424 3.158-.505 3.24-.08.08-.611.505-3.239.506h-54.883c-2.626 0-3.159-.425-3.24-.506-.081-.082-.505-.614-.505-3.24v-13.259c0-2.453.096-4.022.369-5.297.255-1.191.687-2.227 1.525-3.524l32.231-49.357-.001-.001c5.248-7.975 8.235-17.755 8.235-25.066 0-4.211-.633-7.912-2.904-10.499-2.374-2.702-5.845-3.437-9.559-3.437-3.626 0-6.989.825-9.36 3.372-2.321 2.494-3.102 6.019-3.102 10.011v9.945c0 2.627-.424 3.159-.505 3.239-.08.08-.611.505-3.24.505h-11.418c-2.623 0-3.157-.423-3.239-.505-.08-.08-.506-.61-.506-3.239v-5.525c0-14.209 2.222-23.403 6.916-29.076 4.564-5.516 12.057-8.372 24.454-8.373 12.579.001 20.463 2.905 25.278 8.014 4.85 5.148 7.198 13.173 7.198 24.83 0 9.569-3.417 20.232-10.927 31.854l-.007.01-.006.009-26.336 41.439-.012.018-.012.019c-.877 1.426-1.807 3.683-.802 5.894 1.111 2.444 3.676 3.02 5.626 3.02h28.732c2.628 0 3.159.426 3.239.506.081.082.505.615.505 3.239zm-3.99-273.2154c-.049-.0588-.101-.1156-.15-.1738.009.0104.018.0208.026.0312-5.581-6.6246-14.703-9.9385-28.363-9.9385-11.691.0002-19.884 2.4609-25.339 7.8692.02-.0196.039-.0401.059-.0596-.025.0244-.051.0478-.075.0723l21.601-21.6026c5.454-5.4901 13.684-7.9843 25.46-7.9843 12.976 0 21.859 2.9891 27.499 8.9668zm1.471 152.1194-.023-.036c-4.21-6.284-10.983-10.104-20.951-11.461l-1.041-.132-.049-.006c-.081-.009-.162-.016-.242-.025l-.774-.083c-2.152-.211-4.442-.316-6.877-.316-4 0-7.591.288-10.803.883l-.054.01c-.491.091-.973.194-1.447.3-.141.032-.283.062-.423.095-.016.004-.031.006-.046.01-5.231 1.242-9.368 3.399-12.565 6.567.018-.017.036-.036.054-.053-.024.023-.048.046-.072.07l18.053-18.054h36.035l.489-.005c4.941-.091 6.324-1.636 6.324-6.809v-3.238c7.847 1.945 13.288 5.809 16.76 11.593zm80.952-62.748c0 15.456-2.238 25.079-7.052 30.893-4.674 5.643-12.4 8.397-25.423 8.397-13.024 0-20.75-2.754-25.423-8.397-4.815-5.814-7.053-15.437-7.053-30.893v-57.093c0-15.36 2.237-24.989 7.057-30.8292 4.678-5.6676 12.408-8.4609 25.419-8.4609 13.01 0 20.741 2.7933 25.419 8.4609 4.82 5.8402 7.056 15.4692 7.056 30.8292zm.015 154.746c0 13.103-2.421 21.564-7.284 26.803-4.81 5.181-12.648 7.882-25.192 7.882-13.023 0-20.749-2.754-25.422-8.396-4.815-5.814-7.053-15.437-7.053-30.894v-57.092c0-15.456 2.237-25.087 7.014-30.904 4.632-5.639 12.266-8.387 25.093-8.387 12.348.001 20.094 2.696 24.862 7.874 4.825 5.241 7.245 13.709 7.245 26.812v.736c0 2.628-.425 3.16-.505 3.241-.081.08-.612.504-3.239.504h-11.419c-2.624 0-3.158-.423-3.24-.504-.08-.081-.504-.612-.505-3.241v-4.235c0-3.537-.922-6.689-3.446-8.848-2.415-2.064-5.705-2.693-9.2-2.693-3.696 0-7.106.814-9.507 3.355-2.36 2.499-3.139 6.037-3.139 10.028v19.89c0 .482.052 1.545.81 2.493.904 1.129 2.137 1.313 2.812 1.313 1.395 0 2.466-.718 2.991-1.068l.015-.01.016-.011c2.902-1.985 6.138-3.331 13.368-3.331 8.158 0 14.153 2.296 18.203 7.141 4.147 4.961 6.722 13.135 6.722 25.887zm-6.716-96.205c.07.066.139.134.207.202-5.454-5.355-13.646-7.886-25.155-8.046l-1.18-.008c-8.406 0-15.028 1.146-20.15 3.717.106-.054.213-.109.321-.161l-.072.034-.249.127c-.036.018-.073.036-.109.055-2.31 1.173-4.314 2.64-6.036 4.425.139-.144.279-.287.421-.426-.028.027-.058.054-.086.082l16.777-16.777c2.543.352 5.304.545 8.299.585l1.238.009c15.489 0 24.965-3.781 30.195-13.028-.032.057-.063.115-.096.172 8.024 1.044 13.993 3.689 18.207 8.17zm1.782-148.6917-.163-.1846c-5.571-6.3917-14.35-9.1172-27.393-9.1172-4.59 0-8.652.337-12.233 1.0528l-.034.0068c-.308.0619-.612.1269-.913.1943l-.017.0039c-5.449 1.2246-9.735 3.3806-13.033 6.6221-.036.0355-.073.0697-.109.1055l21.652-21.6533c5.603-5.6211 14.107-8.0371 26.391-8.0371 13.613 0 22.585 2.9681 28.109 9.9765zm-15.094 26.7957c0-3.992-.781-7.517-3.102-10.011-2.371-2.547-5.734-3.372-9.36-3.372-3.627 0-6.99.825-9.361 3.372-2.32 2.494-3.101 6.019-3.101 10.011v69.616c0 3.992.781 7.517 3.101 10.011 2.371 2.548 5.734 3.372 9.361 3.372 3.626 0 6.989-.824 9.36-3.372 2.321-2.494 3.102-6.019 3.102-10.011zm.014 202.446c0-3.991-.781-7.516-3.101-10.01-2.371-2.548-5.734-3.373-9.361-3.373-3.626 0-6.989.825-9.36 3.373-2.321 2.494-3.101 6.019-3.101 10.01v17.312c0 3.992.78 7.517 3.101 10.011 2.371 2.547 5.734 3.372 9.36 3.372 3.627 0 6.99-.825 9.361-3.372 2.32-2.494 3.101-6.019 3.101-10.011zm-3.084-132.83c0 7.367-2.946 10.314-9.392 10.314-4.003 0-6.922-2.203-6.922-2.203l16.314-16.314zm.015 150.142c0 7.366-2.947 10.313-9.393 10.313-3.721 0-6.921-2.203-6.921-2.203l16.314-16.314z" fill="#fff"/></g></svg>