<svg fill="none" height="49" viewBox="0 0 90 49" width="90" xmlns="http://www.w3.org/2000/svg"><g fill="#102775"><path d="m3.40418 17.1887c3.6107 0 4.34413 1.3044 4.34413 4.4723v5.0314c0 3.1679-.73343 4.4723-4.34413 4.4723h-2.2943c-.545371 0-.695818-.1491-.695818-.6895v-12.597c0-.5404.150447-.6895.695818-.6895zm-.05642 2.6089c-.26328 0-.3385.0745-.3385.3354v8.0874c0 .2423.07522.3355.3385.3355h.20686c1.05313 0 1.52327-.4845 1.52327-1.6958v-5.3668c0-1.2112-.47014-1.6957-1.52327-1.6957z"/><path d="m9.25986 31.1647h-.88387c-.54537 0-.69581-.1491-.69581-.6895v-1.2299c0-.5404.15044-.6894.69581-.6894h.92148c.6582 0 .95913-.2982.95913-1.0436v-7.4725c0-.2609-.0753-.3354-.33854-.3354h-.92148c-.54537 0-.69581-.1491-.69581-.6895v-1.1367c0-.5404.15044-.6895.69581-.6895h3.15932c.5454 0 .6959.1491.6959.6895v9.1869c0 3.0002-.9027 4.0996-3.59194 4.0996z"/><path d="m16.114 30.4752c0 .5404-.1505.6895-.6958.6895h-1.2036c-.5454 0-.6958-.1491-.6958-.6895v-4.7704c0-.82.0376-1.1554.2633-1.9008l1.7113-5.6835c.2257-.7827.4137-.9318 1.3916-.9318h.677c.9779 0 1.166.1491 1.3917.9318l1.7113 5.6835c.2257.7268.2633 1.0808.2633 1.9008v4.7704c0 .5404-.1505.6895-.6958.6895h-1.2036c-.5454 0-.6958-.1491-.6958-.6895v-2.4597c0-.2609-.0753-.3355-.3385-.3355h-1.5421c-.2633 0-.3385.0746-.3385.3355zm1.937-5.404c.2068 0 .3197-.0746.3197-.2423 0-.0931-.0188-.1863-.0376-.2795l-.8651-3.5965c-.0376-.1863-.0752-.2236-.2445-.2236-.1692 0-.2068.0373-.2444.2236l-.8651 3.5965c-.0188.0932-.0376.1864-.0376.2795 0 .1677.1128.2423.3197.2423z"/><path d="m26.4309 21.7915c.0941.1677.1317.205.2445.205.1129 0 .1505-.0559.1505-.1864v-3.9319c0-.5404.1504-.6895.6958-.6895h1.1471c.5454 0 .6958.1491.6958.6895v12.597c0 .5404-.1504.6895-.6958.6895h-1.1471c-.5454 0-.6958-.1491-.6958-.6895v-2.5529c0-.8758-.1317-1.1926-.4514-1.7889l-1.7489-3.2238c-.094-.1677-.1316-.205-.2445-.205-.1128 0-.1504.0559-.1504.1863v7.5843c0 .5404-.1505.6895-.6958.6895h-1.1472c-.5454 0-.6958-.1491-.6958-.6895v-12.597c0-.5404.1504-.6895.6958-.6895h.7334c.6958 0 .9591.1118 1.354.8759z"/><path d="m35.2495 26.1893c0-.2609-.0752-.3354-.3385-.3354h-.2256c-.5454 0-.6958-.1491-.6958-.6895v-1.2299c0-.5404.1504-.6894.6958-.6894h2.3883c.5454 0 .6958.149.6958.6894v3.317c0 3.0002-.9027 4.0996-3.6295 4.0996s-3.6295-1.0994-3.6295-4.0996v-6.1494c0-3.0002.9027-4.0997 3.6295-4.0997s3.5919 1.0995 3.5919 4.0997v.0931c0 .5404-.1504.6895-.6958.6895h-1.2036c-.5453 0-.6958-.1491-.6958-.6895v-.5404c0-.7454-.3197-1.0435-.9779-1.0435s-.9779.2981-.9779 1.0435v7.0439c0 .7454.3385 1.0436 1.0343 1.0436.7147 0 1.0343-.2982 1.0343-1.0436z"/><path d="m45.9162 27.0652c0 3.1492-.9026 4.2859-3.6295 4.2859-2.7268 0-3.6295-1.1367-3.6295-4.2859v-5.7768c0-3.1306.9027-4.286 3.6295-4.286 2.7269 0 3.6295 1.1554 3.6295 4.286zm-4.5886.6335c0 .7454.3009 1.0436.9591 1.0436s.9591-.2982.9591-1.0436v-6.9507c0-.8199-.3009-1.1367-.9591-1.1367s-.9591.3168-.9591 1.1367z"/><path d="m54.0041 26.6925v.559c0 3.0002-.865 4.0996-3.5919 4.0996-2.7268 0-3.6295-1.0994-3.6295-4.0996v-6.1494c0-3.0002.9027-4.0997 3.6295-4.0997 2.7269 0 3.5919 1.0995 3.5919 4.0997v.559c0 .5404-.1504.6895-.6958.6895h-1.2036c-.5453 0-.6958-.1491-.6958-.6895v-1.0063c0-.7454-.3197-1.0435-.9779-1.0435s-.9779.2981-.9779 1.0435v7.0439c0 .7454.3197 1.0436.9779 1.0436s.9779-.2982.9779-1.0436v-1.0062c0-.5404.1505-.6895.6958-.6895h1.2036c.5454 0 .6958.1491.6958.6895z"/><path d="m62.1821 27.0652c0 3.1492-.9027 4.2859-3.6295 4.2859s-3.6295-1.1367-3.6295-4.2859v-5.7768c0-3.1306.9027-4.286 3.6295-4.286s3.6295 1.1554 3.6295 4.286zm-4.5886.6335c0 .7454.3009 1.0436.9591 1.0436s.9591-.2982.9591-1.0436v-6.9507c0-.8199-.3009-1.1367-.9591-1.1367s-.9591.3168-.9591 1.1367z"/><path d="m67.656 21.7915c.0941.1677.1317.205.2445.205.1129 0 .1505-.0559.1505-.1864v-3.9319c0-.5404.1504-.6895.6958-.6895h1.1471c.5454 0 .6958.1491.6958.6895v12.597c0 .5404-.1504.6895-.6958.6895h-1.1471c-.5454 0-.6958-.1491-.6958-.6895v-2.5529c0-.8758-.1317-1.1926-.4514-1.7889l-1.7489-3.2238c-.094-.1677-.1316-.205-.2445-.205-.1128 0-.1504.0559-.1504.1863v7.5843c0 .5404-.1505.6895-.6958.6895h-1.1472c-.5454 0-.6958-.1491-.6958-.6895v-12.597c0-.5404.1504-.6895.6958-.6895h.7334c.6958 0 .9591.1118 1.354.8759z"/><path d="m85.9456 22.1642 2.4071 2.1617c1.26 1.118 1.5421 1.7889 1.5421 3.0374v.3354c0 2.348-.9027 3.6524-3.6296 3.6524-2.7268 0-3.6295-1.0994-3.6295-4.0996v-.3727c0-.5404.1505-.6895.6959-.6895h1.2787c.5454 0 .6959.1491.6959.6895v.8199c0 .7454.3008 1.0436.959 1.0436.6583 0 .9591-.2795.9591-.9504v-.354c0-.5218-.1128-.7827-.8086-1.3976l-2.2567-1.994c-1.26-1.0994-1.5233-1.733-1.5233-2.9815v-.41c0-2.3479.9027-3.6524 3.6295-3.6524 2.7269 0 3.6296 1.0995 3.6296 4.0997v.3727c0 .5404-.1505.6894-.6958.6894h-1.2788c-.5454 0-.6959-.149-.6959-.6894v-.82c0-.7454-.3008-1.0435-.9591-1.0435-.6582 0-.959.2795-.959.9504v.3168c0 .5404.1128.8012.6394 1.2857z"/><path d="m79.2925 17.8782c0-.5404.1504-.6895.6958-.6895h1.2036c.5453 0 .6958.1491.6958.6895v9.3732c0 3.0002-.9027 4.0997-3.6295 4.0997-2.7269 0-3.6295-1.0995-3.6295-4.0997v-9.3732c0-.5404.1504-.6895.6958-.6895h1.2035c.5454 0 .6959.1491.6959.6895v9.8205c0 .7454.3197 1.0435 1.0343 1.0435.6958 0 1.0343-.2981 1.0343-1.0435z"/><path d="m45.3037 43.4637v.559c0 3.0002-.8651 4.0997-3.5919 4.0997s-3.6295-1.0995-3.6295-4.0997v-6.1494c0-3.0002.9027-4.0996 3.6295-4.0996s3.5919 1.0994 3.5919 4.0996v.559c0 .5405-.1505.6895-.6958.6895h-1.2036c-.5454 0-.6958-.149-.6958-.6895v-1.0062c0-.7454-.3197-1.0436-.9779-1.0436s-.9779.2982-.9779 1.0436v7.0439c0 .7454.3197 1.0435.9779 1.0435s.9779-.2981.9779-1.0435v-1.0063c0-.5404.1504-.6895.6958-.6895h1.2036c.5453 0 .6958.1491.6958.6895z"/><path d="m50.9959 47.2995v-5.0314c0-.2609-.0752-.3354-.3385-.3354h-1.5421c-.2632 0-.3385.0745-.3385.3354v5.0314c0 .5404-.1504.6894-.6958.6894h-1.2035c-.5454 0-.6959-.149-.6959-.6894v-12.5971c0-.5404.1505-.6895.6959-.6895h1.2035c.5454 0 .6958.1491.6958.6895v4.286c0 .2422.0753.3354.3385.3354h1.5421c.2633 0 .3385-.0932.3385-.3354v-4.286c0-.5404.1505-.6895.6958-.6895h1.2036c.5454 0 .6958.1491.6958.6895v12.5971c0 .5404-.1504.6894-.6958.6894h-1.2036c-.5453 0-.6958-.149-.6958-.6894z"/><path d="m57.5281 34.7024v12.5971c0 .5404-.1505.6894-.6959.6894h-1.2035c-.5454 0-.6958-.149-.6958-.6894v-12.5971c0-.5404.1504-.6895.6958-.6895h1.2035c.5454 0 .6959.1491.6959.6895z"/><path d="m65.831 43.5167v.559c0 3.0002-.865 4.0996-3.5919 4.0996-2.7268 0-3.6295-1.0994-3.6295-4.0996v-6.1494c0-3.0002.9027-4.0996 3.6295-4.0996 2.7269 0 3.5919 1.0994 3.5919 4.0996v.559c0 .5404-.1504.6895-.6958.6895h-1.2035c-.5454 0-.6959-.1491-.6959-.6895v-1.0062c0-.7454-.3197-1.0436-.9779-1.0436s-.9779.2982-.9779 1.0436v7.0439c0 .7453.3197 1.0435.9779 1.0435s.9779-.2982.9779-1.0435v-1.0063c0-.5404.1505-.6895.6959-.6895h1.2035c.5454 0 .6958.1491.6958.6895z"/><path d="m69.0427 47.2465c0 .5404-.1504.6895-.6958.6895h-1.2036c-.5453 0-.6958-.1491-.6958-.6895v-4.7705c0-.8199.0376-1.1553.2633-1.9007l1.7113-5.6836c.2257-.7827.4137-.9317 1.3916-.9317h.677c.9779 0 1.166.149 1.3917.9317l1.7113 5.6836c.2257.7267.2633 1.0808.2633 1.9007v4.7705c0 .5404-.1505.6895-.6958.6895h-1.2036c-.5454 0-.6958-.1491-.6958-.6895v-2.4598c0-.2609-.0752-.3354-.3385-.3354h-1.5421c-.2633 0-.3385.0745-.3385.3354zm1.937-5.4041c.2069 0 .3197-.0745.3197-.2422 0-.0932-.0188-.1864-.0376-.2795l-.8651-3.5965c-.0376-.1864-.0752-.2237-.2445-.2237-.1692 0-.2068.0373-.2444.2237l-.8651 3.5965c-.0188.0931-.0376.1863-.0376.2795 0 .1677.1128.2422.3197.2422z"/><path d="m79.335 42.9606c0-.2609-.0752-.3355-.3385-.3355h-.2257c-.5453 0-.6958-.149-.6958-.6894v-1.2299c0-.5404.1505-.6895.6958-.6895h2.3884c.5453 0 .6958.1491.6958.6895v3.3169c0 3.0002-.9027 4.0997-3.6295 4.0997-2.7269 0-3.6296-1.0995-3.6296-4.0997v-6.1494c0-3.0002.9027-4.0996 3.6296-4.0996 2.7268 0 3.5919 1.0994 3.5919 4.0996v.0932c0 .5404-.1505.6895-.6959.6895h-1.2035c-.5454 0-.6958-.1491-.6958-.6895v-.5404c0-.7454-.3197-1.0436-.9779-1.0436s-.9779.2982-.9779 1.0436v7.0439c0 .7454.3385 1.0435 1.0343 1.0435.7146 0 1.0343-.2981 1.0343-1.0435z"/><path d="m90 43.8364c0 3.1493-.9027 4.286-3.6295 4.286-2.7269 0-3.6295-1.1367-3.6295-4.286v-5.7767c0-3.1307.9026-4.286 3.6295-4.286 2.7268 0 3.6295 1.1553 3.6295 4.286zm-4.5886.6336c0 .7454.3009 1.0435.9591 1.0435s.9591-.2981.9591-1.0435v-6.9508c0-.8199-.3009-1.1367-.9591-1.1367s-.9591.3168-.9591 1.1367z"/><path d="m26.47 5.89614c0 .0559.0188.07454.0564.07454s.0752-.01864.1316-.05591c.3573-.24225.7523-.39132 1.5421-.39132 1.7866 0 2.8585 1.00627 2.8585 3.65239v1.58396c0 2.702-.9967 3.8201-3.6295 3.8201-2.7269 0-3.6295-1.1367-3.6295-4.286v-5.77673c0-3.14925.9026-4.285969 3.5919-4.285969 2.5952 0 3.5919 1.118079 3.5919 3.820109v.07454c0 .5404-.1505.68948-.6959.68948h-1.1659c-.5454 0-.6958-.14908-.6958-.68948v-.4286c0-.61495-.3197-.8572-.9779-.8572-.677 0-.9779.29816-.9779 1.04354zm1.9182 5.03136v-1.75166c0-.74539-.3009-1.04354-.9591-1.04354s-.9591.29815-.9591 1.04354v1.75166c0 .7454.3009 1.0435.9591 1.0435s.9591-.2981.9591-1.0435z"/><path d="m15.1562 10.2939c0 3.1493-.9026 4.286-3.6295 4.286-2.72681 0-3.62948-1.1367-3.62948-4.286v-5.77673c0-3.13062.90267-4.285969 3.62948-4.285969 2.7269 0 3.6295 1.155349 3.6295 4.285969zm-2.6704-6.41031c0-.74538-.3009-1.04354-.9591-1.04354s-.9591.29816-.9591 1.04354v7.04391c0 .7454.3009 1.0435.9591 1.0435s.9591-.2981.9591-1.0435z"/><path d="m3.29101 11.4493c-.15045.2422-.09403.4286.22567.4286h2.93369c.54537 0 .69582.149.69582.6894v1.1368c0 .5404-.15045.6894-.69582.6894h-5.604111c-.545367 0-.695813-.149-.695813-.6894v-1.3417c0-.5032.037612-.7454.244475-1.0622l3.291009-4.9941c.50775-.76402.78984-1.69575.78984-2.3666 0-.81993-.26328-1.09945-.95909-1.09945-.65821 0-.9591.29816-.9591 1.04354v1.00628c0 .5404-.15044.68948-.69581.68948h-1.165957c-.545367 0-.695813-.14908-.695813-.68948v-.55904c0-2.90701.902676-4.099629 3.51668-4.099629 2.65161 0 3.62951 1.211249 3.62951 3.633759 0 1.04354-.37612 2.18026-1.16596 3.39151z"/><path d="m19.1951 11.4493c-.1505.2422-.0941.4286.2256.4286h2.9337c.5454 0 .6958.149.6958.6894v1.1368c0 .5404-.1504.6894-.6958.6894h-5.6041c-.5454 0-.6958-.149-.6958-.6894v-1.3417c0-.5032.0376-.7454.2445-1.0622l3.291-4.9941c.5077-.76402.7898-1.69575.7898-2.3666 0-.81993-.2633-1.09945-.9591-1.09945-.6582 0-.9591.29816-.9591 1.04354v1.00628c0 .5404-.1504.68948-.6958.68948h-1.1659c-.5454 0-.6958-.14908-.6958-.68948v-.55904c0-2.90701.9026-4.099629 3.5166-4.099629 2.6516 0 3.6295 1.211249 3.6295 3.633759 0 1.04354-.3761 2.18026-1.1659 3.39151z"/></g></svg>