<svg fill="none" height="281" viewBox="0 0 521 281" width="521" xmlns="http://www.w3.org/2000/svg"><g fill="#ff6752"><path d="m19.7248 99.0629c20.9 0 25.1453 7.6201 25.1453 26.1271v29.393c0 18.507-4.2453 26.128-25.1453 26.128h-13.2802c-3.15677 0-4.02761-.871-4.02761-4.028v-73.592c0-3.1572.87084-4.0281 4.02761-4.0281zm-.3265 15.2411c-1.524 0-1.9594.435-1.9594 1.959v47.247c0 1.416.4354 1.96 1.9594 1.96h1.1973c6.0959 0 8.8172-2.831 8.8172-9.907v-31.353c0-7.076-2.7213-9.906-8.8172-9.906z"/><path d="m53.5315 180.711h-5.1162c-3.1568 0-4.0276-.871-4.0276-4.028v-7.185c0-3.157.8708-4.028 4.0276-4.028h5.3339c3.8099 0 5.5515-1.742 5.5515-6.097v-43.654c0-1.524-.4354-1.96-1.9594-1.96h-5.3338c-3.1568 0-4.0276-.87-4.0276-4.027v-6.641c0-3.1572.8708-4.0281 4.0276-4.0281h18.2875c3.1568 0 4.0276.8709 4.0276 4.0281v53.67c0 17.527-5.225 23.95-20.7911 23.95z"/><path d="m93.2416 176.683c0 3.157-.8708 4.028-4.0276 4.028h-6.9667c-3.1567 0-4.0276-.871-4.0276-4.028v-27.869c0-4.79.2177-6.75 1.524-11.104l9.9057-33.204c1.3063-4.5722 2.3948-5.4431 8.0552-5.4431h3.9184c5.661 0 6.749.8709 8.056 5.4431l9.905 33.204c1.307 4.245 1.524 6.314 1.524 11.104v27.869c0 3.157-.871 4.028-4.027 4.028h-6.967c-3.157 0-4.028-.871-4.028-4.028v-14.37c0-1.524-.435-1.96-1.959-1.96h-8.926c-1.524 0-1.9594.436-1.9594 1.96zm11.2124-31.571c1.197 0 1.85-.435 1.85-1.415 0-.544-.109-1.089-.218-1.633l-5.007-21.011c-.218-1.088-.435-1.306-1.415-1.306-.9797 0-1.1974.218-1.4151 1.306l-5.0073 21.011c-.1088.544-.2177 1.089-.2177 1.633 0 .98.6531 1.415 1.8505 1.415z"/><path d="m152.963 125.952c.545.98.762 1.198 1.416 1.198.653 0 .87-.327.87-1.089v-22.97c0-3.1572.871-4.0281 4.028-4.0281h6.64c3.157 0 4.028.8709 4.028 4.0281v73.592c0 3.157-.871 4.028-4.028 4.028h-6.64c-3.157 0-4.028-.871-4.028-4.028v-14.915c0-5.116-.762-6.967-2.612-10.45l-10.124-18.834c-.544-.98-.761-1.197-1.415-1.197-.653 0-.87.326-.87 1.088v44.308c0 3.157-.871 4.028-4.028 4.028h-6.64c-3.157 0-4.028-.871-4.028-4.028v-73.592c0-3.1572.871-4.0281 4.028-4.0281h4.245c4.028 0 5.552.6532 7.838 5.1161z"/><path d="m204.092 151.644c0-1.525-.435-1.96-1.959-1.96h-1.306c-3.157 0-4.028-.871-4.028-4.028v-7.185c0-3.157.871-4.028 4.028-4.028h13.824c3.157 0 4.028.871 4.028 4.028v19.378c0 17.527-5.225 23.95-21.009 23.95s-21.009-6.423-21.009-23.95v-35.925c0-17.527 5.225-23.9504 21.009-23.9504s20.791 6.4234 20.791 23.9504v.544c0 3.157-.871 4.028-4.027 4.028h-6.967c-3.157 0-4.028-.871-4.028-4.028v-3.157c0-4.355-1.85-6.096-5.66-6.096s-5.661 1.741-5.661 6.096v41.151c0 4.354 1.96 6.096 5.987 6.096 4.137 0 5.987-1.742 5.987-6.096z"/><path d="m265.738 156.76c0 18.398-5.225 25.039-21.008 25.039-15.784 0-21.009-6.641-21.009-25.039v-33.748c0-18.289 5.225-25.0384 21.009-25.0384 15.783 0 21.008 6.7494 21.008 25.0384zm-26.56 3.702c0 4.354 1.742 6.096 5.552 6.096 3.809 0 5.551-1.742 5.551-6.096v-40.607c0-4.79-1.742-6.64-5.551-6.64-3.81 0-5.552 1.85-5.552 6.64z"/><path d="m312.579 154.583v3.266c0 17.527-5.007 23.95-20.791 23.95s-21.009-6.423-21.009-23.95v-35.925c0-17.527 5.225-23.9504 21.009-23.9504s20.791 6.4234 20.791 23.9504v3.266c0 3.157-.871 4.028-4.027 4.028h-6.967c-3.157 0-4.028-.871-4.028-4.028v-5.879c0-4.355-1.85-6.096-5.66-6.096s-5.66 1.741-5.66 6.096v41.151c0 4.354 1.85 6.096 5.66 6.096s5.66-1.742 5.66-6.096v-5.879c0-3.157.871-4.028 4.028-4.028h6.967c3.156 0 4.027.871 4.027 4.028z"/><path d="m359.983 156.76c0 18.398-5.225 25.039-21.009 25.039s-21.009-6.641-21.009-25.039v-33.748c0-18.289 5.225-25.0384 21.009-25.0384s21.009 6.7494 21.009 25.0384zm-26.561 3.702c0 4.354 1.742 6.096 5.552 6.096s5.551-1.742 5.551-6.096v-40.607c0-4.79-1.741-6.64-5.551-6.64s-5.552 1.85-5.552 6.64z"/><path d="m391.565 125.952c.544.98.762 1.198 1.415 1.198s.871-.327.871-1.089v-22.97c0-3.1572.871-4.0281 4.028-4.0281h6.64c3.156 0 4.027.8709 4.027 4.0281v73.592c0 3.157-.871 4.028-4.027 4.028h-6.64c-3.157 0-4.028-.871-4.028-4.028v-14.915c0-5.116-.762-6.967-2.613-10.45l-10.123-18.834c-.544-.98-.762-1.197-1.415-1.197s-.871.326-.871 1.088v44.308c0 3.157-.871 4.028-4.028 4.028h-6.64c-3.156 0-4.027-.871-4.027-4.028v-73.592c0-3.1572.871-4.0281 4.027-4.0281h4.246c4.027 0 5.551.6532 7.837 5.1161z"/><path d="m497.505 128.129 13.933 12.628c7.294 6.532 8.926 10.451 8.926 17.745v1.96c0 13.716-5.225 21.337-21.008 21.337-15.784 0-21.009-6.423-21.009-23.95v-2.177c0-3.158.871-4.028 4.027-4.028h7.402c3.157 0 4.028.87 4.028 4.028v4.79c0 4.354 1.742 6.096 5.552 6.096 3.809 0 5.551-1.633 5.551-5.552v-2.069c0-3.048-.653-4.572-4.681-8.164l-13.062-11.649c-7.293-6.423-8.817-10.124-8.817-17.418v-2.395c0-13.717 5.225-21.3374 21.009-21.3374 15.783 0 21.008 6.4234 21.008 23.9504v2.177c0 3.157-.87 4.028-4.027 4.028h-7.402c-3.157 0-4.028-.871-4.028-4.028v-4.79c0-4.355-1.742-6.096-5.551-6.096-3.81 0-5.552 1.633-5.552 5.552v1.85c0 3.157.653 4.681 3.701 7.512z"/><path d="m458.92 103.091c0-3.1572.871-4.0281 4.027-4.0281h6.967c3.157 0 4.028.8709 4.028 4.0281v54.758c0 17.527-5.225 23.95-21.009 23.95s-21.009-6.423-21.009-23.95v-54.758c0-3.1572.871-4.0281 4.027-4.0281h6.967c3.157 0 4.028.8709 4.028 4.0281v57.371c0 4.355 1.85 6.096 5.987 6.096 4.027 0 5.987-1.741 5.987-6.096z"/></g><path d="m262.213 252.565v3.265c0 17.528-5.007 23.951-20.791 23.951s-21.009-6.423-21.009-23.951v-35.925c0-17.527 5.225-23.95 21.009-23.95s20.791 6.423 20.791 23.95v3.266c0 3.157-.871 4.028-4.027 4.028h-6.967c-3.157 0-4.028-.871-4.028-4.028v-5.878c0-4.355-1.85-6.097-5.66-6.097s-5.661 1.742-5.661 6.097v41.15c0 4.355 1.851 6.097 5.661 6.097s5.66-1.742 5.66-6.097v-5.878c0-3.158.871-4.028 4.028-4.028h6.967c3.156 0 4.027.87 4.027 4.028z" fill="#9cb2ff"/><path d="m295.211 274.974v-29.393c0-1.524-.435-1.959-1.959-1.959h-8.926c-1.524 0-1.959.435-1.959 1.959v29.393c0 3.158-.871 4.028-4.028 4.028h-6.967c-3.156 0-4.027-.87-4.027-4.028v-73.592c0-3.157.871-4.028 4.027-4.028h6.967c3.157 0 4.028.871 4.028 4.028v25.039c0 1.415.435 1.96 1.959 1.96h8.926c1.524 0 1.959-.545 1.959-1.96v-25.039c0-3.157.871-4.028 4.028-4.028h6.967c3.156 0 4.027.871 4.027 4.028v73.592c0 3.158-.871 4.028-4.027 4.028h-6.967c-3.157 0-4.028-.87-4.028-4.028z" fill="#9cb2ff"/><path d="m332.987 201.382v73.592c0 3.158-.871 4.028-4.028 4.028h-6.967c-3.156 0-4.027-.87-4.027-4.028v-73.592c0-3.157.871-4.028 4.027-4.028h6.967c3.157 0 4.028.871 4.028 4.028z" fill="#9cb2ff"/><path d="m381.005 252.875v3.266c0 17.527-5.007 23.95-20.791 23.95s-21.009-6.423-21.009-23.95v-35.926c0-17.527 5.225-23.95 21.009-23.95s20.791 6.423 20.791 23.95v3.266c0 3.157-.871 4.028-4.027 4.028h-6.967c-3.157 0-4.028-.871-4.028-4.028v-5.878c0-4.355-1.85-6.097-5.66-6.097s-5.661 1.742-5.661 6.097v41.15c0 4.355 1.851 6.097 5.661 6.097s5.66-1.742 5.66-6.097v-5.878c0-3.157.871-4.028 4.028-4.028h6.967c3.156 0 4.027.871 4.027 4.028z" fill="#9cb2ff"/><path d="m399.632 274.664c0 3.157-.871 4.028-4.027 4.028h-6.967c-3.157 0-4.028-.871-4.028-4.028v-27.869c0-4.79.218-6.749 1.524-11.104l9.906-33.203c1.306-4.573 2.395-5.444 8.055-5.444h3.919c5.66 0 6.749.871 8.055 5.444l9.906 33.203c1.306 4.246 1.524 6.314 1.524 11.104v27.869c0 3.157-.871 4.028-4.028 4.028h-6.966c-3.157 0-4.028-.871-4.028-4.028v-14.37c0-1.524-.435-1.959-1.959-1.959h-8.926c-1.524 0-1.96.435-1.96 1.959zm11.212-31.57c1.198 0 1.851-.436 1.851-1.415 0-.545-.109-1.089-.218-1.633l-5.007-21.011c-.218-1.089-.436-1.306-1.415-1.306-.98 0-1.198.217-1.415 1.306l-5.008 21.011c-.109.544-.217 1.088-.217 1.633 0 .979.653 1.415 1.85 1.415z" fill="#9cb2ff"/><path d="m459.228 249.625c0-1.524-.435-1.959-1.959-1.959h-1.306c-3.157 0-4.028-.871-4.028-4.028v-7.185c0-3.157.871-4.028 4.028-4.028h13.824c3.157 0 4.028.871 4.028 4.028v19.377c0 17.528-5.225 23.951-21.009 23.951s-21.009-6.423-21.009-23.951v-35.925c0-17.527 5.225-23.95 21.009-23.95s20.791 6.423 20.791 23.95v.545c0 3.157-.871 4.028-4.028 4.028h-6.966c-3.157 0-4.028-.871-4.028-4.028v-3.157c0-4.355-1.851-6.097-5.66-6.097-3.81 0-5.661 1.742-5.661 6.097v41.15c0 4.355 1.96 6.097 5.987 6.097 4.137 0 5.987-1.742 5.987-6.097z" fill="#9cb2ff"/><path d="m521 254.742c0 18.398-5.225 25.039-21.009 25.039s-21.009-6.641-21.009-25.039v-33.748c0-18.289 5.225-25.039 21.009-25.039s21.009 6.75 21.009 25.039zm-26.56 3.701c0 4.355 1.741 6.097 5.551 6.097s5.552-1.742 5.552-6.097v-40.606c0-4.79-1.742-6.641-5.552-6.641s-5.551 1.851-5.551 6.641z" fill="#9cb2ff"/><path d="m153.199 33.0946c0 .3266.109.4355.327.4355s.435-.1089.762-.3266c2.068-1.4152 4.354-2.2861 8.926-2.2861 10.341 0 16.546 5.8786 16.546 21.3373v9.2534c0 15.7853-5.769 22.3171-21.009 22.3171-15.784 0-21.009-6.6407-21.009-25.0387v-33.7478c0-18.398 5.225-25.0387 20.791-25.0387 15.022 0 20.792 6.53184 20.792 22.3171v.4355c0 3.157-.871 4.0279-4.028 4.0279h-6.749c-3.157 0-4.028-.8709-4.028-4.0279v-2.5039c0-3.5925-1.85-5.0078-5.66-5.0078-3.919 0-5.661 1.7419-5.661 6.0964zm11.104 29.3933v-10.2332c0-4.3546-1.742-6.0964-5.552-6.0964s-5.552 1.7418-5.552 6.0964v10.2332c0 4.3545 1.742 6.0964 5.552 6.0964s5.552-1.7419 5.552-6.0964z" fill="#ffbc5e"/><path d="m87.6779 58.7865c0 18.398-5.225 25.0387-21.0089 25.0387-15.7838 0-21.0088-6.6407-21.0088-25.0387v-33.7478c0-18.28914 5.225-25.0387 21.0088-25.0387 15.7839 0 21.0089 6.74956 21.0089 25.0387zm-15.4573-37.4492c0-4.3545-1.7417-6.0964-5.5516-6.0964s-5.5515 1.7419-5.5515 6.0964v41.1506c0 4.3545 1.7416 6.0964 5.5515 6.0964s5.5516-1.7419 5.5516-6.0964z" fill="#ffbc5e"/><path d="m19.0495 65.5361c-.8708 1.4152-.5443 2.5039 1.3062 2.5039h16.9813c3.1568 0 4.0276.8709 4.0276 4.0279v6.6407c0 3.1571-.8708 4.028-4.0276 4.028h-32.43856c-3.15677 0-4.027606-.8709-4.027606-4.028v-7.8382c0-2.9393.217706-4.3545 1.415106-6.2052l19.04946-29.1756c2.9391-4.4634 4.5719-9.9066 4.5719-13.8257 0-4.79-1.524-6.423-5.5516-6.423-3.8099 0-5.5515 1.7419-5.5515 6.0964v5.8787c0 3.157-.8709 4.0279-4.0276 4.0279h-6.74899c-3.156776 0-4.02761-.8709-4.02761-4.0279v-3.2659c0-16.98281 5.225-23.9501 20.3557-23.9501 15.3485 0 21.0089 7.07615 21.0089 21.2285 0 6.0963-2.1771 12.737-6.749 19.8132z" fill="#ffbc5e"/><path d="m111.132 65.5361c-.871 1.4152-.545 2.5039 1.306 2.5039h16.981c3.157 0 4.028.8709 4.028 4.0279v6.6407c0 3.1571-.871 4.028-4.028 4.028h-32.4385c-3.1568 0-4.0276-.8709-4.0276-4.028v-7.8382c0-2.9393.2177-4.3545 1.4151-6.2052l19.049-29.1756c2.94-4.4634 4.572-9.9066 4.572-13.8257 0-4.79-1.524-6.423-5.551-6.423-3.81 0-5.552 1.7419-5.552 6.0964v5.8787c0 3.157-.871 4.0279-4.027 4.0279h-6.7494c-3.1567 0-4.0276-.8709-4.0276-4.0279v-3.2659c0-16.98281 5.225-23.9501 20.356-23.9501 15.348 0 21.009 7.07615 21.009 21.2285 0 6.0963-2.177 12.737-6.749 19.8132z" fill="#ffbc5e"/></svg>