<svg fill="none" height="295" viewBox="0 0 521 295" width="521" xmlns="http://www.w3.org/2000/svg"><path clip-rule="evenodd" d="m453.507 196.287c1.459-.684 2.711-1.552 3.775-2.621l.049-.051c.01-.01.02-.019.029-.029l.007-.008.009-.008c-.005.005-.011.01-.016.016m-3.853 2.701c1.459-.684 2.711-1.552 3.775-2.621.016-.017.033-.034.049-.051m17.684-37.374c.001.001.003.002.004.004.015.013.03.027.045.04.002.002.005.004.007.006l-.007-.006-.045-.04z" fill="#102775" fill-rule="evenodd"/><path clip-rule="evenodd" d="m397.5 196.385c-.374.4-.905.638-1.641.76.73-.121 1.259-.356 1.632-.75.001-.001.002-.002.003-.004zm-29.141.004c-.373.398-.904.635-1.638.756.73-.12 1.258-.355 1.631-.747m-246.777-78.39c.001-.001.002-.002.004-.003zm0 0c-.309.305-.516.71-.646 1.238zm-.646 1.238c.131-.533.341-.94.654-1.245-.002.001-.003.002-.004.004m-33.8534.332c-.0874.07-.1714.143-.2524.221-.632.607-1.0769 1.468-1.4922 2.675.5888-1.711 1.237-2.726 2.393-3.309.0252-.013.0507-.025.0764-.038.0532-.025.1075-.05.1629-.073.0358-.016.072-.031.1087-.046-.3407.136-.641.302-.9097.503-.0293.022-.0581.044-.0867.067zm-86.794588-.427c-.040581.034-.079468.07-.116986.107-.591932.592-.8078227 1.56-.81389375 3.069.00645797-1.605.25022475-2.597.93087975-3.176zm35.605088 73.821c-3.1999 3.321-8.25 5.055-16.0517 5.436 7.8482-.384 12.9115-2.136 16.1083-5.497-.0025.003-.0049.005-.0073.008-.0025.003-.0051.005-.0077.008-.0036.004-.0071.008-.0107.012-.0024.002-.0047.005-.007.007-.0023.003-.0046.005-.007.008-.0057.006-.0112.012-.0169.018zm49.1769 5.507c1.2623-.052 2.0912-.293 2.6127-.849l-.0033.004m43.4526.845c1.267-.052 2.098-.295 2.619-.855zm2.607-.84c.003-.004.005-.007.008-.011.001-.001.004-.004.004-.004m-2.619.855c1.257-.052 2.085-.29 2.607-.84zm29.649-.034c.974-.092 1.646-.335 2.093-.806zm0 0c.982-.093 1.657-.34 2.104-.819-.002.002-.003.004-.005.006-.001.002-.004.005-.006.007m30.51 1.852c5.872-.311 10.044-1.733 12.882-4.584zm0 0c5.937-.315 10.137-1.765 12.975-4.68-.007.007-.013.014-.02.021-.005.005-.01.01-.015.015-.006.006-.011.012-.017.018-.001.001-.003.003-.004.004-.005.005-.01.011-.016.016l-.01.011m33.333 4.592c5.872-.321 10.045-1.793 12.882-4.767.121-.126.239-.255.355-.388.677-.77 1.272-1.636 1.791-2.599-2.699 5.004-7.447 7.339-15.028 7.754zm94.744-.209c4.623-.564 8.036-2.01 10.468-4.558.083-.086.163-.175.244-.264-2.446 2.712-5.932 4.239-10.712 4.822zm-249.284-.8c1.2561-.052 2.0834-.291 2.6054-.84.0007-.001.0033-.004.004-.005m280.0296.005c.001-.001.003-.004.004-.005zm.004-.005.003-.004zm-64.984-50.491.005-.006c.001-.001-.001.001 0 0s.005-.006.006-.007c-.42.459-1.044.708-1.941.815.88-.104 1.498-.345 1.918-.788.004-.004.008-.009.012-.014z" fill="#102775" fill-rule="evenodd"/><path clip-rule="evenodd" d="m359.632 110.472c-3.106-4.876-8.505-6.913-17.092-6.913-7.118 0-12.046 1.4-15.293 4.657l-10.986 10.986c-.494-3.677-1.415-6.617-2.877-8.911-3.032-4.757-8.385-6.732-17.053-6.732-7.274 0-12.26 1.391-15.503 4.649l-10.647 10.647c-.678-4.216-1.938-7.445-3.935-9.826-3.219-3.839-8.351-5.47-16.036-5.47-7.118 0-12.046 1.4-15.293 4.657l-11.001 11.001c-.576-4.297-1.734-7.588-3.654-10.018-3.138-3.969-8.306-5.64-16.278-5.64-7.273 0-12.26 1.391-15.502 4.649l-11.609 11.608v-11.241c0-3.095-.854-3.949-3.949-3.949h-6.51c-1.547 0-2.535.214-3.135.814l-10.75 10.749-3.404-6.547c-2.242-4.376-3.736-5.016-7.684-5.016h-4.163c-1.548 0-2.535.214-3.135.814l-12.568 12.568c.002-.002.005-.005.008-.007-.454.443-.692 1.1-.784 2.046l-3.009-10.085-.12-.41c-1.231-4.125-2.402-4.926-7.778-4.926h-3.842c-3.275 0-4.989.297-6.1066 1.461l-12.4702 12.471c.35-.336.7573-.595 1.2488-.791l-.1087.046c-1.5927.683-2.2778 2.066-3.0382 4.727l-2.4158 8.097.0005-22.062c0-3.095-.8542-3.949-3.9492-3.949h-17.93c-1.5475 0-2.5345.214-3.1348.814l-7.161 7.16c-.9019-1.505-2.033-2.783-3.4398-3.846-3.7483-2.829-9.4534-4.128-17.9973-4.128h-13.021c-1.5474 0-2.5344.214-3.1348.814l-12.577874 12.577c.037518-.037.076405-.073.116986-.107-.689955.587-.93100096 1.598-.931012 3.243v72.147l.00292464.283c.05305396 2.864.94815636 3.665 3.94631536 3.665h13.02056c9.8871 0 15.9721-1.74 19.6229-5.578l-.015.016-.0107.012-.014.015c-.0057.006-.0112.012-.0169.018l4.6965-4.697v6.266l.002.283c.053 2.864.9483 3.665 3.9463 3.665h5.0167l.7078-.004c6.7998-.09 11.5168-1.499 14.6242-4.658l8.8392-8.839v9.553l.0025.283c.053 2.864.9481 3.665 3.9463 3.665h6.8305c1.5853 0 2.5819-.225 3.1776-.859-.0012.001-.0022.003-.0033.004-.0012.001-.0027.003-.004.005l12.5776-12.578c.574-.603.779-1.582.779-3.098v-1.946c.01.134.016.279.016.436v14.088l.002.283c.052 2.772.891 3.612 3.663 3.663l.284.002h6.83l.284-.002c1.391-.026 2.295-.251 2.857-.819l5.14-5.14v2.013l.003.283c.053 2.864.948 3.665 3.946 3.665h6.51c1.591 0 2.589-.226 3.184-.865l-.004.004c-.002.003-.006.008-.008.011l12.577-12.578c.573-.604.778-1.582.778-3.099v-11.503c1.517 2.938 2.151 4.842 2.151 9.46v14.622l.002.283c.053 2.864.948 3.665 3.946 3.665h6.511c1.588 0 2.586-.225 3.181-.863l-.005.006c-.002.002-.004.005-.006.007l8.84-8.84c2.438 7.519 7.994 10.617 18.331 10.752l.718.006c7.344 0 12.356-1.419 15.596-4.746l-.02.021-.015.015c-.012.013-.024.026-.037.038-.007.008-.014.015-.021.022l10.732-10.732c1.714 10.919 7.272 15.214 19.273 15.376l.717.006c9.442 0 15.029-2.424 17.951-8.41-.67 1.374-1.48 2.562-2.447 3.574l10.53-10.53c1.594 10.886 7.132 15.201 19.37 15.36l.718.006c7.28 0 12.221-1.394 15.414-4.659l10.793-10.793c1.702 10.971 7.258 15.284 19.284 15.446l.718.005c7.459 0 12.512-1.512 15.747-5.099-.081.089-.161.178-.244.264l9.257-9.257v9.077l.003.283c.053 2.864.948 3.665 3.946 3.665h6.51c1.586 0 2.583-.224 3.178-.859-.001.001-.002.003-.003.004-.001.002-.003.003-.004.005l12.578-12.578c.573-.604.778-1.582.778-3.099v-11.503c1.516 2.938 2.151 4.842 2.151 9.46v14.622l.002.283c.053 2.864.948 3.665 3.946 3.665h6.511c1.588 0 2.586-.225 3.182-.863-.002.002-.004.004-.006.006l-.003.004 12.576-12.575c.573-.604.778-1.582.778-3.098v-72.147c0-3.095-.854-3.949-3.949-3.949h-6.511c-1.547 0-2.534.214-3.134.814l-10.751 10.749-3.404-6.547c-2.241-4.376-3.736-5.016-7.684-5.016h-4.163c-1.547 0-2.534.214-3.135.814l-7.292 7.292c-.352-.812-.748-1.565-1.19-2.26zm-305.431 48.584c0 9.435-1.1253 15.984-5.087 20.097l-3.1537 3.153h4.4508l.3442-.005c3.496-.104 5.0986-1.836 5.0986-5.971v-42.797c0-1.401-.3752-1.864-1.6529-1.916zm249.171-13.154.005-.006c.002-.002.004-.005.006-.007-.558.609-1.474.849-2.91.875l-.284.003h-6.83c-1.075 0-1.879-.105-2.471-.369v18.421c0 1.045.11 1.936.329 2.686l11.585-11.584c.6-.6 1.587-.814 3.134-.814h3.428v-14.424c0-.26.001-.518.003-.774l-6.007 6.007c.004-.004.008-.009.012-.014zm-104.831-.374 1.468-1.468c-.593-.05-1.077-.155-1.468-.33zm16.408-6.216h2.096c.011-.741.032-1.46.064-2.16z" fill="#102775" fill-rule="evenodd"/><path clip-rule="evenodd" d="m457.282 193.666 9.98-9.981c1.735 10.346 7.296 14.47 19.255 14.626l.718.004c2.978 0 5.573-.276 7.821-.819.924-.223 1.79-.491 2.6-.803 2.252-.868 4.072-2.079 5.515-3.614-.075.08-.151.159-.228.238l12.578-12.578c3.505-3.551 4.891-8.927 4.891-15.92v-1.921c0-7.151-1.601-10.993-8.752-17.396l-2.758-2.5 10.732-10.731c.573-.604.778-1.582.778-3.098v-2.135c0-7.108-.877-12.353-3.001-16.06-3.009-5.255-8.524-7.42-17.598-7.42-7.428 0-12.471 1.722-15.707 4.999l-9.151 9.151v-9.133c0-3.095-.854-3.949-3.949-3.949h-6.83c-1.548 0-2.535.213-3.136.813l-12.553 12.555v-9.419c0-3.095-.854-3.949-3.949-3.949h-6.83c-1.548 0-2.535.213-3.136.813l-12.577 12.578c-.6.601-.814 1.588-.814 3.135v53.683c0 16.915 4.964 23.281 19.88 23.475l.718.005c7.314 0 12.311-1.403 15.552-4.7zm17.733-37.425.004.004.045.04.007.006c.064.057.128.115.194.173l.017.015 2.778 2.477-3.105 3.106v-5.875z" fill="#102775" fill-rule="evenodd"/><path d="m191.406 117.915c7.564 0 11.99 1.55 14.64 4.669 2.722 3.204 3.967 8.502 3.967 17.032v.533c0 1.522-.246 1.831-.293 1.878s-.355.293-1.878.293h-6.83c-1.524 0-1.832-.246-1.878-.293-.047-.047-.293-.356-.293-1.878v-3.095c0-2.336-.489-4.38-1.868-5.819-1.397-1.457-3.358-1.935-5.46-1.935-2.103 0-4.064.478-5.46 1.935-1.379 1.439-1.868 3.483-1.868 5.819v40.343c0 2.36.526 4.419 1.983 5.856 1.453 1.433 3.479 1.899 5.665 1.899 2.227 0 4.267-.461 5.714-1.908 1.446-1.446 1.934-3.512 1.934-5.847v-8.645c0-.785-.078-1.936-.92-2.779-.843-.842-1.995-.92-2.779-.921h-1.281c-1.521 0-1.83-.245-1.877-.292-.047-.048-.293-.357-.293-1.877v-7.044c0-1.524.247-1.832.293-1.878.047-.047.357-.292 1.877-.292h13.555c1.52 0 1.829.245 1.877.292.046.046.293.354.293 1.878v18.997c0 8.518-1.295 13.814-4.064 17.02-2.704 3.131-7.194 4.681-14.756 4.681s-12.051-1.55-14.756-4.681c-2.769-3.206-4.063-8.502-4.063-17.02v-35.22c0-8.518 1.294-13.815 4.063-17.021 2.705-3.13 7.194-4.68 14.756-4.68zm46.225 0c7.54 0 12.02 1.619 14.731 4.903 2.793 3.384 4.089 8.965 4.089 17.865v33.085c0 8.957-1.298 14.534-4.088 17.903-2.708 3.27-7.185 4.866-14.732 4.866s-12.023-1.596-14.732-4.866c-2.79-3.369-4.086-8.946-4.087-17.903v-33.085c.001-8.9 1.296-14.481 4.089-17.865 2.711-3.284 7.191-4.903 14.73-4.903zm46.122 0c7.563 0 11.991 1.55 14.641 4.669 2.721 3.204 3.965 8.502 3.965 17.032v3.202c0 1.519-.244 1.829-.292 1.877-.046.046-.354.293-1.878.293h-6.831c-1.521 0-1.83-.246-1.877-.293s-.292-.356-.293-1.877v-5.764c0-2.336-.489-4.38-1.868-5.819-1.396-1.457-3.357-1.935-5.46-1.935-2.102 0-4.063.478-5.46 1.935-1.379 1.439-1.868 3.483-1.868 5.819v40.343c0 2.337.489 4.38 1.868 5.82 1.397 1.457 3.358 1.935 5.46 1.935 2.103 0 4.064-.478 5.46-1.935 1.379-1.44 1.868-3.483 1.868-5.82v-5.763c.001-1.523.247-1.831.293-1.877.047-.047.355-.293 1.877-.293h6.831c1.524 0 1.832.246 1.878.293.048.047.292.357.292 1.877v3.202c0 8.53-1.244 13.828-3.965 17.032-2.65 3.119-7.077 4.669-14.641 4.669-7.562 0-12.052-1.55-14.756-4.681-2.769-3.206-4.062-8.502-4.062-17.02v-35.22c0-8.518 1.293-13.815 4.062-17.021 2.704-3.13 7.194-4.68 14.756-4.68zm46.209 0c7.539 0 12.02 1.619 14.73 4.903 2.793 3.384 4.089 8.965 4.089 17.865v33.085c0 8.957-1.297 14.534-4.087 17.903-2.708 3.27-7.185 4.866-14.732 4.866s-12.024-1.596-14.733-4.866c-2.789-3.369-4.086-8.946-4.086-17.903v-33.085c0-8.9 1.295-14.481 4.088-17.865 2.711-3.284 7.192-4.903 14.731-4.903zm157.273 0c7.563 0 12.053 1.55 14.757 4.68 2.769 3.207 4.063 8.503 4.063 17.021v2.135c0 1.523-.247 1.83-.293 1.877-.047.046-.354.293-1.877.293h-7.258c-1.524 0-1.831-.247-1.877-.293-.047-.047-.293-.354-.293-1.877v-4.697c0-2.313-.452-4.355-1.797-5.8-1.374-1.477-3.323-1.954-5.425-1.954-2.074 0-3.995.437-5.37 1.792-1.38 1.359-1.851 3.288-1.851 5.429v1.815c0 1.668.17 3.122.87 4.574.68 1.412 1.785 2.662 3.326 4.093l.009.007.008.007 13.661 12.38.008.008c3.511 3.145 5.499 5.524 6.644 7.872 1.128 2.315 1.515 4.759 1.515 8.199v1.921c0 6.557-1.26 11.245-4.035 14.308-2.742 3.025-7.301 4.832-14.785 4.832-7.562 0-12.051-1.55-14.756-4.681-2.769-3.206-4.063-8.502-4.063-17.02v-2.135c0-1.523.246-1.831.293-1.877.047-.047.354-.293 1.877-.293h7.258c1.522 0 1.83.246 1.877.293s.293.355.293 1.877v4.696c0 2.313.452 4.356 1.797 5.801 1.373 1.476 3.323 1.954 5.424 1.954 2.075 0 3.997-.438 5.371-1.792 1.38-1.359 1.851-3.288 1.851-5.43v-2.027c0-1.641-.177-3.102-1.034-4.66-.809-1.47-2.154-2.892-4.15-4.672l-12.807-11.42-.008-.008-.642-.571c-3.115-2.812-4.897-4.963-5.94-7.094-1.096-2.238-1.46-4.621-1.46-8.075v-2.349c0-6.557 1.26-11.244 4.035-14.307 2.741-3.026 7.301-4.832 14.784-4.832zm-55.275 1.067c1.521 0 1.83.246 1.877.293.046.047.293.354.293 1.877v56.245c0 2.335.489 4.401 1.935 5.847 1.448 1.447 3.488 1.908 5.714 1.908 2.186 0 4.212-.467 5.664-1.899 1.457-1.437 1.985-3.496 1.985-5.856v-56.245c0-1.523.246-1.83.293-1.877s.355-.293 1.877-.293h6.83c1.523 0 1.831.247 1.878.293.047.047.293.356.293 1.877v53.684c0 8.517-1.295 13.814-4.064 17.02-2.704 3.131-7.194 4.68-14.756 4.68s-12.052-1.549-14.757-4.68c-2.769-3.206-4.062-8.503-4.062-17.02v-53.684c0-1.523.246-1.83.293-1.877s.356-.293 1.877-.293zm-414.9903 0c10.1341 0 15.6019 1.871 18.6699 5.394 3.1279 3.591 4.2051 9.37 4.2051 18.442v28.817c0 9.072-1.0771 14.85-4.2051 18.442-3.068 3.522-8.536 5.392-18.6699 5.392h-13.02048c-1.52163 0-1.8299-.246-1.87695-.292-.04663-.047-.29295-.355-.29297-1.877v-72.148c.00006-1.523.24654-1.83.29297-1.877.04739-.047.35643-.293 1.87695-.293zm49.6631 0c1.5233 0 1.8314.247 1.8779.293.0467.047.2929.355.293 1.877v52.617c-.0001 8.517-1.2932 13.819-4.041 17.027-2.6797 3.128-7.1165 4.673-14.5654 4.673h-5.0166c-1.5233 0-1.8306-.246-1.877-.292-.0471-.048-.292-.357-.292-1.877v-7.044c0-1.523.2455-1.832.292-1.878.0472-.047.3562-.292 1.877-.292h5.2304c2.1015 0 4.05-.479 5.4239-1.955 1.3447-1.446 1.7978-3.488 1.7978-5.801v-42.797c0-.784-.079-1.936-.9219-2.779-.8428-.843-1.9941-.921-2.7783-.921h-5.2295c-1.5235 0-1.8315-.247-1.8779-.293-.0478-.048-.292-.359-.292-1.877v-6.511c.0001-1.52.2448-1.829.292-1.877.0464-.046.3544-.293 1.8779-.293zm30.6826 0c2.8276 0 3.9336.255 4.5386.673.474.327.885.929 1.414 2.593l.24.801 9.713 32.551.002.007.002.008c1.216 3.954 1.416 5.799 1.416 10.362v27.323c0 1.519-.246 1.829-.293 1.877-.047.046-.355.292-1.878.292h-6.83c-1.521 0-1.83-.245-1.877-.292s-.293-.354-.293-1.877v-14.088c0-.785-.08-1.936-.922-2.779-.843-.842-1.994-.921-2.7785-.922h-8.7509c-.7843 0-1.9364.079-2.7793.922-.8427.843-.9209 1.994-.9209 2.779v14.088c-.0001 1.521-.2461 1.829-.293 1.877-.0465.046-.354.292-1.877.292h-6.831c-1.5211 0-1.8298-.246-1.877-.292-.0468-.047-.2929-.356-.2929-1.877v-27.323c0-4.555.1977-6.3 1.4199-10.374v-.003l9.7119-32.551.0059-.02c.6479-2.268 1.1067-3 1.6484-3.374.6058-.418 1.7115-.673 4.5391-.673zm31.5466 0c1.942 0 2.859.178 3.55.604.709.437 1.459 1.311 2.552 3.445l.005.01 11.099 21.344.024.043c.242.436.567 1.016 1.043 1.428.643.558 1.342.662 1.898.662.596 0 1.469-.157 2.077-.948.512-.666.556-1.449.556-1.898v-22.52c0-1.523.247-1.83.293-1.877.047-.047.355-.293 1.877-.293h6.511c1.523 0 1.831.247 1.878.293.047.048.292.359.292 1.877v72.148c0 1.518-.245 1.828-.292 1.877-.047.046-.355.292-1.878.292h-6.511c-1.521 0-1.83-.245-1.877-.292-.047-.048-.293-.356-.293-1.877v-14.623c0-2.591-.192-4.474-.664-6.193-.47-1.711-1.192-3.168-2.105-4.887l-.001-.003-.003-.004-9.925-18.463-.012-.022-.199-.348c-.216-.366-.489-.77-.846-1.08-.644-.557-1.342-.661-1.898-.661-.596 0-1.469.156-2.077.948-.512.665-.556 1.449-.556 1.898v43.438c0 1.52-.245 1.829-.292 1.877-.047.046-.355.292-1.878.292h-6.51c-1.52 0-1.829-.245-1.877-.292-.046-.047-.293-.354-.293-1.877v-72.148c0-1.523.247-1.83.293-1.877.048-.047.357-.293 1.877-.293zm233.971 0c1.942 0 2.858.178 3.55.604.708.437 1.458 1.311 2.552 3.445l.004.01 11.1 21.344.023.043c.242.436.569 1.016 1.044 1.428.644.558 1.343.662 1.899.662.596 0 1.468-.157 2.077-.948.512-.666.556-1.449.556-1.898v-22.52c0-1.522.246-1.83.293-1.877s.357-.293 1.877-.293h6.509c1.523 0 1.832.246 1.878.293.047.047.292.357.292 1.877v72.148c0 1.519-.244 1.829-.292 1.877-.047.046-.355.292-1.878.292h-6.509c-1.522 0-1.83-.245-1.877-.292s-.293-.354-.293-1.877v-14.623c0-2.591-.193-4.474-.664-6.193-.47-1.711-1.193-3.168-2.106-4.887l-.002-.003-.003-.004-9.925-18.463-.011-.022-.198-.348c-.216-.366-.489-.77-.846-1.08-.644-.557-1.343-.661-1.899-.661-.596 0-1.468.156-2.077.948-.512.665-.555 1.449-.555 1.898v43.438c0 1.522-.247 1.83-.293 1.877-.047.046-.356.292-1.877.292h-6.511c-1.522 0-1.83-.246-1.877-.292-.047-.047-.293-.355-.293-1.877v-72.148c0-1.522.246-1.83.293-1.877s.355-.293 1.877-.293zm-125.202 10.318c-2.131 0-4.102.52-5.471 2.113-1.31 1.525-1.75 3.681-1.75 6.176v39.808c0 2.313.452 4.356 1.797 5.801 1.374 1.476 3.323 1.954 5.424 1.954s4.051-.478 5.425-1.954c1.344-1.445 1.797-3.488 1.798-5.801v-39.808c0-2.495-.441-4.651-1.751-6.176-1.369-1.593-3.341-2.113-5.472-2.113zm92.331 0c-2.131 0-4.103.52-5.472 2.113-1.31 1.525-1.75 3.681-1.75 6.175v39.809c0 2.313.453 4.356 1.797 5.801 1.374 1.476 3.323 1.954 5.425 1.954 2.101 0 4.051-.478 5.425-1.954 1.344-1.445 1.797-3.488 1.797-5.801v-39.809c0-2.494-.44-4.65-1.75-6.175-1.369-1.593-3.341-2.113-5.472-2.113zm-313.3116 1.067c-.7843 0-1.9364.078-2.7793.921-.8427.843-.9209 1.994-.9209 2.778v46.319c0 .772.0934 1.875.8936 2.711.8182.855 1.9417.99 2.8066.99h1.1738c3.2288 0 5.988-.749 7.8819-2.839 1.8547-2.048 2.541-5.019 2.541-8.653v-30.737c-.0001-3.633-.6865-6.604-2.541-8.651-1.8939-2.091-4.6531-2.839-7.8819-2.839zm181.0526 47.03-.006.393c-.052 1.891-.491 3.245-1.358 4.146l-.101.1c-.002.002-.004.005-.007.008-.961.92-2.41 1.33-4.397 1.33l-.34-.005c-1.994-.052-3.439-.573-4.351-1.685l10.56-9.483zm45.371 0-.005.393c-.046 1.786-.416 3.093-1.137 3.992-.079.099-.163.192-.25.281-.027.027-.054.053-.081.079-.894.851-2.205 1.232-3.968 1.232-.108 0-.215-.001-.32-.004-.008 0-.017-.001-.026-.001-.607-.018-1.157-.086-1.651-.206-.235-.057-.458-.126-.668-.208-.082-.032-.162-.066-.24-.102-.003-.001-.005-.002-.007-.003-.421-.193-.788-.442-1.102-.751l9.455-9.455zm46.336 0-.006.393c-.053 1.921-.502 3.289-1.361 4.189l-.12.12c-.92.882-2.271 1.275-4.064 1.275l-.318-.005c-.008 0-.017 0-.025 0-.331-.01-.645-.035-.944-.074-.046-.006-.092-.012-.137-.019-.022-.003-.047-.007-.068-.011-.316-.05-.614-.119-.892-.207-.665-.208-1.224-.524-1.678-.959l9.613-10.198zm45.995 0-.005.393c-.051 1.984-.504 3.377-1.392 4.275l-.029.03-.004.004c-.894.881-2.22 1.275-4.013 1.275-.108 0-.215-.002-.32-.005-.008 0-.017 0-.025 0-.491-.015-.945-.062-1.362-.143-.021-.004-.042-.008-.063-.012-.003-.001-.006-.002-.009-.002-.028-.006-.055-.012-.082-.018-.405-.089-.775-.212-1.109-.371-.397-.189-.744-.429-1.043-.724l9.456-9.456zm112.244 0-.005.393c-.056 1.898-.523 3.256-1.411 4.157l-.039.039c-.974.961-2.441 1.388-4.416 1.388l-.373-.005c-1.835-.051-3.181-.482-4.082-1.383l10.326-10.326zm-391.772-.263c-.0001 1.803-.6947 3.049-1.1709 3.616l-.2823.282c-.8939.881-2.2199 1.274-4.0127 1.274h-5.2295c-1.5164 0-2.495.206-3.0986.779l12.5049-12.506c.2977-.314.7698-.446 1.2891-.58zm-29.4082-4.54c-.0001 3.576-.7093 6.046-2.2149 7.6l-.1299.13c-1.4138 1.37-3.492 1.982-6.3008 1.982h-1.1738c-.0887 0-.1736-.002-.2549-.005-.004-.001-.0086 0-.0127 0-.2641-.014-.4899-.048-.6816-.105-.2397-.071-.4266-.179-.5693-.327l11.3379-11.438zm68.9257-36.891c-.4845 0-1.4359.016-2.1884.719-.6526.609-.8379 1.463-.9346 1.945l-4.9043 20.581-.0078.032-.0069.031c-.1003.502-.248 1.211-.248 1.951.0001.915.3339 1.852 1.1885 2.484.7516.555 1.6569.682 2.4052.682h9.3918c.748 0 1.654-.127 2.405-.682.855-.632 1.187-1.569 1.188-2.484 0-.74-.148-1.449-.248-1.951l-.006-.031-.008-.032-4.9054-20.581c-.0967-.482-.2821-1.336-.9345-1.945-.7521-.702-1.7018-.719-2.1866-.719zm6.2955 23.657c.107.533.214 1.068.214 1.602l-.002.089c-.015.352-.122.628-.315.833l-.025.024-.005.005c-.078.076-.167.142-.27.198-.298.162-.7.238-1.197.238h-9.3918l-.0146-.001-.0977-.001-.1015-.003c-.2108-.011-.4024-.036-.5733-.079-.2846-.07-.5132-.187-.6816-.352l10.5537-10.554zm398.123-55.802c9.074 0 14.588 2.165 17.598 7.419l-12.922 12.007c-3.078-4.841-8.516-6.848-17.254-6.848-7.337.001-12.346 1.68-15.587 4.879l12.458-12.458c3.237-3.277 8.279-4.999 15.707-4.999zm-389.921 1.068c5.549 0 6.618.854 7.898 5.337l-12.578 12.577c-1.28-4.482-2.348-5.336-7.8975-5.336h-3.8428c-3.1709 0-4.878.279-5.9981 1.354l12.4698-12.47c1.1176-1.165 2.8326-1.462 6.1066-1.462zm232.648-1.067c8.587 0 13.986 2.037 17.092 6.913l-12.918 12.068c-3.154-4.509-8.471-6.404-16.752-6.404-7.096.001-12.016 1.393-15.263 4.628l12.548-12.547c3.247-3.258 8.175-4.658 15.293-4.658zm-46.209 0c8.668 0 14.021 1.976 17.053 6.733l-12.896 12.1c-3.083-4.412-8.363-6.255-16.735-6.256-7.241.001-12.216 1.379-15.46 4.607l12.535-12.535c3.243-3.259 8.23-4.649 15.503-4.649zm-154.891 1.067c3.949 0 5.444.641 7.685 5.016l-12.578 12.577c-2.241-4.375-3.736-5.015-7.685-5.015h-4.162c-1.547 0-2.534.213-3.135.813l12.579-12.577c.6-.6 1.587-.814 3.134-.814zm233.972 0c3.948 0 5.443.641 7.684 5.016l-12.578 12.577c-2.242-4.375-3.735-5.015-7.684-5.015h-4.162c-1.548 0-2.536.213-3.136.813l12.578-12.577c.601-.6 1.588-.814 3.135-.814zm-125.202-1.067c7.685 0 12.817 1.632 16.036 5.47l-12.895 12.212c-3.236-3.577-8.283-5.105-15.719-5.105-7.097.001-12.016 1.393-15.263 4.628l12.548-12.547c3.246-3.258 8.174-4.658 15.293-4.658zm-170.9991 1.067c3.0948 0 3.9492.854 3.9493 3.949l-12.5782 12.577c-.0001-3.095-.8544-3.948-3.9492-3.948h-17.9297c-1.5473 0-2.5344.213-3.1347.813l12.5771-12.577c.6003-.6 1.5875-.814 3.1348-.814zm93.7141 0c3.095 0 3.948.854 3.948 3.949l-12.577 12.577c0-3.095-.855-3.948-3.949-3.948h-6.511c-.273 0-.529.006-.769.02-1.115.067-1.872.299-2.366.793l12.578-12.577c.601-.6 1.588-.814 3.135-.814zm233.971 0c3.095 0 3.949.854 3.949 3.949l-12.578 12.577c0-3.094-.854-3.948-3.949-3.948h-6.51c-.274 0-.53.006-.769.02-1.115.067-1.872.299-2.366.793l12.578-12.577c.6-.6 1.587-.814 3.134-.814zm37.642 0c3.095 0 3.949.854 3.949 3.949l-12.578 12.577c0-3.095-.854-3.949-3.949-3.949h-6.83c-1.547 0-2.535.214-3.135.814l12.577-12.578c.601-.6 1.589-.813 3.136-.813zm26.468 0c3.095 0 3.949.854 3.949 3.949l-12.578 12.577c0-3.095-.854-3.949-3.949-3.949h-6.83c-1.527 0-2.508.209-3.111.791l12.553-12.555c.6-.6 1.588-.813 3.136-.813zm-267.022-1.067c7.972 0 13.14 1.671 16.278 5.64l-13.159 11.894c-3.181-3.478-8.198-4.956-15.696-4.957-7.241 0-12.217 1.379-15.461 4.607l12.535-12.535c3.243-3.259 8.23-4.649 15.503-4.649zm-174.4361 1.067c8.5438 0 14.2488 1.299 17.997 4.129l-12.9834 12.283c-3.7503-2.625-9.3503-3.834-17.5918-3.834h-13.02048c-1.54728 0-2.53441.213-3.134767.813l12.577147-12.577c.6003-.6 1.5875-.814 3.1348-.814z" fill="#ff6752"/><path clip-rule="evenodd" d="m387.856 214.612 12.47-12.471c1.118-1.164 2.832-1.461 6.106-1.461h3.843c5.549 0 6.618.854 7.897 5.336l4.744 15.895c.789-2.049 1.844-3.737 3.206-5.098l12.551-12.551c3.142-3.157 7.919-4.561 14.828-4.646.222-.002.448-.004.675-.004l.675.004c6.905.085 11.637 1.489 14.73 4.646.062.063.123.127.184.192.007.007.013.015.02.022l.016.017.016.017.015.016c.047.052.095.104.141.156l.025.028c.055.062.11.125.163.188.015.017.03.034.044.052.122.144.24.291.356.442l.009.012.02.026c.048.063.097.127.144.192.013.018.026.035.038.053l.01.013c.041.056.081.113.121.171l.006.007.003.006.004.004.005.008c.009.013.018.025.026.037.11.159.216.32.32.485l.019.03.014.022c.093.15.185.303.274.459.015.027.031.054.046.081.145.257.284.521.418.793.01.021.02.042.03.064.036.073.071.147.106.221.009.02.019.04.028.06.096.208.188.42.278.637l.011.027c.007.018.015.036.022.053.217.533.416 1.092.596 1.677.048.156.094.314.139.473.004.016.009.032.014.047.006.022.012.044.018.065.044.158.087.318.129.48.008.03.015.061.023.092l.009.035c.036.144.071.288.106.435.01.045.021.09.031.136.037.158.072.318.106.479.005.028.011.055.017.083.035.17.069.341.102.515.01.05.019.101.029.152.032.173.063.347.092.524.008.046.015.092.023.138.058.354.112.716.162 1.085l10.999-10.999c3.247-3.257 8.175-4.658 15.294-4.658 8.357 0 13.696 1.93 16.838 6.53 2.676 3.918 3.76 9.771 3.76 18.018v33.085c-.001 9.559-1.439 15.881-5.096 19.711l-12.578 12.578c.364-.381.705-.787 1.025-1.217-3.179 4.273-8.439 6.052-16.528 6.052-12.498 0-18.243-4.247-19.991-15.382l-10.732 10.733c-3.243 3.258-8.229 4.65-15.502 4.65l-.718-.005c-9.528-.125-14.994-2.768-17.701-9.069l-7.191 7.192c.003-.003.006-.006.009-.009.002-.003.005-.005.007-.008.004-.005.008-.01.012-.014-.597.623-1.59.845-3.163.845h-6.831c-3.094 0-3.948-.854-3.948-3.949v-14.088c0-.152-.006-.293-.016-.423v1.933c0 1.517-.205 2.495-.779 3.099l-12.577 12.578.005-.006c.005-.005.009-.01.014-.016.004-.005.009-.011.014-.016-.557.617-1.476.858-2.92.885l-.284.003h-6.83l-.284-.003c-2.771-.051-3.611-.891-3.662-3.662l-.003-.284v-7.796l-8.466 8.467.021-.022.021-.021.02-.021.02-.022.03-.031c-3.189 3.342-8.158 4.766-15.518 4.766l-.717-.005c-10.211-.133-15.758-3.158-18.241-10.48l-8.567 8.568c.005-.006.009-.012.014-.017-.559.602-1.473.838-2.902.864l-.283.003h-6.831l-.284-.003c-2.863-.053-3.665-.948-3.665-3.946v-5.295l-8.393 8.394c.001-.002.003-.003.004-.005l.003-.004c-.559.596-1.472.83-2.893.856l-.284.003h-6.831l-.283-.003c-2.772-.051-3.612-.891-3.663-3.662l-.002-.284c0-14.498-.017-12.577-.017-12.577 0 1.516-.205 2.495-.778 3.098l-12.578 12.578c.001-.002.003-.003.004-.005l.003-.004c-.559.596-1.472.83-2.893.856l-.284.003h-6.831l-.283-.003c-2.864-.053-3.665-.948-3.665-3.946v-9.9l-9.964 9.963c.012-.012.024-.025.036-.037l.025-.026c-3.191 3.303-8.146 4.712-15.466 4.712l-.718-.004c-14.679-.192-19.72-6.361-19.876-22.678l-.005-.797v-35.22c0-9.174 1.461-15.244 5.177-18.911l-.01.01-.007.007c-.008.007-.015.014-.021.021l12.535-12.535c3.242-3.259 8.229-4.65 15.502-4.65 7.972 0 13.14 1.671 16.278 5.641.933 1.18 1.686 2.565 2.28 4.169l7.625-7.624c.6-.601 1.587-.814 3.135-.814h6.83c3.095 0 3.949.854 3.949 3.948 0 10.026.017 12.578.017 12.578 0-1.581.223-2.577.854-3.173-.008.007-.015.014-.022.02l-.006.006-.006.005-.007.007 12.577-12.577c.6-.601 1.588-.814 3.135-.814h6.831c3.095 0 3.949.854 3.949 3.948v5.295l8.429-8.429c.6-.601 1.588-.814 3.135-.814h6.831c3.095 0 3.948.854 3.948 3.948l.001 10.879 11.245-11.245c3.242-3.258 8.229-4.649 15.502-4.649 7.765 0 12.87 1.585 16.029 5.336 3.137 3.724 4.355 9.583 4.355 18.143v2.288l2.116-7.091c.549-1.92 1.058-3.175 1.898-3.981zm-17.353 27.644c-.006.006-.011.012-.016.018l11.98-11.981-6.221 20.852c-.009.031-.019.063-.028.094l-.029.099-.014.05-.023.077h-3.089c-1.547 0-2.534.214-3.135.814l-11.584 11.584c-.219-.75-.329-1.641-.329-2.686v-18.421c.592.264 1.396.368 2.471.368h6.83l.284-.002c1.44-.027 2.358-.268 2.915-.881-.004.005-.008.01-.012.015zm-116.519-.294c-.001.001-.002.003-.003.004 0-.001-.001.001 0 0l-.004.004 5.763-5.762v14.953h-3.186c-1.548 0-2.535.214-3.136.814l-11.584 11.584c-.219-.75-.329-1.641-.329-2.686v-18.421c.593.264 1.397.368 2.471.368h6.831c1.584 0 2.581-.224 3.177-.858zm220.38-24.276c-.002-.024-.004-.048-.005-.071l.003.044.001.019zm-198.243 26.286c-.583-.029-.978-.16-1.235-.417l12.176-12.175v10.677l-.006.25c-.052 1.202-.515 1.671-1.915 1.671h-8.752zm174.08-3.858-1.468 1.468v-1.798c.391.174.874.279 1.468.33zm17.036-4.748h-2.097l2.161-2.161c-.031.7-.053 1.42-.064 2.161z" fill="#102775" fill-rule="evenodd"/><g fill="#9cb2ff"><path d="m350.88 214.273c7.564 0 11.991 1.55 14.641 4.669 2.721 3.204 3.965 8.501 3.966 17.032v3.202c-.001 1.521-.247 1.83-.293 1.877-.047.046-.354.293-1.878.293h-6.83c-1.523 0-1.83-.246-1.877-.293s-.293-.354-.293-1.877v-5.764c0-2.337-.49-4.38-1.869-5.819-1.397-1.458-3.358-1.936-5.46-1.936s-4.063.478-5.46 1.936c-1.379 1.439-1.868 3.482-1.868 5.819v40.343c0 2.337.489 4.381 1.868 5.82 1.397 1.457 3.358 1.935 5.46 1.935s4.063-.478 5.46-1.935c1.379-1.439 1.869-3.483 1.869-5.82v-5.763c0-1.524.246-1.831.293-1.877.047-.047.355-.293 1.877-.293h6.83c1.524 0 1.831.246 1.878.293.046.046.292.354.293 1.877v3.201c0 8.531-1.245 13.828-3.966 17.032-2.65 3.119-7.077 4.67-14.641 4.67-7.562 0-12.052-1.55-14.756-4.681-2.769-3.206-4.063-8.503-4.063-17.021v-35.219c0-8.518 1.294-13.815 4.063-17.021 2.704-3.13 7.194-4.68 14.756-4.68z"/><path d="m441.598 213.969c7.564 0 11.99 1.55 14.64 4.669 2.722 3.204 3.966 8.501 3.966 17.032v.533c0 1.522-.246 1.831-.292 1.878-.047.046-.355.292-1.878.292h-6.83c-1.524 0-1.832-.246-1.878-.292-.047-.047-.293-.355-.293-1.878v-3.095c0-2.337-.489-4.38-1.868-5.82-1.397-1.457-3.358-1.935-5.46-1.935s-4.063.478-5.46 1.935c-1.379 1.44-1.868 3.483-1.868 5.82v40.343c0 2.36.526 4.419 1.983 5.856 1.453 1.433 3.479 1.9 5.665 1.9 2.227 0 4.267-.462 5.714-1.909 1.446-1.446 1.935-3.512 1.935-5.847v-8.645c0-.784-.079-1.936-.921-2.779-.843-.842-1.994-.921-2.779-.921h-1.281c-1.523 0-1.831-.246-1.877-.292-.047-.047-.293-.355-.293-1.878v-7.043c0-1.523.246-1.831.293-1.878.046-.047.353-.293 1.877-.293h13.555c1.523 0 1.831.246 1.877.293.047.047.293.356.293 1.878v18.997c0 8.517-1.294 13.814-4.063 17.02-2.705 3.131-7.195 4.681-14.757 4.681s-12.052-1.55-14.756-4.681c-2.77-3.206-4.063-8.503-4.063-17.02v-35.22c0-8.518 1.293-13.815 4.063-17.021 2.704-3.131 7.194-4.68 14.756-4.68z"/><path d="m234.371 213.969c7.564 0 11.991 1.55 14.64 4.669 2.722 3.204 3.966 8.501 3.966 17.032v3.202c0 1.52-.245 1.829-.292 1.877-.047.046-.355.293-1.878.293h-6.831c-1.522 0-1.83-.247-1.877-.293-.047-.047-.293-.355-.293-1.877v-5.764c0-2.336-.489-4.38-1.868-5.82-1.397-1.457-3.358-1.935-5.46-1.935s-4.063.478-5.46 1.935c-1.379 1.44-1.869 3.483-1.869 5.82v40.343c0 2.337.49 4.38 1.869 5.82 1.397 1.457 3.358 1.935 5.46 1.935s4.063-.478 5.46-1.935c1.379-1.44 1.868-3.483 1.868-5.82v-5.763c0-1.523.247-1.831.293-1.878.047-.046.356-.293 1.877-.293h6.831c1.523 0 1.831.247 1.878.293.046.047.292.356.292 1.878v3.202c0 8.53-1.244 13.827-3.966 17.031-2.649 3.119-7.076 4.669-14.64 4.669-7.562 0-12.052-1.549-14.756-4.68-2.769-3.206-4.063-8.502-4.063-17.02v-35.22c0-8.518 1.294-13.815 4.063-17.021 2.704-3.131 7.194-4.68 14.756-4.68z"/><path d="m493.267 273.451-.005.392c-.104 3.982-1.82 5.584-5.439 5.585-.096 0-.191-.002-.285-.005-.001 0-.003 0-.005 0h-.054c-1.026-.031-1.889-.203-2.596-.534-.113-.053-.222-.11-.327-.171-.042-.024-.083-.05-.125-.076-.099-.063-.195-.129-.287-.2l-.138-.112c-.007-.006-.014-.013-.022-.019-.038-.033-.075-.067-.112-.102-.014-.012-.027-.024-.04-.037-.007-.007-.013-.013-.02-.02l9.454-9.454s0 0 .001 4.753z"/><path d="m484.431 278.642c.009.005.016.011.025.016-.027-.017-.054-.033-.08-.05.018.012.037.022.055.034z"/><path d="m483.872 278.209c.004.004.008.008.011.012-.013-.013-.026-.024-.039-.037.009.009.019.017.028.025z"/><path clip-rule="evenodd" d="m487.823 213.969c7.54 0 12.02 1.618 14.731 4.903 2.793 3.384 4.089 8.964 4.089 17.865v33.085c0 8.957-1.297 14.534-4.087 17.903-2.708 3.27-7.186 4.865-14.733 4.865s-12.024-1.595-14.732-4.865c-2.79-3.369-4.087-8.946-4.087-17.903v-33.085c0-8.901 1.296-14.481 4.089-17.865 2.711-3.285 7.191-4.903 14.73-4.903zm0 11.384c-2.131 0-4.103.521-5.471 2.114-1.31 1.525-1.75 3.681-1.75 6.175v39.809c0 2.313.452 4.355 1.797 5.801 1.374 1.476 3.323 1.954 5.424 1.954 2.102 0 4.051-.478 5.425-1.954 1.345-1.446 1.797-3.488 1.797-5.801v-39.809c0-2.494-.44-4.65-1.75-6.175-1.369-1.593-3.341-2.114-5.472-2.114z" fill-rule="evenodd"/><path d="m270.519 215.34c1.524 0 1.831.246 1.878.293.046.047.292.355.292 1.877v24.547c0 .772.093 1.874.894 2.711.818.855 1.941.989 2.806.989h8.752c.865 0 1.988-.134 2.806-.989.8-.837.893-1.939.893-2.711v-24.547c0-1.523.247-1.831.293-1.877.048-.048.358-.293 1.878-.293h6.83c1.522 0 1.83.246 1.877.293.047.046.293.354.293 1.877v72.147c0 1.522-.246 1.831-.293 1.878-.047.046-.355.292-1.877.292h-6.83c-1.522 0-1.83-.245-1.878-.292-.046-.047-.293-.354-.293-1.878v-28.816c0-.784-.078-1.936-.921-2.778-.843-.843-1.994-.922-2.778-.922h-8.752c-.784 0-1.936.079-2.779.922-.842.842-.921 1.994-.921 2.778v28.816c0 1.521-.245 1.83-.292 1.878-.047.046-.354.292-1.878.292h-6.831c-1.521 0-1.83-.246-1.877-.292-.046-.047-.293-.354-.293-1.878v-72.147c0-1.523.247-1.831.293-1.877.048-.047.357-.293 1.877-.293z"/><path d="m320.184 215.34c1.523 0 1.831.246 1.877.293.047.047.293.355.293 1.877v72.147c0 1.521-.246 1.83-.293 1.878-.046.046-.354.292-1.877.292h-6.831c-1.522 0-1.83-.246-1.877-.292-.046-.047-.293-.354-.293-1.878v-72.147c0-1.523.247-1.831.293-1.877.048-.047.357-.293 1.877-.293z"/><path d="m402.074 255.414c.107.533.213 1.067.213 1.601l-.002.088c-.038.899-.675 1.299-1.812 1.299h-9.392l-.214-.005c-.562-.027-.985-.166-1.254-.431l10.553-10.554z"/><path clip-rule="evenodd" d="m397.698 215.036c2.827 0 3.933.254 4.539.672.542.374 1.001 1.106 1.649 3.374l.003.01.003.01 9.711 32.552.003.007.002.007c1.216 3.954 1.415 5.799 1.415 10.363v27.322c0 1.52-.245 1.829-.292 1.877-.047.046-.354.293-1.878.293h-6.83c-1.523 0-1.831-.246-1.878-.293-.046-.047-.292-.355-.292-1.877v-14.088c0-.784-.079-1.936-.921-2.779-.843-.842-1.995-.921-2.779-.921h-8.752c-.784 0-1.935.079-2.778.921-.843.843-.921 1.995-.921 2.779v14.088c0 1.52-.246 1.83-.293 1.877-.047.046-.354.293-1.877.293h-6.831c-1.523 0-1.831-.246-1.878-.293-.046-.047-.292-.356-.292-1.877v-27.322c0-4.556.197-6.301 1.419-10.375l.001-.002 9.712-32.552.003-.01.003-.01c.648-2.268 1.106-3 1.648-3.374.606-.418 1.712-.672 4.539-.672zm-1.921 16.72c-.484 0-1.435.017-2.188.719-.66.616-.842 1.485-.938 1.963l-4.901 20.563-.007.032-.007.032c-.1.502-.248 1.21-.248 1.95 0 .916.334 1.852 1.189 2.484.751.556 1.656.682 2.404.682h9.392c.748 0 1.653-.126 2.405-.682.854-.632 1.188-1.568 1.188-2.484 0-.74-.147-1.448-.248-1.95l-.006-.032-.008-.032-4.901-20.563c-.096-.478-.278-1.347-.938-1.963-.753-.702-1.703-.719-2.188-.719z" fill-rule="evenodd"/><path d="m356.537 273.755-.005.393c-.067 2.416-.763 3.955-2.108 4.792.006-.004.013-.008.019-.013-.02.013-.039.025-.059.037l-.153.089c-.845.464-1.924.679-3.244.679.197 0 .388-.007.574-.016-.186.009-.377.015-.574.015-.096 0-.191-.002-.284-.004l-.06-.001c-1.623-.048-2.859-.447-3.718-1.271l9.612-10.197z"/><path d="m447.895 273.451-.005.392c-.11 3.982-1.936 5.584-5.865 5.585l-.001-.001c-.135 0-.267-.002-.397-.006-1.312-.04-2.384-.287-3.221-.775-.011-.007-.023-.013-.034-.02-.109-.065-.213-.133-.313-.206l-.102-.076c-.003-.002-.006-.005-.009-.007-.138-.108-.267-.223-.389-.348-.015-.015-.029-.03-.044-.045-.063-.066-.122-.136-.181-.208l10.56-9.481c0-8.046.001 2.547.001 5.196z"/><path d="m240.028 273.451-.006.392c-.066 2.418-.763 3.957-2.109 4.794.008-.005.016-.011.024-.017-.018.012-.037.023-.056.035-.679.414-1.522.652-2.531.736-.109.009-.22.016-.332.022-.04.002-.08.004-.12.006-.053.002-.107.003-.162.005-.085.002-.172.003-.259.003-.153 0-.303-.003-.449-.009l-.043-.002c-1.223-.054-2.219-.312-2.995-.811-.025-.016-.049-.033-.073-.049-.18-.122-.347-.256-.502-.405l9.613-10.197z"/><path d="m442.019 279.427-.358-.004c-.012-.001-.023-.001-.034-.002.128.004.259.006.392.006z"/><path d="m234.203 279.424-.07-.001c-.026-.001-.053-.003-.079-.004.049.002.099.003.149.005z"/><path d="m235.315 279.394c.012-.001.023-.002.035-.003.007-.001.015 0 .022-.001-.019.002-.038.002-.057.004z"/><path d="m237.871 278.662c.004-.002.007-.005.01-.007.002-.001.004-.002.005-.002-.005.003-.01.006-.015.009z"/><path d="m287.062 242.057-.006.25c-.052 1.202-.515 1.671-1.915 1.671h-8.752l-.268-.006c-.583-.029-.978-.16-1.236-.417l12.176-12.174z"/><path d="m410.275 200.68c5.55 0 6.618.854 7.898 5.336l-12.578 12.577c-1.28-4.482-2.348-5.336-7.898-5.336h-3.842c-3.171 0-4.879.279-5.999 1.355l12.47-12.471c1.118-1.164 2.832-1.461 6.107-1.461z"/><path d="m500.402 199.612c8.358 0 13.696 1.93 16.838 6.53l-12.665 12.451c-3.154-4.508-8.47-6.403-16.751-6.403-7.097 0-12.016 1.392-15.263 4.628l12.547-12.548c3.247-3.257 8.175-4.658 15.294-4.658z"/><path d="m246.948 199.612c7.972 0 13.14 1.671 16.278 5.641l-12.526 12.644c-3.132-4.017-8.313-5.707-16.329-5.707-7.242 0-12.217 1.379-15.46 4.607l12.535-12.535c3.242-3.259 8.229-4.65 15.502-4.65z"/><path d="m283.096 200.984c3.095 0 3.949.854 3.949 3.948l-12.578 12.578c0-3.095-.853-3.948-3.949-3.948h-6.83c-1.547 0-2.534.213-3.135.813l12.578-12.577c.6-.601 1.587-.814 3.135-.814z"/><path d="m310.418 200.984c3.095 0 3.949.854 3.949 3.948l-12.578 12.578c0-3.095-.854-3.948-3.949-3.948h-6.83c-1.548 0-2.535.213-3.135.813l12.577-12.577c.601-.601 1.588-.814 3.135-.814z"/><path d="m332.762 200.984c3.095 0 3.948.854 3.949 3.948l-12.578 12.578c0-3.095-.854-3.948-3.949-3.948h-6.831c-1.547 0-2.534.213-3.134.813l12.577-12.577c.6-.601 1.588-.814 3.135-.814z"/><path d="m363.458 199.917c7.766 0 12.871 1.585 16.03 5.336l-13.244 11.848c-3.194-3.228-8.122-4.607-15.364-4.607-7.241 0-12.216 1.379-15.459 4.607l12.535-12.535c3.242-3.258 8.229-4.649 15.502-4.649z"/><path d="m454.176 199.612c7.273 0 12.212 1.391 15.405 4.65l-13.579 11.663c-3.193-2.606-7.851-3.735-14.404-3.735-7.241 0-12.216 1.379-15.46 4.607l12.535-12.535c3.243-3.259 8.23-4.65 15.503-4.65z"/></g><path d="m129.061 93.4724c.004-.001.007-.0025.01-.0035-.004.0012-.006.0023-.01.0035z" fill="#102775"/><path d="m129.139 93.449c-.004.0011-.008.0022-.012.0034.012-.0037.024-.0076.036-.0112-.008.0025-.016.0053-.024.0078z" fill="#102775"/><path clip-rule="evenodd" d="m128.839 93.5287-.028.0065c-.009.0018-.017.0036-.025.0053m.311-.0791-.006.0014.012-.0036zm.743-.3356c.004-.0021.011-.0065.014-.0088l-.005.0033zm34.694.6284.008-.0023.031-.0085c.012-.0035.025-.007.037-.0104.002-.0005.004-.0012.006-.0017-.027.0077-.055.0153-.082.0229zm.054-.0147c.003-.0008.006-.0017.009-.0026.001-.0005.003-.0011.005-.0016m-152.931-50.5619c.1132-.0091.2225-.0198.328-.0327-.0015.0002.0015-.0002 0 0 .0015-.0003.0075-.0013.009-.0015m.1544-.0209c.0081-.0012.0163-.0026.0244-.004l-.0086.0015zm.6518-.1416c.0068-.002.0135-.0041.0202-.0061.0134-.004.0267-.008.0399-.0121l.0086-.0026c.0022-.0007.007-.0023.0095-.0032-.006.002-.012.0039-.0181.0058l.0181-.0058.005-.0016c.0579-.019.1137-.0401.1682-.0614-.0802.0313-.1639.0605-.2514.087zm24.2247 50.7101c.2657-.0049.5137-.017.7448-.0375.0771-.0068.1523-.0147.2257-.0234-.0703.0083-.1423.0153-.2159.0219-.0011.0002-.0072.0011-.0098.0015m1.1071-.2025c.008-.0025.016-.0052.024-.0078.0017-.0006.0034-.0011.0051-.0017-.0097.0032-.0194.0064-.0291.0095zm30.9801 1.1121.0297-.003c.0414-.0043.0827-.0088.1239-.0131-.0035.0003-.0071.0006-.0107.0009-.0183.002-.0365.0039-.0548.0059-.0025.0003-.005.0006-.0075.0008.0011-.0001.0063-.0006.0075-.0008.0168-.0018.0296-.0032.0463-.005-.0447.0047-.0895.0098-.1344.0143zm1.3456-.1624c.0338-.0048.0675-.0097.1012-.0146.0014-.0001-.0014.0002 0 0-.0014.0002-.0069.0008-.0083.001-.0309.0045-.0619.0092-.0929.0136zm-58.2316-51.4755c.0062-.0021.0125-.0043.0186-.0066-.0053.002-.0133.0048-.0186.0066zm58.7822 51.3912c.022-.0036.0439-.0076.0658-.0112-.0103.0017-.0206.0035-.0309.0053m56.815-.7325c.034-.0062.068-.0134.101-.02l-.02.0043-.034.0068c-.016.0031-.031.0061-.047.0089zm-26.401-50.4287c-.007.0008-.015.0017-.023.0025-.017.0018-.034.0036-.052.0054.026-.0026.05-.0051.075-.0079zm-.184.0188c-.001.0001.002-.0001 0 0zm58.452-30.3097c.007.0008.014.0019.021.0028-.01-.0013-.02-.0022-.03-.0034-.003-.0003-.005-.0008-.008-.0012-.002-.0005-.005-.001-.007-.0013.008.001.016.0021.024.0031zm-.024-.0031c.002.0003.005.0008.007.0013.003.0004.005.0009.008.0012-.007-.0009-.014-.0018-.021-.0027zm-148.789 30.3223c.1208-.0097.2371-.0221.3491-.0361z" fill="#102775" fill-rule="evenodd"/><path clip-rule="evenodd" d="m128.724 93.5528.021-.004.02-.004.009-.0018c.012-.0025.024-.0051.037-.0078.009-.0021.019-.0043.028-.0065.014-.003.027-.0062.041-.0094.014-.0034.027-.0068.041-.0101.014-.0035.028-.007.041-.0105l.016-.0039c.018-.0048.036-.0101.054-.0151l.015-.004c.008-.0022.016-.0044.024-.0068l.02-.0061.012-.0036c.021-.0062.045-.0136.065-.02.03-.0094.059-.0178.088-.0278l.01-.0034.005-.0019.01-.0034c.002-.0007.007-.003.008-.0035.206-.0743.389-.1647.551-.2734.002-.0013.006-.0035.009-.0055.002-.0012.004-.0024.005-.0033l.005-.0034c.081-.0553.156-.115.227-.1799l.015-.0156c.005-.004.009-.0075.014-.0117l.067-.0667.005-.0064 7.309-7.3087c2.737 6.4258 8.187 9.1 17.607 9.2273l.718.0049c2.343 0 4.457-.1588 6.358-.4841.132-.0229.265-.0458.396-.0702.029-.0054.058-.011.088-.0165.181-.0346.361-.07.539-.1078.024-.005.048-.0104.072-.0156.127-.0274.254-.0556.379-.0848.041-.0094.083-.0201.123-.0297.117-.0277.232-.0561.347-.0853l.012-.0029.032-.0082.05-.0128.024-.0063c.055-.0143.11-.0288.164-.0434l.047-.0127c.027-.0074.054-.0149.082-.0223.027-.0076.055-.0152.082-.0229l.046-.0129.036-.0101c-.042.0118-.083.0235-.125.0351l.015-.0039.062-.0173.059-.0168.009-.0026.008-.0023c.041-.0117.082-.0235.123-.0353.042-.0121.083-.0244.125-.0369.019-.0055.037-.0112.056-.017l.036-.0114.03-.0092.028-.0087.024-.0072.009-.003c.013-.0041.027-.008.04-.0119.016-.0049.032-.0098.049-.0149.137-.0432.273-.0875.407-.1331l.011-.0039c.031-.0104.061-.0211.092-.0317l.06-.0207.039-.0135c.027-.0095.054-.0191.081-.0288l.03-.0106.047-.017c.033-.012.066-.0245.099-.0366.012-.0046.025-.009.037-.0135.015-.0053.03-.0107.045-.0162.291-.1086.574-.2232.851-.3437l.043-.0185c.279-.1225.551-.2516.817-.3865l.018-.0092.025-.0128c.546-.2794 1.062-.5853 1.55-.9183.017-.0115.034-.0231.051-.0346.155-.1073.308-.2172.458-.33l.014-.01.048-.0364c.028-.0215.056-.0431.084-.0648l.018-.014.024-.0184.018-.0139.021-.0165c.458-.3598.888-.7463 1.29-1.1611l12.578-12.5779c3.424-3.5273 4.895-9.0604 4.895-16.9527v-9.0713c0-10.3942-2.862-16.3703-7.931-19.0994l6.726-6.7247c.573-.6036.779-1.5822.779-3.0987v-.427c0-1.6637-.066-3.2226-.201-4.6799-.499-5.3854-1.949-9.38451-4.563-12.16408-3.259-3.46464-8.328-5.03477586-15.622-5.03477586-7.02.0000147-11.895 1.37757586-15.113 4.62093586l-9.99 9.98912c-.446-2.726-1.232-5.0707-2.41-7.03377l-.144-.23494c-.192-.30595-.394-.60227-.605-.88909-.191-.25966-.391-.51107-.6-.75505-.009-.01094-.018-.02192-.027-.0329-.016-.0181-.032-.03695-.047-.05484-.035-.03992-.07-.07944-.105-.11893l-.025-.02869c-.015-.01633-.029-.03266-.044-.04882-.225-.24991-.461-.49075-.705-.72336l-.017-.01667-.008-.00707-.013-.01282c-.045-.04263-.091-.08463-.137-.12667l-.008-.00761c-.019-.01718-.037-.03436-.056-.05143-.038-.03382-.075-.06747-.113-.1009l-.028-.02467c-.022-.02029-.045-.04059-.068-.06063-.03-.02568-.06-.05092-.09-.07618l-.037-.03106-.013-.01097-.014-.01202-.019-.017-.019-.01607c-.041-.03389-.082-.0673-.123-.10075l-.006-.00502-.031-.02526c-.02-.01684-.041-.03369-.062-.05029-.024-.01928-.048-.03829-.072-.05732l-.029-.02214-.031-.02443c-.027-.02136-.054-.04274-.081-.06379-.05-.03856-.101-.07659-.152-.11455l-.015-.01104-.027-.02065c-.128-.09473-.258-.18731-.39-.27833l-.028-.0192c-.014-.00973-.028-.01946-.042-.02905-.044-.03013-.089-.05977-.134-.08947-.033-.0219-.069-.04581-.102-.06749-.048-.03108-.096-.06199-.144-.09261-.03-.01893-.06-.03779-.09-.05654-.044-.02756-.088-.05472-.133-.08189l-.017-.01026c-.032-.01973-.064-.03948-.097-.05896-.047-.0282-.095-.05606-.142-.08384l-.031-.01791c-.013-.00773-.026-.01546-.039-.02304-.064-.03674-.128-.0727-.193-.1087-.026-.01469-.053-.02929-.079-.04387-.044-.0237-.087-.0473-.131-.07067-.042-.02281-.085-.04527-.128-.06776l-.024-.0127c-.028-.01484-.057-.02969-.085-.04433-.047-.02432-.095-.04869-.142-.07263-.034-.01694-.068-.03357-.102-.05022l-.031-.01509-.021-.01014c-.033-.01628-.066-.0328-.1-.04884-.056-.02677-.112-.05318-.168-.07946l-.036-.0168-.036-.01634c-.06-.02785-.121-.05559-.182-.08287-.035-.01556-.07-.03086-.105-.04619l-.019-.0084-.03-.01309-.028-.0122c-.016-.00705-.032-.01407-.048-.02102-.057-.02433-.114-.04829-.172-.07214-.046-.01939-.093-.03844-.14-.05752-.031-.01257-.062-.02509-.093-.03753-.062-.02489-.125-.04975-.188-.07409l-.022-.00878c-.03-.0113-.061-.02348-.09-.0346-.051-.01927-.102-.03812-.153-.05703-.047-.01722-.094-.03426-.141-.05119l-.008-.00296c-.051-.01827-.104-.03763-.156-.05553-.019-.00697-.039-.01378-.059-.0206l-.037-.01254c-.07-.02421-.141-.04809-.212-.07166l-.018-.00606c-.017-.00564-.034-.01127-.051-.01685-.073-.02387-.146-.04746-.22-.07068-.03-.0093-.059-.01841-.089-.02754l-.032-.00999-.037-.01119c-.033-.01016-.067-.0208-.1-.03073-.063-.01897-.126-.03756-.19-.05606-.046-.01331-.092-.02641-.138-.03948l-.039-.01097c-.031-.00893-.064-.01833-.096-.02705-.058-.016104-.116-.032048-.175-.047768-.055-.014682-.11-.029036-.165-.043382-.042-.010847-.084-.021417-.126-.032007l-.028-.006988-.041-.010394c-.021-.00536-.042-.010724-.063-.015928-.082-.020457-.166-.040722-.249-.060443-.009-.002139-.018-.004191-.028-.006245l-.023-.005453c-.079-.018409-.159-.036349-.238-.054106-.057-.012553-.113-.024818-.17-.037046l-.049-.010646c-.031-.006731-.062-.013561-.093-.020063l-.026-.005512-.034-.007161-.236-.047769c-.01-.001853-.019-.003604-.028-.005354-.009-.001586-.018-.003218-.026-.004883-.059-.011555-.119-.022905-.179-.03412-.051-.009709-.103-.019305-.155-.028759-.046-.008425-.093-.016637-.14-.02486l-.021-.003865c-.061-.010683-.122-.021432-.183-.031718-.084-.014298-.17-.02828-.255-.04192l-.058-.009261c-.087-.013588-.173-.026448-.261-.039365l-.04-.006026c-.027-.004052-.055-.008212-.082-.012127-.035-.00496-.069-.009651-.104-.014351l-.059-.008072-.069-.009684c-.041-.005809-.083-.011674-.124-.017125-.066-.008722-.133-.017043-.199-.025386l-.06-.00759c-.033-.004193-.066-.008392-.099-.012356-.045-.00539-.09-.01047-.135-.015561l-.056-.006374c-.064-.007287-.128-.014491-.192-.021447-.015-.001638-.03-.003196-.045-.004755l-.035-.003531c-.223-.0237-.45-.045622-.679-.065318-.048-.004155-.097-.008104-.145-.012061l-.014-.001099-.046-.003774c-.043-.003521-.086-.007064-.129-.010362-.11-.008473-.222-.016323-.333-.0238848l-.029-.0020853c-.011-.0007938-.022-.0015976-.032-.0023017-.237-.0156624-.477-.0288808-.72-.0404576l-.035-.0018241c-.014-.0007261-.027-.0014527-.041-.0020754-.093-.004285-.187-.0079129-.281-.0115558l-.017-.0006302-.039-.001565c-.02-.0008038-.04-.0016118-.06-.0023345l-.024-.0007665-.022-.0006958c-.524-.01846076-1.06-.0277832-1.609-.02778416-6.824 0-11.593 1.44525586-14.754 4.62678586l-10.1629 10.16317c-.665-3.7918-1.8239-6.75952-3.5968-9.00891-3.2011-4.06138-8.3997-5.78104586-16.2888-5.78104586-7.1185.000003-12.0464 1.40015586-15.293 4.65749586l-10.0086 10.00816c-.6399-3.9573-1.9922-7.11401-4.2149-9.46954-3.2688-3.46415-8.4165-5.1961027-15.9359-5.19611586-6.824 0-11.5932 1.44525586-14.7538 4.62678586l-12.49703 12.49697-.02096.0215c-3.75373 3.7291-5.263827 9.8735-5.263872 18.9117v3.202c0 3.095.853792 3.9487 3.948752 3.9488h6.61701c.1654 0 .3244-.0037.4772-.0088l.0107-.0002.0112-.0003.0224-.0008c.0318-.0011.0634-.0022.0946-.0036.0662-.003.1312-.0066.195-.0107l.0214-.0013.0168-.001.0105-.0006.0201-.0013.0133-.0008.012-.0009c.0173-.0012.0345-.003.0516-.0043.1208-.0097.2371-.0221.3491-.0361-.004.0005-.0081.0012-.0121.0019l-.009.0015c.0083-.0011.0139-.0023.0211-.0034.0036-.0006.0084-.0009.0126-.0015.0061-.0008.0121-.0014.0182-.002.0068-.0007.0136-.0015.0203-.0024.0054-.0007.0107-.0015.016-.0024l.0077-.0012c.0067-.0011.0135-.0022.0202-.0032.0158-.0023.0317-.004.0473-.0063.0053-.0008.0105-.0016.0158-.0025.0028-.0005.0057-.001.0086-.0015l.02-.0034c.0101-.0018.0206-.0037.0307-.0053.0045-.0008.0091-.0015.0141-.0022l.0115-.0018c.0123-.0019.0255-.0039.0363-.0058.0647-.0113.128-.0234.1896-.0365.0018-.0004.0036-.0006.0053-.001.0111-.0024.0222-.0048.0332-.0073.0026-.0006.0052-.0014.0078-.0019l.0077-.0016c.0045-.0009.0089-.0018.0132-.0028.0174-.004.0346-.0076.0517-.0117.0042-.001.0084-.0019.0126-.0028.0046-.001.0092-.0019.0137-.0031.0156-.0038.0309-.0081.0462-.0124.0092-.0026.0183-.0051.0274-.0076l.0101-.0028.007-.002.0058-.0015c.0283-.0078.0561-.0158.0835-.0241.0875-.0265.1712-.0557.2514-.087-.0545.0213-.1103.0424-.1682.0614.0074-.0022.0103-.0025.0176-.0049.0123-.0041.0242-.0089.0362-.0133l.0077-.0028.0095-.0033c.0117-.0041.0236-.0082.0351-.0124l.0104-.0038c.0239-.0088.0475-.018.0707-.0273l.0239-.0096.0215-.0089c.0136-.0057.0275-.0107.0409-.0166.0049-.0021.0097-.0045.0145-.0069.0043-.0022.0085-.0043.0128-.0062.0063-.0029.0125-.0059.0186-.0089l.0086-.0041.0055-.0026.0092-.0044c.0068-.0032.0156-.0075.0228-.0109l.0299-.0145c.0055-.0027.0111-.0055.0165-.0083.008-.004.0159-.0083.0238-.0125l.0225-.0123c.0182-.0097.036-.0197.0537-.0297.0023-.0014.0048-.0026.0072-.0039.0028-.0014.0056-.0028.0084-.0044.0129-.0076.0257-.0152.0385-.0229l.0058-.0036c.0189-.0115.0377-.0229.0561-.0349.0085-.0057.017-.0114.0254-.0172.0089-.0061.0178-.0123.0266-.0185.0133-.0094.0305-.0215.0435-.0311.0021-.0016.0041-.0033.0061-.005.0017-.0015.0034-.0029.0051-.0043.027-.0202.0532-.0411.079-.0624.0086-.0071.0171-.0143.0256-.0215l.0056-.0048c.0168-.0145.0335-.0289.0497-.0439.0028-.0025.006-.0047.0088-.0073.029-.0271.0575-.0546.0848-.0833l11.3939-11.3949c.1833.7884.27 1.7323.2701 2.853l-.0049.3646c-.0966 3.8101-1.6862 8.9506-4.4776 13.1896l-18.67731 28.603-.20911.3354c-.99078 1.6579-1.17814 3.0465-1.17815 5.7479v7.684l.00244.2837c.05128 2.7717.89101 3.6113 3.66263 3.6626l.28369.003h31.80451l.2832-.003c.2695-.005.5206-.018.7546-.039-.0016.0003-.0081.0014-.0098.0015.0771-.0068.1523-.0147.2257-.0234.0236-.0028.047-.0063.0702-.0093.0401-.0051.0795-.0108.1185-.0165l.0068-.001c.0047-.0007.0094-.0013.0141-.002l.016-.0024c.0149-.0022.0297-.0044.0445-.0068.0271-.0044.0538-.009.0804-.0137.0057-.001.0114-.0019.017-.0029.0139-.0025.0277-.0052.0413-.0079l.0197-.0038.0084-.0016.015-.0028c.062-.0122.1224-.0253.1813-.0395l.0098-.0024c.0389-.0094.0769-.0204.1145-.0307.0084-.0023.0168-.0045.0251-.0067.014-.0037.0279-.0073.0417-.0113.0192-.0057.0383-.0116.0571-.0178.0179-.0058.0357-.0117.0534-.0176l.0138-.0046.0201-.0067.0215-.0071c.0089-.0029.0178-.006.0266-.0091.0388-.0139.0799-.0308.117-.0458l.0084-.0033.0096-.0037c.0065-.0024.0135-.005.0199-.0076l.0095-.0039c.0047-.0019.0098-.0039.0145-.0059.0206-.009.0406-.0188.0605-.0285.0085-.0041.0183-.0089.0268-.0129.0276-.0132.0552-.0256.0819-.0395.0142-.0075.0281-.0154.0419-.0234l.0162-.0094.0233-.0135.016-.0091.0093-.0052.0065-.0036.0111-.0062.0093-.0053c.0062-.0036.0124-.0073.0184-.0111.0211-.0131.0414-.0271.0617-.0411l.0154-.0106c.0701-.048.1369-.0984.1993-.1535l.0099-.0089.0052-.0048c.0375-.0338.074-.0687.1087-.1052l7.3072-7.3078c2.7387 6.421 8.1891 9.0933 17.6064 9.2205l.7175.0048c1.4442 0 2.7996-.0579 4.0677-.1754.1304-.0121.2599-.0247.3885-.0381-.0475.005-.0951.0104-.1429.0152.0514-.0051.1025-.0108.1536-.0161.0602-.0063.1201-.013.1799-.0195.1544-.017.3074-.0348.4592-.0536l.0302-.0037.0145-.0017.0201-.0024.0286-.0037c.016-.0021.032-.0042.0479-.0061.0055-.0006.0111-.0007.0166-.0015.0013-.0002.0065-.0012.0078-.0014.0024-.0003.0049-.0005.0074-.0007l.0077-.0008c.0164-.0021.0328-.0044.0492-.0067l.027-.0038c.0198-.0028.0409-.0058.0608-.0085.0787-.0106.1571-.0212.2351-.0322.0338-.0048.0675-.0097.1012-.0146l-.0083.001c.1764-.0258.3508-.0534.5235-.0819-.0219.0036-.0438.0076-.0658.0112.0301-.0049.0602-.0096.0902-.0146l.0196-.0034.0105-.0019c.0093-.0017.0186-.0034.0279-.0049l.0137-.0025c.1417-.0239.2867-.0492.426-.075l.039-.0074.0451-.0086.0387-.0074.0615-.0117.0376-.0071.0369-.007c.0218-.0042.0436-.0084.0653-.0128.0519-.0103.1035-.0215.155-.0321l.0688-.0143.0204-.0042c.0207-.0044.0414-.0083.0619-.0127.044-.0094.0879-.0187.1316-.0283.0263-.0057.0529-.0118.079-.0177l.0478-.0096c.1009-.0226.2021-.0474.3017-.0712.1476-.0351.2937-.0711.4382-.1087.0409-.0106.0817-.0213.1224-.0321.0436-.0117.0872-.0234.1306-.0352.0499-.0136.0996-.0274.1492-.0414l.0327-.0093.013-.0038.0474-.0137c.0288-.0082.0575-.0165.0862-.0248.0781-.0228.1558-.0457.233-.0692.0162-.005.0323-.01.0485-.015l.0476-.0148c.0999-.031.1989-.0627.2973-.095.0314-.0104.0628-.0207.0941-.0312.1033-.0346.2059-.0697.3075-.1058l.0228-.0082.0164-.006.0306-.0111c.0947-.0341.1889-.0685.2822-.1039.0125-.0047.025-.0093.0375-.0141.0274-.0105.0547-.0211.0819-.0317.0837-.0324.1666-.0654.2491-.0989l.0338-.0137.043-.0174.0216-.0089c.0175-.0072.0348-.0151.0522-.0224.0792-.0331.1578-.0668.2359-.1009l.03-.0131c.0165-.0071.033-.0142.0495-.0215.0847-.0376.169-.0753.2525-.1141.0266-.0124.0531-.025.0795-.0376l.0297-.0141c.0922-.0437.1833-.0887.2739-.134.0063-.0032.0127-.0063.0191-.0093.007-.0034.014-.0067.0209-.0102.0785-.0395.1566-.0792.2339-.1199.0321-.0169.0638-.0342.0956-.0512l.0253-.0136c.0842-.0454.1678-.0913.2506-.138.0349-.0197.0696-.0395.1043-.0595.0243-.014.0486-.0281.0728-.0422.0303-.0177.0604-.0354.0905-.0533.0143-.0085.0286-.0173.0429-.0258.0189-.0114.0377-.0228.0565-.0342l.0153-.0092.0305-.0185c.0698-.0427.139-.086.2077-.1297.0291-.0185.0579-.0374.0867-.0561l.0142-.0092.2471-.1648c.0797-.0543.1587-.1093.2369-.1652.0117-.0083.0233-.0166.035-.0249.0183-.0129.0366-.0258.0547-.039.0547-.0398.1088-.0803.1628-.1209.052-.0391.1037-.0785.155-.1184l.0112-.0088c.0039-.003.0079-.0057.0117-.0088.0414-.0322.0825-.0647.1233-.0974.0119-.0095.0237-.019.0354-.0286.0083-.0067.0165-.0134.0247-.0201.0079-.0064.0158-.0129.0237-.0194l.0312-.0256.0089-.0072c.0142-.0117.0287-.0229.0429-.0346.0499-.0414.0989-.0837.1481-.1258l.0216-.0184c.0141-.012.0283-.024.0423-.0362.1458-.1263.2882-.2561.428-.389l.0078-.0074c.0316-.0301.0632-.0601.0945-.0906.1125-.1093.224-.2197.3325-.3334l10.2932-10.2937c-.0728.6933-.097 1.4798-.097 2.4284v7.684l.0025.2837c.0513 2.7717.891 3.6113 3.6626 3.6626l.2837.003h31.8048l.283-.003c.177-.0032.346-.01.507-.02.013-.0007.025-.0016.038-.0026l.031-.0022.042-.003c.028-.002.056-.004.083-.0063l.008-.0008c.003-.0004.007-.0009.01-.0011l.011-.001c.027-.0023.053-.0048.079-.0073l.052-.0051c.016-.0016.032-.0033.048-.005.018-.0019.036-.0039.054-.006l.018-.0022.017-.0022.019-.0024c.059-.0074.116-.0153.173-.0239.009-.0015.019-.0029.029-.0044.07-.0111.138-.0243.205-.0375zm-26.692-50.3889c.001-.0001-.001 0 0 0-.001.0001.002-.0001 0 0-.022.002-.049.0042-.072.0061-.02.0017-.04.0033-.06.0048l-.02.0015-.031.0023c-.017.0014-.035.0028-.053.004l-.007.0005c-.002.0002-.005.0004-.008.0007l-.008.0008c-.036.0023-.072.004-.109.0058l-.03.0015-.049.0026c-.017.0008-.033.0016-.049.0022-.013.0006-.026.0005-.039.001-.168.0064-.344.0103-.528.0103h-2.2347v14.4243c0 3.9407-.246 7.331-.7897 10.2236l13.3774-20.4857c2.791-4.239 4.381-9.3795 4.478-13.1896l.004-.3646c0-1.1207-.087-2.0646-.27-2.853l-11.394 11.3949c-.271.2859-.626.4865-1.08.6215l-.009.0029c-.021.0062-.043.012-.064.0178l-.017.0046c-.012.0031-.023.0062-.035.0093l-.007.0017c-.018.0047-.036.0094-.054.0139-.003.0007-.006.0017-.009.0024-.031.0076-.063.0144-.095.0214l-.007.0015-.011.0025-.01.0024c-.029.006-.057.0118-.086.0174-.019.0038-.039.0074-.059.011-.012.0023-.024.0045-.037.0067-.014.0024-.028.0049-.042.0073-.013.0021-.026.0047-.039.0068l-.015.0024c-.048.0075-.097.014-.146.0205l-.015.002-.02.0027c-.009.0013-.018.0025-.026.0036l-.006.0007-.005.0008c-.018.0021-.035.004-.053.0059-.017.0018-.034.0036-.052.0054l-.027.0028c-.023.0024-.046.0046-.069.0068zm-70.6284 21.0854c-.4678.7602-.5831 1.4243-.2934 1.8693.2391.3672.7544.5855 1.5744.5855h12.2752v-23.7847zm90.2554 0c-.468.7603-.584 1.4243-.294 1.8693.239.3671.754.5855 1.574.5855h12.284v-23.7979zm38.846-51.3923c-.01-.0013-.02-.0022-.03-.0034-.007-.0009-.014-.0018-.021-.0027.002.0001.006.0002.006.0002.008.001.016.0021.024.0031z" fill="#102775" fill-rule="evenodd"/><path clip-rule="evenodd" d="m161.259 74.231c-.052 1.9853-.504 3.3791-1.394 4.2777l-.031.0316c-.092.0903-.188.1754-.288.2555-.015.0114-.029.0228-.044.034-.879.6785-2.098.9853-3.681.9853-.018 0-.037 0-.055-.0001s-.036-.0003-.054-.0005c-.014-.0001-.028-.0003-.043-.0005l-.01-.0001c-.061-.0009-.122-.0024-.183-.0042-.404-.012-.784-.046-1.138-.103-.798-.128-1.469-.3732-2.019-.7482-.183-.125-.354-.2637-.511-.4182l9.456-9.4557v4.754z" fill="#ffbc5e" fill-rule="evenodd"/><path clip-rule="evenodd" d="m61.5454 78.5403c.894.8813 2.2198 1.2747 4.0128 1.2747 1.5828 0 2.8014-.3067 3.6804-.9848.13-.1004.2527-.2086.3679-.3254.0163-.0165.0325-.0333.0485-.0501.0699-.0737.1371-.1506.2014-.2308.113-.1406.2173-.2912.3131-.4521.3934-.6602.6434-1.4935.758-2.5181.036-.3218.0588-.6625.0681-1.0227l.0049-.3924v-4.753z" fill="#ffbc5e" fill-rule="evenodd"/><path clip-rule="evenodd" d="m5.35225 17.2046c.01976-.0199.03958-.0397.05946-.0594z" fill="#ffbc5e" fill-rule="evenodd"/><path clip-rule="evenodd" d="m48.6196 5.19624c-3.2688-3.46416-8.4165-5.19624-15.9359-5.19624-6.8241 0-11.5931 1.44533-14.7537 4.62686l-12.51829 12.51834c3.16086-3.1401 7.91279-4.5674 14.69419-4.5674 7.9729 0 13.2795 1.9473 16.507 5.8419z" fill="#ffbc5e" fill-rule="evenodd"/><path clip-rule="evenodd" d="m95.6072 17.2046c.0198-.0199.0396-.0397.0595-.0594z" fill="#ffbc5e" fill-rule="evenodd"/><path clip-rule="evenodd" d="m140.671 7.57649c-3.031-5.05099-8.653-7.57649-17.732-7.57649-6.824 0-11.593 1.44533-14.754 4.62686l-12.5183 12.51834c3.1609-3.1401 7.9133-4.5674 14.6943-4.5674 8.72 0 14.25 2.3298 17.36 6.9887z" fill="#ffbc5e" fill-rule="evenodd"/><path clip-rule="evenodd" d="m50.2953 17.2053c3.2468-3.236 8.1664-4.6275 15.2631-4.6275 7.6315 0 12.7454 1.6091 15.9689 5.3906l12.8977-12.1874c-3.2011-4.06138-8.3998-5.781-16.2888-5.781-7.1187 0-12.0467 1.40016-15.2932 4.65757z" fill="#ffbc5e" fill-rule="evenodd"/><path clip-rule="evenodd" d="m140.494 17.1988c.023-.0236.047-.047.07-.0703zm43.312-12.16384c-3.259-3.46464-8.327-5.03496-15.621-5.03496-7.02 0-11.895 1.37758-15.113 4.62099l-12.508 12.50751c3.219-3.193 8.074-4.5507 15.043-4.5507 6.945 0 11.873 1.4237 15.141 4.5507z" fill="#ffbc5e" fill-rule="evenodd"/><path clip-rule="evenodd" d="m65.5573 14.3567c7.5397 0 12.02 1.6186 14.7309 4.9032 2.793 3.3842 4.0891 8.9645 4.0891 17.8652v33.085c0 8.9569-1.2975 14.5332-4.0876 17.9022-2.7082 3.27-7.1854 4.8662-14.7324 4.8662-7.547-.0001-12.0238-1.5962-14.732-4.8662-2.7901-3.369-4.0871-8.9453-4.0871-17.9022v-33.085c0-8.9008 1.2961-14.481 4.0891-17.8652 2.7109-3.2845 7.1905-4.9031 14.73-4.9032zm0 11.3842c-2.1015 0-4.05.478-5.4238 1.9541-1.3449 1.4453-1.7977 3.4878-1.7977 5.8011v40.3425c.0001 2.3132.4529 4.3554 1.7977 5.8006 1.3738 1.4763 3.3223 1.955 5.4238 1.9551 2.1016 0 4.0508-.4787 5.4247-1.9551 1.3447-1.4452 1.7976-3.4875 1.7977-5.8006v-40.3425c0-2.3133-.4528-4.3558-1.7977-5.8011-1.3739-1.4763-3.3231-1.9541-5.4247-1.9541z" fill="#ffbc5e" fill-rule="evenodd"/><path clip-rule="evenodd" d="m155.608 14.3562c7.155 0 11.643 1.5619 14.406 4.5625 2.797 3.0373 4.2 7.9446 4.2 15.5376v.427c0 1.5214-.246 1.83-.293 1.8772-.047.0464-.354.2929-1.878.2929h-6.617c-1.523 0-1.831-.2465-1.877-.2929-.047-.0472-.293-.3556-.293-1.8772v-2.4547c0-2.0498-.534-3.8766-1.997-5.1274-1.399-1.1965-3.306-1.5608-5.331-1.5608-2.142 0-4.118.4719-5.509 1.9449-1.368 1.4479-1.82 3.4984-1.82 5.8108v11.526c0 .2787.031.8954.47 1.4448.524.6547 1.238.7609 1.629.7609.809 0 1.429-.4156 1.734-.6186l.009-.0059.008-.0063c1.682-1.1506 3.558-1.9303 7.748-1.9303 4.727.0001 8.201 1.3302 10.548 4.1379 2.404 2.8748 3.895 7.6116 3.895 15.0015v9.0718c0 7.5936-1.402 12.4964-4.221 15.5323-2.787 3.0028-7.329 4.5678-14.598 4.5678-7.547 0-12.024-1.5956-14.732-4.8657-2.79-3.3691-4.088-8.9456-4.088-17.9027v-33.085c0-8.9562 1.297-14.5376 4.066-17.9086 2.684-3.2676 7.107-4.8598 14.541-4.8598zm.213 41.6942c-2.102 0-4.051.4783-5.425 1.9547-1.345 1.4452-1.797 3.4878-1.797 5.801v10.0325c0 2.313.453 4.3554 1.797 5.8006 1.374 1.4764 3.323 1.9546 5.425 1.9546s4.05-.4783 5.424-1.9546c1.345-1.4452 1.798-3.4875 1.798-5.8006v-10.0325c0-2.3132-.453-4.3558-1.798-5.801-1.374-1.4763-3.322-1.9546-5.424-1.9547z" fill="#ffbc5e" fill-rule="evenodd"/><path d="m20.1059 14.3562c7.2897 0 11.8575 1.6835 14.6475 4.6444 2.811 2.9831 4.172 7.6334 4.1721 14.3887-.0001 5.5448-1.9808 11.7237-6.3324 18.4584l-.0039.0059-.0034.0058-15.2686 24.024-.0068.0112c-.5084.8262-1.047 2.1344-.4645 3.416.6437 1.416 2.1296 1.7494 3.26 1.7494h16.6495c1.5225.0001 1.8304.2463 1.8771.293.0465.0465.2929.354.293 1.8771v6.5103c0 1.5227-.2463 1.8309-.293 1.8776-.0466.0466-.3541.2925-1.8771.2925h-31.80456c-1.52373 0-1.83119-.2461-1.87762-.2925-.04679-.0469-.29247-.3554-.29247-1.8776v-7.684c.00001-1.421.05559-2.3302.21399-3.0694.14826-.6917.39955-1.294.88763-2.0483l18.67333-28.5957-.0005-.0005c3.0418-4.6216 4.7726-10.2898 4.7726-14.5267-.0001-2.4401-.3668-4.5846-1.6832-6.0832-1.3757-1.5662-3.3865-1.9922-5.5387-1.9922-2.1016 0-4.0504.4783-5.4243 1.9546-1.3448 1.4453-1.7976 3.4879-1.7977 5.8011v5.763c0 1.5207-.2453 1.8297-.2924 1.8771-.0465.0464-.3539.293-1.8776.293h-6.61706c-1.52363 0-1.8307-.2466-1.87713-.293-.04682-.0469-.29295-.355-.29295-1.8771v-3.202c.00004-8.2334 1.28741-13.5618 4.00774-16.8494 2.64509-3.1964 6.9874-4.8515 14.1714-4.8515z" fill="#ffbc5e"/><path d="m110.361 14.3562c7.29.0001 11.857 1.6835 14.647 4.6444 2.811 2.9831 4.172 7.6334 4.172 14.3887 0 5.5448-1.98 11.7237-6.332 18.4584l-.004.0059-.003.0058-15.269 24.024-.007.0112c-.508.8263-1.047 2.1343-.464 3.416.644 1.416 2.129 1.7494 3.26 1.7494h16.649c1.524.0001 1.831.2466 1.878.293.046.0466.292.3544.292 1.8771v6.5103c0 1.5214-.246 1.8304-.292 1.8776-.047.0466-.355.2924-1.878.2925h-31.8042c-1.5234 0-1.831-.246-1.8776-.2925-.0465-.0466-.2924-.3544-.2924-1.8776v-7.684c0-1.421.0555-2.3302.2139-3.0694.1483-.6917.3996-1.294.8877-2.0483l18.6736-28.5957-.001-.0005c3.042-4.6215 4.773-10.2899 4.773-14.5267 0-2.4401-.367-4.5846-1.683-6.0832-1.376-1.5662-3.387-1.9922-5.539-1.9922-2.102 0-4.051.4784-5.424 1.9546-1.345 1.4453-1.798 3.4879-1.798 5.8011v5.763c0 1.5194-.245 1.8293-.293 1.8771-.046.0464-.354.2929-1.877.293h-6.6172c-1.5233 0-1.8306-.2465-1.8771-.293-.0466-.0466-.2929-.354-.2929-1.8771v-3.202c0-8.2334 1.2874-13.5618 4.0077-16.8494 2.6451-3.1963 6.9875-4.8515 14.1715-4.8515z" fill="#ffbc5e"/></svg>