<svg fill="none" height="140" viewBox="0 0 260 140" width="260" xmlns="http://www.w3.org/2000/svg"><g fill="#ff6752"><path d="m9.83338 49.4375c10.43092 0 12.54962 3.8029 12.54962 13.0386v14.6684c0 9.2357-2.1187 13.0386-12.54962 13.0386h-6.62795c-1.5755 0-2.01012-.4346-2.01012-2.0101v-36.7254c0-1.5755.43462-2.0101 2.01012-2.0101zm-.16298 7.6059c-.76059 0-.97789.2173-.97789.9778v23.5782c0 .7062.2173.9779.97789.9779h.5976c3.0423 0 4.4005-1.4125 4.4005-4.9438v-15.6464c0-3.5312-1.3582-4.9437-4.4005-4.9437z"/><path d="m26.7461 90.1831h-2.5534c-1.5755 0-2.0101-.4346-2.0101-2.0101v-3.5856c0-1.5755.4346-2.0101 2.0101-2.0101h2.6621c1.9014 0 2.7707-.8693 2.7707-3.0424v-21.7853c0-.7606-.2173-.9779-.9779-.9779h-2.6621c-1.5755 0-2.0101-.4346-2.0101-2.0101v-3.314c0-1.5755.4346-2.0101 2.0101-2.0101h9.1271c1.5755 0 2.0101.4346 2.0101 2.0101v26.7835c0 8.7467-2.6077 11.952-10.3766 11.952z"/><path d="m46.547 88.173c0 1.5755-.4346 2.0101-2.0101 2.0101h-3.477c-1.5755 0-2.0101-.4346-2.0101-2.0101v-13.9078c0-2.3904.1087-3.3683.7606-5.5414l4.9438-16.5699c.6519-2.2818 1.1952-2.7164 4.0202-2.7164h1.9558c2.825 0 3.3683.4346 4.0202 2.7164l4.9439 16.5699c.6519 2.1187.7605 3.151.7605 5.5414v13.9078c0 1.5755-.4346 2.0101-2.0101 2.0101h-3.4769c-1.5755 0-2.0102-.4346-2.0102-2.0101v-7.1712c0-.7606-.2173-.9779-.9779-.9779h-4.4548c-.7606 0-.9779.2173-.9779.9779zm5.5957-15.755c.5976 0 .9236-.2173.9236-.7062 0-.2717-.0543-.5433-.1087-.8149l-2.499-10.4852c-.1087-.5433-.2173-.652-.7063-.652-.4889 0-.5976.1087-.7062.652l-2.4991 10.4852c-.0543.2716-.1087.5432-.1087.8149 0 .4889.326.7062.9236.7062z"/><path d="m76.3517 62.8564c.2716.4889.3803.5976.7062.5976.326 0 .4346-.163.4346-.5433v-11.4631c0-1.5755.4347-2.0101 2.0101-2.0101h3.314c1.5755 0 2.0101.4346 2.0101 2.0101v36.7254c0 1.5755-.4346 2.0101-2.0101 2.0101h-3.314c-1.5754 0-2.0101-.4346-2.0101-2.0101v-7.4429c0-2.5534-.3803-3.4769-1.3038-5.2154l-5.0525-9.3987c-.2716-.4889-.3803-.5976-.7062-.5976-.326 0-.4347.163-.4347.5433v22.1113c0 1.5755-.4346 2.0101-2.0101 2.0101h-3.3139c-1.5755 0-2.0102-.4346-2.0102-2.0101v-36.7254c0-1.5755.4347-2.0101 2.0102-2.0101h2.1187c2.0101 0 2.7707.326 3.9116 2.5534z"/><path d="m101.833 75.678c0-.7606-.217-.9779-.978-.9779h-.652c-1.5752 0-2.0098-.4346-2.0098-2.0101v-3.5856c0-1.5755.4346-2.0102 2.0098-2.0102h6.9c1.575 0 2.01.4347 2.01 2.0102v9.6702c0 8.7468-2.608 11.9521-10.4852 11.9521-7.8775 0-10.4852-3.2053-10.4852-11.9521v-17.928c0-8.7467 2.6077-11.9521 10.4852-11.9521 7.8772 0 10.3762 3.2054 10.3762 11.9521v.2716c0 1.5755-.434 2.0101-2.01 2.0101h-3.477c-1.575 0-2.01-.4346-2.01-2.0101v-1.5755c0-2.1731-.923-3.0423-2.8249-3.0423-1.9015 0-2.825.8692-2.825 3.0423v20.5358c0 2.1731.9779 3.0423 2.988 3.0423 2.0649 0 2.9879-.8692 2.9879-3.0423z"/><path d="m132.643 78.2314c0 9.1813-2.607 12.4953-10.485 12.4953-7.877 0-10.485-3.314-10.485-12.4953v-16.8415c0-9.1271 2.608-12.4954 10.485-12.4954 7.878 0 10.485 3.3683 10.485 12.4954zm-13.256 1.8471c0 2.1731.87 3.0423 2.771 3.0423 1.902 0 2.771-.8692 2.771-3.0423v-20.2641c0-2.3905-.869-3.314-2.771-3.314-1.901 0-2.771.9235-2.771 3.314z"/><path d="m156.012 77.1448v1.6298c0 8.7468-2.499 11.9521-10.376 11.9521-7.878 0-10.486-3.2053-10.486-11.9521v-17.928c0-8.7467 2.608-11.9521 10.486-11.9521 7.877 0 10.376 3.2054 10.376 11.9521v1.6298c0 1.5755-.434 2.0101-2.01 2.0101h-3.477c-1.575 0-2.01-.4346-2.01-2.0101v-2.9337c0-2.1731-.924-3.0423-2.825-3.0423-1.902 0-2.825.8692-2.825 3.0423v20.5358c0 2.1731.923 3.0423 2.825 3.0423 1.901 0 2.825-.8692 2.825-3.0423v-2.9337c0-1.5755.435-2.0101 2.01-2.0101h3.477c1.576 0 2.01.4346 2.01 2.0101z"/><path d="m179.642 78.2314c0 9.1813-2.607 12.4953-10.485 12.4953-7.877 0-10.485-3.314-10.485-12.4953v-16.8415c0-9.1271 2.608-12.4954 10.485-12.4954 7.878 0 10.485 3.3683 10.485 12.4954zm-13.256 1.8471c0 2.1731.87 3.0423 2.771 3.0423 1.902 0 2.771-.8692 2.771-3.0423v-20.2641c0-2.3905-.869-3.314-2.771-3.314-1.901 0-2.771.9235-2.771 3.314z"/><path d="m195.452 62.8564c.272.4889.381.5976.707.5976.325 0 .434-.163.434-.5433v-11.4631c0-1.5755.435-2.0101 2.01-2.0101h3.314c1.576 0 2.01.4346 2.01 2.0101v36.7254c0 1.5755-.434 2.0101-2.01 2.0101h-3.314c-1.575 0-2.01-.4346-2.01-2.0101v-7.4429c0-2.5534-.38-3.4769-1.304-5.2154l-5.052-9.3987c-.272-.4889-.38-.5976-.706-.5976s-.435.163-.435.5433v22.1113c0 1.5755-.435 2.0101-2.01 2.0101h-3.314c-1.576 0-2.01-.4346-2.01-2.0101v-36.7254c0-1.5755.434-2.0101 2.01-2.0101h2.119c2.01 0 2.77.326 3.911 2.5534z"/><path d="m248.292 63.9432 6.954 6.302c3.64 3.2597 4.455 5.2155 4.455 8.8554v.9779c0 6.8453-2.608 10.6482-10.485 10.6482-7.878 0-10.486-3.2053-10.486-11.9521v-1.0865c0-1.5755.435-2.0101 2.011-2.0101h3.694c1.575 0 2.01.4346 2.01 2.0101v2.3904c0 2.1731.869 3.0423 2.771 3.0423 1.901 0 2.77-.8149 2.77-2.7707v-1.0322c0-1.5211-.326-2.2817-2.336-4.0745l-6.519-5.8131c-3.64-3.2053-4.401-5.0524-4.401-8.6924v-1.1952c0-6.8452 2.608-10.6482 10.486-10.6482 7.877 0 10.485 3.2054 10.485 11.9521v1.0865c0 1.5755-.435 2.0101-2.01 2.0101h-3.695c-1.575 0-2.01-.4346-2.01-2.0101v-2.3904c0-2.1731-.869-3.0423-2.77-3.0423-1.902 0-2.771.8149-2.771 2.7707v.9235c0 1.5755.326 2.3361 1.847 3.7486z"/><path d="m229.065 51.4476c0-1.5755.435-2.0101 2.01-2.0101h3.477c1.576 0 2.01.4346 2.01 2.0101v27.3267c0 8.7468-2.608 11.9521-10.485 11.9521s-10.485-3.2053-10.485-11.9521v-27.3267c0-1.5755.434-2.0101 2.01-2.0101h3.477c1.575 0 2.01.4346 2.01 2.0101v28.6306c0 2.1731.924 3.0423 2.988 3.0423 2.01 0 2.988-.8692 2.988-3.0423z"/><path d="m130.874 126.039v1.63c0 8.747-2.499 11.952-10.376 11.952-7.878 0-10.485-3.205-10.485-11.952v-17.928c0-8.747 2.607-11.9519 10.485-11.9519 7.877 0 10.376 3.2049 10.376 11.9519v1.63c0 1.575-.434 2.01-2.01 2.01h-3.477c-1.575 0-2.01-.435-2.01-2.01v-2.934c0-2.173-.923-3.042-2.825-3.042-1.901 0-2.825.869-2.825 3.042v20.536c0 2.173.924 3.042 2.825 3.042 1.902 0 2.825-.869 2.825-3.042v-2.934c0-1.575.435-2.01 2.01-2.01h3.477c1.576 0 2.01.435 2.01 2.01z"/><path d="m147.319 137.223v-14.668c0-.761-.217-.978-.978-.978h-4.455c-.76 0-.978.217-.978.978v14.668c0 1.576-.434 2.01-2.01 2.01h-3.477c-1.575 0-2.01-.434-2.01-2.01v-36.725c0-1.5756.435-2.0102 2.01-2.0102h3.477c1.576 0 2.01.4346 2.01 2.0102v12.495c0 .706.218.978.978.978h4.455c.761 0 .978-.272.978-.978v-12.495c0-1.5756.435-2.0102 2.01-2.0102h3.477c1.576 0 2.01.4346 2.01 2.0102v36.725c0 1.576-.434 2.01-2.01 2.01h-3.477c-1.575 0-2.01-.434-2.01-2.01z"/><path d="m166.191 100.498v36.725c0 1.576-.435 2.01-2.011 2.01h-3.477c-1.575 0-2.01-.434-2.01-2.01v-36.725c0-1.5756.435-2.0102 2.01-2.0102h3.477c1.576 0 2.011.4346 2.011 2.0102z"/><path d="m190.181 126.195v1.629c0 8.747-2.499 11.952-10.376 11.952-7.878 0-10.486-3.205-10.486-11.952v-17.928c0-8.746 2.608-11.9517 10.486-11.9517 7.877 0 10.376 3.2057 10.376 11.9517v1.63c0 1.576-.435 2.01-2.01 2.01h-3.477c-1.575 0-2.01-.434-2.01-2.01v-2.933c0-2.174-.924-3.043-2.825-3.043-1.902 0-2.825.869-2.825 3.043v20.535c0 2.173.923 3.043 2.825 3.043 1.901 0 2.825-.87 2.825-3.043v-2.933c0-1.576.435-2.01 2.01-2.01h3.477c1.575 0 2.01.434 2.01 2.01z"/><path d="m199.454 137.068c0 1.576-.434 2.01-2.01 2.01h-3.477c-1.575 0-2.01-.434-2.01-2.01v-13.908c0-2.39.109-3.368.761-5.541l4.943-16.57c.652-2.2819 1.196-2.7165 4.021-2.7165h1.955c2.825 0 3.369.4346 4.021 2.7165l4.943 16.57c.652 2.119.761 3.151.761 5.541v13.908c0 1.576-.435 2.01-2.01 2.01h-3.477c-1.576 0-2.01-.434-2.01-2.01v-7.171c0-.761-.217-.978-.978-.978h-4.455c-.76 0-.978.217-.978.978zm5.596-15.755c.598 0 .924-.217.924-.706 0-.272-.055-.543-.109-.815l-2.499-10.485c-.109-.544-.218-.652-.706-.652-.489 0-.598.108-.707.652l-2.499 10.485c-.054.272-.108.543-.108.815 0 .489.326.706.923.706z"/><path d="m229.189 124.573c0-.761-.218-.978-.978-.978h-.652c-1.576 0-2.01-.435-2.01-2.01v-3.586c0-1.576.434-2.01 2.01-2.01h6.899c1.576 0 2.01.434 2.01 2.01v9.67c0 8.747-2.607 11.952-10.485 11.952-7.877 0-10.485-3.205-10.485-11.952v-17.928c0-8.747 2.608-11.9519 10.485-11.9519 7.878 0 10.377 3.2049 10.377 11.9519v.272c0 1.575-.435 2.01-2.01 2.01h-3.477c-1.576 0-2.01-.435-2.01-2.01v-1.576c0-2.173-.924-3.042-2.825-3.042-1.902 0-2.825.869-2.825 3.042v20.536c0 2.173.977 3.042 2.988 3.042 2.064 0 2.988-.869 2.988-3.042z"/><path d="m260 127.126c0 9.181-2.608 12.495-10.486 12.495-7.877 0-10.485-3.314-10.485-12.495v-16.842c0-9.127 2.608-12.4949 10.485-12.4949 7.878 0 10.486 3.3679 10.486 12.4949zm-13.256 1.847c0 2.173.869 3.042 2.77 3.042 1.902 0 2.771-.869 2.771-3.042v-20.264c0-2.391-.869-3.314-2.771-3.314-1.901 0-2.77.923-2.77 3.314z"/><path d="m76.4713 16.5156c0 .1629.0544.2173.163.2173.1087 0 .2173-.0544.3803-.163 1.0322-.7063 2.1731-1.1409 4.4549-1.1409 5.1611 0 8.2577 2.9337 8.2577 10.6482v4.6178c0 7.8775-2.8793 11.1372-10.4852 11.1372-7.8774 0-10.4852-3.314-10.4852-12.4954v-16.8415c0-9.18132 2.6078-12.4953 10.3766-12.4953 7.4972 0 10.3765 3.25965 10.3765 11.1371v.2173c0 1.5755-.4346 2.0102-2.0101 2.0102h-3.3683c-1.5755 0-2.0101-.4347-2.0101-2.0102v-1.2495c0-1.7928-.9236-2.49905-2.825-2.49905-1.9558 0-2.8251.86924-2.8251 3.04235zm5.5414 14.6684v-5.1068c0-2.1731-.8692-3.0423-2.7707-3.0423-1.9014 0-2.7707.8692-2.7707 3.0423v5.1068c0 2.1731.8693 3.0423 2.7707 3.0423 1.9015 0 2.7707-.8692 2.7707-3.0423z"/><path d="m43.781 29.3368c0 9.1814-2.6078 12.4954-10.4852 12.4954-7.8775 0-10.4853-3.314-10.4853-12.4954v-16.8415c0-9.127 2.6078-12.4953 10.4853-12.4953 7.8774 0 10.4852 3.3683 10.4852 12.4953zm-7.7145-18.6886c0-2.17311-.8693-3.04235-2.7707-3.04235-1.9015 0-2.7707.86924-2.7707 3.04235v20.5358c0 2.1731.8692 3.0423 2.7707 3.0423 1.9014 0 2.7707-.8692 2.7707-3.0423z"/><path d="m9.50731 32.7051c-.43462.7063-.27164 1.2496.65189 1.2496h8.4751c1.5755 0 2.0101.4346 2.0101 2.0101v3.314c0 1.5755-.4346 2.0101-2.0101 2.0101h-16.18956c-1.5755 0-2.01012-.4346-2.01012-2.0101v-3.9116c0-1.4669.108655-2.1731.70626-3.0967l9.50732-14.5597c1.4668-2.2275 2.2817-4.9438 2.2817-6.8996 0-2.39044-.7605-3.20535-2.7707-3.20535-1.90142 0-2.77066.86924-2.77066 3.04235v2.9337c0 1.5755-.43462 2.0101-2.01012 2.0101h-3.3683c-1.5755 0-2.01012-.4346-2.01012-2.0101v-1.6299c0-8.47504 2.60772-11.952 10.1592-11.952 7.6602 0 10.4852 3.53129 10.4852 10.5939 0 3.0423-1.0865 6.3563-3.3683 9.8876z"/><path d="m55.4507 32.7051c-.4347.7063-.2717 1.2496.6519 1.2496h8.4751c1.5755 0 2.0101.4346 2.0101 2.0101v3.314c0 1.5755-.4346 2.0101-2.0101 2.0101h-16.1896c-1.5755 0-2.0101-.4346-2.0101-2.0101v-3.9116c0-1.4669.1086-2.1731.7062-3.0967l9.5073-14.5597c1.4669-2.2275 2.2818-4.9438 2.2818-6.8996 0-2.39044-.7606-3.20535-2.7707-3.20535-1.9015 0-2.7707.86924-2.7707 3.04235v2.9337c0 1.5755-.4346 2.0101-2.0101 2.0101h-3.3683c-1.5755 0-2.0101-.4346-2.0101-2.0101v-1.6299c0-8.47504 2.6077-11.952 10.1592-11.952 7.6602 0 10.4852 3.53129 10.4852 10.5939 0 3.0423-1.0865 6.3563-3.3683 9.8876z"/></g></svg>