<svg fill="none" height="301" viewBox="0 0 500 301" width="500" xmlns="http://www.w3.org/2000/svg"><path d="m0 0h500v300.228h-500z" fill="#000"/><g fill="#fff"><path d="m329.469 205.217c6.501 0 10.306 1.333 12.583 4.015 2.339 2.756 3.409 7.312 3.409 14.648v2.753c0 1.308-.211 1.573-.252 1.614-.04.04-.305.252-1.614.252h-5.87c-1.309 0-1.573-.212-1.614-.252-.039-.04-.251-.304-.251-1.614v-4.957c0-2.009-.421-3.767-1.607-5.004-1.2-1.254-2.885-1.665-4.692-1.665s-3.493.411-4.694 1.665c-1.185 1.237-1.605 2.995-1.605 5.004v34.695c0 2.009.42 3.767 1.605 5.005 1.201 1.253 2.887 1.664 4.694 1.664s3.492-.411 4.692-1.664c1.186-1.238 1.607-2.996 1.607-5.005v-4.956c0-1.31.211-1.575.251-1.615.041-.041.306-.252 1.614-.252h5.87c1.31 0 1.574.212 1.614.252s.252.305.252 1.615v2.753c0 7.336-1.069 11.892-3.409 14.647-2.277 2.683-6.082 4.016-12.583 4.016-6.5 0-10.359-1.333-12.683-4.025-2.38-2.757-3.492-7.313-3.492-14.638v-30.288c0-7.326 1.112-11.881 3.492-14.638 2.324-2.693 6.183-4.025 12.683-4.025z"/><path d="m229.329 204.955c6.501 0 10.306 1.333 12.583 4.016 2.339 2.755 3.409 7.311 3.409 14.647v2.753c0 1.308-.211 1.574-.252 1.615-.04.04-.306.252-1.614.252h-5.87c-1.308 0-1.573-.212-1.614-.252-.04-.04-.251-.305-.251-1.615v-4.956c0-2.01-.422-3.767-1.607-5.005-1.2-1.253-2.885-1.665-4.692-1.665s-3.493.412-4.694 1.665c-1.185 1.238-1.605 2.995-1.605 5.005v34.694c0 2.01.42 3.768 1.605 5.006 1.201 1.253 2.887 1.664 4.694 1.664s3.492-.411 4.692-1.664c1.186-1.238 1.607-2.996 1.607-5.006v-4.956c0-1.308.211-1.574.251-1.615.041-.04.306-.251 1.614-.251h5.87c1.31 0 1.574.212 1.614.251.041.041.252.307.252 1.615v2.754c0 7.335-1.069 11.891-3.409 14.647-2.277 2.682-6.082 4.016-12.583 4.016-6.5 0-10.359-1.333-12.683-4.026-2.381-2.757-3.492-7.312-3.492-14.637v-30.289c0-7.325 1.112-11.88 3.492-14.638 2.324-2.692 6.183-4.025 12.683-4.025z"/><path d="m407.441 204.955c6.501 0 10.306 1.333 12.583 4.016 2.339 2.755 3.408 7.311 3.408 14.647v.459c0 1.307-.211 1.573-.251 1.614-.041.04-.306.252-1.614.252h-5.871c-1.307 0-1.572-.212-1.613-.252-.04-.04-.252-.304-.252-1.614v-2.662c0-2.01-.421-3.767-1.606-5.005-1.2-1.253-2.886-1.665-4.692-1.665-1.807 0-3.493.412-4.694 1.665-1.185 1.238-1.606 2.995-1.606 5.005v34.694c0 2.03.453 3.8 1.705 5.036 1.249 1.232 2.991 1.634 4.869 1.634 1.914 0 3.668-.397 4.912-1.641 1.242-1.244 1.663-3.021 1.663-5.029v-7.434c0-.674-.068-1.665-.792-2.389-.725-.725-1.714-.793-2.388-.793h-1.102c-1.306 0-1.572-.211-1.613-.252-.04-.04-.251-.304-.251-1.615v-6.057c0-1.308.211-1.574.251-1.614s.304-.252 1.613-.252h11.651c1.309 0 1.574.212 1.614.252.04.041.251.308.251 1.614v16.338c0 7.325-1.112 11.88-3.492 14.637-2.324 2.693-6.184 4.026-12.683 4.026-6.5 0-10.359-1.333-12.684-4.026-2.38-2.757-3.492-7.312-3.492-14.637v-30.289c0-7.325 1.112-11.88 3.492-14.638 2.325-2.692 6.184-4.025 12.684-4.025z"/><path clip-rule="evenodd" d="m447.172 204.955c6.48 0 10.33 1.392 12.66 4.217 2.401 2.91 3.515 7.709 3.515 15.363v28.454c0 7.702-1.115 12.499-3.513 15.396-2.328 2.812-6.176 4.185-12.662 4.185-6.487 0-10.335-1.373-12.663-4.185-2.398-2.897-3.513-7.694-3.513-15.396v-28.454c0-7.654 1.114-12.453 3.515-15.363 2.33-2.825 6.18-4.217 12.661-4.217zm0 9.79c-1.832 0-3.527.448-4.703 1.818-1.127 1.312-1.505 3.166-1.505 5.311v34.235c0 1.989.389 3.746 1.545 4.989 1.181 1.27 2.856 1.681 4.663 1.681 1.806 0 3.481-.412 4.661-1.681 1.156-1.243 1.546-2.999 1.546-4.989v-34.235c0-2.145-.378-3.999-1.504-5.311-1.177-1.37-2.872-1.818-4.703-1.818z" fill-rule="evenodd"/><path d="m260.398 206.135c1.308 0 1.573.211 1.613.251.041.041.252.307.252 1.615v21.11c0 .664.08 1.612.768 2.331.703.736 1.668.851 2.412.851h7.522c.743 0 1.708-.115 2.412-.851.688-.719.768-1.667.768-2.331v-21.11c0-1.307.211-1.574.251-1.615.04-.04.305-.251 1.614-.251h5.871c1.31 0 1.574.211 1.614.251.041.041.252.308.252 1.615v62.045c0 1.309-.212 1.575-.252 1.615-.041.041-.306.252-1.614.252h-5.871c-1.307 0-1.573-.211-1.614-.252-.04-.04-.251-.306-.251-1.615v-24.781c0-.674-.067-1.664-.791-2.389-.725-.725-1.715-.793-2.389-.793h-7.522c-.674 0-1.664.068-2.388.793s-.792 1.715-.792 2.389v24.781c0 1.31-.212 1.575-.252 1.615-.041.041-.307.252-1.613.252h-5.871c-1.307 0-1.573-.211-1.614-.252-.039-.04-.251-.305-.251-1.615v-62.045c0-1.308.211-1.574.251-1.615.04-.04.305-.251 1.614-.251z"/><path d="m303.085 206.135c1.308 0 1.573.211 1.613.251.04.041.252.306.252 1.615v62.045c0 1.31-.212 1.575-.252 1.615-.041.041-.308.252-1.613.252h-5.871c-1.308 0-1.573-.212-1.614-.252-.039-.04-.251-.305-.251-1.615v-62.045c0-1.307.211-1.574.251-1.615.04-.04.305-.251 1.614-.251z"/><path d="m373.469 240.598c.092.458.184.917.184 1.376l-.007.15c-.06.671-.534.996-1.362 1.038-.062.003-.125.005-.191.005h-8.072l-.184-.004c-.483-.024-.846-.145-1.077-.372l9.07-9.075z"/><path clip-rule="evenodd" d="m369.708 205.872c2.43 0 3.381.219 3.901.579.466.321.86.951 1.417 2.901l.003.009.003.009 8.347 27.993.004.013c1.046 3.401 1.217 4.987 1.217 8.912v23.496c0 1.308-.212 1.575-.252 1.615s-.304.252-1.614.252h-5.87c-1.31 0-1.575-.212-1.614-.252-.041-.04-.252-.307-.252-1.615v-12.115c0-.675-.067-1.665-.791-2.39-.725-.724-1.715-.792-2.389-.792h-7.522c-.674 0-1.664.068-2.388.792-.724.725-.792 1.715-.792 2.39v12.115c0 1.31-.212 1.575-.252 1.615s-.305.252-1.613.252h-5.87c-1.31 0-1.575-.212-1.614-.252-.041-.04-.252-.305-.252-1.615v-23.496c0-3.918.17-5.421 1.221-8.925l8.347-27.993.002-.009.003-.009c.557-1.95.951-2.58 1.416-2.901.521-.36 1.472-.579 3.902-.579zm-1.651 14.38c-.417 0-1.233.014-1.88.617-.554.518-.715 1.243-.799 1.659l-4.22 17.715-.006.027-.006.027c-.086.432-.213 1.041-.213 1.677 0 .788.287 1.593 1.021 2.136.646.478 1.424.587 2.067.587h8.072c.644 0 1.421-.109 2.067-.587.735-.543 1.022-1.348 1.022-2.136 0-.636-.127-1.245-.213-1.677l-.006-.027-.007-.027-4.219-17.715c-.084-.416-.245-1.141-.8-1.659-.646-.603-1.464-.617-1.88-.617z" fill-rule="evenodd"/><path d="m306.479 208.001c0-.462-.023-.866-.073-1.218.014.098.026.201.036.308-.006-.069-.013-.136-.021-.201-.008-.066-.017-.129-.027-.191s-.021-.123-.033-.181l-.026-.117c-.294-1.259-1.083-1.72-2.774-1.787l-.476-.009h-5.871l-.477.009c-1.251.05-2.009.316-2.437.961.066-.099.138-.189.22-.271l10.811-10.816c.516-.517 1.364-.7 2.694-.7h5.871c2.66 0 3.394.734 3.394 3.396z"/><path d="m234.191 256.109-.005.338c-.091 3.271-1.519 4.674-4.359 4.792-.133.006-.268.009-.407.009l-.296-.003c-1.591-.047-2.593-.564-3.195-1.094l8.262-8.77z"/><path clip-rule="evenodd" d="m264.152 230.398 10.464-10.469v9.182l-.004.215c-.046 1.034-.443 1.437-1.647 1.437h-7.522l-.23-.005c-.47-.023-.839-.165-1.061-.36zm9.018.359h.025c.056-.002.109-.007.16-.012-.059.005-.121.009-.185.012z" fill-rule="evenodd"/><path clip-rule="evenodd" d="m429.714 218.86-4.753 4.757c0-3.457-.232-6.402-.756-8.885-.01-.049-.021-.097-.032-.146-.765-3.521-2.131-6.1-4.28-7.887-.024-.021-.047-.042-.071-.062-.008-.006-.015-.011-.022-.017.026.021.051.043.077.065-.503-.417-1.049-.79-1.64-1.122-.051-.028-.102-.057-.153-.085-1.242-.674-2.679-1.17-4.332-1.506-.1-.02-.2-.04-.302-.06-.832-.156-1.717-.273-2.658-.354-.141-.012-.283-.024-.426-.034-.736-.053-1.505-.084-2.309-.095l-.616-.004c-6.135 0-10.376 1.153-13.167 3.845.008-.007.015-.015.023-.023-.042.04-.083.08-.124.12l10.754-10.76c2.787-2.803 7.073-3.999 13.325-3.999l.58.004c.574.007 1.131.024 1.671.053.36.019.712.044 1.056.072.345.029.683.063 1.013.102s.652.083.968.132c1.104.173 2.12.408 3.052.711.4.13.784.273 1.154.428.123.052.244.105.364.159.24.11.473.225.7.346.34.181.666.374.978.582.519.346 1 .73 1.443 1.152.089.084.176.17.262.258 2.104 2.149 3.324 5.243 3.89 9.466l9.455-9.459c2.79-2.801 7.026-4.006 13.145-4.006 7.183 0 11.771 1.66 14.472 5.616l-10.886 10.708c-.011-.017-.024-.033-.036-.05.01.014.019.028.028.042-2.632-3.758-7.013-5.401-13.773-5.494l-.616-.005c-11.522 0-16.367 4.27-17.458 15.435zm-28.02-14.998c-.066.011-.131.024-.196.036.099-.018.198-.036.299-.054-.034.006-.069.012-.103.018zm1.437-.208c-.05.006-.101.013-.151.019.097-.012.194-.024.291-.035-.047.006-.093.011-.14.016zm4.914-.226c-.027 0-.054 0-.081 0l-.523-.003c.203 0 .405.001.604.003z" fill-rule="evenodd"/><path d="m380.518 193.526c4.77 0 5.688.734 6.788 4.589l-10.81 10.817c-1.1-3.855-2.018-4.589-6.788-4.589h-3.302c-.041 0-.081 0-.121 0l-.729.009c-.953.022-1.729.088-2.373.223l-.016.003c-.014.003-.027.006-.041.009-.81.177-1.406.468-1.88.926.009-.009.018-.019.027-.028-.007.008-.019.021-.027.028l10.722-10.73c.961-1.001 2.434-1.257 5.248-1.257z"/><path clip-rule="evenodd" d="m228.473 203.434c-5.561.102-9.491 1.224-12.148 3.681l-.019.017c-.09.083.087-.087 0 0l10.509-10.525c2.787-2.803 7.073-3.999 13.324-3.999 6.852 0 11.294 1.437 13.991 4.851l-10.767 10.874c.006.008.012.016.018.024-2.555-3.298-6.705-4.78-13.032-4.92-.063-.002-.126-.003-.189-.004-.071-.001-.143-.003-.214-.004l-.566-.004h-.052l-.578.003c-.092.002-.185.004-.277.006zm-6.661.815c-.14.037-.279.076-.416.116.143-.042.288-.082.434-.121zm6.313-.809c.141-.003.282-.006.425-.008-.025.001-.051.001-.077.002-.117.002-.233.003-.348.006z" fill-rule="evenodd"/><path d="m315.893 207.947c-.036.039-.07.079-.105.118.03-.033.058-.068.089-.1z"/><path clip-rule="evenodd" d="m271.208 193.788c2.66 0 3.394.734 3.394 3.396l-10.81 10.816c0-2.495-.645-3.296-2.918-3.386l-.476-.009h-5.871l-.477.009c-.28.011-.536.033-.769.068.108-.016.221-.03.339-.041-.12.011-.23.024-.339.041-.002 0-.009.001-.011.001-.108.017-.211.036-.309.058-.014.003-.028.006-.042.009-.042.01-.083.021-.123.032-.007.002-.014.004-.021.006-.045.012-.089.025-.131.039-.006.002-.011.004-.017.006-.039.013-.077.027-.114.041-.229.09-.425.203-.59.346.003-.003.007-.006.01-.009.088-.074.184-.141.288-.2-.146.083-.276.18-.389.293l10.811-10.816c.516-.517 1.364-.7 2.694-.7z" fill-rule="evenodd"/><path d="m294.691 193.788c2.66 0 3.394.734 3.394 3.396l-10.81 10.815c-.001-2.66-.735-3.394-3.394-3.394h-5.871l-.476.009c-.382.015-.718.05-1.013.11-.021.005-.042.009-.063.014-.048.01-.094.022-.14.034-.017.005-.035.008-.052.013-.056.016-.111.033-.164.051-.018.007-.037.013-.055.02-.158.057-.3.125-.428.206l-.065.043c-.041.03.031-.043-.041.03l10.613-10.647c.516-.517 1.365-.7 2.695-.7z"/><path clip-rule="evenodd" d="m328.613 203.695c-2.644.049-4.919.328-6.864.872-.071.019-.141.038-.211.059-.021.006-.042.014-.063.02-.117.034-.232.069-.346.105l-.038.013c.063-.02.126-.039.19-.058-1.94.602-3.537 1.483-4.83 2.683-.09.084-.184.173-.271.26l10.775-10.781c2.787-2.802 7.073-3.998 13.324-3.998 6.674 0 11.062 1.363 13.777 4.589l-11.383 10.189c.025.025.048.051.073.076-1.345-1.388-3.054-2.385-5.187-3.041-.073-.022-.145-.045-.219-.066-2.027-.594-4.428-.889-7.254-.926l-.617-.004-.579.003c-.092.001-.185.003-.277.005zm-.348.007c.141-.004.282-.006.425-.008-.025 0-.051.001-.077.001-.116.002-.233.004-.348.007z" fill-rule="evenodd"/><path d="m306.394 206.699c.003.016.004.033.006.05-.006-.044-.013-.087-.021-.129.005.026.011.052.015.079z"/><path d="m251.909 205.234c-.077.07-.077.07-.077.07.024-.024.051-.047.077-.07z"/><path d="m275.513 205.135c.004-.003.008-.006.012-.009l.069-.046c-.028.018-.055.036-.081.055z"/><path d="m252.81 204.778c.022-.006.043-.012.065-.017.011-.003.022-.006.033-.008-.033.008-.065.016-.098.025z"/><path d="m253.134 204.706c.03-.005.061-.011.092-.016.013-.002.03-.005.044-.007-.045.007-.093.016-.136.023z"/><path d="m400.572 204.089c.072-.017.144-.034.217-.05.01-.002.019-.004.029-.006-.083.018-.165.037-.246.056z"/><path d="m192.4 122.35c6.502 0 10.306 1.333 12.584 4.015 2.339 2.756 3.408 7.312 3.408 14.648v.458c0 1.308-.211 1.574-.251 1.614-.041.041-.308.253-1.614.253h-5.871c-1.308 0-1.573-.212-1.613-.253-.04-.04-.252-.304-.252-1.614v-2.662c0-2.009-.421-3.767-1.606-5.004-1.201-1.254-2.886-1.665-4.693-1.665s-3.493.411-4.693 1.665c-1.185 1.237-1.606 2.995-1.606 5.004v34.695c0 2.029.453 3.8 1.705 5.036 1.249 1.232 2.99 1.633 4.869 1.633 1.914 0 3.667-.396 4.911-1.641 1.243-1.244 1.663-3.02 1.664-5.028v-7.435c0-.674-.068-1.664-.793-2.389-.724-.725-1.713-.792-2.388-.792h-1.101c-1.307-.001-1.572-.212-1.613-.252-.04-.04-.251-.305-.251-1.615v-6.058c0-1.307.21-1.573.251-1.614.04-.04.304-.252 1.613-.252h11.65c1.31 0 1.574.212 1.614.252.041.041.252.307.252 1.614v16.338c0 7.325-1.112 11.881-3.492 14.638-2.325 2.692-6.184 4.025-12.684 4.025-6.499 0-10.358-1.333-12.683-4.025-2.38-2.757-3.492-7.313-3.492-14.638v-30.288c0-7.325 1.112-11.881 3.492-14.638 2.325-2.693 6.184-4.025 12.683-4.025z"/><path d="m236.81 169.416v4.088l-.004.337c-.089 3.424-1.564 4.802-4.674 4.802l-.296-.003c-1.304-.039-2.442-.474-3.153-1.095-.048-.042.046.046 0 0z"/><path clip-rule="evenodd" d="m232.132 122.35c6.48 0 10.331 1.392 12.661 4.216 2.4 2.91 3.514 7.71 3.514 15.364v28.453c0 7.703-1.114 12.499-3.513 15.397-2.327 2.812-6.176 4.184-12.662 4.184s-10.335-1.373-12.662-4.184c-2.398-2.898-3.513-7.694-3.513-15.397v-28.453c0-7.655 1.114-12.454 3.514-15.364 2.33-2.824 6.181-4.216 12.661-4.216zm0 9.79c-1.832 0-3.527.448-4.703 1.818-1.126 1.312-1.504 3.166-1.504 5.311v34.235c0 1.989.389 3.746 1.544 4.989 1.181 1.269 2.857 1.68 4.663 1.68s3.481-.411 4.662-1.68c1.156-1.243 1.545-3 1.545-4.989v-34.235c0-2.145-.378-3.999-1.504-5.311-1.176-1.37-2.871-1.818-4.703-1.818z" fill-rule="evenodd"/><path d="m271.773 122.35c6.501 0 10.306 1.333 12.584 4.015 2.339 2.756 3.408 7.312 3.408 14.648v2.753c0 1.307-.211 1.573-.251 1.614-.041.04-.307.252-1.614.252h-5.871c-1.308 0-1.573-.212-1.613-.252s-.252-.304-.252-1.614v-4.957c0-2.009-.421-3.767-1.606-5.004-1.201-1.254-2.886-1.665-4.693-1.665s-3.493.411-4.693 1.665c-1.185 1.237-1.606 2.995-1.606 5.004v34.695c0 2.009.421 3.767 1.606 5.005 1.2 1.253 2.886 1.664 4.693 1.664s3.492-.411 4.693-1.664c1.185-1.238 1.606-2.996 1.606-5.005v-4.956c0-1.309.211-1.574.252-1.615.04-.04.306-.252 1.613-.252h5.871c1.309 0 1.574.212 1.614.252.04.041.251.307.251 1.615v2.753c0 7.336-1.069 11.892-3.408 14.648-2.278 2.682-6.083 4.015-12.584 4.015-6.5 0-10.358-1.333-12.683-4.025-2.38-2.757-3.492-7.313-3.492-14.638v-30.288c0-7.326 1.112-11.881 3.492-14.638 2.324-2.693 6.183-4.025 12.683-4.025z"/><path d="m316.168 169.416v4.088l-.004.337c-.089 3.424-1.564 4.802-4.674 4.802l-.296-.003c-1.292-.039-2.443-.485-3.153-1.095-.055-.047.052.052 0 0z"/><path clip-rule="evenodd" d="m311.49 122.35c6.48 0 10.331 1.392 12.661 4.216 2.4 2.91 3.514 7.71 3.514 15.364v28.453c0 7.703-1.115 12.499-3.513 15.397-2.327 2.812-6.176 4.184-12.662 4.184s-10.335-1.373-12.662-4.184c-2.398-2.898-3.513-7.694-3.513-15.397v-28.453c0-7.655 1.114-12.454 3.514-15.364 2.33-2.824 6.181-4.216 12.661-4.216zm0 9.79c-1.832 0-3.527.448-4.703 1.818-1.126 1.312-1.504 3.166-1.504 5.311v34.235c0 1.989.389 3.746 1.544 4.989 1.181 1.269 2.857 1.68 4.663 1.68s3.481-.411 4.662-1.68c1.156-1.243 1.545-3 1.545-4.989v-34.235c0-2.145-.378-3.999-1.504-5.311-1.176-1.37-2.871-1.818-4.703-1.818z" fill-rule="evenodd"/><path d="m446.666 122.35c6.5 0 10.359 1.332 12.683 4.025 2.38 2.757 3.493 7.312 3.493 14.638v1.835c0 1.31-.212 1.575-.252 1.615-.041.041-.308.251-1.614.251h-6.238c-1.306 0-1.572-.211-1.613-.251-.04-.04-.252-.305-.252-1.615v-4.039c0-1.989-.389-3.746-1.545-4.989-1.181-1.269-2.856-1.68-4.662-1.68-1.783 0-3.435.377-4.616 1.541-1.186 1.17-1.591 2.828-1.591 4.67v1.56c0 1.435.146 2.685.748 3.934.585 1.215 1.535 2.29 2.859 3.52l.007.006.007.006 11.741 10.647.007.007c3.018 2.704 4.728 4.75 5.712 6.769.969 1.991 1.302 4.093 1.302 7.052v1.652c0 5.639-1.084 9.67-3.469 12.304-2.356 2.602-6.275 4.156-12.707 4.156-6.5 0-10.359-1.333-12.683-4.025-2.38-2.757-3.492-7.313-3.492-14.638v-1.836c0-1.306.21-1.573.251-1.614.04-.04.305-.252 1.614-.252h6.237c1.31 0 1.574.212 1.614.252.041.04.252.305.252 1.614v4.039c0 1.989.389 3.746 1.544 4.989 1.181 1.269 2.857 1.68 4.663 1.68 1.783 0 3.434-.377 4.616-1.541 1.186-1.169 1.591-2.827 1.591-4.669v-1.744c0-1.411-.152-2.669-.889-4.008-.608-1.106-1.569-2.181-2.949-3.458l-.618-.56-11.008-9.821-.006-.006-.551-.491c-2.678-2.418-4.209-4.268-5.106-6.101-.943-1.925-1.255-3.975-1.255-6.945v-2.02c0-5.639 1.083-9.67 3.468-12.304 2.356-2.602 6.275-4.155 12.707-4.155z"/><path d="m399.157 123.267c1.307 0 1.573.211 1.614.252.039.04.251.304.251 1.614v48.37c0 2.008.421 3.785 1.663 5.028 1.244 1.245 2.998 1.642 4.912 1.642 1.878 0 3.62-.402 4.868-1.634 1.253-1.236 1.705-3.006 1.705-5.036v-48.37c.001-1.309.212-1.574.252-1.614s.305-.252 1.614-.252h5.871c1.308 0 1.573.211 1.614.252.04.04.251.306.251 1.614v46.167c0 7.326-1.112 11.881-3.492 14.638-2.324 2.692-6.183 4.025-12.683 4.025s-10.359-1.333-12.684-4.025c-2.38-2.757-3.492-7.312-3.492-14.638v-46.167c0-1.31.212-1.574.252-1.614s.305-.252 1.614-.252z"/><path clip-rule="evenodd" d="m42.4725 123.267c8.7102 0 13.4101 1.608 16.047 4.638 2.6885 3.088 3.6139 8.058 3.6139 15.86v24.782c0 7.802-.9255 12.772-3.6139 15.861-2.6369 3.029-7.3368 4.637-16.047 4.637h-11.1909c-1.3088 0-1.5738-.211-1.614-.251-.0399-.04-.2516-.305-.2516-1.615v-62.046c0-1.31.2117-1.574.2516-1.614.0408-.041.3073-.252 1.614-.252zm-.2754 9.79c-.6741 0-1.6638.068-2.3881.793-.7243.724-.7921 1.715-.7921 2.389v39.834c0 .664.0803 1.612.7682 2.331.7032.736 1.6684.851 2.412.851h1.0092c2.7753 0 5.1468-.644 6.7746-2.442 1.5941-1.76 2.1843-4.316 2.1843-7.44v-26.434c0-3.124-.5901-5.68-2.1843-7.44-1.6278-1.798-3.9993-2.442-6.7746-2.442z" fill-rule="evenodd"/><path d="m85.1581 123.267c1.3093 0 1.574.212 1.6139.252.0402.04.2516.305.2516 1.614v45.249c0 7.325-1.1119 11.885-3.4735 14.643-2.3032 2.69-6.116 4.02-12.5183 4.02h-4.3111c-1.3087 0-1.5737-.211-1.6139-.251-.04-.04-.2516-.305-.2516-1.615v-6.058c0-1.309.2115-1.574.2516-1.614.0408-.041.3073-.252 1.6139-.252h4.4948c1.806 0 3.4812-.411 4.6619-1.68 1.1557-1.243 1.5453-3 1.5453-4.989v-36.806c0-.674-.0677-1.665-.792-2.39-.7243-.724-1.7141-.792-2.3881-.792h-4.4948c-1.308 0-1.5735-.211-1.6139-.251-.0399-.04-.2516-.305-.2516-1.615v-5.599c0-1.31.2116-1.574.2516-1.614.0408-.041.3073-.252 1.6139-.252z"/><path d="m115.29 157.992c.091.459.183.918.183 1.377l-.007.149c-.064.721-.606 1.044-1.552 1.044h-8.072l-.185-.005c-.483-.023-.845-.144-1.077-.372l9.07-9.074z"/><path clip-rule="evenodd" d="m111.529 123.267c2.43 0 3.38.218 3.901.578.466.322.86.951 1.417 2.902l.002.008.003.009 8.347 27.994.004.013c1.046 3.4 1.217 4.987 1.217 8.911v23.497c0 1.307-.211 1.574-.252 1.615-.039.04-.304.251-1.614.251h-5.87c-1.31 0-1.574-.211-1.614-.251-.04-.041-.252-.306-.252-1.615v-12.116c0-.674-.067-1.664-.791-2.389s-1.715-.793-2.389-.793h-7.522c-.674 0-1.663.068-2.388.793-.724.725-.792 1.715-.792 2.389v12.116c0 1.308-.211 1.574-.251 1.615-.041.04-.306.251-1.614.251h-5.8701c-1.3097 0-1.5741-.211-1.614-.251s-.2515-.305-.2515-1.615v-23.497c0-3.917.17-5.42 1.2205-8.924l8.3471-27.994.003-.009.003-.008c.557-1.95.95-2.58 1.416-2.902.52-.36 1.472-.578 3.902-.578zm-1.652 14.379c-.416 0-1.233.014-1.879.618-.555.518-.716 1.242-.8 1.659l-4.22 17.714-.006.027-.006.028c-.086.431-.213 1.04-.213 1.677 0 .787.287 1.593 1.022 2.136.646.478 1.423.586 2.067.586h8.072c.643 0 1.421-.108 2.067-.586.734-.543 1.021-1.349 1.021-2.136 0-.637-.127-1.246-.213-1.677l-.006-.028-.006-.027-4.22-17.714c-.084-.417-.245-1.141-.799-1.659-.647-.604-1.464-.618-1.881-.618z" fill-rule="evenodd"/><path d="m138.644 123.267c1.668 0 2.456.152 3.05.518.609.376 1.254 1.128 2.194 2.963l.004.009 9.56 18.394c.208.374.488.873.897 1.228.554.479 1.154.568 1.632.568.512 0 1.263-.134 1.786-.815.44-.572.477-1.247.477-1.633v-19.366c0-1.309.211-1.574.251-1.614.041-.041.308-.252 1.614-.252h5.595c1.31 0 1.574.212 1.614.252.041.04.252.305.252 1.614v62.046c0 1.307-.211 1.574-.252 1.615-.04.04-.304.251-1.614.251h-5.595c-1.308 0-1.573-.211-1.614-.251-.04-.041-.251-.306-.251-1.615v-12.574c0-2.229-.165-3.848-.571-5.327-.403-1.471-1.024-2.724-1.809-4.202l-.004-.007-8.531-15.879-.005-.009-.005-.009-.171-.3c-.185-.315-.419-.662-.726-.928-.553-.48-1.154-.569-1.632-.569-.512 0-1.261.135-1.785.816-.44.572-.477 1.246-.477 1.632v37.356c0 1.306-.211 1.573-.252 1.615-.04.04-.305.251-1.614.251h-5.595c-1.309 0-1.574-.211-1.614-.251s-.252-.305-.252-1.615v-62.046c0-1.31.212-1.574.252-1.614.041-.041.307-.252 1.614-.252z"/><path d="m339.743 123.267c1.669 0 2.456.152 3.05.518.61.376 1.254 1.128 2.194 2.963l.004.009 9.56 18.394c.208.374.488.873.897 1.228.554.479 1.154.568 1.632.568.512 0 1.263-.134 1.786-.815.44-.572.477-1.247.477-1.633v-19.366c0-1.309.211-1.574.251-1.614.041-.041.307-.252 1.614-.252h5.596c1.309 0 1.574.212 1.614.252.039.04.251.305.251 1.614v62.046c0 1.308-.211 1.574-.251 1.615-.04.04-.305.251-1.614.251h-5.596c-1.309 0-1.574-.211-1.614-.251-.04-.041-.251-.306-.251-1.615v-12.574c0-2.229-.165-3.848-.57-5.327-.404-1.471-1.025-2.724-1.81-4.202l-.004-.007-8.531-15.879-.005-.009-.005-.009-.171-.3c-.185-.315-.419-.662-.726-.928-.553-.48-1.154-.569-1.632-.569-.512 0-1.261.135-1.785.816-.44.572-.477 1.246-.477 1.632v37.356c0 1.307-.211 1.574-.252 1.615-.04.04-.305.251-1.614.251h-5.595c-1.309 0-1.574-.211-1.614-.251s-.252-.305-.252-1.615v-62.046c0-1.31.212-1.574.252-1.614.041-.041.307-.252 1.614-.252z"/><path d="m412.642 173.503c0 3.671-1.651 5.14-5.045 5.14l-.321-.004c-1.505-.041-2.736-.487-3.508-1.191-.038-.034.036.036 0 0l8.874-8.878z"/><path d="m66.717 177.725-.4823.009c-.0736.003-.1454.009-.2157.014-.0651.004-.1289.007-.1911.013-.2308.02-.4428.051-.636.092.0153-.003.0307-.006.0462-.01l-.0246.005c-.0176.004-.035.008-.0522.012-.422.094-1.4566.898-1.1564.587-.0132.014-.0094.01 0 0l10.8005-10.807c.2643-.279.6198-.464 1.0877-.579l.0008 5.525-.0045.337c-.0863 3.314-1.4705 4.711-4.3783 4.798l-.2956.004z"/><path d="m433.269 125.015 10.707-10.714c2.782-2.818 7.117-4.298 13.501-4.298 7.799 0 12.539 1.861 15.126 6.38l-11.107 10.326c-.006-.01-.013-.019-.019-.028.01.015.019.031.028.046-2.571-4.06-7.062-5.81-14.222-5.903l-.617-.004c-7.068 0-11.064 2.185-13.397 4.195z"/><path clip-rule="evenodd" d="m322.301 110.003c7.38 0 12.021 1.752 14.69 5.945l-11.104 10.378c-.012-.017-.025-.034-.038-.052.006.008.012.017.017.025-2.633-3.744-7.011-5.382-13.759-5.475l-.617-.004c-6.101 0-10.289 1.157-13.08 3.941-.013.014.014-.013 0 0-.012.013.013-.012 0 0l10.746-10.752c2.791-2.802 7.027-4.006 13.145-4.006zm2.798 15.319c-.008-.009-.015-.018-.023-.027l-.011-.011c.012.012.023.026.034.038z" fill-rule="evenodd"/><path d="m122.339 110.921c4.77 0 5.688.734 6.788 4.589l-10.81 10.816c-1.101-3.854-2.019-4.589-6.788-4.589h-3.302l-.095.001c.031 0 .063-.001.095-.001l-.497.003c-.116.002-.228.003-.339.005l-.014.001c-2.193.052-3.45.333-4.308 1.159.009-.008.016-.017.025-.025-.008.007-.017.017-.025.025l10.719-10.727c.961-1.001 2.434-1.257 5.248-1.257z"/><path clip-rule="evenodd" d="m270.744 120.831c-5.48.123-9.359 1.251-11.989 3.691-.09.084-.182.173-.27.26l10.774-10.781c2.787-2.802 7.073-3.998 13.325-3.998 7.45 0 12.05 1.699 14.657 5.79l-11.085 10.406c-.003-.005-.007-.01-.01-.015-2.575-3.674-6.926-5.271-13.756-5.36l-.617-.004-.578.003c-.152.002-.302.005-.451.008zm-6.487.812c-.136.036-.271.074-.403.113.138-.041.279-.08.421-.117z" fill-rule="evenodd"/><path clip-rule="evenodd" d="m132.38 122.428 10.803-10.807c.516-.517 1.364-.7 2.694-.7h3.577c3.394 0 4.679.55 6.606 4.313l-10.811 10.817c-.238-.463-.465-.878-.688-1.248-.021-.035-.041-.068-.062-.102-.254-.415-.503-.774-.754-1.083-.181-.223-.364-.421-.55-.596.007.006.014.013.021.019-.009-.008-.012-.011-.021-.019-.155-.145-.249-.227-.456-.376-.286-.205-.585-.366-.906-.491.15.058-.305-.111-.46-.153-.105-.029-.211-.056-.321-.079-.172-.036-.352-.065-.539-.09-.173-.022-.506-.054-.81-.07-.352-.019-.705-.022-1.058-.026h-3.578l-.477.009c-1.141.046-3.355 1.811-2.21.682z" fill-rule="evenodd"/><path d="m333.478 122.43 10.803-10.809c.516-.517 1.365-.7 2.695-.7h3.577c3.395 0 4.679.55 6.606 4.313l-10.811 10.817c-1.251-2.443-2.231-3.531-3.693-3.995-.037-.012-.074-.023-.112-.034-.623-.181-1.334-.256-2.188-.277l-.612-.008h-3.577l-.477.009c-1.055.042-1.759.237-2.211.684z"/><path d="m242.942 110.003c6.606 0 11.017 1.403 13.784 4.705l-11.084 10.502c-.058-.064-.117-.126-.176-.188.013.014.025.028.038.041-.402-.428-.834-.821-1.299-1.179-.024-.019-.048-.038-.072-.056-.117-.089-.236-.176-.357-.26-.045-.032-.091-.061-.137-.092-.088-.059-.177-.118-.267-.176-.041-.026-.084-.052-.126-.078-2.575-1.591-6.012-2.336-10.497-2.398l-.617-.004c-6.101 0-10.328 1.198-13.119 3.983.013-.014.026-.028.039-.042-.012.013-.026.029-.039.042l10.785-10.794c2.79-2.802 7.026-4.006 13.144-4.006z"/><path d="m203.211 110.003c6.852 0 11.294 1.437 13.991 4.85l-11.311 10.229c-2.642-2.946-6.719-4.178-12.874-4.258l-.617-.004c-6.047 0-10.255 1.12-13.046 3.73-.082.076.079-.078 0 0l10.533-10.549c2.787-2.802 7.073-3.998 13.324-3.998z"/><path d="m67.0596 122.43 10.8036-10.809c.5159-.517 1.3648-.7 2.6949-.7h15.4102c2.6601 0 3.3944.734 3.3944 3.395l-10.8102 10.817c-.0001-2.661-.7346-3.396-3.3944-3.396h-15.4103l-.477.009c-1.0548.042-1.7594.237-2.2112.684z"/><path clip-rule="evenodd" d="m157.421 122.43 10.804-10.809c.516-.517 1.365-.7 2.695-.7h5.595c2.66 0 3.394.734 3.394 3.395l-10.81 10.817c0-2.661-.735-3.396-3.395-3.396h-5.595l-.477.009c-1.054.042-1.759.237-2.211.684zm2.027-.675c-.052.003-.102.008-.152.012.09-.007.184-.014.28-.018-.043.002-.086.004-.128.006z" fill-rule="evenodd"/><path clip-rule="evenodd" d="m358.52 122.43 10.805-10.809c.515-.517 1.364-.7 2.694-.7h5.596c2.66 0 3.393.734 3.393 3.395l-10.81 10.817c0-.332-.011-.635-.037-.909-.019-.206-.045-.397-.081-.573-.012-.059-.024-.116-.038-.171-.331-1.33-1.244-1.743-3.238-1.743h-5.596l-.477.009c-1.054.042-1.759.237-2.211.684zm2.027-.675c-.052.003-.102.008-.152.012.09-.007.184-.014.28-.018-.043.002-.086.004-.128.006z" fill-rule="evenodd"/><path d="m432.718 110.921c2.659 0 3.393.734 3.393 3.395l-10.81 10.817c0-2.661-.734-3.396-3.394-3.396h-5.871l-.476.009c-1.005.04-1.692.22-2.145.623-.018.016-.036.031-.053.048l10.79-10.796c.516-.517 1.364-.7 2.694-.7z"/><path d="m390.599 122.43 10.803-10.809c.516-.517 1.365-.7 2.695-.7h5.871c2.66 0 3.394.734 3.394 3.395l-10.811 10.817c0-2.495-.645-3.297-2.917-3.387l-.477-.009h-5.87l-.477.009c-1.055.042-1.76.237-2.211.684z"/><path d="m53.2828 110.921c7.3436 0 12.2475 1.116 15.4692 3.55l-11.1596 10.563c-.0091-.006-.0185-.012-.0276-.019-.4805-.334-.9961-.641-1.5491-.923-.0799-.04-.1618-.08-.2433-.12-.0667-.032-.1338-.065-.2016-.096-.0656-.031-.1319-.061-.1986-.091-.0435-.019-.0866-.04-.1306-.06l-.0508-.021c.0384.017.0762.034.1143.051-.6067-.269-1.2544-.51-1.9462-.724-.0619-.019-.124-.039-.1866-.058-1.3275-.396-2.8132-.694-4.4746-.897-.0879-.011-.1761-.023-.265-.033-.8306-.096-1.7044-.169-2.6233-.219-.063-.004-.1262-.007-.1896-.011-.7474-.038-1.5244-.062-2.3321-.071l-.8152-.005h-11.1909l-.4771.009c-.7701.031-2.7587 1.223-2.2096.682l10.802-10.807c.516-.517 1.3648-.7 2.6949-.7z"/><path d="m66.8797 122.639c-.0097.014-.0182.028-.0276.042.0078-.012.0144-.024.0224-.035z"/><path d="m157.241 122.639c-.009.014-.018.028-.027.042.007-.012.014-.024.022-.035z"/><path d="m333.298 122.639c-.01.014-.018.028-.028.042.008-.012.015-.024.023-.035z"/><path d="m390.419 122.639c-.01.014-.019.028-.028.042.008-.012.014-.024.022-.035z"/><path d="m279.461 121.698c-.061-.017-.121-.036-.182-.052l-.03-.007c.071.019.142.039.212.059z"/><path clip-rule="evenodd" d="m81.792 96.0342.0981.0013.1983.0024c-.0669 0-.133-.0009-.1983-.0024-.0329-.0008-.0656-.0002-.0981-.0013z" fill-rule="evenodd"/><path clip-rule="evenodd" d="m82.0884 39.7441c6.4803 0 10.3308 1.3919 12.6609 4.2165 2.4005 2.9103 3.5145 7.7094 3.5145 15.3638v28.4531c0 7.7029-1.1149 12.4995-3.5131 15.3965-2.3277 2.812-6.1759 4.185-12.6623 4.185-6.4863 0-10.3346-1.373-12.6623-4.185-2.3982-2.897-3.5131-7.6936-3.5131-15.3965v-28.4531c0-7.6543 1.1141-12.4534 3.5146-15.3638 2.33-2.8245 6.1807-4.2164 12.6608-4.2165zm0 9.7902c-1.8063 0-3.4819.411-4.6627 1.6806-1.1556 1.2428-1.5445 2.9997-1.5445 4.9888v34.6946c0 1.9891.3888 3.7459 1.5445 4.9888 1.1808 1.2696 2.8565 1.6805 4.6627 1.6806 1.8062 0 3.4812-.4112 4.662-1.6806 1.1558-1.2429 1.5452-2.9996 1.5453-4.9888v-34.6946c-.0001-1.9892-.3895-3.746-1.5453-4.9888-1.1808-1.2695-2.8558-1.6806-4.662-1.6806z" fill-rule="evenodd"/><path clip-rule="evenodd" d="m159.486 39.7441c6.15 0 10.008 1.3431 12.383 3.9237 2.404 2.6121 3.609 6.8324 3.609 13.362v.3675c0 1.3087-.212 1.5738-.252 1.6141-.04.0404-.306.2517-1.613.2517h-5.688c-1.307 0-1.572-.2112-1.613-.2517-.04-.0399-.252-.3041-.252-1.6141v-2.1109c0-1.7627-.459-3.3342-1.716-4.4099-1.203-1.0289-2.842-1.3422-4.583-1.3422-1.841 0-3.539.4056-4.735 1.6724-1.175 1.2451-1.564 3.0085-1.564 4.997v9.9134c0 .2401.027.7701.404 1.2421.45.5629 1.065.6543 1.401.6543.694-.0001 1.228-.358 1.49-.5325l.007-.0045.008-.0052c1.445-.9896 3.057-1.6605 6.659-1.6605 4.063 0 7.048 1.1439 9.066 3.5584 2.065 2.4723 3.348 6.5461 3.348 12.9012v7.8017c0 6.5304-1.206 10.7479-3.628 13.3579-2.396 2.583-6.3 3.929-12.547 3.929-6.487 0-10.335-1.373-12.663-4.185-2.398-2.897-3.513-7.6936-3.513-15.3965v-28.4531c0-7.7017 1.115-12.5013 3.494-15.4004 2.307-2.8103 6.109-4.1799 12.498-4.1799zm.184 35.8568c-1.807 0-3.482.411-4.663 1.6807-1.156 1.2428-1.545 2.9996-1.545 4.9888v8.6279c0 1.9891.389 3.7459 1.545 4.9888 1.181 1.2695 2.856 1.6806 4.663 1.6806 1.806 0 3.481-.4112 4.662-1.6806 1.155-1.2429 1.545-2.9996 1.545-4.9888v-8.6279c0-1.9892-.39-3.746-1.545-4.9888-1.181-1.2695-2.856-1.6806-4.662-1.6807z" fill-rule="evenodd"/><path d="m43.0227 39.7441c6.2654.0001 10.1911 1.4476 12.5892 3.9939 2.416 2.5655 3.5855 6.565 3.5855 12.3746-.0002 4.7683-1.702 10.0822-5.4421 15.8739l-.0067.0097-13.117 20.6514-.0059.0097-.006.009c-.437.7105-.9 1.8356-.3994 2.9377.5534 1.2176 1.8308 1.5051 2.8024 1.5051h14.3099c1.3079 0 1.5728.2114 1.6132.2517.0404.0405.2516.3065.2516 1.6149v5.5983c-.0001 1.31-.2117 1.575-.2516 1.615-.0413.041-.3081.252-1.6132.252h-27.3358c-1.3069 0-1.5732-.212-1.6139-.252-.0399-.04-.2516-.305-.2516-1.615v-6.6082c0-1.2219.0475-2.004.1836-2.6397.1274-.5949.3435-1.1134.763-1.762l16.0492-24.5922c2.6144-3.9745 4.102-8.8489 4.1021-12.4926 0-2.0984-.3147-3.9427-1.446-5.2316-1.1824-1.3469-2.9107-1.7134-4.7605-1.7134-1.8063 0-3.4819.411-4.6627 1.6806-1.1557 1.2428-1.5445 2.9996-1.5445 4.9888v4.9567c-.0001 1.3065-.2109 1.5731-.2516 1.6141-.0406.0404-.3063.2525-1.614.2525h-5.6869c-1.3076 0-1.5734-.2121-1.614-.2525-.0404-.0406-.2515-.3063-.2515-1.6141v-2.7533c0-7.0806 1.1063-11.6632 3.4444-14.4906 2.2734-2.749 6.0059-4.1724 12.1808-4.1724z"/><path d="m120.597 39.7441c6.265.0001 10.191 1.4477 12.589 3.9939 2.416 2.5655 3.586 6.5651 3.586 12.3746 0 4.7683-1.702 10.0822-5.442 15.8739l-.007.0097-13.117 20.6514-.006.0097-.006.009c-.437.7105-.9 1.8355-.399 2.9377.553 1.2175 1.831 1.5051 2.802 1.5051h14.31c1.308 0 1.573.2114 1.613.2517.041.0412.252.3085.252 1.6149v5.5983c0 1.31-.212 1.575-.252 1.615s-.306.252-1.613.252h-27.336c-1.305 0-1.572-.211-1.614-.252-.04-.04-.251-.305-.251-1.615v-6.6082c0-1.222.047-2.004.183-2.6397.128-.5949.344-1.1133.763-1.762l16.05-24.5922c2.614-3.9745 4.102-8.8489 4.102-12.4926 0-2.0983-.315-3.9427-1.446-5.2316-1.183-1.3468-2.911-1.7134-4.761-1.7134-1.806 0-3.482.411-4.662 1.6806-1.156 1.2428-1.545 2.9995-1.545 4.9888v4.9567c0 1.3065-.211 1.5731-.252 1.6141-.039.0399-.304.2524-1.614.2525h-5.686c-1.306 0-1.573-.2116-1.614-.2525-.041-.0406-.252-.3063-.252-1.6141v-2.7533c0-7.0808 1.106-11.6632 3.444-14.4906 2.274-2.749 6.006-4.1724 12.181-4.1724z"/><path d="m131.407 27.3972c7.804.0001 12.636 2.1719 15.241 6.5156l-11.131 10.3107c.011.016.021.0325.031.0486-2.595-3.9296-7.173-5.9476-14.351-6.0532l-.6-.0053c-2.031 0-3.851.1492-5.475.4579-.112.0215-.224.0443-.335.0672-2.833.5872-5.053 1.6783-6.748 3.3329l-.023.0231c-.017.0158-.033.0312-.049.0471l10.759-10.7656c2.717-2.736 6.816-3.979 12.681-3.979z"/><path d="m53.8329 27.3972c6.463 0 10.8875 1.4898 13.697 4.469l-10.3197 11.3721c-.0187-.0225-.0383-.0444-.0575-.0665-2.6967-3.2062-7.0554-4.8577-13.5298-4.9529l-.6002-.0053c-1.8841 0-3.5858.1288-5.1181.3937-.0589.0102-.1177.02-.1762.0306-.0673.0122-.1341.0254-.2008.0381-.102.0195-.2033.0397-.3038.0605-.0294.0061-.0588.0117-.0881.0179-.1188.0251-.2364.0516-.3531.0785-2.6597.6133-4.7576 1.6945-6.3737 3.2947.0094-.0093.0182-.0191.0276-.0284-.0145.0143-.0296.0282-.044.0426l10.7594-10.7656c2.7166-2.7361 6.8157-3.979 12.681-3.979z"/><path d="m92.8994 27.3972c6.7805.0001 11.2486 1.4789 13.9996 4.9716l-11.0852 10.4811c-.0242-.0283-.0495-.0556-.0739-.0837-2.686-3.0892-6.8717-4.4627-13.0349-4.5473l-.6166-.0053c-6.1225.0001-10.3587 1.2071-13.149 4.0126.0273-.0275.0537-.0558.0813-.0829-.0169.0167-.0339.0333-.0507.05l10.7848-10.7902c2.7904-2.8014 7.0261-4.0059 13.1446-4.0059z"/><path d="m170.296 27.3972c6.269 0 10.626 1.3505 13.427 4.33l-11.223 10.4004c-.012-.011-.024-.0219-.035-.0329.016.0154.032.0316.048.0471-2.81-2.6986-7.048-3.9282-13.027-3.9282-5.944.0001-10.098 1.15-12.865 3.8505l-.024.0239c-.013.0133-.027.0262-.041.0396l10.751-10.7567c2.766-2.789 6.956-3.9736 12.989-3.9737z"/><path clip-rule="evenodd" d="m50.6364 167.513-9.7442 9.835c.152.146.3787.262.6572.321.0416.009.0843.017.1281.023-.0103-.002-.0205-.003-.0307-.005.1629.026.341.038.5503.038h1.0092c4.9762 0 7.2839-2.239 7.4234-7.803l.0067-.549z" fill-rule="evenodd"/><path clip-rule="evenodd" d="m82.0884 96.0379-.1983-.0024c-.0587-.0015-.1167-.0034-.1742-.0058l-.0161-.0006c-.0778-.0032-.155-.0064-.2313-.0124-1.1785-.0928-2.1744-.4935-2.8282-1.0768l8.1265-8.1304v4.0888l-.0045.3376c-.0853 3.2766-1.4396 4.6785-4.282 4.7931-.0032.0001-.0064.0006-.0097.0007-.1245.0049-.2519.0082-.3822.0082z" fill-rule="evenodd"/><path clip-rule="evenodd" d="m164.344 91.2359.004-.3376v-4.0888l-8.126 8.1304c.714.6572 1.81 1.0543 3.151 1.0943l.297.0037c3.11 0 4.584-1.3782 4.674-4.802z" fill-rule="evenodd"/><path clip-rule="evenodd" d="m188.737 177.189 9.076-8.154v4.469l-.005.337c-.09 3.269-1.525 4.672-4.592 4.793-.145.006-.295.009-.448.009l-.268-.003c-1.14-.028-2.072-.233-2.8-.646-.026-.014-.051-.029-.077-.044-.315-.188-.65-.488-.886-.761z" fill-rule="evenodd"/><path clip-rule="evenodd" d="m276.63 173.841.005-.337v-4.728l-8.261 8.769c.731.633 1.877 1.055 3.195 1.095l.295.003c.133 0 .264-.003.391-.009h.011c2.843-.117 4.274-1.519 4.364-4.793z" fill-rule="evenodd"/><path clip-rule="evenodd" d="m451.845 256.447.005-.338v-4.088l-8.127 8.131c.713.637 1.832 1.054 3.152 1.093l.297.004c3.11 0 4.584-1.378 4.673-4.802z" fill-rule="evenodd"/><path clip-rule="evenodd" d="m412.848 256.447.005-.338v-4.469l-9.077 8.154c.19.21.51.516.749.674.069.046.141.09.214.132.785.444 1.806.649 3.068.649.154 0 .304-.004.45-.01h.013c3.058-.125 4.488-1.529 4.578-4.792z" fill-rule="evenodd"/><path clip-rule="evenodd" d="m334.331 251.643-8.261 8.768c.732.612 1.9 1.057 3.194 1.096l.297.003c3.11 0 4.67-1.378 4.765-4.802l.005-.337z" fill-rule="evenodd"/></g></svg>