<svg fill="none" height="288" viewBox="0 0 521 288" width="521" xmlns="http://www.w3.org/2000/svg"><g fill="#fff"><path d="m353.498 208.092c7.608 0 12.061 1.561 14.726 4.7 2.737 3.224 3.988 8.556 3.988 17.141v3.222c0 1.53-.247 1.841-.294 1.889-.047.047-.357.295-1.889.295h-6.87c-1.531 0-1.841-.248-1.888-.295-.046-.047-.294-.356-.294-1.889v-5.801c0-2.352-.493-4.408-1.88-5.856-1.405-1.467-3.377-1.949-5.491-1.949-2.115 0-4.088.482-5.493 1.949-1.387 1.448-1.879 3.505-1.879 5.856v40.601c0 2.352.492 4.409 1.879 5.858 1.405 1.466 3.378 1.947 5.493 1.947 2.114 0 4.086-.481 5.491-1.947 1.387-1.449 1.88-3.506 1.88-5.858v-5.799c0-1.533.247-1.843.294-1.89.048-.047.358-.295 1.888-.295h6.87c1.533 0 1.842.248 1.889.295s.294.357.294 1.89v3.222c0 8.585-1.251 13.916-3.988 17.141-2.665 3.139-7.118 4.699-14.726 4.699-7.606 0-12.122-1.56-14.842-4.711-2.786-3.226-4.087-8.557-4.087-17.129v-35.445c0-8.573 1.301-13.903 4.087-17.13 2.72-3.151 7.235-4.711 14.842-4.711z"/><path d="m236.31 207.786c7.607 0 12.06 1.561 14.725 4.7 2.737 3.224 3.989 8.556 3.989 17.141v3.222c0 1.53-.247 1.841-.295 1.889-.047.047-.358.295-1.888.295h-6.87c-1.531 0-1.841-.248-1.888-.295s-.295-.356-.295-1.889v-5.801c0-2.351-.493-4.408-1.88-5.856-1.404-1.467-3.377-1.949-5.491-1.949-2.115 0-4.087.482-5.492 1.949-1.387 1.448-1.879 3.505-1.879 5.856v40.601c0 2.352.492 4.409 1.879 5.858 1.404 1.466 3.377 1.947 5.492 1.947 2.114 0 4.087-.481 5.491-1.947 1.388-1.449 1.88-3.506 1.88-5.858v-5.799c0-1.531.248-1.843.295-1.89s.358-.295 1.888-.295h6.87c1.532 0 1.842.248 1.888.295.048.047.295.359.295 1.89v3.222c0 8.585-1.251 13.916-3.989 17.141-2.665 3.139-7.118 4.699-14.725 4.699s-12.123-1.56-14.843-4.711c-2.785-3.226-4.087-8.557-4.087-17.129v-35.445c0-8.572 1.302-13.903 4.087-17.13 2.72-3.151 7.236-4.711 14.843-4.711z"/><path d="m444.744 207.786c7.608 0 12.061 1.561 14.726 4.7 2.737 3.224 3.988 8.556 3.988 17.141v.537c0 1.53-.247 1.841-.294 1.888-.047.048-.358.296-1.889.296h-6.87c-1.53 0-1.84-.248-1.888-.296-.046-.046-.295-.356-.295-1.888v-3.116c0-2.351-.492-4.408-1.879-5.856-1.405-1.467-3.377-1.949-5.491-1.949-2.115 0-4.088.482-5.493 1.949-1.387 1.448-1.879 3.505-1.879 5.856v40.601c0 2.375.53 4.447 1.995 5.894 1.462 1.442 3.5 1.911 5.698 1.911 2.24 0 4.292-.464 5.747-1.92s1.947-3.534 1.947-5.885v-8.7c0-.789-.08-1.948-.927-2.796-.848-.848-2.006-.927-2.795-.927h-1.288c-1.529 0-1.84-.247-1.888-.295-.047-.047-.294-.356-.295-1.89v-7.089c.001-1.53.248-1.841.295-1.889.047-.046.355-.294 1.888-.294h13.633c1.533 0 1.842.248 1.889.294.048.049.294.361.294 1.889v19.12c0 8.572-1.301 13.903-4.086 17.129-2.72 3.151-7.237 4.711-14.843 4.711s-12.122-1.56-14.842-4.711c-2.786-3.226-4.087-8.557-4.087-17.129v-35.445c0-8.572 1.301-13.903 4.087-17.13 2.72-3.151 7.236-4.711 14.842-4.711z"/><path clip-rule="evenodd" d="m491.239 207.786c7.584 0 12.09 1.629 14.816 4.935 2.81 3.406 4.113 9.022 4.113 17.979v33.297c0 9.015-1.305 14.628-4.111 18.018-2.724 3.291-7.227 4.897-14.818 4.897s-12.094-1.606-14.818-4.897c-2.806-3.39-4.111-9.003-4.111-18.018v-33.297c0-8.957 1.304-14.573 4.113-17.979 2.726-3.306 7.233-4.934 14.816-4.935zm0 11.457c-2.143 0-4.127.525-5.504 2.128-1.317 1.535-1.76 3.705-1.76 6.215v40.063c0 2.328.455 4.384 1.807 5.839 1.382 1.485 3.343 1.966 5.457 1.966s4.074-.481 5.456-1.966c1.352-1.455 1.808-3.511 1.808-5.839v-40.063c0-2.51-.442-4.68-1.76-6.215-1.377-1.604-3.361-2.128-5.504-2.128z" fill-rule="evenodd"/><path d="m272.668 209.167c1.53 0 1.84.247 1.888.294.047.048.294.359.294 1.89v24.704c0 .776.094 1.886.899 2.728.823.861 1.953.996 2.823.996h8.802c.87 0 2-.136 2.823-.996.805-.842.899-1.952.899-2.728v-24.704c0-1.53.247-1.842.294-1.89.047-.046.356-.294 1.889-.294h6.87c1.533 0 1.842.248 1.889.294.047.048.294.36.294 1.89v72.608c0 1.532-.247 1.843-.294 1.89-.048.047-.359.295-1.889.295h-6.87c-1.53 0-1.841-.248-1.889-.295-.047-.047-.294-.358-.294-1.89v-29c0-.789-.079-1.948-.926-2.796-.848-.848-2.007-.927-2.796-.927h-8.802c-.789 0-1.947.079-2.795.927-.847.848-.927 2.007-.927 2.796v29c0 1.533-.247 1.843-.294 1.89-.048.048-.36.295-1.888.295h-6.87c-1.53 0-1.841-.248-1.889-.295-.046-.047-.294-.357-.294-1.89v-72.608c0-1.531.247-1.842.294-1.89.047-.046.356-.294 1.889-.294z"/><path d="m322.622 209.167c1.531 0 1.841.247 1.888.294s.295.358.295 1.89v72.608c0 1.533-.248 1.843-.295 1.89-.048.048-.361.295-1.888.295h-6.87c-1.531 0-1.841-.248-1.888-.295s-.295-.357-.295-1.89v-72.608c0-1.53.247-1.842.295-1.89.046-.046.356-.294 1.888-.294z"/><path d="m404.989 249.497c.107.537.215 1.074.215 1.611l-.008.175c-.07.785-.625 1.166-1.594 1.215-.072.003-.146.006-.223.006h-9.446l-.216-.005c-.565-.028-.99-.169-1.261-.436l10.615-10.619z"/><path clip-rule="evenodd" d="m400.588 208.86c2.844 0 3.956.256 4.565.676.545.377 1.007 1.114 1.658 3.396l.003.01.004.01 9.768 32.76.005.015c1.223 3.979 1.423 5.836 1.423 10.429v27.496c0 1.531-.247 1.843-.294 1.89s-.356.295-1.889.295h-6.87c-1.532 0-1.842-.248-1.888-.295-.048-.047-.295-.359-.295-1.89v-14.177c0-.79-.078-1.949-.926-2.797s-2.006-.927-2.795-.927h-8.803c-.789 0-1.947.079-2.794.927-.848.848-.927 2.007-.927 2.797v14.177c0 1.533-.248 1.843-.295 1.89-.047.048-.357.295-1.888.295h-6.87c-1.532 0-1.842-.248-1.888-.295-.047-.047-.295-.357-.295-1.89v-27.496c0-4.585.199-6.344 1.429-10.444l9.768-32.76.003-.01.003-.01c.652-2.282 1.113-3.019 1.658-3.396.609-.42 1.722-.676 4.566-.676zm-1.933 16.827c-.487 0-1.443.017-2.199.723-.649.606-.838 1.454-.936 1.941l-4.938 20.731-.007.031-.007.033c-.101.504-.249 1.217-.249 1.962 0 .922.335 1.864 1.195 2.5.756.559 1.666.686 2.419.686h9.446c.753 0 1.663-.127 2.419-.686.86-.636 1.195-1.578 1.195-2.5 0-.745-.148-1.458-.249-1.962l-.007-.033-.008-.031-4.937-20.731c-.099-.487-.287-1.335-.936-1.941-.757-.706-1.713-.723-2.201-.723z" fill-rule="evenodd"/><path d="m326.594 211.351c0-.541-.027-1.013-.086-1.426.017.116.031.236.043.361-.007-.081-.015-.159-.025-.236-.009-.076-.019-.151-.031-.223-.012-.073-.025-.143-.038-.212l-.032-.136c-.343-1.474-1.267-2.013-3.245-2.092l-.558-.01h-6.87l-.558.01c-1.465.058-2.351.37-2.852 1.125.076-.116.161-.222.257-.317l12.651-12.658c.604-.604 1.597-.819 3.154-.819h6.87c3.113 0 3.971.859 3.971 3.974z"/><path d="m241.999 267.649-.006.396c-.106 3.828-1.777 5.469-5.101 5.608-.155.006-.314.01-.476.01l-.346-.003c-1.862-.056-3.035-.66-3.74-1.281l9.669-10.263z"/><path clip-rule="evenodd" d="m277.061 237.561 12.246-12.251v10.745l-.006.252c-.052 1.209-.518 1.681-1.927 1.681h-8.802l-.269-.006c-.551-.027-.983-.193-1.242-.421zm10.553.42h.03c.065-.003.127-.009.187-.014-.069.006-.141.011-.217.014z" fill-rule="evenodd"/><path clip-rule="evenodd" d="m470.81 224.059-5.563 5.567c0-4.046-.271-7.493-.884-10.398-.012-.057-.026-.114-.038-.171-.896-4.12-2.494-7.139-5.008-9.23-.028-.024-.056-.049-.084-.072-.009-.007-.017-.013-.026-.02.031.025.061.05.09.076-.588-.488-1.227-.924-1.919-1.313-.059-.033-.119-.067-.179-.1-1.453-.788-3.135-1.369-5.069-1.762-.117-.024-.235-.047-.353-.07-.974-.183-2.01-.32-3.111-.414-.165-.014-.331-.028-.498-.04-.862-.063-1.762-.099-2.702-.111l-.722-.005c-7.179 0-12.142 1.35-15.408 4.499.009-.008.018-.017.027-.026-.049.047-.098.093-.145.14l12.585-12.592c3.261-3.28 8.277-4.679 15.593-4.679l.678.004c.673.008 1.325.028 1.956.062.421.022.833.051 1.237.085.403.034.798.073 1.184.119.386.045.764.097 1.133.154 1.292.202 2.481.477 3.572.833.468.152.918.319 1.35.5.144.061.286.123.426.187.281.127.554.262.819.403.398.212.78.439 1.144.682.608.405 1.171.854 1.69 1.348.104.099.206.199.306.302 2.462 2.515 3.89 6.135 4.553 11.077l11.064-11.069c3.266-3.278 8.222-4.687 15.383-4.687 8.406 0 13.775 1.942 16.936 6.571l-12.739 12.531c-.014-.02-.029-.039-.043-.058.012.016.022.032.034.049-3.081-4.398-8.207-6.321-16.118-6.429l-.722-.006c-13.483 0-19.153 4.997-20.429 18.063zm-32.791-17.552c-.077.013-.153.029-.23.043.116-.022.233-.043.351-.063-.041.007-.081.013-.121.02zm1.682-.243c-.059.007-.118.014-.177.022.113-.014.227-.028.341-.041-.055.007-.11.012-.164.019zm5.751-.264c-.032-.001-.064-.001-.095-.001l-.613-.003c.238 0 .474.001.708.004z" fill-rule="evenodd"/><path d="m413.239 194.412c5.582 0 6.656.859 7.943 5.37l-12.65 12.658c-1.289-4.511-2.362-5.37-7.944-5.37h-3.865c-.047 0-.095 0-.141.001l-.853.009c-1.115.026-2.024.104-2.777.262l-.02.003c-.015.003-.031.007-.047.011-.948.207-1.645.548-2.2 1.083.011-.01.021-.021.032-.032-.009.009-.023.024-.032.032l12.547-12.556c1.125-1.172 2.849-1.471 6.142-1.471z"/><path clip-rule="evenodd" d="m235.308 206.006c-6.508.12-11.107 1.433-14.217 4.308l-.021.02c.101-.102-.106.097 0 0l12.297-12.317c3.262-3.28 8.277-4.679 15.593-4.679 8.018 0 13.217 1.681 16.372 5.676l-12.599 12.725c.007.009.014.019.021.028-2.99-3.859-7.846-5.593-15.251-5.758-.074-.001-.147-.003-.221-.004-.083-.001-.167-.003-.251-.004l-.661-.005h-.061l-.677.004c-.108.001-.216.004-.324.006zm-7.795.954c-.164.043-.327.089-.487.136.167-.049.337-.096.508-.142zm7.387-.946c.165-.005.331-.007.498-.01-.03.001-.06.001-.09.002-.136.002-.272.004-.408.008z" fill-rule="evenodd"/><path d="m337.611 211.288c-.042.045-.082.092-.123.137.035-.038.068-.078.104-.117z"/><path clip-rule="evenodd" d="m285.319 194.718c3.112 0 3.971.86 3.971 3.974l-12.651 12.658c0-2.92-.754-3.857-3.414-3.963l-.557-.01h-6.87l-.558.01c-.329.013-.628.039-.901.08.126-.019.259-.036.397-.049-.141.013-.269.029-.397.049-.002 0-.011.001-.013.001-.126.019-.246.042-.361.068-.017.003-.033.007-.05.011-.048.011-.096.024-.143.037-.008.002-.017.004-.025.007-.052.014-.103.03-.153.046-.007.002-.014.005-.02.007-.046.015-.09.031-.133.048-.269.104-.498.238-.691.405.004-.004.008-.007.012-.011.103-.087.215-.165.337-.234-.171.097-.323.21-.456.343l12.652-12.658c.604-.604 1.596-.819 3.153-.819z" fill-rule="evenodd"/><path d="m312.8 194.718c3.113 0 3.971.859 3.971 3.974l-12.651 12.656c0-3.112-.859-3.971-3.971-3.971h-6.87l-.557.01c-.448.018-.841.059-1.186.129-.025.005-.049.011-.073.016-.056.012-.111.026-.165.04-.02.006-.041.01-.061.015-.066.019-.129.039-.191.06-.022.008-.043.015-.065.023-.184.067-.351.147-.5.241l-.077.051c-.048.035.037-.05-.048.035l12.42-12.46c.604-.604 1.597-.819 3.154-.819z"/><path clip-rule="evenodd" d="m352.497 206.312c-3.095.057-5.757.384-8.034 1.02-.082.023-.165.045-.246.069-.025.007-.049.016-.074.024-.136.04-.272.08-.405.123l-.044.015c.073-.024.147-.045.222-.068-2.271.704-4.139 1.735-5.653 3.14-.105.098-.214.202-.316.303l12.609-12.615c3.261-3.28 8.277-4.68 15.593-4.68 7.81.001 12.944 1.596 16.122 5.371l-13.321 11.924c.029.029.057.059.085.089-1.574-1.624-3.573-2.791-6.07-3.559-.085-.026-.17-.052-.256-.077-2.372-.695-5.182-1.041-8.489-1.084l-.722-.005-.677.004c-.109.001-.217.004-.324.006zm-.408.008c.165-.005.331-.007.498-.01-.03.001-.06.001-.09.002-.137.002-.273.004-.408.008z" fill-rule="evenodd"/><path d="m326.495 209.827c.003.019.004.039.007.058-.008-.051-.016-.101-.024-.15.005.03.012.061.017.092z"/><path d="m262.733 208.113c-.09.082-.09.082-.09.082.029-.029.06-.056.09-.082z"/><path d="m290.356 207.997c.005-.003.01-.007.015-.01l.08-.055c-.032.022-.064.043-.095.065z"/><path d="m263.789 207.579c.024-.006.049-.013.075-.02.013-.003.026-.006.039-.009-.039.009-.077.019-.114.029z"/><path d="m264.167 207.495c.036-.006.072-.013.108-.019.016-.002.035-.005.051-.008-.053.008-.108.018-.159.027z"/><path d="m436.706 206.773c.084-.02.169-.04.254-.058.011-.003.022-.006.034-.008-.097.021-.193.044-.288.066z"/><path d="m193.094 111.118c7.608 0 12.061 1.56 14.726 4.699 2.737 3.225 3.988 8.556 3.988 17.141v.537c0 1.53-.247 1.841-.294 1.889-.048.047-.36.295-1.889.295h-6.87c-1.531 0-1.84-.248-1.888-.295-.046-.047-.295-.356-.295-1.889v-3.116c0-2.351-.492-4.408-1.879-5.856-1.405-1.467-3.377-1.948-5.491-1.948-2.115 0-4.088.481-5.493 1.948-1.386 1.448-1.879 3.505-1.879 5.856v40.602c0 2.374.53 4.447 1.995 5.893 1.462 1.442 3.5 1.911 5.698 1.911 2.24 0 4.292-.464 5.748-1.92 1.454-1.455 1.946-3.534 1.946-5.884v-8.7c0-.79-.079-1.948-.927-2.797-.848-.848-2.006-.927-2.795-.927h-1.288c-1.53 0-1.841-.247-1.888-.295-.047-.046-.294-.356-.294-1.889v-7.089c0-1.53.246-1.841.294-1.889.047-.047.356-.295 1.888-.295h13.633c1.533 0 1.842.248 1.889.295.048.048.294.359.294 1.889v19.119c0 8.572-1.301 13.903-4.086 17.13-2.72 3.15-7.237 4.71-14.843 4.71s-12.122-1.56-14.842-4.71c-2.786-3.227-4.087-8.558-4.087-17.13v-35.445c0-8.572 1.301-13.903 4.087-17.13 2.72-3.151 7.236-4.71 14.842-4.71z"/><path d="m245.065 166.197v4.784l-.005.395c-.105 4.006-1.831 5.619-5.47 5.619l-.347-.004c-1.526-.046-2.857-.554-3.689-1.281.053.053-.057-.049 0 0z"/><path clip-rule="evenodd" d="m239.59 111.118c7.583 0 12.09 1.629 14.816 4.934 2.809 3.406 4.113 9.022 4.113 17.979v33.298c0 9.014-1.305 14.627-4.111 18.018-2.724 3.29-7.228 4.896-14.818 4.896-7.591 0-12.094-1.606-14.818-4.896-2.807-3.391-4.111-9.004-4.111-18.018v-33.298c0-8.957 1.303-14.573 4.113-17.979 2.726-3.305 7.232-4.934 14.816-4.934zm0 11.457c-2.144 0-4.127.524-5.504 2.127-1.318 1.535-1.76 3.705-1.76 6.215v40.064c0 2.327.455 4.383 1.807 5.838 1.382 1.485 3.343 1.966 5.457 1.966s4.074-.481 5.456-1.966c1.352-1.455 1.808-3.51 1.808-5.838v-40.064c0-2.51-.443-4.68-1.76-6.215-1.377-1.603-3.361-2.127-5.504-2.127z" fill-rule="evenodd"/><path d="m285.98 111.118c7.608 0 12.06 1.56 14.725 4.699 2.738 3.225 3.989 8.556 3.989 17.141v3.222c0 1.53-.247 1.841-.294 1.889-.048.047-.359.295-1.889.295h-6.87c-1.53 0-1.84-.248-1.888-.295-.047-.047-.294-.356-.294-1.889v-5.801c0-2.351-.493-4.408-1.88-5.856-1.405-1.467-3.377-1.948-5.492-1.948-2.114 0-4.087.481-5.492 1.948-1.387 1.448-1.879 3.505-1.879 5.856v40.602c0 2.351.492 4.409 1.879 5.857 1.405 1.467 3.378 1.947 5.492 1.947 2.115 0 4.087-.48 5.492-1.947 1.387-1.448 1.88-3.506 1.88-5.857v-5.8c0-1.531.247-1.842.294-1.89.048-.047.358-.294 1.888-.294h6.87c1.533 0 1.842.247 1.889.294.047.048.294.359.294 1.89v3.222c0 8.585-1.251 13.916-3.989 17.141-2.665 3.139-7.117 4.699-14.725 4.699-7.606 0-12.122-1.56-14.843-4.71-2.785-3.227-4.086-8.558-4.086-17.13v-35.445c0-8.572 1.301-13.903 4.086-17.13 2.721-3.151 7.236-4.71 14.843-4.71z"/><path d="m337.933 166.197v4.784l-.005.395c-.104 4.006-1.83 5.619-5.47 5.619l-.347-.004c-1.511-.045-2.858-.567-3.689-1.281-.064-.055.061.06 0 0z"/><path clip-rule="evenodd" d="m332.458 111.118c7.584 0 12.09 1.629 14.817 4.934 2.809 3.406 4.112 9.022 4.112 17.979v33.298c0 9.014-1.304 14.627-4.111 18.018-2.724 3.29-7.227 4.896-14.818 4.896-7.59 0-12.094-1.606-14.818-4.896-2.806-3.391-4.111-9.004-4.111-18.018v-33.298c0-8.957 1.304-14.573 4.113-17.979 2.727-3.305 7.233-4.934 14.816-4.934zm0 11.457c-2.143 0-4.127.524-5.503 2.127-1.318 1.535-1.761 3.705-1.761 6.215v40.064c0 2.327.455 4.383 1.808 5.838 1.382 1.485 3.343 1.966 5.456 1.966 2.114 0 4.074-.481 5.456-1.966 1.353-1.455 1.808-3.51 1.808-5.838v-40.064c0-2.51-.442-4.68-1.76-6.215-1.377-1.603-3.36-2.127-5.504-2.127z" fill-rule="evenodd"/><path d="m490.648 111.118c7.606 0 12.122 1.559 14.842 4.71 2.785 3.227 4.087 8.558 4.087 17.13v2.148c0 1.532-.248 1.843-.295 1.89-.048.047-.36.294-1.888.294h-7.3c-1.529 0-1.84-.247-1.888-.294-.047-.047-.294-.357-.294-1.89v-4.727c0-2.327-.456-4.383-1.809-5.838-1.382-1.485-3.342-1.966-5.455-1.966-2.087 0-4.02.441-5.403 1.804-1.387 1.368-1.861 3.309-1.861 5.464v1.826c0 1.679.171 3.142.875 4.604.685 1.421 1.796 2.679 3.346 4.119l.008.007.008.007 13.74 12.46.008.008c3.532 3.164 5.533 5.558 6.684 7.922 1.135 2.329 1.524 4.789 1.524 8.251v1.934c0 6.598-1.268 11.316-4.059 14.399-2.757 3.044-7.344 4.863-14.87 4.863-7.607 0-12.123-1.56-14.843-4.71-2.785-3.227-4.087-8.558-4.087-17.13v-2.149c0-1.528.247-1.84.295-1.889.046-.046.356-.294 1.888-.294h7.299c1.533 0 1.842.248 1.889.294.047.048.295.358.295 1.889v4.727c0 2.327.455 4.383 1.807 5.838 1.382 1.486 3.343 1.966 5.457 1.966 2.086 0 4.018-.44 5.401-1.803 1.388-1.368 1.862-3.309 1.863-5.464v-2.041c0-1.651-.178-3.123-1.041-4.69-.712-1.294-1.837-2.552-3.451-4.046l-.723-.656-12.882-11.493-.008-.007-.645-.575c-3.134-2.83-4.925-4.995-5.975-7.14-1.103-2.252-1.469-4.651-1.469-8.127v-2.364c0-6.598 1.268-11.316 4.059-14.399 2.757-3.045 7.344-4.862 14.871-4.862z"/><path d="m435.051 112.191c1.528 0 1.84.247 1.887.295.047.046.295.356.295 1.889v56.605c0 2.35.492 4.429 1.946 5.884 1.456 1.457 3.508 1.921 5.748 1.921 2.198 0 4.236-.47 5.697-1.912 1.466-1.446 1.996-3.518 1.996-5.893v-56.605c0-1.532.247-1.842.294-1.889s.357-.295 1.889-.295h6.87c1.531 0 1.841.248 1.889.295.047.047.294.358.294 1.889v54.027c0 8.572-1.301 13.903-4.087 17.13-2.72 3.151-7.236 4.71-14.842 4.71-7.607 0-12.123-1.559-14.843-4.71-2.785-3.227-4.087-8.558-4.087-17.13v-54.027c0-1.533.248-1.843.295-1.889.047-.047.357-.295 1.889-.295z"/><path clip-rule="evenodd" d="m17.6415 112.191c10.1931 0 15.6931 1.882 18.779 5.427 3.1461 3.615 4.2291 9.43 4.2291 18.561v29.001c0 9.131-1.0831 14.946-4.2291 18.561-3.0859 3.545-8.5859 5.427-18.779 5.427h-13.09615c-1.53152 0-1.84168-.248-1.88872-.294-.04672-.047-.29441-.357-.29441-1.89v-72.609c.00003-1.533.2477-1.843.29441-1.889.0478-.048.35961-.295 1.88872-.295zm-.3223 11.457c-.7888 0-1.947.079-2.7947.927-.8476.849-.9269 2.007-.9269 2.797v46.616c0 .776.094 1.886.899 2.728.823.86 1.9525.995 2.8226.995h1.1811c3.2478 0 6.023-.753 7.9279-2.857 1.8654-2.061 2.5562-5.051 2.5562-8.707v-30.935c-.0001-3.656-.6906-6.646-2.5562-8.707-1.9049-2.103-4.6801-2.857-7.9279-2.857z" fill-rule="evenodd"/><path d="m67.5941 112.191c1.5323 0 1.8421.248 1.8888.295.0469.047.2943.357.2944 1.889v52.953c0 8.571-1.3012 13.907-4.0649 17.136-2.6953 3.148-7.1573 4.704-14.6495 4.704h-5.045c-1.5315 0-1.8417-.247-1.8887-.294-.0467-.047-.2944-.357-.2944-1.89v-7.089c0-1.532.2475-1.842.2944-1.889.0478-.048.3597-.295 1.8887-.295h5.26c2.1134 0 4.0739-.481 5.4556-1.967 1.3524-1.454 1.8083-3.51 1.8084-5.838v-43.071c-.0001-.789-.0793-1.949-.9269-2.797s-2.0059-.927-2.7947-.927h-5.2599c-1.5308 0-1.8415-.247-1.8888-.294-.0467-.047-.2944-.357-.2944-1.89v-6.552c0-1.533.2477-1.843.2944-1.889.0478-.048.3597-.295 1.8888-.295z"/><path d="m102.855 152.828c.108.537.215 1.074.215 1.611l-.008.175c-.075.844-.71 1.221-1.817 1.221h-9.446l-.2157-.005c-.5654-.028-.9896-.169-1.2606-.435l10.6143-10.62z"/><path clip-rule="evenodd" d="m98.4541 112.191c2.8439 0 3.9559.256 4.5659.677.545.376 1.006 1.113 1.658 3.396l.002.009.004.011 9.768 32.759.005.015c1.224 3.98 1.424 5.836 1.424 10.429v27.497c0 1.529-.247 1.842-.295 1.89-.046.046-.356.294-1.888.294h-6.87c-1.533 0-1.842-.248-1.889-.294-.047-.048-.295-.358-.295-1.89v-14.178c0-.79-.078-1.948-.926-2.796-.847-.849-2.006-.928-2.795-.928h-8.8025c-.7888 0-1.9469.08-2.7946.928s-.9269 2.006-.9269 2.796v14.178c0 1.531-.2472 1.842-.2944 1.89-.0474.047-.3576.294-1.8879.294h-6.87c-1.5326 0-1.842-.248-1.8887-.294-.0467-.047-.2944-.357-.2944-1.89v-27.497c0-4.585.1989-6.343 1.4283-10.444l9.7686-32.759.0027-.011.0035-.009c.6517-2.283 1.1123-3.02 1.6572-3.396.6093-.421 1.7224-.677 4.5663-.677zm-1.9324 16.827c-.4873 0-1.4431.017-2.1997.723-.6487.606-.8374 1.454-.9356 1.942l-4.9385 20.73-.007.031-.007.033c-.1009.504-.2489 1.217-.249 1.962.0001.922.3354 1.864 1.1951 2.5.756.559 1.6663.686 2.419.686h9.446c.753 0 1.663-.127 2.419-.686.86-.636 1.195-1.578 1.195-2.5 0-.745-.148-1.458-.249-1.962l-.007-.033-.007-.031-4.938-20.73c-.0983-.488-.2869-1.336-.9357-1.942-.7567-.706-1.7132-.723-2.2006-.723z" fill-rule="evenodd"/><path d="m130.186 112.191c1.952 0 2.874.178 3.57.607.712.439 1.467 1.319 2.566 3.467l.005.01 11.188 21.526c.243.438.571 1.022 1.05 1.437.647.561 1.35.665 1.91.665.599 0 1.477-.157 2.089-.954.515-.67.558-1.459.558-1.911v-22.663c0-1.532.248-1.842.295-1.889.048-.048.359-.295 1.889-.295h6.547c1.532 0 1.842.248 1.889.295s.294.357.294 1.889v72.609c0 1.53-.247 1.842-.294 1.89-.047.046-.357.294-1.889.294h-6.547c-1.532 0-1.842-.248-1.889-.294-.047-.048-.295-.358-.295-1.89v-14.715c0-2.608-.193-4.503-.667-6.233-.472-1.723-1.199-3.188-2.118-4.918l-.004-.008-9.983-18.582-.007-.011-.005-.01-.2-.352c-.217-.368-.491-.774-.85-1.085-.647-.562-1.35-.666-1.91-.666-.599 0-1.476.158-2.088.954-.515.67-.559 1.458-.56 1.91v43.716c0 1.529-.246 1.841-.294 1.89-.047.046-.356.294-1.889.294h-6.547c-1.532 0-1.842-.247-1.889-.294s-.294-.357-.294-1.89v-72.609c0-1.533.247-1.843.294-1.889.048-.048.36-.295 1.889-.295z"/><path d="m365.521 112.191c1.953 0 2.875.178 3.57.607.713.439 1.467 1.319 2.567 3.467l.005.01 11.187 21.526c.244.438.572 1.022 1.05 1.437.648.561 1.351.665 1.91.665.599 0 1.477-.157 2.09-.954.515-.67.558-1.459.558-1.911v-22.663c0-1.532.247-1.842.294-1.889.048-.048.359-.295 1.889-.295h6.548c1.532 0 1.842.248 1.888.295.047.047.295.357.295 1.889v72.609c0 1.53-.247 1.842-.295 1.89-.046.046-.356.294-1.888.294h-6.548c-1.532 0-1.842-.248-1.889-.294-.047-.048-.294-.358-.294-1.89v-14.715c0-2.608-.193-4.503-.668-6.233-.472-1.723-1.199-3.188-2.117-4.918l-.005-.008-9.983-18.582-.006-.011-.005-.01-.2-.352c-.218-.368-.492-.774-.85-1.085-.648-.562-1.351-.666-1.91-.666-.6 0-1.477.158-2.089.954-.515.67-.559 1.458-.559 1.91v43.716c0 1.529-.247 1.842-.294 1.89-.047.046-.357.294-1.889.294h-6.548c-1.532 0-1.842-.248-1.889-.294-.046-.047-.294-.357-.294-1.89v-72.609c0-1.533.248-1.843.294-1.889.048-.048.359-.295 1.889-.295z"/><path d="m450.831 170.98c0 4.296-1.933 6.015-5.904 6.015l-.376-.005c-1.761-.048-3.202-.57-4.105-1.393-.044-.04.042.042 0 0l10.385-10.39z"/><path d="m46.0135 175.921-.5643.011c-.0862.003-.1703.01-.2525.015-.0762.005-.1508.009-.2236.015-.2701.024-.5183.06-.7443.109.0178-.004.0359-.008.0541-.012l-.0288.005c-.0206.005-.041.009-.0612.014-.4937.11-1.7045 1.052-1.3532.687-.011.012-.0154.016 0 0l12.6393-12.647c.3092-.326.7252-.542 1.2728-.677l.0009 6.465-.0052.395c-.101 3.878-1.7209 5.513-5.1237 5.615l-.3459.005z"/><path d="m474.97 114.237 12.53-12.538c3.255-3.2981 8.328-5.0302 15.799-5.0302 9.127 0 14.674 2.1784 17.701 7.4662l-12.998 12.084c-.007-.011-.015-.021-.022-.032.011.017.022.035.033.053-3.009-4.751-8.265-6.799-16.644-6.908l-.721-.004c-8.272 0-12.948 2.557-15.678 4.909z"/><path clip-rule="evenodd" d="m345.11 96.6688c8.636 0 14.067 2.0502 17.19 6.9582l-12.993 12.144c-.015-.02-.03-.04-.045-.061.007.01.013.019.02.029-3.082-4.381-8.205-6.298-16.102-6.406l-.722-.005c-7.139 0-12.04 1.354-15.306 4.612.016-.016-.016.016 0 0-.015.015.015-.015 0 0l12.575-12.583c3.266-3.2787 8.223-4.6882 15.383-4.6882zm3.274 17.9282c-.009-.011-.018-.022-.027-.033l-.012-.013c.013.015.026.031.039.046z" fill-rule="evenodd"/><path d="m111.105 97.7431c5.582 0 6.656.8593 7.943 5.3709l-12.65 12.657c-1.288-4.511-2.362-5.37-7.9439-5.37h-3.8639l-.1109.001c.0364 0 .074-.001.1109-.001l-.5818.003c-.1347.002-.2666.004-.3958.007h-.0174c-2.5656.061-4.0371.39-5.0407 1.356.0098-.009.0189-.019.0288-.029-.0091.009-.0197.02-.0288.029l12.5445-12.5528c1.124-1.1718 2.848-1.4711 6.141-1.4711z"/><path clip-rule="evenodd" d="m284.775 109.341c-6.412.143-10.953 1.463-14.03 4.319-.105.098-.213.202-.315.304l12.608-12.616c3.261-3.2794 8.277-4.6792 15.593-4.6792 8.718 0 14.102 1.9884 17.152 6.7762l-12.971 12.178c-.004-.006-.008-.012-.013-.018-3.013-4.3-8.105-6.169-16.097-6.273l-.722-.004-.677.003c-.177.002-.353.006-.528.01zm-7.591.95c-.159.042-.317.086-.472.132.162-.048.326-.093.493-.137z" fill-rule="evenodd"/><path clip-rule="evenodd" d="m122.856 111.209 12.642-12.6469c.603-.6041 1.596-.819 3.152-.819h4.187c3.972 0 5.475.6441 7.729 5.0479l-12.651 12.658c-.278-.542-.544-1.027-.805-1.461-.024-.04-.048-.079-.072-.119-.298-.486-.589-.905-.883-1.267-.212-.262-.425-.493-.644-.698.009.008.017.015.025.023-.01-.01-.014-.013-.025-.023-.181-.169-.291-.265-.533-.439-.334-.24-.684-.429-1.061-.575.176.068-.356-.13-.538-.18-.122-.033-.247-.064-.375-.091-.202-.043-.412-.077-.63-.105-.203-.027-.593-.065-.948-.083-.413-.022-.826-.025-1.239-.03h-4.187l-.559.01c-1.335.054-3.925 2.119-2.585.798z" fill-rule="evenodd"/><path d="m358.189 111.211 12.643-12.6489c.604-.6042 1.597-.819 3.154-.819h4.186c3.972 0 5.475.6441 7.73 5.0479l-12.652 12.658c-1.463-2.858-2.61-4.132-4.321-4.675-.043-.014-.087-.026-.132-.039-.728-.212-1.56-.3-2.559-.325l-.717-.009h-4.186l-.558.01c-1.234.05-2.059.277-2.588.8z"/><path d="m252.241 96.6688c7.729 0 12.892 1.6426 16.13 5.5062l-12.972 12.29c-.067-.075-.136-.147-.205-.22.015.016.029.033.044.048-.47-.5-.975-.96-1.52-1.38-.028-.022-.056-.044-.084-.065-.137-.104-.276-.206-.418-.305-.052-.036-.107-.071-.16-.107-.103-.07-.207-.139-.312-.206-.049-.031-.099-.061-.148-.091-3.013-1.862-7.036-2.734-12.285-2.806l-.721-.005c-7.14 0-12.087 1.402-15.353 4.66.016-.015.031-.032.046-.048-.014.015-.031.033-.046.048l12.621-12.631c3.266-3.2786 8.223-4.6882 15.383-4.6882z"/><path d="m205.746 96.6688c8.018 0 13.216 1.6817 16.372 5.6762l-13.236 11.97c-3.093-3.447-7.864-4.889-15.066-4.983l-.722-.004c-7.077 0-12.001 1.31-15.268 4.365.092-.092-.095.089 0 0l12.327-12.345c3.261-3.2794 8.277-4.6792 15.593-4.6792z"/><path d="m46.4145 111.211 12.6428-12.6489c.6038-.6042 1.5971-.819 3.1537-.819h18.0338c3.113 0 3.9722.859 3.9722 3.9739l-12.6506 12.658c0-3.114-.8596-3.974-3.9723-3.974h-18.0337l-.5583.01c-1.2343.05-2.0589.277-2.5876.8z"/><path clip-rule="evenodd" d="m152.16 111.211 12.643-12.6489c.604-.6041 1.597-.819 3.153-.819h6.549c3.113 0 3.971.859 3.971 3.9739l-12.65 12.658c-.001-3.114-.86-3.974-3.973-3.974h-6.547l-.559.01c-1.234.05-2.059.277-2.587.8zm2.372-.789c-.061.004-.12.009-.179.014.106-.008.216-.016.329-.021-.051.002-.101.004-.15.007z" fill-rule="evenodd"/><path clip-rule="evenodd" d="m387.495 111.211 12.644-12.6489c.604-.6041 1.596-.819 3.153-.819h6.548c3.113 0 3.972.859 3.972 3.9739l-12.651 12.658c0-.389-.013-.743-.043-1.064-.022-.241-.053-.465-.095-.671-.014-.068-.028-.135-.045-.2-.387-1.555-1.455-2.039-3.789-2.039h-6.548l-.558.01c-1.234.05-2.059.277-2.588.8zm2.372-.789c-.06.004-.12.009-.178.014.106-.008.215-.016.328-.021-.05.002-.101.004-.15.007z" fill-rule="evenodd"/><path d="m474.324 97.7431c3.113 0 3.972.8591 3.972 3.9739l-12.651 12.658c0-3.114-.859-3.974-3.972-3.974h-6.87l-.558.01c-1.176.047-1.979.258-2.509.729-.021.019-.042.037-.062.056l12.627-12.6339c.603-.6041 1.596-.819 3.152-.819z"/><path d="m425.035 111.211 12.643-12.6489c.603-.6042 1.597-.819 3.153-.819h6.87c3.113 0 3.972.859 3.973 3.9739l-12.652 12.658c0-2.92-.754-3.858-3.414-3.964l-.557-.01h-6.87l-.559.01c-1.234.05-2.059.277-2.587.8z"/><path d="m30.2922 97.7431c8.5938 0 14.3326 1.3067 18.1028 4.1549l-13.0595 12.361c-.0107-.007-.0216-.014-.0323-.022-.5623-.391-1.1656-.751-1.8128-1.08-.0935-.048-.1894-.094-.2848-.141-.078-.038-.1566-.075-.2358-.113-.0768-.035-.1545-.07-.2324-.105-.051-.023-.1014-.048-.1529-.07l-.0594-.026c.0449.02.0891.041.1337.061-.71-.315-1.468-.598-2.2775-.848-.0725-.023-.1451-.046-.2184-.067-1.5535-.464-3.2922-.813-5.2364-1.051-.1029-.013-.2061-.027-.3101-.039-.972-.112-1.9945-.197-3.0699-.256-.0737-.004-.1476-.008-.2219-.012-.8746-.045-1.7839-.073-2.7291-.084l-.954-.005h-13.09615l-.55823.01c-.90131.036-3.228373 1.432-2.58586.798l12.64104-12.6469c.6038-.6042 1.5971-.819 3.1537-.819z"/><path d="m46.204 111.457c-.0114.015-.0214.032-.0324.048.0091-.013.0169-.027.0263-.04z"/><path d="m151.949 111.457c-.011.015-.021.032-.032.048.009-.013.017-.027.026-.04z"/><path d="m357.979 111.457c-.012.015-.022.032-.033.048.01-.013.017-.027.027-.04z"/><path d="m424.824 111.457c-.011.015-.021.032-.032.048.009-.013.017-.027.026-.04z"/><path d="m294.976 110.355c-.071-.02-.141-.041-.213-.061l-.035-.008c.084.022.166.045.248.069z"/><path clip-rule="evenodd" d="m63.6551 80.3222.1147.0014.2321.003c-.0783 0-.1557-.0011-.2321-.003-.0385-.0009-.0767-.0001-.1147-.0014z" fill-rule="evenodd"/><path clip-rule="evenodd" d="m64.0019 14.4489c7.5835 0 12.0896 1.6288 14.8163 4.9343 2.8092 3.4059 4.1129 9.0219 4.1129 17.9795v33.2971c0 9.0143-1.3048 14.6273-4.1112 18.0179-2.724 3.2906-7.2274 4.8967-14.818 4.8968-7.5907-.0001-12.0941-1.6062-14.8181-4.8968-2.8064-3.3906-4.1111-9.0036-4.1111-18.0179v-33.2971c0-8.9574 1.3037-14.5736 4.1129-17.9795 2.7267-3.3054 7.2329-4.9342 14.8163-4.9343zm0 11.4569c-2.1138 0-4.0747.481-5.4565 1.9667-1.3524 1.4544-1.8075 3.5104-1.8075 5.8381v40.6013c0 2.3278.455 4.3837 1.8075 5.8381 1.3818 1.4857 3.3427 1.9667 5.4565 1.9667 2.1136 0 4.0738-.4812 5.4556-1.9667 1.3527-1.4544 1.8083-3.5102 1.8084-5.8381v-40.6013c-.0001-2.3278-.4558-4.3837-1.8084-5.8381-1.3818-1.4855-3.342-1.9667-5.4556-1.9667z" fill-rule="evenodd"/><path clip-rule="evenodd" d="m154.576 14.4489c7.198 0 11.712 1.5718 14.491 4.5917 2.813 3.0568 4.223 7.9956 4.223 15.6368v.4301c0 1.5315-.247 1.8417-.294 1.8889-.047.0473-.358.2945-1.888.2946h-6.656c-1.53 0-1.84-.2473-1.888-.2946-.046-.0467-.295-.3559-.295-1.8889v-2.4702c0-2.0629-.537-3.9019-2.008-5.1608-1.408-1.204-3.325-1.5707-5.363-1.5707-2.154 0-4.141.4747-5.541 1.9571-1.375 1.4572-1.83 3.5208-1.83 5.8477v11.6011c0 .281.031.9013.473 1.4537.527.6586 1.246.7657 1.639.7657.812-.0001 1.437-.419 1.743-.6232l.009-.0053.009-.0061c1.691-1.158 3.578-1.9431 7.792-1.9431 4.755 0 8.249 1.3386 10.61 4.1642 2.417 2.8932 3.918 7.6605 3.918 15.0975v9.13c0 7.6421-1.411 12.5772-4.245 15.6324-2.804 3.0219-7.373 4.5969-14.684 4.597-7.591 0-12.094-1.6062-14.818-4.8968-2.806-3.3906-4.111-9.0036-4.111-18.0179v-33.2971c0-9.0129 1.304-14.6297 4.088-18.0223 2.7-3.2887 7.149-4.8915 14.626-4.8915zm.215 41.9613c-2.114 0-4.075.4809-5.456 1.9668-1.353 1.4544-1.808 3.5103-1.808 5.8381v10.0968c0 2.3278.455 4.3837 1.808 5.8381 1.381 1.4857 3.342 1.9667 5.456 1.9667s4.074-.4811 5.456-1.9667c1.352-1.4544 1.808-3.5102 1.808-5.8381v-10.0968c0-2.3278-.456-4.3837-1.808-5.8381-1.382-1.4856-3.342-1.9668-5.456-1.9668z" fill-rule="evenodd"/><path d="m18.2854 14.4489c7.332.0001 11.9261 1.6941 14.7324 4.6738 2.8273 3.0023 4.1959 7.6827 4.1959 14.4813-.0002 5.5802-1.9917 11.7988-6.3685 18.5764l-.0079.0114-15.3501 24.1672-.007.0114-.007.0105c-.5113.8314-1.0531 2.1481-.4673 3.4378.6475 1.425 2.1425 1.7613 3.2795 1.7613h16.7461c1.5305 0 1.8405.2474 1.8878.2946.0473.0475.2944.3587.2944 1.8898v6.5514c0 1.5331-.2477 1.8431-.2944 1.8898-.0483.0479-.3605.2946-1.8878.2946h-31.98962c-1.52947 0-1.84104-.2471-1.88872-.2946-.0467-.0467-.294362-.3567-.294409-1.8898v-7.7332c0-1.4299.055642-2.3452.214909-3.0891.14909-.6961.40196-1.3029.89282-2.062l18.78162-28.7789c3.0595-4.6511 4.8003-10.3554 4.8004-14.6194 0-2.4557-.3683-4.614-1.6922-6.1222-1.3837-1.5763-3.4062-2.0052-5.5709-2.0052-2.1138 0-4.0747.481-5.4565 1.9667-1.3525 1.4544-1.8075 3.5104-1.8075 5.8381v5.8006c-.0001 1.529-.2468 1.8409-.2944 1.8889-.0475.0473-.3585.2955-1.88876.2955h-6.65511c-1.530246 0-1.841282-.2482-1.888726-.2955-.047312-.0475-.29435698-.3584-.294404-1.8889v-3.2219c0-8.2862 1.29474-13.649 4.0308-16.9576 2.66049-3.2171 7.0285-4.8828 14.2546-4.8828z"/><path d="m109.067 14.4489c7.331.0001 11.926 1.6942 14.732 4.6738 2.827 3.0023 4.196 7.6829 4.196 14.4813 0 5.5802-1.992 11.7988-6.369 18.5764l-.007.0114-15.35 24.1672-.007.0114-.007.0105c-.512.8314-1.054 2.148-.468 3.4378.648 1.4248 2.143 1.7613 3.28 1.7613h16.746c1.53.0001 1.84.2474 1.888.2946.047.0482.294.361.294 1.8898v6.5514c0 1.5331-.248 1.8431-.294 1.8898-.048.0474-.359.2945-1.888.2946h-31.9898c-1.5272 0-1.8403-.2466-1.8888-.2946-.0467-.0467-.2943-.3567-.2944-1.8898v-7.7332c0-1.43.0557-2.3451.2149-3.0891.1492-.6962.4019-1.3028.8929-2.062l18.7812-28.7789c3.06-4.6511 4.801-10.3554 4.801-14.6194 0-2.4556-.369-4.614-1.692-6.1222-1.384-1.5762-3.407-2.0051-5.571-2.0052-2.114 0-4.075.481-5.457 1.9667-1.352 1.4544-1.807 3.5102-1.807 5.8381v5.8006c0 1.529-.247 1.8409-.295 1.8889-.046.0468-.356.2954-1.8885.2955h-6.6551c-1.5279 0-1.8405-.2476-1.8887-.2955-.0473-.0475-.2944-.3584-.2944-1.8889v-3.2219c0-8.2864 1.2946-13.649 4.0308-16.9576 2.6605-3.2171 7.0289-4.8828 14.2549-4.8828z"/><path d="m121.717 0c9.133.00007693 14.787 2.54164 17.836 7.6248l-13.027 12.0661c.013.0188.025.038.037.0568-3.037-4.5985-8.394-6.9601-16.794-7.0837l-.702-.0061c-2.378 0-4.507.1746-6.407.5358-.132.0251-.263.0518-.393.0787-3.3152.6871-5.9131 1.9639-7.8969 3.9002l-.0271.0271c-.0188.0185-.0381.0365-.0568.0551l12.5908-12.59845c3.179-3.20179 7.977-4.65635 14.84-4.65635z"/><path d="m30.936 0c7.5632 0 12.741 1.74341 16.0289 5.22976l-12.0767 13.30824c-.0218-.0264-.0447-.052-.0673-.0778-3.1558-3.7521-8.2565-5.6848-15.8331-5.7962l-.7024-.0061c-2.2048 0-4.1963.1507-5.9894.4606-.069.0119-.1378.0235-.2062.0359-.0788.0143-.157.0296-.235.0446-.1195.0228-.2379.0465-.3556.0708-.0344.0071-.0688.0137-.1031.0209-.139.0294-.2767.0603-.4132.0918-3.11244.7178-5.56751 1.983-7.45879 3.8557.01098-.0109.02131-.0224.03233-.0332-.01704.0167-.0346.0329-.05155.0498l12.59121-12.59845c3.1791-3.20191 7.9761-4.65634687 14.8399-4.65635z"/><path d="m76.6534 0c7.9348.00004838 13.1638 1.7307 16.3835 5.81803l-12.973 12.26537c-.0282-.0331-.0579-.065-.0865-.0979-3.1432-3.6151-8.0415-5.2225-15.2539-5.3215l-.7216-.0061c-7.1649 0-12.1223 1.4125-15.3877 4.6957.032-.0322.063-.0653.0953-.0971-.0199.0195-.0397.039-.0594.0586l12.6209-12.62729c3.2654-3.27827 8.2223-4.68781 15.3824-4.68781z"/><path d="m167.227 0c7.336 0 12.434 1.58035 15.712 5.06717l-13.133 12.17103c-.014-.013-.028-.0256-.041-.0385.019.018.037.037.055.0551-3.287-3.1581-8.247-4.5969-15.244-4.5969-6.956 0-11.817 1.3457-15.055 4.506l-.028.028c-.015.0155-.032.0306-.048.0463l12.581-12.58797c3.237-3.26385 8.14-4.65018444 15.201-4.65023z"/><g clip-rule="evenodd" fill-rule="evenodd"><path d="m27.1953 163.969-11.4032 11.511c.1779.17.4432.306.7692.375.0486.011.0986.019.1498.027-.012-.002-.024-.004-.0358-.006.1906.031.399.045.6439.045h1.1811c5.8233 0 8.5239-2.621 8.6871-9.132l.0079-.642z"/><path d="m64.0019 80.3266-.2321-.003c-.0687-.0016-.1366-.0039-.2039-.0067l-.0188-.0007c-.091-.0038-.1814-.0075-.2707-.0145-1.3791-.1086-2.5445-.5775-3.3097-1.2601l9.51-9.5146v4.7849l-.0052.395c-.0999 3.8345-1.6847 5.4751-5.011 5.6092-.0038.0001-.0075.0007-.0113.0008-.1458.0058-.2949.0097-.4473.0097z"/><path d="m160.261 74.7069.005-.395v-4.7849l-9.51 9.5146c.836.769 2.119 1.2337 3.688 1.2806l.347.0044c3.64-.0001 5.365-1.613 5.47-5.6197z"/><path d="m188.806 175.293 10.622-9.542v5.23l-.005.395c-.106 3.824-1.785 5.466-5.374 5.608-.17.007-.345.01-.524.01l-.315-.003c-1.333-.032-2.424-.273-3.277-.755-.03-.017-.059-.034-.089-.052-.369-.22-.761-.572-1.038-.891z"/><path d="m291.664 171.376.006-.395v-5.533l-9.668 10.262c.856.74 2.196 1.235 3.739 1.281l.346.003c.155 0 .307-.003.456-.009l.014-.001c3.327-.137 5.001-1.778 5.107-5.608z"/><path d="m496.709 268.045.005-.396v-4.784l-9.51 9.515c.834.746 2.143 1.234 3.688 1.28l.347.004c3.64 0 5.365-1.613 5.47-5.619z"/><path d="m451.072 268.045.006-.396v-5.23l-10.622 9.542c.222.246.596.605.876.79.081.053.165.105.251.154.918.519 2.113.759 3.59.759.18 0 .355-.005.526-.011l.016-.001c3.578-.146 5.252-1.789 5.357-5.607z"/><path d="m359.188 262.422-9.668 10.261c.857.717 2.224 1.238 3.739 1.283l.347.004c3.639 0 5.465-1.613 5.576-5.62l.006-.395z"/></g></g></svg>