<svg fill="none" height="281" viewBox="0 0 522 281" width="522" xmlns="http://www.w3.org/2000/svg"><g fill="#102775"><path d="m19.7177 99.1313c20.9157 0 25.1642 7.6257 25.1642 26.1447v29.412c0 18.52-4.2485 26.145-25.1642 26.145h-13.29011c-3.15913 0-4.03062-.871-4.03062-4.031v-73.64c0-3.159.87149-4.0307 4.03062-4.0307zm-.3268 15.2507c-1.5251 0-1.9608.436-1.9608 1.961v47.278c0 1.416.4357 1.961 1.9608 1.961h1.1983c6.1004 0 8.8238-2.832 8.8238-9.913v-31.374c0-7.08-2.7234-9.913-8.8238-9.913z"/><path d="m53.633 180.833h-5.12c-3.1591 0-4.0306-.871-4.0306-4.031v-7.189c0-3.16.8715-4.031 4.0306-4.031h5.3379c3.8127 0 5.5557-1.743 5.5557-6.1v-43.684c0-1.525-.4357-1.96-1.9608-1.96h-5.3379c-3.1591 0-4.0306-.872-4.0306-4.031v-6.645c0-3.159.8715-4.0307 4.0306-4.0307h18.3012c3.1591 0 4.0306.8717 4.0306 4.0307v53.705c0 17.539-5.2289 23.966-20.8067 23.966z"/><path d="m93.3373 176.802c0 3.16-.8715 4.031-4.0306 4.031h-6.9719c-3.1591 0-4.0306-.871-4.0306-4.031v-27.887c0-4.793.2179-6.754 1.5251-11.112l9.9131-33.225c1.3073-4.575 2.3966-5.4467 8.0613-5.4467h3.9213c5.665 0 6.754.8717 8.062 5.4467l9.913 33.225c1.307 4.249 1.525 6.319 1.525 11.112v27.887c0 3.16-.872 4.031-4.031 4.031h-6.972c-3.159 0-4.03-.871-4.03-4.031v-14.379c0-1.525-.436-1.961-1.961-1.961h-8.9328c-1.5251 0-1.9609.436-1.9609 1.961zm11.2207-31.591c1.198 0 1.852-.436 1.852-1.416 0-.545-.109-1.089-.218-1.634l-5.011-21.025c-.218-1.089-.436-1.307-1.4165-1.307-.9804 0-1.1983.218-1.4161 1.307l-5.0111 21.025c-.1089.545-.2179 1.089-.2179 1.634 0 .98.6537 1.416 1.8519 1.416z"/><path d="m153.099 126.038c.545.981.763 1.199 1.416 1.199.654 0 .872-.327.872-1.09v-22.985c0-3.159.871-4.0307 4.03-4.0307h6.646c3.159 0 4.03.8717 4.03 4.0307v73.64c0 3.16-.871 4.031-4.03 4.031h-6.646c-3.159 0-4.03-.871-4.03-4.031v-14.924c0-5.12-.763-6.972-2.615-10.458l-10.131-18.845c-.544-.981-.762-1.199-1.416-1.199-.653 0-.871.327-.871 1.09v44.336c0 3.16-.872 4.031-4.031 4.031h-6.645c-3.159 0-4.031-.871-4.031-4.031v-73.64c0-3.159.872-4.0307 4.031-4.0307h4.249c4.03 0 5.555.6536 7.843 5.1197z"/><path d="m204.193 151.747c0-1.525-.436-1.961-1.961-1.961h-1.307c-3.159 0-4.031-.871-4.031-4.03v-7.19c0-3.159.872-4.031 4.031-4.031h13.835c3.159 0 4.03.872 4.03 4.031v19.391c0 17.538-5.229 23.965-21.024 23.965-15.796 0-21.025-6.427-21.025-23.965v-35.949c0-17.539 5.229-23.9659 21.025-23.9659 15.795 0 20.806 6.4269 20.806 23.9659v.545c0 3.159-.871 4.03-4.03 4.03h-6.972c-3.159 0-4.031-.871-4.031-4.03v-3.16c0-4.357-1.852-6.1-5.664-6.1-3.813 0-5.665 1.743-5.665 6.1v41.178c0 4.358 1.961 6.1 5.992 6.1 4.139 0 5.991-1.742 5.991-6.1z"/><path d="m265.973 156.867c0 18.411-5.229 25.056-21.025 25.056-15.795 0-21.024-6.645-21.024-25.056v-33.77c0-18.301 5.229-25.0548 21.024-25.0548 15.796 0 21.025 6.7538 21.025 25.0548zm-26.58 3.704c0 4.358 1.743 6.101 5.555 6.101 3.813 0 5.556-1.743 5.556-6.101v-40.633c0-4.793-1.743-6.645-5.556-6.645-3.812 0-5.555 1.852-5.555 6.645z"/><path d="m312.831 154.689v3.268c0 17.538-5.011 23.966-20.806 23.966-15.796 0-21.025-6.428-21.025-23.966v-35.949c0-17.539 5.229-23.9658 21.025-23.9658 15.795 0 20.806 6.4268 20.806 23.9658v3.268c0 3.159-.871 4.031-4.03 4.031h-6.972c-3.159 0-4.031-.872-4.031-4.031v-5.882c0-4.358-1.852-6.101-5.664-6.101-3.813 0-5.665 1.743-5.665 6.101v41.177c0 4.358 1.852 6.101 5.665 6.101 3.812 0 5.664-1.743 5.664-6.101v-5.882c0-3.159.872-4.031 4.031-4.031h6.972c3.159 0 4.03.872 4.03 4.031z"/><path d="m360.213 156.867c0 18.411-5.229 25.056-21.024 25.056-15.796 0-21.025-6.645-21.025-25.056v-33.77c0-18.301 5.229-25.0548 21.025-25.0548 15.795 0 21.024 6.7538 21.024 25.0548zm-26.58 3.704c0 4.358 1.743 6.101 5.556 6.101 3.812 0 5.555-1.743 5.555-6.101v-40.633c0-4.793-1.743-6.645-5.555-6.645-3.813 0-5.556 1.852-5.556 6.645z"/><path d="m391.914 126.038c.544.981.762 1.199 1.416 1.199.653 0 .871-.327.871-1.09v-22.985c0-3.159.872-4.0307 4.031-4.0307h6.645c3.159 0 4.031.8717 4.031 4.0307v73.64c0 3.16-.872 4.031-4.031 4.031h-6.645c-3.159 0-4.031-.871-4.031-4.031v-14.924c0-5.12-.762-6.972-2.614-10.458l-10.131-18.845c-.545-.981-.763-1.199-1.416-1.199-.654 0-.872.327-.872 1.09v44.336c0 3.16-.871 4.031-4.03 4.031h-6.645c-3.16 0-4.031-.871-4.031-4.031v-73.64c0-3.159.871-4.0307 4.031-4.0307h4.248c4.031 0 5.556.6536 7.843 5.1197z"/><path d="m497.866 128.217 13.944 12.637c7.298 6.536 8.933 10.457 8.933 17.756v1.961c0 13.726-5.229 21.351-21.025 21.351s-21.025-6.427-21.025-23.965v-2.179c0-3.159.872-4.031 4.031-4.031h7.408c3.159 0 4.03.872 4.03 4.031v4.793c0 4.357 1.743 6.1 5.556 6.1s5.556-1.634 5.556-5.555v-2.07c0-3.05-.654-4.575-4.685-8.17l-13.072-11.656c-7.299-6.428-8.824-10.131-8.824-17.43v-2.397c0-13.726 5.229-21.3511 21.025-21.3511s21.025 6.4271 21.025 23.9661v2.178c0 3.16-.872 4.031-4.031 4.031h-7.408c-3.159 0-4.03-.871-4.03-4.031v-4.793c0-4.357-1.743-6.1-5.556-6.1s-5.556 1.634-5.556 5.556v1.852c0 3.159.654 4.684 3.704 7.516z"/><path d="m459.313 103.162c0-3.159.871-4.0307 4.031-4.0307h6.971c3.16 0 4.031.8717 4.031 4.0307v54.795c0 17.538-5.229 23.965-21.025 23.965-15.795 0-21.024-6.427-21.024-23.965v-54.795c0-3.159.871-4.0307 4.03-4.0307h6.972c3.159 0 4.031.8717 4.031 4.0307v57.409c0 4.357 1.852 6.1 5.991 6.1 4.031 0 5.992-1.743 5.992-6.1z"/><path d="m262.426 252.731v3.268c0 17.538-5.011 23.966-20.807 23.966-15.795 0-21.024-6.428-21.024-23.966v-35.949c0-17.539 5.229-23.966 21.024-23.966 15.796 0 20.807 6.427 20.807 23.966v3.268c0 3.159-.871 4.031-4.031 4.031h-6.971c-3.16 0-4.031-.872-4.031-4.031v-5.882c0-4.358-1.852-6.101-5.665-6.101s-5.664 1.743-5.664 6.101v41.177c0 4.358 1.851 6.101 5.664 6.101s5.665-1.743 5.665-6.101v-5.882c0-3.159.871-4.031 4.031-4.031h6.971c3.16 0 4.031.872 4.031 4.031z"/><path d="m295.4 275.155v-29.412c0-1.526-.436-1.961-1.961-1.961h-8.932c-1.525 0-1.961.435-1.961 1.961v29.412c0 3.159-.872 4.031-4.031 4.031h-6.972c-3.159 0-4.03-.872-4.03-4.031v-73.64c0-3.159.871-4.031 4.03-4.031h6.972c3.159 0 4.031.872 4.031 4.031v25.055c0 1.416.436 1.961 1.961 1.961h8.932c1.525 0 1.961-.545 1.961-1.961v-25.055c0-3.159.872-4.031 4.031-4.031h6.972c3.159 0 4.03.872 4.03 4.031v73.64c0 3.159-.871 4.031-4.03 4.031h-6.972c-3.159 0-4.031-.872-4.031-4.031z"/><path d="m333.239 201.515v73.64c0 3.159-.871 4.031-4.03 4.031h-6.972c-3.159 0-4.031-.872-4.031-4.031v-73.64c0-3.159.872-4.031 4.031-4.031h6.972c3.159 0 4.03.872 4.03 4.031z"/><path d="m381.347 253.041v3.268c0 17.539-5.011 23.966-20.807 23.966-15.795 0-21.024-6.427-21.024-23.966v-35.949c0-17.538 5.229-23.965 21.024-23.965 15.796 0 20.807 6.427 20.807 23.965v3.268c0 3.16-.872 4.031-4.031 4.031h-6.972c-3.159 0-4.03-.871-4.03-4.031v-5.882c0-4.357-1.852-6.1-5.665-6.1s-5.665 1.743-5.665 6.1v41.178c0 4.357 1.852 6.1 5.665 6.1s5.665-1.743 5.665-6.1v-5.883c0-3.159.871-4.031 4.03-4.031h6.972c3.159 0 4.031.872 4.031 4.031z"/><path d="m399.939 274.845c0 3.159-.871 4.03-4.03 4.03h-6.972c-3.159 0-4.031-.871-4.031-4.03v-27.888c0-4.793.218-6.754 1.525-11.111l9.913-33.226c1.308-4.575 2.397-5.446 8.062-5.446h3.921c5.665 0 6.754.871 8.062 5.446l9.913 33.226c1.307 4.248 1.525 6.318 1.525 11.111v27.888c0 3.159-.872 4.03-4.031 4.03h-6.972c-3.159 0-4.03-.871-4.03-4.03v-14.38c0-1.525-.436-1.961-1.961-1.961h-8.933c-1.525 0-1.961.436-1.961 1.961zm11.221-31.592c1.198 0 1.852-.435 1.852-1.416 0-.545-.109-1.089-.218-1.634l-5.011-21.024c-.218-1.09-.436-1.308-1.416-1.308-.981 0-1.199.218-1.417 1.308l-5.011 21.024c-.109.545-.218 1.089-.218 1.634 0 .981.654 1.416 1.852 1.416z"/><path d="m459.563 249.789c0-1.525-.436-1.96-1.961-1.96h-1.307c-3.159 0-4.031-.872-4.031-4.031v-7.19c0-3.159.872-4.03 4.031-4.03h13.835c3.159 0 4.03.871 4.03 4.03v19.391c0 17.538-5.228 23.966-21.024 23.966s-21.025-6.428-21.025-23.966v-35.949c0-17.539 5.229-23.966 21.025-23.966s20.807 6.427 20.807 23.966v.545c0 3.159-.872 4.03-4.031 4.03h-6.972c-3.159 0-4.031-.871-4.031-4.03v-3.159c0-4.358-1.851-6.101-5.664-6.101s-5.665 1.743-5.665 6.101v41.177c0 4.358 1.961 6.101 5.992 6.101 4.139 0 5.991-1.743 5.991-6.101z"/><path d="m521.343 254.909c0 18.411-5.229 25.056-21.024 25.056-15.796 0-21.025-6.645-21.025-25.056v-33.77c0-18.301 5.229-25.055 21.025-25.055 15.795 0 21.024 6.754 21.024 25.055zm-26.58 3.704c0 4.358 1.743 6.101 5.556 6.101 3.812 0 5.555-1.743 5.555-6.101v-40.633c0-4.793-1.743-6.645-5.555-6.645-3.813 0-5.556 1.852-5.556 6.645z"/><path d="m153.34 33.1164c0 .3268.109.4358.327.4358s.436-.109.762-.3268c2.07-1.4162 4.358-2.2877 8.933-2.2877 10.349 0 16.558 5.8825 16.558 21.3514v9.2595c0 15.7957-5.773 22.3318-21.024 22.3318-15.796 0-21.025-6.6451-21.025-25.0552v-33.77c0-18.41013 5.229-25.0552 20.807-25.0552 15.033 0 20.807 6.53614 20.807 22.3318v.4357c0 3.1592-.872 4.0307-4.031 4.0307h-6.754c-3.159 0-4.031-.8715-4.031-4.0307v-2.5055c0-3.5949-1.852-5.011-5.664-5.011-3.922 0-5.665 1.743-5.665 6.1004zm11.111 29.4126v-10.2399c0-4.3574-1.743-6.1004-5.555-6.1004-3.813 0-5.556 1.743-5.556 6.1004v10.2399c0 4.3575 1.743 6.1004 5.556 6.1004 3.812 0 5.555-1.7429 5.555-6.1004z"/><path d="m87.7884 58.8252c0 18.4101-5.2289 25.0552-21.0246 25.0552-15.7956 0-21.0245-6.6451-21.0245-25.0552v-33.77c0-18.30119 5.2289-25.0552 21.0245-25.0552 15.7957 0 21.0246 6.75401 21.0246 25.0552zm-15.4689-37.4738c0-4.3574-1.7429-6.1004-5.5557-6.1004-3.8127 0-5.5557 1.743-5.5557 6.1004v41.1776c0 4.3575 1.743 6.1004 5.5557 6.1004 3.8128 0 5.5557-1.7429 5.5557-6.1004z"/><path d="m19.0637 65.5792c-.8715 1.4162-.5446 2.5055 1.3073 2.5055h16.9939c3.1591 0 4.0306.8715 4.0306 4.0307v6.645c0 3.1592-.8715 4.0307-4.0306 4.0307h-32.4628c-3.15913 0-4.030615-.8715-4.030615-4.0307v-7.8433c0-2.9413.217875-4.3575 1.416165-6.2094l19.06375-29.1947c2.9412-4.4664 4.5753-9.9131 4.5753-13.8348 0-4.7932-1.5251-6.4272-5.5557-6.4272-3.8128 0-5.5558 1.743-5.5558 6.1004v5.8825c0 3.1591-.8714 4.0306-4.0306 4.0306h-6.75398c-3.159135 0-4.03062-.8715-4.03062-4.0306v-3.2681c0-16.99392 5.22891-23.9658 20.371-23.9658 15.3599 0 21.0245 7.08081 21.0245 21.2424 0 6.1004-2.1787 12.7455-6.754 19.8263z"/><path d="m111.187 65.5792c-.872 1.4162-.545 2.5055 1.307 2.5055h16.994c3.159 0 4.031.8715 4.031 4.0307v6.645c0 3.1592-.872 4.0307-4.031 4.0307h-32.4629c-3.1591 0-4.0306-.8715-4.0306-4.0307v-7.8433c0-2.9413.2179-4.3575 1.4162-6.2094l19.0633-29.1947c2.942-4.4664 4.576-9.9131 4.576-13.8348 0-4.7932-1.525-6.4272-5.556-6.4272-3.813 0-5.556 1.743-5.556 6.1004v5.8825c0 3.1591-.871 4.0306-4.03 4.0306h-6.7543c-3.1592 0-4.0307-.8715-4.0307-4.0306v-3.2681c0-16.99392 5.229-23.9658 20.371-23.9658 15.36 0 21.025 7.08081 21.025 21.2424 0 6.1004-2.179 12.7455-6.754 19.8263z"/></g></svg>