<?xml version="1.0" encoding="utf-8"?>
<!-- Generator: Adobe Illustrator 23.0.1, SVG Export Plug-In . SVG Version: 6.00 Build 0)  -->
<svg version="1.1" id="Layer_1" xmlns="http://www.w3.org/2000/svg" xmlns:xlink="http://www.w3.org/1999/xlink" x="0px" y="0px"
	 viewBox="0 0 250 65" style="enable-background:new 0 0 250 65;" xml:space="preserve">
<style type="text/css">
	.st0{fill:#0A51A4;}
</style>
<g>
	<path class="st0" d="M32.8,23.02l-4.82-0.04c-1.22-4.63-3.44-7.72-6.61-9.2C15.39,11,7.54,14.56,7.46,14.6l-2.14-4.52
		c0.4-0.19,9.98-4.64,18.15-0.84c2.87,1.34,5.18,3.48,6.9,6.42c2.13-4.3,5.79-9.75,11.42-12.32c4.77-2.17,10.04-1.93,15.66,0.74
		L55.32,8.6c-4.28-2.03-8.02-2.26-11.44-0.71C36.16,11.4,32.83,22.9,32.8,23.02z"/>
	<path class="st0" d="M217.1,63.12l-4.74-0.88c-0.4-4.76-2.04-8.19-4.89-10.19c-5.45-3.83-13.77-1.64-13.86-1.62l-1.32-4.82
		c0.43-0.12,10.63-2.83,18.02,2.33c2.6,1.82,4.5,4.33,5.68,7.52c2.84-3.86,7.39-8.59,13.39-10.15c5.08-1.31,10.22-0.15,15.3,3.45
		l-2.89,4.08c-3.87-2.74-7.51-3.62-11.14-2.69C222.43,52.25,217.15,63.01,217.1,63.12z"/>
</g>
</svg>
