<?xml version="1.0" encoding="utf-8"?>
<!-- Generator: Adobe Illustrator 23.0.1, SVG Export Plug-In . SVG Version: 6.00 Build 0)  -->
<svg version="1.1" id="Layer_1" xmlns="http://www.w3.org/2000/svg" xmlns:xlink="http://www.w3.org/1999/xlink" x="0px" y="0px"
	 viewBox="0 0 1545 615" style="enable-background:new 0 0 1545 615;" xml:space="preserve">
<style type="text/css">
	.st0{fill:#D19FDD;}
	.st1{fill:#063760;}
	.st2{fill:#4A2C7A;}
	.st3{fill:#5A51B7;}
	.st4{fill:#914E9B;}
	.st5{fill:#CE5184;}
	.st6{fill:#F47E76;}
	.st7{fill:#F98FB0;}
	.st8{fill:#8F85CC;}
	.st9{fill:#F7B07C;}
	.st10{fill:#F27979;}
	.st11{fill:#F9D8B4;}
	.st12{fill:#F9E7DC;}
	.st13{fill:#F9C5A2;}
	.st14{fill:#FCEDDE;}
	.st15{fill:#C5B9F9;}
	.st16{fill:#F9D0B4;}
	.st17{fill:#FCD077;}
	.st18{fill:#F9F4F4;}
	.st19{fill:#E2DEFC;}
	.st20{fill:#F9A7A7;}
</style>
<g>
	<rect x="39.57" y="407.85" class="st0" width="1463.09" height="201.91"/>
	<rect x="38.23" y="5.23" class="st1" width="1462.64" height="468.72"/>
	<rect x="38.23" y="317.72" class="st2" width="1462.64" height="156.24"/>
	<polygon class="st1" points="1511.25,5.25 1511.25,124.57 1475.65,123.53 1475.65,383.82 38.02,383.82 38.02,109.8 1000.33,109.8 
		681.05,100.57 1490.02,5.38 	"/>
	<path class="st1" d="M21.91,196.25c0-14.25,0-28.5,0-42.74c0-11.31,0-22.62,0-33.93l1503.49-29.02
		c-0.12,20.28,0.28,84.81,0.27,114.05L21.91,196.25z"/>
	<path class="st3" d="M13.54,433.13c0.26,16.47-0.63,74.5-0.52,96.52l1493.43,30.84V326.13L13.54,433.13z"/>
	<path class="st4" d="M1506.18,381.83c0-1.01,0-2.01,0-2.99L23.82,337.35c0,8.52,0,19.04,0,27.56c0,2.29-0.26,14.39-0.47,28.31
		L1506.18,381.83z"/>
	<path class="st1" d="M1533.25,324.56c0-12.69,0-25.38,0-38.07c0-10.07,0-20.15,0-30.22L18.58,230.43
		c0.12,18.06-0.28,75.54-0.28,101.58L1533.25,324.56z"/>
	<path class="st1" d="M1540.88,324.46L4.12,307.05v31.89l1536.75-5.02C1540.88,330.77,1540.88,327.61,1540.88,324.46z"/>
	<path class="st1" d="M1516.6,167.77c0-0.1,0-0.27,0.01-0.5L9.87,155.42v22.05l1506.51-3.41
		C1516.48,170.95,1516.6,168.37,1516.6,167.77z"/>
	<path class="st5" d="M52.43,360.25c0,0.79,0,1.58,0,2.37l1461.22,16.99v-67.9L52.43,360.25z"/>
	<path class="st6" d="M1326.86,578.81c0-125.5-101.74-227.25-227.25-227.25S872.37,453.3,872.37,578.81
		c0,10.5,0.73,20.83,2.11,30.96h450.28C1326.13,599.64,1326.86,589.31,1326.86,578.81z"/>
	<path class="st7" d="M5.33,450.27c0,7.52,0,15.05,0,22.57l1262.51-5.05L5.33,450.27z"/>
	<path class="st8" d="M1532.88,556.03c0-3.83,0-7.67,0-11.5l-838.89,13.91l838.89,4.01
		C1532.88,560.31,1532.88,558.17,1532.88,556.03z"/>
	<path class="st9" d="M1524.52,492.8l-1506.8,33.7l1506.8,9.71C1524.52,522.36,1524.52,506.7,1524.52,492.8z"/>
	<polygon class="st10" points="1538.89,387.42 1538.89,445.11 674.76,432.21 	"/>
</g>
</svg>
