<?xml version="1.0" encoding="utf-8"?>
<!-- Generator: Adobe Illustrator 22.0.1, SVG Export Plug-In . SVG Version: 6.00 Build 0)  -->
<svg version="1.1" id="Layer_1" xmlns="http://www.w3.org/2000/svg" xmlns:xlink="http://www.w3.org/1999/xlink" x="0px" y="0px"
	 viewBox="0 0 320 400" style="enable-background:new 0 0 320 400;" xml:space="preserve">
<style type="text/css">
	.st0{fill:#9B5851;}
	.st1{fill:#1E1E1E;}
	.st2{fill:#B7DB53;}
</style>
<g>
	<path class="st0" d="M148.1,374.8c0,0,55-52,2-211l25-18c0,0,57,131,13,246L148.1,374.8z"/>
	<path class="st1" d="M181.9,391.1c-0.1,0.4-0.5,0.6-0.8,0.6c-0.1,0-0.2,0-0.3-0.1c-0.5-0.2-0.7-0.7-0.5-1.2
		c22.6-59.2,17.9-122.7,10-165.6c-6.5-34.9-16.1-62.1-20.5-73.7c-0.2-0.6-0.5-1.2-0.7-1.8c-0.6-1.4-1-2.5-1.3-3.2l-1.8,1.3l-1.5,1.1
		l-18.9,13.6l-1.4,1c0,0.1,0.1,0.2,0.1,0.4c0.5,1.6,1.1,3.3,1.6,5c0.2,0.6,0.4,1.3,0.6,1.9c14.3,44.9,27.5,106.3,16.3,157.7
		c-7.1,32.8-20.6,45.8-21.1,46.3c-0.4,0.3-0.9,0.3-1.3,0c-0.3-0.4-0.3-0.9,0-1.3c0.1-0.1,13.7-13.3,20.6-45.6
		c6.2-28.8,8.2-78.9-16.1-155.7c-0.2-0.6-0.4-1.3-0.6-1.9c-0.7-2.2-1.5-4.5-2.2-6.8c-0.1-0.4,0-0.8,0.3-1l0.5-0.4l1.5-1.1l19.3-13.9
		l1.5-1.1l2.2-1.6c0.2-0.2,0.5-0.2,0.8-0.1c0.3,0.1,0.5,0.3,0.6,0.5c0,0.1,0.8,1.8,2,5c0.2,0.6,0.5,1.2,0.7,1.8
		c4.6,12,14,39,20.4,73.3C200,267.6,204.7,331.5,181.9,391.1z"/>
	<g>
		<path class="st2" d="M151,49.5c-0.3,0.6-0.3,1.4,0,2s0.8,1.1,1.4,1.4c0.6,0.3,1.3,0.3,2,0l10.5-4.4c0.3-0.1,0.6-0.1,0.8,0.1
			c0.2,0.2,0.4,0.5,0.4,0.8v35.9c0,0.5-0.4,0.9-0.9,0.9h-14c-1.4,0-2.6,1.2-2.6,2.6s1.2,2.6,2.6,2.6h14c0.5,0,0.9,0.4,0.9,0.9v38.9
			c0,0.3-0.2,0.6-0.4,0.8s-0.6,0.2-0.8,0.1l-10.5-4.4c-0.7-0.3-1.3-0.3-2,0c-0.6,0.3-1.1,0.8-1.4,1.4c-0.3,0.6-0.3,1.4,0,2
			s0.8,1.1,1.4,1.4l13.2,5.5c0.5,0.2,0.7,0.7,0.5,1.2s-0.7,0.7-1.2,0.5l-0.6-0.2L141.8,154c0.2,0.3,0.2,0.8-0.1,1.1
			c-0.2,0.2-0.4,0.3-0.7,0.3c-0.2,0-0.4-0.1-0.6-0.2c-15.2-13.7-24.6-39.1-24.6-66.3c0-42.3,22.2-76.7,49.4-76.7
			c0.5,0,0.9,0.4,0.9,0.9v28.8c0,0.4-0.2,0.7-0.6,0.8l-13.2,5.5C151.8,48.4,151.3,48.9,151,49.5z"/>
	</g>
	<g>
		<path class="st2" d="M164.4,152.5c0,0.2-0.1,0.5-0.2,0.7c-0.2,0.2-0.4,0.3-0.6,0.3l-25.6,2.4c-0.4,0-0.7-0.1-0.9-0.5l-6.7-12.6
			c-0.3-0.6-0.9-1.1-1.5-1.3c-0.7-0.2-1.4-0.1-2,0.2s-1.1,0.9-1.3,1.5c-0.2,0.7-0.1,1.4,0.2,2l5.3,10.1c0.1,0.3,0.1,0.6,0,0.8
			c-0.1,0.3-0.4,0.4-0.7,0.5l-38.7,3.7c-0.2,0-0.5,0-0.7-0.2s-0.3-0.4-0.3-0.6l-1.3-13.9c-0.1-0.7-0.4-1.3-0.9-1.8
			c-0.5-0.4-1.2-0.7-1.9-0.6c-0.7,0.1-1.3,0.4-1.8,0.9c-0.4,0.5-0.7,1.2-0.6,1.9l1.3,13.9c0,0.5-0.3,0.9-0.8,1l-35.8,3.4
			c-0.3,0-0.6-0.1-0.8-0.3s-0.2-0.5-0.2-0.8l3.3-10.9c0.2-0.7,0.1-1.4-0.2-2s-0.9-1.1-1.5-1.3c-0.7-0.2-1.4-0.1-2,0.2
			s-1.1,0.9-1.3,1.5L42,164.4c-0.1,0.4-0.4,0.6-0.8,0.6l-28.6,2.7h-0.1c-0.2,0-0.4-0.1-0.6-0.2c-0.2-0.1-0.3-0.4-0.3-0.6
			c-1.2-13.2,5.6-26.4,19.2-37c13.5-10.6,32.2-17.4,52.5-19.4c20.3-1.9,39.9,1.4,55.2,9.2C153.9,127.6,163.1,139.3,164.4,152.5z"/>
	</g>
	<g>
		<path class="st2" d="M312.4,155.3c0,0.5-0.4,0.9-0.9,0.9h-28.8c-0.4,0-0.7-0.2-0.8-0.6l-5.5-13.2c-0.5-1.3-2.1-2-3.4-1.4
			c-0.6,0.3-1.1,0.8-1.4,1.4c-0.3,0.6-0.3,1.3,0,2L276,155c0.1,0.3,0.1,0.6-0.1,0.8s-0.4,0.4-0.8,0.4h-35.9c-0.5,0-0.9-0.4-0.9-0.9
			v-14c0-1.4-1.2-2.6-2.6-2.6s-2.6,1.2-2.6,2.6v14c0,0.5-0.4,0.9-0.9,0.9h-38.9c-0.3,0-0.6-0.1-0.8-0.4c-0.2-0.2-0.2-0.6-0.1-0.8
			l4.4-10.5c0.5-1.3-0.1-2.9-1.4-3.4c-0.6-0.3-1.4-0.3-2,0s-1.1,0.8-1.4,1.4l-5.5,13.2c-0.1,0.3-0.5,0.6-0.8,0.6H160
			c-0.5,0-0.9-0.4-0.9-0.9c0-27.2,34.4-49.4,76.7-49.4S312.4,128.1,312.4,155.3z"/>
	</g>
	<g>
		<path class="st2" d="M262.4,64.8L242,85.1c-0.3,0.2-0.7,0.3-1,0.2l-13.2-5.5c-0.6-0.3-1.4-0.3-2,0s-1.1,0.8-1.4,1.4
			c-0.3,0.6-0.3,1.3,0,2c0.3,0.6,0.8,1.1,1.4,1.4l10.5,4.4c0.3,0.1,0.5,0.4,0.5,0.6c0.1,0.3,0,0.6-0.2,0.8l-25.4,25.4
			c-0.3,0.3-0.9,0.3-1.3,0l-9.9-9.9c-1-1-2.7-1-3.7,0c-0.5,0.5-0.8,1.1-0.8,1.8c0,0.7,0.3,1.3,0.8,1.8l9.9,9.9
			c0.3,0.3,0.3,0.9,0,1.3l-27.5,27.5c-0.2,0.2-0.5,0.3-0.8,0.2s-0.5-0.3-0.7-0.5l-4.4-10.5c-0.3-0.6-0.8-1.1-1.4-1.4
			c-0.7-0.3-1.3-0.3-2,0s-1.2,0.8-1.4,1.4c-0.3,0.6-0.3,1.3,0,2l4.5,14.3c0.1,0.3,0,0.7-0.2,0.9l-12.1,12.1l-5,4.7L144.9,182
			c-0.3,0.2-0.6,0.3-1,0.2l-13.2-5.5c-0.6-0.3-1.3-0.3-2,0c-0.6,0.3-1.1,0.8-1.4,1.4c-0.3,0.6-0.3,1.3,0,2c0.3,0.6,0.8,1.1,1.4,1.4
			l10.5,4.4c0.3,0.1,0.5,0.4,0.5,0.7c0.1,0.3,0,0.6-0.2,0.8L112,214.9c-0.4,0.3-0.9,0.3-1.3,0l-9.9-9.9c-1-1-2.7-1-3.7,0
			s-1,2.7,0,3.7l9.9,9.9c0.3,0.3,0.3,0.9,0,1.3l-25.4,25.4c-0.2,0.2-0.5,0.3-0.8,0.2s-0.5-0.3-0.6-0.5l-4.4-10.5
			c-0.6-1.3-2.1-1.9-3.4-1.4s-2,2.1-1.4,3.4l5.5,13.2c0.1,0.3,0.1,0.7-0.2,1L56,270.9c-0.2,0.2-0.4,0.3-0.6,0.3
			c-0.2,0-0.5-0.1-0.6-0.3c-19.3-19.3-10.6-59.2,19.3-89.1c21.6-21.6,49.1-32.8,70.4-28.8c-1.2-6.7-1-14.2,0.9-22.3
			c3.8-16.6,13.7-33.6,28-47.9c29.9-29.9,69.9-38.5,89.1-19.3C262.7,63.9,262.7,64.4,262.4,64.8z"/>
	</g>
	<path class="st1" d="M231.8,100.9c-5.6,0-11.3,0.4-16.7,1.2l15.6-15.6c0.2-0.2,0.3-0.5,0.2-0.8s-0.3-0.5-0.5-0.7l-10.5-4.4
		c-0.6-0.3-1.1-0.8-1.4-1.4c-0.3-0.6-0.3-1.4,0-2s0.8-1.1,1.4-1.4c0.6-0.3,1.4-0.3,2,0l13.2,5.5c0.3,0.1,0.7,0.1,1-0.2l20.3-20.3
		c0.3-0.3,0.3-0.9,0-1.3c-19.3-19.3-59.2-10.6-89.1,19.3c-2.8,2.8-5.4,5.7-7.8,8.6h-12.1c-1.4,0-2.6-1.2-2.6-2.6s1.2-2.6,2.6-2.6h14
		c0.5,0,0.9-0.4,0.9-0.9V45.4c0-0.3-0.1-0.6-0.4-0.8s-0.6-0.2-0.8-0.1l-10.5,4.4c-0.7,0.3-1.4,0.3-2,0s-1.1-0.8-1.4-1.4
		c-0.5-1.3,0.1-2.8,1.4-3.4l13.2-5.5c0.3-0.1,0.6-0.5,0.6-0.8V9.1c0-0.5-0.4-0.9-0.9-0.9c-27.2,0-49.4,34.4-49.4,76.7
		c0,8.1,0.8,16.1,2.4,23.7c-10.8-2.4-22.7-3.1-34.9-2c-20.3,1.9-38.9,8.8-52.5,19.4c-13.6,10.7-20.5,23.8-19.2,37
		c0,0.2,0.1,0.5,0.3,0.6c0.2,0.1,0.4,0.2,0.6,0.2h0.1l28.6-2.7c0.4,0,0.7-0.3,0.8-0.6l4.2-13.7c0.2-0.7,0.6-1.2,1.3-1.5
		c0.6-0.3,1.3-0.4,2-0.2s1.2,0.7,1.5,1.3s0.4,1.3,0.2,2L44,159.2c-0.1,0.3,0,0.6,0.2,0.8s0.5,0.4,0.8,0.3l35.8-3.4
		c0.5-0.1,0.9-0.5,0.8-1L80.1,142c-0.1-0.7,0.1-1.4,0.6-1.9c0.4-0.5,1.1-0.9,1.8-0.9c0.7-0.1,1.4,0.1,1.9,0.6
		c0.5,0.4,0.9,1.1,0.9,1.8l1.3,13.9c0,0.5,0.5,0.9,1,0.8l12.5-1.1C88.9,160.3,77.9,168,68,177.8c-29.9,29.9-38.5,69.9-19.3,89.1
		c0.2,0.2,0.4,0.3,0.6,0.3c0.2,0,0.5-0.1,0.6-0.3l20.3-20.3c0.2-0.3,0.3-0.6,0.2-1L65,232.4c-0.5-1.3,0.1-2.8,1.4-3.4
		c1.3-0.5,2.8,0.1,3.4,1.4l4.4,10.5c0.1,0.3,0.4,0.5,0.7,0.5c0.3,0.1,0.6,0,0.8-0.2l25.4-25.4c0.3-0.3,0.3-0.9,0-1.3l-9.9-9.9
		c-1-1-1-2.7,0-3.7s2.7-1,3.7,0l9.9,9.9c0.3,0.3,0.9,0.3,1.3,0l27.5-27.5c0.2-0.2,0.3-0.5,0.2-0.8s-0.3-0.5-0.5-0.7l-10.5-4.4
		c-0.6-0.3-1.1-0.8-1.4-1.4c-0.3-0.6-0.3-1.4,0-2s0.8-1.1,1.4-1.4c0.6-0.3,1.4-0.3,2,0l13.2,5.5c0.3,0.1,0.7,0.1,1-0.2l10.5-10.5
		l5-4.7l11.6-11.6h15.8c0.4,0,0.7-0.2,0.8-0.6l5.5-13.2c0.3-0.6,0.8-1.1,1.4-1.4s1.4-0.3,2,0c1.3,0.5,2,2.1,1.4,3.4l-4.4,10.5
		c-0.1,0.3-0.1,0.6,0.1,0.8s0.5,0.4,0.8,0.4h38.9c0.5,0,0.9-0.4,0.9-0.9v-14c0-1.4,1.2-2.6,2.6-2.6s2.6,1.2,2.6,2.6v14
		c0,0.5,0.4,0.9,0.9,0.9h35.9c0.3,0,0.6-0.1,0.8-0.4s0.2-0.6,0.1-0.8l-4.4-10.5c-0.3-0.6-0.3-1.3,0-2c0.3-0.6,0.8-1.1,1.4-1.4
		c1.3-0.5,2.8,0.1,3.4,1.4l5.5,13.2c0.1,0.3,0.5,0.6,0.8,0.6h28.8c0.5,0,0.9-0.4,0.9-0.9C308.4,123.1,274,100.9,231.8,100.9z
		 M113.7,84.8c0-40.8,20.9-74.1,46.7-74.8v27.2l-12.7,5.2c-2.2,0.9-3.3,3.5-2.4,5.8c0.4,1.1,1.3,1.9,2.4,2.4c1.1,0.5,2.3,0.5,3.4,0
		l9.3-3.8v33.7h-13.1c-2.4,0-4.4,2-4.4,4.4s2,4.4,4.4,4.4H158c-7.6,9.6-13.3,20-16.7,30.4c-7.1-4.8-15.6-8.4-25-10.7
		C114.5,101.2,113.7,93.1,113.7,84.8z M88.3,154.4l-1.2-13c-0.1-1.2-0.7-2.2-1.6-3s-2-1.1-3.2-1s-2.2,0.7-3,1.6
		c-0.7,0.9-1.1,2-1,3.2l1.2,13L46,158.4l3-9.6c0.3-1.1,0.2-2.3-0.3-3.4c-0.6-1-1.5-1.8-2.6-2.1c-2.3-0.7-4.8,0.6-5.5,2.9l-4,13.1
		l-27.1,2.6c-0.8-12.3,5.8-24.5,18.6-34.5c13.2-10.4,31.5-17.1,51.5-19c23.5-2.2,45.7,2.6,61.1,13.1c-0.5,1.8-1,3.5-1.4,5.2
		c-1.8,8.1-2.1,15.6-0.9,22.3c-1.6-0.3-3.3-0.5-5-0.7l-5.5-10.4c-0.5-1-1.5-1.8-2.6-2.1s-2.3-0.2-3.4,0.3c-1,0.5-1.8,1.5-2.1,2.6
		c-0.3,1.1-0.2,2.3,0.3,3.4l3.4,6.4c-5.9,0.6-12,2.1-18.1,4.4l0,0c-0.1,0-0.2,0-0.3,0L88.3,154.4z M131.3,148.2
		c-1.9-0.1-3.9,0-5.8,0.1l-3.8-7.1c-0.3-0.6-0.4-1.3-0.2-2c0.2-0.7,0.7-1.2,1.3-1.5c0.6-0.3,1.3-0.4,2-0.2s1.2,0.7,1.5,1.3
		L131.3,148.2z M145.9,168.5l-7.8,7.8l-12.6-5.2c-1.1-0.5-2.3-0.5-3.4,0c-1.1,0.4-1.9,1.3-2.4,2.4c-0.5,1.1-0.5,2.3,0,3.4
		c0.4,1.1,1.3,1.9,2.4,2.4l9.3,3.8l-26,25.9l-9.3-9.3c-1.7-1.7-4.5-1.7-6.2,0s-1.7,4.5,0,6.2l9.3,9.3L75.4,239l-3.8-9.3
		c-0.9-2.2-3.5-3.3-5.8-2.4c-2.2,0.9-3.3,3.5-2.4,5.8l5.2,12.7L49.4,265c-17.7-18.8-9-57.1,19.9-85.9c18.3-18.4,41-29.1,60.2-29.1
		c3.2,0,6.3,0.3,9.3,0.9c0.9,3.9,2.4,7.6,4.3,10.8c0.4,0.6,0.8,1.2,1.2,1.8c0.9,1.3,1.9,2.5,2.9,3.6L145.9,168.5z M153.1,161.5
		l-4.6,4.4c-1.1-1.2-2.1-2.4-3-3.7c-0.3-0.5-0.7-1-1-1.5c-11.9-20.1-2.2-54.4,23.9-80.6C187.3,61.3,210,51,228.8,51
		c10.1,0,19,3,25.6,9.2l-19.3,19.3l-12.7-5.2c-1.1-0.5-2.3-0.5-3.4,0c-1.1,0.4-1.9,1.3-2.4,2.4c-0.4,1.1-0.4,2.3,0,3.4
		c0.5,1.1,1.3,1.9,2.4,2.4l9.3,3.8L211.6,103l-7.2,7.1l-9.3-9.3c-1.7-1.7-4.5-1.7-6.2,0s-1.7,4.5,0,6.2l9.3,9.3l-25.9,25.9l-3.8-9.3
		c-0.5-1.1-1.3-1.9-2.4-2.4c-1.1-0.4-2.3-0.4-3.4,0c-1.1,0.5-1.9,1.3-2.4,2.4c-0.5,1.1-0.5,2.3,0,3.3l3.4,10.6l0.6,1.8l0.4,1.2
		L153.1,161.5z M279.4,149.4l-5.2-12.7c-0.9-2.2-3.5-3.3-5.8-2.4c-1.1,0.5-1.9,1.3-2.4,2.4c-0.5,1.1-0.5,2.3,0,3.4l3.9,9.3h-33.7
		v-13.1c0-2.4-2-4.4-4.4-4.4s-4.4,2-4.4,4.4v13.1h-36.7l3.8-9.3c0.9-2.2-0.1-4.8-2.4-5.7c-1.1-0.4-2.3-0.4-3.4,0
		c-1.1,0.5-1.9,1.3-2.4,2.4l-5.2,12.7h-14.6l-0.6-1.9l-0.6-1.8l-3.2-10.2c-0.3-0.6-0.3-1.3,0-2c0.3-0.6,0.8-1.1,1.4-1.4
		c0.6-0.3,1.3-0.3,2,0c0.6,0.3,1.1,0.8,1.4,1.4l4.4,10.5c0.1,0.3,0.4,0.5,0.7,0.5s0.6,0,0.8-0.2l27.5-27.5c0.3-0.3,0.3-0.9,0-1.3
		l-9.9-9.9c-0.5-0.5-0.8-1.2-0.8-1.8c0-0.7,0.3-1.4,0.8-1.8c1-1,2.7-1,3.7,0l9.9,9.9c0.3,0.3,0.9,0.3,1.3,0l7.6-7.6
		c6.1-1,12.5-1.5,18.9-1.5c40.8,0,74.1,20.9,74.8,46.7h-27.2V149.4z"/>
</g>
</svg>
