<?xml version="1.0" encoding="utf-8"?>
<!-- Generator: Adobe Illustrator 22.0.1, SVG Export Plug-In . SVG Version: 6.00 Build 0)  -->
<svg version="1.1" id="Layer_1" xmlns="http://www.w3.org/2000/svg" xmlns:xlink="http://www.w3.org/1999/xlink" x="0px" y="0px"
	 viewBox="0 0 100 100" style="enable-background:new 0 0 100 100;" xml:space="preserve">
<style type="text/css">
	.st0{fill:#EA5397;}
	.st1{fill:#07C8E8;}
	.st2{fill:#1E1E1E;}
</style>
<g>
	<g>
		<path class="st0" d="M19.4,45.7c-1.1,0.5-2.3,0.7-3.4,0.7c-3.5,0-6.9-2.1-8.3-5.6c-1.9-4.6,0.3-9.9,4.9-11.8
			c0.3-0.1,0.5,0,0.7,0.3l3.1,7.4l7.4-3.1c0.1,0,0.3,0,0.4,0s0.2,0.2,0.3,0.3C26.2,38.5,24,43.8,19.4,45.7z"/>
	</g>
	<circle class="st1" cx="36.8" cy="46.6" r="3.7"/>
	<circle class="st1" cx="59.1" cy="37.4" r="3.7"/>
	<g>
		<path class="st0" d="M86.6,76c-2.4,5.7-6.8,10.1-12.5,12.5l-11.2,4.6c-2.8,1.2-5.8,1.8-8.8,1.8s-6-0.6-8.8-1.8
			c-5.7-2.4-10.1-6.8-12.5-12.5c-2.4-5.7-2.4-12,0-17.6c2.3-5.7,6.8-10.1,12.5-12.5l11.2-4.6c5.7-2.4,12-2.4,17.6,0
			c5.7,2.3,10.1,6.8,12.5,12.5C89,64.1,89,70.4,86.6,76z"/>
	</g>
	<circle class="st0" cx="67.8" cy="16.5" r="8.5"/>
	<path class="st2" d="M95.6,62.1l-11-0.6c-0.2-1.6-0.6-3.2-1.1-4.8l10.1-4.2c0.5-0.2,0.7-0.7,0.5-1.2c-0.2-0.5-0.7-0.7-1.2-0.5
		l-10.1,4.2c-0.7-1.6-1.5-3-2.5-4.4l7.2-8c0.3-0.4,0.3-0.9-0.1-1.3c-0.4-0.3-0.9-0.3-1.3,0.1l-7,7.8c-2.1-2.5-4.8-4.6-7.8-6
		c2.4-6.3,1.4-13.4-2.5-19.8c2.3-0.9,4.3-2.7,5.3-5.1c0,0,0-0.1,0-0.1l0.2-0.4c0,0,0-0.1,0-0.1c0-0.1,0.1-0.2,0.1-0.4l0.2-0.9
		c0.4-2.2,0.1-4.5-1-6.4c-0.1-0.2-0.2-0.4-0.3-0.6c-0.1-0.2-0.2-0.3-0.3-0.5c-0.4-0.6-0.9-1.1-1.5-1.6l-0.1-0.1
		c-0.1-0.1-0.2-0.2-0.3-0.3c-0.2-0.1-0.4-0.3-0.6-0.4c0,0-0.1,0-0.1-0.1l-1.4-0.7c-4.7-1.9-10.2,0.4-12.2,5.1c0,0,0,0.1,0,0.1
		c0,0,0,0,0,0.1c-0.9,2.3-0.9,4.9,0.1,7.2c1,2.3,2.8,4.1,5.2,5c1.1,0.5,2.3,0.7,3.5,0.7c0.5,0,1.1,0,1.6-0.1
		c3.9,6,4.8,12.7,2.7,18.6C67,41.3,64,40.7,61,40.8c0.1-0.2,0.3-0.4,0.4-0.7c0.2-0.6,0.4-1.2,0.4-1.7c0-0.6-0.1-1.2-0.4-1.8
		c-1-2.3-3.6-3.4-6-2.5c-1.1,0.5-2,1.3-2.5,2.5c-0.5,1.1-0.5,2.4,0,3.5c0.3,0.7,0.8,1.3,1.3,1.8c-0.6,0.2-1.3,0.4-1.9,0.7l-11.2,4.6
		c-0.6,0.3-1.2,0.5-1.8,0.8c0-0.1,0-0.3,0-0.4c0-0.6-0.1-1.2-0.4-1.7c-1-2.3-3.6-3.4-6-2.5c-2.3,1-3.4,3.6-2.5,6
		c0.5,1.1,1.4,2,2.5,2.5c0.2,0.1,0.5,0.2,0.7,0.2c-2.1,2.1-3.8,4.6-5.1,7.4c-5.6-2.6-9.7-8-11.2-14.8c4.2-2.3,6.1-7.4,4.2-11.9
		c-0.1-0.2-0.3-0.4-0.5-0.5c-0.2-0.1-0.5-0.1-0.7,0l-7,2.9l-2.9-7c-0.2-0.5-0.7-0.7-1.2-0.5c-2.3,1-4.1,2.8-5.1,5.1
		c-1,2.3-1,4.9,0,7.2c1.5,3.6,5,5.8,8.7,5.8c0.9,0,1.9-0.1,2.8-0.4c1.7,7.3,6.1,13,12.2,15.8c-1.1,3.2-1.5,6.5-1.2,9.7l-10.4-0.6
		c-0.5,0-0.9,0.3-0.9,0.8c0,0.5,0.3,0.9,0.8,1L27,72.6c0.3,1.6,0.7,3.3,1.4,4.9l-10,4.1c-0.5,0.2-0.7,0.7-0.5,1.2
		c0.1,0.4,0.5,0.6,0.8,0.6c0.1,0,0.2,0,0.3-0.1l10.1-4.2c0.7,1.5,1.6,2.9,2.6,4.2l-7.3,8.2c-0.3,0.4-0.3,0.9,0.1,1.3
		c0.2,0.2,0.4,0.2,0.6,0.2c0.2,0,0.5-0.1,0.7-0.3l7.2-8c2.3,2.5,5.1,4.4,8.3,5.8c2.9,1.2,5.9,1.8,9,1.8c3,0,6.1-0.6,9-1.8l11.2-4.6
		C76.1,83.5,80.6,79,83,73.2c1.3-3.2,1.9-6.6,1.8-9.9l10.8,0.6c0,0,0,0,0,0c0.5,0,0.9-0.4,0.9-0.9C96.5,62.5,96.1,62.1,95.6,62.1z
		 M62.8,21.6c-1.9-0.8-3.4-2.2-4.2-4.1c-0.7-1.6-0.8-3.3-0.4-4.9l6.8,2.8c0.1,0,0.2,0.1,0.3,0.1c0.3,0,0.7-0.2,0.8-0.5
		c0.2-0.5,0-1-0.5-1.2L58.9,11c1.8-3.4,5.9-5,9.5-3.5L69.7,8c0.2,0.1,0.3,0.2,0.5,0.3c0.1,0.1,0.2,0.1,0.3,0.2l0.1,0.1
		c0.4,0.4,0.8,0.8,1.2,1.3c0.1,0.1,0.2,0.2,0.3,0.4c0.1,0.2,0.2,0.3,0.3,0.5c0.9,1.6,1.2,3.4,0.8,5.2l-0.2,0.8
		c0,0.1-0.1,0.2-0.1,0.2l-0.2,0.4c0,0,0,0,0,0C71,21.3,66.6,23.1,62.8,21.6z M5.9,39.2c-1.5-3.6,0-7.7,3.3-9.6l2.9,7
		c0.2,0.5,0.7,0.7,1.2,0.5l7-2.9c1,3.7-0.8,7.6-4.4,9.1C12,45,7.5,43.1,5.9,39.2z M56.1,35.8c0.3-0.1,0.7-0.2,1-0.2
		c1.1,0,2.1,0.6,2.6,1.7c0.3,0.7,0.3,1.4,0,2.1c-0.3,0.7-0.8,1.2-1.5,1.5c-0.1,0-0.2,0.1-0.3,0.1c0,0,0,0,0,0
		c-0.2,0.1-0.4,0.1-0.6,0.1c-1.2,0.1-2.3-0.6-2.7-1.7C54,38,54.7,36.4,56.1,35.8z M33.7,50.2c-0.7-0.3-1.2-0.8-1.5-1.5
		c-0.6-1.4,0.1-3,1.5-3.6c0.3-0.1,0.7-0.2,1.1-0.2c1.1,0,2.1,0.6,2.6,1.7c0.5,1.1,0.1,2.3-0.7,3.1c-0.2,0.1-0.3,0.3-0.5,0.4
		c-0.1,0-0.2,0.1-0.3,0.1C35.2,50.5,34.4,50.5,33.7,50.2z M81.3,72.5c-1.1,2.7-2.7,5-4.7,7c-2,2-4.4,3.6-7,4.7l-11.2,4.6
		c-5.4,2.2-11.2,2.2-16.6,0c-5.4-2.2-9.5-6.4-11.7-11.7c-2.2-5.3-2.2-11.2,0-16.6c1.5-3.6,3.9-6.7,6.9-9c0.2-0.2,0.5-0.4,0.7-0.5
		c1.3-0.9,2.6-1.6,4.1-2.2L53,44.2c1.5-0.6,3-1,4.4-1.3c0.3-0.1,0.5-0.1,0.8-0.1c1-0.2,2-0.2,3-0.2c8.5,0,16.6,5,20,13.4
		C83.5,61.3,83.5,67.2,81.3,72.5z"/>
</g>
</svg>
