<?xml version="1.0" encoding="utf-8"?>
<!-- Generator: Adobe Illustrator 22.0.1, SVG Export Plug-In . SVG Version: 6.00 Build 0)  -->
<svg version="1.1" id="Layer_1" xmlns="http://www.w3.org/2000/svg" xmlns:xlink="http://www.w3.org/1999/xlink" x="0px" y="0px"
	 viewBox="0 0 475 560" style="enable-background:new 0 0 475 560;" xml:space="preserve">
<style type="text/css">
	.st0{fill:#FC7E56;}
	.st1{fill:#FFE36E;}
	.st2{fill:#B52BC9;}
	.st3{fill:#1E1E1E;}
	.st4{fill:#F9CC12;}
	.st5{fill:none;}
	.st6{fill:#07C8E8;}
	.st7{fill:#EA5397;}
	.st8{fill:#9B5851;}
	.st9{fill:#B7DB53;}
</style>
<g>
	<circle class="st0" cx="247.5" cy="233.9" r="187.4"/>
</g>
<g>
	<path class="st1" d="M444.8,346.5c-4.7,9.8-14.4,34.7-2.4,55c2,3.5,4.1,6.8,6.1,9.9c8.3,13.1,15.4,24.5,16.2,42.3
		c0.7,16.3-3.7,34.8-12,50.6c-9.3,17.6-22.8,30.2-37.8,35.3c-23.8,8.1-45-3.4-65.5-14.5c-17.6-9.5-35.8-19.4-55.7-17
		c-15.6,1.9-28.3,11.1-41.7,20.8c-7.5,5.4-15.2,11-23.4,15.2c-12.7,6.4-27.6,9.7-43.3,9.7c-14.3,0-29.3-2.7-44.2-8
		c-29.3-10.5-53.2-23.3-70.9-38C43.6,485.7,45,462,56,430.9c8.2-23.1,3.9-50.7-10.9-70.2c-3.9-5.2-8.6-10-13.1-14.6
		c-6-6.1-12.2-12.4-16.8-19.8c-2.8-4.5-4.9-9.8-6.3-15.6C7.6,305.3,7,299.6,7,293.8c0-11.7,2.5-23.9,7.2-34.9
		c7.8-18,20.4-30.2,35.5-34.3c16.7-4.6,34.1,1.1,53.1,17.3c4.5,3.8,8.4,8.9,12.2,13.9c6.9,9,14,18.3,25.2,20.6
		c14.6,3.1,29.3-7.2,42.3-16.3c5.5-3.9,10.8-7.5,15.8-10.1c4.7-2.4,9.4-4.8,14.1-7.2c17-8.6,33.7-19.8,51.2-27.1
		c24.2-10,52.6,2.1,75.4,10.6c4.5,1.7,8.8,3.3,12.6,4.5c4.8,1.6,9.7,3.2,14.5,4.8c17.1,5.6,34.7,11.3,51.4,18.8c3,1.3,6.2,2.6,9.7,4
		c19.2,7.7,43.1,17.2,40.5,42.3c-1.2,11.7-7.6,21.4-13.9,30.8C450.7,336.2,447.3,341.3,444.8,346.5z"/>
</g>
<g>
	<g>
		<path class="st2" d="M443.7,312.1c-0.1,0.2-0.3,0.4-0.5,0.5c-0.1,0-0.2,0.1-0.3,0.1s-0.2,0-0.3-0.1l-33.9-14
			c-0.2-0.1-0.4-0.3-0.5-0.5s-0.1-0.5,0-0.7c0.4-0.9,0.4-1.8,0-2.7c-0.4-0.9-1-1.6-1.9-1.9c-0.9-0.4-1.8-0.4-2.7,0
			c-0.9,0.4-1.5,1-1.9,1.9c-0.1,0.2-0.3,0.4-0.5,0.5s-0.5,0.1-0.7,0l-82.1-34c-0.5-0.2-0.7-0.7-0.5-1.2c0.8-1.8-0.1-3.9-1.9-4.6
			c-1.8-0.8-3.9,0.1-4.6,1.9c-0.2,0.5-0.7,0.7-1.2,0.5l-33.9-14c-0.2-0.1-0.4-0.3-0.5-0.5s-0.1-0.5,0-0.7
			c9.3-22.4,26.8-39.9,49.2-49.2c22.4-9.3,47.1-9.3,69.5,0s39.9,26.8,49.2,49.2C453,265,453,289.7,443.7,312.1z"/>
	</g>
	<path class="st3" d="M440.5,234.8c-9.2-22.1-26.3-39.4-48.3-48.8l6-14.6c0.2-0.5,0-1-0.5-1.2s-1,0-1.2,0.5l-6,14.6
		c-22.2-9-46.6-8.8-68.7,0.3c-22.4,9.3-39.9,26.8-49.2,49.2c-0.1,0.2-0.1,0.5,0,0.7s0.3,0.4,0.5,0.5l33.9,14c0.5,0.2,1,0,1.2-0.5
		c0.8-1.8,2.8-2.7,4.6-1.9c1.8,0.8,2.7,2.8,1.9,4.6c-0.2,0.5,0,1,0.5,1.2l40.2,16.7l-47.3,114.1c-0.2,0.5,0,1,0.5,1.2
		c0.1,0,0.2,0.1,0.3,0.1c0.4,0,0.7-0.2,0.8-0.6L357,270.7l40.2,16.6c0.2,0.1,0.5,0.1,0.7,0s0.4-0.3,0.5-0.5c0.4-0.9,1-1.6,1.9-1.9
		c0.9-0.4,1.8-0.4,2.7,0c1.8,0.8,2.7,2.8,1.9,4.6c-0.2,0.5,0,1,0.5,1.2l33.9,14c0.1,0.1,0.2,0.1,0.3,0.1c0.4,0,0.7-0.2,0.8-0.6
		C449.8,281.9,449.8,257.2,440.5,234.8z M306.9,248l-32.3-13.4c9.2-21.6,26.1-38.4,47.8-47.4c11-4.5,22.5-6.8,34.1-6.8
		c10.3,0,20.5,1.8,30.4,5.4c-50.4,10-70,47.5-75,59.7C309.9,245.3,308,246.3,306.9,248z M356.1,268.4L316.6,252c0.5-2.4-0.7-5-3-6
		c5.2-12.3,24.9-49.6,75.7-58.8c0.1,0,0.3-0.1,0.4-0.2v-0.1l0,0l-0.1,0.1L356.1,268.4z M403.4,283.2c-1.2-0.4-2.6-0.4-3.8,0.1
		c-1,0.4-1.9,1.2-2.5,2.1L357.7,269l33.6-81.2c0-0.1-0.1-0.2-0.1-0.3c0.1,0,0.1,0,0.2,0.1l-0.1,0.3c0,0.1,0,0.1,0.1,0.2
		C421,230.5,408.4,271,403.4,283.2z M439.2,302.8l-32.3-13.4c0.5-2-0.3-4.1-1.9-5.4c4.9-12,17.8-52.4-10.9-95.2
		c20.3,9.4,36.1,25.9,44.7,46.6C447.8,257.2,447.9,281,439.2,302.8z"/>
</g>
<path class="st3" d="M389.8,187L389.8,187L389.8,187C389.8,186.9,389.8,186.9,389.8,187z"/>
<path class="st3" d="M391.5,187.6l-0.1,0.3c0-0.1-0.1-0.2-0.1-0.3C391.3,187.6,391.4,187.6,391.5,187.6z"/>
<path class="st3" d="M389.8,187L389.8,187L389.8,187C389.8,186.9,389.8,186.9,389.8,187z"/>
<path class="st3" d="M391.5,187.6l-0.1,0.3c0-0.1-0.1-0.2-0.1-0.3C391.3,187.6,391.4,187.6,391.5,187.6z"/>
<g>
	<g>
		<path class="st4" d="M427.5,475c0,0.3-0.1,0.6-0.3,0.8l-25,25c-0.2,0.2-0.4,0.3-0.6,0.3h-0.1c-0.3,0-0.5-0.2-0.7-0.5l-6-11.2
			c0-0.1-0.1-0.2-0.1-0.2l-23.4,1c-0.1,0-0.3,0-0.4,0c-2.1,0-4-0.9-5.3-2.5c-11.2-13.5-10.3-33.9,2.1-46.4
			c12.4-12.4,32.8-13.4,46.3-2.2c1.7,1.4,2.6,3.5,2.4,5.8l-1,23.3c0.1,0,0.2,0,0.3,0.1l11.2,6C427.3,474.5,427.4,474.7,427.5,475z"
			/>
	</g>
	<path class="st3" d="M418.4,472.6l-11.2-6c-0.1,0-0.2-0.1-0.3-0.1l1-23.3c0.1-2.2-0.8-4.4-2.4-5.8c-13.5-11.2-33.9-10.3-46.3,2.2
		l0,0c-12.5,12.5-13.4,32.8-2.2,46.3c1.3,1.6,3.3,2.5,5.3,2.5c0.1,0,0.3,0,0.4,0l23.4-0.9c0,0.1,0,0.1,0.1,0.2l6,11.2
		c0.1,0.2,0.4,0.4,0.7,0.5h0.1c0.2,0,0.5-0.1,0.6-0.3l25-25c0.2-0.2,0.3-0.5,0.2-0.8C418.8,473,418.6,472.8,418.4,472.6z
		 M404.3,438.8c1.2,1,1.9,2.6,1.8,4.3l-1.1,24.7l-3.7,3.7l-22-39.9C388.1,430.6,397.2,432.9,404.3,438.8z M377.5,431.9l22.5,40.9
		l-3.2,3.2L361,440.2C365.7,435.8,371.5,433,377.5,431.9z M359.8,441.5l35.8,35.8l-3.2,3.2L351.5,458
		C352.6,451.9,355.3,446.2,359.8,441.5z M387.3,485.6l-24.6,1c-1.7,0.1-3.2-0.6-4.2-1.8c-5.9-7.1-8.3-16.2-7.2-24.9l39.9,22
		L387.3,485.6L387.3,485.6z M393.2,497l-5.2-9.6l9.4-9.4l0,0l0,0l9.4-9.4l9.6,5.2L393.2,497z"/>
</g>
<g>
	<g>
		<g>
			<g>
				<g>
					<g>
						<g>
							<path class="st0" d="M275.4,450.9l-0.9,0.3l0,0L274,452l-0.6-0.8l0,0l-0.9-0.3l0.5-0.8l0,0c0-0.1,0-0.1,0-0.2v-0.7l0.9,0.3
								l0,0l0,0l0.9-0.3v0.7c0,0.1,0,0.1,0,0.2l0,0L275.4,450.9z"/>
							<path class="st0" d="M293.3,455.7c-0.7,0.7-1,1.6-0.8,2.5l2.5,14.2c0.3,1.8-0.4,3.5-1.8,4.6s-3.3,1.2-4.9,0.4l-12.8-6.6
								c-0.8-0.4-1.8-0.4-2.7,0l-12.7,6.8c-0.7,0.4-1.4,0.6-2.2,0.6c-1,0-1.9-0.3-2.7-0.9c-1.5-1-2.2-2.8-1.9-4.6l2.3-14.2
								c0.2-0.9-0.2-1.9-0.8-2.5l-10.4-10c-1.3-1.2-1.8-3.1-1.2-4.8c0.5-1.7,2-2.9,3.8-3.2l14.2-2.2c0.9-0.1,1.8-0.7,2.2-1.6l6.3-13
								c0.8-1.6,2.4-2.6,4.2-2.6l0,0c1.8,0,3.4,1,4.2,2.6l6.5,12.9c0.4,0.9,1.2,1.4,2.2,1.6l14.3,2c1.8,0.2,3.2,1.5,3.8,3.1
								c0.6,1.7,0.1,3.5-1.2,4.8L293.3,455.7z"/>
						</g>
						<g>
							<polyline class="st5" points="274,450.4 273.1,450.1 273.1,450.1 273.1,450.1 							"/>
							<path class="st0" d="M274.9,450.4c0,0.2-0.1,0.3-0.2,0.5l0,0c0,0.1-0.1,0.2-0.2,0.2l0,0c-0.1,0.1-0.2,0.1-0.4,0.2H274
								c-0.1,0-0.2,0-0.3-0.1l-0.2-0.1l0,0l-0.9-0.3l0.5-0.8l0,0c0-0.1,0-0.1,0-0.2v-0.7l0.9,0.3l0,0l0.2,0.1c0,0,0,0,0.1,0h0.1l0,0
								c0,0,0,0,0.1,0h0.1c0,0,0.1,0,0.1,0.1c0,0,0.1,0,0.1,0.1l0,0l0.1,0.1c0,0.1,0.1,0.1,0.1,0.2l0,0l0,0
								C274.9,450.2,274.9,450.3,274.9,450.4z"/>
						</g>
					</g>
					<g>
						<polyline class="st5" points="274,450.4 273.7,450.8 273.5,451.1 273.4,451.2 273.4,451.2 						"/>
						<path class="st0" d="M274.9,450.4c0,0.2-0.1,0.3-0.2,0.5l0,0l-0.2,0.2l0,0L274,452l-0.6-0.8l0,0l-0.9-0.3l0.5-0.8l0,0l0.1-0.1
							l0,0c0,0,0-0.1,0.1-0.1l0,0l0.1-0.1l0,0c0.1-0.1,0.1-0.1,0.2-0.1c0,0,0.1,0,0.2,0s0.1,0,0.2,0l0,0c0.1,0,0.1,0,0.2,0
							c0,0,0,0,0.1,0h0.1l0,0l0,0c0,0,0,0,0.1,0h0.1c0,0,0.1,0,0.1,0.1c0,0,0.1,0,0.1,0.1l0,0l0.1,0.1c0,0.1,0.1,0.1,0.1,0.2l0,0
							l0,0C274.9,450.2,274.9,450.3,274.9,450.4z"/>
					</g>
				</g>
				<g>
					<polyline class="st5" points="274,450.4 274.2,450.8 274.2,450.8 274.5,451.1 274.5,451.1 274.5,451.2 					"/>
					<line class="st5" x1="292.5" y1="475.8" x2="292.3" y2="475.5"/>
					<path class="st0" d="M275.4,450.9l-0.9,0.3l0,0L274,452l-0.6-0.8l0,0l-0.2-0.2c-0.1-0.1-0.1-0.2-0.1-0.3c0-0.2,0-0.3,0-0.5l0,0
						l0,0c0,0,0-0.1,0.1-0.1l0,0c0,0,0-0.1,0.1-0.1l0,0l0,0c0,0,0,0,0.1-0.1l0,0c0.1-0.1,0.1-0.1,0.2-0.1h0.1h0.1c0.1,0,0.1,0,0.2,0
						l0,0c0.1,0,0.1,0,0.2,0c0,0,0,0,0.1,0h0.1l0,0c0,0,0,0,0.1,0h0.1c0,0,0.1,0,0.1,0.1c0,0,0.1,0,0.1,0.1l0,0l0.1,0.1l0.1,0.1l0,0
						L275.4,450.9z"/>
				</g>
			</g>
			<g>
				<polyline class="st5" points="274,450.4 274.8,450.1 274.8,450.1 274.9,450.1 				"/>
				<line class="st5" x1="303.3" y1="441.1" x2="303" y2="441.2"/>
				<path class="st0" d="M275.4,450.9l-0.9,0.3l0,0l-0.3,0.1c-0.1,0-0.1,0-0.1,0H274c-0.1,0-0.2,0-0.3-0.1c-0.1,0-0.1-0.1-0.2-0.1
					s-0.2-0.1-0.2-0.2c-0.1-0.1-0.1-0.2-0.1-0.3c0-0.2,0-0.3,0-0.5l0,0l0,0c0,0,0-0.1,0.1-0.1l0,0c0,0,0-0.1,0.1-0.1l0,0l0,0
					c0,0,0,0,0.1-0.1l0,0c0.1-0.1,0.1-0.1,0.2-0.1h0.1h0.1l0.2-0.1l0,0l0,0l0.9-0.3v0.7c0,0.1,0,0.1,0,0.2l0,0L275.4,450.9z"/>
			</g>
		</g>
		<g>
			<polyline class="st5" points="274,449.9 274,449.5 274,449.5 			"/>
			<line class="st5" x1="274" y1="420.4" x2="274" y2="420.4"/>
			<path class="st0" d="M274.9,449.2v0.7c0,0.1,0,0.1,0,0.2l0,0l0,0c-0.1,0.3-0.3,0.5-0.6,0.6l0,0c-0.1,0-0.2,0-0.3,0
				c-0.1,0-0.2,0-0.2,0c-0.3-0.1-0.5-0.3-0.6-0.6l0,0l0,0c0-0.1,0-0.1,0-0.2v-0.7l0.9,0.3l0,0l0,0L274.9,449.2z"/>
		</g>
	</g>
	<path class="st3" d="M269.4,445.6L269.4,445.6L269.4,445.6L269.4,445.6z"/>
	<path class="st3" d="M269.4,445.6L269.4,445.6L269.4,445.6L269.4,445.6z"/>
	<path class="st3" d="M298.6,441.5c1.3-1.3,1.7-3.1,1.2-4.8c-0.6-1.7-2-2.9-3.8-3.1l-14.3-2c-0.9-0.1-1.8-0.7-2.2-1.6l-6.5-12.9
		c-0.8-1.6-2.4-2.6-4.2-2.6l0,0c-1.8,0-3.4,1-4.2,2.6l-6.3,13c-0.4,0.8-1.2,1.4-2.2,1.6l-14.2,2.2c-1.8,0.3-3.2,1.5-3.8,3.2
		c-0.5,1.7-0.1,3.5,1.2,4.8l10.4,10c0.7,0.7,1,1.6,0.8,2.5l-2.3,14.2c-0.3,1.8,0.4,3.5,1.9,4.6c0.8,0.6,1.8,0.9,2.7,0.9
		c0.8,0,1.5-0.2,2.2-0.6l12.7-6.8c0.8-0.5,1.8-0.5,2.7,0l12.8,6.6c1.6,0.8,3.5,0.7,4.9-0.4c1.5-1.1,2.2-2.8,1.8-4.6l-2.5-14.2
		c-0.2-0.9,0.1-1.9,0.8-2.5L298.6,441.5z M269.9,416.6c0.7,0.2,1.2,0.7,1.5,1.4l6.5,12.9c0.7,1.4,2,2.3,3.5,2.5l14.3,2
		c0.7,0.1,1.4,0.5,1.8,1l-27.6,8.8L269.9,416.6L269.9,416.6z M269.4,445.6L269.4,445.6L269.4,445.6L269.4,445.6z M242.2,435.8
		l14.3-2.2c1.5-0.2,2.8-1.2,3.5-2.6l6.3-13c0.4-0.8,1-1.3,1.8-1.5v28.7l-27.8-8.3C240.7,436.3,241.4,435.9,242.2,435.8z M250.1,469
		l2.3-14.2c0.2-1.5-0.3-3.1-1.4-4.1l-10.4-10c-0.6-0.6-0.9-1.3-0.9-2.1l27.8,8.3l-16.7,24.6C250.2,470.8,249.9,469.9,250.1,469z
		 M284.2,471.8l-12.8-6.6c-1.4-0.7-3-0.7-4.3,0l-12.7,6.8c-0.6,0.3-1.2,0.4-1.9,0.3L269,448l17.5,24
		C285.8,472.2,284.9,472.2,284.2,471.8z M285.8,454.5l2.5,14.2c0.1,0.8,0,1.5-0.4,2.1l-17.5-23.9l27.8-8.8c0.1,0.8-0.2,1.6-0.8,2.2
		l-10.2,10.1C286,451.5,285.5,453,285.8,454.5z"/>
	<path class="st3" d="M269.4,445.6L269.4,445.6L269.4,445.6L269.4,445.6z"/>
	<path class="st3" d="M269.4,445.6L269.4,445.6L269.4,445.6L269.4,445.6z"/>
</g>
<g>
	<g>
		<g>
			<path class="st5" d="M82.9,315"/>
			<line class="st5" x1="82.9" y1="315" x2="82.5" y2="313.8"/>
		</g>
		<g>
			<line class="st5" x1="106.3" y1="305.1" x2="190.5" y2="508.3"/>
			<path class="st6" d="M108,306.8c-0.4-0.3-0.9-0.5-1.3-0.8c-0.4-0.2-0.8-0.5-1.2-0.7c-0.1-0.3,0-0.7,0.2-0.9
				c0.1-0.1,0.2-0.1,0.3-0.2c0.5-0.2,1,0,1.2,0.5l0.2,0.6L108,306.8z"/>
			<path class="st6" d="M190.8,509.1c-0.1,0-0.2,0.1-0.3,0.1c-0.4,0-0.7-0.2-0.8-0.6l-0.1-0.3l0.8,0.6c0.2-0.7,0.4-1.4,0.6-2.1
				l0.4,1.1C191.5,508.4,191.3,509,190.8,509.1z"/>
		</g>
		<g>
			<path class="st6" d="M108,306.8c-0.4-0.3-0.9-0.5-1.3-0.8c-0.4-0.2-0.8-0.5-1.2-0.7c-0.1-0.3,0-0.7,0.2-0.9
				c0.6,0.3,1.1,0.6,1.7,0.9L108,306.8z"/>
			<path class="st6" d="M190.8,509.1c-0.1,0-0.2,0.1-0.3,0.1c-0.4,0-0.7-0.2-0.8-0.6l-0.1-0.3l0.8,0.6c0.2-0.7,0.4-1.4,0.6-2.1
				l0.4,1.1C191.5,508.4,191.3,509,190.8,509.1z"/>
			<path class="st6" d="M107.4,305.3l-0.2-0.6c-0.2-0.5-0.7-0.7-1.2-0.5c-0.1,0-0.2,0.1-0.3,0.2c-0.2,0.2-0.4,0.6-0.2,0.9
				c0.4,0.2,0.8,0.4,1.2,0.7c0.4,0.2,0.8,0.5,1.3,0.8L107.4,305.3z M191.3,508l-0.4-1.1c-0.2,0.7-0.4,1.4-0.6,2.1l-0.8-0.6l0.1,0.3
				c0.1,0.3,0.5,0.6,0.8,0.6c0.1,0,0.2,0,0.3-0.1C191.3,509,191.5,508.4,191.3,508z"/>
			<path class="st6" d="M191.6,510.8c-0.1,0.3-0.3,0.5-0.6,0.6s-0.6,0-0.8-0.2l-18.8-14.9l-2.7,23.8c0,0.3-0.2,0.5-0.5,0.7
				c-0.1,0.1-0.3,0.1-0.4,0.1c-0.1,0-0.3,0-0.4-0.1c-20.2-10-46.7-47.8-65.9-94.2c-12.2-29.3-20-58.4-22.1-81.8
				c-2.2-23.8,1.9-39,11.5-43c9.5-4,23.2,4,38.5,22.3c15.1,18.1,30.1,44.2,42.2,73.5C190.8,444,198.9,489.5,191.6,510.8z"/>
		</g>
	</g>
	<path class="st3" d="M129.7,473.8c-0.4,0-0.7-0.2-0.8-0.6l-8.4-20.3c-0.2-0.5,0-1,0.5-1.2s1,0,1.2,0.5l8.4,20.3
		c0.2,0.5,0,1-0.5,1.2C129.9,473.8,129.8,473.8,129.7,473.8z"/>
	<path class="st3" d="M171.9,456.3c-0.4,0-0.7-0.2-0.8-0.6l-8.4-20.3c-0.2-0.5,0-1,0.5-1.2s1,0,1.2,0.5l8.4,20.3
		c0.2,0.5,0,1-0.5,1.2C172.1,456.3,172,456.3,171.9,456.3z"/>
	<path class="st3" d="M159.7,487.3c-0.4,0-0.7-0.2-0.8-0.6l-8.4-20.3c-0.2-0.5,0-1,0.5-1.2s1,0,1.2,0.5l8.4,20.3
		c0.2,0.5,0,1-0.5,1.2C159.9,487.3,159.8,487.3,159.7,487.3z"/>
	<g>
		<path class="st3" d="M163.9,397.6c-12.1-29.3-27.1-55.4-42.2-73.5c-15.3-18.3-29-26.3-38.5-22.3c-9.5,3.9-13.6,19.2-11.5,43
			c2.1,23.5,10,52.5,22.1,81.8c19.2,46.4,45.7,84.2,65.9,94.2c0.1,0.1,0.3,0.1,0.4,0.1c0.2,0,0.3,0,0.4-0.1c0.3-0.1,0.4-0.4,0.5-0.7
			l2.7-23.9l18.8,14.9c0.2,0.2,0.5,0.2,0.8,0.2c0.3-0.1,0.5-0.3,0.6-0.6C191.1,489.4,183.1,443.9,163.9,397.6z M95.5,425.9
			c-12.1-29.2-19.9-58-22-81.3c-1.1-11.6-0.6-21.2,1.3-28.3L158.4,518C138.8,506.8,113.9,470.3,95.5,425.9z M163.6,493.8
			c-0.2-0.2-0.6-0.2-0.9-0.1c-0.3,0.1-0.5,0.4-0.5,0.7l-2.5,21.8l-84-202.6c1.8-5.2,4.6-8.7,8.2-10.2c1.4-0.6,2.8-0.8,4.4-0.8
			c2.8,0,6,0.9,9.5,2.7c0,0,0,0,0,0.1l84.1,203L163.6,493.8z M183.2,506.9l-82.9-200.2c6.1,3.7,12.9,10,20,18.5
			c15,17.9,29.9,43.9,41.9,73C180.3,442,188.5,484.7,183.2,506.9z"/>
	</g>
</g>
<g>
	<g>
		<path class="st7" d="M381.8,330.1c-1.1,0.5-2.3,0.7-3.4,0.7c-3.5,0-6.9-2.1-8.3-5.6c-1.9-4.6,0.3-9.9,4.9-11.8
			c0.3-0.1,0.5,0,0.7,0.3l3.1,7.4l7.4-3.1c0.1,0,0.3,0,0.4,0s0.2,0.2,0.3,0.3C388.6,322.9,386.4,328.2,381.8,330.1z"/>
	</g>
	<circle class="st6" cx="399.2" cy="331" r="3.7"/>
	<circle class="st6" cx="421.5" cy="321.8" r="3.7"/>
	<g>
		<path class="st7" d="M449,360.4c-2.4,5.7-6.8,10.1-12.5,12.5l-11.2,4.6c-2.8,1.2-5.8,1.8-8.8,1.8s-6-0.6-8.8-1.8
			c-5.7-2.4-10.1-6.8-12.5-12.5s-2.4-12,0-17.6c2.3-5.7,6.8-10.1,12.5-12.5l11.2-4.6c5.7-2.4,12-2.4,17.6,0
			c5.7,2.3,10.1,6.8,12.5,12.5C451.3,348.5,451.3,354.8,449,360.4z"/>
	</g>
	<circle class="st7" cx="430.2" cy="300.9" r="8.5"/>
	<path class="st3" d="M458,346.5l-11-0.6c-0.2-1.6-0.6-3.2-1.1-4.8l10.1-4.2c0.5-0.2,0.7-0.7,0.5-1.2s-0.7-0.7-1.2-0.5l-10.1,4.2
		c-0.7-1.6-1.5-3-2.5-4.4l7.2-8c0.3-0.4,0.3-0.9-0.1-1.3c-0.4-0.3-0.9-0.3-1.3,0.1l-7,7.8c-2.1-2.5-4.8-4.6-7.8-6
		c2.4-6.3,1.4-13.4-2.5-19.8c2.3-0.9,4.3-2.7,5.3-5.1v-0.1l0.2-0.4v-0.1c0-0.1,0.1-0.2,0.1-0.4l0.2-0.9c0.4-2.2,0.1-4.5-1-6.4
		c-0.1-0.2-0.2-0.4-0.3-0.6c-0.1-0.2-0.2-0.3-0.3-0.5c-0.4-0.6-0.9-1.1-1.5-1.6l-0.1-0.1c-0.1-0.1-0.2-0.2-0.3-0.3
		c-0.2-0.1-0.4-0.3-0.6-0.4c0,0-0.1,0-0.1-0.1l-1.4-0.7c-4.7-1.9-10.2,0.4-12.2,5.1v0.1c0,0,0,0,0,0.1c-0.9,2.3-0.9,4.9,0.1,7.2
		c1,2.3,2.8,4.1,5.2,5c1.1,0.5,2.3,0.7,3.5,0.7c0.5,0,1.1,0,1.6-0.1c3.9,6,4.8,12.7,2.7,18.6c-2.8-1.1-5.8-1.7-8.8-1.6
		c0.1-0.2,0.3-0.4,0.4-0.7c0.2-0.6,0.4-1.2,0.4-1.7c0-0.6-0.1-1.2-0.4-1.8c-1-2.3-3.6-3.4-6-2.5c-1.1,0.5-2,1.3-2.5,2.5
		c-0.5,1.1-0.5,2.4,0,3.5c0.3,0.7,0.8,1.3,1.3,1.8c-0.6,0.2-1.3,0.4-1.9,0.7l-11.2,4.6c-0.6,0.3-1.2,0.5-1.8,0.8c0-0.1,0-0.3,0-0.4
		c0-0.6-0.1-1.2-0.4-1.7c-1-2.3-3.6-3.4-6-2.5c-2.3,1-3.4,3.6-2.5,6c0.5,1.1,1.4,2,2.5,2.5c0.2,0.1,0.5,0.2,0.7,0.2
		c-2.1,2.1-3.8,4.6-5.1,7.4c-5.6-2.6-9.7-8-11.2-14.8c4.2-2.3,6.1-7.4,4.2-11.9c-0.1-0.2-0.3-0.4-0.5-0.5s-0.5-0.1-0.7,0l-7,2.9
		l-2.9-7c-0.2-0.5-0.7-0.7-1.2-0.5c-2.3,1-4.1,2.8-5.1,5.1c-1,2.3-1,4.9,0,7.2c1.5,3.6,5,5.8,8.7,5.8c0.9,0,1.9-0.1,2.8-0.4
		c1.7,7.3,6.1,13,12.2,15.8c-1.1,3.2-1.5,6.5-1.2,9.7l-10.4-0.6c-0.5,0-0.9,0.3-0.9,0.8s0.3,0.9,0.8,1l10.7,0.6
		c0.3,1.6,0.7,3.3,1.4,4.9l-10,4.1c-0.5,0.2-0.7,0.7-0.5,1.2c0.1,0.4,0.5,0.6,0.8,0.6c0.1,0,0.2,0,0.3-0.1l10.1-4.2
		c0.7,1.5,1.6,2.9,2.6,4.2l-7.3,8.2c-0.3,0.4-0.3,0.9,0.1,1.3c0.2,0.2,0.4,0.2,0.6,0.2s0.5-0.1,0.7-0.3l7.2-8
		c2.3,2.5,5.1,4.4,8.3,5.8c2.9,1.2,5.9,1.8,9,1.8c3,0,6.1-0.6,9-1.8l11.2-4.6c5.8-2.4,10.3-6.9,12.7-12.7c1.3-3.2,1.9-6.6,1.8-9.9
		l10.8,0.6l0,0c0.5,0,0.9-0.4,0.9-0.9C458.9,346.9,458.5,346.5,458,346.5z M425.2,306c-1.9-0.8-3.4-2.2-4.2-4.1
		c-0.7-1.6-0.8-3.3-0.4-4.9l6.8,2.8c0.1,0,0.2,0.1,0.3,0.1c0.3,0,0.7-0.2,0.8-0.5c0.2-0.5,0-1-0.5-1.2l-6.9-2.9
		c1.8-3.4,5.9-5,9.5-3.5l1.3,0.6c0.2,0.1,0.3,0.2,0.5,0.3c0.1,0.1,0.2,0.1,0.3,0.2l0.1,0.1c0.4,0.4,0.8,0.8,1.2,1.3
		c0.1,0.1,0.2,0.2,0.3,0.4c0.1,0.2,0.2,0.3,0.3,0.5c0.9,1.6,1.2,3.4,0.8,5.2l-0.2,0.8c0,0.1-0.1,0.2-0.1,0.2l-0.2,0.4l0,0
		C433.4,305.7,429,307.5,425.2,306z M368.3,323.6c-1.5-3.6,0-7.7,3.3-9.6l2.9,7c0.2,0.5,0.7,0.7,1.2,0.5l7-2.9
		c1,3.7-0.8,7.6-4.4,9.1C374.4,329.4,369.9,327.5,368.3,323.6z M418.5,320.2c0.3-0.1,0.7-0.2,1-0.2c1.1,0,2.1,0.6,2.6,1.7
		c0.3,0.7,0.3,1.4,0,2.1s-0.8,1.2-1.5,1.5c-0.1,0-0.2,0.1-0.3,0.1l0,0c-0.2,0.1-0.4,0.1-0.6,0.1c-1.2,0.1-2.3-0.6-2.7-1.7
		C416.4,322.4,417.1,320.8,418.5,320.2z M396.1,334.6c-0.7-0.3-1.2-0.8-1.5-1.5c-0.6-1.4,0.1-3,1.5-3.6c0.3-0.1,0.7-0.2,1.1-0.2
		c1.1,0,2.1,0.6,2.6,1.7s0.1,2.3-0.7,3.1c-0.2,0.1-0.3,0.3-0.5,0.4c-0.1,0-0.2,0.1-0.3,0.1C397.6,334.9,396.8,334.9,396.1,334.6z
		 M443.7,356.9c-1.1,2.7-2.7,5-4.7,7s-4.4,3.6-7,4.7l-11.2,4.6c-5.4,2.2-11.2,2.2-16.6,0s-9.5-6.4-11.7-11.7
		c-2.2-5.3-2.2-11.2,0-16.6c1.5-3.6,3.9-6.7,6.9-9c0.2-0.2,0.5-0.4,0.7-0.5c1.3-0.9,2.6-1.6,4.1-2.2l11.2-4.6c1.5-0.6,3-1,4.4-1.3
		c0.3-0.1,0.5-0.1,0.8-0.1c1-0.2,2-0.2,3-0.2c8.5,0,16.6,5,20,13.4C445.9,345.7,445.9,351.6,443.7,356.9z"/>
</g>
<g>
	<path class="st8" d="M194,372.8c0,0,55-52,2-211l25-18c0,0,57,131,13,246"/>
	<path class="st3" d="M227.8,389.1c-0.1,0.4-0.5,0.6-0.8,0.6c-0.1,0-0.2,0-0.3-0.1c-0.5-0.2-0.7-0.7-0.5-1.2
		c22.6-59.2,17.9-122.7,10-165.6c-6.5-34.9-16.1-62.1-20.5-73.7c-0.2-0.6-0.5-1.2-0.7-1.8c-0.6-1.4-1-2.5-1.3-3.2l-1.8,1.3l-1.5,1.1
		l-18.9,13.6l-1.4,1c0,0.1,0.1,0.2,0.1,0.4c0.5,1.6,1.1,3.3,1.6,5c0.2,0.6,0.4,1.3,0.6,1.9c14.3,44.9,27.5,106.3,16.3,157.7
		c-7.1,32.8-20.6,45.8-21.1,46.3c-0.4,0.3-0.9,0.3-1.3,0c-0.3-0.4-0.3-0.9,0-1.3c0.1-0.1,13.7-13.3,20.6-45.6
		c6.2-28.8,8.2-78.9-16.1-155.7c-0.2-0.6-0.4-1.3-0.6-1.9c-0.7-2.2-1.5-4.5-2.2-6.8c-0.1-0.4,0-0.8,0.3-1l0.5-0.4l1.5-1.1l19.3-13.9
		l1.5-1.1l2.2-1.6c0.2-0.2,0.5-0.2,0.8-0.1c0.3,0.1,0.5,0.3,0.6,0.5c0,0.1,0.8,1.8,2,5c0.2,0.6,0.5,1.2,0.7,1.8
		c4.6,12,14,39,20.4,73.3C245.9,265.6,250.6,329.5,227.8,389.1z"/>
	<g>
		<path class="st9" d="M196.9,47.5c-0.3,0.6-0.3,1.4,0,2c0.3,0.6,0.8,1.1,1.4,1.4c0.6,0.3,1.3,0.3,2,0l10.5-4.4
			c0.3-0.1,0.6-0.1,0.8,0.1c0.2,0.2,0.4,0.5,0.4,0.8v35.9c0,0.5-0.4,0.9-0.9,0.9h-14c-1.4,0-2.6,1.2-2.6,2.6s1.2,2.6,2.6,2.6h14
			c0.5,0,0.9,0.4,0.9,0.9v38.9c0,0.3-0.2,0.6-0.4,0.8s-0.6,0.2-0.8,0.1l-10.5-4.4c-0.7-0.3-1.3-0.3-2,0c-0.6,0.3-1.1,0.8-1.4,1.4
			c-0.3,0.6-0.3,1.4,0,2c0.3,0.6,0.8,1.1,1.4,1.4l13.2,5.5c0.5,0.2,0.7,0.7,0.5,1.2c-0.2,0.5-0.7,0.7-1.2,0.5l-0.6-0.2l-22.5,14.6
			c0.2,0.3,0.2,0.8-0.1,1.1c-0.2,0.2-0.4,0.3-0.7,0.3c-0.2,0-0.4-0.1-0.6-0.2c-15.2-13.7-24.6-39.1-24.6-66.3
			c0-42.3,22.2-76.7,49.4-76.7c0.5,0,0.9,0.4,0.9,0.9v28.8c0,0.4-0.2,0.7-0.6,0.8l-13.2,5.5C197.7,46.3,197.2,46.8,196.9,47.5z"/>
	</g>
	<g>
		<path class="st9" d="M210.2,150.4c0,0.2-0.1,0.5-0.2,0.7c-0.2,0.2-0.4,0.3-0.6,0.3l-25.6,2.4c-0.4,0-0.7-0.1-0.9-0.5l-6.7-12.6
			c-0.3-0.6-0.9-1.1-1.5-1.3c-0.7-0.2-1.4-0.1-2,0.2c-0.6,0.3-1.1,0.9-1.3,1.5c-0.2,0.7-0.1,1.4,0.2,2l5.3,10.1
			c0.1,0.3,0.1,0.6,0,0.8c-0.1,0.3-0.4,0.4-0.7,0.5l-38.7,3.7c-0.2,0-0.5,0-0.7-0.2c-0.2-0.2-0.3-0.4-0.3-0.6l-1.3-13.9
			c-0.1-0.7-0.4-1.3-0.9-1.8c-0.5-0.4-1.2-0.7-1.9-0.6c-0.7,0.1-1.3,0.4-1.8,0.9c-0.4,0.5-0.7,1.2-0.6,1.9l1.3,13.9
			c0,0.5-0.3,0.9-0.8,1l-35.8,3.4c-0.3,0-0.6-0.1-0.8-0.3c-0.2-0.2-0.2-0.5-0.2-0.8l3.3-10.9c0.2-0.7,0.1-1.4-0.2-2
			c-0.3-0.6-0.9-1.1-1.5-1.3c-0.7-0.2-1.4-0.1-2,0.2c-0.6,0.3-1.1,0.9-1.3,1.5L88,162.3c-0.1,0.4-0.4,0.6-0.8,0.6l-28.6,2.7
			c0,0-0.1,0-0.1,0c-0.2,0-0.4-0.1-0.6-0.2c-0.2-0.1-0.3-0.4-0.3-0.6c-1.2-13.2,5.6-26.4,19.2-37c13.5-10.6,32.2-17.4,52.5-19.4
			c20.3-1.9,39.9,1.4,55.2,9.2C199.8,125.6,209,137.2,210.2,150.4z"/>
	</g>
	<g>
		<path class="st9" d="M358.3,153.2c0,0.5-0.4,0.9-0.9,0.9h-28.8c-0.4,0-0.7-0.2-0.8-0.6l-5.5-13.2c-0.5-1.3-2.1-2-3.4-1.4
			c-0.6,0.3-1.1,0.8-1.4,1.4c-0.3,0.6-0.3,1.3,0,2l4.4,10.5c0.1,0.3,0.1,0.6-0.1,0.8c-0.2,0.2-0.4,0.4-0.8,0.4h-35.9
			c-0.5,0-0.9-0.4-0.9-0.9v-14c0-1.4-1.2-2.6-2.6-2.6s-2.6,1.2-2.6,2.6v14c0,0.5-0.4,0.9-0.9,0.9h-38.9c-0.3,0-0.6-0.1-0.8-0.4
			c-0.2-0.2-0.2-0.6-0.1-0.8l4.4-10.5c0.5-1.3-0.1-2.9-1.4-3.4c-0.6-0.3-1.4-0.3-2,0c-0.6,0.3-1.1,0.8-1.4,1.4l-5.5,13.2
			c-0.1,0.3-0.5,0.6-0.8,0.6h-25.8c-0.5,0-0.9-0.4-0.9-0.9c0-27.2,34.4-49.4,76.7-49.4S358.3,126,358.3,153.2z"/>
	</g>
	<path class="st3" d="M188,119.3c-0.3,0.4-0.8,0.5-1.2,0.2c-0.1-0.1-0.2-0.1-0.2-0.2c0.2-0.6,0.4-1.2,0.6-1.8
		c0.2,0.2,0.5,0.3,0.7,0.5C188.2,118.3,188.3,118.9,188,119.3z"/>
	<g>
		<path class="st9" d="M308.2,62.7l-20.3,20.3c-0.3,0.2-0.7,0.3-1,0.2l-13.2-5.5c-0.6-0.3-1.4-0.3-2,0c-0.6,0.3-1.1,0.8-1.4,1.4
			c-0.3,0.6-0.3,1.3,0,2c0.3,0.6,0.8,1.1,1.4,1.4l10.5,4.4c0.3,0.1,0.5,0.4,0.5,0.6c0.1,0.3,0,0.6-0.2,0.8l-25.4,25.4
			c-0.3,0.3-0.9,0.3-1.3,0l-9.9-9.9c-1-1-2.7-1-3.7,0c-0.5,0.5-0.8,1.1-0.8,1.8c0,0.7,0.3,1.3,0.8,1.8l9.9,9.9
			c0.3,0.3,0.3,0.9,0,1.3l-27.5,27.5c-0.2,0.2-0.5,0.3-0.8,0.2c-0.3-0.1-0.5-0.3-0.7-0.5l-4.4-10.5c-0.3-0.6-0.8-1.1-1.4-1.4
			c-0.7-0.3-1.3-0.3-2,0c-0.7,0.3-1.2,0.8-1.4,1.4c-0.3,0.6-0.3,1.3,0,2l4.5,14.3c0.1,0.3,0,0.7-0.2,0.9l-12.1,12.1l-5,4.7
			l-10.5,10.5c-0.3,0.2-0.6,0.3-1,0.2l-13.2-5.5c-0.6-0.3-1.3-0.3-2,0c-0.6,0.3-1.1,0.8-1.4,1.4c-0.3,0.6-0.3,1.3,0,2
			c0.3,0.6,0.8,1.1,1.4,1.4l10.5,4.4c0.3,0.1,0.5,0.4,0.5,0.7c0.1,0.3,0,0.6-0.2,0.8l-27.5,27.5c-0.4,0.3-0.9,0.3-1.3,0l-9.9-9.9
			c-1-1-2.7-1-3.7,0c-1,1-1,2.7,0,3.7l9.9,9.9c0.3,0.3,0.3,0.9,0,1.3l-25.4,25.4c-0.2,0.2-0.5,0.3-0.8,0.2c-0.3-0.1-0.5-0.3-0.6-0.5
			l-4.4-10.5c-0.6-1.3-2.1-1.9-3.4-1.4c-1.3,0.5-2,2.1-1.4,3.4l5.5,13.2c0.1,0.3,0.1,0.7-0.2,1l-20.3,20.3c-0.2,0.2-0.4,0.3-0.6,0.3
			c-0.2,0-0.5-0.1-0.6-0.3c-19.3-19.3-10.6-59.2,19.3-89.1c21.6-21.6,49.1-32.8,70.4-28.8c-1.2-6.7-1-14.2,0.9-22.3
			c3.8-16.6,13.7-33.6,28-47.9C249,50.8,289,42.2,308.2,61.5C308.6,61.8,308.6,62.4,308.2,62.7z"/>
	</g>
	<path class="st3" d="M277.7,98.8c-5.6,0-11.3,0.4-16.7,1.2l15.6-15.6c0.2-0.2,0.3-0.5,0.2-0.8c-0.1-0.3-0.3-0.5-0.5-0.6l-10.5-4.4
		c-0.6-0.3-1.1-0.8-1.4-1.4c-0.3-0.6-0.3-1.4,0-2c0.3-0.6,0.8-1.1,1.4-1.4c0.6-0.3,1.3-0.3,2,0l13.2,5.5c0.3,0.1,0.7,0.1,1-0.2
		l20.3-20.3c0.4-0.3,0.4-0.9,0-1.3C283,38.2,243,46.8,213.1,76.7c-2.8,2.8-5.4,5.7-7.8,8.6h-12.1c-1.4,0-2.6-1.2-2.6-2.6
		s1.2-2.6,2.6-2.6h14c0.5,0,0.9-0.4,0.9-0.9V43.3c0-0.3-0.2-0.6-0.4-0.8c-0.2-0.2-0.6-0.2-0.8-0.1l-10.5,4.4c-0.7,0.3-1.3,0.3-2,0
		c-0.6-0.3-1.1-0.8-1.4-1.4c-0.5-1.3,0.1-2.8,1.4-3.4l13.2-5.5c0.3-0.1,0.6-0.5,0.6-0.8V7c0-0.5-0.4-0.9-0.9-0.9
		c-27.2,0-49.4,34.4-49.4,76.7c0,8.1,0.8,16.1,2.4,23.7c-10.8-2.4-22.7-3.1-34.9-2c-20.3,1.9-38.9,8.8-52.5,19.4
		c-13.6,10.7-20.5,23.8-19.2,37c0,0.2,0.1,0.5,0.3,0.6c0.2,0.1,0.4,0.2,0.6,0.2c0,0,0.1,0,0.1,0l28.6-2.7c0.4,0,0.7-0.3,0.8-0.6
		l4.2-13.7c0.2-0.7,0.6-1.2,1.3-1.5c0.6-0.3,1.3-0.4,2-0.2c0.7,0.2,1.2,0.6,1.5,1.3c0.3,0.6,0.4,1.3,0.2,2l-3.3,10.9
		c-0.1,0.3,0,0.6,0.2,0.8c0.2,0.2,0.5,0.4,0.8,0.3l35.8-3.4c0.5,0,0.9-0.5,0.8-1L126,140c-0.1-0.7,0.1-1.4,0.6-1.9
		c0.4-0.5,1.1-0.9,1.8-0.9c0.7-0.1,1.4,0.1,1.9,0.6c0.5,0.4,0.9,1.1,0.9,1.8l1.3,13.9c0,0.5,0.5,0.9,1,0.8l12.5-1.1
		c-11.2,5.1-22.2,12.8-32.1,22.6c-29.9,29.9-38.5,69.9-19.3,89.1c0.2,0.2,0.4,0.3,0.6,0.3c0.2,0,0.5-0.1,0.6-0.3l20.3-20.3
		c0.2-0.3,0.3-0.6,0.2-1l-5.5-13.2c-0.6-1.3,0.1-2.9,1.4-3.4c1.3-0.5,2.8,0.1,3.4,1.4l4.4,10.5c0.1,0.3,0.4,0.5,0.6,0.5
		c0.3,0.1,0.6,0,0.8-0.2l25.4-25.4c0.3-0.4,0.3-0.9,0-1.3l-9.9-9.9c-1-1-1-2.7,0-3.7c1-1,2.7-1,3.7,0l9.9,9.9c0.4,0.3,0.9,0.3,1.3,0
		l27.5-27.5c0.2-0.2,0.3-0.5,0.2-0.8c-0.1-0.3-0.3-0.5-0.5-0.7l-10.5-4.4c-0.6-0.3-1.1-0.8-1.4-1.4c-0.3-0.6-0.3-1.4,0-2
		c0.3-0.6,0.8-1.1,1.4-1.4c0.6-0.3,1.3-0.3,2,0l13.2,5.5c0.3,0.1,0.7,0.1,1-0.2l6.2-6.2l1.4-1.4l2.9-2.9l5-4.7l11.6-11.6h15.9
		c0.4,0,0.7-0.2,0.8-0.6l5.5-13.2c0.3-0.7,0.8-1.1,1.4-1.4c0.6-0.3,1.4-0.3,2,0c1.3,0.5,2,2.1,1.4,3.4l-4.4,10.5
		c-0.1,0.3-0.1,0.6,0.1,0.8c0.2,0.2,0.4,0.4,0.8,0.4h38.9c0.5,0,0.9-0.4,0.9-0.9v-14c0-1.4,1.2-2.6,2.6-2.6s2.6,1.2,2.6,2.6v14
		c0,0.5,0.4,0.9,0.9,0.9h35.9c0.3,0,0.6-0.1,0.8-0.4c0.2-0.2,0.2-0.6,0.1-0.8l-4.4-10.5c-0.3-0.7-0.3-1.4,0-2
		c0.3-0.6,0.8-1.1,1.4-1.4c1.3-0.5,2.9,0.1,3.4,1.4l5.5,13.2c0.1,0.3,0.5,0.6,0.8,0.6h28.8c0.5,0,0.9-0.4,0.9-0.9
		C354.3,121,319.9,98.8,277.7,98.8z M159.6,82.8c0-40.8,20.9-74.1,46.7-74.8v27.2l-12.6,5.2c-2.2,0.9-3.3,3.5-2.4,5.8
		c0.5,1.1,1.3,1.9,2.4,2.4c1.1,0.5,2.3,0.5,3.4,0l9.3-3.8v33.7h-13.1c-2.4,0-4.4,2-4.4,4.4s2,4.4,4.4,4.4h10.7
		c-7.6,9.6-13.3,20-16.7,30.4c-7.1-4.8-15.6-8.4-25-10.7C160.4,99.1,159.6,91,159.6,82.8z M134.2,152.3l-1.2-13
		c-0.1-1.2-0.7-2.2-1.6-3c-0.9-0.8-2.1-1.1-3.2-1c-1.2,0.1-2.2,0.7-3,1.6c-0.7,0.9-1.1,2.1-1,3.2l1.2,13L92,156.3l3-9.6
		c0.3-1.1,0.2-2.3-0.3-3.4c-0.5-1-1.5-1.8-2.6-2.1c-2.3-0.7-4.8,0.6-5.5,2.9l-4,13.1l-27.1,2.6c-0.8-12.3,5.8-24.5,18.6-34.5
		c13.2-10.4,31.5-17.1,51.5-19c23.5-2.2,45.7,2.6,61.1,13.1c-0.5,1.8-1,3.5-1.4,5.2c-1.8,8.1-2.1,15.6-0.9,22.3
		c-1.6-0.3-3.3-0.5-5-0.7l-5.5-10.4c-0.5-1-1.5-1.8-2.6-2.2c-1.1-0.3-2.3-0.2-3.3,0.3c-1,0.5-1.8,1.5-2.2,2.6
		c-0.3,1.1-0.2,2.3,0.3,3.4l3.4,6.5c-5.9,0.6-12,2.1-18.1,4.4h0c-0.1,0-0.2,0-0.3,0L134.2,152.3z M177.2,146.1
		c-1.9-0.1-3.8,0-5.8,0.1l-3.8-7.1c-0.3-0.6-0.4-1.3-0.2-2c0.2-0.7,0.7-1.2,1.3-1.5c0.6-0.3,1.3-0.4,2-0.2c0.7,0.2,1.2,0.7,1.5,1.3
		L177.2,146.1z M191.8,166.4l-1.4,1.4l-6.4,6.4l-12.7-5.2c-1.1-0.5-2.3-0.5-3.4,0c-1.1,0.5-1.9,1.3-2.4,2.4c-0.5,1.1-0.5,2.3,0,3.4
		c0.5,1.1,1.3,1.9,2.4,2.4l9.3,3.8l-25.9,25.9l-9.3-9.3c-1.7-1.7-4.5-1.7-6.2,0c-1.7,1.7-1.7,4.5,0,6.2l9.3,9.3l-23.8,23.8l-3.8-9.3
		c-0.9-2.2-3.5-3.3-5.8-2.4c-2.2,0.9-3.3,3.5-2.4,5.8l5.2,12.6l-19.3,19.3c-17.7-18.8-9-57.1,19.9-85.9c18.4-18.4,41-29.1,60.2-29.1
		c3.2,0,6.3,0.3,9.3,0.9c0.9,3.9,2.3,7.6,4.3,10.8c0.4,0.6,0.8,1.2,1.2,1.8c0.9,1.3,1.9,2.5,3,3.6L191.8,166.4z M199,159.4l-4.6,4.4
		c-1.1-1.2-2.1-2.4-2.9-3.7c-0.3-0.5-0.7-1-1-1.5c-11.9-20.1-2.2-54.4,23.9-80.6c18.8-18.8,41.5-29,60.3-29c10.1,0,19,3,25.6,9.1
		l-19.3,19.3l-12.6-5.2c-1.1-0.5-2.3-0.5-3.4,0c-1.1,0.5-1.9,1.3-2.4,2.4c-0.5,1.1-0.5,2.3,0,3.4c0.5,1.1,1.3,1.9,2.4,2.4l9.3,3.8
		l-16.6,16.7l-7.2,7.1l-9.3-9.3c-1.7-1.7-4.5-1.7-6.2,0c-1.7,1.7-1.7,4.5,0,6.2l9.3,9.3L218.4,140l-3.8-9.3
		c-0.5-1.1-1.3-1.9-2.4-2.4c-1.1-0.5-2.3-0.5-3.4,0c-1.1,0.4-1.9,1.3-2.4,2.4c-0.5,1.1-0.5,2.3,0,3.3l3.4,10.6l0.6,1.8l0.4,1.2
		L199,159.4z M325.2,147.3l-5.2-12.6c-0.9-2.2-3.5-3.3-5.8-2.4c-1.1,0.4-1.9,1.3-2.4,2.4c-0.4,1.1-0.4,2.3,0,3.4l3.9,9.3h-33.7
		v-13.1c0-2.4-2-4.4-4.4-4.4s-4.4,2-4.4,4.4v13.1h-36.7l3.9-9.3c0.9-2.2-0.1-4.8-2.4-5.7c-1.1-0.5-2.3-0.5-3.4,0
		c-1.1,0.4-1.9,1.3-2.4,2.4l-5.2,12.6h-14.6l-0.6-1.9l-0.6-1.8l-3.2-10.2c-0.3-0.6-0.3-1.4,0-2c0.3-0.6,0.8-1.1,1.4-1.4
		c0.6-0.3,1.3-0.3,2,0c0.6,0.3,1.1,0.8,1.4,1.4l4.4,10.5c0.1,0.3,0.4,0.5,0.7,0.5c0.3,0.1,0.6,0,0.8-0.2l27.5-27.5
		c0.3-0.4,0.3-0.9,0-1.3l-9.9-9.9c-0.5-0.5-0.8-1.1-0.8-1.8c0-0.7,0.3-1.4,0.8-1.8c1-1,2.7-1,3.7,0l9.9,9.9c0.3,0.3,0.9,0.3,1.3,0
		l7.6-7.6c6.1-1,12.5-1.5,18.9-1.5c40.8,0,74.1,20.9,74.8,46.7H325.2z"/>
</g>
</svg>
