<?xml version="1.0" encoding="utf-8"?>
<!-- Generator: Adobe Illustrator 22.0.1, SVG Export Plug-In . SVG Version: 6.00 Build 0)  -->
<svg version="1.1" id="Layer_1" xmlns="http://www.w3.org/2000/svg" xmlns:xlink="http://www.w3.org/1999/xlink" x="0px" y="0px"
	 viewBox="0 0 250 260" style="enable-background:new 0 0 250 260;" xml:space="preserve">
<style type="text/css">
	.st0{fill:#FFE36E;}
	.st1{fill:#B52BC9;}
	.st2{fill:#1E1E1E;}
	.st3{fill:#EA5397;}
	.st4{fill:#07C8E8;}
</style>
<g>
	<path class="st0" d="M112.8,49.3c3.9-1.5,7.6-3.9,10.9-6.5c8.1-6.3,16.3-14.4,27.2-13.8c13.3,0.7,24.7,7.8,36.5,13
		c12.4,5.5,24.8,11.2,36.9,17.5c10.4,5.5,20.1,14.3,20.5,26.9c0.5,14.5-10.1,26.6-13.5,40.2c-3.1,12.4-1.4,23.2,4.3,34.2
		c4.3,8.7,8,16.2,8.4,28c0.4,10.8-1.9,23-6.2,33.5c-6.6,15.9-23.6,28.1-40.9,21.5c-14.2-5.4-24.9-21.6-41.7-19
		c-9.5,1.5-16,8.9-22.6,15.1c-7.5,7.1-16.8,12.7-27.1,14.4c-11.4,1.9-23.2-1-33.5-6.1c-11.7-5.8-23.9-14.1-32.9-23.6
		c-13.8-14.6-13.1-30.3-7.4-50.9c4.3-15.3,2-33.5-5.7-46.4c-2-3.4-4.5-6.6-6.8-9.7c-3.1-4-6.3-8.2-8.7-13.1
		C1,85.3,4.8,61.4,19.9,46.1c17.5-17.7,46.9-18.4,66.9-4.3C95.1,47.7,102.2,53.4,112.8,49.3z"/>
</g>
<g>
	<g>
		<path class="st1" d="M208.6,147.1c-0.1,0.2-0.3,0.4-0.5,0.5c-0.1,0-0.2,0.1-0.3,0.1s-0.2,0-0.3-0.1l-33.9-14
			c-0.2-0.1-0.4-0.3-0.5-0.5s-0.1-0.5,0-0.7c0.4-0.9,0.4-1.8,0-2.7c-0.4-0.9-1-1.6-1.9-1.9c-0.9-0.4-1.8-0.4-2.7,0
			c-0.9,0.4-1.5,1-1.9,1.9c-0.1,0.2-0.3,0.4-0.5,0.5s-0.5,0.1-0.7,0l-82.1-34c-0.5-0.2-0.7-0.7-0.5-1.2c0.8-1.8-0.1-3.9-1.9-4.6
			c-1.8-0.8-3.9,0.1-4.6,1.9c-0.2,0.5-0.7,0.7-1.2,0.5l-33.9-14c-0.2-0.1-0.4-0.3-0.5-0.5s-0.1-0.5,0-0.7
			C50,55.2,67.5,37.7,89.9,28.4c22.4-9.3,47.1-9.3,69.5,0s39.9,26.8,49.2,49.2C217.9,100,217.9,124.7,208.6,147.1z"/>
	</g>
	<path class="st2" d="M205.4,69.8c-9.2-22.1-26.3-39.4-48.3-48.8l6-14.6c0.2-0.5,0-1-0.5-1.2s-1,0-1.2,0.5l-6,14.6
		c-22.2-9-46.6-8.8-68.7,0.3c-22.4,9.3-39.9,26.8-49.2,49.2c-0.1,0.2-0.1,0.5,0,0.7s0.3,0.4,0.5,0.5l33.9,14c0.5,0.2,1,0,1.2-0.5
		c0.8-1.8,2.8-2.7,4.6-1.9c1.8,0.8,2.7,2.8,1.9,4.6c-0.2,0.5,0,1,0.5,1.2l40.2,16.7L73,219.2c-0.2,0.5,0,1,0.5,1.2
		c0.1,0,0.2,0.1,0.3,0.1c0.4,0,0.7-0.2,0.8-0.6l47.3-114.2l40.2,16.6c0.2,0.1,0.5,0.1,0.7,0s0.4-0.3,0.5-0.5c0.4-0.9,1-1.6,1.9-1.9
		c0.9-0.4,1.8-0.4,2.7,0c1.8,0.8,2.7,2.8,1.9,4.6c-0.2,0.5,0,1,0.5,1.2l33.9,14c0.1,0.1,0.2,0.1,0.3,0.1c0.4,0,0.7-0.2,0.8-0.6
		C214.7,116.9,214.7,92.2,205.4,69.8z M71.8,83L39.5,69.6C48.7,48,65.6,31.2,87.3,22.2c11-4.5,22.5-6.8,34.1-6.8
		c10.3,0,20.5,1.8,30.4,5.4c-50.4,10-70,47.5-75,59.7C74.8,80.3,72.9,81.3,71.8,83z M121,103.4L81.5,87c0.5-2.4-0.7-5-3-6
		c5.2-12.3,24.9-49.6,75.7-58.8c0.1,0,0.3-0.1,0.4-0.2v-0.1l0,0l-0.1,0.1L121,103.4z M168.3,118.2c-1.2-0.4-2.6-0.4-3.8,0.1
		c-1,0.4-1.9,1.2-2.5,2.1L122.6,104l33.6-81.2c0-0.1-0.1-0.2-0.1-0.3c0.1,0,0.1,0,0.2,0.1l-0.1,0.3c0,0.1,0,0.1,0.1,0.2
		C185.9,65.5,173.3,106,168.3,118.2z M204.1,137.8l-32.3-13.4c0.5-2-0.3-4.1-1.9-5.4c4.9-12,17.8-52.4-10.9-95.2
		c20.3,9.4,36.1,25.9,44.7,46.6C212.7,92.2,212.8,116,204.1,137.8z"/>
</g>
<g>
	<g>
		<path class="st3" d="M146.7,165.1c-1.1,0.5-2.3,0.7-3.4,0.7c-3.5,0-6.9-2.1-8.3-5.6c-1.9-4.6,0.3-9.9,4.9-11.8
			c0.3-0.1,0.5,0,0.7,0.3l3.1,7.4l7.4-3.1c0.1,0,0.3,0,0.4,0s0.2,0.2,0.3,0.3C153.5,157.9,151.3,163.2,146.7,165.1z"/>
	</g>
	<circle class="st4" cx="164.1" cy="166" r="3.7"/>
	<circle class="st4" cx="186.4" cy="156.8" r="3.7"/>
	<g>
		<path class="st3" d="M213.9,195.4c-2.4,5.7-6.8,10.1-12.5,12.5l-11.2,4.6c-2.8,1.2-5.8,1.8-8.8,1.8s-6-0.6-8.8-1.8
			c-5.7-2.4-10.1-6.8-12.5-12.5s-2.4-12,0-17.6c2.3-5.7,6.8-10.1,12.5-12.5l11.2-4.6c5.7-2.4,12-2.4,17.6,0
			c5.7,2.3,10.1,6.8,12.5,12.5C216.2,183.5,216.2,189.8,213.9,195.4z"/>
	</g>
	<circle class="st3" cx="195.1" cy="135.9" r="8.5"/>
	<path class="st2" d="M222.9,181.5l-11-0.6c-0.2-1.6-0.6-3.2-1.1-4.8l10.1-4.2c0.5-0.2,0.7-0.7,0.5-1.2s-0.7-0.7-1.2-0.5l-10.1,4.2
		c-0.7-1.6-1.5-3-2.5-4.4l7.2-8c0.3-0.4,0.3-0.9-0.1-1.3c-0.4-0.3-0.9-0.3-1.3,0.1l-7,7.8c-2.1-2.5-4.8-4.6-7.8-6
		c2.4-6.3,1.4-13.4-2.5-19.8c2.3-0.9,4.3-2.7,5.3-5.1v-0.1l0.2-0.4v-0.1c0-0.1,0.1-0.2,0.1-0.4l0.2-0.9c0.4-2.2,0.1-4.5-1-6.4
		c-0.1-0.2-0.2-0.4-0.3-0.6c-0.1-0.2-0.2-0.3-0.3-0.5c-0.4-0.6-0.9-1.1-1.5-1.6l-0.1-0.1c-0.1-0.1-0.2-0.2-0.3-0.3
		c-0.2-0.1-0.4-0.3-0.6-0.4c0,0-0.1,0-0.1-0.1l-1.4-0.7c-4.7-1.9-10.2,0.4-12.2,5.1v0.1c0,0,0,0,0,0.1c-0.9,2.3-0.9,4.9,0.1,7.2
		c1,2.3,2.8,4.1,5.2,5c1.1,0.5,2.3,0.7,3.5,0.7c0.5,0,1.1,0,1.6-0.1c3.9,6,4.8,12.7,2.7,18.6c-2.8-1.1-5.8-1.7-8.8-1.6
		c0.1-0.2,0.3-0.4,0.4-0.7c0.2-0.6,0.4-1.2,0.4-1.7c0-0.6-0.1-1.2-0.4-1.8c-1-2.3-3.6-3.4-6-2.5c-1.1,0.5-2,1.3-2.5,2.5
		c-0.5,1.1-0.5,2.4,0,3.5c0.3,0.7,0.8,1.3,1.3,1.8c-0.6,0.2-1.3,0.4-1.9,0.7l-11.2,4.6c-0.6,0.3-1.2,0.5-1.8,0.8c0-0.1,0-0.3,0-0.4
		c0-0.6-0.1-1.2-0.4-1.7c-1-2.3-3.6-3.4-6-2.5c-2.3,1-3.4,3.6-2.5,6c0.5,1.1,1.4,2,2.5,2.5c0.2,0.1,0.5,0.2,0.7,0.2
		c-2.1,2.1-3.8,4.6-5.1,7.4c-5.6-2.6-9.7-8-11.2-14.8c4.2-2.3,6.1-7.4,4.2-11.9c-0.1-0.2-0.3-0.4-0.5-0.5s-0.5-0.1-0.7,0l-7,2.9
		l-2.9-7c-0.2-0.5-0.7-0.7-1.2-0.5c-2.3,1-4.1,2.8-5.1,5.1c-1,2.3-1,4.9,0,7.2c1.5,3.6,5,5.8,8.7,5.8c0.9,0,1.9-0.1,2.8-0.4
		c1.7,7.3,6.1,13,12.2,15.8c-1.1,3.2-1.5,6.5-1.2,9.7l-10.4-0.6c-0.5,0-0.9,0.3-0.9,0.8s0.3,0.9,0.8,1l10.7,0.6
		c0.3,1.6,0.7,3.3,1.4,4.9l-10,4.1c-0.5,0.2-0.7,0.7-0.5,1.2c0.1,0.4,0.5,0.6,0.8,0.6c0.1,0,0.2,0,0.3-0.1l10.1-4.2
		c0.7,1.5,1.6,2.9,2.6,4.2l-7.3,8.2c-0.3,0.4-0.3,0.9,0.1,1.3c0.2,0.2,0.4,0.2,0.6,0.2s0.5-0.1,0.7-0.3l7.2-8
		c2.3,2.5,5.1,4.4,8.3,5.8c2.9,1.2,5.9,1.8,9,1.8c3,0,6.1-0.6,9-1.8l11.2-4.6c5.8-2.4,10.3-6.9,12.7-12.7c1.3-3.2,1.9-6.6,1.8-9.9
		l10.8,0.6l0,0c0.5,0,0.9-0.4,0.9-0.9C223.8,181.9,223.4,181.5,222.9,181.5z M190.1,141c-1.9-0.8-3.4-2.2-4.2-4.1
		c-0.7-1.6-0.8-3.3-0.4-4.9l6.8,2.8c0.1,0,0.2,0.1,0.3,0.1c0.3,0,0.7-0.2,0.8-0.5c0.2-0.5,0-1-0.5-1.2l-6.9-2.9
		c1.8-3.4,5.9-5,9.5-3.5l1.3,0.6c0.2,0.1,0.3,0.2,0.5,0.3c0.1,0.1,0.2,0.1,0.3,0.2l0.1,0.1c0.4,0.4,0.8,0.8,1.2,1.3
		c0.1,0.1,0.2,0.2,0.3,0.4c0.1,0.2,0.2,0.3,0.3,0.5c0.9,1.6,1.2,3.4,0.8,5.2l-0.2,0.8c0,0.1-0.1,0.2-0.1,0.2l-0.2,0.4l0,0
		C198.3,140.7,193.9,142.5,190.1,141z M133.2,158.6c-1.5-3.6,0-7.7,3.3-9.6l2.9,7c0.2,0.5,0.7,0.7,1.2,0.5l7-2.9
		c1,3.7-0.8,7.6-4.4,9.1C139.3,164.4,134.8,162.5,133.2,158.6z M183.4,155.2c0.3-0.1,0.7-0.2,1-0.2c1.1,0,2.1,0.6,2.6,1.7
		c0.3,0.7,0.3,1.4,0,2.1s-0.8,1.2-1.5,1.5c-0.1,0-0.2,0.1-0.3,0.1l0,0c-0.2,0.1-0.4,0.1-0.6,0.1c-1.2,0.1-2.3-0.6-2.7-1.7
		C181.3,157.4,182,155.8,183.4,155.2z M161,169.6c-0.7-0.3-1.2-0.8-1.5-1.5c-0.6-1.4,0.1-3,1.5-3.6c0.3-0.1,0.7-0.2,1.1-0.2
		c1.1,0,2.1,0.6,2.6,1.7s0.1,2.3-0.7,3.1c-0.2,0.1-0.3,0.3-0.5,0.4c-0.1,0-0.2,0.1-0.3,0.1C162.5,169.9,161.7,169.9,161,169.6z
		 M208.6,191.9c-1.1,2.7-2.7,5-4.7,7s-4.4,3.6-7,4.7l-11.2,4.6c-5.4,2.2-11.2,2.2-16.6,0s-9.5-6.4-11.7-11.7
		c-2.2-5.3-2.2-11.2,0-16.6c1.5-3.6,3.9-6.7,6.9-9c0.2-0.2,0.5-0.4,0.7-0.5c1.3-0.9,2.6-1.6,4.1-2.2l11.2-4.6c1.5-0.6,3-1,4.4-1.3
		c0.3-0.1,0.5-0.1,0.8-0.1c1-0.2,2-0.2,3-0.2c8.5,0,16.6,5,20,13.4C210.8,180.7,210.8,186.6,208.6,191.9z"/>
</g>
</svg>
