<?xml version="1.0" encoding="utf-8"?>
<!-- Generator: Adobe Illustrator 22.0.1, SVG Export Plug-In . SVG Version: 6.00 Build 0)  -->
<svg version="1.1" id="Layer_1" xmlns="http://www.w3.org/2000/svg" xmlns:xlink="http://www.w3.org/1999/xlink" x="0px" y="0px"
	 viewBox="0 0 70 70" style="enable-background:new 0 0 70 70;" xml:space="preserve">
<style type="text/css">
	.st0{fill:#FC7E56;}
	.st1{fill:none;}
	.st2{fill:#1E1E1E;}
</style>
<g>
	<g>
		<g>
			<g>
				<g>
					<g>
						<g>
							<path class="st0" d="M39,39.5l-0.9,0.3h0l-0.5,0.8L37,39.8l0,0l-0.9-0.3l0.5-0.8l0,0c0-0.1,0-0.1,0-0.2v-0.7l0.9,0.3h0v0
								l0.9-0.3v0.7c0,0.1,0,0.1,0,0.2l0,0L39,39.5z"/>
							<path class="st0" d="M56.9,44.3c-0.7,0.7-1,1.6-0.8,2.5L58.6,61c0.3,1.8-0.4,3.5-1.8,4.6c-1.4,1.1-3.3,1.2-4.9,0.4L39,59.4
								c-0.8-0.4-1.8-0.4-2.7,0l-12.7,6.8c-0.7,0.4-1.4,0.6-2.2,0.6c-1,0-1.9-0.3-2.7-0.9c-1.5-1-2.2-2.8-1.9-4.6l2.3-14.2
								c0.2-0.9-0.2-1.9-0.8-2.5l-10.4-10c-1.3-1.2-1.8-3.1-1.2-4.8c0.5-1.7,2-2.9,3.8-3.2l14.2-2.2c0.9-0.1,1.8-0.7,2.2-1.6l6.3-13
								c0.8-1.6,2.4-2.6,4.2-2.6h0c1.8,0,3.4,1,4.2,2.6L48,22.7c0.4,0.9,1.2,1.4,2.2,1.6l14.3,2c1.8,0.2,3.2,1.5,3.8,3.1
								c0.6,1.7,0.1,3.5-1.2,4.8L56.9,44.3z"/>
						</g>
						<g>
							<polyline class="st1" points="37.5,39 36.6,38.8 36.6,38.7 36.6,38.7 							"/>
							<path class="st0" d="M38.4,39c0,0.2-0.1,0.3-0.2,0.5l0,0c0,0.1-0.1,0.2-0.2,0.2h0c-0.1,0.1-0.2,0.1-0.4,0.2c0,0-0.1,0-0.1,0
								c-0.1,0-0.2,0-0.3-0.1L37,39.8l0,0l-0.9-0.3l0.5-0.8l0,0c0-0.1,0-0.1,0-0.2v-0.7l0.9,0.3h0l0.2,0.1c0,0,0,0,0.1,0
								c0,0,0.1,0,0.1,0c0,0,0,0,0,0c0,0,0,0,0.1,0c0,0,0.1,0,0.1,0c0,0,0.1,0,0.1,0.1c0,0,0.1,0,0.1,0.1l0,0l0.1,0.1
								c0,0.1,0.1,0.1,0.1,0.2c0,0,0,0,0,0c0,0,0,0,0,0C38.4,38.9,38.4,38.9,38.4,39z"/>
						</g>
					</g>
					<g>
						<polyline class="st1" points="37.5,39 37.2,39.4 37,39.7 37,39.8 37,39.8 						"/>
						<path class="st0" d="M38.4,39c0,0.2-0.1,0.3-0.2,0.5l0,0l-0.2,0.2h0l-0.5,0.8L37,39.8l0,0l-0.9-0.3l0.5-0.8l0,0l0.1-0.1v0
							c0,0,0-0.1,0.1-0.1c0,0,0,0,0,0c0,0,0.1-0.1,0.1-0.1c0,0,0,0,0,0c0.1-0.1,0.1-0.1,0.2-0.1c0,0,0.1,0,0.2,0c0.1,0,0.1,0,0.2,0
							c0,0,0,0,0,0c0.1,0,0.1,0,0.2,0c0,0,0,0,0.1,0c0,0,0.1,0,0.1,0c0,0,0,0,0,0v0c0,0,0,0,0.1,0c0,0,0.1,0,0.1,0
							c0,0,0.1,0,0.1,0.1c0,0,0.1,0,0.1,0.1l0,0l0.1,0.1c0,0.1,0.1,0.1,0.1,0.2c0,0,0,0,0,0c0,0,0,0,0,0
							C38.4,38.9,38.4,38.9,38.4,39z"/>
					</g>
				</g>
				<g>
					<polyline class="st1" points="37.5,39 37.8,39.4 37.8,39.4 38,39.7 38,39.7 38.1,39.8 					"/>
					<line class="st1" x1="56" y1="64.4" x2="55.8" y2="64.1"/>
					<path class="st0" d="M39,39.5l-0.9,0.3h0l-0.5,0.8L37,39.8l0,0l-0.2-0.2c-0.1-0.1-0.1-0.2-0.1-0.3c0-0.2,0-0.3,0-0.5
						c0,0,0,0,0,0v0c0,0,0-0.1,0.1-0.1v0c0,0,0-0.1,0.1-0.1c0,0,0,0,0,0c0,0,0,0,0,0c0,0,0,0,0.1-0.1c0,0,0,0,0,0
						c0.1-0.1,0.1-0.1,0.2-0.1c0,0,0.1,0,0.1,0l0.1,0c0.1,0,0.1,0,0.2,0c0,0,0,0,0,0c0.1,0,0.1,0,0.2,0c0,0,0,0,0.1,0
						c0,0,0.1,0,0.1,0c0,0,0,0,0,0c0,0,0,0,0.1,0c0,0,0.1,0,0.1,0c0,0,0.1,0,0.1,0.1c0,0,0.1,0,0.1,0.1l0,0l0.1,0.1l0.1,0.1l0,0
						L39,39.5z"/>
				</g>
			</g>
			<g>
				<polyline class="st1" points="37.5,39 38.3,38.7 38.4,38.7 38.4,38.7 				"/>
				<line class="st1" x1="66.8" y1="29.7" x2="66.5" y2="29.8"/>
				<path class="st0" d="M39,39.5l-0.9,0.3h0l-0.3,0.1c-0.1,0-0.1,0-0.1,0c0,0-0.1,0-0.1,0c-0.1,0-0.2,0-0.3-0.1
					c-0.1,0-0.1-0.1-0.2-0.1c-0.1,0-0.2-0.1-0.2-0.2c-0.1-0.1-0.1-0.2-0.1-0.3c0-0.2,0-0.3,0-0.5c0,0,0,0,0,0v0c0,0,0-0.1,0.1-0.1v0
					c0,0,0-0.1,0.1-0.1c0,0,0,0,0,0c0,0,0,0,0,0c0,0,0,0,0.1-0.1c0,0,0,0,0,0c0.1-0.1,0.1-0.1,0.2-0.1c0,0,0.1,0,0.1,0l0.1,0
					l0.2-0.1h0v0l0.9-0.3v0.7c0,0.1,0,0.1,0,0.2l0,0L39,39.5z"/>
			</g>
		</g>
		<g>
			<polyline class="st1" points="37.5,38.5 37.5,38.1 37.5,38.1 			"/>
			<line class="st1" x1="37.5" y1="9" x2="37.5" y2="9"/>
			<path class="st0" d="M38.4,37.8v0.7c0,0.1,0,0.1,0,0.2c0,0,0,0,0,0c0,0,0,0,0,0c-0.1,0.3-0.3,0.5-0.6,0.6h0c-0.1,0-0.2,0-0.3,0
				c-0.1,0-0.2,0-0.2,0c-0.3-0.1-0.5-0.3-0.6-0.6v0c0,0,0,0,0,0c0-0.1,0-0.1,0-0.2v-0.7l0.9,0.3h0v0L38.4,37.8z"/>
		</g>
	</g>
	<path class="st2" d="M32.9,34.2L32.9,34.2C32.9,34.2,32.9,34.2,32.9,34.2C32.9,34.2,32.9,34.2,32.9,34.2z"/>
	<path class="st2" d="M32.9,34.2L32.9,34.2C32.9,34.2,32.9,34.2,32.9,34.2C32.9,34.2,32.9,34.2,32.9,34.2z"/>
	<path class="st2" d="M62.1,30.2c1.3-1.3,1.7-3.1,1.2-4.8c-0.6-1.7-2-2.9-3.8-3.1l-14.3-2c-0.9-0.1-1.8-0.7-2.2-1.6L36.5,5.8
		c-0.8-1.6-2.4-2.6-4.2-2.6h0c-1.8,0-3.4,1-4.2,2.6l-6.3,13c-0.4,0.8-1.2,1.4-2.2,1.6L5.4,22.6c-1.8,0.3-3.2,1.5-3.8,3.2
		c-0.5,1.7-0.1,3.5,1.2,4.8l10.4,10c0.7,0.7,1,1.6,0.8,2.5l-2.3,14.2c-0.3,1.8,0.4,3.5,1.9,4.6c0.8,0.6,1.8,0.9,2.7,0.9
		c0.8,0,1.5-0.2,2.2-0.6l12.7-6.8c0.8-0.5,1.8-0.5,2.7,0L46.9,62c1.6,0.8,3.5,0.7,4.9-0.4c1.5-1.1,2.2-2.8,1.8-4.6l-2.5-14.2
		c-0.2-0.9,0.1-1.9,0.8-2.5L62.1,30.2z M33.4,5.2c0.7,0.2,1.2,0.7,1.5,1.4l6.5,12.9c0.7,1.4,2,2.3,3.5,2.5l14.3,2
		c0.7,0.1,1.4,0.5,1.8,1l-27.6,8.8V5.2z M32.9,34.2L32.9,34.2C32.9,34.2,32.9,34.2,32.9,34.2C32.9,34.2,32.9,34.2,32.9,34.2z
		 M5.7,24.4L20,22.2c1.5-0.2,2.8-1.2,3.5-2.6l6.3-13c0.4-0.8,1-1.3,1.8-1.5v28.7L3.8,25.5C4.3,24.9,4.9,24.5,5.7,24.4z M13.6,57.6
		l2.3-14.2c0.2-1.5-0.3-3.1-1.4-4.1l-10.4-10c-0.6-0.6-0.9-1.3-0.9-2.1l27.8,8.3L14.3,60.1C13.7,59.4,13.5,58.6,13.6,57.6z
		 M47.7,60.4l-12.8-6.6c-1.4-0.7-3-0.7-4.3,0l-12.7,6.8c-0.6,0.3-1.2,0.4-1.9,0.3l16.6-24.4l17.5,24C49.3,60.9,48.4,60.8,47.7,60.4z
		 M49.3,43.2l2.5,14.2c0.1,0.8,0,1.5-0.4,2.1L34,35.5l27.8-8.8c0.1,0.8-0.2,1.6-0.8,2.2L50.6,39C49.5,40.1,49,41.7,49.3,43.2z"/>
	<path class="st2" d="M32.9,34.2L32.9,34.2C32.9,34.2,32.9,34.2,32.9,34.2C32.9,34.2,32.9,34.2,32.9,34.2z"/>
	<path class="st2" d="M32.9,34.2L32.9,34.2C32.9,34.2,32.9,34.2,32.9,34.2C32.9,34.2,32.9,34.2,32.9,34.2z"/>
</g>
</svg>
