<?xml version="1.0" encoding="utf-8"?>
<!-- Generator: Adobe Illustrator 22.0.1, SVG Export Plug-In . SVG Version: 6.00 Build 0)  -->
<svg version="1.1" id="Layer_1" xmlns="http://www.w3.org/2000/svg" xmlns:xlink="http://www.w3.org/1999/xlink" x="0px" y="0px"
	 viewBox="0 0 135 240" style="enable-background:new 0 0 135 240;" xml:space="preserve">
<style type="text/css">
	.st0{fill:none;}
	.st1{fill:#07C8E8;}
	.st2{fill:#1E1E1E;}
</style>
<g>
	<g>
		<g>
			<path class="st0" d="M17.7,24.1"/>
			<line class="st0" x1="17.7" y1="24.1" x2="17.3" y2="23"/>
		</g>
		<g>
			<line class="st0" x1="41.1" y1="14.2" x2="125.3" y2="217.5"/>
			<path class="st1" d="M42.8,15.9c-0.4-0.3-0.9-0.5-1.3-0.8c-0.4-0.2-0.8-0.5-1.2-0.7c-0.1-0.3,0-0.7,0.2-0.9
				c0.1-0.1,0.2-0.1,0.3-0.2c0.5-0.2,1,0,1.2,0.5l0.2,0.6L42.8,15.9z"/>
			<path class="st1" d="M125.6,218.3c-0.1,0-0.2,0.1-0.3,0.1c-0.4,0-0.7-0.2-0.8-0.6l-0.1-0.3l0.8,0.6c0.2-0.7,0.4-1.4,0.6-2.1
				l0.4,1.1C126.3,217.6,126.1,218.1,125.6,218.3z"/>
		</g>
		<g>
			<path class="st1" d="M42.8,15.9c-0.4-0.3-0.9-0.5-1.3-0.8c-0.4-0.2-0.8-0.5-1.2-0.7c-0.1-0.3,0-0.7,0.2-0.9
				c0.6,0.3,1.1,0.6,1.7,0.9L42.8,15.9z"/>
			<path class="st1" d="M125.6,218.3c-0.1,0-0.2,0.1-0.3,0.1c-0.4,0-0.7-0.2-0.8-0.6l-0.1-0.3l0.8,0.6c0.2-0.7,0.4-1.4,0.6-2.1
				l0.4,1.1C126.3,217.6,126.1,218.1,125.6,218.3z"/>
			<path class="st1" d="M42.2,14.5l-0.2-0.6c-0.2-0.5-0.7-0.7-1.2-0.5c-0.1,0-0.2,0.1-0.3,0.2c-0.2,0.2-0.4,0.6-0.2,0.9
				c0.4,0.2,0.8,0.4,1.2,0.7c0.4,0.2,0.8,0.5,1.3,0.8L42.2,14.5z M126.1,217.1l-0.4-1.1c-0.2,0.7-0.4,1.4-0.6,2.1l-0.8-0.6l0.1,0.3
				c0.1,0.3,0.5,0.6,0.8,0.6c0.1,0,0.2,0,0.3-0.1C126.1,218.1,126.3,217.6,126.1,217.1z"/>
			<path class="st1" d="M126.4,219.9c-0.1,0.3-0.3,0.5-0.6,0.6c-0.3,0.1-0.6,0-0.8-0.2l-18.8-14.9l-2.7,23.8c0,0.3-0.2,0.5-0.5,0.7
				c-0.1,0.1-0.3,0.1-0.4,0.1c-0.1,0-0.3,0-0.4-0.1c-20.2-10-46.7-47.8-65.9-94.2c-12.2-29.3-20-58.4-22.1-81.8
				c-2.2-23.8,1.9-39,11.5-43c9.5-4,23.2,4,38.5,22.3c15.1,18.1,30.1,44.2,42.2,73.5C125.6,153.1,133.7,198.6,126.4,219.9z"/>
		</g>
	</g>
	<path class="st2" d="M64.5,182.9c-0.4,0-0.7-0.2-0.8-0.6l-8.4-20.3c-0.2-0.5,0-1,0.5-1.2c0.5-0.2,1,0,1.2,0.5l8.4,20.3
		c0.2,0.5,0,1-0.5,1.2C64.7,182.9,64.6,182.9,64.5,182.9z"/>
	<path class="st2" d="M106.7,165.5c-0.4,0-0.7-0.2-0.8-0.6l-8.4-20.3c-0.2-0.5,0-1,0.5-1.2c0.5-0.2,1,0,1.2,0.5l8.4,20.3
		c0.2,0.5,0,1-0.5,1.2C106.9,165.4,106.8,165.5,106.7,165.5z"/>
	<path class="st2" d="M94.5,196.5c-0.4,0-0.7-0.2-0.8-0.6l-8.4-20.3c-0.2-0.5,0-1,0.5-1.2c0.5-0.2,1,0,1.2,0.5l8.4,20.3
		c0.2,0.5,0,1-0.5,1.2C94.7,196.5,94.6,196.5,94.5,196.5z"/>
	<g>
		<path class="st2" d="M98.7,106.7C86.5,77.4,71.5,51.3,56.5,33.2C41.2,14.9,27.5,7,18,10.9c-9.5,3.9-13.6,19.2-11.5,43
			c2.1,23.5,10,52.5,22.1,81.8c19.2,46.4,45.7,84.2,65.9,94.2c0.1,0.1,0.3,0.1,0.4,0.1c0.2,0,0.3,0,0.4-0.1c0.3-0.1,0.4-0.4,0.5-0.7
			l2.7-23.9l18.8,14.9c0.2,0.2,0.5,0.2,0.8,0.2c0.3-0.1,0.5-0.3,0.6-0.6C125.9,198.6,117.9,153.1,98.7,106.7z M30.3,135
			c-12.1-29.2-19.9-58-22-81.3C7.2,42.1,7.7,32.5,9.6,25.4l83.6,201.7C73.6,215.9,48.7,179.4,30.3,135z M98.4,203
			c-0.2-0.2-0.6-0.2-0.9-0.1c-0.3,0.1-0.5,0.4-0.5,0.7l-2.5,21.8L10.5,22.8c1.8-5.2,4.6-8.7,8.2-10.2c1.4-0.6,2.8-0.8,4.4-0.8
			c2.8,0,6,0.9,9.5,2.7c0,0,0,0,0,0.1l84.1,203L98.4,203z M118,216L35,15.9c6.1,3.7,12.9,10,20,18.5c15,17.9,29.9,43.9,41.9,73
			C115.1,151.1,123.3,193.9,118,216z"/>
	</g>
</g>
</svg>
