<?xml version="1.0" encoding="utf-8"?>
<!-- Generator: Adobe Illustrator 22.0.1, SVG Export Plug-In . SVG Version: 6.00 Build 0)  -->
<svg version="1.1" id="Layer_1" xmlns="http://www.w3.org/2000/svg" xmlns:xlink="http://www.w3.org/1999/xlink" x="0px" y="0px"
	 viewBox="0 0 190 225" style="enable-background:new 0 0 190 225;" xml:space="preserve">
<style type="text/css">
	.st0{fill:#B52BC9;}
	.st1{fill:#1E1E1E;}
</style>
<g>
	<g>
		<path class="st0" d="M177.1,146.9c-0.1,0.2-0.3,0.4-0.5,0.5c-0.1,0-0.2,0.1-0.3,0.1s-0.2,0-0.3-0.1l-33.9-14
			c-0.2-0.1-0.4-0.3-0.5-0.5c-0.1-0.2-0.1-0.5,0-0.7c0.4-0.9,0.4-1.8,0-2.7c-0.4-0.9-1-1.6-1.9-1.9c-0.9-0.4-1.8-0.4-2.7,0
			c-0.9,0.4-1.5,1-1.9,1.9c-0.1,0.2-0.3,0.4-0.5,0.5c-0.2,0.1-0.5,0.1-0.7,0L51.8,96c-0.5-0.2-0.7-0.7-0.5-1.2
			c0.8-1.8-0.1-3.9-1.9-4.6c-1.8-0.8-3.9,0.1-4.6,1.9c-0.2,0.5-0.7,0.7-1.2,0.5l-33.9-14c-0.2-0.1-0.4-0.3-0.5-0.5
			c-0.1-0.2-0.1-0.5,0-0.7C18.5,54.9,36,37.5,58.4,28.2c22.4-9.3,47.1-9.3,69.5,0c22.4,9.3,39.9,26.8,49.2,49.2
			C186.4,99.8,186.4,124.5,177.1,146.9z"/>
	</g>
	<path class="st1" d="M173.9,69.5c-9.2-22.1-26.3-39.4-48.3-48.8l6-14.6c0.2-0.5,0-1-0.5-1.2c-0.5-0.2-1,0-1.2,0.5l-6,14.6
		c-22.2-9-46.6-8.8-68.7,0.3C32.7,29.6,15.3,47.1,6,69.5c-0.1,0.2-0.1,0.5,0,0.7c0.1,0.2,0.3,0.4,0.5,0.5l33.9,14
		c0.5,0.2,1,0,1.2-0.5c0.8-1.8,2.8-2.7,4.6-1.9c1.8,0.8,2.7,2.8,1.9,4.6c-0.2,0.5,0,1,0.5,1.2l40.2,16.7L41.5,218.9
		c-0.2,0.5,0,1,0.5,1.2c0.1,0,0.2,0.1,0.3,0.1c0.4,0,0.7-0.2,0.8-0.6l47.2-114.1l40.2,16.6c0.2,0.1,0.5,0.1,0.7,0
		c0.2-0.1,0.4-0.3,0.5-0.5c0.4-0.9,1-1.6,1.9-1.9c0.9-0.4,1.8-0.4,2.7,0c1.8,0.8,2.7,2.8,1.9,4.6c-0.2,0.5,0,1,0.5,1.2l33.9,14
		c0.1,0.1,0.2,0.1,0.3,0.1c0.4,0,0.7-0.2,0.8-0.6C183.2,116.6,183.2,91.9,173.9,69.5z M40.3,82.7L8,69.4C17.2,47.8,34.1,31,55.8,22
		c11-4.5,22.5-6.8,34.1-6.8c10.3,0,20.5,1.8,30.4,5.4c-50.4,10-70,47.5-75,59.7C43.3,80.1,41.3,81,40.3,82.7z M89.4,103.1L50,86.8
		c0.5-2.4-0.7-5-3-6c5.2-12.3,24.9-49.6,75.7-58.8c0.1,0,0.3-0.1,0.4-0.2l0-0.1c0,0,0,0,0,0c0,0-0.1,0.1-0.1,0.1L89.4,103.1z
		 M136.8,117.9c-1.2-0.4-2.6-0.4-3.8,0.1c-1,0.4-1.9,1.2-2.5,2.1l-39.5-16.3l33.6-81.2c0-0.1-0.1-0.2-0.1-0.3c0.1,0,0.1,0,0.2,0.1
		l-0.1,0.3c0,0.1,0,0.1,0.1,0.2C154.4,65.3,141.7,105.8,136.8,117.9z M172.5,137.5l-32.3-13.4c0.5-2-0.3-4.1-1.9-5.4
		c4.9-12,17.8-52.4-10.9-95.2c20.3,9.4,36.1,25.9,44.7,46.6C181.2,91.9,181.3,115.8,172.5,137.5z"/>
</g>
</svg>
