<svg width="772" height="259" viewBox="0 0 772 259" fill="none" xmlns="http://www.w3.org/2000/svg">
<path d="M56.152 162.333V157.094C50.6477 161.804 46.3278 164.173 37.6881 164.173C27.7386 164.173 17.3849 159.059 13.5946 154.739C8.61978 148.719 6 138.1 6 128.806C6 107.848 18.9735 92.9232 37.5627 92.9232C44.6417 92.9232 50.3969 94.6233 55.6364 98.6923L56.1659 68.955H76.8594V162.347H56.1659L56.152 162.333ZM54.3126 116.487C51.9576 112.028 47.4984 108.893 40.4333 108.893C32.8388 108.893 26.4147 118.717 26.4147 129.321C26.4147 137.961 31.7797 146.35 39.2489 146.35C49.728 146.35 56.0126 139.8 56.0126 132.206C56.0126 127.357 56.1381 119.762 54.3126 116.487Z" fill="#140A44"/>
<path d="M102.653 186.831C97.0233 192.6 85.2343 194.3 72.6649 191.151L77.2495 173.203C85.7638 175.432 88.6483 174.777 88.6483 163.769L87.9934 97.1037L107.502 97.4939V168.743C107.502 177.132 105.008 184.337 102.653 186.817V186.831ZM86.5442 77.2045C86.5442 71.4354 92.3132 65.6803 97.8036 65.6803C103.294 65.6803 109.593 71.4494 109.593 77.2045C109.593 82.9597 104.883 89.6485 97.929 89.6485C91.3796 89.6485 86.5302 82.8343 86.5302 77.2045H86.5442Z" fill="#140A44"/>
<path d="M166.573 162.333L166.043 157.094C160.929 161.804 156.484 164.688 149.154 164.688C140.765 164.688 131.47 161.539 127.806 157.874C121.256 151.325 118.107 140.191 118.107 128.792C118.107 109.798 129.77 95.6544 149.015 95.6544C154.784 95.6544 161.194 96.9643 165.904 101.549L166.029 97.0897H187.768C187.768 118.828 186.987 140.581 187.768 162.319H166.545L166.573 162.333ZM162.768 115.052C159.758 112.307 154.784 111.248 150.589 111.248C141.155 111.248 137.365 119.372 137.365 128.931C137.365 138.491 142.479 146.224 150.729 147.13C159.633 148.175 166.837 138.881 166.837 128.666C166.837 121.992 165.137 117.003 162.782 115.038L162.768 115.052Z" fill="#140A44"/>
<path d="M217.658 102.343C222.368 97.7587 225.518 95.5291 238.617 95.5291C249.096 95.5291 259.185 107.973 259.185 121.197V162.319C252.761 162.055 245.96 162.445 238.756 162.584V122.242C238.756 114.118 234.297 110.579 231.022 110.579C222.508 110.579 217.658 115.554 217.658 123.942L217.268 161.664L197.885 162.319V97.0898H217.658V102.329V102.343Z" fill="#140A44"/>
<path d="M303.066 176.352C310.396 175.432 316.945 171.642 316.945 161.427V159.337C311.441 163.657 305.421 164.702 300.181 164.702C292.057 164.702 285.382 163.128 280.017 158.682C272.423 152.398 267.699 142.309 267.699 124.5C267.699 110.621 281.718 95.5568 297.297 95.5568C304.501 95.5568 311.176 97.6471 316.555 101.716L316.945 95.8216L337.374 97.1315V159.867C337.374 179.125 321.781 193.394 308.821 193.659C288.783 194.704 279.223 188.545 273.593 181.87L288.267 170.471C291.012 174.791 297.311 177.285 303.066 176.366V176.352ZM302.021 148.454C311.455 148.454 318.52 141.779 318.52 134.575C318.52 127.37 317.475 122.256 315.371 119.246C312.625 115.191 307.511 112.571 302.146 112.571C296.781 112.571 293.242 115.456 290.747 118.731C287.863 122.396 287.737 127.12 287.737 130.645C287.737 141.25 292.852 148.454 302.021 148.454Z" fill="#140A44"/>
<path d="M354.542 106.008C361.621 99.1939 371.041 94.6093 381.784 94.6093C391.344 94.6093 401.433 96.9643 407.453 101.688C411.508 105.353 417.806 119.636 417.806 129.976C417.806 149.75 402.088 165.204 381.52 165.204C375.36 165.204 366.066 163.769 363.056 161.929C351.922 155.909 345.763 143.201 345.763 129.321C345.763 120.682 350.473 110.063 354.542 106.008ZM381.394 148.189C386.369 148.189 392.264 146.224 394.368 144.26C397.768 141.375 398.827 135.481 398.827 129.851C398.827 118.842 391.623 111.652 381.534 111.652C371.445 111.652 365.55 118.856 365.55 129.461C365.55 140.065 371.445 148.189 381.394 148.189Z" fill="#140A44"/>
<path d="M434.71 101.953C439.42 97.8979 450.819 94.3584 460.253 94.3584C468.767 94.3584 477.671 98.1627 483.036 104.183C479.232 108.238 475.567 111.916 472.822 116.501C467.847 111.652 465.353 110.342 456.574 110.871C449.244 111.136 443.475 117.811 443.475 129.99C443.475 140.079 448.714 146.364 458.148 146.364C464.963 146.364 467.708 144.399 473.337 138.769L483.426 148.719C476.752 157.888 469.018 163.782 460.239 164.173C450.15 164.702 438.361 161.288 433.776 157.094C426.836 150.934 423.687 139.94 423.687 130.116C423.687 118.327 427.227 108.238 434.696 101.953H434.71Z" fill="#140A44"/>
<path d="M497.974 106.008C505.053 99.1939 514.473 94.6093 525.217 94.6093C534.777 94.6093 544.866 96.9643 550.886 101.688C554.941 105.353 561.239 119.636 561.239 129.976C561.239 149.75 545.521 165.204 524.953 165.204C518.793 165.204 509.499 163.769 506.489 161.929C495.355 155.909 489.195 143.201 489.195 129.321C489.195 120.682 493.905 110.063 497.974 106.008ZM524.827 148.189C529.802 148.189 535.696 146.224 537.801 144.26C541.201 141.375 542.26 135.481 542.26 129.851C542.26 118.842 535.055 111.652 524.967 111.652C514.878 111.652 508.983 118.856 508.983 129.461C508.983 140.065 514.878 148.189 524.827 148.189Z" fill="#140A44"/>
<path d="M589.276 102.343C593.986 97.7587 597.136 95.5291 610.235 95.5291C620.714 95.5291 630.803 107.973 630.803 121.197V162.319C624.379 162.055 617.578 162.445 610.374 162.584V122.242C610.374 114.118 605.915 110.579 602.64 110.579C594.126 110.579 589.276 115.554 589.276 123.942L588.886 161.664L569.503 162.319V97.0898H589.276V102.329V102.343Z" fill="#140A44"/>
<path d="M650.576 142.169C658.171 142.169 663.02 149.374 662.101 154.349C660.791 160.898 655.941 165.218 649.267 165.218C644.292 165.218 639.833 159.978 639.833 153.554C639.833 149.095 644.152 142.155 650.576 142.155V142.169Z" fill="#140A44"/>
<path d="M684.828 111.847V141.626C684.828 148.356 688.187 152.537 694.207 152.537C699.098 152.537 701.035 148.147 701.035 144.176V111.652L716.433 111.749V139.285C716.433 157.136 708.894 164.577 693.287 164.577C684.926 164.577 679.018 162.849 675.13 158.766C672.677 156.118 670.239 149.179 670.239 142.657V112.376L684.815 111.861L684.828 111.847Z" fill="#140A44"/>
<path d="M720.614 153.136L732.946 147.325C736.305 151.715 738.45 152.732 744.066 153.039C746.923 153.136 750.588 151.004 750.588 147.729C750.588 143.34 745.181 143.646 739.064 142.016C728.153 139.159 722.955 134.059 722.955 126.924C722.955 117.435 731.009 110.509 744.875 110.509C748.038 110.509 753.751 111.22 756.914 112.544C760.482 113.965 763.645 117.741 764.871 120.389L754.671 126.409C752.121 122.437 748.957 121.002 745.293 121.002C741.015 121.002 738.464 124.068 738.464 126.604C738.464 129.14 740.499 129.962 747.439 131.189C761.708 134.045 766 139.034 766 147.604C766 157.804 758.35 164.423 743.37 164.423C734.089 164.423 725.115 161.873 720.628 153.108L720.614 153.136Z" fill="#140A44"/>
<path d="M157.529 27.3447C157.529 22.4814 154.881 19.2206 149.669 18.9558C144.987 18.7747 142.786 21.4223 141.545 29.4628L127.499 27.2611C128.21 22.5789 130.774 17.4508 131.916 15.5975C135.275 10.2046 142.869 7.02747 152.93 7.02747C159.912 7.02747 171.032 12.9498 170.502 28.8496C170.419 33.267 168.997 37.9492 156.985 49.0693L148.945 56.845L170.934 56.3991L170.405 71.2399L128.711 70.4456L129.241 62.9346C133.923 50.839 143.552 46.0593 148.847 40.5829C156.79 32.8072 157.501 30.1595 157.501 27.3307L157.529 27.3447Z" fill="#140A44"/>
<path d="M179.616 23.1925C183.239 15.5979 191.976 7.64104 198.958 7.47382C209.994 6.86068 214.412 11.5428 217.77 16.4898C219.972 19.8481 223.859 30.4387 223.859 39.371C223.859 48.3033 221.128 57.3053 217.24 63.1301C214.676 66.6696 207.263 72.0485 199.933 72.0485C192.603 72.0485 185.455 67.3664 182.445 62.949C178.64 57.1242 175.993 48.2058 175.993 38.9251C175.993 32.1248 177.233 28.0558 179.616 23.2064V23.1925ZM207.792 50.7559C209.381 47.9271 211.151 43.4261 211.151 39.1898C211.151 33.9782 209.297 28.4181 207.709 25.9377C206.385 23.8196 202.943 21.5203 199.849 21.5203C196.589 21.5203 193.927 24.2515 192.255 27.7074C190.666 30.7034 189.872 34.9536 189.872 39.371C189.872 43.7884 190.583 47.7599 191.99 50.5887C193.23 53.3199 196.408 55.7167 199.933 55.7167C203.459 55.7167 206.385 53.5986 207.792 50.7698V50.7559Z" fill="#140A44"/>
<path d="M256.732 27.3451C256.732 22.4818 254.084 19.221 248.873 18.9562C244.191 18.7751 241.989 21.4227 240.749 29.4632L226.702 27.2615C227.413 22.5793 229.963 17.4513 231.12 15.5979C234.478 10.2051 242.072 7.02789 252.147 7.02789C259.129 7.02789 270.249 12.9503 269.719 28.8501C269.636 33.2675 268.214 37.9496 256.202 49.0697L248.162 56.8454L270.151 56.3995L269.622 71.2403L227.928 70.446L228.458 62.935C233.14 50.8395 242.769 46.0598 248.064 40.5833C256.007 32.8076 256.718 30.16 256.718 27.3312L256.732 27.3451Z" fill="#140A44"/>
<path d="M275.182 51.801L287.723 49.9476C288.699 55.7724 291.263 58.6848 296.377 58.6848C299.108 58.6848 302.035 57.7094 303.094 56.5667C304.418 55.1593 305.031 53.6543 305.031 51.6198C305.031 45.5302 302.118 42.5203 291.165 43.3146V32.6264C300.711 32.8912 304.055 30.6895 304.055 25.213C304.055 21.3252 300.962 18.2316 297.255 18.2316C292.127 18.2316 289.842 20.2661 288.253 27.2336L278.443 25.9934L276.144 25.1155C276.938 19.1931 279.502 14.6921 281.09 12.9224C284.532 9.48043 290.455 7 297.255 7C304.055 7 310.507 9.91241 314.033 13.9814C315.621 16.0159 317.21 20.6005 317.21 25.1155C317.21 27.3172 316.597 31.4698 315.886 33.4207C315.357 35.0093 313.684 36.5143 311.733 37.8381C315.802 41.1128 318.088 44.9031 318.088 51.355C318.088 57.1799 315.886 63.9801 311.901 67.436C309.169 69.9025 302.718 71.8534 296.182 71.8534C282.233 71.8534 276.046 63.2834 275.168 51.801H275.182Z" fill="#140A44"/>
<path d="M402.687 218.77C402.687 237.582 388.209 250.207 367.891 250.207H348.996V187.235H367.989C393.42 187.235 402.701 199.86 402.701 218.77H402.687ZM390.229 215.509C390.229 204.64 383.081 198.731 372.922 198.55L365.509 198.369V235.548L373.549 234.934C383.791 234.489 390.243 227.786 390.243 215.509H390.229Z" fill="#140A44"/>
<path d="M409.404 226.992C409.404 214.269 409.404 199.609 410.198 187.249C415.856 187.862 421.416 188.043 427.868 187.96L427.422 218.073C426.976 234.851 431.309 237.68 437.845 237.68C444.994 237.68 448.617 234.948 448.449 225.319C448.101 212.597 448.101 199.79 447.474 187.082L462.05 186.733V227.005C462.05 233.987 460.991 239.017 458.873 241.749C454.72 247.142 445.008 251.991 435.992 251.991C426.976 251.991 418.684 248.633 414.532 243.156C411.438 239.352 409.404 234.14 409.404 226.992Z" fill="#140A44"/>
<path d="M517.776 206.061C517.776 214.631 514.334 218.603 508.063 221.877L524.047 245.985L509.917 250.221L492.428 224.79H485.447V250.221H470.16V187.249H495.062C509.192 187.249 517.762 193.52 517.762 206.061H517.776ZM502.057 205.351C502.057 199.163 498.253 196.962 492.428 197.84L484.304 198.286V213.921L491.899 213.837C498.615 213.391 502.057 210.66 502.057 205.364V205.351Z" fill="#140A44"/>
<path d="M545.075 210.465H566.005L566.883 187.235H581.724C582.337 207.984 582.518 228.928 582.337 250.207L567.594 250.472L565.824 221.501L545.604 221.947L546.398 250.207H529.44L530.415 187.235H544.197L545.075 210.465Z" fill="#140A44"/>
<path d="M627.57 186.803L646.298 250.221H633.84L628.977 237.499H609.189L603.713 250.221H585.514C593.819 228.497 602.556 207.566 612.004 187.249L627.556 186.803H627.57ZM619.529 206.591L612.018 227.173L625.8 226.908L619.529 206.591Z" fill="#140A44"/>
<path d="M716.419 250.221H701.495L700.171 213.572L688.075 242.459L680.132 242.111L664.846 215.788V250.848L650.451 250.235L650.897 187.263L663.174 187.179L680.481 220.832L700.087 187.263C704.951 186.914 709.8 186.733 714.663 186.817C714.844 207.928 715.458 228.942 716.433 250.235L716.419 250.221Z" fill="#140A44"/>
</svg>
