<svg id="Layer_1" data-name="Layer 1" xmlns="http://www.w3.org/2000/svg" viewBox="0 0 400 180"><title>blue</title><path d="M11.1,78.5V16.7a6.5,6.5,0,0,1,1.3-4.1,4.3,4.3,0,0,1,3.4-1.5H33c10.9,0,19.2,2.8,24.9,8.3s8.5,14.1,8.5,25.9q0,38-32.4,38H16.4C12.9,83.3,11.1,81.7,11.1,78.5ZM30.9,30.7V61.5a7.8,7.8,0,0,0,.3,2.8c.2.3.9.5,1.9.5a9.8,9.8,0,0,0,8.6-4.2c2-2.8,2.9-7.5,2.9-14.1s-1-10.8-3-12.8-5.2-3-9.6-3Z" fill="#171d2f"/><path d="M122.1,12.3q5.7,2.1,5.7,5.7c0,2.4-.9,5.4-2.8,8.9s-3.3,5.3-4.5,5.3a1.6,1.6,0,0,1-1.2-.5,10.8,10.8,0,0,0-3.1-1.3,17.6,17.6,0,0,0-4.2-.6,12,12,0,0,0-9.6,4.2c-2.5,2.8-3.7,7.1-3.7,12.9s1.3,10.2,3.8,13a12.2,12.2,0,0,0,9.5,4.2,20.9,20.9,0,0,0,5.3-.7,8.2,8.2,0,0,0,4.2-1.9,1.3,1.3,0,0,1,.8-.2c.4,0,1.2.8,2.3,2.3a26.5,26.5,0,0,1,3.2,6.1,19.5,19.5,0,0,1,1.4,5.8c0,2.7-2,4.9-6.2,6.4a40.2,40.2,0,0,1-14.6,2.4c-9.1,0-16.5-3.2-22.4-9.6s-8.7-15.4-8.7-27,3-20.9,9-27.5a28.9,28.9,0,0,1,22.5-10A39.1,39.1,0,0,1,122.1,12.3Z" fill="#171d2f"/><path d="M45.8,98.1c0-1.4,3.7-2.1,11.2-2.1s11.2.7,11.2,2.1v47.3a22.2,22.2,0,0,1-7.6,17.2q-7.5,6.6-20.7,6.6c-8.9,0-16.1-2.3-21.6-6.8S10,151.6,10,143.9V98.2c0-1.4,3.7-2.1,11.2-2.1s11.2.7,11.2,2.1v46.5a3.7,3.7,0,0,0,2.1,3.3,10.3,10.3,0,0,0,4.8,1.2,8.8,8.8,0,0,0,4.5-1.1,3.8,3.8,0,0,0,2-3.4Z" fill="#171d2f"/><path d="M84.2,143a46.7,46.7,0,0,0,6.7,4.3,18.9,18.9,0,0,0,9.2,2.7c2.9,0,4.4-1.2,4.4-3.5a3.5,3.5,0,0,0-1.3-2.7,16.3,16.3,0,0,0-4.5-2.7l-4.9-2.4a45.6,45.6,0,0,1-4.4-2.9,18.5,18.5,0,0,1-4.2-4.2c-2.8-3.9-4.1-8.9-4.1-15a20.1,20.1,0,0,1,6.7-15.3c4.5-4.1,10.4-6.2,17.7-6.2a53.7,53.7,0,0,1,13.7,1.6c4.2,1.1,6.4,2.4,6.5,4.2v.6a23.6,23.6,0,0,1-2.3,9.1c-1.5,3.7-2.5,5.7-3.1,6.1-4.4-2.2-8.4-3.4-11.9-3.4s-5.2,1.3-5.2,3.8,1.3,2.8,3.9,4l2.3,1.1,3.6,1.7c1.3.7,2.8,1.5,4.3,2.5a32.3,32.3,0,0,1,5,4c3.7,3.4,5.5,7.9,5.5,13.6,0,7.3-2.1,13.3-6.1,18s-10.3,7.1-18.8,7.2a55.5,55.5,0,0,1-11.2-1,20.4,20.4,0,0,1-8.7-4,9.2,9.2,0,0,1-3.7-7.2,22,22,0,0,1,1.6-8.4C81.9,145.8,83,143.9,84.2,143Z" fill="#171d2f"/><path d="M258.1,164.2c0,2.5-7.6,3.8-22.7,3.8s-22.7-1.3-22.7-3.8V54.1l-24.1.2c-4.5,0-6.7-7.2-6.7-21.5a67.4,67.4,0,0,1,1.5-14.3c.9-4.6,2.6-6.9,5-6.9h61.2a10.3,10.3,0,0,1,6.1,1.7,4.9,4.9,0,0,1,2.4,4.1Z" fill="#171d2f"/><path d="M297.7,128.9q16.8,3.3,25.2,3.3a24.7,24.7,0,0,0,15.3-5.3c4.5-3.6,7.1-9.2,7.9-16.7-7.4,2-13.4,3.1-17.8,3.1-15.7,0-27.7-4.4-36.2-13.1s-12.7-21-12.7-37,4.9-28.9,14.6-38.9S317.1,9.4,334.1,9.4s30.2,5.9,40,17.8,14.6,29.4,14.6,52.6q0,43.5-15.5,66.8c-10.3,15.6-25.7,23.3-46.1,23.3-25.2,0-37.9-4.2-37.9-12.7,0-4.5.9-10.3,2.7-17.5S295.6,128.9,297.7,128.9Zm35.9-79.4c-4.8,0-8.4,1.5-11,4.6s-3.9,6.9-3.9,11.7a15.4,15.4,0,0,0,4.5,11.5,16.4,16.4,0,0,0,11.7,4.3c4.8,0,8.7-1,11.6-3.1,0-10.3-.9-17.7-2.9-22.2S338.4,49.5,333.6,49.5Z" fill="#171d2f"/><rect x="146.2" y="11" width="18.3" height="158" rx="2.4" fill="#171d2f"/></svg>