<?xml version="1.0" encoding="utf-8"?>
<!-- Generator: Adobe Illustrator 22.0.1, SVG Export Plug-In . SVG Version: 6.00 Build 0)  -->
<svg version="1.1" id="Layer_1" xmlns="http://www.w3.org/2000/svg" xmlns:xlink="http://www.w3.org/1999/xlink" x="0px" y="0px"
	 viewBox="0 0 100 100" style="enable-background:new 0 0 100 100;" xml:space="preserve">
<style type="text/css">
	.st0{fill:#07C8E8;}
	.st1{fill:#1E1E1E;}
	.st2{fill:#EA5397;}
	.st3{fill:#F9CC12;}
	.st4{fill:#FC7E56;}
	.st5{fill:#F9CC12;stroke:#F9CC12;stroke-width:1.8;stroke-linecap:round;stroke-linejoin:round;stroke-miterlimit:10;}
	.st6{fill:none;stroke:#1E1E1E;stroke-width:1.8;stroke-linecap:round;stroke-linejoin:round;stroke-miterlimit:10;}
	.st7{fill:#F9CC12;stroke:#1E1E1E;stroke-width:1.8;stroke-linecap:round;stroke-linejoin:round;stroke-miterlimit:10;}
	.st8{fill:#FC7E56;stroke:#FC7E56;stroke-width:1.8;stroke-linecap:round;stroke-linejoin:round;stroke-miterlimit:10;}
	.st9{fill:#EA5397;stroke:#EA5397;stroke-width:1.8;stroke-linecap:round;stroke-linejoin:round;stroke-miterlimit:10;}
	.st10{fill:#07C8E8;stroke:#07C8E8;stroke-width:1.8;stroke-linecap:round;stroke-linejoin:round;stroke-miterlimit:10;}
	.st11{fill:#B7DB53;stroke:#B7DB53;stroke-width:1.9691;stroke-linecap:round;stroke-linejoin:round;stroke-miterlimit:10;}
	.st12{fill:none;stroke:#1E1E1E;stroke-width:1.9691;stroke-linecap:round;stroke-linejoin:round;stroke-miterlimit:10;}
	.st13{fill:#EA5397;stroke:#EA5397;stroke-width:1.7384;stroke-linecap:round;stroke-linejoin:round;stroke-miterlimit:10;}
	.st14{fill:none;stroke:#1E1E1E;stroke-width:1.7384;stroke-linecap:round;stroke-linejoin:round;stroke-miterlimit:10;}
	.st15{fill:#B7DB53;}
</style>
<g>
	<g>
		
			<ellipse transform="matrix(0.2298 -0.9732 0.9732 0.2298 -11.1286 92.1256)" class="st15" cx="52.6" cy="53.1" rx="41.6" ry="41.6"/>
	</g>
	<path class="st1" d="M47.4,88.5c-22.9,0-41.6-18.7-41.6-41.6S24.4,5.3,47.4,5.3C70.3,5.3,89,24,89,46.9S70.3,88.5,47.4,88.5z
		 M47.4,7.3C25.5,7.3,7.7,25.1,7.7,46.9s17.8,39.6,39.6,39.6C69.2,86.5,87,68.8,87,46.9S69.2,7.3,47.4,7.3z"/>
	<g>
		<path class="st1" d="M34.7,65.3l0.9-1.1c0.1-0.1,0.3-0.1,0.4,0c2.6,2.4,6.7,5.1,11.8,5.1c6.4,0,10-4,10-9.5
			c0-15.4-21.4-10.8-21.4-25.9c0-6.1,5.1-11,11.2-11.1c5.4-0.1,8.3,2.2,11,4.9c0.1,0.1,0.1,0.3,0,0.4l-1,1c-0.1,0.1-0.3,0.1-0.4,0
			c-2.7-2.7-4.9-4.3-9.5-4.3c-5.3,0-8.9,4-8.9,8.9c0,13.6,21.4,8.8,21.4,25.9c0,7.3-5.6,11.7-12.3,11.7c-5.6,0-10.2-2.8-13.1-5.5
			C34.6,65.6,34.6,65.4,34.7,65.3z M46.9,15.4h1.6c0.2,0,0.3,0.1,0.3,0.3v8.2h-2.2v-8.2C46.6,15.6,46.8,15.4,46.9,15.4z M46.6,70.9
			h2.2v7.2c0,0.2-0.1,0.3-0.3,0.3h-1.6c-0.2,0-0.3-0.1-0.3-0.3V70.9z"/>
	</g>
</g>
</svg>
