<?xml version="1.0" encoding="utf-8"?>
<!-- Generator: Adobe Illustrator 22.0.1, SVG Export Plug-In . SVG Version: 6.00 Build 0)  -->
<svg version="1.1" id="Layer_1" xmlns="http://www.w3.org/2000/svg" xmlns:xlink="http://www.w3.org/1999/xlink" x="0px" y="0px"
	 viewBox="0 0 100 100" style="enable-background:new 0 0 100 100;" xml:space="preserve">
<style type="text/css">
	.st0{fill:#07C8E8;}
	.st1{fill:#1E1E1E;}
	.st2{fill:#EA5397;}
	.st3{fill:#F9CC12;}
	.st4{fill:#FC7E56;}
	.st5{fill:#F9CC12;stroke:#F9CC12;stroke-width:1.8;stroke-linecap:round;stroke-linejoin:round;stroke-miterlimit:10;}
	.st6{fill:none;stroke:#1E1E1E;stroke-width:1.8;stroke-linecap:round;stroke-linejoin:round;stroke-miterlimit:10;}
	.st7{fill:#F9CC12;stroke:#1E1E1E;stroke-width:1.8;stroke-linecap:round;stroke-linejoin:round;stroke-miterlimit:10;}
	.st8{fill:#FC7E56;stroke:#FC7E56;stroke-width:1.8;stroke-linecap:round;stroke-linejoin:round;stroke-miterlimit:10;}
	.st9{fill:#EA5397;stroke:#EA5397;stroke-width:1.8;stroke-linecap:round;stroke-linejoin:round;stroke-miterlimit:10;}
	.st10{fill:#07C8E8;stroke:#07C8E8;stroke-width:1.8;stroke-linecap:round;stroke-linejoin:round;stroke-miterlimit:10;}
	.st11{fill:#B7DB53;stroke:#B7DB53;stroke-width:1.9691;stroke-linecap:round;stroke-linejoin:round;stroke-miterlimit:10;}
	.st12{fill:none;stroke:#1E1E1E;stroke-width:1.9691;stroke-linecap:round;stroke-linejoin:round;stroke-miterlimit:10;}
	.st13{fill:#EA5397;stroke:#EA5397;stroke-width:1.7384;stroke-linecap:round;stroke-linejoin:round;stroke-miterlimit:10;}
	.st14{fill:none;stroke:#1E1E1E;stroke-width:1.7384;stroke-linecap:round;stroke-linejoin:round;stroke-miterlimit:10;}
	.st15{fill:#B7DB53;}
</style>
<g>
	<g>
		<path class="st0" d="M88.3,46c0,20-16.2,36.2-36.2,36.2C32.2,82.2,16,66,16,46c0-20,16.2-36.2,36.2-36.2
			C72.1,9.9,88.3,26.1,88.3,46z"/>
	</g>
	<path class="st1" d="M46.4,77.6c-20,0-36.2-16.2-36.2-36.2c0-20,16.2-36.2,36.2-36.2s36.2,16.2,36.2,36.2
		C82.5,61.4,66.3,77.6,46.4,77.6z M46.4,7C27.4,7,12,22.4,12,41.4s15.4,34.4,34.4,34.4c19,0,34.4-15.4,34.4-34.4S65.3,7,46.4,7z"/>
	<path class="st1" d="M47.2,84.2V93h18.3c0.5,0,0.9,0.4,0.9,0.9s-0.4,0.9-0.9,0.9H27.1c-0.5,0-0.9-0.4-0.9-0.9s0.4-0.9,0.9-0.9h18.3
		v-8.9c-10.1-0.5-20.1-4.6-27.8-12.3c-0.4-0.4-0.4-0.9,0-1.3c0.4-0.4,0.9-0.4,1.3,0c15.8,15.8,41.5,15.8,57.3,0
		C83.8,62.8,88,52.7,88,41.8c0-10.8-4.2-21-11.9-28.7c-0.4-0.3-0.4-0.9,0-1.3c0.4-0.3,0.9-0.3,1.3,0c8,8,12.4,18.6,12.4,29.9
		s-4.4,22-12.4,30C69.2,80,58.3,84.2,47.5,84.2H47.2z"/>
</g>
</svg>
