<?xml version="1.0" encoding="utf-8"?>
<!-- Generator: Adobe Illustrator 22.0.1, SVG Export Plug-In . SVG Version: 6.00 Build 0)  -->
<svg version="1.1" id="Layer_1" xmlns="http://www.w3.org/2000/svg" xmlns:xlink="http://www.w3.org/1999/xlink" x="0px" y="0px"
	 viewBox="0 0 100 100" style="enable-background:new 0 0 100 100;" xml:space="preserve">
<style type="text/css">
	.st0{fill:#07C8E8;}
	.st1{fill:#1E1E1E;}
	.st2{fill:#EA5397;}
	.st3{fill:#F9CC12;}
	.st4{fill:#FC7E56;}
	.st5{fill:#F9CC12;stroke:#F9CC12;stroke-width:1.8;stroke-linecap:round;stroke-linejoin:round;stroke-miterlimit:10;}
	.st6{fill:none;stroke:#1E1E1E;stroke-width:1.8;stroke-linecap:round;stroke-linejoin:round;stroke-miterlimit:10;}
	.st7{fill:#F9CC12;stroke:#1E1E1E;stroke-width:1.8;stroke-linecap:round;stroke-linejoin:round;stroke-miterlimit:10;}
	.st8{fill:#FC7E56;stroke:#FC7E56;stroke-width:1.8;stroke-linecap:round;stroke-linejoin:round;stroke-miterlimit:10;}
	.st9{fill:#EA5397;stroke:#EA5397;stroke-width:1.8;stroke-linecap:round;stroke-linejoin:round;stroke-miterlimit:10;}
	.st10{fill:#07C8E8;stroke:#07C8E8;stroke-width:1.8;stroke-linecap:round;stroke-linejoin:round;stroke-miterlimit:10;}
	.st11{fill:#B7DB53;stroke:#B7DB53;stroke-width:1.9691;stroke-linecap:round;stroke-linejoin:round;stroke-miterlimit:10;}
	.st12{fill:none;stroke:#1E1E1E;stroke-width:1.9691;stroke-linecap:round;stroke-linejoin:round;stroke-miterlimit:10;}
	.st13{fill:#EA5397;stroke:#EA5397;stroke-width:1.7384;stroke-linecap:round;stroke-linejoin:round;stroke-miterlimit:10;}
	.st14{fill:none;stroke:#1E1E1E;stroke-width:1.7384;stroke-linecap:round;stroke-linejoin:round;stroke-miterlimit:10;}
	.st15{fill:#B7DB53;}
</style>
<g>
	<path class="st2" d="M45.9,20.6c0.5,0.6,0.9,1.2,1.4,1.8c0.3,0.4,0.9,0.5,1.3,0.2C47.7,21.8,46.8,21.2,45.9,20.6z"/>
</g>
<path class="st2" d="M91.8,41.5c0,10.1-4.9,20.1-14.6,29.6c-8.6,8.5-18.7,14.3-24,17c-0.4,0.2-0.8,0.3-1.2,0.3s-0.8-0.1-1.2-0.3
	c-5.3-2.7-15.4-8.5-24-17c-4.2-4.2-7.5-8.4-9.9-12.7c-1.8-3.2-3-6.4-3.8-9.6c-0.6-2.4-0.9-4.9-0.9-7.3c0-11.8,8.6-23.9,23-23.9
	c4,0,7.5,1,10.7,3c0.5,0.6,0.9,1.2,1.4,1.8c0.3,0.4,0.9,0.5,1.3,0.2c1.2,1.1,2.4,2.3,3.5,3.8c4.5-5.9,10-8.8,16.8-8.8
	c4.7,0,8.8,1.3,12.2,3.5c1.7,1.1,3.2,2.3,4.5,3.8C89.6,29.4,91.8,35.5,91.8,41.5z"/>
<path class="st1" d="M87.4,30.7c-0.2-1.1-0.5-2.1-0.8-3.2c-0.3-0.9-0.7-1.8-1.1-2.7c-3.5-7.4-10.7-13.2-20.6-13.2
	c-6.8,0-12.3,2.9-16.8,8.8c-4.5-5.9-10-8.8-16.8-8.8c-14.4,0-23,12.2-23,23.9c0,7.8,2.9,15.5,8.7,22.9c1.4,1.8,2.9,3.6,4.6,5.3
	c0.4,0.5,0.9,0.9,1.3,1.3c1.7,1.7,3.5,3.2,5.3,4.7c0,0,0,0,0,0c7.2,5.9,14.5,10.1,18.7,12.3c0.4,0.2,0.8,0.3,1.2,0.3
	s0.8-0.1,1.2-0.3c5.3-2.7,15.4-8.5,24-17c9.7-9.5,14.6-19.5,14.6-29.6C87.8,33.9,87.7,32.3,87.4,30.7z M72,63.8
	c-8.5,8.3-18.4,14-23.6,16.7c-0.2,0.1-0.5,0.1-0.8,0c-5.2-2.7-15.1-8.4-23.6-16.7c-2.1-2.1-4-4.2-5.6-6.3c-1.2-1.5-2.2-3-3.1-4.4
	c-0.9-1.4-1.6-2.8-2.3-4.2C11,44.5,10,40,10,35.5c0-10.9,7.9-22.1,21.2-22.1c5.9,0,10.7,2.4,14.7,7.2c0.5,0.6,0.9,1.2,1.4,1.8
	c0.3,0.4,0.9,0.5,1.3,0.2c0.1,0,0.1-0.1,0.2-0.2c4.3-6.1,9.5-9,16.1-9c7,0,12.5,3.1,16.2,7.7c0.6,0.7,1.1,1.5,1.6,2.2
	c0.5,0.8,1,1.7,1.4,2.6c1.4,3,2.1,6.4,2.1,9.7C86,45.1,81.3,54.6,72,63.8z"/>
</svg>
