<?xml version="1.0" encoding="utf-8"?>
<!-- Generator: Adobe Illustrator 22.0.1, SVG Export Plug-In . SVG Version: 6.00 Build 0)  -->
<svg version="1.1" id="Layer_1" xmlns="http://www.w3.org/2000/svg" xmlns:xlink="http://www.w3.org/1999/xlink" x="0px" y="0px"
	 viewBox="0 0 100 100" style="enable-background:new 0 0 100 100;" xml:space="preserve">
<style type="text/css">
	.st0{fill:#07C8E8;}
	.st1{fill:#1E1E1E;}
	.st2{fill:#EA5397;}
	.st3{fill:#F9CC12;}
	.st4{fill:#FC7E56;}
	.st5{fill:#F9CC12;stroke:#F9CC12;stroke-width:1.8;stroke-linecap:round;stroke-linejoin:round;stroke-miterlimit:10;}
	.st6{fill:none;stroke:#1E1E1E;stroke-width:1.8;stroke-linecap:round;stroke-linejoin:round;stroke-miterlimit:10;}
	.st7{fill:#F9CC12;stroke:#1E1E1E;stroke-width:1.8;stroke-linecap:round;stroke-linejoin:round;stroke-miterlimit:10;}
	.st8{fill:#FC7E56;stroke:#FC7E56;stroke-width:1.8;stroke-linecap:round;stroke-linejoin:round;stroke-miterlimit:10;}
	.st9{fill:#EA5397;stroke:#EA5397;stroke-width:1.8;stroke-linecap:round;stroke-linejoin:round;stroke-miterlimit:10;}
	.st10{fill:#07C8E8;stroke:#07C8E8;stroke-width:1.8;stroke-linecap:round;stroke-linejoin:round;stroke-miterlimit:10;}
	.st11{fill:#B7DB53;stroke:#B7DB53;stroke-width:1.9691;stroke-linecap:round;stroke-linejoin:round;stroke-miterlimit:10;}
	.st12{fill:none;stroke:#1E1E1E;stroke-width:1.9691;stroke-linecap:round;stroke-linejoin:round;stroke-miterlimit:10;}
	.st13{fill:#EA5397;stroke:#EA5397;stroke-width:1.7384;stroke-linecap:round;stroke-linejoin:round;stroke-miterlimit:10;}
	.st14{fill:none;stroke:#1E1E1E;stroke-width:1.7384;stroke-linecap:round;stroke-linejoin:round;stroke-miterlimit:10;}
	.st15{fill:#B7DB53;}
</style>
<g>
	<g>
		<path class="st2" d="M85.4,15.8v74.6c0,0.5-0.4,0.9-0.9,0.9H22c-0.5,0-0.9-0.4-0.9-0.9V15.8c0-0.5,0.4-0.9,0.9-0.9h62.6
			C85,14.9,85.4,15.3,85.4,15.8z"/>
	</g>
	<path class="st1" d="M78.1,85.1H15.5c-0.5,0-0.9-0.4-0.9-0.9V9.6c0-0.5,0.4-0.9,0.9-0.9h62.6c0.5,0,0.9,0.4,0.9,0.9v74.6
		C78.9,84.7,78.5,85.1,78.1,85.1z M16.3,83.3h60.8V10.4H16.3V83.3z"/>
	<path class="st1" d="M70,26H23.6c-0.5,0-0.9-0.4-0.9-0.9s0.4-0.9,0.9-0.9H70c0.5,0,0.9,0.4,0.9,0.9S70.4,26,70,26z"/>
	<path class="st1" d="M70,40.5H23.6c-0.5,0-0.9-0.4-0.9-0.9s0.4-0.9,0.9-0.9H70c0.5,0,0.9,0.4,0.9,0.9S70.4,40.5,70,40.5z"/>
	<path class="st1" d="M70,55H23.6c-0.5,0-0.9-0.4-0.9-0.9s0.4-0.9,0.9-0.9H70c0.5,0,0.9,0.4,0.9,0.9S70.4,55,70,55z"/>
	<path class="st1" d="M70,69.5H23.6c-0.5,0-0.9-0.4-0.9-0.9s0.4-0.9,0.9-0.9H70c0.5,0,0.9,0.4,0.9,0.9S70.4,69.5,70,69.5z"/>
</g>
</svg>
