<?xml version="1.0" encoding="utf-8"?>
<!-- Generator: Adobe Illustrator 22.0.1, SVG Export Plug-In . SVG Version: 6.00 Build 0)  -->
<svg version="1.1" id="Layer_1" xmlns="http://www.w3.org/2000/svg" xmlns:xlink="http://www.w3.org/1999/xlink" x="0px" y="0px"
	 viewBox="0 0 100 100" style="enable-background:new 0 0 100 100;" xml:space="preserve">
<style type="text/css">
	.st0{fill:#07C8E8;}
	.st1{fill:#1E1E1E;}
	.st2{fill:#EA5397;}
	.st3{fill:#F9CC12;}
	.st4{fill:#FC7E56;}
	.st5{fill:#F9CC12;stroke:#F9CC12;stroke-width:1.8;stroke-linecap:round;stroke-linejoin:round;stroke-miterlimit:10;}
	.st6{fill:none;stroke:#1E1E1E;stroke-width:1.8;stroke-linecap:round;stroke-linejoin:round;stroke-miterlimit:10;}
	.st7{fill:#F9CC12;stroke:#1E1E1E;stroke-width:1.8;stroke-linecap:round;stroke-linejoin:round;stroke-miterlimit:10;}
	.st8{fill:#FC7E56;stroke:#FC7E56;stroke-width:1.8;stroke-linecap:round;stroke-linejoin:round;stroke-miterlimit:10;}
	.st9{fill:#EA5397;stroke:#EA5397;stroke-width:1.8;stroke-linecap:round;stroke-linejoin:round;stroke-miterlimit:10;}
	.st10{fill:#07C8E8;stroke:#07C8E8;stroke-width:1.8;stroke-linecap:round;stroke-linejoin:round;stroke-miterlimit:10;}
	.st11{fill:#B7DB53;stroke:#B7DB53;stroke-width:1.9691;stroke-linecap:round;stroke-linejoin:round;stroke-miterlimit:10;}
	.st12{fill:none;stroke:#1E1E1E;stroke-width:1.9691;stroke-linecap:round;stroke-linejoin:round;stroke-miterlimit:10;}
	.st13{fill:#EA5397;stroke:#EA5397;stroke-width:1.7384;stroke-linecap:round;stroke-linejoin:round;stroke-miterlimit:10;}
	.st14{fill:none;stroke:#1E1E1E;stroke-width:1.7384;stroke-linecap:round;stroke-linejoin:round;stroke-miterlimit:10;}
	.st15{fill:#B7DB53;}
</style>
<g>
	<g>
		<path class="st0" d="M94.8,55.5c-0.7,10.6-5.3,20.1-12.3,27.1c-7,7-16.6,11.5-27.1,12.2c-0.9,0.1-1.7,0.1-2.6,0.1
			c-7.8,0-15.3-2.1-21.9-6.1l-16,3.5c-1,0.2-2.1-0.1-2.8-0.8c-0.7-0.8-1-1.8-0.8-2.8L15,71.5c-3.3-6.6-4.8-14-4.3-21.5
			C12.1,28.9,29,12,50.1,10.7c12.1-0.8,24,3.7,32.5,12.3C91.1,31.6,95.6,43.4,94.8,55.5z"/>
	</g>
	<path class="st1" d="M47.2,89.4c-7.8,0-15.3-2.1-21.9-6.1L9.4,86.7c-1,0.2-2.1-0.1-2.8-0.8c-0.7-0.7-1.1-1.8-0.8-2.8l3.8-17.1
		c-3.3-6.6-4.8-14-4.3-21.5c1.4-21.1,18.3-38,39.4-39.3c12.1-0.8,24,3.7,32.5,12.3c8.5,8.6,13,20.4,12.2,32.6l0,0
		C87.9,71.2,71,88,49.8,89.3C49,89.4,48.1,89.4,47.2,89.4z M25.5,81.4c0.2,0,0.3,0,0.5,0.1c7.1,4.4,15.3,6.5,23.8,6
		c20.2-1.2,36.5-17.4,37.8-37.6c0.7-11.6-3.5-23-11.7-31.2C67.6,10.5,56.3,6.3,44.7,7C24.5,8.2,8.3,24.4,7,44.6
		C6.5,51.8,8,59,11.2,65.4c0.1,0.2,0.1,0.4,0.1,0.6L7.5,83.4c-0.1,0.4,0,0.9,0.3,1.2C8.1,84.9,8.6,85.1,9,85l16.3-3.6
		C25.4,81.4,25.4,81.4,25.5,81.4z M88.4,50L88.4,50L88.4,50z"/>
</g>
</svg>
