<?xml version="1.0" encoding="utf-8"?>
<!-- Generator: Adobe Illustrator 22.0.1, SVG Export Plug-In . SVG Version: 6.00 Build 0)  -->
<svg version="1.1" id="Layer_1" xmlns="http://www.w3.org/2000/svg" xmlns:xlink="http://www.w3.org/1999/xlink" x="0px" y="0px"
	 viewBox="0 0 100 100" style="enable-background:new 0 0 100 100;" xml:space="preserve">
<style type="text/css">
	.st0{fill:#07C8E8;}
	.st1{fill:#1E1E1E;}
	.st2{fill:#EA5397;}
	.st3{fill:#F9CC12;}
	.st4{fill:#FC7E56;}
	.st5{fill:#F9CC12;stroke:#F9CC12;stroke-width:1.8;stroke-linecap:round;stroke-linejoin:round;stroke-miterlimit:10;}
	.st6{fill:none;stroke:#1E1E1E;stroke-width:1.8;stroke-linecap:round;stroke-linejoin:round;stroke-miterlimit:10;}
	.st7{fill:#F9CC12;stroke:#1E1E1E;stroke-width:1.8;stroke-linecap:round;stroke-linejoin:round;stroke-miterlimit:10;}
	.st8{fill:#FC7E56;stroke:#FC7E56;stroke-width:1.8;stroke-linecap:round;stroke-linejoin:round;stroke-miterlimit:10;}
	.st9{fill:#EA5397;stroke:#EA5397;stroke-width:1.8;stroke-linecap:round;stroke-linejoin:round;stroke-miterlimit:10;}
	.st10{fill:#07C8E8;stroke:#07C8E8;stroke-width:1.8;stroke-linecap:round;stroke-linejoin:round;stroke-miterlimit:10;}
	.st11{fill:#B7DB53;stroke:#B7DB53;stroke-width:1.9691;stroke-linecap:round;stroke-linejoin:round;stroke-miterlimit:10;}
	.st12{fill:none;stroke:#1E1E1E;stroke-width:1.9691;stroke-linecap:round;stroke-linejoin:round;stroke-miterlimit:10;}
	.st13{fill:#EA5397;stroke:#EA5397;stroke-width:1.7384;stroke-linecap:round;stroke-linejoin:round;stroke-miterlimit:10;}
	.st14{fill:none;stroke:#1E1E1E;stroke-width:1.7384;stroke-linecap:round;stroke-linejoin:round;stroke-miterlimit:10;}
	.st15{fill:#B7DB53;}
</style>
<g>
	<g>
		<path class="st4" d="M76.1,13.8v62.5c0,0.3-0.2,0.6-0.4,0.8c-0.1,0.1-0.3,0.2-0.5,0.2c-0.1,0-0.2,0-0.3-0.1L55.5,69H43l7.7,18.9
			c0.3,0.7,0.3,1.5,0,2.3c-0.3,0.8-0.9,1.3-1.6,1.6c-1,0.4-2.1,0.6-3.3,0.6c-3.5,0-6.7-2.1-8-5.4L30.4,69C18,68.1,8.2,57.7,8.2,45.1
			c0-13.2,10.8-24,24-24h23.4L74.8,13c0.3-0.1,0.6-0.1,0.8,0.1C75.9,13.2,76.1,13.5,76.1,13.8z"/>
	</g>
	<path class="st1" d="M71.3,7.7c-0.3-0.2-0.6-0.2-0.8-0.1l-19.3,8.1H27.7c-13.2,0-24,10.8-24,24c0,13,10.4,23.6,23.3,23.9l7.4,18.1
		c1.4,3.3,4.6,5.4,8,5.4c1.1,0,2.2-0.2,3.3-0.6c0.8-0.3,1.3-0.9,1.6-1.6c0.3-0.7,0.3-1.6,0-2.3l-7.7-18.9h11.4l19.3,8.1
		c0.1,0,0.2,0.1,0.3,0.1c0.2,0,0.4,0,0.5-0.1c0.2-0.2,0.4-0.5,0.4-0.8V8.4C71.7,8.1,71.5,7.9,71.3,7.7z M45.8,83.2
		c0.2,0.6,0,1.3-0.7,1.6c-3.5,1.4-7.5-0.2-9-3.8l-7.1-17.4h8.7L45.8,83.2z M50.4,61.9H27.7c-12.2,0-22.2-9.9-22.2-22.2
		c0-12.2,9.9-22.2,22.2-22.2h22.7V61.9z M69.9,69.6l-17.7-7.4V17.2l17.7-7.4V69.6z"/>
	<path class="st1" d="M95.3,41.1H82.2c-0.5,0-0.9-0.4-0.9-0.9s0.4-0.9,0.9-0.9h13.2c0.5,0,0.9,0.4,0.9,0.9S95.8,41.1,95.3,41.1z"/>
	<path class="st1" d="M92.7,53.5c-0.1,0-0.2,0-0.3-0.1l-12.2-4.9c-0.5-0.2-0.7-0.7-0.5-1.2s0.7-0.7,1.2-0.5L93,51.7
		c0.5,0.2,0.7,0.7,0.5,1.2C93.3,53.3,93,53.5,92.7,53.5z"/>
	<path class="st1" d="M80.4,33.7c-0.4,0-0.7-0.2-0.8-0.6c-0.2-0.5,0-1,0.5-1.2l12.2-4.9c0.5-0.2,1,0,1.2,0.5c0.2,0.5,0,1-0.5,1.2
		l-12.2,4.9C80.7,33.7,80.6,33.7,80.4,33.7z"/>
</g>
</svg>
