<svg id="Layer_1" data-name="Layer 1" xmlns="http://www.w3.org/2000/svg" viewBox="0 0 200 100"><title>crab</title><path d="M187.56,23.75c.2,10.29-5,20.16-13.73,24.48-8.23,4.06-17.39,2.11-23.75-4.15L132.31,56.66a22,22,0,0,1,1,6.59,21.41,21.41,0,0,1-.57,5,28.69,28.69,0,0,1,5,1.4c6.48,2.47,10.72,7.07,12.28,13.29a1.5,1.5,0,0,1-1.1,1.82,1.47,1.47,0,0,1-.36,0,1.49,1.49,0,0,1-1.45-1.13c-2.25-9-10.55-11.7-15.27-12.52A24.9,24.9,0,0,1,128,77.87c6.11,2.52,10.12,7,11.62,13a1.51,1.51,0,0,1-1.09,1.82,1.61,1.61,0,0,1-.37,0,1.49,1.49,0,0,1-1.45-1.13c-1.64-6.57-6.52-9.79-10.88-11.37-5.92,5.81-14.82,9.5-24.78,9.5s-18.85-3.69-24.78-9.5l-.52.19c-5.55,2.14-9,5.9-10.35,11.18a1.49,1.49,0,0,1-1.45,1.13,1.61,1.61,0,0,1-.37,0,1.51,1.51,0,0,1-1.09-1.82c1.5-6,5.51-10.5,11.61-13a24.61,24.61,0,0,1-3.91-6.77,25.66,25.66,0,0,0-4.92,1.34c-5.55,2.14-9,5.9-10.35,11.18a1.49,1.49,0,0,1-1.45,1.13,1.47,1.47,0,0,1-.36,0A1.5,1.5,0,0,1,52,82.89c1.56-6.22,5.8-10.82,12.27-13.29a29.18,29.18,0,0,1,5-1.4,22.07,22.07,0,0,1,.51-11.73l-18.45-13C45.51,50.28,36.57,53.15,28.08,50c-9.07-3.38-15-12.68-15.63-23a.51.51,0,0,1,.68-.5L46.9,39.12,17.79,15.42a.51.51,0,0,1,0-.8,20.37,20.37,0,0,1,25.45.67c7.28,5.92,10.58,15.84,9.27,25.3l18.4,13c3.22-6.75,9.72-12.16,17.9-14.9L82.67,19.53l2.86-.92,6.18,19.26a39.16,39.16,0,0,1,18.76,0l6.19-19.3,2.86.92-6.17,19.22c8.18,2.78,14.67,8.23,17.84,15L149,41.19c-.73-9.81,3.47-19.68,11.44-24.85,8.32-5.39,18.35-4.12,25.38,2.33a.5.5,0,0,1-.07.79L157.46,37.8l29.37-14.48A.5.5,0,0,1,187.56,23.75Z" fill="#ee5059"/><circle cx="82.78" cy="15.5" r="6.75" fill="#141226"/><circle cx="119.05" cy="15.5" r="6.75" fill="#141226"/><path d="M101,71.69c-6.64,0-12-5.81-12-12.94a1.44,1.44,0,0,1,2.88,0c0,5.55,4.11,10.06,9.16,10.06s9.16-4.51,9.16-10.06a1.44,1.44,0,0,1,2.88,0C113,65.88,107.64,71.69,101,71.69Z" fill="#141226"/></svg>