<svg width="376" height="373" viewBox="0 0 376 373" fill="none" xmlns="http://www.w3.org/2000/svg">
<rect width="376" height="373" fill="white"/>
<g clip-path="url(#clip0_77_348)">
<path d="M273.54 270.62V274.38C273.54 300.13 264.96 362.78 233.18 362.78C220.68 362.78 208.18 354.35 203.81 348.17C200.5 343.5 198.99 335.82 198.99 328.74C198.99 304.04 208.48 273.77 213.3 264.74C214.2 263.23 215.26 262.33 217.22 262.33C220.08 262.33 228.06 264.89 231.83 266.25C233.03 266.7 233.64 268.06 233.64 269.26C233.64 270.01 233.34 270.92 233.34 270.92C227.32 287.18 220.54 315.5 220.54 329.65C220.54 337.48 222.05 342.9 228.07 342.9C236.65 342.9 241.47 330.1 245.39 314.44C249.91 296.52 252.62 273.33 253.37 265.5C253.52 263.99 254.57 263.09 255.93 263.09C258.19 263.09 267.22 265.35 270.84 266.7C272.65 267.45 273.4 269.11 273.55 270.62H273.54Z" fill="#DB433B"/>
<path d="M306.37 363.24C299.14 363.24 287.39 360.38 280.32 354.35C275.5 350.28 273.39 345.01 272.19 336.88C272.19 336.88 272.04 335.52 272.04 334.92C272.04 333.11 273.09 332.06 274.75 331.31C280.77 329.05 286.95 328.15 288.3 328C290.26 328 290.86 329.35 291.16 330.41C293.27 337.94 293.87 345.02 303.81 345.02C310.89 345.02 315.56 340.95 315.56 337.04C315.56 324.84 279.27 322.58 279.27 297.28C279.27 281.32 293.58 261.74 309.24 261.74C319.63 261.74 345.53 270.32 345.53 284.18C345.53 288.85 342.52 296.68 340.86 299.54C339.81 301.65 339.05 302.1 337.25 302.25C334.99 302.55 325.8 302.55 323.39 302.55C321.28 302.55 320.53 301.8 320.53 300.59C320.53 299.38 322.64 291.7 322.64 287.19C322.64 281.32 319.48 279.36 316.16 279.36C308.33 279.36 302.15 290.05 302.15 295.93C302.15 311.44 337.99 311.14 337.99 334.63C337.99 349.84 322.18 363.24 306.36 363.24H306.37Z" fill="#DB433B"/>
<path d="M139.09 19.25C145.03 19.25 169.47 26.51 173.76 28.83C176.07 30.15 177.72 32.46 177.72 35.1C177.72 35.76 177.39 37.08 177.39 37.08C166.16 68.78 144.04 160.24 133.8 242.79C133.47 246.09 130.83 248.07 127.86 248.07C122.58 248.07 106.07 243.45 101.11 241.47C98.14 240.15 95.83 237.51 95.5 232.88L94.84 221.98C94.84 220.33 94.18 218.68 93.19 218.68C92.53 218.68 91.87 219.01 90.88 220.33C80.31 235.85 67.77 249.06 57.2 249.06C34.09 249.06 8 219.01 8 189.29C8 135.14 35.74 79.66 77.34 79.66C84.93 79.66 95.17 83.62 105.74 89.24C105.74 89.24 107.39 90.23 108.38 90.23C110.36 90.23 111.68 88.91 112.34 85.94C119.27 57.21 125.88 35.75 131.49 23.86C132.81 21.22 135.78 19.24 139.08 19.24L139.09 19.25ZM93.85 178.73C97.48 161.56 103.76 130.52 103.76 127.88C103.76 125.57 102.77 123.59 100.13 122.6C95.51 120.95 91.22 119.96 88.57 119.96C67.11 119.96 55.22 165.2 55.22 187.98C55.22 197.56 57.53 204.16 60.5 204.16C67.43 204.16 79.98 195.25 89.56 186.33C92.2 184.02 93.52 181.05 93.85 178.74V178.73Z" fill="black"/>
<path d="M213.38 67.46C233.19 67.46 245.41 54.91 245.41 37.41C245.41 17.93 226.26 10 210.41 10C207.11 10 202.16 11.65 199.84 13.3C192.91 18.91 185.64 27.83 185.64 39.39C185.64 54.58 194.23 67.46 213.38 67.46Z" fill="black"/>
<path d="M318.55 152.98C318.55 150.34 322.84 134.49 322.84 128.21C322.84 121.93 321.19 117.97 316.57 117.97C302.04 117.97 283.55 152.64 283.55 179.39C283.55 195.57 290.82 205.48 303.03 205.48C314.59 205.48 327.14 200.86 336.38 195.57C336.38 195.57 337.7 194.91 339.02 194.91C341.33 194.91 342.65 195.9 343.97 198.21C346.28 202.5 352.56 216.04 352.56 220.66C352.56 224.29 351.24 226.93 349.26 228.91C337.37 239.48 321.85 249.05 303.36 249.05C292.46 249.05 262.08 240.13 249.54 224.28C240.63 213.05 236 198.86 236 180.69C236 134.46 266.38 79.32 304.02 79.32C316.9 79.32 367.75 96.82 367.75 123.57C367.75 131.49 361.48 147.34 358.17 152.63C356.52 155.27 353.88 157.25 350.25 157.58C344.97 157.91 331.1 157.91 323.5 157.91C320.53 157.58 318.55 155.6 318.55 152.96V152.98Z" fill="black"/>
<path d="M230.22 93.87C230.22 107.08 208.1 220.35 203.48 241.81C203.23 242.89 202.97 244.02 202.7 245.14C202.65 245.14 202.6 245.14 202.55 245.16C197.32 267.34 180.48 309.16 134.81 309.16C122.93 309.16 101.79 302.56 91.56 294.97C88.58 292.99 87.6 290.67 87.6 288.04C87.6 284.07 92.23 268.23 93.88 264.58C94.86 262.28 96.84 260.95 99.16 260.95C99.81 260.95 101.14 261.28 101.79 261.62C111.7 265.9 120.29 267.55 126.56 267.55C133.5 267.55 140.24 265.39 145.69 261.05C148.15 259.09 150.3 256.75 152.15 254.21C155.95 248.97 156.89 242.48 158.02 236.28C159.33 229.1 160.64 221.91 161.92 214.72C164.04 202.78 166.1 190.82 168.13 178.87C170.32 166.02 172.48 153.17 174.66 140.32C176.61 128.79 178.56 117.25 180.56 105.73C181.68 99.25 182.71 92.73 184.02 86.29C184.69 82.99 187.65 80.67 191.29 80.67C195.9 80.67 216.06 83.97 224.96 86.29C227.94 87.27 230.24 90.57 230.24 93.87H230.22Z" fill="black"/>
</g>
<defs>
<clipPath id="clip0_77_348">
<rect width="359.74" height="353.24" fill="white" transform="translate(8 10)"/>
</clipPath>
</defs>
</svg>
