<svg width="500" height="500" viewBox="0 0 500 500" fill="none" xmlns="http://www.w3.org/2000/svg">
<rect width="500" height="500" fill="#B989C9"/>
<g clip-path="url(#clip0_315_963)">
<path d="M353.983 351.867V356.427C353.983 387.654 343.569 463.63 304.996 463.63C289.824 463.63 274.652 453.407 269.347 445.912C265.33 440.249 263.497 430.935 263.497 422.349C263.497 392.395 275.016 355.687 280.866 344.736C281.958 342.905 283.245 341.814 285.624 341.814C289.095 341.814 298.781 344.918 303.357 346.568C304.814 347.113 305.554 348.763 305.554 350.218C305.554 351.127 305.19 352.231 305.19 352.231C297.883 371.949 289.654 406.293 289.654 423.453C289.654 432.948 291.486 439.521 298.793 439.521C309.207 439.521 315.058 423.999 319.816 405.008C325.302 383.276 328.591 355.153 329.501 345.658C329.684 343.827 330.958 342.735 332.609 342.735C335.352 342.735 346.312 345.476 350.706 347.113C352.903 348.023 353.813 350.036 353.995 351.867H353.983Z" fill="white"/>
<path d="M393.831 464.187C385.055 464.187 370.794 460.719 362.212 453.406C356.362 448.471 353.801 442.08 352.344 432.221C352.344 432.221 352.162 430.571 352.162 429.844C352.162 427.649 353.437 426.375 355.452 425.466C362.758 422.725 370.26 421.634 371.898 421.452C374.277 421.452 375.005 423.089 375.369 424.374C377.931 433.506 378.659 442.092 390.724 442.092C399.317 442.092 404.985 437.156 404.985 432.415C404.985 417.62 360.938 414.879 360.938 384.198C360.938 364.843 378.307 341.098 397.314 341.098C409.925 341.098 441.362 351.503 441.362 368.311C441.362 373.974 437.708 383.47 435.694 386.938C434.419 389.497 433.497 390.043 431.312 390.225C428.569 390.588 417.414 390.588 414.489 390.588C411.928 390.588 411.018 389.679 411.018 388.212C411.018 386.744 413.579 377.431 413.579 371.961C413.579 364.843 409.743 362.466 405.714 362.466C396.21 362.466 388.709 375.43 388.709 382.56C388.709 401.369 432.21 401.006 432.21 429.492C432.21 447.937 413.02 464.187 393.819 464.187H393.831Z" fill="white"/>
<path d="M190.793 47.0302C198.002 47.0302 227.667 55.8344 232.874 58.6479C235.678 60.2486 237.68 63.05 237.68 66.2515C237.68 67.0519 237.28 68.6527 237.28 68.6527C223.649 107.095 196.801 218.009 184.372 318.117C183.971 322.119 180.767 324.521 177.162 324.521C170.753 324.521 150.714 318.918 144.694 316.517C141.089 314.916 138.285 311.714 137.885 306.1L137.084 292.881C137.084 290.88 136.283 288.879 135.081 288.879C134.28 288.879 133.479 289.279 132.277 290.88C119.448 309.701 104.227 325.721 91.3976 325.721C63.3475 325.721 31.6804 289.279 31.6804 253.238C31.6804 187.57 65.3502 120.29 115.843 120.29C125.055 120.29 137.484 125.092 150.314 131.907C150.314 131.907 152.316 133.108 153.518 133.108C155.921 133.108 157.523 131.507 158.324 127.905C166.736 93.0644 174.759 67.0398 181.568 52.6207C183.17 49.4192 186.775 47.0181 190.78 47.0181L190.793 47.0302ZM135.882 240.432C140.288 219.61 147.91 181.967 147.91 178.766C147.91 175.965 146.709 173.563 143.504 172.363C137.897 170.362 132.69 169.161 129.473 169.161C103.426 169.161 88.9943 224.024 88.9943 251.649C88.9943 263.267 91.7981 271.271 95.403 271.271C103.814 271.271 119.047 260.466 130.675 249.648C133.879 246.847 135.481 243.245 135.882 240.444V240.432Z" fill="black"/>
<path d="M280.963 105.495C305.008 105.495 319.84 90.2751 319.84 69.0528C319.84 45.4294 296.596 35.8127 277.358 35.8127C273.353 35.8127 267.345 37.8136 264.529 39.8146C256.117 46.6179 247.293 57.4351 247.293 71.454C247.293 89.8749 257.719 105.495 280.963 105.495Z" fill="black"/>
<path d="M408.615 209.205C408.615 206.003 413.822 186.782 413.822 179.166C413.822 171.55 411.819 166.748 406.211 166.748C388.575 166.748 366.133 208.792 366.133 241.232C366.133 260.854 374.957 272.872 389.777 272.872C403.808 272.872 419.041 267.269 430.256 260.854C430.256 260.854 431.858 260.053 433.46 260.053C436.264 260.053 437.866 261.254 439.468 264.055C442.272 269.258 449.895 285.678 449.895 291.28C449.895 295.683 448.293 298.884 445.889 301.285C431.458 314.103 412.62 325.709 390.178 325.709C376.948 325.709 340.073 314.892 324.853 295.67C314.038 282.052 308.418 264.844 308.418 242.809C308.418 186.746 345.293 119.877 390.979 119.877C406.612 119.877 468.332 141.099 468.332 173.539C468.332 183.144 460.721 202.365 456.704 208.78C454.701 211.982 451.497 214.383 447.091 214.783C440.682 215.183 423.847 215.183 414.623 215.183C411.018 214.783 408.615 212.382 408.615 209.181V209.205Z" fill="black"/>
<path d="M301.403 137.522C301.403 153.542 274.554 290.904 268.947 316.929C268.643 318.239 268.328 319.609 268 320.967C267.939 320.967 267.879 320.967 267.818 320.992C261.47 347.889 241.03 398.604 185.598 398.604C171.178 398.604 145.519 390.601 133.103 381.396C129.486 378.995 128.296 376.182 128.296 372.992C128.296 368.178 133.916 348.969 135.918 344.542C137.108 341.753 139.511 340.14 142.327 340.14C143.116 340.14 144.73 340.54 145.519 340.953C157.548 346.143 167.974 348.144 175.584 348.144C184.008 348.144 192.189 345.525 198.804 340.261C201.789 337.885 204.399 335.047 206.644 331.967C211.257 325.612 212.398 317.742 213.769 310.223C215.359 301.516 216.949 292.796 218.503 284.077C221.076 269.597 223.576 255.093 226.04 240.602C228.699 225.018 231.32 209.435 233.966 193.852C236.333 179.869 238.7 165.875 241.127 151.905C242.487 144.046 243.737 136.139 245.327 128.33C246.14 124.328 249.733 121.514 254.151 121.514C259.747 121.514 284.216 125.516 295.019 128.33C298.636 129.518 301.427 133.52 301.427 137.522H301.403Z" fill="black"/>
</g>
<defs>
<clipPath id="clip0_315_963">
<rect width="436.639" height="428.375" fill="white" transform="translate(31.6804 35.8127)"/>
</clipPath>
</defs>
</svg>
